<?xml version="1.0" encoding="UTF-8" standalone="no"?> <!-- Created with Vectornator for iOS (http://vectornator.io/) --><!DOCTYPE svg PUBLIC "-//W3C//DTD SVG 1.1//EN" "http://www.w3.org/Graphics/SVG/1.1/DTD/svg11.dtd">
<svg height="100%" style="fill-rule:nonzero;clip-rule:evenodd;stroke-linecap:round;stroke-linejoin:round;" xmlns:xlink="http://www.w3.org/1999/xlink" xmlns="http://www.w3.org/2000/svg" xml:space="preserve" width="100%" xmlns:vectornator="http://vectornator.io" version="1.1" viewBox="0 0 512 512">
<metadata>
<vectornator:setting key="PencilOnly" value="0"/>
<vectornator:setting key="SnapToGrid" value="0"/>
<vectornator:setting key="DimensionsVisible" value="1"/>
<vectornator:setting key="DynamicGuides" value="0"/>
<vectornator:setting key="SnapToEdges" value="0"/>
<vectornator:setting key="OutlineMode" value="0"/>
<vectornator:setting key="CMYKEnabledKey" value="0"/>
<vectornator:setting key="SnapToPoints" value="0"/>
<vectornator:setting key="SnapToGuides" value="1"/>
<vectornator:setting key="DisplayWhiteBackground" value="0"/>
<vectornator:setting key="doHistoryDisabled" value="0"/>
<vectornator:setting key="TimeLapseWatermarkDisabled" value="0"/>
<vectornator:setting key="IsolateActiveLayer" value="0"/>
<vectornator:setting key="RulersVisible" value="1"/>
<vectornator:setting key="Units" value="Pixels"/>
<vectornator:setting key="GuidesVisible" value="1"/>
</metadata>
<defs/>
<g id="Ebene 2" vectornator:layerName="Ebene 2">
<path stroke="#6a6864" stroke-width="4.85305" d="M0+378.486L512.92+374.687L512.92+552.877L0+553.355L0+378.486Z" fill="#6b6965" stroke-linecap="round" opacity="1" stroke-linejoin="round"/>
<path stroke="#c9d2d3" stroke-width="4.85305" d="M0+387.95L512+392.112C512+392.112+512+397.932+512+410.281C512+422.629+512+441.507+512+441.507L0+444.346L0+387.95Z" fill="#a39d94" stroke-linecap="round" opacity="1" stroke-linejoin="round"/>
<path d="M0.547315+98.2392L384.333+98.2392L384.333+389.289L0.547315+389.289L0.547315+98.2392Z" opacity="1" fill="#e5dfe0"/>
<path d="M470.979+389.289L377.166+392.68L378.301+100.853L512+99.7179C512+99.7179+512+388.706+512+389.274C512+389.841+470.979+389.289+470.979+389.289" opacity="1" fill="#f7daae"/>
<path d="M179.549+98.8431L-0.115191+98.8431L191.932+0L383.979+98.8431L195.256+98.8431" opacity="1" fill="#bb1032"/>
<path d="M195.256+98.8431L179.549+98.8431" opacity="1" fill="#bb1032"/>
<path d="M512+100.853L409.411+99.2412L381.708+100.853L512+29.3161" opacity="1" fill="#35171d"/>
<path d="M534.434+98.5824L513.428+98.6185" opacity="1" fill="#35171d"/>
<path d="M27.3365+150.581L92.3365+150.581L92.3365+246.237L27.3365+246.237L27.3365+150.581Z" opacity="1" fill="#ece7e1"/>
<path d="M31.6607+157.202L87.538+157.202L87.538+239.615L31.6607+239.615L31.6607+157.202Z" opacity="1" fill="#f7daae"/>
<path d="M55.7251+152.833L63.7381+152.833L63.7381+241.697L55.7251+241.697L55.7251+152.833Z" opacity="1" fill="#ece7e1"/>
<g opacity="1">
<path d="M27.5811+150.646C27.5316+131.927+42.043+116.713+59.9932+116.666C77.9433+116.618+92.5349+131.755+92.5843+150.475" opacity="1" fill="#ece7e1"/>
<path d="M32.3814+148.319C32.4124+132.268+44.9148+119.28+60.3064+119.31C75.698+119.34+88.1503+132.376+88.1193+148.427" opacity="1" fill="#f7daae"/>
<path d="M39.1804+126.855L42.8053+124.148L63.3767+151.697L59.7518+154.404L39.1804+126.855Z" opacity="1" fill="#ece7e1"/>
<path d="M77.164+124.636L80.7332+127.415L59.607+154.541L56.0378+151.762L77.164+124.636Z" opacity="1" fill="#ece7e1"/>
</g>
<path d="M25.067+289.905L90.067+289.905L90.067+385.561L25.067+385.561L25.067+289.905Z" opacity="1" fill="#473110"/>
<path d="M29.3913+296.527L85.2685+296.527L85.2685+378.94L29.3913+378.94L29.3913+296.527Z" opacity="1" fill="#473110"/>
<path d="M25.3114+289.981C25.2619+271.261+39.7733+256.048+57.7235+256C75.6736+255.953+90.2652+271.089+90.3146+289.809" opacity="1" fill="#473110"/>
<path d="M29.9719+287.373C30.1777+271.323+42.8209+258.472+58.2112+258.67C73.6016+258.867+85.9111+272.038+85.7053+288.088" opacity="1" fill="#f7daae"/>
<path d="M37.0043+265.984L40.6584+263.317L60.9286+291.088L57.2744+293.756L37.0043+265.984Z" opacity="1" fill="#473110"/>
<path d="M75.0098+264.179L78.5485+266.997L57.1281+293.891L53.5894+291.073L75.0098+264.179Z" opacity="1" fill="#473110"/>
<path d="M119.945+157.202L175.945+157.202L175.945+239.615L119.945+239.615L119.945+157.202Z" opacity="1" fill="#f7daae"/>
<path d="M115.445+150.581L180.445+150.581L180.445+246.237L115.445+246.237L115.445+150.581Z" opacity="1" fill="#ece7e1"/>
<path d="M121.159+159.059L177.16+159.059L177.16+241.472L121.159+241.472L121.159+159.059Z" opacity="1" fill="#f7daae"/>
<path d="M159.101+158.576L175.381+159.045L176.957+158.796L176.625+173.908L176.622+208.702L176.036+241.681L124.469+241.247C124.469+241.247+152.293+199.797+138.064+207.3C123.835+214.802+131.259+200.173+131.259+200.173L146.868+183.415L150.128+179.916C150.128+179.916+131.872+184.559+133.341+180.902C134.81+177.244+151.733+169.388+151.733+169.388C151.733+169.388+141.424+166.266+141.591+163.628C141.758+160.989+156.946+158.774+156.946+158.774" opacity="1" fill="#546641"/>
<path d="M143.957+153.219L151.97+153.219L151.97+242.082L143.957+242.082L143.957+153.219Z" opacity="1" fill="#ece7e1"/>
<path d="M147.653+119.347C163.041+119.675+175.239+132.95+174.897+148.998" opacity="1" fill="#f7daae"/>
<path d="M119.171+147.81C119.513+131.763+132.265+119.019+147.653+119.347" opacity="1" fill="#f7daae"/>
<path d="M114.535+150.326C114.644+131.607+129.284+116.517+147.234+116.622C165.184+116.727+179.647+131.987+179.537+150.706" opacity="1" fill="#ece7e1"/>
<path d="M116.12+151.074C115.83+132.356+130.145+116.958+148.094+116.681C166.042+116.403+180.826+131.351+181.115+150.069" opacity="1" fill="#ece7e1"/>
<path d="M119.071+148.826C119.071+132.775+131.548+119.762+146.94+119.762C154.48+119.762+161.32+122.885+166.337+127.958C167.849+129.486+169.195+131.192+170.345+133.042C173.169+137.587+159.863+143.908+159.863+149.726" opacity="1" fill="#f7daae"/>
<path d="M127.504+126.929L131.124+124.216L151.748+151.725L148.129+154.439L127.504+126.929Z" opacity="1" fill="#ece7e1"/>
<path d="M165.483+124.637L169.058+127.41L147.984+154.576L144.409+151.803L165.483+124.637Z" opacity="1" fill="#ece7e1"/>
<g opacity="1">
<path d="M203.287+150.581L268.287+150.581L268.287+246.237L203.287+246.237L203.287+150.581Z" opacity="1" fill="#ece7e1"/>
<path d="M207.786+157.202L263.787+157.202L263.787+239.615L207.786+239.615L207.786+157.202Z" opacity="1" fill="#f7daae"/>
<path d="M231.799+153.219L239.811+153.219L239.811+242.082L231.799+242.082L231.799+153.219Z" opacity="1" fill="#ece7e1"/>
<g opacity="1">
<path d="M203.962+151.074C203.672+132.356+217.987+116.958+235.935+116.681C253.884+116.403+268.668+131.351+268.957+150.069" opacity="1" fill="#ece7e1"/>
<path d="M208.588+148.407C208.588+132.356+221.066+119.344+236.457+119.344C251.849+119.344+264.326+132.356+264.326+148.407" opacity="1" fill="#f7daae"/>
<path d="M215.346+126.929L218.966+124.216L239.59+151.725L235.971+154.439L215.346+126.929Z" opacity="1" fill="#ece7e1"/>
<path d="M253.325+124.637L256.9+127.41L235.826+154.576L232.251+151.803L253.325+124.637Z" opacity="1" fill="#ece7e1"/>
</g>
<path d="M202.336+150.364C202.446+131.644+217.085+116.555+235.035+116.659C252.985+116.764+267.448+132.024+267.339+150.743" opacity="1" fill="#ece7e1"/>
<path d="M207.013+147.81C207.355+131.763+220.107+119.019+235.495+119.347C250.883+119.675+263.081+132.95+262.739+148.998" opacity="1" fill="#f7daae"/>
<path d="M214.227+126.482L217.904+123.846L237.937+151.788L234.261+154.424L214.227+126.482Z" opacity="1" fill="#ece7e1"/>
<path d="M252.246+124.999L255.761+127.847L234.113+154.559L230.599+151.71L252.246+124.999Z" opacity="1" fill="#ece7e1"/>
</g>
<g opacity="1">
<path d="M291.129+150.581L356.129+150.581L356.129+246.237L291.129+246.237L291.129+150.581Z" opacity="1" fill="#ece7e1"/>
<path d="M295.628+157.202L351.629+157.202L351.629+239.615L295.628+239.615L295.628+157.202Z" opacity="1" fill="#656058"/>
<path d="M319.64+153.219L327.653+153.219L327.653+242.082L319.64+242.082L319.64+153.219Z" opacity="1" fill="#ece7e1"/>
<g opacity="1">
<path d="M291.804+151.074C291.514+132.356+305.829+116.958+323.777+116.681C341.725+116.403+356.51+131.351+356.799+150.069" opacity="1" fill="#ece7e1"/>
<path d="M296.43+148.407C296.43+132.356+308.908+119.344+324.299+119.344C339.691+119.344+352.168+132.356+352.168+148.407" opacity="1" fill="#f7daae"/>
<path d="M303.188+126.929L306.808+124.216L327.432+151.725L323.812+154.439L303.188+126.929Z" opacity="1" fill="#ece7e1"/>
<path d="M341.167+124.637L344.742+127.41L323.668+154.576L320.093+151.803L341.167+124.637Z" opacity="1" fill="#ece7e1"/>
</g>
<path d="M290.328+150.235C290.437+131.515+305.077+116.425+323.027+116.53C340.977+116.635+355.439+131.895+355.33+150.614" opacity="1" fill="#ece7e1"/>
<path d="M294.855+147.81C295.197+131.763+307.949+119.019+323.337+119.347C338.725+119.675+350.923+132.95+350.581+148.998" opacity="1" fill="#656058"/>
<path d="M302.069+126.482L305.746+123.846L325.779+151.788L322.103+154.424L302.069+126.482Z" opacity="1" fill="#ece7e1"/>
<path d="M340.088+124.999L343.603+127.847L321.955+154.559L318.441+151.71L340.088+124.999Z" opacity="1" fill="#ece7e1"/>
</g>
<path d="M319.64+153.219L327.653+153.219L327.653+242.082L319.64+242.082L319.64+153.219Z" opacity="1" fill="#ece7e1"/>
<g opacity="1">
<path d="M290.192+256L358.917+256L358.917+352.225L290.192+352.225L290.192+256Z" opacity="1" fill="#ece7e1"/>
<path d="M295.555+263.509L353.555+263.509L353.555+344.717L295.555+344.717L295.555+263.509Z" opacity="1" fill="#f7daae"/>
<path d="M320.548+259.681L328.561+259.681L328.561+348.544L320.548+348.544L320.548+259.681Z" opacity="1" fill="#ece7e1"/>
<path d="M294.611+306.813L294.611+301.413L354.498+301.413L354.498+306.813L294.611+306.813Z" opacity="1" fill="#ece7e1"/>
</g>
<g opacity="1">
<path d="M203.498+256L272.224+256L272.224+352.225L203.498+352.225L203.498+256Z" opacity="1" fill="#ece7e1"/>
<path d="M208.861+263.509L266.861+263.509L266.861+344.717L208.861+344.717L208.861+263.509Z" opacity="1" fill="#656058"/>
<path d="M233.855+259.681L241.867+259.681L241.867+348.544L233.855+348.544L233.855+259.681Z" opacity="1" fill="#ece7e1"/>
<path d="M207.918+306.813L207.918+301.413L267.804+301.413L267.804+306.813L207.918+306.813Z" opacity="1" fill="#ece7e1"/>
</g>
<g opacity="1">
<path d="M113.627+256L182.353+256L182.353+352.225L113.627+352.225L113.627+256Z" opacity="1" fill="#ece7e1"/>
<path d="M118.99+263.509L176.99+263.509L176.99+344.717L118.99+344.717L118.99+263.509Z" opacity="1" fill="#f7daae"/>
<path d="M143.984+259.681L151.997+259.681L151.997+348.544L143.984+348.544L143.984+259.681Z" opacity="1" fill="#ece7e1"/>
<path d="M118.047+306.813L118.047+301.413L177.933+301.413L177.933+306.813L118.047+306.813Z" opacity="1" fill="#ece7e1"/>
</g>
<g opacity="1">
<path d="M413.472+126.974L493.412+126.974L493.412+243.183L413.472+243.183L413.472+126.974Z" opacity="1" fill="#efb764"/>
<path d="M419.71+136.042L487.174+136.042L487.174+234.114L419.71+234.114L419.71+136.042Z" opacity="1" fill="#857b6d"/>
<path d="M448.782+131.419L458.102+131.419L458.102+238.737L448.782+238.737L448.782+131.419Z" opacity="1" fill="#f0b864"/>
<path d="M418.604+188.191L418.62+181.67L488.28+181.965L488.264+188.487L418.604+188.191Z" opacity="1" fill="#f0b864"/>
</g>
<g opacity="1">
<path d="M413.966+126.974L493.906+126.974L493.906+243.183L413.966+243.183L413.966+126.974Z" opacity="1" fill="#efb764"/>
<path d="M420.204+136.042L487.668+136.042L487.668+234.114L420.204+234.114L420.204+136.042Z" opacity="1" fill="#857b6d"/>
<path d="M449.275+131.419L458.596+131.419L458.596+238.737L449.275+238.737L449.275+131.419Z" opacity="1" fill="#f0b864"/>
<path d="M419.098+188.191L419.114+181.67L488.773+181.965L488.758+188.487L419.098+188.191Z" opacity="1" fill="#f0b864"/>
</g>
<g opacity="1">
<path d="M413.472+126.974L493.412+126.974L493.412+243.183L413.472+243.183L413.472+126.974Z" opacity="1" fill="#efb764"/>
<path d="M419.71+136.042L487.174+136.042L487.174+234.114L419.71+234.114L419.71+136.042Z" opacity="1" fill="#656058"/>
<path d="M448.782+131.419L458.102+131.419L458.102+238.737L448.782+238.737L448.782+131.419Z" opacity="1" fill="#f0b864"/>
<path d="M418.604+188.191L418.62+181.67L488.28+181.965L488.264+188.487L418.604+188.191Z" opacity="1" fill="#f0b864"/>
</g>
<g opacity="1">
<path d="M413.966+126.974L493.906+126.974L493.906+243.183L413.966+243.183L413.966+126.974Z" opacity="1" fill="#efb764"/>
<path d="M420.204+136.042L487.668+136.042L487.668+234.114L420.204+234.114L420.204+136.042Z" opacity="1" fill="#656058"/>
<path d="M449.275+131.419L458.596+131.419L458.596+238.737L449.275+238.737L449.275+131.419Z" opacity="1" fill="#f0b864"/>
<path d="M419.098+188.191L419.114+181.67L488.773+181.965L488.758+188.487L419.098+188.191Z" opacity="1" fill="#f0b864"/>
</g>
<g opacity="1">
<path d="M413.868+256L493.808+256L493.808+372.209L413.868+372.209L413.868+256Z" opacity="1" fill="#efb764"/>
<path d="M420.106+265.068L487.57+265.068L487.57+363.141L420.106+363.141L420.106+265.068Z" opacity="1" fill="#656058"/>
<path d="M449.178+260.446L458.499+260.446L458.499+367.763L449.178+367.763L449.178+260.446Z" opacity="1" fill="#f0b864"/>
<path d="M419.011+317.332L419.005+310.81L488.666+310.877L488.671+317.399L419.011+317.332Z" opacity="1" fill="#f0b864"/>
</g>
<g opacity="1">
<path d="M414.362+256L494.302+256L494.302+372.209L414.362+372.209L414.362+256Z" opacity="1" fill="#efb764"/>
<path d="M420.6+265.068L488.064+265.068L488.064+363.141L420.6+363.141L420.6+265.068Z" opacity="1" fill="#656058"/>
<path d="M449.672+260.446L458.992+260.446L458.992+367.763L449.672+367.763L449.672+260.446Z" opacity="1" fill="#f0b864"/>
<path d="M419.505+317.332L419.499+310.81L489.159+310.877L489.165+317.399L419.505+317.332Z" opacity="1" fill="#f0b864"/>
</g>
<path d="M158.461+144.072L166.6+140.541C169.95+138.486+170.365+132.103+170.725+134.494L175.114+145.579C175.474+147.97+172.758+149.637+169.047+149.301L160.025+149.706C156.315+149.37+155.111+146.127+158.461+144.072Z" opacity="1" fill="#546641"/>
<path d="M319.64+153.219L327.653+153.219L327.653+242.082L319.64+242.082L319.64+153.219Z" opacity="1" fill="#ece7e1"/>
<path d="M158.794+173.908C158.794+171.286+160.616+169.16+162.862+169.16C165.109+169.16+166.931+171.286+166.931+173.908C166.931+176.53+165.109+178.655+162.862+178.655C160.616+178.655+158.794+176.53+158.794+173.908Z" opacity="1" fill="#cf1910"/>
<path d="M166.589+201.963C166.589+199.341+168.41+197.215+170.657+197.215C172.904+197.215+174.726+199.341+174.726+201.963C174.726+204.585+172.904+206.71+170.657+206.71C168.41+206.71+166.589+204.585+166.589+201.963Z" opacity="1" fill="#cf1910"/>
<path d="M153.28+219.935C153.28+217.313+155.101+215.188+157.348+215.188C159.595+215.188+161.416+217.313+161.416+219.935C161.416+222.557+159.595+224.682+157.348+224.682C155.101+224.682+153.28+222.557+153.28+219.935Z" opacity="1" fill="#cf1910"/>
<path d="M133.297+232.618C133.297+229.996+135.118+227.87+137.365+227.87C139.612+227.87+141.434+229.996+141.434+232.618C141.434+235.24+139.612+237.365+137.365+237.365C135.118+237.365+133.297+235.24+133.297+232.618Z" opacity="1" fill="#cf1910"/>
<path d="M153.434+190.243C153.434+187.621+155.255+185.496+157.502+185.496C159.749+185.496+161.57+187.621+161.57+190.243C161.57+192.865+159.749+194.99+157.502+194.99C155.255+194.99+153.434+192.865+153.434+190.243Z" opacity="1" fill="#cf1910"/>
<path d="M164.537+227.427C164.537+224.805+166.358+222.679+168.605+222.679C170.852+222.679+172.673+224.805+172.673+227.427C172.673+230.049+170.852+232.174+168.605+232.174C166.358+232.174+164.537+230.049+164.537+227.427Z" opacity="1" fill="#cf1910"/>
<path d="M163.112+172.849C163.112+172.317+163.569+171.886+164.133+171.886C164.697+171.886+165.154+172.317+165.154+172.849C165.154+173.38+164.697+173.811+164.133+173.811C163.569+173.811+163.112+173.38+163.112+172.849Z" opacity="1" fill="#e1b5b3"/>
<path d="M170.907+200.904C170.907+200.372+171.364+199.942+171.928+199.942C172.492+199.942+172.949+200.372+172.949+200.904C172.949+201.435+172.492+201.866+171.928+201.866C171.364+201.866+170.907+201.435+170.907+200.904Z" opacity="1" fill="#e1b5b3"/>
<path d="M157.598+218.876C157.598+218.345+158.055+217.914+158.619+217.914C159.182+217.914+159.639+218.345+159.639+218.876C159.639+219.408+159.182+219.838+158.619+219.838C158.055+219.838+157.598+219.408+157.598+218.876Z" opacity="1" fill="#e1b5b3"/>
<path d="M137.615+231.559C137.615+231.027+138.072+230.596+138.636+230.596C139.2+230.596+139.657+231.027+139.657+231.559C139.657+232.09+139.2+232.521+138.636+232.521C138.072+232.521+137.615+232.09+137.615+231.559Z" opacity="1" fill="#e1b5b3"/>
<path d="M157.752+189.184C157.752+188.653+158.209+188.222+158.773+188.222C159.337+188.222+159.794+188.653+159.794+189.184C159.794+189.716+159.337+190.146+158.773+190.146C158.209+190.146+157.752+189.716+157.752+189.184Z" opacity="1" fill="#e1b5b3"/>
<path d="M168.855+226.368C168.855+225.836+169.312+225.405+169.876+225.405C170.44+225.405+170.897+225.836+170.897+226.368C170.897+226.899+170.44+227.33+169.876+227.33C169.312+227.33+168.855+226.899+168.855+226.368Z" opacity="1" fill="#e1b5b3"/>
</g>
</svg>
