<svg width="1070" height="838" viewBox="0 0 1070 838" fill="none" xmlns="http://www.w3.org/2000/svg">
<g clip-path="url(#clip0_206_68)">
<path d="M158.4 526.59C158.397 527.711 157.951 528.785 157.158 529.578C156.365 530.371 155.291 530.817 154.17 530.82H148.17C149.292 530.82 150.368 531.266 151.161 532.059C151.954 532.852 152.4 533.928 152.4 535.05C152.4 536.172 151.954 537.248 151.161 538.041C150.368 538.834 149.292 539.28 148.17 539.28H156.62C157.742 539.28 158.818 539.726 159.611 540.519C160.404 541.312 160.85 542.388 160.85 543.51C160.85 544.632 160.404 545.708 159.611 546.501C158.818 547.294 157.742 547.74 156.62 547.74H116.91C144.04 623.74 194.91 690.18 261.79 740.25C262.488 739.771 263.314 739.513 264.16 739.51H313.09C314.212 739.51 315.288 739.956 316.081 740.749C316.874 741.542 317.32 742.618 317.32 743.74C317.32 744.862 316.874 745.938 316.081 746.731C315.288 747.524 314.212 747.97 313.09 747.97H307.09C308.212 747.97 309.288 748.416 310.081 749.209C310.874 750.002 311.32 751.078 311.32 752.2C311.32 753.322 310.874 754.398 310.081 755.191C309.288 755.984 308.212 756.43 307.09 756.43H315.55C316.672 756.43 317.748 756.876 318.541 757.669C319.334 758.462 319.78 759.538 319.78 760.66C319.78 761.782 319.334 762.858 318.541 763.651C317.748 764.444 316.672 764.89 315.55 764.89H298.16C373.09 810.69 463.76 837.5 561.44 837.5C619.348 837.614 676.861 827.962 731.56 808.95C738.827 806.397 746.01 803.697 753.11 800.85C765.47 795.857 777.54 790.413 789.32 784.52C794.4 781.98 799.423 779.353 804.39 776.64L804.62 776.52L805.74 775.9L808.65 774.29C814.523 771.01 820.307 767.617 826 764.11L829.5 761.94C832.46 760.08 835.39 758.19 838.29 756.27C844.077 752.463 849.763 748.53 855.35 744.47L857.35 742.99L858.96 741.8C866.48 736.24 873.793 730.477 880.9 724.51L881.2 724.26C884.68 721.333 888.11 718.357 891.49 715.33L891.79 715.06C902.814 705.199 913.33 694.786 923.3 683.86C938.247 667.503 951.877 649.988 964.06 631.48H944.56C943.438 631.48 942.362 631.034 941.569 630.241C940.776 629.448 940.33 628.372 940.33 627.25C940.33 626.128 940.776 625.052 941.569 624.259C942.362 623.466 943.438 623.02 944.56 623.02H936.11C934.988 623.02 933.912 622.574 933.119 621.781C932.326 620.988 931.88 619.912 931.88 618.79C931.88 617.668 932.326 616.592 933.119 615.799C933.912 615.006 934.988 614.56 936.11 614.56H942.11C941.538 614.588 940.966 614.499 940.429 614.299C939.892 614.1 939.402 613.793 938.987 613.398C938.572 613.003 938.242 612.528 938.016 612.001C937.791 611.475 937.674 610.908 937.674 610.335C937.674 609.762 937.791 609.195 938.016 608.669C938.242 608.142 938.572 607.667 938.987 607.272C939.402 606.877 939.892 606.57 940.429 606.371C940.966 606.171 941.538 606.082 942.11 606.11H979.4C1010.4 550.39 1027.83 487.61 1027.83 421.18C1027.84 379.276 1020.83 337.666 1007.09 298.08H924.1C921.782 298.002 919.585 297.027 917.973 295.36C916.36 293.693 915.459 291.464 915.459 289.145C915.459 286.826 916.36 284.597 917.973 282.93C919.585 281.263 921.782 280.288 924.1 280.21H906.24C903.872 280.21 901.6 279.269 899.926 277.594C898.251 275.92 897.31 273.648 897.31 271.28C897.31 268.912 898.251 266.64 899.926 264.966C901.6 263.291 903.872 262.35 906.24 262.35H919C916.682 262.272 914.485 261.297 912.873 259.63C911.26 257.963 910.359 255.734 910.359 253.415C910.359 251.096 911.26 248.867 912.873 247.2C914.485 245.533 916.682 244.558 919 244.48H983.91C909.46 102.91 748.28 4.87 561.44 4.87C452.3 4.87 351.93 38.32 272.44 94.35H293.24C295.558 94.4275 297.755 95.4029 299.367 97.0701C300.98 98.7372 301.881 100.966 301.881 103.285C301.881 105.604 300.98 107.833 299.367 109.5C297.755 111.167 295.558 112.142 293.24 112.22H280.51C282.878 112.22 285.15 113.161 286.824 114.836C288.499 116.51 289.44 118.782 289.44 121.15C289.44 123.518 288.499 125.79 286.824 127.464C285.15 129.139 282.878 130.08 280.51 130.08H298.37C299.568 130.04 300.763 130.241 301.882 130.672C303.001 131.103 304.022 131.755 304.884 132.589C305.746 133.422 306.431 134.421 306.9 135.525C307.368 136.629 307.609 137.816 307.609 139.015C307.609 140.214 307.368 141.401 306.9 142.505C306.431 143.609 305.746 144.608 304.884 145.441C304.022 146.275 303.001 146.927 301.882 147.358C300.763 147.789 299.568 147.99 298.37 147.95H209.49C138.16 221.07 94.96 316.62 94.96 421.18C94.9526 455.382 99.6259 489.425 108.85 522.36H154.17C155.29 522.365 156.363 522.813 157.155 523.605C157.947 524.397 158.395 525.47 158.4 526.59V526.59Z" fill="#F9ECE2"/>
<path opacity="0.1" d="M515.33 74.75H528.09C525.772 74.6725 523.575 73.6971 521.963 72.0299C520.35 70.3628 519.449 68.1343 519.449 65.815C519.449 63.4957 520.35 61.2672 521.963 59.6001C523.575 57.9329 525.772 56.9576 528.09 56.88H631.45C633.768 56.9576 635.965 57.9329 637.577 59.6001C639.19 61.2672 640.091 63.4957 640.091 65.815C640.091 68.1343 639.19 70.3628 637.577 72.0299C635.965 73.6971 633.768 74.6725 631.45 74.75H618.69C621.058 74.75 623.33 75.6908 625.004 77.3655C626.679 79.0402 627.62 81.3116 627.62 83.68C627.62 86.0484 626.679 88.3198 625.004 89.9945C623.33 91.6692 621.058 92.61 618.69 92.61H636.55C638.868 92.6876 641.065 93.6629 642.677 95.3301C644.29 96.9972 645.191 99.2257 645.191 101.545C645.191 103.864 644.29 106.093 642.677 107.76C641.065 109.427 638.868 110.402 636.55 110.48H533.19C530.872 110.402 528.675 109.427 527.062 107.76C525.45 106.093 524.549 103.864 524.549 101.545C524.549 99.2257 525.45 96.9972 527.062 95.3301C528.675 93.6629 530.872 92.6876 533.19 92.61H515.33C512.962 92.61 510.69 91.6692 509.015 89.9945C507.341 88.3198 506.4 86.0484 506.4 83.68C506.4 81.3116 507.341 79.0402 509.015 77.3655C510.69 75.6908 512.962 74.75 515.33 74.75V74.75Z" fill="#98673D"/>
<path opacity="0.1" d="M662.66 211.62H675.42C673.052 211.62 670.78 210.679 669.106 209.004C667.431 207.33 666.49 205.058 666.49 202.69C666.49 200.322 667.431 198.05 669.106 196.376C670.78 194.701 673.052 193.76 675.42 193.76H778.78C781.148 193.76 783.42 194.701 785.094 196.376C786.769 198.05 787.71 200.322 787.71 202.69C787.71 205.058 786.769 207.33 785.094 209.004C783.42 210.679 781.148 211.62 778.78 211.62H766.02C768.388 211.62 770.66 212.561 772.334 214.236C774.009 215.91 774.95 218.182 774.95 220.55C774.95 222.918 774.009 225.19 772.334 226.864C770.66 228.539 768.388 229.48 766.02 229.48H783.91C786.228 229.558 788.425 230.533 790.037 232.2C791.65 233.867 792.551 236.096 792.551 238.415C792.551 240.734 791.65 242.963 790.037 244.63C788.425 246.297 786.228 247.272 783.91 247.35H680.52C678.202 247.272 676.005 246.297 674.393 244.63C672.78 242.963 671.879 240.734 671.879 238.415C671.879 236.096 672.78 233.867 674.393 232.2C676.005 230.533 678.202 229.558 680.52 229.48H662.66C660.292 229.48 658.02 228.539 656.346 226.864C654.671 225.19 653.73 222.918 653.73 220.55C653.73 218.182 654.671 215.91 656.346 214.236C658.02 212.561 660.292 211.62 662.66 211.62V211.62Z" fill="#98673D"/>
<path opacity="0.1" d="M512.91 639.03H518.91C517.788 639.03 516.712 638.584 515.919 637.791C515.126 636.998 514.68 635.922 514.68 634.8C514.68 633.678 515.126 632.602 515.919 631.809C516.712 631.016 517.788 630.57 518.91 630.57H567.91C569.032 630.57 570.108 631.016 570.901 631.809C571.695 632.602 572.14 633.678 572.14 634.8C572.14 635.922 571.695 636.998 570.901 637.791C570.108 638.584 569.032 639.03 567.91 639.03H561.91C563.032 639.03 564.108 639.476 564.901 640.269C565.695 641.062 566.14 642.138 566.14 643.26C566.14 644.382 565.695 645.458 564.901 646.251C564.108 647.044 563.032 647.49 561.91 647.49H570.36C571.482 647.49 572.558 647.936 573.351 648.729C574.144 649.522 574.59 650.598 574.59 651.72C574.59 652.842 574.144 653.918 573.351 654.711C572.558 655.504 571.482 655.95 570.36 655.95H521.37C520.248 655.95 519.172 655.504 518.379 654.711C517.586 653.918 517.14 652.842 517.14 651.72C517.14 650.598 517.586 649.522 518.379 648.729C519.172 647.936 520.248 647.49 521.37 647.49H512.91C511.788 647.49 510.712 647.044 509.919 646.251C509.126 645.458 508.68 644.382 508.68 643.26C508.68 642.138 509.126 641.062 509.919 640.269C510.712 639.476 511.788 639.03 512.91 639.03Z" fill="#98673D"/>
<path opacity="0.1" d="M378.2 710.92H383.02C382.157 710.873 381.344 710.497 380.75 709.869C380.155 709.241 379.824 708.41 379.824 707.545C379.824 706.68 380.155 705.849 380.75 705.221C381.344 704.593 382.157 704.217 383.02 704.17H422.08C422.943 704.217 423.756 704.593 424.35 705.221C424.945 705.849 425.276 706.68 425.276 707.545C425.276 708.41 424.945 709.241 424.35 709.869C423.756 710.497 422.943 710.873 422.08 710.92H417.26C418.123 710.967 418.936 711.343 419.53 711.971C420.125 712.599 420.456 713.43 420.456 714.295C420.456 715.16 420.125 715.991 419.53 716.619C418.936 717.247 418.123 717.623 417.26 717.67H424.01C424.873 717.717 425.686 718.093 426.28 718.721C426.875 719.349 427.206 720.18 427.206 721.045C427.206 721.91 426.875 722.741 426.28 723.369C425.686 723.997 424.873 724.373 424.01 724.42H384.91C384.451 724.445 383.992 724.376 383.561 724.218C383.13 724.06 382.736 723.815 382.402 723.499C382.069 723.183 381.803 722.803 381.621 722.381C381.44 721.959 381.346 721.504 381.346 721.045C381.346 720.586 381.44 720.131 381.621 719.709C381.803 719.287 382.069 718.907 382.402 718.591C382.736 718.275 383.13 718.03 383.561 717.872C383.992 717.714 384.451 717.645 384.91 717.67H378.16C377.701 717.695 377.242 717.626 376.811 717.468C376.38 717.31 375.986 717.065 375.652 716.749C375.319 716.433 375.053 716.053 374.871 715.631C374.69 715.209 374.596 714.754 374.596 714.295C374.596 713.836 374.69 713.381 374.871 712.959C375.053 712.537 375.319 712.157 375.652 711.841C375.986 711.525 376.38 711.28 376.811 711.122C377.242 710.964 377.701 710.895 378.16 710.92H378.2Z" fill="#98673D"/>
<path opacity="0.1" d="M213.09 585.12H219.14C218.018 585.12 216.942 584.674 216.149 583.881C215.356 583.088 214.91 582.012 214.91 580.89C214.91 579.768 215.356 578.692 216.149 577.899C216.942 577.106 218.018 576.66 219.14 576.66H268.07C269.192 576.66 270.268 577.106 271.061 577.899C271.854 578.692 272.3 579.768 272.3 580.89C272.3 582.012 271.854 583.088 271.061 583.881C270.268 584.674 269.192 585.12 268.07 585.12H262.07C263.192 585.12 264.268 585.566 265.061 586.359C265.854 587.152 266.3 588.228 266.3 589.35C266.3 590.472 265.854 591.548 265.061 592.341C264.268 593.134 263.192 593.58 262.07 593.58H270.53C271.652 593.58 272.728 594.026 273.521 594.819C274.314 595.612 274.76 596.688 274.76 597.81C274.76 598.932 274.314 600.008 273.521 600.801C272.728 601.594 271.652 602.04 270.53 602.04H221.55C220.428 602.04 219.352 601.594 218.559 600.801C217.765 600.008 217.32 598.932 217.32 597.81C217.32 596.688 217.765 595.612 218.559 594.819C219.352 594.026 220.428 593.58 221.55 593.58H213.09C211.968 593.58 210.892 593.134 210.099 592.341C209.306 591.548 208.86 590.472 208.86 589.35C208.86 588.228 209.306 587.152 210.099 586.359C210.892 585.566 211.968 585.12 213.09 585.12Z" fill="#98673D"/>
<path opacity="0.1" d="M639.91 717.35H645.91C644.788 717.35 643.712 716.904 642.919 716.111C642.126 715.318 641.68 714.242 641.68 713.12C641.68 711.998 642.126 710.922 642.919 710.129C643.712 709.336 644.788 708.89 645.91 708.89H694.91C696.032 708.89 697.108 709.336 697.901 710.129C698.695 710.922 699.14 711.998 699.14 713.12C699.14 714.242 698.695 715.318 697.901 716.111C697.108 716.904 696.032 717.35 694.91 717.35H688.91C690.032 717.35 691.108 717.796 691.901 718.589C692.695 719.382 693.14 720.458 693.14 721.58C693.14 722.702 692.695 723.778 691.901 724.571C691.108 725.364 690.032 725.81 688.91 725.81H697.37C698.455 725.863 699.478 726.331 700.227 727.118C700.977 727.904 701.395 728.949 701.395 730.035C701.395 731.121 700.977 732.166 700.227 732.952C699.478 733.739 698.455 734.207 697.37 734.26H648.35C647.778 734.288 647.206 734.199 646.669 733.999C646.133 733.8 645.642 733.493 645.227 733.098C644.812 732.703 644.482 732.228 644.257 731.701C644.031 731.175 643.915 730.608 643.915 730.035C643.915 729.462 644.031 728.895 644.257 728.369C644.482 727.842 644.812 727.367 645.227 726.972C645.642 726.577 646.133 726.27 646.669 726.071C647.206 725.871 647.778 725.782 648.35 725.81H639.91C638.788 725.81 637.712 725.364 636.919 724.571C636.126 723.778 635.68 722.702 635.68 721.58C635.68 720.458 636.126 719.382 636.919 718.589C637.712 717.796 638.788 717.35 639.91 717.35Z" fill="#98673D"/>
<path opacity="0.3" d="M707.91 307.75C708.234 307.132 708.32 306.416 708.15 305.74C707.98 305.063 707.567 304.472 706.99 304.08C706.901 304.021 706.82 303.95 706.75 303.87V303.87C706.544 303.643 706.416 303.356 706.386 303.051C706.355 302.747 706.423 302.44 706.58 302.177C706.737 301.914 706.974 301.708 707.257 301.59C707.539 301.471 707.852 301.447 708.15 301.52C708.254 301.548 708.355 301.588 708.45 301.64C709.068 301.966 709.785 302.053 710.463 301.886C711.142 301.718 711.735 301.307 712.13 300.73C712.189 300.638 712.259 300.554 712.34 300.48V300.48C712.568 300.277 712.855 300.152 713.159 300.124C713.463 300.095 713.768 300.165 714.029 300.323C714.291 300.48 714.495 300.717 714.612 300.999C714.729 301.281 714.753 301.594 714.68 301.89C714.648 301.993 714.608 302.094 714.56 302.19C714.235 302.808 714.15 303.524 714.32 304.201C714.489 304.877 714.902 305.468 715.48 305.86C715.57 305.922 715.654 305.992 715.73 306.07C715.933 306.298 716.058 306.585 716.086 306.889C716.115 307.193 716.045 307.498 715.887 307.76C715.73 308.021 715.492 308.226 715.21 308.343C714.928 308.46 714.616 308.483 714.32 308.41V308.41C714.214 308.387 714.113 308.346 714.02 308.29C713.4 307.967 712.683 307.883 712.005 308.052C711.327 308.222 710.735 308.634 710.34 309.21C710.284 309.302 710.217 309.386 710.14 309.46C709.912 309.668 709.624 309.797 709.318 309.827C709.012 309.858 708.703 309.789 708.439 309.631C708.175 309.472 707.97 309.233 707.853 308.948C707.736 308.663 707.714 308.348 707.79 308.05V308.05C707.821 307.947 707.861 307.846 707.91 307.75V307.75Z" fill="#98673D"/>
<path opacity="0.3" d="M1024.59 139.07C1024.92 138.453 1025 137.736 1024.83 137.059C1024.66 136.381 1024.25 135.79 1023.67 135.4C1023.58 135.338 1023.5 135.268 1023.43 135.19C1023.22 134.963 1023.09 134.674 1023.06 134.368C1023.03 134.062 1023.1 133.754 1023.26 133.49C1023.42 133.226 1023.66 133.02 1023.94 132.903C1024.23 132.786 1024.54 132.764 1024.84 132.84V132.84C1024.94 132.87 1025.04 132.91 1025.13 132.96C1025.75 133.287 1026.47 133.374 1027.15 133.204C1027.83 133.035 1028.42 132.62 1028.81 132.04C1028.87 131.953 1028.94 131.873 1029.02 131.8V131.8C1029.25 131.597 1029.53 131.472 1029.84 131.444C1030.14 131.415 1030.45 131.485 1030.71 131.643C1030.97 131.8 1031.18 132.037 1031.29 132.319C1031.41 132.601 1031.43 132.914 1031.36 133.21V133.21C1031.34 133.312 1031.29 133.41 1031.24 133.5C1030.92 134.12 1030.83 134.836 1031 135.514C1031.17 136.192 1031.58 136.785 1032.16 137.18C1032.25 137.242 1032.33 137.312 1032.41 137.39V137.39C1032.61 137.618 1032.74 137.905 1032.77 138.209C1032.79 138.513 1032.73 138.818 1032.57 139.08C1032.41 139.341 1032.17 139.545 1031.89 139.663C1031.61 139.78 1031.3 139.803 1031 139.73V139.73C1030.9 139.703 1030.79 139.663 1030.7 139.61C1030.08 139.288 1029.37 139.204 1028.69 139.373C1028.01 139.543 1027.42 139.954 1027.03 140.53C1026.97 140.618 1026.9 140.701 1026.82 140.78V140.78C1026.59 140.988 1026.3 141.116 1026 141.147C1025.69 141.178 1025.38 141.109 1025.12 140.951C1024.86 140.792 1024.65 140.553 1024.53 140.268C1024.42 139.983 1024.39 139.668 1024.47 139.37C1024.5 139.267 1024.54 139.166 1024.59 139.07V139.07Z" fill="#98673D"/>
<path opacity="0.3" d="M1029.46 592.13C1029.78 591.512 1029.87 590.796 1029.7 590.119C1029.53 589.443 1029.12 588.852 1028.54 588.46C1028.45 588.401 1028.37 588.33 1028.3 588.25V588.25C1028.09 588.025 1027.96 587.738 1027.93 587.432C1027.9 587.126 1027.96 586.818 1028.12 586.555C1028.28 586.291 1028.52 586.085 1028.8 585.969C1029.09 585.853 1029.4 585.832 1029.7 585.91V585.91C1029.81 585.933 1029.91 585.974 1030 586.03C1030.62 586.353 1031.34 586.437 1032.01 586.268C1032.69 586.098 1033.29 585.686 1033.68 585.11C1033.74 585.018 1033.8 584.934 1033.88 584.86V584.86C1034.11 584.652 1034.4 584.523 1034.7 584.493C1035.01 584.462 1035.32 584.531 1035.58 584.689C1035.84 584.848 1036.05 585.087 1036.17 585.372C1036.28 585.657 1036.31 585.972 1036.23 586.27C1036.2 586.373 1036.16 586.474 1036.11 586.57C1035.79 587.188 1035.7 587.904 1035.87 588.58C1036.04 589.257 1036.45 589.848 1037.03 590.24C1037.12 590.299 1037.2 590.37 1037.27 590.45V590.45C1037.46 590.675 1037.57 590.952 1037.59 591.244C1037.61 591.535 1037.55 591.826 1037.4 592.078C1037.25 592.329 1037.03 592.529 1036.76 592.649C1036.49 592.769 1036.2 592.805 1035.91 592.75V592.75C1035.81 592.73 1035.7 592.692 1035.61 592.64C1034.99 592.314 1034.28 592.227 1033.6 592.394C1032.92 592.562 1032.33 592.973 1031.93 593.55C1031.87 593.642 1031.8 593.726 1031.72 593.8V593.8C1031.49 594.003 1031.21 594.128 1030.9 594.156C1030.6 594.185 1030.29 594.115 1030.03 593.957C1029.77 593.8 1029.56 593.563 1029.45 593.281C1029.33 592.999 1029.31 592.686 1029.38 592.39C1029.4 592.301 1029.43 592.215 1029.46 592.13V592.13Z" fill="#98673D"/>
<path opacity="0.3" d="M49.2899 38.02C49.6149 37.4006 49.7007 36.6833 49.5311 36.0047C49.3614 35.3261 48.9481 34.7336 48.3699 34.34C48.281 34.2809 48.2003 34.2102 48.1299 34.13V34.13C47.9208 33.9047 47.7903 33.6177 47.7583 33.312C47.7262 33.0063 47.7941 32.6984 47.9519 32.4347C48.1097 32.1709 48.3489 31.9655 48.6334 31.8492C48.918 31.7329 49.2326 31.7122 49.5299 31.79V31.79C49.6344 31.8177 49.7351 31.858 49.8299 31.91C50.4493 32.2349 51.1666 32.3208 51.8452 32.1511C52.5238 31.9815 53.1163 31.5682 53.5099 30.99C53.5714 30.8999 53.6418 30.8161 53.7199 30.74V30.74C53.9478 30.5367 54.2348 30.4118 54.5389 30.3835C54.8429 30.3552 55.1481 30.4249 55.4096 30.5825C55.6712 30.7401 55.8754 30.9773 55.9924 31.2593C56.1094 31.5414 56.1331 31.8535 56.0599 32.15V32.15C56.0322 32.2544 55.9919 32.3552 55.9399 32.45C55.615 33.0694 55.5291 33.7867 55.6988 34.4653C55.8684 35.1438 56.2817 35.7363 56.8599 36.13C56.9499 36.1879 57.0336 36.255 57.1099 36.33V36.33C57.3176 36.5573 57.4464 36.8455 57.4771 37.1519C57.5078 37.4582 57.4389 37.7663 57.2805 38.0303C57.122 38.2943 56.8827 38.5001 56.5979 38.6172C56.3131 38.7342 55.9982 38.7563 55.6999 38.68C55.5955 38.6522 55.4947 38.6119 55.3999 38.56C54.7805 38.235 54.0632 38.1492 53.3846 38.3188C52.706 38.4885 52.1135 38.9017 51.7199 39.48C51.6644 39.5686 51.5971 39.6494 51.5199 39.72V39.72C51.2931 39.9259 51.0062 40.0536 50.7013 40.0842C50.3965 40.1148 50.0899 40.0466 49.8267 39.8898C49.5635 39.733 49.3576 39.4959 49.2394 39.2132C49.1211 38.9306 49.0968 38.6175 49.1699 38.32V38.32C49.1977 38.2155 49.238 38.1148 49.2899 38.02V38.02Z" fill="#98673D"/>
<path opacity="0.3" d="M1.54014 7.65006C1.86448 7.03216 1.94997 6.31646 1.78028 5.63955C1.61059 4.96264 1.19761 4.3719 0.620144 3.98006C0.531229 3.92096 0.45053 3.85034 0.380146 3.77006V3.77006C0.174187 3.54326 0.0465162 3.2563 0.0159337 2.95147C-0.0146488 2.64664 0.0534708 2.34004 0.21027 2.07684C0.367068 1.81364 0.604255 1.60776 0.886882 1.48952C1.16951 1.37128 1.48264 1.34693 1.78015 1.42006V1.42006C1.88462 1.44781 1.98535 1.48811 2.08014 1.54006C2.69841 1.866 3.41489 1.95339 4.09338 1.78561C4.77186 1.61783 5.36504 1.20659 5.76014 0.630061C5.81875 0.540586 5.88572 0.456877 5.96015 0.380061V0.380061C6.18541 0.178868 6.4686 0.0541662 6.7691 0.023833C7.0696 -0.00650027 7.37199 0.0590933 7.63292 0.211209C7.89385 0.363325 8.09992 0.594153 8.22158 0.870598C8.34324 1.14704 8.37424 1.45491 8.31015 1.75006V1.75006C8.28054 1.85071 8.24031 1.94792 8.19014 2.04006C7.85658 2.66254 7.76601 3.3867 7.93599 4.07216C8.10596 4.75762 8.52438 5.35556 9.11014 5.75006C9.19906 5.80917 9.27976 5.87978 9.35015 5.96006C9.57249 6.18601 9.71284 6.47985 9.74884 6.7948C9.78484 7.10975 9.71442 7.42769 9.54879 7.69798C9.38317 7.96827 9.13186 8.17537 8.8349 8.28629C8.53794 8.39721 8.21241 8.40558 7.91014 8.31006V8.31006C7.8043 8.28659 7.70298 8.24606 7.61014 8.19006C6.99027 7.86731 6.27367 7.7827 5.59568 7.95219C4.91768 8.12169 4.3252 8.53358 3.93014 9.11006C3.87119 9.20208 3.80061 9.28611 3.72014 9.36006C3.49222 9.56328 3.20523 9.6882 2.90118 9.71654C2.59713 9.74487 2.292 9.67513 2.03045 9.51753C1.7689 9.35993 1.56467 9.12275 1.44765 8.84069C1.33063 8.55864 1.30698 8.24653 1.38015 7.95006V7.95006C1.42431 7.84543 1.47786 7.74503 1.54014 7.65006V7.65006Z" fill="#98673D"/>
<path opacity="0.3" d="M205.54 345.69C205.864 345.072 205.95 344.356 205.78 343.679C205.61 343.003 205.197 342.412 204.62 342.02C204.531 341.961 204.45 341.89 204.38 341.81V341.81C204.171 341.585 204.04 341.298 204.008 340.992C203.976 340.686 204.044 340.378 204.202 340.115C204.36 339.851 204.599 339.645 204.883 339.529C205.168 339.413 205.483 339.392 205.78 339.47V339.47C205.886 339.493 205.987 339.534 206.08 339.59C206.7 339.913 207.416 339.997 208.094 339.828C208.772 339.658 209.365 339.246 209.76 338.67C209.819 338.581 209.885 338.497 209.96 338.42V338.42C210.187 338.212 210.475 338.084 210.782 338.053C211.088 338.022 211.396 338.091 211.66 338.249C211.924 338.408 212.13 338.647 212.247 338.932C212.364 339.217 212.386 339.532 212.31 339.83V339.83C212.279 339.933 212.238 340.034 212.19 340.13C211.866 340.748 211.78 341.464 211.95 342.14C212.119 342.817 212.532 343.408 213.11 343.8C213.199 343.859 213.28 343.93 213.35 344.01C213.559 344.235 213.69 344.522 213.722 344.828C213.754 345.134 213.686 345.441 213.528 345.705C213.37 345.969 213.131 346.174 212.846 346.291C212.562 346.407 212.247 346.428 211.95 346.35V346.35C211.844 346.327 211.743 346.286 211.65 346.23C211.03 345.907 210.313 345.823 209.635 345.992C208.957 346.162 208.365 346.573 207.97 347.15C207.911 347.239 207.844 347.323 207.77 347.4V347.4C207.543 347.608 207.254 347.736 206.948 347.767C206.642 347.798 206.334 347.729 206.07 347.57C205.806 347.412 205.6 347.173 205.483 346.888C205.366 346.603 205.344 346.288 205.42 345.99V345.99C205.451 345.887 205.491 345.786 205.54 345.69V345.69Z" fill="#98673D"/>
<path opacity="0.3" d="M481.54 192.04C481.791 191.388 481.793 190.667 481.546 190.014C481.298 189.361 480.819 188.822 480.2 188.5C480.102 188.452 480.012 188.391 479.93 188.32V188.32C479.694 188.121 479.53 187.851 479.462 187.55C479.393 187.249 479.425 186.934 479.551 186.653C479.678 186.372 479.892 186.139 480.163 185.991C480.433 185.842 480.745 185.786 481.05 185.83V185.83C481.157 185.841 481.261 185.868 481.36 185.91C482.013 186.159 482.735 186.16 483.389 185.914C484.043 185.667 484.584 185.189 484.91 184.57C484.96 184.474 485.021 184.384 485.09 184.3C485.292 184.071 485.563 183.912 485.863 183.848C486.162 183.784 486.474 183.818 486.753 183.944C487.031 184.071 487.262 184.284 487.411 184.551C487.56 184.818 487.619 185.126 487.58 185.43V185.43C487.559 185.536 487.529 185.64 487.49 185.74C487.242 186.393 487.243 187.114 487.491 187.767C487.74 188.419 488.22 188.958 488.84 189.28C488.933 189.331 489.02 189.391 489.1 189.46V189.46C489.328 189.662 489.486 189.932 489.55 190.23C489.614 190.528 489.581 190.839 489.456 191.117C489.331 191.395 489.12 191.626 488.854 191.776C488.589 191.926 488.283 191.987 487.98 191.95V191.95C487.874 191.934 487.77 191.907 487.67 191.87C487.018 191.619 486.297 191.617 485.644 191.864C484.991 192.111 484.452 192.591 484.13 193.21C484.077 193.305 484.017 193.395 483.95 193.48V193.48C483.747 193.709 483.476 193.868 483.177 193.932C482.878 193.996 482.566 193.962 482.287 193.836C482.008 193.709 481.778 193.496 481.629 193.229C481.48 192.962 481.421 192.654 481.46 192.35V192.35C481.472 192.244 481.499 192.139 481.54 192.04V192.04Z" fill="#98673D"/>
<path opacity="0.3" d="M931.44 500.98C932.329 500.595 933.045 499.895 933.451 499.015C933.857 498.135 933.924 497.137 933.64 496.21C933.598 496.067 933.571 495.919 933.56 495.77C933.55 495.353 933.671 494.944 933.905 494.599C934.14 494.254 934.476 493.991 934.867 493.847C935.258 493.703 935.685 493.684 936.087 493.794C936.489 493.904 936.847 494.137 937.11 494.46C937.199 494.581 937.273 494.712 937.33 494.85C937.715 495.739 938.415 496.455 939.295 496.861C940.175 497.267 941.174 497.334 942.1 497.05C942.243 497.005 942.391 496.975 942.54 496.96V496.96C942.959 496.948 943.372 497.067 943.719 497.302C944.067 497.537 944.332 497.875 944.477 498.268C944.621 498.662 944.639 499.091 944.526 499.495C944.414 499.899 944.177 500.258 943.85 500.52C943.729 500.609 943.598 500.683 943.46 500.74C942.579 501.136 941.872 501.837 941.467 502.713C941.063 503.59 940.989 504.583 941.26 505.51C941.31 505.652 941.34 505.8 941.35 505.95V505.95C941.363 506.369 941.243 506.782 941.008 507.129C940.773 507.477 940.435 507.742 940.042 507.887C939.648 508.031 939.219 508.049 938.815 507.936C938.411 507.824 938.052 507.587 937.79 507.26C937.701 507.141 937.63 507.01 937.58 506.87C937.195 505.981 936.495 505.265 935.615 504.859C934.735 504.453 933.737 504.386 932.81 504.67C932.667 504.714 932.519 504.745 932.37 504.76V504.76C931.951 504.773 931.538 504.653 931.191 504.418C930.843 504.183 930.578 503.845 930.434 503.452C930.289 503.058 930.271 502.629 930.384 502.225C930.496 501.821 930.733 501.462 931.06 501.2C931.179 501.114 931.306 501.04 931.44 500.98V500.98Z" fill="#98673D"/>
<path opacity="0.1" d="M121.87 119.79C130.983 119.79 138.37 112.403 138.37 103.29C138.37 94.1773 130.983 86.79 121.87 86.79C112.757 86.79 105.37 94.1773 105.37 103.29C105.37 112.403 112.757 119.79 121.87 119.79Z" fill="#98673D"/>
<path opacity="0.1" d="M944.65 136.29C953.763 136.29 961.15 128.903 961.15 119.79C961.15 110.677 953.763 103.29 944.65 103.29C935.537 103.29 928.15 110.677 928.15 119.79C928.15 128.903 935.537 136.29 944.65 136.29Z" fill="#98673D"/>
<path opacity="0.1" d="M199.87 30.37C204.841 30.37 208.87 26.3406 208.87 21.37C208.87 16.3994 204.841 12.37 199.87 12.37C194.9 12.37 190.87 16.3994 190.87 21.37C190.87 26.3406 194.9 30.37 199.87 30.37Z" fill="#98673D"/>
<path opacity="0.1" d="M1060.82 292.28C1065.79 292.28 1069.82 288.251 1069.82 283.28C1069.82 278.309 1065.79 274.28 1060.82 274.28C1055.85 274.28 1051.82 278.309 1051.82 283.28C1051.82 288.251 1055.85 292.28 1060.82 292.28Z" fill="#98673D"/>
<path opacity="0.1" d="M138.37 752.99C143.341 752.99 147.37 748.961 147.37 743.99C147.37 739.019 143.341 734.99 138.37 734.99C133.4 734.99 129.37 739.019 129.37 743.99C129.37 748.961 133.4 752.99 138.37 752.99Z" fill="#98673D"/>
<path opacity="0.1" d="M172.87 793.52C177.841 793.52 181.87 789.491 181.87 784.52C181.87 779.549 177.841 775.52 172.87 775.52C167.9 775.52 163.87 779.549 163.87 784.52C163.87 789.491 167.9 793.52 172.87 793.52Z" fill="#98673D"/>
<path opacity="0.1" d="M105.37 817.95C110.341 817.95 114.37 813.921 114.37 808.95C114.37 803.979 110.341 799.95 105.37 799.95C100.4 799.95 96.3701 803.979 96.3701 808.95C96.3701 813.921 100.4 817.95 105.37 817.95Z" fill="#98673D"/>
</g>
<defs>
<clipPath id="clip0_206_68">
<rect width="1069.82" height="837.5" fill="white"/>
</clipPath>
</defs>
</svg>
