<?xml version="1.0" encoding="UTF-8" standalone="no"?> <!-- Created with Vectornator for iOS (http://vectornator.io/) --><!DOCTYPE svg PUBLIC "-//W3C//DTD SVG 1.1//EN" "http://www.w3.org/Graphics/SVG/1.1/DTD/svg11.dtd">
<svg height="100%" style="fill-rule:nonzero;clip-rule:evenodd;stroke-linecap:round;stroke-linejoin:round;" xmlns:xlink="http://www.w3.org/1999/xlink" xmlns="http://www.w3.org/2000/svg" xml:space="preserve" width="100%" xmlns:vectornator="http://vectornator.io" version="1.1" viewBox="0 0 512 512">
<metadata>
<vectornator:setting key="RulersVisible" value="1"/>
<vectornator:setting key="GuidesVisible" value="1"/>
<vectornator:setting key="SnapToEdges" value="0"/>
<vectornator:setting key="TimeLapseWatermarkDisabled" value="0"/>
<vectornator:setting key="Units" value="Pixels"/>
<vectornator:setting key="CMYKEnabledKey" value="0"/>
<vectornator:setting key="SnapToGuides" value="1"/>
<vectornator:setting key="SnapToPoints" value="0"/>
<vectornator:setting key="DynamicGuides" value="0"/>
<vectornator:setting key="SnapToGrid" value="0"/>
<vectornator:setting key="DimensionsVisible" value="1"/>
<vectornator:setting key="PencilOnly" value="0"/>
<vectornator:setting key="IsolateActiveLayer" value="0"/>
<vectornator:setting key="DisplayWhiteBackground" value="0"/>
<vectornator:setting key="doHistoryDisabled" value="0"/>
<vectornator:setting key="OutlineMode" value="0"/>
</metadata>
<defs>
<linearGradient y1="210.295" id="LinearGradient" x1="176.624" y2="193.875" x2="165.336" gradientUnits="userSpaceOnUse" gradientTransform="matrix(-0.0867197 -1.44366 1.44366 -0.0867197 48.6589 531.222)">
<stop stop-color="#9b7529" offset="0.00210084"/>
<stop stop-color="#d4a23f" offset="0.995798"/>
</linearGradient>
<linearGradient y1="213.373" id="LinearGradient_2" x1="173.648" y2="200.033" x2="152.816" gradientUnits="userSpaceOnUse" gradientTransform="matrix(-0.0867197 -1.44366 1.44366 -0.0867197 48.6589 531.222)">
<stop stop-color="#9b7529" offset="0.00210084"/>
<stop stop-color="#d4a23f" offset="0.995798"/>
</linearGradient>
<linearGradient y1="197.657" id="LinearGradient_3" x1="241.645" y2="197.657" x2="265.345" gradientUnits="userSpaceOnUse" gradientTransform="matrix(-0.0867197 -1.44366 1.44366 -0.0867197 48.6589 531.222)">
<stop stop-color="#d4a23f" offset="0.292017"/>
<stop stop-color="#9b7529" offset="1"/>
</linearGradient>
<linearGradient y1="199.109" id="LinearGradient_4" x1="263.852" y2="197.159" x2="279.04" gradientUnits="userSpaceOnUse" gradientTransform="matrix(-0.0867197 -1.44366 1.44366 -0.0867197 48.6589 531.222)">
<stop stop-color="#9b7529" offset="0.00210084"/>
<stop stop-color="#d4a23f" offset="0.995798"/>
</linearGradient>
<linearGradient y1="210.295" id="LinearGradient_5" x1="176.624" y2="193.875" x2="165.336" gradientUnits="userSpaceOnUse" gradientTransform="matrix(0.045292 1.44556 -1.44556 0.045292 729.398 -153.302)">
<stop stop-color="#9b7529" offset="0.00210084"/>
<stop stop-color="#d4a23f" offset="0.995798"/>
</linearGradient>
<linearGradient y1="213.373" id="LinearGradient_6" x1="173.648" y2="200.033" x2="152.816" gradientUnits="userSpaceOnUse" gradientTransform="matrix(0.045292 1.44556 -1.44556 0.045292 729.398 -153.302)">
<stop stop-color="#9b7529" offset="0.00210084"/>
<stop stop-color="#d4a23f" offset="0.995798"/>
</linearGradient>
<linearGradient y1="197.657" id="LinearGradient_7" x1="241.645" y2="197.657" x2="265.345" gradientUnits="userSpaceOnUse" gradientTransform="matrix(0.045292 1.44556 -1.44556 0.045292 729.398 -153.302)">
<stop stop-color="#d4a23f" offset="0.292017"/>
<stop stop-color="#9b7529" offset="1"/>
</linearGradient>
<linearGradient y1="199.109" id="LinearGradient_8" x1="263.852" y2="197.159" x2="279.04" gradientUnits="userSpaceOnUse" gradientTransform="matrix(0.045292 1.44556 -1.44556 0.045292 729.398 -153.302)">
<stop stop-color="#9b7529" offset="0.00210084"/>
<stop stop-color="#d4a23f" offset="0.995798"/>
</linearGradient>
</defs>
<g id="Ebene 2" vectornator:layerName="Ebene 2">
<g opacity="1">
<path stroke="#eec0c0" stroke-width="2" d="M235.535+506.096L192.333+499.244L153.36+479.358L122.431+448.386L102.573+409.358L95.7303+366.096L102.573+322.833L122.431+283.806L153.36+252.833L192.333+232.948L235.535+226.096L278.737+232.948L317.71+252.833L348.64+283.806L368.497+322.833L375.34+366.096L368.497+409.358L348.64+448.386L317.71+479.358L278.737+499.244L235.535+506.096Z" fill="#e78e4b" stroke-linecap="round" opacity="1" stroke-linejoin="round"/>
<path stroke="#eec0c0" stroke-width="2" d="M228.093+366.096C228.093+362.213+231.425+359.065+235.535+359.065C239.645+359.065+242.978+362.213+242.978+366.096C242.978+369.979+239.645+373.126+235.535+373.126C231.425+373.126+228.093+369.979+228.093+366.096Z" fill="#ffffff" stroke-linecap="round" opacity="0.536822" stroke-linejoin="round"/>
<path stroke="#eec0c0" stroke-width="2" d="M235.535+460.507L206.401+455.886L180.119+442.476L159.261+421.589L145.87+395.27L141.255+366.096L145.87+336.921L159.261+310.602L180.119+289.715L206.401+276.305L235.535+271.684L264.669+276.305L290.951+289.715L311.809+310.602L325.2+336.921L329.815+366.096L325.2+395.27L311.809+421.589L290.951+442.476L264.669+455.886L235.535+460.507Z" fill="#eddfc8" stroke-linecap="round" opacity="1" stroke-linejoin="round"/>
<path stroke="#eec0c0" stroke-width="2" d="M235.535+424.195L217.606+421.351L201.433+413.099L188.597+400.246L180.356+384.049L177.517+366.096L180.356+348.142L188.597+331.946L201.433+319.092L217.606+310.84L235.535+307.996L253.464+310.84L269.637+319.092L282.473+331.946L290.714+348.142L293.553+366.096L290.714+384.049L282.473+400.246L269.637+413.099L253.464+421.351L235.535+424.195Z" fill="#e78e4b" stroke-linecap="round" opacity="1" stroke-linejoin="round"/>
<path stroke="#eec0c0" stroke-width="2" d="M189.215+495.409L230.151+363.132L153.824+476.388L230.687+363.15L122.076+446.571L230.133+363.645L230.687+363.15L104.381+406.986L229.06+363.609L97.0943+365.345L228.769+361.747L182.131+347.23L104.901+323.19L229.704+360.544L215.539+349.26L124.158+281.549L230.777+360.581L157.467+251.732L230.759+361.095L193.899+233.225L230.813+359.553L235.523+227.529L231.832+361.131L231.882+360.984L257.498+285.86L275.529+232.98L232.386+360.636L317.767+252.761L231.26+362.141L256.21+344.865L346.912+282.063L232.35+361.664L366.69+320.62L231.242+362.654L373.976+365.345L235.033+361.755L366.69+408.014L250.082+368.399L233.387+362.728L347.953+447.599L231.188+364.196L316.205+478.444L231.76+363.187L278.212+496.437L232.279+363.719L232.933+504.662L231.224+363.168L189.215+495.409Z" fill="none" stroke-linecap="round" opacity="0.536822" stroke-linejoin="round"/>
<path stroke="#eec0c0" stroke-width="2" d="M238.407+443.273C247.57+426.262+239.79+428.743+244.133+428.287C248.476+427.832+244.33+430.169+254.134+441.623C258.194+446.366+251.76+452.928+247.417+453.383C243.075+453.839+235.447+448.767+238.407+443.273Z" fill="#e52c2c" stroke-linecap="round" opacity="0.75969" stroke-linejoin="round"/>
<path stroke="#eec0c0" stroke-width="2" d="M213.756+440.501C226.398+425.89+218.266+426.62+222.604+427.119C226.942+427.619+222.387+428.999+229.465+442.31C232.396+447.823+224.69+452.829+220.352+452.329C216.014+451.829+209.672+445.221+213.756+440.501Z" fill="#e52c2c" stroke-linecap="round" opacity="0.75969" stroke-linejoin="round"/>
<path stroke="#eec0c0" stroke-width="2" d="M189.61+428.176C206.534+418.855+198.653+416.72+202.548+418.693C206.444+420.665+201.694+420.38+203.717+435.32C204.555+441.508+195.592+443.531+191.696+441.558C187.8+439.585+184.143+431.187+189.61+428.176Z" fill="#e52c2c" stroke-linecap="round" opacity="0.75969" stroke-linejoin="round"/>
<path stroke="#eec0c0" stroke-width="2" d="M174.728+412.224C193.985+410.662+187.673+405.483+190.417+408.879C193.161+412.276+188.946+410.068+184.666+424.524C182.893+430.511+173.888+428.681+171.144+425.285C168.399+421.888+168.507+412.729+174.728+412.224Z" fill="#e52c2c" stroke-linecap="round" opacity="0.75969" stroke-linejoin="round"/>
<path stroke="#eec0c0" stroke-width="2" d="M160.7+390.404C179.958+388.842+173.645+383.662+176.39+387.059C179.134+390.456+174.918+388.248+170.638+402.704C168.866+408.691+159.861+406.861+157.116+403.464C154.372+400.068+154.479+390.909+160.7+390.404Z" fill="#e52c2c" stroke-linecap="round" opacity="0.75969" stroke-linejoin="round"/>
<path stroke="#eec0c0" stroke-width="2" d="M157.291+366.305C174.994+374.046+171.885+366.495+172.694+370.786C173.504+375.077+170.835+371.137+160.221+381.844C155.826+386.278+148.76+380.403+147.951+376.112C147.142+371.821+151.572+363.804+157.291+366.305Z" fill="#e52c2c" stroke-linecap="round" opacity="0.75969" stroke-linejoin="round"/>
<path stroke="#eec0c0" stroke-width="2" d="M161.168+344.567C175.288+357.756+174.868+349.601+174.204+353.917C173.539+358.233+172.334+353.629+158.763+360.196C153.142+362.916+148.434+355.025+149.098+350.709C149.762+346.393+156.607+340.306+161.168+344.567Z" fill="#e52c2c" stroke-linecap="round" opacity="0.75969" stroke-linejoin="round"/>
<path stroke="#eec0c0" stroke-width="2" d="M174.371+319.986C182.239+337.632+185.028+329.958+182.736+333.675C180.443+337.391+181.126+332.681+166.068+333.444C159.833+333.76+158.569+324.658+160.861+320.942C163.154+317.226+171.829+314.285+174.371+319.986Z" fill="#e52c2c" stroke-linecap="round" opacity="0.75969" stroke-linejoin="round"/>
<path stroke="#eec0c0" stroke-width="2" d="M190.816+305.302C191.208+324.619+196.76+318.632+193.204+321.165C189.647+323.698+192.106+319.624+177.936+314.476C172.068+312.343+174.44+303.466+177.997+300.933C181.554+298.399+190.689+299.061+190.816+305.302Z" fill="#e52c2c" stroke-linecap="round" opacity="0.75969" stroke-linejoin="round"/>
<path stroke="#eec0c0" stroke-width="2" d="M207.411+293.193C204.786+312.335+211.204+307.286+207.296+309.234C203.388+311.182+206.452+307.541+193.258+300.247C187.794+297.226+191.521+288.827+195.429+286.879C199.337+284.931+208.258+287.009+207.411+293.193Z" fill="#e52c2c" stroke-linecap="round" opacity="0.75969" stroke-linejoin="round"/>
<path stroke="#eec0c0" stroke-width="2" d="M229.901+286.735C222.202+304.456+229.745+301.33+225.456+302.149C221.167+302.969+225.101+300.291+214.369+289.703C209.924+285.317+215.782+278.238+220.071+277.419C224.361+276.599+232.388+281.011+229.901+286.735Z" fill="#e52c2c" stroke-linecap="round" opacity="0.75969" stroke-linejoin="round"/>
<path stroke="#eec0c0" stroke-width="2" d="M253.51+290.721C237.822+301.999+245.902+303.177+241.798+301.684C237.694+300.191+242.445+299.906+238.649+285.315C237.077+279.273+245.734+276.192+249.838+277.685C253.941+279.177+258.577+287.078+253.51+290.721Z" fill="#e52c2c" stroke-linecap="round" opacity="0.75969" stroke-linejoin="round"/>
<path stroke="#eec0c0" stroke-width="2" d="M274.46+297.376C256.655+304.877+264.27+307.825+260.601+305.456C256.933+303.087+261.628+303.867+261.176+288.797C260.989+282.556+270.115+281.48+273.783+283.849C277.452+286.218+280.212+294.952+274.46+297.376Z" fill="#e52c2c" stroke-linecap="round" opacity="0.75969" stroke-linejoin="round"/>
<path stroke="#eec0c0" stroke-width="2" d="M262.636+439.936C266.037+420.917+259.419+425.7+263.403+423.913C267.387+422.125+264.177+425.639+277.064+433.464C282.401+436.705+278.335+444.945+274.351+446.733C270.367+448.52+261.538+446.08+262.636+439.936Z" fill="#e52c2c" stroke-linecap="round" opacity="0.75969" stroke-linejoin="round"/>
<path stroke="#eec0c0" stroke-width="2" d="M284.382+426.932C280.928+407.922+276.397+414.714+279.506+411.648C282.616+408.583+280.834+412.996+295.642+415.829C301.775+417.003+300.842+426.144+297.732+429.21C294.623+432.276+285.498+433.073+284.382+426.932Z" fill="#e52c2c" stroke-linecap="round" opacity="0.75969" stroke-linejoin="round"/>
<path stroke="#eec0c0" stroke-width="2" d="M300.077+407.879C291.091+390.774+288.8+398.612+290.849+394.756C292.898+390.9+292.52+395.643+307.497+393.915C313.7+393.198+315.546+402.2+313.497+406.056C311.448+409.912+302.979+413.404+300.077+407.879Z" fill="#e52c2c" stroke-linecap="round" opacity="0.75969" stroke-linejoin="round"/>
<path stroke="#eec0c0" stroke-width="2" d="M311.873+382.688C298.277+368.96+298.379+377.125+299.211+372.838C300.042+368.551+301.068+373.198+314.884+367.164C320.606+364.665+325.004+372.733+324.173+377.02C323.341+381.306+316.265+387.122+311.873+382.688Z" fill="#e52c2c" stroke-linecap="round" opacity="0.75969" stroke-linejoin="round"/>
<path stroke="#eec0c0" stroke-width="2" d="M310.874+359.004C294.256+349.147+296.414+357.023+296.138+352.665C295.862+348.307+298.026+352.545+309.875+343.223C314.782+339.362+321.072+346.061+321.348+350.419C321.624+354.777+316.242+362.189+310.874+359.004Z" fill="#e52c2c" stroke-linecap="round" opacity="0.75969" stroke-linejoin="round"/>
<path stroke="#eec0c0" stroke-width="2" d="M307.608+333.769C288.61+330.248+293.351+336.896+291.589+332.901C289.827+328.906+293.32+332.138+301.226+319.301C304.501+313.984+312.715+318.102+314.478+322.098C316.24+326.093+313.745+334.906+307.608+333.769Z" fill="#e52c2c" stroke-linecap="round" opacity="0.75969" stroke-linejoin="round"/>
<path stroke="#eec0c0" stroke-width="2" d="M293.437+314.144C274.439+317.663+281.248+322.171+278.171+319.073C275.094+315.974+279.513+317.74+282.296+302.922C283.448+296.786+292.593+297.687+295.669+300.786C298.746+303.884+299.574+313.007+293.437+314.144Z" fill="#e52c2c" stroke-linecap="round" opacity="0.75969" stroke-linejoin="round"/>
</g>
<g opacity="1">
<g vectornator:shadowOffset="10" vectornator:shadowOpacity="0.333" vectornator:shadowAngle="1.5708" vectornator:shadowColor="#000000" opacity="1" vectornator:shadowRadius="10">
<path stroke="#eec0c0" stroke-width="2" d="M321.732+309.563L285.415+285.519L258.31+251.411L243.072+210.578L241.19+167.017L252.85+124.992L276.91+88.6167L311.015+61.4516L351.827+46.1559L395.35+44.2269L437.325+55.8534L473.641+79.8973L500.746+114.005L515.984+154.838L517.866+198.399L506.206+240.424L482.146+276.799L448.041+303.965L407.229+319.26L363.706+321.189L321.732+309.563Z" fill="#2b7e25" stroke-linecap="round" opacity="1" stroke-linejoin="round"/>
<path stroke="#eec0c0" stroke-width="2" d="M283.262+283.228L374.963+180.271L259.047+251.383L375.441+180.509L242.589+211.259L374.734+180.729L375.441+180.509L242.897+168.086L373.777+180.253L253.486+127.347L374.283+178.446L338.017+146.039L277.963+92.3731L375.626+177.743L367.45+161.67L312.602+62.5919L376.583+178.219L355.093+49.3257L376.355+178.677L395.744+47.5966L377.04+177.302L435.811+59.619L377.312+179.153L431.642+121.545L469.811+81.0736L378.019+178.933L499.917+116.434L376.377+179.831L406.116+174.478L514.228+155.018L377.562+179.849L516.231+198.119L376.148+180.289L504.37+241.653L379.955+181.039L480.152+277.307L378.062+181.241L446.833+305.44L375.463+181.664L405.333+320.282L376.398+180.985L363.479+320.901L376.648+181.682L319.055+309.661L375.92+180.747L283.262+283.228Z" fill="#2f9d27" stroke-linecap="round" opacity="0.536822" stroke-linejoin="round"/>
<path stroke="#eec0c0" stroke-width="2" d="M371.101+177.179C372.704+173.661+377.023+172.184+380.747+173.881C384.472+175.578+386.192+179.806+384.589+183.324C382.986+186.842+378.667+188.319+374.943+186.622C371.218+184.925+369.498+180.697+371.101+177.179Z" fill="#ffffff" stroke-linecap="round" opacity="0.536822" stroke-linejoin="round"/>
</g>
<g opacity="1">
<path vectornator:shadowColor="#000000" vectornator:shadowOpacity="0.333" vectornator:shadowRadius="10" d="M334.81+258.273C334.81+258.273+327.95+260.554+327.39+269.255C326.83+277.956+313.671+281.041+313.671+281.041C313.671+281.041+321.73+271.413+321.481+268.293C320.675+258.193+329.864+253.086+329.864+253.086L331.726+254.583L334.81+258.273Z" vectornator:shadowOffset="10" fill="url(#LinearGradient)" opacity="1" vectornator:shadowAngle="1.5708"/>
<path vectornator:shadowColor="#000000" vectornator:shadowOpacity="0.333" vectornator:shadowRadius="10" d="M341.286+246.451C341.286+246.451+343.659+245.43+351.826+246.636C359.993+247.842+357.781+259.184+357.781+259.184C357.781+259.184+355.945+270.015+353.251+270.416C350.407+270.84+352.635+264.463+352.626+260.176C352.622+257.885+350.79+257.05+349.854+256.256C347.167+253.98+341.458+257.037+341.458+257.037L341.286+246.451Z" vectornator:shadowOffset="10" fill="#d4a23f" opacity="1" vectornator:shadowAngle="1.5708"/>
<path stroke="#83422f" stroke-width="1" d="M307.832+128.941C307.832+128.941+305.883+132.483+309.579+139.197C313.275+145.911+306.776+153.805+306.776+153.805C306.776+153.805+307.169+143.211+305.573+140.994C300.406+133.821+302.774+127.055+302.774+127.055L307.832+128.941Z" fill="none" stroke-linecap="round" opacity="1" stroke-linejoin="round"/>
<path vectornator:shadowColor="#000000" vectornator:shadowOpacity="0.333" vectornator:shadowRadius="10" d="M304.477+127.848C304.477+127.848+301.474+130.556+302.763+138.11C303.214+140.756+301.272+148.106+300.001+148.867C297.643+150.28+297.252+145.957+297.435+142.045C297.522+140.178+298.821+150.005+299.733+146.92C300.499+144.33+298.745+139.688+298.389+138.494C295.86+130.023+300.316+124.408+300.316+124.408L304.477+127.848Z" vectornator:shadowOffset="10" fill="#d4a23f" opacity="1" vectornator:shadowAngle="1.5708"/>
<path vectornator:shadowColor="#000000" vectornator:shadowOpacity="0.333" vectornator:shadowRadius="10" d="M342.72+271.316C342.72+271.316+343.443+274.082+345.588+275.444C346.884+276.267+349.157+276.497+349.682+278.846C350.027+280.389+349.305+284.683+350.125+285.55C352.621+288.183+357.859+285.002+357.859+285.002C357.859+285.002+353.714+284.721+352.532+283.409C350.618+281.282+352.67+280.741+352.547+279.347C352.461+278.375+352.348+275.595+351.938+274.847C350.429+272.093+347.007+272.558+345.351+270.602C344.081+269.101+343.329+265.316+343.329+265.316L342.72+271.316Z" vectornator:shadowOffset="10" fill="#d4a23f" opacity="1" vectornator:shadowAngle="1.5708"/>
<path vectornator:shadowColor="#000000" vectornator:shadowOpacity="0.333" vectornator:shadowRadius="10" d="M315.753+132.208C315.753+132.208+321.488+135.959+323.412+136.06C324.574+136.121+326.05+135.325+327.455+136.85C328.378+137.852+329.933+141.355+330.83+141.65C333.554+142.549+335.235+137.952+335.235+137.952C335.235+137.952+332.608+139.507+331.287+139.033C329.148+138.265+330.134+136.989+329.414+136.004C328.911+135.317+327.555+133.296+326.961+132.914C324.775+131.507+322.929+133.308+321.025+132.557C319.564+131.981+318.509+129.142+318.509+129.142L315.753+132.208Z" vectornator:shadowOffset="10" fill="#d4a23f" opacity="1" vectornator:shadowAngle="1.5708"/>
<path vectornator:shadowColor="#000000" vectornator:shadowOpacity="0.333" vectornator:shadowRadius="10" d="M344.092+265.942C344.092+265.942+344.492+266.732+346.637+268.094C347.933+268.917+349.327+269.046+350.148+269.913C351.151+270.971+351.185+274.925+352.921+275.807C355.504+277.119+357.854+277.673+356.673+276.36C354.758+274.234+355.129+270.088+355.006+268.694C354.602+264.143+349.322+266.385+347.216+263.898C345.946+262.398+342.275+259.809+342.275+259.809L344.092+265.942Z" vectornator:shadowOffset="10" fill="#d4a23f" opacity="1" vectornator:shadowAngle="1.5708"/>
<path vectornator:shadowColor="#000000" vectornator:shadowOpacity="0.333" vectornator:shadowRadius="10" d="M318.106+129.625C318.106+129.625+318.714+130.043+320.637+130.144C321.8+130.205+322.699+129.708+323.596+130.004C324.691+130.365+326.543+133.293+327.998+133.211C330.162+133.088+331.835+132.5+330.515+132.026C328.376+131.258+326.678+128.015+325.957+127.03C323.605+123.815+321.462+127.73+319.041+126.775C317.58+126.199+315.403+125.444+315.403+125.444L318.106+129.625Z" vectornator:shadowOffset="10" fill="#d4a23f" opacity="1" vectornator:shadowAngle="1.5708"/>
<path vectornator:shadowColor="#000000" vectornator:shadowOpacity="0.333" vectornator:shadowRadius="10" d="M336.502+263.434C336.502+263.434+328.273+267.502+332.208+277.881C334.253+283.274+330.988+286.648+329.172+290.551C327.493+294.158+327.459+296.855+326.423+297.411C325.862+297.712+324.347+295.06+324.605+291.554C324.981+286.449+327.873+281.001+326.781+278.899C320.82+267.423+333.647+258.008+333.647+258.008L336.502+263.434Z" vectornator:shadowOffset="10" fill="url(#LinearGradient_2)" opacity="1" vectornator:shadowAngle="1.5708"/>
<path d="M312.371+130.989C312.371+130.989+309.298+137.516+316.48+143.566C320.212+146.71+319.808+150.61+320.523+154.287C321.184+157.686+322.414+159.708+322.047+160.562C321.848+161.025+319.706+159.696+318.237+156.977C316.097+153.018+315.314+147.733+313.682+146.633C304.772+140.629+308.136+128.165+308.136+128.165L312.371+130.989Z" opacity="1" fill="#d4a23f"/>
<path vectornator:shadowColor="#000000" vectornator:shadowOpacity="0.333" vectornator:shadowRadius="10" d="M308.093+131.271C308.093+131.271+303.049+136.43+307.849+144.501C310.343+148.695+308.683+152.247+308.152+155.955C307.661+159.383+308.16+161.696+307.534+162.382C307.194+162.754+305.607+160.796+305.11+157.746C304.387+153.304+305.381+148.055+304.2+146.481C297.752+137.886+305.018+127.215+305.018+127.215L308.093+131.271Z" vectornator:shadowOffset="10" fill="#d4a23f" opacity="1" vectornator:shadowAngle="1.5708"/>
<path vectornator:shadowColor="#000000" vectornator:shadowOpacity="0.333" vectornator:shadowRadius="10" d="M335.358+270.808C335.358+270.808+341.86+271.566+340.368+280.358C339.594+284.926+342.845+288.403+344.775+291.233C346.56+293.849+346.971+295.981+347.834+296.271C348.301+296.428+349.067+294.109+348.371+291.368C347.357+287.378+344.392+283.479+344.917+281.656C347.783+271.703+336.74+266.096+336.74+266.096L335.358+270.808Z" vectornator:shadowOffset="10" fill="#d4a23f" opacity="1" vectornator:shadowAngle="1.5708"/>
<path vectornator:shadowColor="#000000" vectornator:shadowOpacity="0.333" vectornator:shadowRadius="10" d="M315.099+136.962C315.099+136.962+319.368+134.761+322.545+141.938C324.195+145.667+327.766+146.872+330.24+148.156C332.528+149.344+333.764+150.755+334.418+150.604C334.773+150.522+334.159+148.47+332.47+146.727C330.009+144.189+326.416+142.549+325.887+140.969C323+132.342+313.748+132.868+313.748+132.868L315.099+136.962Z" vectornator:shadowOffset="10" fill="#d4a23f" opacity="1" vectornator:shadowAngle="1.5708"/>
<path vectornator:shadowColor="#000000" vectornator:shadowOpacity="0.333" vectornator:shadowRadius="10" d="M339.629+267.768C339.629+267.768+332.89+265.617+339.154+274.78C342.408+279.542+339.236+287.489+338.387+291.709C337.603+295.61+342.629+302.865+341.753+303.648C341.487+303.886+338.365+303.828+335.808+301.421C333.787+299.519+332.224+295.425+331.971+293.895C331.655+291.982+331.822+290.338+332.066+288.937C332.467+286.64+333.077+284.995+332.111+283.885C331.327+282.985+330.718+282.075+330.257+281.164C325.725+272.201+335.579+263.165+335.579+263.165L339.629+267.768Z" vectornator:shadowOffset="10" fill="#d4a23f" opacity="1" vectornator:shadowAngle="1.5708"/>
<path d="M316.264+132.883C316.264+132.883+311.206+134.149+319.227+138.304C323.396+140.463+325.168+147.727+326.613+151.228C327.949+154.465+334.339+157.726+334.174+158.682C334.124+158.971+332.216+160.257+329.56+159.553C327.461+158.998+324.622+156.616+323.76+155.585C322.683+154.295+322.021+153.001+321.519+151.855C320.696+149.975+320.301+148.491+319.204+148.076C318.315+147.74+317.526+147.322+316.826+146.84C309.941+142.097+311.69+131.18+311.69+131.18L316.264+132.883Z" opacity="1" fill="#d4a23f"/>
<path vectornator:shadowColor="#000000" vectornator:shadowOpacity="0.333" vectornator:shadowRadius="10" d="M311.149+134.338C311.149+134.338+305.956+133.875+312.171+140.431C315.4+143.837+314.691+151.281+314.908+155.063C315.108+158.559+320.076+163.735+319.607+164.584C319.464+164.841+317.24+165.429+314.962+163.894C313.161+162.681+311.26+159.499+310.784+158.242C310.189+156.671+309.989+155.232+309.891+153.984C309.73+151.938+309.843+150.407+308.943+149.655C308.214+149.046+307.606+148.392+307.103+147.707C302.154+140.969+307.387+131.229+307.387+131.229L311.149+134.338Z" vectornator:shadowOffset="10" fill="url(#LinearGradient_3)" opacity="1" vectornator:shadowAngle="1.5708"/>
<path vectornator:shadowColor="#000000" vectornator:shadowOpacity="0.333" vectornator:shadowRadius="10" d="M311.833+98.7668L310.944+93.0187C311.082+91.5853+313.864+94.5023+315.219+95.2477C315.219+95.2477+318.814+95.46+321.131+96.2611C323.448+97.0621+325.613+99.4283+325.613+99.4283C326.968+100.174+323.571+98.7807+322.078+99.4687L314.972+99.8426C313.478+100.531+311.695+100.2+311.833+98.7668Z" vectornator:shadowOffset="10" fill="#d4a23f" opacity="1" vectornator:shadowAngle="1.5708"/>
<path vectornator:shadowColor="#000000" vectornator:shadowOpacity="0.333" vectornator:shadowRadius="10" d="M334.067+112.812C334.309+111.071+334.937+108.989+336.339+107.978C337.286+107.294+339.262+108.132+339.13+105.949C338.941+102.792+329.491+97.2702+325.839+93.4119C323.229+90.6548+325.681+88.8841+326.967+88.8068C330.052+88.6215+346.302+101.782+346.627+107.194C346.952+112.607+333.723+115.291+334.067+112.812Z" vectornator:shadowOffset="10" fill="#d4a23f" opacity="1" vectornator:shadowAngle="1.5708"/>
<path vectornator:shadowColor="#000000" vectornator:shadowOpacity="0.333" vectornator:shadowRadius="10" d="M325.126+91.8663C324.294+91.9163+322.759+90.8354+321.226+90.9026C318.569+91.0189+315.633+92.1968+314.315+91.5149C311.832+90.2301+314.431+85.1008+314.313+83.1399C314.238+81.8887+314.579+88.1644+319.046+88.9127C321.434+89.3127+313.666+83.5447+314.893+81.3246C316.731+78.0013+318.088+86.8819+319.961+85.2281C320.927+84.3753+317.154+81.9706+318.56+80.7802C319.587+79.9116+323.222+78.3379+324.841+78.1924C327.923+77.9154+330.961+81.2433+331.248+81.2261C332.562+81.1471+330.227+82.7926+325.287+81.7924C320.347+80.7922+322.957+84.1202+322.957+84.1202C322.957+84.1202+328.773+82.1632+331.09+82.852C334.212+83.7805+336.27+88.3993+336.342+89.5974C336.559+93.2+330.115+91.5665+325.126+91.8663Z" vectornator:shadowOffset="10" fill="#d4a23f" opacity="1" vectornator:shadowAngle="1.5708"/>
<path vectornator:shadowColor="#000000" vectornator:shadowOpacity="0.333" vectornator:shadowRadius="10" d="M331.843+214.284C331.286+214.866+326.84+213.559+325.908+214.336C322.707+217.006+331.064+209.817+324.171+209.012C323.665+205.455+329.387+209.639+329.991+208.343C331.266+205.609+325.355+204.567+326.627+204.287C328.476+203.88+330.255+204.246+332.053+205.067C333.964+205.939+335.074+206.686+335.074+206.686C335.074+206.686+332.086+203.19+333.169+203.371C338.668+204.291+339.33+207.216+339.412+208.591C339.495+209.967+334.156+211.866+331.843+214.284Z" vectornator:shadowOffset="10" fill="#d4a23f" opacity="1" vectornator:shadowAngle="1.5708"/>
<path vectornator:shadowColor="#000000" vectornator:shadowOpacity="0.333" vectornator:shadowRadius="10" d="M319.47+219.987C319.017+220.654+317.038+221.908+316.248+222.83C313.537+225.996+320.214+217.855+313.284+218.21C312.192+214.787+318.896+217.619+319.276+216.24C320.078+213.332+314.075+213.289+315.282+212.801C317.038+212.092+318.853+212.157+320.763+212.666C322.793+213.207+324.028+214.266+324.012+213.76C323.94+211.482+320.483+210.81+321.58+210.808C327.156+210.799+325.613+212.513+325.924+213.856C326.235+215.199+321.347+217.217+319.47+219.987Z" vectornator:shadowOffset="10" fill="#d4a23f" opacity="1" vectornator:shadowAngle="1.5708"/>
<path vectornator:shadowColor="#000000" vectornator:shadowOpacity="0.333" vectornator:shadowRadius="10" d="M313.82+234.918C313.863+236.025+314.666+237.092+311.858+235.494C310.718+234.845+310.135+236.006+308.6+237.697C305.657+234.7+311.929+232.701+311.398+230.848C310.279+226.94+305.461+231.618+306.13+230.118C307.102+227.936+308.59+226.58+310.423+225.65C312.37+224.662+313.997+224.883+313.678+224.325C312.242+221.816+309.076+223.779+309.95+222.913C314.396+218.513+314.202+221.66+315.262+222.928C316.323+224.196+313.643+230.319+313.82+234.918Z" vectornator:shadowOffset="10" fill="#d4a23f" opacity="1" vectornator:shadowAngle="1.5708"/>
<path vectornator:shadowColor="#000000" vectornator:shadowOpacity="0.333" vectornator:shadowRadius="10" d="M328.197+179.625C328.858+180.515+327.532+179.953+324.312+180.219C323.004+180.328+322.382+185.345+322.069+187.608C317.948+186.795+323.675+176.649+322.191+175.419C319.06+172.826+318.328+180.614+318.033+178.998C317.604+176.648+316.582+174.708+317.569+172.906C318.619+170.99+320.086+170.254+319.507+169.974C316.905+168.713+315.401+172.121+315.634+170.913C316.818+164.771+318.702+166.852+320.294+167.3C321.885+167.748+325.454+175.929+328.197+179.625Z" vectornator:shadowOffset="10" fill="#d4a23f" opacity="1" vectornator:shadowAngle="1.5708"/>
<path vectornator:shadowColor="#000000" vectornator:shadowOpacity="0.333" vectornator:shadowRadius="10" d="M322.222+246.035C323.012+246.603+324.662+248.802+325.778+249.752C329.61+253.014+318.904+243.465+320.296+250.463C316.687+249.345+319.733+246.2+318.18+245.581C314.905+244.274+315.73+250.275+315.025+248.982C313.999+247.102+313.806+245.297+314.082+243.473C314.376+241.535+315.042+239.592+314.493+239.521C312.03+239.199+312.379+243.356+311.945+242.333C309.874+237.449+313.11+236.638+314.523+236.559C315.379+236.512+315.149+238.575+316.851+240.608C317.959+241.932+320.928+245.105+322.222+246.035Z" vectornator:shadowOffset="10" fill="#d4a23f" opacity="1" vectornator:shadowAngle="1.5708"/>
<path vectornator:shadowColor="#000000" vectornator:shadowOpacity="0.333" vectornator:shadowRadius="10" d="M339.877+191.051C340.768+191.606+341.966+195.218+343.251+196.183C344.645+197.23+341.415+196.045+341.415+196.045L339.335+197.406C339.335+197.406+338.163+201.023+337.919+200.465C337.716+200+336.921+198.432+337.239+196.948C337.617+195.186+339.11+193.482+338.639+193.03C337.223+191.675+333.739+194.57+334.488+196.977C330.668+196.25+334.838+191.843+333.172+191.361C329.656+190.343+329.213+197.64+328.284+196.183C326.933+194.063+328.725+191.789+328.693+189.509C328.658+187.085+329.874+185.108+329.311+185.117C326.779+185.16+326.959+189.667+326.35+188.493C323.437+182.883+327.388+180.784+328.796+180.437C329.648+180.227+330.803+183.142+332.86+185.328C334.199+186.752+338.417+190.142+339.877+191.051Z" vectornator:shadowOffset="10" fill="#d4a23f" opacity="1" vectornator:shadowAngle="1.5708"/>
<path vectornator:shadowColor="#000000" vectornator:shadowOpacity="0.333" vectornator:shadowRadius="10" d="M337.685+161.705C338.32+171.068+341.758+173.098+346.563+176.402C348.879+177.994+351.123+178.521+354.263+182.887C363.918+196.313+360.236+196.541+356.494+210.205C354.493+217.51+346.541+215.464+338.805+219.002C332.072+222.081+327.814+230.2+328.747+234.804C329.534+238.691+338.044+243.5+340.858+246.842C345.205+252.006+341.803+256.161+343.38+261.868C345.978+271.268+341.938+273.038+338.264+271.725C334.591+270.411+339.948+268.088+333.139+257.762C326.329+247.437+309.844+242.893+313.673+228.404C315.405+221.847+320.037+217.176+325.493+214.175C329.525+211.957+334.276+211.092+337.249+208.762C339.141+207.28+340.633+205.477+341.433+203.062C344.376+194.169+338.921+193.24+332.889+188.867C331.225+187.66+330.285+183.393+328.863+181.454C322.29+172.485+319.065+172.531+321.557+157.735C324.048+142.94+331.018+140.275+332.208+130.391C333.399+120.507+324.119+122.647+319.132+126.052C314.146+129.458+316.802+117.757+318.557+112.459C319.481+109.666+326.643+102.001+333.502+102.085C339.656+102.16+348.078+106.943+349.372+110.814C352.108+119+355.333+119.527+352.705+133.35C351.84+137.9+352.387+141.982+350.093+144.62C345.418+149.996+337.053+152.397+337.685+161.705Z" vectornator:shadowOffset="10" fill="#d4a23f" opacity="1" vectornator:shadowAngle="1.5708"/>
<path vectornator:shadowColor="#000000" vectornator:shadowOpacity="0.333" vectornator:shadowRadius="10" d="M300.583+132.362C300.583+132.362+300.757+126.65+299.583+121.694C299.256+120.313+296.003+114.083+296.108+112.712C296.588+106.426+297.77+105.964+297.77+105.964L291.862+98.2771C291.663+94.9692+297.995+92.2423+302.224+91.7633C302.899+91.6868+300.422+94.6131+301.767+97.9984C302.371+99.518+304.144+101.4+304.93+102.903C306.095+105.129+306.254+106.723+306.645+106.7L307.387+96.3413L304.309+91.4225C309.238+91.1264+313.744+93.7667+314.01+98.1905L318.517+106.496L321.275+118.837C321.541+123.261+317.367+133.626+312.438+133.922C312.438+133.922+300.849+136.786+300.583+132.362Z" vectornator:shadowOffset="10" fill="url(#LinearGradient_4)" opacity="1" vectornator:shadowAngle="1.5708"/>
<path vectornator:shadowColor="#000000" vectornator:shadowOpacity="0.333" vectornator:shadowRadius="10" d="M302.113+113.915C301.213+113.969+300.414+112.856+300.328+111.43C300.243+110.003+300.903+108.803+301.803+108.749C302.703+108.695+303.502+109.808+303.588+111.234C303.673+112.66+303.013+113.861+302.113+113.915Z" vectornator:shadowOffset="10" fill="#6f5626" opacity="1" vectornator:shadowAngle="1.5708"/>
</g>
<g opacity="1">
<path vectornator:shadowColor="#000000" vectornator:shadowOpacity="0.333" vectornator:shadowRadius="10" d="M435.539+111.33C435.539+111.33+442.462+109.246+443.271+100.565C444.08+91.8833+457.322+89.1771+457.322+89.1771C457.322+89.1771+448.99+98.5704+449.15+101.697C449.666+111.815+440.334+116.657+440.334+116.657L438.516+115.107L435.539+111.33Z" vectornator:shadowOffset="10" fill="url(#LinearGradient_5)" opacity="1" vectornator:shadowAngle="1.5708"/>
<path vectornator:shadowColor="#000000" vectornator:shadowOpacity="0.333" vectornator:shadowRadius="10" d="M428.727+122.961C428.727+122.961+426.325+123.913+418.196+122.474C410.067+121.035+412.604+109.76+412.604+109.76C412.604+109.76+414.749+98.9866+417.454+98.6629C420.309+98.3212+417.899+104.632+417.784+108.917C417.723+111.207+419.531+112.095+420.444+112.914C423.064+115.267+428.859+112.375+428.859+112.375L428.727+122.961Z" vectornator:shadowOffset="10" fill="#d4a23f" opacity="1" vectornator:shadowAngle="1.5708"/>
<path stroke="#83422f" stroke-width="1" d="M458.798+241.382C458.798+241.382+460.847+237.897+457.346+231.08C453.844+224.263+460.566+216.559+460.566+216.559C460.566+216.559+459.869+227.137+461.402+229.399C466.361+236.717+463.8+243.412+463.8+243.412L458.798+241.382Z" fill="none" stroke-linecap="round" opacity="1" stroke-linejoin="round"/>
<path vectornator:shadowColor="#000000" vectornator:shadowOpacity="0.333" vectornator:shadowRadius="10" d="M462.12+242.571C462.12+242.571+465.2+239.951+464.128+232.362C463.752+229.705+465.905+222.413+467.197+221.689C469.595+220.345+469.862+224.677+469.567+228.581C469.426+230.446+468.409+220.585+467.409+223.643C466.569+226.21+468.189+230.9+468.511+232.104C470.795+240.644+466.181+246.129+466.181+246.129L462.12+242.571Z" vectornator:shadowOffset="10" fill="#d4a23f" opacity="1" vectornator:shadowAngle="1.5708"/>
<path vectornator:shadowColor="#000000" vectornator:shadowOpacity="0.333" vectornator:shadowRadius="10" d="M428.006+98.0659C428.006+98.0659+427.363+95.2797+425.258+93.8574C423.986+92.9976+421.72+92.7022+421.263+90.3394C420.962+88.7866+421.808+84.5151+421.012+83.6253C418.593+80.9211+413.266+83.9515+413.266+83.9515C413.266+83.9515+417.401+84.3506+418.545+85.6966C420.397+87.877+418.33+88.3594+418.414+89.7562C418.472+90.7301+418.505+93.5122+418.893+94.2713C420.323+97.0677+423.756+96.7014+425.355+98.7041C426.582+100.24+427.225+104.046+427.225+104.046L428.006+98.0659Z" vectornator:shadowOffset="10" fill="#d4a23f" opacity="1" vectornator:shadowAngle="1.5708"/>
<path vectornator:shadowColor="#000000" vectornator:shadowOpacity="0.333" vectornator:shadowRadius="10" d="M450.973+237.89C450.973+237.89+445.348+233.975+443.429+233.82C442.268+233.725+440.77+234.478+439.409+232.914C438.515+231.886+437.061+228.34+436.174+228.019C433.477+227.042+431.664+231.589+431.664+231.589C431.664+231.589+434.335+230.11+435.641+230.622C437.757+231.451+436.736+232.698+437.428+233.703C437.91+234.404+439.208+236.463+439.79+236.862C441.935+238.332+443.832+236.584+445.714+237.389C447.158+238.007+448.131+240.876+448.131+240.876L450.973+237.89Z" vectornator:shadowOffset="10" fill="#d4a23f" opacity="1" vectornator:shadowAngle="1.5708"/>
<path vectornator:shadowColor="#000000" vectornator:shadowOpacity="0.333" vectornator:shadowRadius="10" d="M426.481+103.398C426.481+103.398+426.103+102.596+423.998+101.174C422.726+100.314+421.337+100.145+420.541+99.2551C419.569+98.1682+419.648+94.2154+417.939+93.284C415.394+91.898+413.06+91.2776+414.204+92.6236C416.057+94.804+415.567+98.9374+415.651+100.334C415.923+104.895+421.266+102.805+423.299+105.351C424.526+106.888+428.121+109.581+428.121+109.581L426.481+103.398Z" vectornator:shadowOffset="10" fill="#d4a23f" opacity="1" vectornator:shadowAngle="1.5708"/>
<path vectornator:shadowColor="#000000" vectornator:shadowOpacity="0.333" vectornator:shadowRadius="10" d="M448.548+240.404C448.548+240.404+447.952+239.969+446.032+239.813C444.872+239.719+443.959+240.189+443.071+239.868C441.987+239.476+440.219+236.496+438.763+236.536C436.595+236.596+434.906+237.137+436.213+237.648C438.329+238.477+439.933+241.768+440.625+242.773C442.885+246.054+445.138+242.202+447.531+243.226C448.975+243.844+451.129+244.661+451.129+244.661L448.548+240.404Z" vectornator:shadowOffset="10" fill="#d4a23f" opacity="1" vectornator:shadowAngle="1.5708"/>
<path vectornator:shadowColor="#000000" vectornator:shadowOpacity="0.333" vectornator:shadowRadius="10" d="M433.996+106.122C433.996+106.122+442.338+102.292+438.702+91.8048C436.813+86.3553+440.173+83.0759+442.101+79.2271C443.882+75.669+443.993+72.9742+445.044+72.4488C445.615+72.164+447.052+74.8581+446.694+78.355C446.172+83.4469+443.125+88.8097+444.156+90.9422C449.785+102.585+436.694+111.628+436.694+111.628L433.996+106.122Z" vectornator:shadowOffset="10" fill="url(#LinearGradient_6)" opacity="1" vectornator:shadowAngle="1.5708"/>
<path d="M454.32+239.205C454.32+239.205+457.578+232.768+450.573+226.515C446.933+223.266+447.448+219.378+446.839+215.683C446.276+212.266+445.104+210.21+445.495+209.367C445.707+208.91+447.81+210.3+449.201+213.06C451.226+217.078+451.857+222.383+453.457+223.529C462.192+229.787+458.472+242.149+458.472+242.149L454.32+239.205Z" opacity="1" fill="#d4a23f"/>
<path vectornator:shadowColor="#000000" vectornator:shadowOpacity="0.333" vectornator:shadowRadius="10" d="M458.604+239.045C458.604+239.045+463.793+234.033+459.227+225.828C456.854+221.565+458.615+218.061+459.252+214.37C459.841+210.958+459.409+208.632+460.055+207.963C460.405+207.601+461.935+209.604+462.344+212.667C462.94+217.128+461.796+222.346+462.931+223.954C469.13+232.73+461.561+243.188+461.561+243.188L458.604+239.045Z" vectornator:shadowOffset="10" fill="#d4a23f" opacity="1" vectornator:shadowAngle="1.5708"/>
<path vectornator:shadowColor="#000000" vectornator:shadowOpacity="0.333" vectornator:shadowRadius="10" d="M435.351+98.7846C435.351+98.7846+428.873+97.8399+430.616+89.0946C431.522+84.5503+428.372+80.9816+426.523+78.0978C424.814+75.4319+424.464+73.2891+423.61+72.9742C423.147+72.8035+422.315+75.1003+422.933+77.8594C423.831+81.8771+426.683+85.8591+426.107+87.6665C422.957+97.5338+433.834+103.454+433.834+103.454L435.351+98.7846Z" vectornator:shadowOffset="10" fill="#d4a23f" opacity="1" vectornator:shadowAngle="1.5708"/>
<path vectornator:shadowColor="#000000" vectornator:shadowOpacity="0.333" vectornator:shadowRadius="10" d="M451.764+233.156C451.764+233.156+447.433+235.234+444.464+227.969C442.921+224.194+439.386+222.887+436.95+221.532C434.697+220.28+433.502+218.833+432.844+218.966C432.487+219.037+433.041+221.106+434.68+222.897C437.067+225.505+440.612+227.247+441.095+228.842C443.734+237.547+452.997+237.287+452.997+237.287L451.764+233.156Z" vectornator:shadowOffset="10" fill="#d4a23f" opacity="1" vectornator:shadowAngle="1.5708"/>
<path vectornator:shadowColor="#000000" vectornator:shadowOpacity="0.333" vectornator:shadowRadius="10" d="M430.994+101.7C430.994+101.7+437.669+104.044+431.671+94.7049C428.554+89.8519+431.953+81.9986+432.922+77.8047C433.817+73.9277+429.001+66.5318+429.9+65.774C430.172+65.5445+433.292+65.6919+435.779+68.1711C437.744+70.1299+439.189+74.2669+439.398+75.8043C439.659+77.7256+439.446+79.3638+439.161+80.7571C438.695+83.0419+438.038+84.6683+438.972+85.8054C439.729+86.7275+440.312+87.6549+440.746+88.5788C445.019+97.6681+434.91+106.418+434.91+106.418L430.994+101.7Z" vectornator:shadowOffset="10" fill="#d4a23f" opacity="1" vectornator:shadowAngle="1.5708"/>
<path d="M450.483+237.2C450.483+237.2+455.574+236.079+447.675+231.697C443.571+229.419+442.008+222.107+440.664+218.565C439.421+215.292+433.127+211.849+433.319+210.898C433.377+210.61+435.321+209.38+437.957+210.159C440.039+210.775+442.808+213.237+443.64+214.293C444.68+215.612+445.304+216.925+445.773+218.085C446.543+219.988+446.895+221.482+447.979+221.929C448.858+222.29+449.635+222.731+450.32+223.233C457.066+228.171+455.005+239.033+455.005+239.033L450.483+237.2Z" opacity="1" fill="#d4a23f"/>
<path vectornator:shadowColor="#000000" vectornator:shadowOpacity="0.333" vectornator:shadowRadius="10" d="M455.637+235.892C455.637+235.892+460.815+236.504+454.79+229.773C451.66+226.275+452.582+218.855+452.474+215.068C452.374+211.568+447.556+206.251+448.05+205.416C448.199+205.164+450.439+204.639+452.673+206.239C454.438+207.504+456.247+210.738+456.687+212.008C457.236+213.596+457.395+215.041+457.458+216.291C457.56+218.341+457.403+219.868+458.281+220.645C458.993+221.275+459.582+221.946+460.065+222.645C464.818+229.522+459.309+239.108+459.309+239.108L455.637+235.892Z" vectornator:shadowOffset="10" fill="url(#LinearGradient_7)" opacity="1" vectornator:shadowAngle="1.5708"/>
<path vectornator:shadowColor="#000000" vectornator:shadowOpacity="0.333" vectornator:shadowRadius="10" d="M453.933+271.429L454.657+277.201C454.478+278.629+451.781+275.634+450.448+274.85C450.448+274.85+446.861+274.535+444.567+273.667C442.274+272.8+440.178+270.373+440.178+270.373C438.845+269.589+442.2+271.079+443.713+270.434L450.827+270.264C452.339+269.619+454.113+270.001+453.933+271.429Z" vectornator:shadowOffset="10" fill="#d4a23f" opacity="1" vectornator:shadowAngle="1.5708"/>
<path vectornator:shadowColor="#000000" vectornator:shadowOpacity="0.333" vectornator:shadowRadius="10" d="M432.111+256.752C431.82+258.486+431.132+260.549+429.702+261.52C428.735+262.176+426.785+261.282+426.853+263.468C426.952+266.628+436.24+272.419+439.78+276.38C442.31+279.211+439.808+280.911+438.52+280.951C435.431+281.048+419.565+267.427+419.395+262.008C419.226+256.588+432.527+254.284+432.111+256.752Z" vectornator:shadowOffset="10" fill="#d4a23f" opacity="1" vectornator:shadowAngle="1.5708"/>
<path vectornator:shadowColor="#000000" vectornator:shadowOpacity="0.333" vectornator:shadowRadius="10" d="M440.448+277.946C441.281+277.92+442.784+279.044+444.319+279.021C446.978+278.981+449.947+277.888+451.245+278.607C453.69+279.962+450.944+285.015+451.006+286.979C451.045+288.231+450.885+281.949+446.441+281.072C444.065+280.604+451.665+286.593+450.374+288.777C448.441+292.046+447.34+283.13+445.42+284.729C444.43+285.554+448.133+288.066+446.693+289.216C445.642+290.054+441.963+291.523+440.341+291.622C437.252+291.811+434.311+288.397+434.024+288.406C432.707+288.447+435.089+286.87+439.998+288.011C444.907+289.152+442.394+285.751+442.394+285.751C442.394+285.751+436.524+287.54+434.228+286.785C431.133+285.768+429.209+281.092+429.171+279.892C429.058+276.285+435.452+278.102+440.448+277.946Z" vectornator:shadowOffset="10" fill="#d4a23f" opacity="1" vectornator:shadowAngle="1.5708"/>
<path vectornator:shadowColor="#000000" vectornator:shadowOpacity="0.333" vectornator:shadowRadius="10" d="M437.244+155.386C437.817+154.82+442.223+156.254+443.178+155.504C446.454+152.927+437.895+159.874+444.761+160.876C445.165+164.446+439.566+160.1+438.924+161.378C437.571+164.074+443.451+165.285+442.171+165.528C440.311+165.882+438.543+165.465+436.769+164.593C434.884+163.667+433.796+162.888+433.796+162.888C433.796+162.888+436.682+166.469+435.606+166.257C430.135+165.179+429.557+162.237+429.514+160.859C429.471+159.482+434.862+157.736+437.244+155.386Z" vectornator:shadowOffset="10" fill="#d4a23f" opacity="1" vectornator:shadowAngle="1.5708"/>
<path vectornator:shadowColor="#000000" vectornator:shadowOpacity="0.333" vectornator:shadowRadius="10" d="M449.775+150.04C450.247+149.386+452.261+148.19+453.077+147.29C455.878+144.204+448.97+152.15+455.908+151.993C456.901+155.446+450.281+152.424+449.862+153.791C448.977+156.675+454.976+156.89+453.755+157.343C451.979+158.002+450.167+157.885+448.273+157.321C446.259+156.722+445.055+155.627+445.057+156.135C445.063+158.413+448.5+159.185+447.403+159.155C441.829+159.004+443.42+157.334+443.148+155.983C442.876+154.632+447.819+152.755+449.775+150.04Z" vectornator:shadowOffset="10" fill="#d4a23f" opacity="1" vectornator:shadowAngle="1.5708"/>
<path vectornator:shadowColor="#000000" vectornator:shadowOpacity="0.333" vectornator:shadowRadius="10" d="M455.85+135.277C455.84+134.169+455.067+133.08+457.828+134.758C458.95+135.439+459.565+134.295+461.148+132.649C464.004+135.73+457.677+137.548+458.155+139.415C459.162+143.353+464.111+138.815+463.4+140.296C462.365+142.449+460.839+143.761+458.981+144.638C457.006+145.57+455.386+145.303+455.689+145.87C457.052+148.419+460.274+146.548+459.375+147.388C454.805+151.659+455.089+148.519+454.065+147.221C453.042+145.923+455.896+139.88+455.85+135.277Z" vectornator:shadowOffset="10" fill="#d4a23f" opacity="1" vectornator:shadowAngle="1.5708"/>
<path vectornator:shadowColor="#000000" vectornator:shadowOpacity="0.333" vectornator:shadowRadius="10" d="M439.894+190.136C439.26+189.227+440.569+189.827+443.795+189.652C445.105+189.582+445.871+184.584+446.248+182.331C450.345+183.262+444.329+193.24+445.777+194.511C448.833+197.193+449.787+189.43+450.036+191.053C450.398+193.415+451.364+195.384+450.325+197.157C449.221+199.041+447.733+199.735+448.304+200.032C450.868+201.366+452.47+198.003+452.203+199.204C450.843+205.309+449.019+203.176+447.441+202.682C445.863+202.189+442.53+193.908+439.894+190.136Z" vectornator:shadowOffset="10" fill="#d4a23f" opacity="1" vectornator:shadowAngle="1.5708"/>
<path vectornator:shadowColor="#000000" vectornator:shadowOpacity="0.333" vectornator:shadowRadius="10" d="M447.771+123.923C446.997+123.333+445.412+121.088+444.323+120.106C440.586+116.736+451.014+126.588+449.823+119.553C453.399+120.773+450.264+123.83+451.798+124.494C455.035+125.893+454.382+119.871+455.05+121.184C456.021+123.093+456.162+124.903+455.834+126.718C455.485+128.647+454.764+130.57+455.31+130.657C457.763+131.05+457.533+126.884+457.937+127.918C459.868+132.86+456.61+133.579+455.195+133.616C454.338+133.639+454.627+131.583+452.984+129.502C451.915+128.147+449.038+124.891+447.771+123.923Z" vectornator:shadowOffset="10" fill="#d4a23f" opacity="1" vectornator:shadowAngle="1.5708"/>
<path vectornator:shadowColor="#000000" vectornator:shadowOpacity="0.333" vectornator:shadowRadius="10" d="M428.547+178.379C427.672+177.798+426.578+174.154+425.322+173.153C423.958+172.065+427.153+173.343+427.153+173.343L429.271+172.042C429.271+172.042+430.546+168.46+430.774+169.025C430.963+169.496+431.713+171.086+431.353+172.56C430.924+174.31+429.383+175.971+429.841+176.436C431.217+177.832+434.784+175.038+434.103+172.61C437.901+173.446+433.606+177.732+435.258+178.262C438.743+179.379+439.395+172.098+440.282+173.582C441.572+175.739+439.715+177.961+439.682+180.241C439.647+182.665+438.375+184.607+438.939+184.613C441.471+184.643+441.419+180.132+441.995+181.324C444.746+187.015+440.736+189+439.319+189.306C438.461+189.492+437.39+186.545+435.397+184.301C434.099+182.839+429.98+179.329+428.547+178.379Z" vectornator:shadowOffset="10" fill="#d4a23f" opacity="1" vectornator:shadowAngle="1.5708"/>
<path vectornator:shadowColor="#000000" vectornator:shadowOpacity="0.333" vectornator:shadowRadius="10" d="M429.897+207.776C429.53+198.399+426.152+196.271+421.443+192.831C419.174+191.173+416.946+190.581+413.933+186.127C404.666+172.43+408.353+172.307+412.486+158.757C414.696+151.512+422.586+153.785+430.42+150.47C437.238+147.586+441.727+139.592+440.927+134.963C440.251+131.055+431.882+126.004+429.166+122.583C424.969+117.297+428.489+113.241+427.076+107.491C424.748+98.0199+428.838+96.3664+432.472+97.7846C436.106+99.2028+430.685+101.372+437.195+111.888C443.706+122.405+460.053+127.42+455.811+141.792C453.891+148.297+449.128+152.834+443.588+155.677C439.494+157.779+434.72+158.507+431.682+160.75C429.748+162.177+428.204+163.937+427.336+166.329C424.139+175.133+429.565+176.219+435.469+180.763C437.098+182.017+437.915+186.309+439.281+188.288C445.594+197.442+448.819+197.488+445.904+212.206C442.99+226.924+435.947+229.388+434.473+239.234C432.999+249.08+442.337+247.207+447.419+243.946C452.501+240.685+449.511+252.304+447.605+257.55C446.6+260.315+439.222+267.772+432.368+267.491C426.219+267.239+417.938+262.217+416.755+258.31C414.255+250.05+411.047+249.431+414.07+235.689C415.065+231.165+414.635+227.069+417.004+224.498C421.831+219.258+430.261+217.098+429.897+207.776Z" vectornator:shadowOffset="10" fill="#d4a23f" opacity="1" vectornator:shadowAngle="1.5708"/>
<path vectornator:shadowColor="#000000" vectornator:shadowOpacity="0.333" vectornator:shadowRadius="10" d="M466.142+238.17C466.142+238.17+465.805+243.875+466.835+248.863C467.123+250.253+470.196+256.573+470.052+257.94C469.392+264.21+468.197+264.638+468.197+264.638L473.882+272.491C473.986+275.804+467.579+278.348+463.338+278.705C462.661+278.763+465.221+275.908+463.973+272.486C463.413+270.95+461.695+269.017+460.952+267.493C459.852+265.234+459.738+263.636+459.346+263.648L458.308+273.981L461.244+278.986C456.308+279.141+451.879+276.373+451.741+271.943L447.473+263.511L445.07+251.096C444.932+246.667+449.401+236.426+454.337+236.271C454.337+236.271+466.003+233.741+466.142+238.17Z" vectornator:shadowOffset="10" fill="url(#LinearGradient_8)" opacity="1" vectornator:shadowAngle="1.5708"/>
<path vectornator:shadowColor="#000000" vectornator:shadowOpacity="0.333" vectornator:shadowRadius="10" d="M464.084+256.566C464.985+256.538+465.752+257.673+465.796+259.101C465.841+260.53+465.147+261.71+464.246+261.738C463.344+261.767+462.578+260.632+462.533+259.204C462.488+257.775+463.182+256.595+464.084+256.566Z" vectornator:shadowOffset="10" fill="#6f5626" opacity="1" vectornator:shadowAngle="1.5708"/>
</g>
</g>
<g opacity="1">
<path stroke="#eec0c0" stroke-width="2" d="M5.95018+199.773L7.39302+155.652L22.4179+114.13L49.5542+79.2725L86.1455+54.4917L128.61+42.2133L172.791+43.639L214.364+58.6293L249.259+85.7169L274.061+122.25L286.341+164.653L284.898+208.775L269.873+250.297L242.737+285.154L206.146+309.935L163.681+322.213L119.5+320.788L77.9275+305.797L43.0323+278.71L18.2306+242.176L5.95018+199.773Z" fill="#e52c2c" stroke-linecap="round" opacity="1" stroke-linejoin="round"/>
<path stroke="#eec0c0" stroke-width="2" d="M8.22519+152.576L145.822+176.978L22.8338+114.75L145.871+177.518L48.7103+79.2183L145.305+177.025L145.871+177.518L86.1306+56.5331L145.207+175.946L126.916+44.0136L147.035+175.421L155.723+126.897L170.109+46.5438L148.356+176.206L157.88+160.606L214.223+60.6045L148.454+177.285L248.26+90.2202L147.938+177.332L271.362+124.381L149.488+177.193L282.287+165.349L148.035+178.411L226.631+194.671L281.847+206.095L148.601+178.904L267.336+250.873L146.953+177.964L167.382+200.783L241.648+283.734L147.568+178.997L205.519+308.375L146.436+178.011L161.645+321.282L147.812+181.694L118.002+319.337L147.05+177.891L76.0124+305.54L144.886+178.15L41.1421+277.617L145.968+178.597L18.3585+241.827L145.501+179.183L4.44228+197.516L145.92+178.057L8.22519+152.576Z" fill="none" stroke-linecap="round" opacity="0.536822" stroke-linejoin="round"/>
<path stroke="#eec0c0" stroke-width="2" d="M146.437+172.002C150.326+171.515+153.896+174.457+154.411+178.573C154.927+182.689+152.193+186.421+148.304+186.908C144.416+187.395+140.846+184.453+140.331+180.337C139.815+176.221+142.549+172.489+146.437+172.002Z" fill="#ffffff" stroke-linecap="round" opacity="0.604651" stroke-linejoin="round"/>
<g opacity="1">
<g opacity="1">
<path stroke="#e3caca" stroke-width="1.05193" d="M203.864+252.051C206.01+250.381+206.301+252.162+207.804+254.094C209.307+256.025+211.452+257.375+209.306+259.045C207.16+260.715+204.202+260.503+202.699+258.571C201.196+256.64+201.718+253.72+203.864+252.051Z" fill="#ecb9b9" stroke-linecap="round" opacity="1" stroke-linejoin="round"/>
<path stroke="#e3caca" stroke-width="1.11855" d="M209.207+260.684C211.497+262.15+209.914+263.019+208.595+265.08C207.276+267.142+206.719+269.615+204.429+268.148C202.138+266.682+201.351+263.823+202.671+261.762C203.99+259.701+206.916+259.218+209.207+260.684Z" fill="#ecb9b9" stroke-linecap="round" opacity="1" stroke-linejoin="round"/>
<path stroke="#e3caca" stroke-width="0.8656" d="M193.697+253.932C192.973+251.311+194.731+251.722+197.089+251.07C199.448+250.417+201.514+248.949+202.239+251.57C202.964+254.191+201.639+256.844+199.281+257.496C196.922+258.149+194.422+256.553+193.697+253.932Z" fill="#ecb9b9" stroke-linecap="round" opacity="1" stroke-linejoin="round"/>
<path stroke="#e3caca" stroke-width="1.33191" d="M201.078+269.041C199.747+271.412+198.788+269.882+196.654+268.683C194.52+267.485+192.019+267.072+193.351+264.701C194.683+262.33+197.492+261.379+199.626+262.578C201.759+263.776+202.41+266.67+201.078+269.041Z" fill="#ecb9b9" stroke-linecap="round" opacity="1" stroke-linejoin="round"/>
<path stroke="#e3caca" stroke-width="1.18742" d="M190.982+263.421C188.33+262.823+189.522+261.467+190.061+259.08C190.6+256.692+190.281+254.178+192.934+254.776C195.586+255.375+197.3+257.796+196.761+260.183C196.222+262.57+193.635+264.02+190.982+263.421Z" fill="#ecb9b9" stroke-linecap="round" opacity="1" stroke-linejoin="round"/>
<path stroke="#e7b146" stroke-width="2" d="M199.788+258.411C200.92+258.269+201.956+259.096+202.102+260.258C202.247+261.42+201.448+262.478+200.315+262.619C199.183+262.761+198.147+261.934+198.001+260.772C197.856+259.61+198.656+258.553+199.788+258.411Z" fill="#e7b146" stroke-linecap="round" opacity="1" stroke-linejoin="round"/>
</g>
<g opacity="1">
<path stroke="#e3caca" stroke-width="1.05193" d="M97.4689+196.823C99.615+195.153+99.9061+196.935+101.409+198.866C102.912+200.798+105.058+202.147+102.911+203.817C100.765+205.487+97.8073+205.275+96.3043+203.344C94.8014+201.412+95.3228+198.493+97.4689+196.823Z" fill="#ecb9b9" stroke-linecap="round" opacity="1" stroke-linejoin="round"/>
<path stroke="#e3caca" stroke-width="1.11855" d="M102.812+205.457C105.102+206.923+103.52+207.792+102.2+209.853C100.881+211.914+100.324+214.387+98.0338+212.921C95.7436+211.455+94.9567+208.595+96.2761+206.534C97.5955+204.473+100.522+203.991+102.812+205.457Z" fill="#ecb9b9" stroke-linecap="round" opacity="1" stroke-linejoin="round"/>
<path stroke="#e3caca" stroke-width="0.8656" d="M87.3026+198.704C86.5778+196.084+88.3358+196.494+90.6946+195.842C93.0533+195.19+95.1197+193.721+95.8445+196.342C96.5693+198.963+95.2447+201.616+92.886+202.269C90.5272+202.921+88.0274+201.325+87.3026+198.704Z" fill="#ecb9b9" stroke-linecap="round" opacity="1" stroke-linejoin="round"/>
<path stroke="#e3caca" stroke-width="1.33191" d="M94.6834+213.813C93.3519+216.184+92.3932+214.654+90.2594+213.456C88.1256+212.257+85.6246+211.844+86.9562+209.473C88.2878+207.102+91.097+206.152+93.2308+207.35C95.3646+208.549+96.015+211.442+94.6834+213.813Z" fill="#ecb9b9" stroke-linecap="round" opacity="1" stroke-linejoin="round"/>
<path stroke="#e3caca" stroke-width="1.18742" d="M84.5877+208.194C81.9351+207.595+83.1273+206.239+83.6661+203.852C84.205+201.465+83.8866+198.95+86.5391+199.549C89.1916+200.147+90.905+202.568+90.3662+204.955C89.8273+207.342+87.2402+208.792+84.5877+208.194Z" fill="#ecb9b9" stroke-linecap="round" opacity="1" stroke-linejoin="round"/>
<path stroke="#e7b146" stroke-width="2" d="M93.3933+203.183C94.5256+203.041+95.5616+203.868+95.7072+205.031C95.8527+206.193+95.0528+207.25+93.9204+207.392C92.788+207.534+91.7521+206.706+91.6065+205.544C91.4609+204.382+92.2609+203.325+93.3933+203.183Z" fill="#e7b146" stroke-linecap="round" opacity="1" stroke-linejoin="round"/>
</g>
<g opacity="1">
<path stroke="#e3caca" stroke-width="1.05193" d="M68.1351+198.551C70.2811+196.881+70.5723+198.662+72.0752+200.594C73.5781+202.525+75.7237+203.875+73.5776+205.545C71.4315+207.215+68.4734+207.003+66.9705+205.071C65.4676+203.14+65.989+200.22+68.1351+198.551Z" fill="#ecb9b9" stroke-linecap="round" opacity="1" stroke-linejoin="round"/>
<path stroke="#e3caca" stroke-width="1.11855" d="M73.4781+207.184C75.7683+208.65+74.1858+209.519+72.8664+211.58C71.547+213.642+70.9902+216.114+68.7+214.648C66.4098+213.182+65.6228+210.323+66.9422+208.262C68.2617+206.201+71.1878+205.718+73.4781+207.184Z" fill="#ecb9b9" stroke-linecap="round" opacity="1" stroke-linejoin="round"/>
<path stroke="#e3caca" stroke-width="0.8656" d="M57.9688+200.432C57.244+197.811+59.002+198.222+61.3607+197.569C63.7195+196.917+65.7858+195.449+66.5106+198.07C67.2355+200.691+65.9109+203.344+63.5521+203.996C61.1934+204.649+58.6936+203.053+57.9688+200.432Z" fill="#ecb9b9" stroke-linecap="round" opacity="1" stroke-linejoin="round"/>
<path stroke="#e3caca" stroke-width="1.33191" d="M65.3496+215.541C64.018+217.912+63.0594+216.382+60.9256+215.183C58.7918+213.985+56.2908+213.572+57.6224+211.201C58.9539+208.83+61.7632+207.879+63.897+209.078C66.0308+210.276+66.6812+213.17+65.3496+215.541Z" fill="#ecb9b9" stroke-linecap="round" opacity="1" stroke-linejoin="round"/>
<path stroke="#e3caca" stroke-width="1.18742" d="M55.2538+209.921C52.6013+209.322+53.7934+207.967+54.3323+205.58C54.8712+203.192+54.5527+200.677+57.2052+201.276C59.8577+201.875+61.5712+204.296+61.0323+206.683C60.4934+209.07+57.9063+210.52+55.2538+209.921Z" fill="#ecb9b9" stroke-linecap="round" opacity="1" stroke-linejoin="round"/>
<path stroke="#e7b146" stroke-width="2" d="M64.0594+204.911C65.1918+204.769+66.2278+205.596+66.3733+206.758C66.5189+207.92+65.7189+208.977+64.5866+209.119C63.4542+209.261+62.4182+208.434+62.2727+207.272C62.1271+206.11+62.9271+205.053+64.0594+204.911Z" fill="#e7b146" stroke-linecap="round" opacity="1" stroke-linejoin="round"/>
</g>
<g opacity="1">
<path stroke="#e3caca" stroke-width="1.05193" d="M178.57+237.983C180.716+236.313+181.007+238.095+182.51+240.026C184.013+241.958+186.158+243.308+184.012+244.978C181.866+246.648+178.908+246.436+177.405+244.504C175.902+242.573+176.424+239.653+178.57+237.983Z" fill="#ecb9b9" stroke-linecap="round" opacity="1" stroke-linejoin="round"/>
<path stroke="#e3caca" stroke-width="1.11855" d="M183.913+246.617C186.203+248.083+184.621+248.952+183.301+251.013C181.982+253.074+181.425+255.547+179.135+254.081C176.845+252.615+176.058+249.756+177.377+247.695C178.696+245.633+181.623+245.151+183.913+246.617Z" fill="#ecb9b9" stroke-linecap="round" opacity="1" stroke-linejoin="round"/>
<path stroke="#e3caca" stroke-width="0.8656" d="M168.403+239.865C167.679+237.244+169.437+237.655+171.795+237.002C174.154+236.35+176.221+234.882+176.945+237.502C177.67+240.123+176.346+242.777+173.987+243.429C171.628+244.081+169.128+242.486+168.403+239.865Z" fill="#ecb9b9" stroke-linecap="round" opacity="1" stroke-linejoin="round"/>
<path stroke="#e3caca" stroke-width="1.33191" d="M175.784+254.973C174.453+257.344+173.494+255.815+171.36+254.616C169.226+253.418+166.726+253.004+168.057+250.634C169.389+248.263+172.198+247.312+174.332+248.511C176.466+249.709+177.116+252.602+175.784+254.973Z" fill="#ecb9b9" stroke-linecap="round" opacity="1" stroke-linejoin="round"/>
<path stroke="#e3caca" stroke-width="1.18742" d="M165.689+249.354C163.036+248.755+164.228+247.399+164.767+245.012C165.306+242.625+164.987+240.11+167.64+240.709C170.292+241.308+172.006+243.728+171.467+246.116C170.928+248.503+168.341+249.953+165.689+249.354Z" fill="#ecb9b9" stroke-linecap="round" opacity="1" stroke-linejoin="round"/>
<path stroke="#e7b146" stroke-width="2" d="M174.494+244.343C175.627+244.202+176.662+245.029+176.808+246.191C176.954+247.353+176.154+248.41+175.021+248.552C173.889+248.694+172.853+247.867+172.707+246.705C172.562+245.542+173.362+244.485+174.494+244.343Z" fill="#e7b146" stroke-linecap="round" opacity="1" stroke-linejoin="round"/>
</g>
<g opacity="1">
<path stroke="#e3caca" stroke-width="1.05193" d="M166.238+260.352C168.384+258.682+168.675+260.464+170.178+262.395C171.681+264.327+173.826+265.676+171.68+267.346C169.534+269.016+166.576+268.804+165.073+266.873C163.57+264.941+164.092+262.022+166.238+260.352Z" fill="#ecb9b9" stroke-linecap="round" opacity="1" stroke-linejoin="round"/>
<path stroke="#e3caca" stroke-width="1.11855" d="M171.581+268.986C173.871+270.452+172.288+271.321+170.969+273.382C169.65+275.443+169.093+277.916+166.803+276.45C164.513+274.984+163.726+272.124+165.045+270.063C166.364+268.002+169.291+267.52+171.581+268.986Z" fill="#ecb9b9" stroke-linecap="round" opacity="1" stroke-linejoin="round"/>
<path stroke="#e3caca" stroke-width="0.8656" d="M156.071+262.233C155.347+259.613+157.105+260.023+159.463+259.371C161.822+258.719+163.889+257.25+164.613+259.871C165.338+262.492+164.014+265.145+161.655+265.798C159.296+266.45+156.796+264.854+156.071+262.233Z" fill="#ecb9b9" stroke-linecap="round" opacity="1" stroke-linejoin="round"/>
<path stroke="#e3caca" stroke-width="1.33191" d="M163.452+277.342C162.121+279.713+161.162+278.183+159.028+276.985C156.894+275.786+154.394+275.373+155.725+273.002C157.057+270.631+159.866+269.681+162+270.879C164.134+272.078+164.784+274.971+163.452+277.342Z" fill="#ecb9b9" stroke-linecap="round" opacity="1" stroke-linejoin="round"/>
<path stroke="#e3caca" stroke-width="1.18742" d="M153.357+271.723C150.704+271.124+151.896+269.768+152.435+267.381C152.974+264.994+152.655+262.479+155.308+263.078C157.96+263.676+159.674+266.097+159.135+268.484C158.596+270.872+156.009+272.321+153.357+271.723Z" fill="#ecb9b9" stroke-linecap="round" opacity="1" stroke-linejoin="round"/>
<path stroke="#e7b146" stroke-width="2" d="M162.162+266.712C163.295+266.57+164.33+267.397+164.476+268.56C164.622+269.722+163.822+270.779+162.689+270.921C161.557+271.063+160.521+270.235+160.375+269.073C160.23+267.911+161.03+266.854+162.162+266.712Z" fill="#e7b146" stroke-linecap="round" opacity="1" stroke-linejoin="round"/>
</g>
<g opacity="1">
<path stroke="#e3caca" stroke-width="1.05193" d="M142.669+236.261C144.815+234.591+145.106+236.373+146.609+238.304C148.112+240.236+150.257+241.585+148.111+243.255C145.965+244.925+143.007+244.713+141.504+242.782C140.001+240.85+140.523+237.931+142.669+236.261Z" fill="#ecb9b9" stroke-linecap="round" opacity="1" stroke-linejoin="round"/>
<path stroke="#e3caca" stroke-width="1.11855" d="M148.012+244.895C150.302+246.361+148.719+247.23+147.4+249.291C146.081+251.352+145.524+253.825+143.234+252.359C140.944+250.893+140.157+248.033+141.476+245.972C142.795+243.911+145.722+243.429+148.012+244.895Z" fill="#ecb9b9" stroke-linecap="round" opacity="1" stroke-linejoin="round"/>
<path stroke="#e3caca" stroke-width="0.8656" d="M132.502+238.142C131.778+235.522+133.536+235.932+135.894+235.28C138.253+234.628+140.32+233.159+141.044+235.78C141.769+238.401+140.445+241.054+138.086+241.707C135.727+242.359+133.227+240.763+132.502+238.142Z" fill="#ecb9b9" stroke-linecap="round" opacity="1" stroke-linejoin="round"/>
<path stroke="#e3caca" stroke-width="1.33191" d="M139.883+253.251C138.552+255.622+137.593+254.092+135.459+252.894C133.325+251.695+130.825+251.282+132.156+248.911C133.488+246.54+136.297+245.59+138.431+246.788C140.565+247.987+141.215+250.88+139.883+253.251Z" fill="#ecb9b9" stroke-linecap="round" opacity="1" stroke-linejoin="round"/>
<path stroke="#e3caca" stroke-width="1.18742" d="M129.788+247.632C127.135+247.033+128.327+245.677+128.866+243.29C129.405+240.903+129.086+238.388+131.739+238.987C134.391+239.585+136.105+242.006+135.566+244.393C135.027+246.78+132.44+248.23+129.788+247.632Z" fill="#ecb9b9" stroke-linecap="round" opacity="1" stroke-linejoin="round"/>
<path stroke="#e7b146" stroke-width="2" d="M138.593+242.621C139.726+242.479+140.761+243.306+140.907+244.469C141.053+245.631+140.253+246.688+139.12+246.83C137.988+246.972+136.952+246.144+136.806+244.982C136.661+243.82+137.461+242.763+138.593+242.621Z" fill="#e7b146" stroke-linecap="round" opacity="1" stroke-linejoin="round"/>
</g>
<g opacity="1">
<path stroke="#e3caca" stroke-width="1.05193" d="M113.864+252.217C116.01+250.547+116.301+252.328+117.804+254.26C119.307+256.191+121.453+257.541+119.307+259.211C117.161+260.881+114.202+260.669+112.7+258.737C111.197+256.806+111.718+253.886+113.864+252.217Z" fill="#ecb9b9" stroke-linecap="round" opacity="1" stroke-linejoin="round"/>
<path stroke="#e3caca" stroke-width="1.11855" d="M119.207+260.85C121.497+262.316+119.915+263.185+118.595+265.246C117.276+267.308+116.719+269.781+114.429+268.315C112.139+266.848+111.352+263.989+112.671+261.928C113.991+259.867+116.917+259.384+119.207+260.85Z" fill="#ecb9b9" stroke-linecap="round" opacity="1" stroke-linejoin="round"/>
<path stroke="#e3caca" stroke-width="0.8656" d="M103.698+254.098C102.973+251.477+104.731+251.888+107.09+251.236C109.449+250.583+111.515+249.115+112.24+251.736C112.964+254.357+111.64+257.01+109.281+257.662C106.922+258.315+104.423+256.719+103.698+254.098Z" fill="#ecb9b9" stroke-linecap="round" opacity="1" stroke-linejoin="round"/>
<path stroke="#e3caca" stroke-width="1.33191" d="M111.079+269.207C109.747+271.578+108.788+270.048+106.655+268.849C104.521+267.651+102.02+267.238+103.351+264.867C104.683+262.496+107.492+261.545+109.626+262.744C111.76+263.942+112.41+266.836+111.079+269.207Z" fill="#ecb9b9" stroke-linecap="round" opacity="1" stroke-linejoin="round"/>
<path stroke="#e3caca" stroke-width="1.18742" d="M100.983+263.587C98.3303+262.989+99.5225+261.633+100.061+259.246C100.6+256.858+100.282+254.344+102.934+254.942C105.587+255.541+107.3+257.962+106.761+260.349C106.222+262.736+103.635+264.186+100.983+263.587Z" fill="#ecb9b9" stroke-linecap="round" opacity="1" stroke-linejoin="round"/>
<path stroke="#e7b146" stroke-width="2" d="M109.788+258.577C110.921+258.435+111.957+259.262+112.102+260.424C112.248+261.586+111.448+262.644+110.316+262.785C109.183+262.927+108.147+262.1+108.002+260.938C107.856+259.776+108.656+258.719+109.788+258.577Z" fill="#e7b146" stroke-linecap="round" opacity="1" stroke-linejoin="round"/>
</g>
<g opacity="1">
<path stroke="#e3caca" stroke-width="1.05193" d="M117.329+220.343C119.475+218.673+119.766+220.455+121.269+222.386C122.772+224.318+124.918+225.668+122.772+227.338C120.626+229.008+117.667+228.796+116.165+226.864C114.662+224.933+115.183+222.013+117.329+220.343Z" fill="#ecb9b9" stroke-linecap="round" opacity="1" stroke-linejoin="round"/>
<path stroke="#e3caca" stroke-width="1.11855" d="M122.672+228.977C124.962+230.443+123.38+231.312+122.06+233.373C120.741+235.434+120.184+237.907+117.894+236.441C115.604+234.975+114.817+232.116+116.136+230.055C117.456+227.993+120.382+227.511+122.672+228.977Z" fill="#ecb9b9" stroke-linecap="round" opacity="1" stroke-linejoin="round"/>
<path stroke="#e3caca" stroke-width="0.8656" d="M107.163+222.225C106.438+219.604+108.196+220.015+110.555+219.362C112.913+218.71+114.98+217.242+115.705+219.862C116.429+222.483+115.105+225.137+112.746+225.789C110.387+226.441+107.888+224.846+107.163+222.225Z" fill="#ecb9b9" stroke-linecap="round" opacity="1" stroke-linejoin="round"/>
<path stroke="#e3caca" stroke-width="1.33191" d="M114.544+237.333C113.212+239.704+112.253+238.175+110.12+236.976C107.986+235.778+105.485+235.364+106.816+232.994C108.148+230.623+110.957+229.672+113.091+230.871C115.225+232.069+115.875+234.962+114.544+237.333Z" fill="#ecb9b9" stroke-linecap="round" opacity="1" stroke-linejoin="round"/>
<path stroke="#e3caca" stroke-width="1.18742" d="M104.448+231.714C101.795+231.115+102.987+229.759+103.526+227.372C104.065+224.985+103.747+222.47+106.399+223.069C109.052+223.668+110.765+226.088+110.226+228.476C109.687+230.863+107.1+232.313+104.448+231.714Z" fill="#ecb9b9" stroke-linecap="round" opacity="1" stroke-linejoin="round"/>
<path stroke="#e7b146" stroke-width="2" d="M113.253+226.703C114.386+226.562+115.422+227.389+115.567+228.551C115.713+229.713+114.913+230.77+113.781+230.912C112.648+231.054+111.612+230.227+111.467+229.065C111.321+227.902+112.121+226.845+113.253+226.703Z" fill="#e7b146" stroke-linecap="round" opacity="1" stroke-linejoin="round"/>
</g>
<g opacity="1">
<path stroke="#e3caca" stroke-width="1.05193" d="M87.928+226.505C90.0741+224.835+90.3652+226.617+91.8681+228.549C93.3711+230.48+95.5166+231.83+93.3705+233.5C91.2244+235.17+88.2663+234.958+86.7634+233.026C85.2605+231.095+85.7819+228.175+87.928+226.505Z" fill="#ecb9b9" stroke-linecap="round" opacity="1" stroke-linejoin="round"/>
<path stroke="#e3caca" stroke-width="1.11855" d="M93.271+235.139C95.5612+236.605+93.9787+237.474+92.6593+239.535C91.3399+241.596+90.7831+244.069+88.4929+242.603C86.2027+241.137+85.4157+238.278+86.7352+236.217C88.0546+234.156+90.9808+233.673+93.271+235.139Z" fill="#ecb9b9" stroke-linecap="round" opacity="1" stroke-linejoin="round"/>
<path stroke="#e3caca" stroke-width="0.8656" d="M77.7617+228.387C77.0369+225.766+78.7949+226.177+81.1536+225.524C83.5124+224.872+85.5788+223.404+86.3036+226.025C87.0284+228.645+85.7038+231.299+83.3451+231.951C80.9863+232.604+78.4865+231.008+77.7617+228.387Z" fill="#ecb9b9" stroke-linecap="round" opacity="1" stroke-linejoin="round"/>
<path stroke="#e3caca" stroke-width="1.33191" d="M85.1425+243.495C83.811+245.866+82.8523+244.337+80.7185+243.138C78.5847+241.94+76.0837+241.527+77.4153+239.156C78.7469+236.785+81.5561+235.834+83.6899+237.033C85.8237+238.231+86.4741+241.125+85.1425+243.495Z" fill="#ecb9b9" stroke-linecap="round" opacity="1" stroke-linejoin="round"/>
<path stroke="#e3caca" stroke-width="1.18742" d="M75.0467+237.876C72.3942+237.277+73.5864+235.922+74.1252+233.534C74.6641+231.147+74.3457+228.632+76.9982+229.231C79.6507+229.83+81.3641+232.25+80.8252+234.638C80.2864+237.025+77.6992+238.475+75.0467+237.876Z" fill="#ecb9b9" stroke-linecap="round" opacity="1" stroke-linejoin="round"/>
<path stroke="#e7b146" stroke-width="2" d="M83.8524+232.866C84.9847+232.724+86.0207+233.551+86.1663+234.713C86.3118+235.875+85.5119+236.932+84.3795+237.074C83.2471+237.216+82.2112+236.389+82.0656+235.227C81.92+234.065+82.72+233.007+83.8524+232.866Z" fill="#e7b146" stroke-linecap="round" opacity="1" stroke-linejoin="round"/>
</g>
<path stroke="#83422f" stroke-width="2.8" d="M52.1457+166.367C54.908+165.748+72.5008+189.146+72.3344+190.175C72.2241+190.858+71.5097+191.453+71.394+192.169C71.3529+192.423+71.4001+192.724+71.563+192.924C73.1649+194.889+72.9783+196.683+74.0887+198.896C75.4406+201.588+78.1716+204.032+79.9511+206.498C82.4149+209.911+83.7712+213.914+86.1542+217.391C89.1688+221.79+93.8779+224.951+97.3072+229.158C98.2741+230.344+98.6565+231.716+99.1797+233.097C100.236+235.885+103.4+239.43+105.735+241.138C107.618+242.516+109.935+242.972+111.8+244.336C113.441+245.538+114.819+247.246+116.629+248.208C118.904+249.417+121.523+250.003+123.533+251.615C127.703+254.958+127.511+262.218+134.39+262.06C142.732+261.87+149.215+255.464+157.633+255.271C158.491+255.252+159.205+255.688+159.961+255.939C163.799+257.211+167.49+256.633+171.247+258.563C173.629+259.786+175.66+262.687+178.258+263.332C180.711+263.942+184.473+261.831+186.032+260.007C186.742+259.176+187.987+256.391+188.228+256.543" fill="none" stroke-linecap="round" opacity="1" stroke-linejoin="round"/>
</g>
</g>
</g>
</svg>
