<svg width="79" height="38" viewBox="0 0 79 38" fill="none" xmlns="http://www.w3.org/2000/svg">
<path d="M1.104 9.936C1.136 10.096 1.168 10.256 1.2 10.416C1.232 10.544 1.28 10.672 1.344 10.8C1.312 11.056 1.28 11.312 1.248 11.568C1.248 11.792 1.296 12.032 1.392 12.288C1.488 12.736 1.712 13.008 2.064 13.104C2.448 13.2 2.784 13.072 3.072 12.72C3.072 12.72 3.104 12.688 3.168 12.624H3.552C3.712 12.624 3.872 12.576 4.032 12.48C4.224 12.352 4.352 12.224 4.416 12.096C4.48 12 4.56 11.904 4.656 11.808C4.784 11.68 4.88 11.584 4.944 11.52H8.448V9.456C8.608 8.656 9.056 8.256 9.792 8.256C10.688 8.256 11.136 8.704 11.136 9.6C11.136 10.976 10.352 12.88 8.784 15.312C7.312 17.552 5.856 19.792 4.416 22.032C2.848 24.784 2.064 27.296 2.064 29.568V37.248H17.52V35.424C18.032 35.072 18.384 34.576 18.576 33.936C18.8 33.264 18.864 32.592 18.768 31.92C18.672 31.216 18.416 30.592 18 30.048C17.616 29.472 17.056 29.12 16.32 28.992C15.712 29.28 15.072 29.424 14.4 29.424C13.728 29.392 13.04 29.344 12.336 29.28C11.664 29.184 10.992 29.104 10.32 29.04C9.68 28.976 9.056 29.024 8.448 29.184C8.576 27.872 9.36 26.112 10.8 23.904C12.24 21.632 13.696 19.36 15.168 17.088L15.504 16.464C16.24 16.304 16.864 15.968 17.376 15.456C17.888 14.944 18.224 14.304 18.384 13.536C18.832 12.032 19.04 10.464 19.008 8.832C18.976 7.2 18.528 5.712 17.664 4.368C17.472 4.048 17.248 3.744 16.992 3.456C16.736 3.168 16.432 2.912 16.08 2.688C16.016 2.624 15.952 2.576 15.888 2.544C15.856 2.512 15.808 2.48 15.744 2.448C15.584 2.224 15.456 2 15.36 1.776C15.072 1.552 14.752 1.392 14.4 1.296C14.048 1.168 13.744 0.975998 13.488 0.719999C13.296 0.879999 13.104 0.943999 12.912 0.912C12.72 0.879998 12.528 0.815998 12.336 0.719999C12.176 0.623999 12 0.543999 11.808 0.48C11.648 0.383999 11.456 0.351998 11.232 0.383998C10.656 0.223998 10.064 0.143998 9.456 0.143998C8.88 0.143998 8.304 0.223998 7.728 0.383998C7.152 0.543998 6.608 0.783998 6.096 1.104C5.616 1.424 5.2 1.84 4.848 2.352C3.856 2.864 3.056 3.6 2.448 4.56C1.776 5.264 1.296 6.096 1.008 7.056C0.752 7.984 0.784 8.944 1.104 9.936ZM14.928 11.424C14.928 11.264 14.976 11.136 15.072 11.04C14.976 10.464 14.832 9.888 14.64 9.312C14.48 8.704 14.336 8.112 14.208 7.536C13.664 7.824 13.072 7.84 12.432 7.584C11.824 7.328 11.44 6.88 11.28 6.24L11.232 6.192C10.88 6.32 10.512 6.48 10.128 6.672C9.744 6.832 9.344 6.976 8.928 7.104C8.544 7.232 8.16 7.28 7.776 7.248C7.392 7.216 7.056 7.056 6.768 6.768C6.64 7.024 6.544 7.28 6.48 7.536C6.416 7.792 6.336 8.048 6.24 8.304C6.176 8.496 6.032 8.656 5.808 8.784C5.616 8.912 5.424 8.96 5.232 8.928C4.912 8.928 4.672 9.024 4.512 9.216C4.352 9.408 4.224 9.648 4.128 9.936C4.064 10.192 4 10.48 3.936 10.8C3.872 11.088 3.776 11.344 3.648 11.568C3.552 11.824 3.408 12 3.216 12.096C3.024 12.192 2.816 12.224 2.592 12.192C2.4 12.16 2.224 12.08 2.064 11.952C1.904 11.792 1.808 11.584 1.776 11.328C1.648 10.56 1.616 9.808 1.68 9.072C1.744 8.304 1.776 7.536 1.776 6.768C1.776 6.512 1.84 6.304 1.968 6.144C2.096 5.984 2.24 5.872 2.4 5.808C2.656 5.2 3.104 4.72 3.744 4.368C4.416 3.984 5.024 3.6 5.568 3.216C5.888 2.576 6.304 2.08 6.816 1.728C7.36 1.376 7.936 1.168 8.544 1.104C9.184 1.008 9.824 1.024 10.464 1.152C11.136 1.28 11.76 1.504 12.336 1.824C12.4 1.792 12.512 1.776 12.672 1.776C12.992 1.776 13.328 1.808 13.68 1.872C14.032 1.936 14.352 2.048 14.64 2.208C14.96 2.368 15.216 2.576 15.408 2.832C15.632 3.088 15.76 3.408 15.792 3.792C15.92 3.888 15.984 4.016 15.984 4.176C16.848 4.912 17.488 5.888 17.904 7.104C18.352 8.288 18.496 9.44 18.336 10.56C18.272 10.624 18.224 10.704 18.192 10.8C18.192 10.896 18.176 10.976 18.144 11.04C18.144 11.552 18.112 12.048 18.048 12.528C18.016 13.008 17.872 13.472 17.616 13.92C17.584 14.208 17.472 14.48 17.28 14.736C17.088 14.992 16.848 15.184 16.56 15.312C16.304 15.44 16.016 15.504 15.696 15.504C15.408 15.504 15.152 15.376 14.928 15.12C14.832 15.056 14.736 14.928 14.64 14.736C14.576 14.544 14.544 14.384 14.544 14.256C14.608 13.776 14.656 13.296 14.688 12.816C14.752 12.336 14.832 11.872 14.928 11.424ZM7.584 30.432C7.712 29.984 7.952 29.728 8.304 29.664C8.656 29.6 8.944 29.696 9.168 29.952C9.712 29.856 10.272 29.824 10.848 29.856C11.424 29.856 11.984 29.888 12.528 29.952C12.848 30.208 13.216 30.368 13.632 30.432C13.696 30.4 13.744 30.368 13.776 30.336C13.84 30.304 13.904 30.272 13.968 30.24C14.352 30.08 14.768 29.968 15.216 29.904C15.664 29.84 16.112 29.856 16.56 29.952C16.816 29.952 17.072 30.048 17.328 30.24C17.488 30.336 17.584 30.464 17.616 30.624C17.68 30.752 17.712 30.896 17.712 31.056C18.096 31.504 18.304 32.064 18.336 32.736C18.4 33.376 18.224 33.92 17.808 34.368C17.744 34.464 17.616 34.56 17.424 34.656C17.264 34.72 17.136 34.752 17.04 34.752C16.688 34.752 16.352 34.672 16.032 34.512C15.744 34.352 15.536 34.112 15.408 33.792C15.248 33.792 15.104 33.808 14.976 33.84C14.88 33.84 14.752 33.856 14.592 33.888C14.144 33.952 13.76 33.856 13.44 33.6C13.12 33.344 12.784 33.088 12.432 32.832C12.4 32.832 12.384 32.848 12.384 32.88C12.384 32.88 12.368 32.88 12.336 32.88C12.08 33.104 11.952 33.472 11.952 33.984C11.984 34.496 11.904 34.944 11.712 35.328C11.616 35.648 11.424 35.872 11.136 36C10.848 36.096 10.56 36.048 10.272 35.856C10.016 35.728 9.84 35.568 9.744 35.376C9.648 35.152 9.6 34.912 9.6 34.656C9.6 34.4 9.6 34.144 9.6 33.888C9.632 33.632 9.632 33.376 9.6 33.12C9.6 33.12 9.536 33.088 9.408 33.024C9.152 33.152 8.896 33.264 8.64 33.36C8.416 33.424 8.176 33.408 7.92 33.312C7.696 33.28 7.504 33.168 7.344 32.976C7.184 32.784 7.104 32.576 7.104 32.352C7.136 32 7.2 31.68 7.296 31.392C7.424 31.072 7.52 30.752 7.584 30.432ZM41.0884 9.936C41.1204 10.096 41.1524 10.256 41.1844 10.416C41.2164 10.544 41.2644 10.672 41.3284 10.8C41.2964 11.056 41.2644 11.312 41.2324 11.568C41.2324 11.792 41.2804 12.032 41.3764 12.288C41.4724 12.736 41.6964 13.008 42.0484 13.104C42.4324 13.2 42.7684 13.072 43.0564 12.72C43.0564 12.72 43.0884 12.688 43.1524 12.624H43.5364C43.6964 12.624 43.8564 12.576 44.0164 12.48C44.2084 12.352 44.3364 12.224 44.4004 12.096C44.4644 12 44.5444 11.904 44.6404 11.808C44.7684 11.68 44.8644 11.584 44.9284 11.52H48.4324V9.456C48.5924 8.656 49.0404 8.256 49.7764 8.256C50.6724 8.256 51.1204 8.704 51.1204 9.6C51.1204 10.976 50.3364 12.88 48.7684 15.312C47.2964 17.552 45.8404 19.792 44.4004 22.032C42.8324 24.784 42.0484 27.296 42.0484 29.568V37.248H57.5044V35.424C58.0164 35.072 58.3684 34.576 58.5604 33.936C58.7844 33.264 58.8484 32.592 58.7524 31.92C58.6564 31.216 58.4004 30.592 57.9844 30.048C57.6004 29.472 57.0404 29.12 56.3044 28.992C55.6964 29.28 55.0564 29.424 54.3844 29.424C53.7124 29.392 53.0244 29.344 52.3204 29.28C51.6484 29.184 50.9764 29.104 50.3044 29.04C49.6644 28.976 49.0404 29.024 48.4324 29.184C48.5604 27.872 49.3444 26.112 50.7844 23.904C52.2244 21.632 53.6804 19.36 55.1524 17.088L55.4884 16.464C56.2244 16.304 56.8484 15.968 57.3604 15.456C57.8724 14.944 58.2084 14.304 58.3684 13.536C58.8164 12.032 59.0244 10.464 58.9924 8.832C58.9604 7.2 58.5124 5.712 57.6484 4.368C57.4564 4.048 57.2324 3.744 56.9764 3.456C56.7204 3.168 56.4164 2.912 56.0644 2.688C56.0004 2.624 55.9364 2.576 55.8724 2.544C55.8404 2.512 55.7924 2.48 55.7284 2.448C55.5684 2.224 55.4404 2 55.3444 1.776C55.0564 1.552 54.7364 1.392 54.3844 1.296C54.0324 1.168 53.7284 0.975998 53.4724 0.719999C53.2804 0.879999 53.0884 0.943999 52.8964 0.912C52.7044 0.879998 52.5124 0.815998 52.3204 0.719999C52.1604 0.623999 51.9844 0.543999 51.7924 0.48C51.6324 0.383999 51.4404 0.351998 51.2164 0.383998C50.6404 0.223998 50.0484 0.143998 49.4404 0.143998C48.8644 0.143998 48.2884 0.223998 47.7124 0.383998C47.1364 0.543998 46.5924 0.783998 46.0804 1.104C45.6004 1.424 45.1844 1.84 44.8324 2.352C43.8404 2.864 43.0404 3.6 42.4324 4.56C41.7604 5.264 41.2804 6.096 40.9924 7.056C40.7364 7.984 40.7684 8.944 41.0884 9.936ZM54.9124 11.424C54.9124 11.264 54.9604 11.136 55.0564 11.04C54.9604 10.464 54.8164 9.888 54.6244 9.312C54.4644 8.704 54.3204 8.112 54.1924 7.536C53.6484 7.824 53.0564 7.84 52.4164 7.584C51.8084 7.328 51.4244 6.88 51.2644 6.24L51.2164 6.192C50.8644 6.32 50.4964 6.48 50.1124 6.672C49.7284 6.832 49.3284 6.976 48.9124 7.104C48.5284 7.232 48.1444 7.28 47.7604 7.248C47.3764 7.216 47.0404 7.056 46.7524 6.768C46.6244 7.024 46.5284 7.28 46.4644 7.536C46.4004 7.792 46.3204 8.048 46.2244 8.304C46.1604 8.496 46.0164 8.656 45.7924 8.784C45.6004 8.912 45.4084 8.96 45.2164 8.928C44.8964 8.928 44.6564 9.024 44.4964 9.216C44.3364 9.408 44.2084 9.648 44.1124 9.936C44.0484 10.192 43.9844 10.48 43.9204 10.8C43.8564 11.088 43.7604 11.344 43.6324 11.568C43.5364 11.824 43.3924 12 43.2004 12.096C43.0084 12.192 42.8004 12.224 42.5764 12.192C42.3844 12.16 42.2084 12.08 42.0484 11.952C41.8884 11.792 41.7924 11.584 41.7604 11.328C41.6324 10.56 41.6004 9.808 41.6644 9.072C41.7284 8.304 41.7604 7.536 41.7604 6.768C41.7604 6.512 41.8244 6.304 41.9524 6.144C42.0804 5.984 42.2244 5.872 42.3844 5.808C42.6404 5.2 43.0884 4.72 43.7284 4.368C44.4004 3.984 45.0084 3.6 45.5524 3.216C45.8724 2.576 46.2884 2.08 46.8004 1.728C47.3444 1.376 47.9204 1.168 48.5284 1.104C49.1684 1.008 49.8084 1.024 50.4484 1.152C51.1204 1.28 51.7444 1.504 52.3204 1.824C52.3844 1.792 52.4964 1.776 52.6564 1.776C52.9764 1.776 53.3124 1.808 53.6644 1.872C54.0164 1.936 54.3364 2.048 54.6244 2.208C54.9444 2.368 55.2004 2.576 55.3924 2.832C55.6164 3.088 55.7444 3.408 55.7764 3.792C55.9044 3.888 55.9684 4.016 55.9684 4.176C56.8324 4.912 57.4724 5.888 57.8884 7.104C58.3364 8.288 58.4804 9.44 58.3204 10.56C58.2564 10.624 58.2084 10.704 58.1764 10.8C58.1764 10.896 58.1604 10.976 58.1284 11.04C58.1284 11.552 58.0964 12.048 58.0324 12.528C58.0004 13.008 57.8564 13.472 57.6004 13.92C57.5684 14.208 57.4564 14.48 57.2644 14.736C57.0724 14.992 56.8324 15.184 56.5444 15.312C56.2884 15.44 56.0004 15.504 55.6804 15.504C55.3924 15.504 55.1364 15.376 54.9124 15.12C54.8164 15.056 54.7204 14.928 54.6244 14.736C54.5604 14.544 54.5284 14.384 54.5284 14.256C54.5924 13.776 54.6404 13.296 54.6724 12.816C54.7364 12.336 54.8164 11.872 54.9124 11.424ZM47.5684 30.432C47.6964 29.984 47.9364 29.728 48.2884 29.664C48.6404 29.6 48.9284 29.696 49.1524 29.952C49.6964 29.856 50.2564 29.824 50.8324 29.856C51.4084 29.856 51.9684 29.888 52.5124 29.952C52.8324 30.208 53.2004 30.368 53.6164 30.432C53.6804 30.4 53.7284 30.368 53.7604 30.336C53.8244 30.304 53.8884 30.272 53.9524 30.24C54.3364 30.08 54.7524 29.968 55.2004 29.904C55.6484 29.84 56.0964 29.856 56.5444 29.952C56.8004 29.952 57.0564 30.048 57.3124 30.24C57.4724 30.336 57.5684 30.464 57.6004 30.624C57.6644 30.752 57.6964 30.896 57.6964 31.056C58.0804 31.504 58.2884 32.064 58.3204 32.736C58.3844 33.376 58.2084 33.92 57.7924 34.368C57.7284 34.464 57.6004 34.56 57.4084 34.656C57.2484 34.72 57.1204 34.752 57.0244 34.752C56.6724 34.752 56.3364 34.672 56.0164 34.512C55.7284 34.352 55.5204 34.112 55.3924 33.792C55.2324 33.792 55.0884 33.808 54.9604 33.84C54.8644 33.84 54.7364 33.856 54.5764 33.888C54.1284 33.952 53.7444 33.856 53.4244 33.6C53.1044 33.344 52.7684 33.088 52.4164 32.832C52.3844 32.832 52.3684 32.848 52.3684 32.88C52.3684 32.88 52.3524 32.88 52.3204 32.88C52.0644 33.104 51.9364 33.472 51.9364 33.984C51.9684 34.496 51.8884 34.944 51.6964 35.328C51.6004 35.648 51.4084 35.872 51.1204 36C50.8324 36.096 50.5444 36.048 50.2564 35.856C50.0004 35.728 49.8244 35.568 49.7284 35.376C49.6324 35.152 49.5844 34.912 49.5844 34.656C49.5844 34.4 49.5844 34.144 49.5844 33.888C49.6164 33.632 49.6164 33.376 49.5844 33.12C49.5844 33.12 49.5204 33.088 49.3924 33.024C49.1364 33.152 48.8804 33.264 48.6244 33.36C48.4004 33.424 48.1604 33.408 47.9044 33.312C47.6804 33.28 47.4884 33.168 47.3284 32.976C47.1684 32.784 47.0884 32.576 47.0884 32.352C47.1204 32 47.1844 31.68 47.2804 31.392C47.4084 31.072 47.5044 30.752 47.5684 30.432Z" fill="#F0370E"/>
<path d="M37.6294 29.568V15.792C37.6934 15.728 37.7254 15.664 37.7254 15.6C37.7574 15.536 37.8054 15.472 37.8694 15.408C38.2534 14.576 38.4774 13.712 38.5414 12.816C38.6374 11.92 38.6214 11.024 38.4934 10.128C38.3974 9.2 38.2214 8.288 37.9654 7.392C37.7414 6.496 37.5174 5.632 37.2934 4.8C37.0374 4.576 36.7654 4.4 36.4774 4.272C36.1894 4.112 36.0134 3.856 35.9494 3.504C35.7894 3.152 35.5814 2.832 35.3254 2.544C35.0694 2.224 34.8454 1.888 34.6534 1.536C34.5894 1.408 34.4614 1.296 34.2694 1.2C34.1094 1.104 33.9654 1.056 33.8374 1.056C33.1334 0.927998 32.3974 0.783998 31.6294 0.623998C30.8614 0.431998 30.0934 0.319999 29.3254 0.287999C28.5894 0.255998 27.8694 0.351997 27.1654 0.575998C26.4614 0.767998 25.8054 1.168 25.1974 1.776C24.0454 2.416 23.1494 3.248 22.5094 4.272C21.8694 5.296 21.4054 6.4 21.1174 7.584C20.8614 8.768 20.7654 10 20.8294 11.28C20.8934 12.528 21.0694 13.696 21.3574 14.784L21.3094 15.504C21.2774 15.856 21.3414 16.128 21.5014 16.32C21.6934 16.48 21.9174 16.56 22.1734 16.56V29.568C22.1734 31.712 22.9254 33.536 24.4294 35.04C25.9334 36.512 27.7574 37.248 29.9014 37.248C32.0134 37.248 33.8214 36.512 35.3254 35.04C36.8614 33.536 37.6294 31.712 37.6294 29.568ZM21.9814 6.72C21.9814 6.336 22.1254 6.064 22.4134 5.904C22.5094 5.584 22.6854 5.28 22.9414 4.992C23.1974 4.704 23.4694 4.448 23.7574 4.224C24.0774 3.968 24.3974 3.728 24.7174 3.504C25.0694 3.28 25.3894 3.072 25.6774 2.88C26.2534 2.624 26.7814 2.32 27.2614 1.968C27.7734 1.584 28.3014 1.232 28.8454 0.912C29.1654 1.008 29.5014 1.072 29.8534 1.104C30.2054 1.136 30.5414 1.168 30.8614 1.2C31.2134 1.232 31.5494 1.296 31.8694 1.392C32.2214 1.456 32.5414 1.6 32.8294 1.824C33.0534 2.144 33.3254 2.432 33.6454 2.688C33.9654 2.912 34.2694 3.152 34.5574 3.408C34.8774 3.632 35.1494 3.904 35.3734 4.224C35.6294 4.512 35.7734 4.864 35.8054 5.28C36.3814 5.728 36.7814 6.32 37.0054 7.056C37.2294 7.76 37.3734 8.464 37.4374 9.168C37.5334 9.744 37.5974 10.384 37.6294 11.088C37.6614 11.76 37.5974 12.416 37.4374 13.056C37.3094 13.664 37.0534 14.224 36.6694 14.736C36.2854 15.216 35.7414 15.552 35.0374 15.744C34.8454 15.808 34.6374 15.792 34.4134 15.696C34.1894 15.6 34.0294 15.456 33.9334 15.264C33.7414 15.04 33.6454 14.768 33.6454 14.448C33.4854 14.448 33.3254 14.4 33.1654 14.304C33.0054 14.176 32.8934 14.032 32.8294 13.872C32.5734 13.488 32.4294 13.088 32.3974 12.672C32.3654 12.256 32.3174 11.824 32.2534 11.376C32.2534 11.536 32.2374 11.568 32.2054 11.472C32.2054 11.376 32.1894 11.296 32.1574 11.232C31.7094 11.072 31.4694 10.8 31.4374 10.416C31.4054 10.032 31.3574 9.648 31.2934 9.264C31.0374 9.616 30.7014 9.904 30.2854 10.128C29.8694 10.32 29.4374 10.24 28.9894 9.888C28.8614 9.824 28.7334 9.728 28.6054 9.6C28.5094 9.44 28.4454 9.296 28.4134 9.168C28.4134 9.168 28.3974 9.152 28.3654 9.12C28.3654 9.088 28.3654 9.056 28.3654 9.024C27.9494 9.056 27.6294 9.2 27.4054 9.456C27.1814 9.68 26.9574 9.936 26.7334 10.224C26.5734 11.856 26.5094 13.472 26.5414 15.072C26.5734 16.64 26.6374 18.24 26.7334 19.872C26.7334 20.224 26.6374 20.496 26.4454 20.688C26.2534 20.848 26.0294 20.928 25.7734 20.928C25.5494 20.928 25.3254 20.864 25.1014 20.736C24.9094 20.576 24.8134 20.32 24.8134 19.968C24.7494 18.944 24.6854 17.936 24.6214 16.944C24.5894 15.952 24.5894 14.944 24.6214 13.92C24.4614 14.4 24.1734 14.8 23.7574 15.12C23.5014 15.376 23.1974 15.472 22.8454 15.408C22.5254 15.312 22.3014 15.088 22.1734 14.736C21.9174 14.096 21.7574 13.44 21.6934 12.768C21.6614 12.096 21.6614 11.424 21.6934 10.752C21.7254 10.08 21.7734 9.408 21.8374 8.736C21.9334 8.064 21.9814 7.392 21.9814 6.72ZM28.5574 11.856C28.7174 11.472 28.8294 11.024 28.8934 10.512C28.9574 10.512 29.0054 10.528 29.0374 10.56C29.0694 10.56 29.1174 10.56 29.1814 10.56V10.8C29.1814 11.056 29.2614 11.264 29.4214 11.424C29.6134 11.552 29.8214 11.632 30.0454 11.664C30.3014 11.696 30.5254 11.648 30.7174 11.52C30.9094 11.392 31.0374 11.2 31.1014 10.944C31.1334 10.816 31.1494 10.656 31.1494 10.464C31.1814 10.272 31.2134 10.08 31.2454 9.888V28.464C31.1814 28.336 31.0534 28.224 30.8614 28.128C30.7014 28 30.5414 27.936 30.3814 27.936C29.9334 27.872 29.5654 27.936 29.2774 28.128C28.9894 28.288 28.7494 28.512 28.5574 28.8V11.856ZM31.2454 28.704C31.2774 28.736 31.3094 28.768 31.3414 28.8C31.3734 28.8 31.4054 28.816 31.4374 28.848C31.7894 28.848 32.0774 28.992 32.3014 29.28C32.5254 29.568 32.5414 29.904 32.3494 30.288C32.2854 30.352 32.1734 30.512 32.0134 30.768C31.8854 30.992 31.7414 31.184 31.5814 31.344L31.5334 31.392C31.5654 31.776 31.5814 32.16 31.5814 32.544C31.6134 32.896 31.6134 33.264 31.5814 33.648C31.5814 34 31.4694 34.256 31.2454 34.416C31.0534 34.576 30.8294 34.656 30.5734 34.656C30.3494 34.656 30.1414 34.576 29.9494 34.416C29.7574 34.256 29.6614 34 29.6614 33.648C29.6614 33.36 29.6614 33.072 29.6614 32.784C29.6614 32.496 29.6454 32.208 29.6134 31.92C29.5494 31.92 29.5014 31.936 29.4694 31.968C29.4374 31.968 29.3894 31.968 29.3254 31.968C29.1014 32.032 28.8774 32.016 28.6534 31.92C28.4294 31.792 28.2694 31.616 28.1734 31.392C27.9814 30.976 27.9494 30.544 28.0774 30.096C28.2374 29.648 28.4774 29.28 28.7974 28.992C29.1494 28.672 29.5494 28.48 29.9974 28.416C30.4454 28.32 30.8614 28.416 31.2454 28.704ZM77.6138 29.568V15.792C77.6778 15.728 77.7098 15.664 77.7098 15.6C77.7418 15.536 77.7898 15.472 77.8538 15.408C78.2378 14.576 78.4618 13.712 78.5258 12.816C78.6218 11.92 78.6058 11.024 78.4778 10.128C78.3818 9.2 78.2058 8.288 77.9498 7.392C77.7258 6.496 77.5018 5.632 77.2778 4.8C77.0218 4.576 76.7498 4.4 76.4618 4.272C76.1738 4.112 75.9978 3.856 75.9338 3.504C75.7738 3.152 75.5658 2.832 75.3098 2.544C75.0538 2.224 74.8298 1.888 74.6378 1.536C74.5738 1.408 74.4458 1.296 74.2538 1.2C74.0938 1.104 73.9498 1.056 73.8218 1.056C73.1178 0.927998 72.3818 0.783998 71.6138 0.623998C70.8458 0.431998 70.0778 0.319999 69.3098 0.287999C68.5738 0.255998 67.8538 0.351997 67.1497 0.575998C66.4457 0.767998 65.7898 1.168 65.1818 1.776C64.0298 2.416 63.1338 3.248 62.4938 4.272C61.8538 5.296 61.3898 6.4 61.1018 7.584C60.8458 8.768 60.7498 10 60.8138 11.28C60.8778 12.528 61.0538 13.696 61.3418 14.784L61.2938 15.504C61.2618 15.856 61.3258 16.128 61.4858 16.32C61.6778 16.48 61.9018 16.56 62.1578 16.56V29.568C62.1578 31.712 62.9098 33.536 64.4138 35.04C65.9178 36.512 67.7418 37.248 69.8858 37.248C71.9978 37.248 73.8058 36.512 75.3098 35.04C76.8458 33.536 77.6138 31.712 77.6138 29.568ZM61.9658 6.72C61.9658 6.336 62.1098 6.064 62.3978 5.904C62.4938 5.584 62.6698 5.28 62.9258 4.992C63.1818 4.704 63.4538 4.448 63.7418 4.224C64.0618 3.968 64.3818 3.728 64.7018 3.504C65.0538 3.28 65.3738 3.072 65.6618 2.88C66.2378 2.624 66.7658 2.32 67.2458 1.968C67.7578 1.584 68.2858 1.232 68.8298 0.912C69.1498 1.008 69.4858 1.072 69.8378 1.104C70.1898 1.136 70.5258 1.168 70.8458 1.2C71.1978 1.232 71.5338 1.296 71.8538 1.392C72.2058 1.456 72.5258 1.6 72.8138 1.824C73.0378 2.144 73.3098 2.432 73.6298 2.688C73.9498 2.912 74.2538 3.152 74.5418 3.408C74.8618 3.632 75.1338 3.904 75.3578 4.224C75.6138 4.512 75.7578 4.864 75.7898 5.28C76.3658 5.728 76.7658 6.32 76.9898 7.056C77.2138 7.76 77.3578 8.464 77.4218 9.168C77.5178 9.744 77.5818 10.384 77.6138 11.088C77.6458 11.76 77.5818 12.416 77.4218 13.056C77.2938 13.664 77.0378 14.224 76.6538 14.736C76.2698 15.216 75.7258 15.552 75.0218 15.744C74.8298 15.808 74.6218 15.792 74.3978 15.696C74.1738 15.6 74.0138 15.456 73.9178 15.264C73.7258 15.04 73.6298 14.768 73.6298 14.448C73.4698 14.448 73.3098 14.4 73.1498 14.304C72.9898 14.176 72.8778 14.032 72.8138 13.872C72.5578 13.488 72.4138 13.088 72.3818 12.672C72.3498 12.256 72.3018 11.824 72.2378 11.376C72.2378 11.536 72.2218 11.568 72.1898 11.472C72.1898 11.376 72.1738 11.296 72.1418 11.232C71.6938 11.072 71.4538 10.8 71.4218 10.416C71.3898 10.032 71.3418 9.648 71.2778 9.264C71.0218 9.616 70.6858 9.904 70.2698 10.128C69.8538 10.32 69.4218 10.24 68.9738 9.888C68.8458 9.824 68.7178 9.728 68.5898 9.6C68.4938 9.44 68.4298 9.296 68.3978 9.168C68.3978 9.168 68.3818 9.152 68.3498 9.12C68.3498 9.088 68.3498 9.056 68.3498 9.024C67.9338 9.056 67.6138 9.2 67.3898 9.456C67.1658 9.68 66.9418 9.936 66.7178 10.224C66.5578 11.856 66.4938 13.472 66.5258 15.072C66.5578 16.64 66.6218 18.24 66.7178 19.872C66.7178 20.224 66.6218 20.496 66.4297 20.688C66.2378 20.848 66.0138 20.928 65.7578 20.928C65.5338 20.928 65.3098 20.864 65.0858 20.736C64.8938 20.576 64.7978 20.32 64.7978 19.968C64.7338 18.944 64.6698 17.936 64.6058 16.944C64.5738 15.952 64.5738 14.944 64.6058 13.92C64.4458 14.4 64.1578 14.8 63.7418 15.12C63.4858 15.376 63.1818 15.472 62.8298 15.408C62.5098 15.312 62.2858 15.088 62.1578 14.736C61.9018 14.096 61.7418 13.44 61.6777 12.768C61.6458 12.096 61.6458 11.424 61.6777 10.752C61.7098 10.08 61.7578 9.408 61.8218 8.736C61.9178 8.064 61.9658 7.392 61.9658 6.72ZM68.5418 11.856C68.7018 11.472 68.8138 11.024 68.8778 10.512C68.9418 10.512 68.9898 10.528 69.0218 10.56C69.0538 10.56 69.1018 10.56 69.1658 10.56V10.8C69.1658 11.056 69.2458 11.264 69.4058 11.424C69.5978 11.552 69.8058 11.632 70.0298 11.664C70.2858 11.696 70.5098 11.648 70.7018 11.52C70.8938 11.392 71.0218 11.2 71.0858 10.944C71.1178 10.816 71.1338 10.656 71.1338 10.464C71.1658 10.272 71.1978 10.08 71.2298 9.888V28.464C71.1658 28.336 71.0378 28.224 70.8458 28.128C70.6858 28 70.5258 27.936 70.3658 27.936C69.9178 27.872 69.5498 27.936 69.2618 28.128C68.9738 28.288 68.7338 28.512 68.5418 28.8V11.856ZM71.2298 28.704C71.2618 28.736 71.2938 28.768 71.3258 28.8C71.3578 28.8 71.3898 28.816 71.4218 28.848C71.7738 28.848 72.0618 28.992 72.2858 29.28C72.5098 29.568 72.5258 29.904 72.3338 30.288C72.2698 30.352 72.1578 30.512 71.9978 30.768C71.8698 30.992 71.7258 31.184 71.5658 31.344L71.5178 31.392C71.5498 31.776 71.5658 32.16 71.5658 32.544C71.5978 32.896 71.5978 33.264 71.5658 33.648C71.5658 34 71.4538 34.256 71.2298 34.416C71.0378 34.576 70.8138 34.656 70.5578 34.656C70.3338 34.656 70.1258 34.576 69.9338 34.416C69.7418 34.256 69.6458 34 69.6458 33.648C69.6458 33.36 69.6458 33.072 69.6458 32.784C69.6458 32.496 69.6298 32.208 69.5978 31.92C69.5338 31.92 69.4858 31.936 69.4538 31.968C69.4218 31.968 69.3738 31.968 69.3098 31.968C69.0858 32.032 68.8618 32.016 68.6378 31.92C68.4138 31.792 68.2538 31.616 68.1578 31.392C67.9658 30.976 67.9338 30.544 68.0618 30.096C68.2218 29.648 68.4618 29.28 68.7818 28.992C69.1338 28.672 69.5338 28.48 69.9818 28.416C70.4298 28.32 70.8458 28.416 71.2298 28.704Z" fill="#1AC22B"/>
</svg>
