<svg width="480" height="480" viewBox="0 0 480 480" fill="none" xmlns="http://www.w3.org/2000/svg">
<path d="M189.998 133.24C213.812 133.24 233.118 113.935 233.118 90.12C233.118 66.3055 213.812 47 189.998 47C166.183 47 146.878 66.3055 146.878 90.12C146.878 113.935 166.183 133.24 189.998 133.24Z" fill="#98673D"/>
<path d="M317.608 133.24C341.423 133.24 360.728 113.935 360.728 90.12C360.728 66.3055 341.423 47 317.608 47C293.794 47 274.488 66.3055 274.488 90.12C274.488 113.935 293.794 133.24 317.608 133.24Z" fill="#98673D"/>
<path opacity="0.1" d="M307.118 133.24C325.145 133.24 339.758 116.513 339.758 95.88C339.758 75.2466 325.145 58.52 307.118 58.52C289.091 58.52 274.478 75.2466 274.478 95.88C274.478 116.513 289.091 133.24 307.118 133.24Z" fill="black"/>
<path opacity="0.1" d="M200.488 133.24C218.515 133.24 233.128 116.513 233.128 95.88C233.128 75.2466 218.515 58.52 200.488 58.52C182.462 58.52 167.848 75.2466 167.848 95.88C167.848 116.513 182.462 133.24 200.488 133.24Z" fill="black"/>
<path d="M407.368 265.85C406.128 279.27 395.368 292.37 381.888 292.45C375.888 292.45 370.218 290.1 364.888 287.37C360.268 285 355.708 282.26 352.358 278.29C351.868 277.71 351.418 277.12 350.988 276.51C345.648 268.93 344.528 258.87 339.878 250.71C331.528 236.04 313.688 230.1 297.268 226.19C279.953 222.061 262.432 218.849 244.778 216.57C232.778 215.01 220.588 213.89 208.568 215.37C182.988 218.52 159.888 233.2 134.418 236.56C133.558 236.67 132.698 236.77 131.828 236.86C123.828 237.66 115.718 237.26 107.698 238C94.3482 239.23 81.2082 243.63 67.8282 242.72C54.4482 241.81 39.9982 233.09 39.0482 219.72C38.3782 210.3 44.7782 201.49 52.8782 196.64C60.9782 191.79 70.5482 190.14 79.8782 188.79C104.648 185.2 130.078 182.92 152.878 172.68C161.038 169.02 168.778 164.37 177.208 161.39C180.958 160.042 184.856 159.146 188.818 158.72C193.778 158.151 198.801 158.793 203.458 160.59L191.458 165.15L308.628 156.88L313.248 156.56C318.798 156.17 324.448 155.78 329.878 157.01C339.218 159.13 346.878 165.83 352.788 173.39C358.698 180.95 363.108 189.54 368.648 197.39C376.438 208.39 386.308 217.75 394.298 228.59C402.288 239.43 408.598 252.44 407.368 265.85Z" fill="#98673D"/>
<path opacity="0.1" d="M352.758 248.59C352.814 257.925 352.236 267.253 351.028 276.51C345.688 268.93 344.568 258.87 339.918 250.71C331.568 236.04 313.728 230.1 297.308 226.19C279.993 222.061 262.472 218.849 244.818 216.57C232.818 215.01 220.628 213.89 208.608 215.37C183.028 218.52 159.928 233.2 134.458 236.56C139.998 197 160.008 171.66 188.908 158.71C204.598 151.71 222.908 148.31 242.998 148.31C267.658 148.31 290.408 149.31 308.738 156.87C335.458 167.87 352.758 192.75 352.758 248.59Z" fill="#98673D"/>
<path d="M347.138 252.58C347.138 273.71 344.608 290.23 339.988 303.13C328.648 334.76 304.798 344.67 275.118 347.65C265.118 348.65 254.508 348.87 243.468 348.87C229.553 348.972 215.697 347.046 202.338 343.15C177.588 335.7 157.278 320.79 146.948 297.53C141.378 285.01 138.708 270.08 139.788 252.58C143.928 185.82 186.208 156.26 243.468 156.26C300.728 156.26 347.138 162.19 347.138 252.58Z" fill="#895D37"/>
<path d="M323.748 273.549C323.748 288.798 321.847 300.72 318.375 310.029C309.853 332.855 291.93 340.006 269.625 342.157C262.11 342.879 254.137 343.037 245.84 343.037C235.383 343.111 224.971 341.721 214.931 338.909C196.332 333.533 181.069 322.773 173.306 305.988C169.12 296.953 167.114 286.178 167.925 273.549C171.037 225.372 202.81 204.04 245.84 204.04C288.871 204.04 323.748 208.319 323.748 273.549Z" fill="#EEDFD2"/>
<path opacity="0.1" d="M253.808 216.54C298.504 216.54 334.738 180.306 334.738 135.61C334.738 90.9136 298.504 54.6801 253.808 54.6801C209.112 54.6801 172.878 90.9136 172.878 135.61C172.878 180.306 209.112 216.54 253.808 216.54Z" fill="black"/>
<path d="M253.808 211.81C298.504 211.81 334.738 175.576 334.738 130.88C334.738 86.1837 298.504 49.9501 253.808 49.9501C209.112 49.9501 172.878 86.1837 172.878 130.88C172.878 175.576 209.112 211.81 253.808 211.81Z" fill="#98673D"/>
<path d="M241.248 109.04C244.838 109.04 247.748 106.13 247.748 102.54C247.748 98.9502 244.838 96.04 241.248 96.04C237.658 96.04 234.748 98.9502 234.748 102.54C234.748 106.13 237.658 109.04 241.248 109.04Z" fill="black"/>
<path d="M266.248 109.04C269.838 109.04 272.748 106.13 272.748 102.54C272.748 98.9502 269.838 96.04 266.248 96.04C262.658 96.04 259.748 98.9502 259.748 102.54C259.748 106.13 262.658 109.04 266.248 109.04Z" fill="black"/>
<path opacity="0.1" d="M253.808 167.85C277.136 167.85 296.048 155.663 296.048 140.63C296.048 125.597 277.136 113.41 253.808 113.41C230.479 113.41 211.568 125.597 211.568 140.63C211.568 155.663 230.479 167.85 253.808 167.85Z" fill="black"/>
<path d="M253.808 166.33C275.833 166.33 293.688 154.824 293.688 140.63C293.688 126.436 275.833 114.93 253.808 114.93C231.783 114.93 213.928 126.436 213.928 140.63C213.928 154.824 231.783 166.33 253.808 166.33Z" fill="#3E2F23"/>
<path opacity="0.1" d="M202.338 343.15C177.588 335.7 157.278 320.79 146.948 297.53C150.441 296.319 154.112 295.701 157.808 295.7C178.918 295.7 196.728 315.73 202.338 343.15Z" fill="black"/>
<path d="M201.818 365.71C201.818 402.08 181.058 431.57 155.448 431.57C138.098 431.57 122.978 418.05 115.028 398.01C111.014 387.717 108.979 376.758 109.028 365.71C109.028 329.33 129.798 299.84 155.408 299.84C178.518 299.84 197.688 323.84 201.198 355.3C201.604 358.755 201.811 362.231 201.818 365.71V365.71Z" fill="#98673D"/>
<path opacity="0.1" d="M201.818 365.71C201.818 402.08 181.058 431.57 155.448 431.57C138.098 431.57 122.978 418.05 115.028 398.01C116.288 371.68 142.888 350.64 175.528 350.64C184.325 350.591 193.056 352.157 201.288 355.26C201.665 358.73 201.842 362.219 201.818 365.71Z" fill="black"/>
<path d="M179.078 451.66C212.519 451.66 239.628 429.574 239.628 402.33C239.628 375.086 212.519 353 179.078 353C145.637 353 118.528 375.086 118.528 402.33C118.528 429.574 145.637 451.66 179.078 451.66Z" fill="#98673D"/>
<path d="M183.648 451.66C214.56 451.66 239.618 430.962 239.618 405.43C239.618 379.898 214.56 359.2 183.648 359.2C152.737 359.2 127.678 379.898 127.678 405.43C127.678 430.962 152.737 451.66 183.648 451.66Z" fill="#98673D"/>
<path opacity="0.1" d="M203.588 399.74C208.973 399.74 213.338 394.287 213.338 387.56C213.338 380.833 208.973 375.38 203.588 375.38C198.203 375.38 193.838 380.833 193.838 387.56C193.838 394.287 198.203 399.74 203.588 399.74Z" fill="black"/>
<path d="M203.588 397.9C208.155 397.9 211.858 393.271 211.858 387.56C211.858 381.849 208.155 377.22 203.588 377.22C199.02 377.22 195.318 381.849 195.318 387.56C195.318 393.271 199.02 397.9 203.588 397.9Z" fill="black"/>
<path opacity="0.1" d="M174.648 408.83C180.309 408.83 184.898 403.936 184.898 397.9C184.898 391.863 180.309 386.97 174.648 386.97C168.987 386.97 164.398 391.863 164.398 397.9C164.398 403.936 168.987 408.83 174.648 408.83Z" fill="black"/>
<path d="M174.648 407.35C179.541 407.35 183.508 403.119 183.508 397.9C183.508 392.681 179.541 388.45 174.648 388.45C169.755 388.45 165.788 392.681 165.788 397.9C165.788 403.119 169.755 407.35 174.648 407.35Z" fill="black"/>
<path opacity="0.1" d="M158.698 431.59C164.735 431.59 169.628 427.614 169.628 422.71C169.628 417.806 164.735 413.83 158.698 413.83C152.662 413.83 147.768 417.806 147.768 422.71C147.768 427.614 152.662 431.59 158.698 431.59Z" fill="black"/>
<path d="M158.698 430.39C163.917 430.39 168.148 426.952 168.148 422.71C168.148 418.468 163.917 415.03 158.698 415.03C153.479 415.03 149.248 418.468 149.248 422.71C149.248 426.952 153.479 430.39 158.698 430.39Z" fill="black"/>
<path opacity="0.1" d="M209.116 440.741C219.526 431.688 224.129 419.937 219.396 414.494C214.663 409.052 202.387 411.978 191.976 421.031C181.566 430.084 176.963 441.835 181.696 447.278C186.429 452.72 198.705 449.794 209.116 440.741Z" fill="black"/>
<path d="M208.552 440.092C218.283 431.63 222.587 420.648 218.166 415.564C213.745 410.48 202.272 413.218 192.541 421.68C182.81 430.142 178.505 441.124 182.926 446.208C187.348 451.292 198.821 448.554 208.552 440.092Z" fill="black"/>
<path opacity="0.1" d="M339.988 303.13C328.648 334.76 304.798 344.67 275.118 347.65C279.918 318.55 298.308 296.88 320.258 296.88C327.313 296.939 334.187 299.116 339.988 303.13V303.13Z" fill="black"/>
<path d="M370.178 365.71C370.264 377.742 367.849 389.66 363.088 400.71C354.888 419.25 340.358 431.57 323.808 431.57C298.198 431.57 277.438 402.08 277.438 365.71C277.433 362.286 277.616 358.864 277.988 355.46C281.458 323.95 300.648 299.84 323.808 299.84C349.418 299.84 370.178 329.33 370.178 365.71Z" fill="#98673D"/>
<path opacity="0.1" d="M363.088 400.56V400.71C354.888 419.25 340.358 431.57 323.808 431.57C298.198 431.57 277.438 402.08 277.438 365.71C277.433 362.286 277.616 358.864 277.988 355.46C285.866 352.646 294.173 351.225 302.538 351.26C335.978 351.26 363.088 373.31 363.088 400.56Z" fill="black"/>
<path d="M300.178 451.66C333.619 451.66 360.728 429.574 360.728 402.33C360.728 375.086 333.619 353 300.178 353C266.737 353 239.628 375.086 239.628 402.33C239.628 429.574 266.737 451.66 300.178 451.66Z" fill="#98673D"/>
<path d="M295.008 451.66C325.593 451.66 350.388 430.962 350.388 405.43C350.388 379.898 325.593 359.2 295.008 359.2C264.422 359.2 239.628 379.898 239.628 405.43C239.628 430.962 264.422 451.66 295.008 451.66Z" fill="#895D37"/>
<path opacity="0.1" d="M275.658 399.97C281.137 399.97 285.578 394.414 285.578 387.56C285.578 380.706 281.137 375.15 275.658 375.15C270.18 375.15 265.738 380.706 265.738 387.56C265.738 394.414 270.18 399.97 275.658 399.97Z" fill="black"/>
<path d="M275.658 397.9C280.226 397.9 283.928 393.271 283.928 387.56C283.928 381.849 280.226 377.22 275.658 377.22C271.091 377.22 267.388 381.849 267.388 387.56C267.388 393.271 271.091 397.9 275.658 397.9Z" fill="black"/>
<path opacity="0.1" d="M304.608 408.83C310.269 408.83 314.858 403.936 314.858 397.9C314.858 391.863 310.269 386.97 304.608 386.97C298.947 386.97 294.358 391.863 294.358 397.9C294.358 403.936 298.947 408.83 304.608 408.83Z" fill="black"/>
<path d="M304.608 407.35C309.501 407.35 313.468 403.119 313.468 397.9C313.468 392.681 309.501 388.45 304.608 388.45C299.715 388.45 295.748 392.681 295.748 397.9C295.748 403.119 299.715 407.35 304.608 407.35Z" fill="black"/>
<path opacity="0.1" d="M320.558 431.59C326.594 431.59 331.488 427.614 331.488 422.71C331.488 417.806 326.594 413.83 320.558 413.83C314.521 413.83 309.628 417.806 309.628 422.71C309.628 427.614 314.521 431.59 320.558 431.59Z" fill="black"/>
<path d="M320.558 430.39C325.777 430.39 330.008 426.952 330.008 422.71C330.008 418.468 325.777 415.03 320.558 415.03C315.339 415.03 311.108 418.468 311.108 422.71C311.108 426.952 315.339 430.39 320.558 430.39Z" fill="black"/>
<path opacity="0.1" d="M297.565 447.413C302.298 441.97 297.696 430.219 287.285 421.166C276.875 412.113 264.599 409.187 259.866 414.63C255.133 420.072 259.735 431.823 270.146 440.876C280.556 449.929 292.832 452.856 297.565 447.413Z" fill="black"/>
<path d="M296.335 446.343C300.757 441.259 296.452 430.277 286.721 421.815C276.99 413.353 265.517 410.615 261.096 415.699C256.675 420.784 260.979 431.765 270.71 440.227C280.441 448.689 291.914 451.428 296.335 446.343Z" fill="black"/>
</svg>
