<svg width="750" height="750" viewBox="0 0 750 750" fill="none" xmlns="http://www.w3.org/2000/svg">
<path d="M404.219 35.6219V354.654C404.219 359.274 402.384 363.706 399.116 366.973C395.849 370.24 391.418 372.075 386.798 372.075C382.177 372.075 377.746 370.24 374.479 366.973C371.211 363.706 369.376 359.274 369.376 354.654V35.6219C369.376 25.9965 377.172 33.4442 386.798 33.4442C391.61 33.4442 391.262 28.1197 394.419 31.2665C397.566 34.4241 404.219 30.8092 404.219 35.6219Z" fill="#A0616A"/>
<path opacity="0.1" d="M404.219 43.7883H369.376V56.8544H404.219V43.7883Z" fill="black"/>
<path opacity="0.1" d="M404.219 85.1644H369.376V98.2306H404.219V85.1644Z" fill="black"/>
<path opacity="0.1" d="M404.219 126.541H369.376V139.607H404.219V126.541Z" fill="black"/>
<path opacity="0.1" d="M404.219 167.917H369.376V180.983H404.219V167.917Z" fill="black"/>
<path opacity="0.1" d="M404.219 209.293H369.376V222.359H404.219V209.293Z" fill="black"/>
<path opacity="0.1" d="M404.219 250.669H369.376V263.735H404.219V250.669Z" fill="black"/>
<path opacity="0.1" d="M404.219 292.045H369.376V305.111H404.219V292.045Z" fill="black"/>
<path opacity="0.1" d="M404.219 333.421H369.376V346.488H404.219V333.421Z" fill="black"/>
<path d="M386.798 38.8885C396.419 38.8885 404.219 36.451 404.219 33.4442C404.219 30.4375 396.419 28 386.798 28C377.176 28 369.376 30.4375 369.376 33.4442C369.376 36.451 377.176 38.8885 386.798 38.8885Z" fill="#A0616A"/>
<path opacity="0.1" d="M386.798 38.8885C396.419 38.8885 404.219 36.451 404.219 33.4442C404.219 30.4375 396.419 28 386.798 28C377.176 28 369.376 30.4375 369.376 33.4442C369.376 36.451 377.176 38.8885 386.798 38.8885Z" fill="black"/>
<path d="M567.478 103.347L365.604 350.386C364.156 352.158 362.374 353.628 360.358 354.711C358.343 355.794 356.133 356.47 353.857 356.699C351.58 356.928 349.281 356.707 347.09 356.047C344.899 355.388 342.859 354.303 341.087 352.855C339.315 351.407 337.846 349.625 336.763 347.609C335.681 345.593 335.006 343.384 334.777 341.107C334.548 338.83 334.77 336.531 335.43 334.34C336.09 332.149 337.175 330.11 338.623 328.338L540.498 81.2996C546.588 73.8463 547.912 84.5465 555.366 90.6372C559.092 93.6825 562.192 89.3391 562.646 93.7739C563.084 98.2101 570.523 99.6206 567.478 103.347Z" fill="#A0616A"/>
<path opacity="0.1" d="M535.33 87.6232L527.062 97.7408L554.043 119.789L562.311 109.671L535.33 87.6232Z" fill="black"/>
<path opacity="0.1" d="M509.149 119.662L500.881 129.78L527.861 151.828L536.129 141.71L509.149 119.662Z" fill="black"/>
<path opacity="0.1" d="M482.967 151.701L474.699 161.819L501.68 183.867L509.947 173.749L482.967 151.701Z" fill="black"/>
<path opacity="0.1" d="M456.785 183.741L448.518 193.858L475.498 215.906L483.766 205.788L456.785 183.741Z" fill="black"/>
<path opacity="0.1" d="M430.604 215.78L422.336 225.897L449.316 247.945L457.584 237.827L430.604 215.78Z" fill="black"/>
<path opacity="0.1" d="M404.422 247.819L396.154 257.937L423.135 279.984L431.403 269.867L404.422 247.819Z" fill="black"/>
<path opacity="0.1" d="M378.24 279.856L369.972 289.974L396.953 312.022L405.22 301.904L378.24 279.856Z" fill="black"/>
<path opacity="0.1" d="M352.059 311.897L343.791 322.015L370.771 344.063L379.039 333.945L352.059 311.897Z" fill="black"/>
<path d="M568.856 101.661C570.759 99.3328 566.262 92.5099 558.811 86.4216C551.361 80.3333 543.779 77.2851 541.876 79.6134C539.974 81.9416 544.471 88.7646 551.921 94.8529C559.372 100.941 566.954 103.989 568.856 101.661Z" fill="#A0616A"/>
<path opacity="0.1" d="M568.856 101.661C570.759 99.3328 566.262 92.5099 558.811 86.4216C551.361 80.3333 543.779 77.2851 541.876 79.6134C539.974 81.9416 544.471 88.7646 551.921 94.8529C559.372 100.941 566.954 103.989 568.856 101.661Z" fill="black"/>
<path d="M565.822 399.297H519.197L519.538 390.575L521.542 339.051L522.544 313.452H197.882L198.394 326.551L199.723 360.708L202.249 425.527L203.936 468.678L206.114 524.492L207.965 572.162L208.499 585.87L208.509 586.034L208.771 592.861L209.446 609.966L209.511 611.872L209.969 623.479L210.045 625.57L210.709 642.436L211.297 657.636L211.504 662.884L211.602 665.269L211.689 667.577C211.677 675.412 213.202 683.173 216.175 690.421C216.955 692.34 217.838 694.216 218.821 696.04C225.998 709.436 237.961 719.634 252.325 724.6C254.221 725.264 256.151 725.828 258.106 726.288C262.669 727.372 267.343 727.917 272.033 727.91H448.382C457.253 727.923 466.017 725.975 474.046 722.205C482.985 717.977 490.758 711.635 496.694 703.727C499.216 700.374 501.377 696.765 503.14 692.958C503.282 692.654 503.424 692.349 503.543 692.044C506.546 685.317 508.274 678.092 508.639 670.735C508.694 669.69 508.726 668.634 508.726 667.577L509.292 653.041L509.989 635.195L510.055 633.42L510.777 614.888H565.822C585.332 614.866 604.036 607.106 617.832 593.311C631.628 579.515 639.388 560.811 639.41 541.301V472.884C639.388 453.374 631.628 434.67 617.832 420.874C604.036 407.079 585.332 399.318 565.822 399.297ZM595.856 541.301C595.846 549.263 592.679 556.897 587.049 562.528C581.418 568.158 573.785 571.325 565.822 571.334H512.486L512.494 571.138L512.994 558.268L513.376 548.447L515.531 493.199L517.493 442.85H565.822C573.785 442.86 581.418 446.027 587.049 451.657C592.679 457.288 595.847 464.921 595.856 472.884L595.856 541.301Z" fill="#D95B53"/>
<path d="M405.246 447.904C408.3 447.904 410.776 445.428 410.776 442.374C410.776 439.319 408.3 436.843 405.246 436.843C402.191 436.843 399.715 439.319 399.715 442.374C399.715 445.428 402.191 447.904 405.246 447.904Z" fill="#D0CDE1"/>
<path d="M422.667 539.367C425.722 539.367 428.198 536.891 428.198 533.837C428.198 530.782 425.722 528.306 422.667 528.306C419.613 528.306 417.137 530.782 417.137 533.837C417.137 536.891 419.613 539.367 422.667 539.367Z" fill="#D0CDE1"/>
<path d="M313.783 562.233C316.837 562.233 319.313 559.757 319.313 556.702C319.313 553.648 316.837 551.172 313.783 551.172C310.728 551.172 308.252 553.648 308.252 556.702C308.252 559.757 310.728 562.233 313.783 562.233Z" fill="#D0CDE1"/>
<path d="M369.314 666.762C372.368 666.762 374.844 664.286 374.844 661.232C374.844 658.177 372.368 655.701 369.314 655.701C366.26 655.701 363.784 658.177 363.784 661.232C363.784 664.286 366.26 666.762 369.314 666.762Z" fill="#D0CDE1"/>
<path d="M245.185 582.921C248.24 582.921 250.716 580.445 250.716 577.391C250.716 574.336 248.24 571.86 245.185 571.86C242.131 571.86 239.655 574.336 239.655 577.391C239.655 580.445 242.131 582.921 245.185 582.921Z" fill="#D0CDE1"/>
<path d="M240.83 476.214C243.884 476.214 246.36 473.738 246.36 470.684C246.36 467.629 243.884 465.153 240.83 465.153C237.776 465.153 235.3 467.629 235.3 470.684C235.3 473.738 237.776 476.214 240.83 476.214Z" fill="#D0CDE1"/>
<path d="M470.577 433.749C473.631 433.749 476.107 431.273 476.107 428.219C476.107 425.164 473.631 422.688 470.577 422.688C467.522 422.688 465.046 425.164 465.046 428.219C465.046 431.273 467.522 433.749 470.577 433.749Z" fill="#D0CDE1"/>
<path d="M297.45 661.318C300.504 661.318 302.98 658.842 302.98 655.787C302.98 652.733 300.504 650.257 297.45 650.257C294.396 650.257 291.92 652.733 291.92 655.787C291.92 658.842 294.396 661.318 297.45 661.318Z" fill="#D0CDE1"/>
<path d="M270.229 410.672C274.369 410.672 277.726 407.316 277.726 403.175C277.726 399.035 274.369 395.678 270.229 395.678C266.088 395.678 262.731 399.035 262.731 403.175C262.731 407.316 266.088 410.672 270.229 410.672Z" fill="#D0CDE1"/>
<path d="M344.271 489.069C348.411 489.069 351.768 485.713 351.768 481.572C351.768 477.432 348.411 474.075 344.271 474.075C340.13 474.075 336.773 477.432 336.773 481.572C336.773 485.713 340.13 489.069 344.271 489.069Z" fill="#D0CDE1"/>
<path d="M440.089 646.952C444.229 646.952 447.586 643.595 447.586 639.455C447.586 635.314 444.229 631.958 440.089 631.958C435.948 631.958 432.592 635.314 432.592 639.455C432.592 643.595 435.948 646.952 440.089 646.952Z" fill="#D0CDE1"/>
<path d="M360.209 333.183C450.063 333.183 522.903 324.348 522.903 313.451C522.903 302.553 450.063 293.719 360.209 293.719C270.355 293.719 197.515 302.553 197.515 313.451C197.515 324.348 270.355 333.183 360.209 333.183Z" fill="#A0616A"/>
<path d="M364.243 109.219C364.243 109.219 369.252 148.324 320.884 161.451C272.516 174.578 260.06 202.946 260.06 202.946C260.06 202.946 208.331 217.139 239.983 249.271C239.983 249.271 166.535 299.951 238.275 320.843C310.015 341.735 503.821 327.597 495.697 288C495.697 288 505.778 269.634 482.412 265.949C482.412 265.949 514.951 221.59 432.798 195.863C432.798 195.863 446.159 182.005 410.415 185.947C410.415 185.947 432.697 95.2687 364.243 109.219Z" fill="#D0CDE1"/>
<path d="M259.223 205.178L259.094 202.027C316.574 199.67 348.137 181.74 364.495 167.114C382.166 151.312 386.375 135.862 386.415 135.707L389.468 136.501C389.297 137.162 385.063 152.871 366.784 169.297C350.045 184.34 317.796 202.776 259.223 205.178Z" fill="#A0616A"/>
<path d="M239.432 251.465L238.731 248.389C238.98 248.333 264.401 242.559 334.521 228.359C382.519 218.639 394.018 208.65 396.601 203.561C397.132 202.712 397.337 201.699 397.18 200.71L400.044 199.39C400.152 199.624 401.049 201.767 399.413 204.989C395.943 211.826 381.976 221.966 335.147 231.45C265.076 245.64 239.68 251.408 239.432 251.465Z" fill="#A0616A"/>
<path d="M271.207 264.452C270.909 264.452 270.691 264.452 270.557 264.451L270.574 261.297C271.667 261.311 385.982 261.454 421.163 223.636C428.639 215.6 432.025 206.296 431.226 195.984L434.37 195.741C435.24 206.969 431.573 217.077 423.471 225.786C388.366 263.519 281.541 264.452 271.207 264.452Z" fill="#A0616A"/>
<path d="M405.098 303.205C404.996 303.205 404.937 303.204 404.921 303.204L404.966 300.05C405.501 300.045 460.064 300.408 481.056 265.142L483.766 266.756C462.45 302.567 408.618 303.205 405.098 303.205Z" fill="#A0616A"/>
<path d="M371.865 107.041C371.865 107.041 376.873 146.147 328.506 159.273C280.138 172.4 267.682 200.769 267.682 200.769C267.682 200.769 215.953 214.962 247.605 247.093C247.605 247.093 174.157 297.773 245.897 318.665C317.636 339.557 511.443 325.419 503.319 285.822C503.319 285.822 513.399 267.456 490.033 263.771C490.033 263.771 522.572 219.412 440.42 193.685C440.42 193.685 453.78 179.827 418.036 183.769C418.036 183.769 440.319 93.0911 371.865 107.041Z" fill="#D0CDE1"/>
<path d="M266.845 203L266.716 199.849C324.196 197.492 355.759 179.562 372.117 164.936C389.788 149.134 393.997 133.684 394.037 133.529L397.09 134.323C396.919 134.984 392.685 150.693 374.406 167.12C357.667 182.163 325.418 200.598 266.845 203Z" fill="#A0616A"/>
<path d="M247.053 249.287L246.353 246.211C246.601 246.155 272.022 240.381 342.142 226.181C390.14 216.461 401.639 206.473 404.223 201.384C404.754 200.534 404.959 199.521 404.801 198.532L407.666 197.212C407.773 197.447 408.67 199.589 407.035 202.811C403.564 209.648 389.598 219.788 342.768 229.272C272.698 243.463 247.302 249.23 247.053 249.287Z" fill="#A0616A"/>
<path d="M278.829 262.275C278.531 262.275 278.313 262.274 278.179 262.273L278.196 259.119C279.288 259.133 393.604 259.276 428.785 221.459C436.261 213.422 439.646 204.119 438.847 193.807L441.992 193.563C442.862 204.791 439.194 214.9 431.092 223.608C395.988 261.341 289.162 262.275 278.829 262.275Z" fill="#A0616A"/>
<path d="M412.72 301.027C412.618 301.027 412.559 301.026 412.543 301.026L412.588 297.872C413.124 297.867 467.686 298.23 488.678 262.965L491.388 264.579C470.072 300.39 416.24 301.027 412.72 301.027Z" fill="#A0616A"/>
</svg>
