<svg width="930" height="930" viewBox="0 0 930 930" fill="none" xmlns="http://www.w3.org/2000/svg">
<path d="M226 296C133.308 491.621 117.721 610.556 162 841.5H770C774.71 840.341 801.888 508.367 684.5 296C628.176 233.775 597.748 198.375 480 163.5C353.515 190.178 295.787 217.259 226 296Z" fill="#F1DD74" stroke="black" stroke-width="2"/>
<path d="M316 222.5H464.5H613M186.5 388L729 402M156.5 493.5H745M140.5 578L768.5 599.5M140.5 691L768.5 707M156.5 781H768.5M234 290L687 302" stroke="#D27D17" stroke-width="6"/>
<path d="M523.003 689H404.304C403.159 652.083 403.751 631.349 433.978 593.507C457.017 573.968 471.228 569.159 503.502 593.507C536.757 631.378 537.533 652.207 523.003 689Z" fill="#4F4B4B" stroke="black"/>
<path d="M366 721L403.5 691H529.5L563.5 721H366Z" fill="#98673D" stroke="black"/>
<path d="M74.4605 309.761C64.4039 301.105 55.3327 316.571 55.3327 316.571" stroke="black" stroke-width="2"/>
<ellipse cx="141.987" cy="287.617" rx="5" ry="28.8842" transform="rotate(39.0033 141.987 287.617)" fill="#C4C4C4"/>
<path d="M105.312 297.346C112.362 306.235 111.194 318.847 102.774 325.525C94.3543 332.204 81.8073 330.471 74.757 321.582C67.7066 312.694 68.8751 300.082 77.2949 293.403C85.7146 286.725 98.2616 288.458 105.312 297.346Z" fill="#EFDF4C" stroke="black"/>
<path d="M150.118 303.142C162.231 307.598 172.116 314.497 178.315 322.024C184.522 329.562 186.973 337.644 184.438 344.536C181.902 351.427 174.798 355.995 165.186 357.713C155.587 359.429 143.587 358.277 131.475 353.822C119.363 349.366 109.477 342.467 103.279 334.94C97.0713 327.402 94.6208 319.319 97.1559 312.428C99.691 305.536 106.795 300.969 116.408 299.25C126.006 297.534 138.006 298.686 150.118 303.142Z" fill="#EFDF4C" stroke="black"/>
<path d="M100.491 329.889L115.376 299.575L121.86 298.899L103.599 333.806L100.491 329.889Z" fill="#3C3939"/>
<path d="M115.892 344.477L138.489 299.749L145.514 300.559L122.201 348.408L115.892 344.477Z" fill="#3C3939"/>
<path d="M135.602 355.647L158.064 305.921L160.549 309.055L142.626 356.458L135.602 355.647Z" fill="#3C3939"/>
<path d="M155.581 358.307L167.641 312.364L171.059 316.673L159.958 357.389L155.581 358.307Z" fill="#3C3939"/>
<path d="M100.491 329.889L115.376 299.575L121.86 298.899L103.599 333.806L100.491 329.889Z" stroke="black"/>
<path d="M115.892 344.477L138.489 299.749L145.514 300.559L122.201 348.408L115.892 344.477Z" stroke="black"/>
<path d="M135.602 355.647L158.064 305.921L160.549 309.055L142.626 356.458L135.602 355.647Z" stroke="black"/>
<path d="M155.581 358.307L167.641 312.364L171.059 316.673L159.958 357.389L155.581 358.307Z" stroke="black"/>
<path d="M90.0236 294.156C91.8885 294.665 97.8869 300.275 94.3737 299.641C93.5743 302.571 86.5893 310.402 84.7244 309.894C82.8596 309.385 83.5744 302.845 84.3738 299.914C85.1732 296.984 88.1588 293.648 90.0236 294.156Z" fill="#3B3939"/>
<path d="M77.3093 308.709C70.6535 297.23 57.0059 308.859 57.0059 308.859" stroke="black" stroke-width="2"/>
<path d="M113.435 344.792C100.959 354.058 121.95 372.219 121.95 372.219" stroke="black" stroke-width="2"/>
<path d="M142.748 356.004C130.272 365.27 151.262 383.431 151.262 383.431" stroke="black" stroke-width="2"/>
<path d="M135.723 355.194C123.247 364.46 144.237 382.621 144.237 382.621" stroke="black" stroke-width="2"/>
<path d="M118.269 346.063C105.793 355.329 126.784 373.49 126.784 373.49" stroke="black" stroke-width="2"/>
<ellipse cx="156.709" cy="293.174" rx="9.15176" ry="34.3227" transform="rotate(61.0438 156.709 293.174)" fill="#ECE6E6"/>
<path d="M601.448 552.471C588.21 551.572 590.223 569.389 590.223 569.389" stroke="black" stroke-width="2"/>
<ellipse cx="642.216" cy="494.262" rx="5" ry="28.8842" transform="rotate(2.16576 642.216 494.262)" fill="#C4C4C4"/>
<path d="M618.696 524.038C629.668 526.924 636.295 537.719 633.56 548.112C630.825 558.505 619.745 564.641 608.773 561.754C597.801 558.867 591.175 548.073 593.909 537.68C596.644 527.287 607.725 521.151 618.696 524.038Z" fill="#EFDF4C" stroke="black"/>
<path d="M658.031 501.813C670.397 498.117 682.445 497.712 691.919 500.02C701.406 502.331 708.213 507.33 710.316 514.366C712.419 521.401 709.472 529.316 702.809 536.455C696.155 543.583 685.861 549.855 673.495 553.551C661.13 557.247 649.082 557.652 639.608 555.344C630.121 553.033 623.314 548.034 621.211 540.998C619.108 533.963 622.055 526.048 628.718 518.909C635.372 511.781 645.666 505.509 658.031 501.813Z" fill="#EFDF4C" stroke="black"/>
<path d="M634.349 552.973L628.087 519.787L632.872 515.359L639.185 554.245L634.349 552.973Z" fill="#3C3939"/>
<path d="M655.422 555.415L646.69 506.069L652.798 502.506L662.827 554.779L655.422 555.415Z" fill="#3C3939"/>
<path d="M677.893 552.538L666.057 499.273L669.925 500.291L684.001 548.975L677.893 552.538Z" fill="#3C3939"/>
<path d="M695.478 542.689L677.585 498.688L682.904 500.087L698.43 539.329L695.478 542.689Z" fill="#3C3939"/>
<path d="M634.349 552.973L628.087 519.787L632.872 515.359L639.185 554.245L634.349 552.973Z" stroke="black"/>
<path d="M655.422 555.415L646.69 506.069L652.798 502.506L662.827 554.779L655.422 555.415Z" stroke="black"/>
<path d="M677.893 552.538L666.057 499.273L669.925 500.291L684.001 548.975L677.893 552.538Z" stroke="black"/>
<path d="M695.478 542.689L677.585 498.688L682.904 500.087L698.43 539.329L695.478 542.689Z" stroke="black"/>
<path d="M604.548 530.651C606.346 529.94 614.51 530.833 611.318 532.432C612.435 535.257 611.54 545.712 609.742 546.423C607.945 547.134 604.595 541.471 603.478 538.646C602.361 535.822 602.751 531.362 604.548 530.651Z" fill="#3B3939"/>
<path d="M603.097 549.92C590.889 544.724 586.938 562.213 586.938 562.213" stroke="black" stroke-width="2"/>
<path d="M653.644 557.14C649.214 572.036 676.902 573.987 676.902 573.987" stroke="black" stroke-width="2"/>
<path d="M683.826 548.539C679.396 563.435 707.084 565.386 707.084 565.386" stroke="black" stroke-width="2"/>
<path d="M677.718 552.103C673.288 566.998 700.976 568.949 700.976 568.949" stroke="black" stroke-width="2"/>
<path d="M658.275 555.259C653.845 570.155 681.533 572.106 681.533 572.106" stroke="black" stroke-width="2"/>
<ellipse cx="657.33" cy="489.884" rx="9.15176" ry="34.3227" transform="rotate(24.2063 657.33 489.884)" fill="#ECE6E6"/>
<path d="M358.251 640.665C366.892 630.617 377.558 644.327 377.558 644.327" stroke="black" stroke-width="2"/>
<ellipse rx="4.99162" ry="27.8953" transform="matrix(-0.67368 0.739023 0.728443 0.685107 290.328 629.593)" fill="#C4C4C4"/>
<path d="M326.95 633.367C321.232 643.186 323.934 655.333 332.863 660.533C341.792 665.733 353.69 662.089 359.408 652.27C365.127 642.451 362.425 630.304 353.496 625.104C344.567 619.904 332.669 623.548 326.95 633.367Z" fill="#EFDF4C" stroke="black"/>
<path d="M284.4 646.072C273.256 652.333 264.564 660.635 259.509 668.973C254.446 677.324 253.082 685.612 256.375 691.948C259.668 698.284 267.083 701.639 276.576 701.812C286.054 701.985 297.497 698.975 308.641 692.714C319.785 686.453 328.477 678.151 333.532 669.813C338.595 661.461 339.959 653.174 336.666 646.838C333.373 640.502 325.958 637.147 316.465 636.974C306.987 636.801 295.544 639.811 284.4 646.072Z" fill="#EFDF4C" stroke="black"/>
<path d="M335.605 664.445L317.494 637.118L311.151 637.474L333.089 668.766L335.605 664.445Z" fill="#3C3939"/>
<path d="M322.538 681.136L295.202 640.915L288.521 642.81L316.932 685.972L322.538 681.136Z" fill="#3C3939"/>
<path d="M304.889 695.16L277.067 650.026L275.054 653.483L298.207 697.055L304.889 695.16Z" fill="#3C3939"/>
<path d="M285.929 700.898L268.615 657.834L265.847 662.587L281.59 700.685L285.929 700.898Z" fill="#3C3939"/>
<path d="M335.605 664.445L317.494 637.118L311.151 637.474L333.089 668.766L335.605 664.445Z" stroke="black"/>
<path d="M322.538 681.136L295.202 640.915L288.521 642.81L316.932 685.972L322.538 681.136Z" stroke="black"/>
<path d="M304.889 695.16L277.067 650.026L275.054 653.483L298.207 697.055L304.889 695.16Z" stroke="black"/>
<path d="M285.929 700.898L268.615 657.834L265.847 662.587L281.59 700.685L285.929 700.898Z" stroke="black"/>
<path d="M341.301 627.838C339.563 628.628 334.465 635.059 337.778 633.887C338.912 636.629 346.621 643.196 348.359 642.406C350.097 641.615 348.599 635.327 347.466 632.585C346.332 629.843 343.038 627.047 341.301 627.838Z" fill="#3B3939"/>
<path d="M355.371 640.082C360.38 627.806 374.991 637.043 374.991 637.043" stroke="black" stroke-width="2"/>
<path d="M324.949 681.059C338.137 688.168 320.114 709.233 320.114 709.233" stroke="black" stroke-width="2"/>
<path d="M298.034 696.63C311.222 703.739 293.199 724.803 293.199 724.803" stroke="black" stroke-width="2"/>
<path d="M304.716 694.735C317.904 701.844 299.881 722.909 299.881 722.909" stroke="black" stroke-width="2"/>
<path d="M320.438 683.061C333.627 690.17 315.604 711.235 315.604 711.235" stroke="black" stroke-width="2"/>
<ellipse rx="9.14301" ry="33.1219" transform="matrix(-0.359746 0.93305 0.937261 0.348628 276.801 637.341)" fill="#ECE6E6"/>
<path d="M706.251 174.665C714.891 164.617 725.557 178.327 725.557 178.327" stroke="black" stroke-width="2"/>
<ellipse rx="4.99162" ry="27.8953" transform="matrix(-0.67368 0.739023 0.728443 0.685107 638.327 163.593)" fill="#C4C4C4"/>
<path d="M674.95 167.367C669.232 177.186 671.933 189.333 680.862 194.533C689.791 199.733 701.69 196.089 707.408 186.27C713.126 176.451 710.425 164.304 701.496 159.104C692.566 153.904 680.668 157.548 674.95 167.367Z" fill="#EFDF4C" stroke="black"/>
<path d="M632.4 180.072C621.256 186.333 612.563 194.635 607.508 202.973C602.445 211.324 601.082 219.612 604.375 225.948C607.668 232.284 615.082 235.639 624.576 235.812C634.054 235.985 645.497 232.975 656.641 226.714C667.785 220.453 676.477 212.151 681.532 203.813C686.595 195.461 687.959 187.174 684.666 180.838C681.373 174.502 673.958 171.147 664.464 170.974C654.986 170.801 643.544 173.811 632.4 180.072Z" fill="#EFDF4C" stroke="black"/>
<path d="M683.605 198.445L665.494 171.118L659.151 171.474L681.088 202.766L683.605 198.445Z" fill="#3C3939"/>
<path d="M670.537 215.136L643.202 174.915L636.52 176.81L664.932 219.972L670.537 215.136Z" fill="#3C3939"/>
<path d="M652.888 229.16L625.066 184.026L623.053 187.483L646.207 231.055L652.888 229.16Z" fill="#3C3939"/>
<path d="M633.928 234.898L616.615 191.834L613.847 196.587L629.59 234.685L633.928 234.898Z" fill="#3C3939"/>
<path d="M683.605 198.445L665.494 171.118L659.151 171.474L681.088 202.766L683.605 198.445Z" stroke="black"/>
<path d="M670.537 215.136L643.202 174.915L636.52 176.81L664.932 219.972L670.537 215.136Z" stroke="black"/>
<path d="M652.888 229.16L625.066 184.026L623.053 187.483L646.207 231.055L652.888 229.16Z" stroke="black"/>
<path d="M633.928 234.898L616.615 191.834L613.847 196.587L629.59 234.685L633.928 234.898Z" stroke="black"/>
<path d="M689.3 161.838C687.563 162.628 682.464 169.059 685.778 167.887C686.911 170.629 694.621 177.196 696.359 176.406C698.096 175.615 696.599 169.327 695.465 166.585C694.332 163.843 691.038 161.047 689.3 161.838Z" fill="#3B3939"/>
<path d="M703.371 174.082C708.38 161.806 722.99 171.043 722.99 171.043" stroke="black" stroke-width="2"/>
<path d="M672.948 215.059C686.136 222.168 668.114 243.233 668.114 243.233" stroke="black" stroke-width="2"/>
<path d="M646.034 230.63C659.222 237.739 641.199 258.803 641.199 258.803" stroke="black" stroke-width="2"/>
<path d="M652.715 228.735C665.903 235.844 647.881 256.909 647.881 256.909" stroke="black" stroke-width="2"/>
<path d="M668.438 217.061C681.626 224.17 663.603 245.235 663.603 245.235" stroke="black" stroke-width="2"/>
<ellipse rx="9.14301" ry="33.1219" transform="matrix(-0.359746 0.93305 0.937261 0.348628 624.801 171.341)" fill="#ECE6E6"/>
<path d="M862.251 639.665C870.891 629.617 881.557 643.327 881.557 643.327" stroke="black" stroke-width="2"/>
<ellipse rx="4.99162" ry="27.8953" transform="matrix(-0.67368 0.739023 0.728443 0.685107 794.327 628.593)" fill="#C4C4C4"/>
<path d="M830.95 632.367C825.232 642.186 827.933 654.333 836.862 659.533C845.791 664.733 857.69 661.089 863.408 651.27C869.126 641.451 866.425 629.304 857.496 624.104C848.566 618.904 836.668 622.548 830.95 632.367Z" fill="#EFDF4C" stroke="black"/>
<path d="M788.4 645.072C777.256 651.333 768.563 659.635 763.508 667.973C758.445 676.324 757.082 684.612 760.375 690.948C763.668 697.284 771.082 700.639 780.576 700.812C790.054 700.985 801.497 697.975 812.641 691.714C823.785 685.453 832.477 677.151 837.532 668.813C842.595 660.461 843.959 652.174 840.666 645.838C837.373 639.502 829.958 636.147 820.464 635.974C810.986 635.801 799.544 638.811 788.4 645.072Z" fill="#EFDF4C" stroke="black"/>
<path d="M839.605 663.445L821.494 636.118L815.151 636.474L837.088 667.766L839.605 663.445Z" fill="#3C3939"/>
<path d="M826.537 680.136L799.202 639.915L792.52 641.81L820.932 684.972L826.537 680.136Z" fill="#3C3939"/>
<path d="M808.888 694.16L781.066 649.026L779.053 652.483L802.207 696.055L808.888 694.16Z" fill="#3C3939"/>
<path d="M789.928 699.898L772.615 656.834L769.847 661.587L785.59 699.685L789.928 699.898Z" fill="#3C3939"/>
<path d="M839.605 663.445L821.494 636.118L815.151 636.474L837.088 667.766L839.605 663.445Z" stroke="black"/>
<path d="M826.537 680.136L799.202 639.915L792.52 641.81L820.932 684.972L826.537 680.136Z" stroke="black"/>
<path d="M808.888 694.16L781.066 649.026L779.053 652.483L802.207 696.055L808.888 694.16Z" stroke="black"/>
<path d="M789.928 699.898L772.615 656.834L769.847 661.587L785.59 699.685L789.928 699.898Z" stroke="black"/>
<path d="M845.3 626.838C843.563 627.628 838.464 634.059 841.778 632.887C842.911 635.629 850.621 642.196 852.359 641.406C854.096 640.615 852.599 634.327 851.465 631.585C850.332 628.843 847.038 626.047 845.3 626.838Z" fill="#3B3939"/>
<path d="M859.371 639.082C864.38 626.806 878.99 636.043 878.99 636.043" stroke="black" stroke-width="2"/>
<path d="M828.948 680.059C842.136 687.168 824.114 708.233 824.114 708.233" stroke="black" stroke-width="2"/>
<path d="M802.034 695.63C815.222 702.739 797.199 723.803 797.199 723.803" stroke="black" stroke-width="2"/>
<path d="M808.715 693.735C821.903 700.844 803.881 721.909 803.881 721.909" stroke="black" stroke-width="2"/>
<path d="M824.438 682.061C837.626 689.17 819.603 710.235 819.603 710.235" stroke="black" stroke-width="2"/>
<ellipse rx="9.14301" ry="33.1219" transform="matrix(-0.359746 0.93305 0.937261 0.348628 780.801 636.341)" fill="#ECE6E6"/>
</svg>
