<svg width="1160" height="1028" viewBox="0 0 1160 1028" fill="none" xmlns="http://www.w3.org/2000/svg">
<path d="M1104.5 856.79L1016.89 471.31H984.34C983.04 456.58 982.17 442.31 981.84 428.87C981.84 428.87 863.84 454.69 769.74 379.99C675.64 305.29 565.01 386.45 565.01 386.45L564.58 386.14V385.99V386.18C556.9 380.74 450.92 308.11 360.31 380.05C266.25 454.75 148.21 428.93 148.21 428.93C147.88 442.54 147 456.93 145.67 471.8H115.47L26 858.18C26 858.18 389.7 871.8 517.15 859.24C521.72 868.9 541.42 876.16 565.02 876.16C591.54 876.16 613.11 866.99 613.86 855.56C713.07 863.11 926.55 875.18 1104.5 856.79Z" fill="#FD6767"/>
<path d="M1104.5 856.79L1016.89 471.31H984.34C983.04 456.58 982.17 442.31 981.84 428.87C981.84 428.87 863.84 454.69 769.74 379.99C675.64 305.29 565.01 386.45 565.01 386.45L564.58 386.14V385.99V386.18C556.9 380.74 450.92 308.11 360.31 380.05C266.25 454.75 148.21 428.93 148.21 428.93C147.88 442.54 147 456.93 145.67 471.8H115.47L26 858.18C26 858.18 389.7 871.8 517.15 859.24C521.72 868.9 541.42 876.16 565.02 876.16C591.54 876.16 613.11 866.99 613.86 855.56C713.07 863.11 926.55 875.18 1104.5 856.79Z" fill="url(#paint0_linear)"/>
<path d="M124.84 474.7L37.25 853.04C37.25 853.04 519.42 871.1 558.25 845.82C558.25 845.82 857.58 876.07 1093.25 851.69L1007.47 474.26L124.84 474.7Z" fill="#E2E2EC"/>
<path opacity="0.15" d="M154.64 487.77L72.98 840.5C72.98 840.5 522.52 857.34 558.72 833.77C558.72 833.77 837.79 861.97 1057.51 839.24L977.51 487.35L154.64 487.77Z" fill="black"/>
<path d="M973.16 432.72C973.16 432.72 857.58 458 765.48 384.86C673.38 311.72 565.02 391.18 565.02 391.18C565.02 391.18 456.67 311.72 364.57 384.86C272.47 458 156.89 432.72 156.89 432.72C153.25 579.9 84.6602 818.28 84.6602 818.28C84.6602 818.28 211.07 852.59 378.12 783.07C545.17 713.55 565.03 807.45 565.03 807.45C565.03 807.45 584.89 713.54 751.94 783.07C918.99 852.6 1045.4 818.28 1045.4 818.28C1045.4 818.28 976.77 579.9 973.16 432.72Z" fill="#F1F2FB"/>
<path d="M973.16 432.72C973.16 432.72 857.58 458 765.48 384.86C673.38 311.72 565.02 391.18 565.02 391.18C565.02 391.18 456.67 311.72 364.57 384.86C272.47 458 156.89 432.72 156.89 432.72C153.25 579.9 84.6602 818.28 84.6602 818.28C84.6602 818.28 211.07 852.59 378.12 783.07C545.17 713.55 565.03 807.45 565.03 807.45C565.03 807.45 584.89 713.54 751.94 783.07C918.99 852.6 1045.4 818.28 1045.4 818.28C1045.4 818.28 976.77 579.9 973.16 432.72Z" fill="#F1F2FB"/>
<path opacity="0.1" d="M342 810.18C342 810.18 494.6 775.87 565 826.43C565 826.43 632.72 765.03 789.83 812.89" fill="black"/>
<path d="M565.02 870.65C591.453 870.65 612.88 861.351 612.88 849.88C612.88 838.409 591.453 829.11 565.02 829.11C538.588 829.11 517.16 838.409 517.16 849.88C517.16 861.351 538.588 870.65 565.02 870.65Z" fill="#FD5151"/>
<path d="M565.02 870.65C591.453 870.65 612.88 861.351 612.88 849.88C612.88 838.409 591.453 829.11 565.02 829.11C538.588 829.11 517.16 838.409 517.16 849.88C517.16 861.351 538.588 870.65 565.02 870.65Z" fill="url(#paint1_linear)"/>
<path opacity="0.1" d="M564.57 390.73C564.57 390.73 598.88 565 565.47 810.6Z" fill="black"/>
<path opacity="0.3" d="M189.95 487.35C189.95 487.35 261.82 504.05 324.03 487.35C386.24 470.65 500.46 416.02 538.03 487.35" stroke="black" stroke-width="4" stroke-miterlimit="10"/>
<path opacity="0.3" d="M189.95 518.05C189.95 518.05 261.82 534.75 324.03 518.05C386.24 501.35 520.94 502.25 538.03 518.05" stroke="black" stroke-width="4" stroke-miterlimit="10"/>
<path opacity="0.3" d="M189.95 572.18C189.95 572.18 261.82 588.88 324.03 572.18C386.24 555.48 500.46 500.85 538.03 572.18" stroke="black" stroke-width="4" stroke-miterlimit="10"/>
<path opacity="0.3" d="M189.95 602.92C189.95 602.92 261.82 619.62 324.03 602.92C386.24 586.22 520.94 587.12 538.03 602.92" stroke="black" stroke-width="4" stroke-miterlimit="10"/>
<path opacity="0.3" d="M940.1 487.35C940.1 487.35 868.23 504.05 806.02 487.35C743.81 470.65 629.59 416.02 592.02 487.35" stroke="black" stroke-width="4" stroke-miterlimit="10"/>
<path opacity="0.3" d="M940.1 518.05C940.1 518.05 868.23 534.75 806.02 518.05C743.81 501.35 609.11 502.25 592.02 518.05" stroke="black" stroke-width="4" stroke-miterlimit="10"/>
<path opacity="0.3" d="M940.1 572.18C940.1 572.18 868.23 588.88 806.02 572.18C743.81 555.48 629.59 500.85 592.02 572.18" stroke="black" stroke-width="4" stroke-miterlimit="10"/>
<path opacity="0.3" d="M940.1 602.92C940.1 602.92 868.23 619.62 806.02 602.92C743.81 586.22 609.11 587.12 592.02 602.92" stroke="black" stroke-width="4" stroke-miterlimit="10"/>
<defs>
<linearGradient id="paint0_linear" x1="565.25" y1="348.386" x2="565.25" y2="876.16" gradientUnits="userSpaceOnUse">
<stop offset="0.166667" stop-color="white"/>
<stop offset="1" stop-color="white" stop-opacity="0"/>
</linearGradient>
<linearGradient id="paint1_linear" x1="565.02" y1="829.11" x2="565.02" y2="870.65" gradientUnits="userSpaceOnUse">
<stop stop-color="white"/>
<stop offset="0.364583" stop-color="white" stop-opacity="0.9375"/>
<stop offset="1" stop-color="white" stop-opacity="0"/>
</linearGradient>
</defs>
</svg>
