<?xml version="1.0" encoding="UTF-8" standalone="no"?> <!-- Created with Vectornator for iOS (http://vectornator.io/) --><!DOCTYPE svg PUBLIC "-//W3C//DTD SVG 1.1//EN" "http://www.w3.org/Graphics/SVG/1.1/DTD/svg11.dtd">
<svg height="100%" style="fill-rule:nonzero;clip-rule:evenodd;stroke-linecap:round;stroke-linejoin:round;" xmlns:xlink="http://www.w3.org/1999/xlink" xmlns="http://www.w3.org/2000/svg" xml:space="preserve" width="100%" xmlns:vectornator="http://vectornator.io" version="1.1" viewBox="0 0 512 512">
<metadata>
<vectornator:setting key="DimensionsVisible" value="1"/>
<vectornator:setting key="GuidesVisible" value="1"/>
<vectornator:setting key="SnapToEdges" value="0"/>
<vectornator:setting key="DisplayWhiteBackground" value="0"/>
<vectornator:setting key="RulersVisible" value="1"/>
<vectornator:setting key="CMYKEnabledKey" value="0"/>
<vectornator:setting key="SnapToGuides" value="1"/>
<vectornator:setting key="SnapToGrid" value="0"/>
<vectornator:setting key="Units" value="Pixels"/>
<vectornator:setting key="IsolateActiveLayer" value="0"/>
<vectornator:setting key="OutlineMode" value="0"/>
<vectornator:setting key="TimeLapseWatermarkDisabled" value="0"/>
<vectornator:setting key="SnapToPoints" value="0"/>
<vectornator:setting key="DynamicGuides" value="0"/>
<vectornator:setting key="PencilOnly" value="0"/>
<vectornator:setting key="doHistoryDisabled" value="0"/>
</metadata>
<defs/>
<g id="Ebene 1" vectornator:layerName="Ebene 1">
<path d="M348.763+263.669L348.763+263.669C357.577+263.669+374.44+272.031+374.44+280.201L362.919+320.402L362.514+352.862C362.514+356.135+379.299+358.162+384.168+365.99C389.037+373.819+354.787+366.884+349.504+366.884L348.159+368.984C339.344+368.984+343.742+357.058+336.674+341.377C329.607+325.697+332.803+278.462+332.803+278.462C332.803+270.292+339.948+263.669+348.763+263.669Z" opacity="1" fill="#7a572c"/>
<path d="M143.648+273.117C152.462+273.117+184.009+269.281+184.009+277.451L166.666+299.279L158.904+315.005L140.57+328.946C140.57+328.946+134.599+353.325+139.911+355.981C143.01+357.531+150.384+362.887+151.031+364.129C153.321+368.522+137.216+366.971+133.097+366.971L127.762+367.445C118.948+367.445+124.339+351.22+117.272+335.54C115.491+331.588+114.084+323.906+116.265+317.254C122.738+297.511+143.648+273.117+143.648+273.117Z" opacity="1" fill="#7a572c"/>
<path d="M128.241+213.871C147.397+205.282+154.69+206.567+171.477+206.216C186.075+205.91+209.587+203.136+232.477+207.078C282.685+215.725+312.02+196.183+327.873+196.757C343.727+197.331+358.557+142.364+358.557+142.364C358.557+142.364+415.633+136.541+416.436+152.734C416.952+163.132+409.066+165.872+411.309+173.722C411.935+175.912+409.069+185.792+409.025+187.347C408.546+204.016+386.108+269.801+373.898+290.201C358.172+316.477+328.803+330.664+272.923+305.264C270.053+303.96+233.286+299.18+230.245+298.011C206.229+288.78+184.516+283.489+168.09+287.762C142.113+294.517+127.929+316.258+127.929+316.258C127.929+316.258+111.697+318.443+101.708+293.471C91.2709+267.378+92.4277+229.928+128.241+213.871Z" opacity="1" fill="#f5a138"/>
<path d="M371.839+266.102C372.864+266.833+371.906+263.783+375.341+270.469C376.838+273.381+379.881+292.71+372.023+294.993C371.061+295.272+367.527+302.164+361.695+306.538C355.861+310.913+347.729+312.771+345.952+314.86C343.545+317.69+317.745+313.756+314.45+314.419C305.672+316.185+355.011+291.734+353.918+290.954C352.05+289.621+358.676+286.783+364.271+281.992C369.867+277.201+369.971+264.77+371.839+266.102Z" opacity="1" fill="#c88f47"/>
<path d="M385.453+101.145L390.79+102.876C411.823+102.876+420.074+120.936+420.074+141.969L415.393+156.623L411.19+163.376L407.144+169.877C407.144+171.936+406.253+173.687+404.784+175.161C400.389+179.573+390.82+181.502+384.481+181.761C371.3+182.298+361.507+170.217+361.507+157.404L352.563+137.642C352.563+116.609+364.42+101.145+385.453+101.145Z" opacity="1" fill="#5153da"/>
<path d="M339.869+117.734L357.578+103.015C364.401+101.347+372.893+102.409+368.192+106.958C364.598+110.436+359.667+120.113+357.578+122.576C353.966+126.834+353.197+127.174+353.635+132.735C354.693+146.141+354.583+139.517+354.583+139.517C354.583+148.838+357.179+178.754+343.908+180.485C343.908+180.485+333.666+173.705+330.348+171.109C328.417+169.597+323.135+138.796+323.135+138.796C323.135+129.474+330.547+117.734+339.869+117.734Z" opacity="1" fill="#2a2cc8"/>
<path d="M439.309+129.551L419.141+107.412C413.949+108.626+403.711+106.503+408.412+111.052C412.006+114.53+410.029+115.838+415.35+120.301C420.051+124.244+420.506+131.254+420.506+134.555L422.022+143.611C422.022+146.067+420.533+150.576+420.082+155.753C419.799+159.002+419.925+162.513+421.084+165.945C425.089+177.809+422.629+172.767+432.03+180.045C439.391+185.744+440.835+183.472+444.884+180.669C446.843+179.313+445.174+176.049+446.256+175.203C448.188+173.691+452.197+154.267+452.197+154.267C452.197+144.946+448.63+129.551+439.309+129.551Z" opacity="1" fill="#2b2dc9"/>
<path d="M312.764+261.902L312.764+261.902C321.578+261.902+338.441+270.264+338.441+278.434L326.92+318.635L326.515+351.095C326.515+354.368+343.3+356.395+348.169+364.224C353.038+372.052+319.302+366.443+314.019+366.443L312.16+367.217C303.345+367.217+307.743+355.291+300.675+339.61C293.608+323.93+296.804+276.696+296.804+276.696C296.804+268.525+303.949+261.902+312.764+261.902Z" opacity="1" fill="#b87e37"/>
<path d="M117.181+275.508C125.996+275.508+156.745+277.449+156.745+285.619L140.2+301.67L132.437+317.396L119.261+331.51C119.261+331.51+112.273+355.955+117.585+358.611C120.684+360.16+123.918+365.278+124.565+366.52C126.854+370.913+110.75+369.362+106.631+369.362L101.296+369.836C92.4811+369.836+103.978+355.014+96.9106+339.333C95.1296+335.382+94.171+326.428+96.3519+319.776C98.3791+313.593+97.8489+310.317+100.257+301.444C102.004+295.005+94.5081+269.978+97.1794+266.277C102.58+258.793+117.181+275.508+117.181+275.508Z" opacity="1" fill="#b87e37"/>
<path d="M137.323+209.578C137.323+209.578+127.542+216.671+119.479+220.428C113.571+223.182+108.244+224.785+104.553+230.046L83.2092+268.351C78.9676+274.398+72.9909+287.103+71.1612+292.444C69.2259+298.092+57.3514+339.775+54.9331+338.078C54.9331+338.078+64.8474+288.106+73.5752+275.663L103.355+217.432C112.083+204.989+132.619+206.278+137.323+209.578Z" opacity="1" fill="#2b2dc9"/>
<path stroke="#1c1c1c" stroke-width="0.51" d="M359.139+127.631C361.713+123.756+364.221+123.814+365.739+122.539C367.257+121.265+375.576+126.26+375.576+130.463C375.576+134.666+374.366+133.795+366.289+133.795C358.213+133.795+356.744+131.239+359.139+127.631Z" fill="#302f2f" stroke-linecap="round" opacity="0.786822" stroke-linejoin="round"/>
<path stroke="#1c1c1c" stroke-width="0.509673" d="M399.524+130.128C402.097+126.306+404.606+126.363+406.124+125.106C407.642+123.849+415.961+128.776+415.961+132.921C415.961+137.066+414.751+136.207+406.674+136.207C398.598+136.207+397.129+133.686+399.524+130.128Z" fill="#302f2f" stroke-linecap="round" opacity="0.786822" stroke-linejoin="round"/>
<path d="M367.875+123.208L367.875+123.208C370.854+123.208+373.268+125.37+373.268+128.038L373.268+128.445C373.268+131.113+370.854+133.276+367.875+133.276L367.875+133.276C364.897+133.276+362.483+131.113+362.483+128.445L362.483+128.038C362.483+125.37+364.897+123.208+367.875+123.208Z" opacity="1" fill="#000000"/>
<path d="M407.856+125.864L407.856+125.864C404.877+125.864+402.463+128.027+402.463+130.695L402.463+131.102C402.463+133.77+404.877+135.933+407.856+135.933L407.856+135.933C410.834+135.933+413.248+133.77+413.248+131.102L413.248+130.695C413.248+128.027+410.834+125.864+407.856+125.864Z" opacity="1" fill="#000000"/>
<path d="M368.097+124.775L368.171+124.775C369.033+124.775+369.731+125.622+369.731+126.666L369.731+126.666C369.731+127.71+369.033+128.557+368.171+128.557L368.097+128.557C367.235+128.557+366.536+127.71+366.536+126.666L366.536+126.666C366.536+125.622+367.235+124.775+368.097+124.775Z" opacity="1" fill="#968e8e"/>
<path d="M408.688+126.8L408.613+126.8C407.751+126.8+407.053+127.646+407.053+128.691L407.053+128.691C407.053+129.735+407.751+130.582+408.613+130.582L408.688+130.582C409.549+130.582+410.248+129.735+410.248+128.691L410.248+128.691C410.248+127.646+409.549+126.8+408.688+126.8Z" opacity="1" fill="#968e8e"/>
<path d="M373.932+123.689C373.296+120.714+374.423+118.411+376.449+118.546C378.475+118.681+380.633+121.202+381.269+124.177C381.905+127.153+380.778+129.455+378.752+129.32C376.726+129.185+374.568+126.664+373.932+123.689Z" opacity="1" fill="#c88f47"/>
<path d="M395.139+122.613C396.665+119.605+399.003+117.941+400.361+118.897C401.719+119.853+401.582+123.067+400.056+126.075C398.529+129.083+396.192+130.747+394.834+129.791C393.476+128.834+393.613+125.621+395.139+122.613Z" opacity="1" fill="#c88f47"/>
<path d="M366.431+169.339C366.431+167.968+356.652+157.827+360.609+149.615C362.332+146.037+369.3+146.14+374.838+144.055C379.763+142.201+378.437+153.332+385.809+157.123C387.615+158.051+392.502+144.196+398.775+143.227C403.024+142.571+407.66+150.994+410.476+152.835C417.979+157.739+401.817+173.774+401.817+175.237C401.817+177.738+390.857+180.292+382.65+180.292C374.442+180.292+366.431+171.84+366.431+169.339Z" opacity="1" fill="#c88f47"/>
<path d="M148.008+296.155C148.008+294.784+145.796+298.085+149.753+289.873C151.476+286.295+167.509+267.585+174.881+271.376C176.686+272.305+204.555+274.439+210.828+273.47C215.076+272.814+228.603+295.013+231.419+296.853C238.921+301.758+188.927+287.199+188.927+288.662C188.927+291.163+176.108+288.128+167.901+288.128C159.693+288.128+148.008+298.656+148.008+296.155Z" opacity="1" fill="#c88f47"/>
<path d="M153.524+270.748C154.282+271.401+162.159+271.163+165.109+277.658C166.394+280.488+152.013+296.97+146.961+299.994C145.723+300.735+133.586+314.971+131.605+319.538C130.262+322.632+121.818+324.059+119.671+325.027C113.951+327.607+142.054+301.798+141.245+301.102C139.864+299.913+146.683+292.963+149.977+287.589C153.27+282.216+152.142+269.559+153.524+270.748Z" opacity="1" fill="#c88f47"/>
<path d="M159.108+292.564C159.866+293.147+165.649+286.857+168.599+292.665C169.884+295.196+158.993+313.344+153.941+316.048C152.703+316.711+133.935+335.347+131.954+339.431C130.611+342.198+127.402+340.234+125.255+341.1C119.535+343.408+135.903+320.161+135.095+319.538C133.713+318.475+147.506+308.638+150.8+303.833C154.093+299.028+157.726+291.5+159.108+292.564Z" opacity="1" fill="#956d3b"/>
<path d="M384.027+153.598L386.285+153.333C392.263+153.333+400.364+155.989+394.918+161.568C389.473+167.146+392.662+166.881+386.683+166.881L384.558+167.014C378.579+167.014+380.308+166.748+374.729+160.97L374.729+160.439C374.729+154.46+378.048+153.598+384.027+153.598Z" opacity="0.98062" fill="#241a16"/>
<path d="M369.428+172.125C369.428+170.635+376.489+174.261+380.427+173.423C383.185+172.837+383.919+165.981+388.983+170.481C395.732+176.479+402.252+169.592+402.252+172.125C402.252+174.658+394.904+176.711+385.84+176.711C376.776+176.711+369.428+174.658+369.428+172.125Z" opacity="1" fill="#302f2f"/>
<path d="M348.337+206.396C340.253+199.52+336.503+192.99+337.818+190.217C340.554+184.448+341.31+190.024+350.812+198.406C358.761+205.418+403.838+208.428+404.174+215.632C404.312+218.587+356.422+213.272+348.337+206.396Z" opacity="0.786822" fill="#ff1b14"/>
</g>
</svg>
