<svg width="806" height="806" viewBox="0 0 806 806" fill="none" xmlns="http://www.w3.org/2000/svg">
<path d="M782 776.285L245.115 790L32 726H364.701L782 776.285Z" fill="#E6E6E6"/>
<path d="M211.84 740.435C211.84 740.435 213.327 709.276 243.812 712.898Z" fill="#3F3D56"/>
<path d="M203.227 710.784C211.653 710.784 218.484 703.953 218.484 695.527C218.484 687.1 211.653 680.27 203.227 680.27C194.801 680.27 187.97 687.1 187.97 695.527C187.97 703.953 194.801 710.784 203.227 710.784Z" fill="#95983D"/>
<path d="M205.051 721.218H200.744V751.365H205.051V721.218Z" fill="#3F3D56"/>
<path d="M714.287 745.758C714.287 745.758 715.774 714.599 746.258 718.221Z" fill="#3F3D56"/>
<path d="M705.673 716.106C714.1 716.106 720.93 709.275 720.93 700.849C720.93 692.423 714.1 685.592 705.673 685.592C697.247 685.592 690.416 692.423 690.416 700.849C690.416 709.275 697.247 716.106 705.673 716.106Z" fill="#95983D"/>
<path d="M707.497 726.541H703.191V756.688H707.497V726.541Z" fill="#3F3D56"/>
<path d="M658 753.83C658 753.83 659.487 722.671 689.971 726.293Z" fill="#3F3D56"/>
<path d="M650.257 710.514C658.683 710.514 665.514 703.683 665.514 695.257C665.514 686.831 658.683 680 650.257 680C641.831 680 635 686.831 635 695.257C635 703.683 641.831 710.514 650.257 710.514Z" fill="#95983D"/>
<path d="M654.307 720H650V750.147H654.307V720Z" fill="#3F3D56"/>
<path d="M332.129 725.532C332.129 725.532 333.616 694.373 364.101 697.995Z" fill="#3F3D56"/>
<path d="M323.516 695.88C331.942 695.88 338.773 689.05 338.773 680.623C338.773 672.197 331.942 665.366 323.516 665.366C315.09 665.366 308.259 672.197 308.259 680.623C308.259 689.05 315.09 695.88 323.516 695.88Z" fill="#95983D"/>
<path d="M325.34 706.315H321.033V736.462H325.34V706.315Z" fill="#3F3D56"/>
<path d="M105.39 730.854C105.39 730.854 106.877 699.696 137.361 703.317Z" fill="#3F3D56"/>
<path d="M96.7764 701.203C105.203 701.203 112.034 694.372 112.034 685.946C112.034 677.519 105.203 670.688 96.7764 670.688C88.3501 670.688 81.5193 677.519 81.5193 685.946C81.5193 694.372 88.3501 701.203 96.7764 701.203Z" fill="#95983D"/>
<path d="M98.6005 711.638H94.2938V741.785H98.6005V711.638Z" fill="#3F3D56"/>
<path d="M474.277 676.71C566.082 676.71 640.505 602.287 640.505 510.482C640.505 418.677 566.082 344.254 474.277 344.254C382.472 344.254 308.049 418.677 308.049 510.482C308.049 602.287 382.472 676.71 474.277 676.71Z" fill="#F5E234"/>
<path d="M369.626 523.826C373.754 518.883 378.918 514.908 384.751 512.18C390.584 509.451 396.946 508.037 403.385 508.037C409.825 508.037 416.187 509.451 422.02 512.18C427.853 514.908 433.017 518.883 437.145 523.826C444.209 517.082 449.092 508.377 451.163 498.833C453.235 489.289 452.401 479.343 448.769 470.278C445.136 461.212 438.872 453.442 430.783 447.969C422.694 442.496 413.152 439.571 403.385 439.571C393.619 439.571 384.077 442.496 375.988 447.969C367.899 453.442 361.635 461.212 358.002 470.278C354.37 479.343 353.536 489.289 355.607 498.833C357.679 508.377 362.562 517.082 369.626 523.826V523.826Z" fill="white"/>
<path d="M501.631 523.826C505.759 518.883 510.922 514.908 516.756 512.179C522.589 509.451 528.95 508.037 535.39 508.037C541.83 508.037 548.191 509.451 554.025 512.179C559.858 514.908 565.021 518.883 569.15 523.826C576.214 517.082 581.096 508.377 583.168 498.833C585.24 489.289 584.406 479.343 580.773 470.278C577.141 461.212 570.876 453.442 562.788 447.969C554.699 442.496 545.156 439.571 535.39 439.571C525.624 439.571 516.081 442.496 507.993 447.969C499.904 453.442 493.64 461.212 490.007 470.278C486.375 479.343 485.54 489.289 487.612 498.833C489.684 508.377 494.567 517.082 501.631 523.826Z" fill="white"/>
<path d="M386.707 488.632C395.996 488.632 403.525 481.102 403.525 471.814C403.525 462.526 395.996 454.996 386.707 454.996C377.419 454.996 369.89 462.526 369.89 471.814C369.89 481.102 377.419 488.632 386.707 488.632Z" fill="#3F3D56"/>
<path d="M518.707 488.632C527.996 488.632 535.525 481.102 535.525 471.814C535.525 462.526 527.996 454.996 518.707 454.996C509.419 454.996 501.89 462.526 501.89 471.814C501.89 481.102 509.419 488.632 518.707 488.632Z" fill="#3F3D56"/>
<path d="M354.495 571.595C365.295 571.595 374.051 562.84 374.051 552.039C374.051 541.238 365.295 532.483 354.495 532.483C343.694 532.483 334.938 541.238 334.938 552.039C334.938 562.84 343.694 571.595 354.495 571.595Z" fill="#FF6584"/>
<path d="M579.392 571.595C590.192 571.595 598.948 562.84 598.948 552.039C598.948 541.238 590.192 532.483 579.392 532.483C568.591 532.483 559.835 541.238 559.835 552.039C559.835 562.84 568.591 571.595 579.392 571.595Z" fill="#FF6584"/>
<path d="M466.943 512.926L452.276 576.484L476.721 552.039L466.943 512.926Z" fill="#FF6584"/>
<path d="M542.307 757.38L525.655 743.404L526.043 757.38H520.871L520.458 742.602L497.975 757.38H488.563L520.29 736.526L519.061 692.737L518.143 659.666L523.302 659.524L524.233 692.737L525.461 736.487L550.348 757.38H542.307Z" fill="#3F3D56"/>
<path d="M464.076 757.38L447.424 743.404L447.812 757.38H442.654L442.24 742.602L419.757 757.38H410.345L442.059 736.526L440.831 692.737L439.913 659.666L445.084 659.524L446.015 692.737L447.23 736.487L472.118 757.38H464.076Z" fill="#3F3D56"/>
<path d="M476.721 332.031C472.16 332.031 468.137 335.574 465.446 341.016C463.075 332.833 458.094 327.142 452.276 327.142C451.881 327.181 451.488 327.247 451.102 327.339C448.866 318.602 443.668 312.475 437.609 312.475C429.508 312.475 422.942 323.419 422.942 336.92C422.942 350.421 429.508 361.366 437.609 361.366C438.004 361.326 438.397 361.26 438.783 361.168C441.019 369.905 446.217 376.033 452.276 376.033C456.837 376.033 460.861 372.49 463.551 367.048C465.922 375.231 470.904 380.922 476.721 380.922C484.822 380.922 491.389 369.977 491.389 356.476C491.389 342.976 484.822 332.031 476.721 332.031Z" fill="#FF6584"/>
<path d="M203.547 354.473L203.549 354.47L199.904 352.953L184.528 346.452L179.016 344.123L178.593 345.19L171.189 363.884L192.026 372.704L192.136 372.803L190.731 376.114C190.539 376.416 190.375 376.736 190.242 377.069C189.258 379.553 191.116 382.023 192.872 382.718C194.628 383.414 196.849 381.965 197.833 379.481C198.803 377.031 197.855 373.919 196.143 373.167L196.145 373.164L192.501 371.647L180.034 366.8L187.157 348.815L186.101 348.397L178.976 366.389L177.434 365.79L184.588 347.728L184.776 347.807L199.43 354.01L199.539 354.109L198.135 357.419C197.943 357.722 197.779 358.042 197.646 358.375C196.662 360.858 198.52 363.329 200.276 364.024C202.032 364.72 204.253 363.271 205.237 360.787C206.207 358.337 205.259 355.225 203.547 354.473Z" fill="white"/>
<path d="M275.667 400.367C268.103 396.043 269.617 386.552 269.617 386.552C269.426 380.387 264.333 381.26 264.333 381.26L262.479 381.683C261.618 381.283 260.669 381.108 259.722 381.173L256.902 381.648C263.324 383.156 262.796 388.528 262.796 388.528L263.696 394.809L246.87 388.021L248.802 383.466C249.069 383.046 249.297 382.602 249.482 382.139C250.848 378.69 248.268 375.259 245.829 374.293C243.39 373.327 240.305 375.34 238.939 378.789C237.591 382.192 238.908 386.514 241.285 387.558L241.283 387.562L246.345 389.67L246.382 389.551L275.667 400.367ZM267.123 389.331L267.662 395.343C265.757 392.67 264.862 389.408 265.137 386.137C265.092 384.973 264.699 383.85 264.01 382.911C265.07 383.591 265.922 384.55 266.471 385.683C267.02 386.816 267.246 388.078 267.123 389.331V389.331Z" fill="white"/>
<path d="M147.319 311.456L147.321 311.452L142.259 309.344L121.105 301.121L126.444 296.37C127.489 294.978 129.031 294.043 130.749 293.762C132.467 293.48 134.227 293.874 135.661 294.86L134.004 292.398C134.004 292.398 130.889 288.274 126.529 292.637C126.529 292.637 121.134 300.59 112.66 298.563L141.601 310.812L141.752 310.95L139.802 315.548C139.535 315.969 139.307 316.413 139.122 316.875C137.756 320.324 140.336 323.755 142.775 324.722C145.214 325.688 148.299 323.674 149.665 320.225C151.013 316.823 149.696 312.5 147.319 311.456Z" fill="#F7F7F7"/>
<path d="M224.766 284.541L222.816 289.14C222.549 289.56 222.321 290.004 222.135 290.467C220.769 293.916 223.349 297.347 225.788 298.313C228.228 299.279 231.313 297.266 232.679 293.817C234.026 290.414 232.709 286.092 230.332 285.048L230.334 285.044L225.273 282.936L207.958 276.205L217.851 251.225L216.385 250.644L206.488 275.633L204.347 274.801L214.282 249.714L214.544 249.825L234.897 258.439L235.049 258.577L233.099 263.175C232.832 263.596 232.604 264.04 232.418 264.502C231.052 267.952 233.632 271.383 236.072 272.349C238.511 273.315 241.596 271.302 242.962 267.852C244.309 264.45 242.992 260.128 240.616 259.083L240.618 259.079L235.556 256.971L214.871 248.227L214.199 247.943L206.544 244.707L195.674 272.155L224.614 284.404L224.766 284.541Z" fill="white"/>
<path d="M133.054 143.972L133.057 143.965L124.344 140.336L87.9277 126.18L97.1188 118.003C97.1188 118.003 103.233 109.52 112.985 115.403L110.133 111.164C110.133 111.164 104.771 104.065 97.2652 111.576C97.2652 111.576 87.9783 125.267 73.3909 121.777L123.21 142.863L123.471 143.1L120.114 151.016C119.655 151.74 119.263 152.505 118.943 153.3C116.591 159.238 121.033 165.145 125.232 166.808C129.431 168.471 134.741 165.005 137.093 159.067C139.412 153.21 137.145 145.77 133.054 143.972Z" fill="white"/>
<path d="M159.794 262.886C141.709 252.546 145.328 229.855 145.328 229.855C144.873 215.115 132.694 217.201 132.694 217.201L128.261 218.213C126.202 217.257 123.935 216.838 121.671 216.994L114.928 218.128C130.281 221.736 129.02 234.579 129.02 234.579L131.171 249.596L90.9416 233.367L95.5605 222.477C96.1989 221.471 96.7435 220.409 97.1875 219.303C100.454 211.056 94.2848 202.853 88.4529 200.543C82.621 198.233 75.2454 203.047 71.9791 211.294C68.7573 219.428 71.9059 229.763 77.5889 232.26L77.5841 232.27L89.6859 237.309L89.776 237.024L159.794 262.886ZM139.365 236.499L140.659 250.923C133.063 240.84 134.616 228.861 134.616 228.861C134.509 226.079 133.57 223.393 131.922 221.15C140.647 226.371 139.365 236.499 139.365 236.499Z" fill="white"/>
</svg>
