<svg width="870" height="870" viewBox="0 0 870 870" fill="none" xmlns="http://www.w3.org/2000/svg">
<g clip-path="url(#clip0)">
<path d="M464.357 601.605C464.051 607.278 462.842 612.783 460.818 617.717C463.229 623.749 464.494 630.545 464.494 637.457C464.494 644.368 463.229 651.165 460.818 657.197C462.572 661.452 463.715 666.145 464.182 671.013L454.022 695.456L464.327 681.183C463.966 686.641 462.769 691.926 460.818 696.678C463.229 702.712 464.494 709.51 464.494 716.424C464.494 723.337 463.229 730.135 460.818 736.169C463.229 742.202 464.494 748.998 464.494 755.91C464.494 762.821 463.229 769.618 460.818 775.65C463.27 781.657 464.538 788.467 464.494 795.385C464.494 813.229 456.604 827.682 446.861 827.682C446.588 827.682 446.322 827.682 446.049 827.682C440.647 827.225 435.231 827.225 429.829 827.682C429.563 827.682 429.282 827.682 429.016 827.682C428.751 827.682 428.477 827.682 428.204 827.682C422.802 827.225 417.386 827.225 411.984 827.682C411.718 827.682 411.437 827.682 411.171 827.682C401.436 827.682 393.539 813.229 393.539 795.385C393.49 788.465 394.761 781.652 397.222 775.65C394.76 769.663 393.481 762.866 393.516 755.958C393.518 753.394 393.688 750.836 394.025 748.316L408.142 760.58L395.399 741.504C395.887 739.663 396.489 737.885 397.199 736.191C394.783 730.159 393.515 723.36 393.515 716.445C393.515 709.53 394.783 702.731 397.199 696.699C394.785 690.669 393.517 683.872 393.517 676.959C393.517 670.046 394.785 663.249 397.199 657.219C394.995 651.858 393.75 645.831 393.569 639.651L417.755 660.651L394.655 626.091C395.252 623.17 396.107 620.364 397.199 617.738C395.545 613.758 394.433 609.383 393.919 604.836C393.649 602.578 393.514 600.292 393.516 598.003C393.467 591.08 394.738 584.263 397.199 578.257C394.738 572.255 393.467 565.442 393.516 558.522C393.516 540.679 401.414 526.215 411.149 526.215C414.393 526.263 417.534 527.827 420.071 530.657C422.591 527.783 425.743 526.213 428.994 526.213C432.245 526.213 435.396 527.783 437.916 530.657C440.453 527.825 443.594 526.262 446.839 526.215C456.581 526.215 464.471 540.679 464.471 558.522C464.52 565.43 463.26 572.232 460.818 578.236C463.27 584.247 464.538 591.06 464.494 597.981C464.471 599.204 464.433 600.415 464.357 601.605Z" fill="#7B4E25"/>
<path opacity="0.1" d="M460.818 578.236C463.27 584.247 464.538 591.06 464.494 597.981C464.494 599.204 464.494 600.415 464.38 601.605C452.635 595.917 441.944 586.633 433.086 574.431C422.256 589.355 408.722 599.86 393.941 604.815C393.671 602.557 393.537 600.271 393.539 597.981C393.49 591.058 394.761 584.242 397.222 578.236C394.761 572.233 393.49 565.421 393.539 558.501C393.539 540.657 401.436 526.193 411.171 526.193C414.41 526.255 417.542 527.826 420.071 530.657C422.591 527.783 425.743 526.213 428.994 526.213C432.245 526.213 435.396 527.783 437.916 530.657C440.453 527.825 443.594 526.262 446.839 526.215C456.581 526.215 464.471 540.679 464.471 558.522C464.52 565.43 463.26 572.232 460.818 578.236V578.236Z" fill="black"/>
<path d="M630.657 442.216L672.794 413.873C664.182 394.421 651.702 378.909 636.884 369.238C637.119 365.635 637.248 361.99 637.248 358.302C637.265 344.222 635.464 330.252 631.933 317.068L579.081 290.478L579.271 289.936L624.012 295.091C615.12 275.727 602.365 260.438 587.328 251.114C587.66 246.854 587.827 242.572 587.829 238.287C587.843 222.736 585.639 207.337 581.344 192.993L556.285 227.713L576.461 179.241C573.108 171.22 569.088 163.782 564.486 157.083L538.44 193.142L557.318 147.784C548.535 137.648 538.364 130.133 527.429 125.701C524.34 109.405 518.779 94.2311 511.126 81.2111C503.472 68.1911 493.905 57.6301 483.075 50.2463L446.474 100.918L470.424 43.3598C459.74 38.9061 448.527 37.4811 437.444 39.1682C426.361 40.8553 415.63 45.6206 405.88 53.1849C396.129 60.7493 387.555 70.9606 380.66 83.2208C373.764 95.481 368.686 109.544 365.723 124.585C350.488 129.924 336.634 141.161 325.751 157.009L355.115 196.086L318.78 168.529C308.078 188.695 302.312 213.157 302.34 238.277C302.34 239.934 302.34 241.582 302.423 243.229C283.015 248.407 265.542 263.033 253.103 284.516L276.878 316.154L248.022 294.262C239.111 313.301 234.376 335.574 234.4 358.334C234.4 359.694 234.4 361.044 234.46 362.394C221.229 367.403 209.081 376.892 199.089 390.025L230.899 432.343L191.07 402.14C179.114 422.913 172.607 448.795 172.633 475.469C172.633 477.127 172.633 478.774 172.717 480.421L212.371 533.176L175.298 505.151C179.02 525.087 186.431 543.296 196.785 557.945C207.138 572.594 220.068 583.163 234.271 588.588C248.474 594.014 263.448 594.103 277.684 588.846C291.919 583.59 304.913 573.175 315.355 558.65C330.981 580.391 352.103 592.633 374.137 592.721C396.171 592.808 417.342 580.734 433.056 559.117C448.081 579.768 468.116 591.734 489.165 592.63C510.214 593.526 530.732 583.287 546.626 563.953C560.919 581.328 578.997 591.414 597.912 592.564C616.827 593.714 635.462 585.861 650.778 570.286C666.094 554.711 677.187 532.332 682.249 506.8C687.31 481.268 686.041 454.09 678.649 429.697L630.657 442.216Z" fill="#027F1F"/>
<path opacity="0.1" d="M644.439 483.004C626.716 495.587 605.476 485.693 586.766 476.319C562.284 464.045 537.263 452.801 511.369 449.358C485.475 445.914 458.396 450.75 435.866 468.933C422.41 479.794 410.807 495.162 396.516 503.717C356.231 527.851 308.9 491.41 266.467 506.703C241.5 515.694 222.546 540.625 204.048 566.981C220.099 584.962 240.318 594.045 260.848 592.499C281.378 590.952 300.783 578.884 315.363 558.596C330.989 580.338 352.11 592.58 374.144 592.668C396.179 592.755 417.349 580.681 433.064 559.064C448.084 579.719 468.114 591.693 489.161 592.599C510.209 593.505 530.727 583.277 546.626 563.953C558.751 578.692 573.65 588.24 589.545 591.459C605.44 594.678 621.661 591.431 636.275 582.106C650.888 572.78 663.277 557.77 671.964 538.865C680.651 519.96 685.27 497.957 685.27 475.48C685.268 468.214 684.788 460.964 683.835 453.821C676.11 455.634 668.736 459.665 662.178 465.66C656.171 471.229 650.886 478.423 644.439 483.004Z" fill="black"/>
<path opacity="0.1" d="M373.029 126.646C390.494 132.3 407.633 141.62 421.491 157.466C435.349 173.311 445.631 196.373 446.861 221.4" fill="black"/>
<path opacity="0.1" d="M484.358 338.301C490.896 314.974 499.971 292.604 513.214 275.674C526.457 258.745 544.211 247.905 562.056 249.818" fill="black"/>
<path opacity="0.1" d="M257.993 360.406C275.83 362.447 293.782 368.164 309.144 381.034C324.505 393.904 337.073 414.574 340.9 439.06" fill="black"/>
<path d="M355.168 213.26C361.992 213.26 367.523 205.518 367.523 195.969C367.523 186.42 361.992 178.678 355.168 178.678C348.345 178.678 342.813 186.42 342.813 195.969C342.813 205.518 348.345 213.26 355.168 213.26Z" fill="#FF6F61"/>
<path d="M367.523 139.293C374.347 139.293 379.878 131.552 379.878 122.002C379.878 112.453 374.347 104.712 367.523 104.712C360.7 104.712 355.168 112.453 355.168 122.002C355.168 131.552 360.7 139.293 367.523 139.293Z" fill="#FF6F61"/>
<path d="M302.317 255.514C309.14 255.514 314.672 247.773 314.672 238.223C314.672 228.674 309.14 220.933 302.317 220.933C295.493 220.933 289.962 228.674 289.962 238.223C289.962 247.773 295.493 255.514 302.317 255.514Z" fill="#FF6F61"/>
<path d="M527.437 139.293C534.26 139.293 539.792 131.552 539.792 122.002C539.792 112.453 534.26 104.712 527.437 104.712C520.614 104.712 515.082 112.453 515.082 122.002C515.082 131.552 520.614 139.293 527.437 139.293Z" fill="#FF6F61"/>
<path d="M580.964 213.26C587.788 213.26 593.319 205.518 593.319 195.969C593.319 186.42 587.788 178.678 580.964 178.678C574.141 178.678 568.61 186.42 568.61 195.969C568.61 205.518 574.141 213.26 580.964 213.26Z" fill="#FF6F61"/>
<path d="M631.758 334.284C638.581 334.284 644.113 326.543 644.113 316.994C644.113 307.444 638.581 299.703 631.758 299.703C624.935 299.703 619.403 307.444 619.403 316.994C619.403 326.543 624.935 334.284 631.758 334.284Z" fill="#FF6F61"/>
<path d="M678.429 456.265C685.252 456.265 690.783 448.524 690.783 438.975C690.783 429.425 685.252 421.684 678.429 421.684C671.605 421.684 666.074 429.425 666.074 438.975C666.074 448.524 671.605 456.265 678.429 456.265Z" fill="#FF6F61"/>
<path d="M546.649 581.137C553.472 581.137 559.004 573.396 559.004 563.846C559.004 554.297 553.472 546.556 546.649 546.556C539.825 546.556 534.294 554.297 534.294 563.846C534.294 573.396 539.825 581.137 546.649 581.137Z" fill="#FF6F61"/>
<path d="M315.363 581.137C322.186 581.137 327.717 573.396 327.717 563.846C327.717 554.297 322.186 546.556 315.363 546.556C308.539 546.556 303.008 554.297 303.008 563.846C303.008 573.396 308.539 581.137 315.363 581.137Z" fill="#FF6F61"/>
<path d="M442.328 234.387C449.151 234.387 454.683 226.646 454.683 217.096C454.683 207.547 449.151 199.805 442.328 199.805C435.505 199.805 429.973 207.547 429.973 217.096C429.973 226.646 435.505 234.387 442.328 234.387Z" fill="#FF6F61"/>
<path d="M484.199 351.575C491.022 351.575 496.554 343.834 496.554 334.284C496.554 324.735 491.022 316.994 484.199 316.994C477.376 316.994 471.844 324.735 471.844 334.284C471.844 343.834 477.376 351.575 484.199 351.575Z" fill="#FF6F61"/>
<path d="M653.719 584.017C660.542 584.017 666.074 576.276 666.074 566.726C666.074 557.177 660.542 549.436 653.719 549.436C646.895 549.436 641.364 557.177 641.364 566.726C641.364 576.276 646.895 584.017 653.719 584.017Z" fill="#FF6F61"/>
<path d="M340.065 450.505C346.888 450.505 352.42 442.764 352.42 433.215C352.42 423.665 346.888 415.924 340.065 415.924C333.241 415.924 327.71 423.665 327.71 433.215C327.71 442.764 333.241 450.505 340.065 450.505Z" fill="#FF6F61"/>
<path d="M447.135 115.286C453.958 115.286 459.489 107.545 459.489 97.9951C459.489 88.4457 453.958 80.7043 447.135 80.7043C440.311 80.7043 434.78 88.4457 434.78 97.9951C434.78 107.545 440.311 115.286 447.135 115.286Z" fill="#FF6F61"/>
<path d="M234.369 377.506C241.193 377.506 246.724 369.764 246.724 360.215C246.724 350.666 241.193 342.924 234.369 342.924C227.546 342.924 222.014 350.666 222.014 360.215C222.014 369.764 227.546 377.506 234.369 377.506Z" fill="#FF6F61"/>
<path d="M172.603 529.265C179.426 529.265 184.958 521.523 184.958 511.974C184.958 502.425 179.426 494.683 172.603 494.683C165.779 494.683 160.248 502.425 160.248 511.974C160.248 521.523 165.779 529.265 172.603 529.265Z" fill="#FF6F61"/>
<path d="M191.822 424.575C198.645 424.575 204.177 416.833 204.177 407.284C204.177 397.734 198.645 389.993 191.822 389.993C184.999 389.993 179.467 397.734 179.467 407.284C179.467 416.833 184.999 424.575 191.822 424.575Z" fill="#FF6F61"/>
<path d="M618.765 379.801C616.852 379.419 614.612 378.048 612.69 378.09C610.769 378.133 609.334 386.252 607.428 386.667C605.522 387.081 603.069 383.064 601.209 383.818C599.348 384.573 598.513 388.93 596.729 389.961C594.944 390.992 592.81 390.471 591.109 391.736C589.408 393.001 588.733 396.284 587.13 397.751C585.528 399.218 582.574 397.921 581.055 399.568C579.537 401.215 578.99 404.436 577.532 406.2C576.074 407.964 572.437 406.38 571.039 408.24C569.642 410.1 567.478 411.003 566.126 412.927C564.775 414.85 565.208 419.229 563.848 421.184C562.489 423.14 561.327 425.276 560.052 427.242" fill="#EDEDF4"/>
<path d="M364.045 356.166C363.104 353.796 362.527 350.417 361.372 348.302C360.218 346.187 354.538 349.705 353.126 347.834C351.713 345.964 352.647 340.65 351.098 339.035C349.549 337.419 346.496 339.237 344.833 337.876C343.17 336.516 342.206 333.742 340.46 332.563C338.713 331.383 336.42 332.743 334.612 331.851C332.805 330.958 331.818 326.771 329.965 326.059C328.112 325.347 325.933 326.771 324.05 326.218C322.167 325.665 320.898 320.437 318.992 320.012C317.086 319.587 315.272 317.631 313.358 317.28C311.444 316.93 309.204 320.214 307.283 319.927C305.362 319.64 303.426 319.587 301.52 319.31" fill="#EDEDF4"/>
<path d="M408.529 433.948C409.6 431.525 412.462 429.421 414.421 428.634C416.381 427.848 418.841 429.017 420.777 429.251C422.714 429.484 424.627 431.589 426.602 431.854C428.576 432.12 431.241 434.362 433.185 433.65C435.096 432.797 436.955 431.731 438.744 430.462C440.574 429.304 441.371 424.787 443.3 424.033C445.229 423.278 447.856 427.646 449.8 427.221C451.744 426.796 453.141 420.993 455.116 420.696C457.09 420.398 459.163 420.908 461.19 420.696C462.656 420.526 463.188 424.649 464.57 425.329C466.491 426.275 470.827 422.417 472.11 424.745C473.393 427.072 472.869 430.781 474.768 431.706" fill="#EDEDF4"/>
<path d="M442.328 206.979C443.973 206.869 445.614 207.298 447.119 208.233C448.737 209.296 450.916 209.2 452.101 211.07C453.285 212.941 453.49 216.002 453.992 218.414C454.303 216.894 455.715 214.928 455.715 213.26C455.715 210.911 454.303 208.711 453.695 206.671C453.123 204.538 452.256 202.585 451.144 200.921C450.005 199.327 449.033 196.575 447.529 195.703C446.026 194.832 444.006 196.065 442.328 196.065C440.711 196.034 439.105 196.453 437.605 197.297C436.086 198.169 434.058 198.498 432.919 200.082C431.78 201.665 431.636 204.577 431.006 206.692C430.376 208.807 431.18 210.943 431.18 213.26C431.18 214.928 429.662 215.64 429.965 217.16C430.413 214.812 431.231 212.633 432.357 210.783C433.57 208.727 435.065 207.033 436.754 205.799C438.326 204.832 440.49 206.979 442.328 206.979Z" fill="#EDEDF4"/>
<path d="M546.626 551.806C548.271 551.695 549.912 552.125 551.418 553.06C553.035 554.122 555.214 554.027 556.399 555.897C557.584 557.767 557.789 560.828 558.29 563.251C558.601 561.721 560.014 559.755 560.014 558.086C560.014 555.738 558.601 553.538 557.994 551.497C557.421 549.365 556.554 547.411 555.442 545.748C554.303 544.164 553.331 541.412 551.828 540.53C550.324 539.648 548.304 540.891 546.626 540.891C545.009 540.86 543.403 541.279 541.903 542.124C540.384 542.995 538.357 543.325 537.217 544.919C536.078 546.513 535.934 549.414 535.304 551.519C534.674 553.623 535.479 555.77 535.479 558.086C535.479 559.755 533.96 560.467 534.264 561.987C534.713 559.639 535.53 557.461 536.656 555.61C537.871 553.554 539.369 551.86 541.06 550.626C542.647 549.669 544.811 551.806 546.626 551.806Z" fill="#EDEDF4"/>
<path d="M653.696 551.806C655.339 551.695 656.977 552.125 658.48 553.06C660.105 554.122 662.277 554.027 663.469 555.897C664.661 557.767 664.859 560.828 665.352 563.251C665.671 561.721 667.076 559.755 667.076 558.086C667.076 555.738 665.664 553.538 665.064 551.497C664.486 549.366 663.616 547.414 662.505 545.748C661.373 544.164 660.401 541.412 658.89 540.53C657.379 539.648 655.374 540.891 653.696 540.891C652.079 540.858 650.473 541.277 648.973 542.124C647.454 542.995 645.427 543.325 644.288 544.919C643.149 546.513 643.004 549.414 642.374 551.519C641.744 553.623 642.549 555.77 642.549 558.086C642.549 559.755 641.03 560.467 641.334 561.987C641.784 559.641 642.598 557.464 643.718 555.61C644.937 553.559 646.434 551.865 648.122 550.626C649.709 549.669 651.881 551.806 653.696 551.806Z" fill="#EDEDF4"/>
<path d="M334.559 422.12C335.927 420.848 337.486 420.037 339.115 419.75C340.892 419.484 342.753 417.858 344.431 418.634C346.109 419.41 347.468 421.822 348.752 423.565C348.463 422.024 348.934 419.314 348.319 417.911C347.461 415.903 345.449 415.01 344.188 413.66C342.912 412.244 341.449 411.193 339.882 410.568C338.326 410.026 336.488 408.378 334.871 408.718C333.253 409.058 331.977 411.524 330.542 412.736C329.14 413.869 327.914 415.383 326.935 417.188C325.963 419.027 324.353 420.78 323.959 422.959C323.564 425.138 324.49 427.731 324.718 429.994C324.946 432.258 326.396 433.512 327.254 435.521C327.869 436.945 326.852 438.709 327.679 439.772C327.207 437.446 327.114 435.002 327.406 432.619C327.689 429.982 328.35 427.451 329.35 425.18C330.352 423.204 332.98 423.448 334.559 422.12Z" fill="#EDEDF4"/>
<path d="M309.159 552.751C310.527 551.482 312.086 550.671 313.715 550.381C315.484 550.116 317.352 548.49 319.03 549.319C320.709 550.148 322.03 552.507 323.351 554.25C323.063 552.709 323.533 549.999 322.918 548.596C322.06 546.588 320.048 545.695 318.78 544.345C317.506 542.929 316.046 541.878 314.482 541.253C312.917 540.711 311.08 539.063 309.462 539.403C307.845 539.743 306.577 542.209 305.134 543.421C303.736 544.558 302.513 546.071 301.535 547.873C300.563 549.712 298.953 551.465 298.558 553.644C298.163 555.823 299.089 558.416 299.317 560.679C299.545 562.943 300.995 564.197 301.854 566.206C302.469 567.63 301.444 569.341 302.279 570.457C301.807 568.131 301.713 565.687 302.005 563.304C302.288 560.666 302.949 558.136 303.949 555.865C304.959 553.835 307.587 554.037 309.159 552.751Z" fill="#EDEDF4"/>
<path d="M232.296 351.054C233.664 349.782 235.223 348.971 236.852 348.684C238.629 348.419 240.497 346.793 242.168 347.568C243.838 348.344 245.205 350.757 246.489 352.489C246.2 350.959 246.671 348.238 246.056 346.846C245.198 344.837 243.185 343.945 241.925 342.595C240.648 341.182 239.185 340.135 237.619 339.513C236.1 338.96 234.225 337.324 232.607 337.664C230.99 338.004 229.714 340.469 228.279 341.681C226.877 342.814 225.65 344.328 224.672 346.134C223.7 347.972 222.09 349.715 221.695 351.904C221.301 354.094 222.227 356.676 222.455 358.94C222.683 361.203 224.133 362.447 224.991 364.466C225.606 365.89 224.589 367.59 225.416 368.717C224.944 366.391 224.851 363.947 225.143 361.565C225.426 358.927 226.087 356.396 227.087 354.126C228.089 352.117 230.732 352.361 232.296 351.054Z" fill="#EDEDF4"/>
<path d="M189.726 401.003C191.094 399.731 192.653 398.92 194.282 398.633C196.059 398.357 197.927 396.741 199.598 397.517C201.269 398.293 202.635 400.705 203.919 402.438C203.63 400.907 204.101 398.187 203.486 396.795C202.628 394.786 200.623 393.893 199.355 392.544C198.08 391.133 196.62 390.086 195.057 389.462C193.493 388.909 191.655 387.272 190.038 387.602C188.42 387.931 187.144 390.418 185.709 391.619C184.311 392.76 183.088 394.277 182.11 396.083C181.13 397.921 179.52 399.664 179.133 401.853C178.746 404.042 179.665 406.625 179.893 408.889C180.12 411.152 181.571 412.396 182.436 414.404C183.044 415.839 182.026 417.539 182.854 418.655C182.39 416.328 182.296 413.886 182.581 411.503C182.873 408.868 183.533 406.34 184.525 404.064C185.542 402.066 188.162 402.31 189.726 401.003Z" fill="#EDEDF4"/>
<path d="M170.522 502.803C171.891 501.534 173.45 500.723 175.078 500.433C176.855 500.167 178.723 498.541 180.394 499.37C182.064 500.199 183.393 502.558 184.715 504.301C184.418 502.76 184.889 500.05 184.282 498.647C183.416 496.639 181.411 495.746 180.143 494.396C178.867 492.987 177.407 491.936 175.845 491.304C174.281 490.762 172.443 489.178 170.826 489.455C169.208 489.731 167.933 492.271 166.498 493.472C165.099 494.609 163.876 496.122 162.898 497.925C161.926 499.763 160.309 501.517 159.921 503.695C159.534 505.874 160.453 508.478 160.681 510.731C160.909 512.984 162.367 514.248 163.225 516.257C163.84 517.692 162.815 519.392 163.65 520.508C163.179 518.179 163.083 515.732 163.369 513.345C163.658 510.708 164.321 508.178 165.321 505.906C166.323 503.887 168.95 504.089 170.522 502.803Z" fill="#EDEDF4"/>
<path d="M299.553 230.019C300.922 228.75 302.481 227.94 304.109 227.649C305.886 227.373 307.754 225.758 309.425 226.533C311.095 227.309 312.424 229.722 313.745 231.454C313.449 229.923 313.92 227.203 313.313 225.811C312.447 223.802 310.442 222.909 309.174 221.56C307.899 220.149 306.439 219.102 304.876 218.478C303.312 217.925 301.474 216.289 299.857 216.618C298.239 216.947 296.963 219.434 295.528 220.635C294.13 221.776 292.907 223.293 291.929 225.099C290.957 226.927 289.34 228.68 288.952 230.869C288.565 233.059 289.484 235.641 289.712 237.905C289.939 240.168 291.397 241.412 292.255 243.42C292.871 244.855 291.845 246.555 292.681 247.671C292.21 245.346 292.114 242.903 292.4 240.519C292.69 237.882 293.353 235.353 294.351 233.08C295.354 231.092 297.973 231.337 299.553 230.019Z" fill="#EDEDF4"/>
<path d="M352.397 187.754C353.765 186.485 355.324 185.674 356.953 185.384C358.722 185.118 360.59 183.492 362.268 184.268C363.947 185.044 365.268 187.456 366.589 189.189C366.301 187.658 366.771 184.938 366.156 183.545C365.298 181.537 363.286 180.644 362.018 179.295C360.745 177.88 359.284 176.832 357.72 176.213C356.163 175.66 354.318 174.023 352.708 174.363C351.098 174.704 349.815 177.169 348.372 178.381C346.974 179.518 345.751 181.031 344.773 182.833C343.801 184.672 342.191 186.415 341.796 188.604C341.401 190.793 342.328 193.376 342.555 195.639C342.783 197.903 344.234 199.146 345.092 201.166C345.707 202.59 344.689 204.29 345.517 205.417C345.045 203.091 344.952 200.647 345.243 198.264C345.526 195.627 346.187 193.096 347.187 190.825C348.197 188.827 350.825 189.072 352.397 187.754Z" fill="#EDEDF4"/>
<path d="M363.385 111.874C364.752 110.603 366.312 109.792 367.941 109.505C369.718 109.228 371.586 107.613 373.256 108.389C374.927 109.164 376.294 111.577 377.577 113.309C377.289 111.779 377.759 109.058 377.144 107.666C376.286 105.657 374.274 104.765 373.013 103.415C371.737 102.002 370.274 100.955 368.708 100.333C367.151 99.7805 365.313 98.1439 363.696 98.4733C362.079 98.8028 360.803 101.29 359.368 102.49C357.967 103.632 356.741 105.149 355.761 106.954C354.789 108.782 353.179 110.535 352.784 112.725C352.389 114.914 353.316 117.496 353.543 119.76C353.771 122.024 355.222 123.267 356.08 125.276C356.695 126.71 355.677 128.411 356.505 129.527C356.033 127.201 355.94 124.757 356.231 122.374C356.515 119.737 357.176 117.207 358.175 114.935C359.178 113.001 361.805 113.192 363.385 111.874Z" fill="#EDEDF4"/>
<path d="M447.15 86.9107C448.792 86.8006 450.431 87.2301 451.934 88.1647C453.559 89.2275 455.768 89.1318 456.923 91.0022C458.077 92.8727 458.312 95.9333 458.806 98.3564C459.125 96.826 460.53 94.86 460.53 93.1915C460.53 90.8428 459.117 88.643 458.517 86.6025C457.939 84.4716 457.07 82.5187 455.958 80.8531C454.827 79.2696 453.855 76.5171 452.344 75.635C450.833 74.753 448.828 75.9964 447.15 75.9964C445.532 75.9632 443.927 76.3823 442.426 77.2291C440.908 78.1006 438.873 78.43 437.741 80.0242C436.61 81.6183 436.458 84.5195 435.828 86.6238C435.197 88.728 436.002 90.8747 436.002 93.1915C436.002 94.86 434.483 95.572 434.787 97.0917C435.237 94.7467 436.051 92.5694 437.172 90.7153C438.389 88.6617 439.886 86.9675 441.576 85.7311C443.125 84.7746 445.297 86.9107 447.15 86.9107Z" fill="#EDEDF4"/>
<path d="M530.194 115.722C531.709 116.627 533.053 118.013 534.119 119.771C535.259 121.694 537.263 122.959 537.719 125.361C538.174 127.762 537.445 130.674 537.142 133.119C537.901 131.939 539.777 130.993 540.293 129.516C541.052 127.39 540.437 124.563 540.528 122.364C540.669 120.095 540.491 117.809 540.005 115.636C539.473 113.511 539.45 110.45 538.364 108.739C537.278 107.028 535.084 106.911 533.58 105.902C532.133 104.887 530.556 104.287 528.941 104.138C527.308 104.01 525.372 103.075 523.853 103.819C522.334 104.563 521.301 107.071 520.056 108.591C518.811 110.11 518.894 112.491 518.165 114.606C517.649 116.104 516.062 115.828 515.887 117.401C517.017 115.574 518.423 114.122 520.003 113.15C521.736 112.036 523.61 111.418 525.516 111.332C527.247 111.375 528.538 114.606 530.194 115.722Z" fill="#EDEDF4"/>
<path d="M585.786 190.645C587.301 191.547 588.645 192.93 589.712 194.683C590.851 196.617 592.856 197.871 593.312 200.284C593.767 202.696 593.038 205.597 592.735 208.042C593.494 206.862 595.37 205.916 595.886 204.439C596.645 202.313 596.03 199.487 596.121 197.276C596.262 195.011 596.084 192.729 595.597 190.56C595.066 188.434 595.043 185.373 593.957 183.662C592.871 181.951 590.677 181.835 589.173 180.814C587.724 179.809 586.147 179.213 584.533 179.061C582.901 178.923 580.964 177.998 579.446 178.731C577.927 179.465 576.894 181.994 575.649 183.514C574.404 185.033 574.487 187.414 573.758 189.529C573.242 191.027 571.655 190.751 571.48 192.324C572.61 190.498 574.016 189.046 575.596 188.073C577.33 186.967 579.204 186.353 581.109 186.266C582.84 186.33 584.131 189.518 585.786 190.645Z" fill="#EDEDF4"/>
<path d="M633.831 305.909C635.345 306.812 636.689 308.194 637.757 309.948C638.888 311.871 640.901 313.136 641.356 315.548C641.812 317.961 641.083 320.862 640.779 323.306C641.538 322.127 643.407 321.181 643.923 319.703C644.682 317.578 644.075 314.751 644.158 312.541C644.302 310.273 644.126 307.987 643.642 305.813C643.11 303.688 643.088 300.627 642.002 298.927C640.916 297.227 638.721 297.099 637.21 296.079C635.763 295.074 634.19 294.474 632.578 294.315C630.945 294.187 629.009 293.252 627.49 293.996C625.972 294.74 624.939 297.258 623.694 298.778C622.448 300.298 622.532 302.678 621.803 304.793C621.286 306.292 619.699 306.015 619.525 307.588C620.655 305.763 622.061 304.311 623.64 303.337C625.374 302.227 627.248 301.612 629.153 301.531C630.915 301.563 632.176 304.793 633.831 305.909Z" fill="#EDEDF4"/>
<path d="M486.264 327.036C487.781 327.939 489.125 329.325 490.19 331.085C491.329 333.009 493.334 334.274 493.79 336.675C494.245 339.077 493.524 341.989 493.22 344.433C493.979 343.254 495.847 342.308 496.364 340.831C497.123 338.705 496.508 335.878 496.599 333.678C496.743 331.41 496.567 329.125 496.083 326.951C495.551 324.826 495.529 321.765 494.435 320.054C493.342 318.343 491.162 318.237 489.651 317.217C488.204 316.2 486.627 315.6 485.011 315.452C483.379 315.325 481.45 314.39 479.931 315.134C478.413 315.878 477.372 318.386 476.134 319.905C474.897 321.425 474.973 323.806 474.244 325.92C473.727 327.43 472.14 327.153 471.966 328.715C473.094 326.887 474.5 325.434 476.081 324.465C477.811 323.35 479.683 322.732 481.587 322.647C483.318 322.69 484.609 325.92 486.264 327.036Z" fill="#EDEDF4"/>
<path d="M680.501 429.814C682.017 430.72 683.361 432.106 684.427 433.863C685.559 435.786 687.563 437.051 688.027 439.453C688.49 441.855 687.753 444.767 687.45 447.211C688.209 446.031 690.077 445.085 690.593 443.608C691.353 441.483 690.745 438.656 690.829 436.456C690.972 434.188 690.797 431.903 690.312 429.729C689.781 427.603 689.758 424.543 688.672 422.832C687.586 421.121 685.392 421.004 683.881 419.994C682.436 418.979 680.861 418.379 679.248 418.23C677.616 418.102 675.679 417.167 674.161 417.911C672.642 418.655 671.609 421.163 670.364 422.683C669.119 424.203 669.202 426.583 668.473 428.698C667.957 430.196 666.37 429.92 666.195 431.493C667.323 429.664 668.729 428.212 670.311 427.242C672.043 426.128 673.918 425.51 675.824 425.425C677.555 425.446 678.846 428.698 680.501 429.814Z" fill="#EDEDF4"/>
<path d="M451.091 4.42104L453.521 11.3076C453.927 12.4586 454.527 13.4544 455.269 14.2096C456.011 14.9648 456.873 15.4568 457.781 15.6436L463.21 16.7063C464.257 16.9189 465.24 17.5373 466.048 18.4915C466.857 19.4458 467.458 20.6977 467.785 22.1055C468.111 23.5134 468.149 25.021 467.895 26.4578C467.641 27.8945 467.104 29.2029 466.346 30.235L462.42 35.5486C461.759 36.4606 461.267 37.5854 460.988 38.8248C460.709 40.0641 460.65 41.3803 460.818 42.6584L461.745 50.2251C461.922 51.6822 461.805 53.1797 461.407 54.5487C461.008 55.9176 460.344 57.1034 459.49 57.9721C458.635 58.8409 457.624 59.358 456.571 59.4651C455.517 59.5722 454.464 59.265 453.528 58.5782L448.668 55.0074C447.856 54.4106 446.951 54.0989 446.033 54.0989C445.116 54.0989 444.211 54.4106 443.398 55.0074L438.539 58.5782C437.603 59.265 436.549 59.5722 435.496 59.4651C434.443 59.358 433.432 58.8409 432.577 57.9721C431.723 57.1034 431.059 55.9176 430.66 54.5487C430.262 53.1797 430.145 51.6822 430.322 50.2251L431.203 42.6584C431.357 41.39 431.289 40.0883 431.004 38.8649C430.72 37.6415 430.228 36.5328 429.57 35.6337L425.645 30.32C424.886 29.2879 424.35 27.9795 424.096 26.5428C423.842 25.1061 423.88 23.5984 424.206 22.1906C424.533 20.7827 425.134 19.5308 425.942 18.5766C426.751 17.6224 427.734 17.0039 428.781 16.7913L434.21 15.7286C435.119 15.5435 435.983 15.0521 436.726 14.2969C437.469 13.5416 438.07 12.5449 438.478 11.3926L440.908 4.50605C441.367 3.16686 442.087 2.03536 442.983 1.24056C443.88 0.445752 444.919 0.0196241 445.98 0.0107612C447.042 0.00189838 448.084 0.410656 448.987 1.19043C449.891 1.9702 450.62 3.08962 451.091 4.42104V4.42104Z" fill="#FEE374"/>
<path d="M573.302 833.888C573.302 836.343 563.279 834.26 562.193 836.545C561.282 838.447 566.802 848.32 565.23 850.063C563.924 851.508 561.639 852.55 559.915 853.857C558.396 854.994 555.852 853.995 554.075 855.005C552.473 855.919 550.066 854.038 548.251 854.845C546.588 855.589 544.189 852.242 542.366 852.879C540.544 853.517 539.078 853.942 537.248 854.42C535.418 854.899 534.643 862.189 532.806 862.572C530.968 862.954 528.515 854.293 526.67 854.58C524.825 854.867 523.792 864.824 521.947 865.005C520.102 865.186 518.264 863.942 516.426 864.07C514.589 864.197 512.797 856.11 510.959 856.11C509.121 856.11 507.162 870.085 505.347 870C503.532 869.915 501.778 864.856 499.994 864.686C498.209 864.516 496.47 861.987 494.678 861.711C492.886 861.434 491.641 855.334 489.909 854.962C488.178 854.59 486.356 855.154 484.594 854.675C482.832 854.197 479.582 862.635 477.874 862.029C476.165 861.424 475.39 855.154 473.72 854.41C471.913 853.613 471.548 848.543 469.923 847.629C468.139 846.567 464.562 852.093 463.089 850.956C461.365 849.649 460.264 847.396 458.958 845.95C457.371 844.207 460.53 838.511 459.626 836.598C458.533 834.313 452.898 836.354 452.898 833.899C453.035 831.293 453.713 828.799 454.85 826.725C455.761 824.823 459.816 827.926 461.403 826.183C462.709 824.749 461.259 817.862 462.99 816.555C464.509 815.418 464.243 807.639 466.028 806.629C467.63 805.715 470.31 807.075 472.102 806.268C473.773 805.524 475.74 804.695 477.562 804.057C479.385 803.419 481.063 801.57 482.878 801.071C484.693 800.571 487.388 807.267 489.226 806.884C491.064 806.501 492.18 798.584 494.025 798.308C495.87 798.031 498.3 807.734 500.138 807.554C501.976 807.373 503.768 811.22 505.605 811.135C507.443 811.05 509.053 804.259 510.921 804.259C512.789 804.259 514.558 805.024 516.35 805.109C518.142 805.194 520.291 799.19 522.076 799.37C523.86 799.551 525.402 805.853 527.179 806.119C528.956 806.385 531.036 804.599 532.791 804.96C534.545 805.322 535.532 812.463 537.271 812.942C539.01 813.42 540.893 812.782 542.586 813.377C544.416 814.026 546.474 812.474 548.145 813.207C549.952 814.015 550.757 817.596 552.359 818.521C554.144 819.584 557.941 813.919 559.437 815.056C561.177 816.21 562.852 817.546 564.448 819.052C566.035 820.795 569.004 822.081 569.931 823.994C571.047 826.258 573.302 831.412 573.302 833.888Z" fill="#FEE374"/>
<path d="M651.517 833.888C651.517 836.343 641.493 834.26 640.407 836.545C639.496 838.447 645.017 848.32 643.445 850.063C642.139 851.508 639.853 852.55 638.129 853.857C636.61 854.994 634.067 853.995 632.29 855.005C630.687 855.919 628.28 854.038 626.465 854.845C624.802 855.589 622.403 852.242 620.58 852.879C618.758 853.517 617.292 853.942 615.462 854.42C613.632 854.899 612.858 862.189 611.02 862.572C609.182 862.954 606.729 854.293 604.884 854.58C603.039 854.867 602.006 864.824 600.161 865.005C598.316 865.186 596.478 863.942 594.64 864.07C592.803 864.197 591.011 856.11 589.173 856.11C587.335 856.11 585.376 870.085 583.561 870C581.747 869.915 579.992 864.856 578.208 864.686C576.423 864.516 574.684 861.987 572.892 861.711C571.1 861.434 569.855 855.334 568.124 854.962C566.392 854.59 564.57 855.154 562.808 854.675C561.046 854.197 557.796 862.635 556.088 862.029C554.379 861.424 553.605 855.154 551.934 854.41C550.127 853.613 549.762 848.543 548.137 847.629C546.353 846.567 542.776 852.093 541.303 850.956C539.579 849.649 538.478 847.396 537.172 845.95C535.585 844.207 538.744 838.511 537.84 836.598C536.747 834.313 531.112 836.354 531.112 833.899C531.249 831.293 531.927 828.799 533.064 826.725C533.975 824.823 538.03 827.926 539.617 826.183C540.923 824.749 539.473 817.862 541.204 816.555C542.723 815.418 542.457 807.639 544.242 806.629C545.844 805.715 548.524 807.075 550.317 806.268C551.987 805.524 553.954 804.695 555.776 804.057C557.599 803.419 559.277 801.57 561.092 801.071C562.907 800.571 565.602 807.267 567.44 806.884C569.278 806.501 570.394 798.584 572.239 798.308C574.085 798.031 576.515 807.734 578.352 807.554C580.19 807.373 581.982 811.22 583.82 811.135C585.657 811.05 587.267 804.259 589.135 804.259C591.003 804.259 592.772 805.024 594.565 805.109C596.357 805.194 598.506 799.19 600.29 799.37C602.075 799.551 603.616 805.853 605.393 806.119C607.17 806.385 609.251 804.599 611.005 804.96C612.759 805.322 613.746 812.463 615.485 812.942C617.224 813.42 619.107 812.782 620.8 813.377C622.631 814.026 624.688 812.474 626.359 813.207C628.166 814.015 628.971 817.596 630.573 818.521C632.358 819.584 636.155 813.919 637.651 815.056C639.391 816.21 641.066 817.546 642.662 819.052C644.25 820.795 647.219 822.081 648.145 823.994C649.261 826.258 651.517 831.412 651.517 833.888Z" fill="#FEE374"/>
<path d="M443.452 829.637C443.452 832.092 433.428 830.009 432.342 832.294C431.431 834.196 436.952 844.069 435.38 845.812C434.074 847.257 431.788 848.299 430.064 849.606C428.545 850.743 426.002 849.744 424.225 850.754C422.622 851.668 420.215 849.787 418.4 850.594C416.737 851.338 414.338 847.991 412.515 848.628C410.693 849.266 409.227 849.691 407.397 850.169C405.567 850.648 404.793 857.938 402.955 858.321C401.117 858.703 398.665 850.042 396.819 850.329C394.974 850.616 393.941 860.574 392.096 860.754C390.251 860.935 388.413 859.691 386.576 859.819C384.738 859.946 382.946 851.859 381.108 851.859C379.27 851.859 377.311 865.834 375.496 865.749C373.682 865.664 371.927 860.605 370.143 860.435C368.358 860.265 366.62 857.736 364.827 857.46C363.035 857.183 361.79 851.083 360.059 850.711C358.327 850.339 356.505 850.903 354.743 850.424C352.981 849.946 349.731 858.384 348.023 857.779C346.2 857.141 345.54 850.903 343.869 850.159C342.062 849.362 341.697 844.292 340.072 843.378C338.288 842.316 334.711 847.842 333.238 846.705C331.514 845.398 330.413 843.145 329.107 841.699C327.52 839.956 330.679 834.26 329.775 832.347C328.682 830.062 323.047 832.103 323.047 829.648C323.184 827.042 323.863 824.548 324.999 822.474C325.91 820.572 329.965 823.675 331.552 821.932C332.858 820.498 331.408 813.611 333.139 812.304C334.658 811.167 334.392 803.388 336.177 802.378C337.779 801.464 340.46 802.824 342.252 802.017C343.922 801.273 345.889 800.444 347.711 799.806C349.534 799.169 351.212 797.319 353.027 796.82C354.842 796.32 357.538 803.016 359.375 802.633C361.213 802.25 362.329 794.333 364.174 794.057C366.02 793.78 368.45 803.483 370.287 803.303C372.125 803.122 373.917 806.969 375.755 806.884C377.592 806.799 379.202 800.008 381.07 800.008C382.938 800.008 384.708 800.773 386.5 800.858C388.292 800.943 390.441 794.939 392.225 795.119C394.01 795.3 395.551 801.602 397.328 801.868C399.105 802.134 401.186 800.348 402.94 800.709C404.694 801.071 405.681 808.212 407.42 808.691C409.159 809.169 411.042 808.531 412.736 809.126C414.566 809.775 416.623 808.223 418.294 808.956C420.101 809.764 420.906 813.345 422.508 814.27C424.293 815.333 428.09 809.668 429.586 810.805C431.326 811.959 433.001 813.295 434.598 814.801C436.185 816.544 439.154 817.83 440.08 819.743C441.196 822.007 443.452 827.161 443.452 829.637Z" fill="#FEE374"/>
<path d="M377.387 827.512C377.387 829.967 367.364 827.884 366.278 830.169C365.367 832.071 370.887 841.944 369.315 843.687C368.009 845.132 365.723 846.173 364 847.481C362.481 848.618 359.937 847.619 358.16 848.628C356.558 849.542 354.151 847.661 352.336 848.469C350.673 849.213 348.273 845.865 346.451 846.503C344.628 847.141 343.163 847.566 341.333 848.044C339.503 848.522 338.728 855.812 336.89 856.195C335.053 856.578 332.6 847.916 330.755 848.203C328.91 848.49 327.877 858.448 326.032 858.629C324.186 858.809 322.349 857.566 320.511 857.693C318.673 857.821 316.881 849.734 315.044 849.734C313.206 849.734 311.247 863.709 309.432 863.624C307.617 863.539 305.863 858.48 304.078 858.31C302.294 858.14 300.555 855.611 298.763 855.334C296.971 855.058 295.726 848.958 293.994 848.586C292.263 848.214 290.44 848.777 288.679 848.299C286.917 847.821 283.667 856.259 281.958 855.653C280.136 855.015 279.475 848.777 277.805 848.033C275.997 847.236 275.633 842.167 274.008 841.253C272.223 840.19 268.647 845.716 267.174 844.579C265.45 843.272 264.349 841.019 263.043 839.574C261.456 837.831 264.614 832.135 263.711 830.222C262.617 827.937 256.983 829.977 256.983 827.522C257.12 824.916 257.798 822.423 258.934 820.349C259.846 818.447 263.901 821.55 265.488 819.807C266.794 818.372 265.343 811.486 267.075 810.178C268.594 809.041 268.328 801.262 270.112 800.252C271.714 799.339 274.395 800.699 276.187 799.891C277.858 799.147 279.824 798.318 281.647 797.681C283.469 797.043 285.148 795.194 286.962 794.694C288.777 794.195 291.473 800.89 293.311 800.508C295.148 800.125 296.265 792.208 298.11 791.931C299.955 791.655 302.385 801.358 304.185 801.177C305.984 800.996 307.815 804.843 309.652 804.758C311.49 804.673 313.1 797.883 314.968 797.883C316.836 797.883 318.605 798.648 320.397 798.733C322.189 798.818 324.338 792.813 326.123 792.994C327.907 793.175 329.449 799.477 331.226 799.742C333.003 800.008 335.083 798.223 336.837 798.584C338.591 798.945 339.579 806.087 341.318 806.565C343.056 807.043 344.94 806.406 346.633 807.001C348.463 807.649 350.521 806.098 352.192 806.831C353.999 807.639 354.804 811.22 356.406 812.145C358.191 813.207 361.987 807.543 363.483 808.68C365.223 809.834 366.899 811.169 368.495 812.676C370.082 814.419 373.051 815.705 373.978 817.618C375.132 819.881 377.387 825.036 377.387 827.512Z" fill="#FEE374"/>
<path d="M321.665 779.965V803.079L317.299 815.407L317.162 815.8L305.597 814.738L301.155 814.323L290.835 813.367V785.714L301.155 786.118L305.764 786.299L317.436 786.766L321.665 779.965Z" fill="#FF6F61"/>
<path opacity="0.1" d="M321.665 781.325V803.079L320.602 806.098L319.501 809.179L317.299 815.407L317.55 792.293L317.595 787.627L319.691 784.375L320.61 782.962L321.665 781.325Z" fill="black"/>
<path d="M322.258 773.822V781.899L321.665 783.217L320.61 785.576L319.668 787.67L317.595 792.293H317.55L289.932 790.305V782.335L290 782.228L293.296 777.244L294.488 775.427L296.652 772.164L322.258 773.822Z" fill="#FF6F61"/>
<path opacity="0.1" d="M317.595 784.333V792.293L289.932 790.305V782.335L290 782.228L317.595 784.333Z" fill="black"/>
<path opacity="0.15" d="M322.258 773.822V781.899L317.595 792.293V784.333L322.258 773.822Z" fill="black"/>
<path d="M320.61 777.531V782.962V785.576L320.602 806.098L319.501 809.179L319.668 787.67L319.691 784.375L319.729 779.518L293.296 777.244L294.488 775.427L320.61 777.531Z" fill="#3F3D56"/>
<path d="M307.64 777.807L305.787 783.429L305.764 786.299L305.597 814.738L301.155 814.323V783.057L303.524 777.807H307.64Z" fill="#3F3D56"/>
<path d="M301.535 778.179C300.466 778.681 299.316 778.74 298.224 778.349C298.01 778.29 297.809 778.159 297.639 777.967C297.459 777.684 297.335 777.339 297.282 776.968C297.09 776.202 296.983 775.399 296.963 774.587C296.957 774.18 297.019 773.776 297.142 773.408C297.266 773.039 297.449 772.715 297.677 772.462C297.772 772.378 297.861 772.282 297.943 772.175C298.042 771.999 298.114 771.796 298.155 771.58C298.474 770.23 299.105 768.806 300.107 768.583C301.109 768.36 301.884 769.295 302.598 770.145L304.17 772.016C304.345 771.361 304.658 770.796 305.067 770.395C305.476 769.993 305.962 769.773 306.461 769.764C306.961 769.755 307.45 769.957 307.867 770.343C308.283 770.73 308.606 771.283 308.794 771.931C309.746 770.431 310.945 769.278 312.287 768.572C312.432 768.481 312.588 768.434 312.747 768.434C312.905 768.434 313.062 768.481 313.206 768.572C313.375 768.746 313.502 768.986 313.57 769.263C314.001 770.571 314.233 771.989 314.254 773.429C314.364 773.379 314.484 773.381 314.594 773.434C314.703 773.488 314.797 773.591 314.861 773.726C314.984 774.002 315.052 774.317 315.059 774.641C315.104 775.145 315.127 775.652 315.127 776.16C315.163 776.695 315.06 777.231 314.839 777.669C314.654 777.897 314.436 778.068 314.201 778.171C313.965 778.273 313.717 778.305 313.472 778.264C313.52 778.35 313.555 778.448 313.574 778.553C313.594 778.659 313.597 778.768 313.584 778.876C313.571 778.983 313.543 779.085 313.5 779.176C313.457 779.266 313.401 779.343 313.335 779.402C313.054 779.613 312.734 779.702 312.416 779.657C311.188 779.789 309.959 779.419 308.878 778.594C308.475 778.222 308.118 777.722 307.731 777.35C306.704 776.567 305.527 776.258 304.367 776.468C303.334 776.522 302.514 777.722 301.535 778.179Z" fill="#3F3D56"/>
<path d="M301.353 777.807C301.353 777.807 291.154 779.795 289.734 788.435L291.868 787.989L293.387 791.751C293.387 791.751 294.974 783.344 299.636 781.357C301.691 780.398 303.786 779.617 305.909 779.019C305.909 779.019 309.151 780.082 312.075 793.292L313.738 790.103L316.661 790.985C316.661 790.985 314.528 780.698 308.756 777.829L301.353 777.807Z" fill="#3F3D56"/>
<path d="M355.153 777.85V811.974L348.706 830.179L348.501 830.753L331.438 829.18L324.878 828.564L309.652 827.161V786.341L324.878 786.947L331.689 787.213L348.911 787.893L355.153 777.85Z" fill="#027F1F"/>
<path opacity="0.1" d="M355.153 779.869V811.974L353.574 816.427L351.964 820.976V820.987L348.706 830.179L349.071 796.055L349.147 789.168L352.237 784.375L353.589 782.282L355.153 779.869Z" fill="black"/>
<path d="M356.026 768.785V780.709L355.153 782.664L353.589 786.15L352.199 789.232L349.147 796.055H349.071L308.308 793.121V781.357L308.414 781.208L313.282 773.833L315.044 771.165L318.225 766.341L356.026 768.785Z" fill="#027F1F"/>
<path opacity="0.1" d="M349.147 784.301V796.055L308.308 793.121V781.357L308.414 781.208L349.147 784.301Z" fill="black"/>
<path opacity="0.15" d="M356.027 768.785V780.709L349.147 796.055V784.301L356.027 768.785Z" fill="black"/>
<path d="M353.589 774.279V782.282V786.15L353.574 816.427L351.964 820.976L352.199 789.232L352.237 784.375L352.298 777.202L313.282 773.833L315.044 771.165L353.589 774.279Z" fill="#3F3D56"/>
<path d="M334.445 774.662L331.712 782.972L331.689 787.213L331.438 829.18L324.877 828.564V782.42L328.378 774.662H334.445Z" fill="#3F3D56"/>
<path d="M325.439 775.225C323.859 775.958 322.162 776.043 320.549 775.469C320.236 775.38 319.943 775.191 319.691 774.917C319.426 774.497 319.243 773.988 319.16 773.44C318.874 772.308 318.718 771.121 318.696 769.922C318.68 769.314 318.766 768.709 318.946 768.155C319.127 767.601 319.398 767.115 319.737 766.734C319.88 766.614 320.015 766.475 320.139 766.319C320.283 766.058 320.387 765.758 320.443 765.437C320.921 763.45 321.848 761.335 323.336 761.016C324.824 760.697 325.956 762.079 327.011 763.322L329.289 766.086C329.545 765.113 330.006 764.272 330.61 763.674C331.215 763.075 331.935 762.748 332.675 762.734C333.416 762.72 334.142 763.021 334.757 763.596C335.373 764.172 335.849 764.995 336.124 765.958C337.528 763.743 339.298 762.042 341.28 761.006C341.488 760.853 341.718 760.767 341.953 760.754C342.188 760.741 342.423 760.802 342.639 760.931C342.886 761.186 343.073 761.538 343.178 761.941C343.809 763.875 344.15 765.969 344.18 768.094C344.343 768.014 344.52 768.013 344.683 768.092C344.846 768.171 344.985 768.326 345.077 768.53C345.255 768.938 345.357 769.402 345.373 769.879C345.434 770.624 345.464 771.373 345.464 772.122C345.516 772.911 345.368 773.701 345.046 774.354C344.771 774.687 344.449 774.936 344.102 775.086C343.754 775.236 343.388 775.283 343.026 775.225C343.098 775.35 343.151 775.496 343.18 775.652C343.208 775.808 343.213 775.97 343.194 776.129C343.175 776.288 343.131 776.439 343.067 776.573C343.003 776.706 342.919 776.819 342.821 776.904C342.407 777.223 341.932 777.353 341.462 777.276C339.662 777.276 337.741 777.18 336.238 775.778C335.645 775.225 335.152 774.492 334.559 773.939C333.101 772.589 331.271 772.526 329.586 772.632C328.097 772.781 326.89 774.545 325.439 775.225Z" fill="#3F3D56"/>
<path d="M325.113 774.672C325.113 774.672 310.062 777.606 307.959 790.348L311.11 789.689L313.328 795.247C313.328 795.247 315.659 782.834 322.546 779.89C329.434 776.947 331.879 776.468 331.879 776.468C331.879 776.468 336.663 778.094 340.991 797.532L343.444 792.792L347.757 794.099C347.757 794.099 344.606 778.913 336.093 774.672H325.113Z" fill="#3F3D56"/>
<path d="M361.183 823.261C361.183 825.333 355.298 823.016 353.187 824.781C351.85 825.843 352.594 833.867 350.574 834.802C348.98 835.535 346.907 835.759 344.955 836.354C343.254 836.875 341.158 835.865 339.245 836.258C337.491 836.619 335.509 835.132 333.603 835.376C331.818 835.599 329.935 833.251 328.037 833.325C326.138 833.399 324.498 833.452 322.615 833.452C320.731 833.452 318.863 837.703 317.064 837.597C315.264 837.491 313.654 831.752 311.877 831.529C309.964 831.284 307.693 837.013 305.947 836.662C304.018 836.269 302.264 834.993 300.563 834.483C298.611 833.888 297.913 828.447 296.318 827.714C294.298 826.789 290.084 833.623 288.724 832.507C286.613 830.743 286.211 825.333 286.211 823.261C286.211 821.188 288.246 819.616 290.365 817.841C291.694 816.778 294.161 819.169 296.166 818.245C297.761 817.501 299.166 816.364 301.125 815.768C302.818 815.248 303.889 809.19 305.81 808.797C307.564 808.446 309.713 811.677 311.619 811.432C313.404 811.209 315.294 813.877 317.185 813.771C319.076 813.664 320.709 809.222 322.592 809.222C324.475 809.222 326.305 809.934 328.112 810.051C329.92 810.168 331.545 814.801 333.329 815.035C335.235 815.269 337.422 810.391 339.169 810.784C341.098 811.177 342.897 811.847 344.591 812.378C346.55 812.973 347.469 817.352 349.071 818.085C351.083 819.01 353.809 816.024 355.146 817.139C357.28 818.861 361.183 821.188 361.183 823.261Z" fill="#FEE374"/>
<path d="M402.947 814.759C402.947 816.831 397.062 814.514 394.951 816.279C393.615 817.341 394.359 825.365 392.339 826.3C390.744 827.033 388.671 827.257 386.72 827.852C385.019 828.373 382.923 827.363 381.009 827.756C379.255 828.117 377.273 826.63 375.367 826.874C373.583 827.097 371.7 824.749 369.801 824.823C367.903 824.897 366.263 824.951 364.379 824.951C362.496 824.951 360.628 829.201 358.828 829.095C357.029 828.989 355.419 823.25 353.642 823.027C351.728 822.783 349.458 828.511 347.711 828.16C345.783 827.767 344.028 826.492 342.328 825.981C340.376 825.386 339.677 819.945 338.083 819.212C336.063 818.287 331.848 825.121 330.489 824.005C328.378 822.241 327.976 816.831 327.976 814.759C327.976 812.687 330.011 811.114 332.129 809.339C333.458 808.276 335.926 810.667 337.931 809.743C339.525 808.999 340.93 807.862 342.889 807.267C344.583 806.746 345.654 800.688 347.575 800.295C349.329 799.944 351.478 803.175 353.384 802.931C355.168 802.707 357.059 805.375 358.95 805.269C360.841 805.162 362.473 800.72 364.357 800.72C366.24 800.72 368.07 801.432 369.877 801.549C371.684 801.666 373.309 806.299 375.094 806.533C377 806.767 379.187 801.889 380.933 802.282C382.862 802.676 384.662 803.345 386.355 803.876C388.314 804.472 389.233 808.85 390.836 809.583C392.848 810.508 395.574 807.522 396.91 808.637C399.044 810.359 402.947 812.687 402.947 814.759Z" fill="#FEE374"/>
<path d="M491.291 830.7C491.291 833.155 481.268 831.072 480.182 833.357C479.271 835.259 484.791 845.132 483.219 846.875C481.913 848.32 479.628 849.362 477.904 850.669C476.385 851.806 473.841 850.807 472.064 851.817C470.462 852.731 468.055 850.849 466.24 851.657C464.577 852.401 462.178 849.053 460.355 849.691C458.533 850.329 457.067 850.754 455.237 851.232C453.407 851.71 452.632 859.001 450.795 859.383C448.957 859.766 446.504 851.105 444.659 851.391C442.814 851.678 441.781 861.636 439.936 861.817C438.091 861.998 436.253 860.754 434.415 860.882C432.578 861.009 430.786 852.922 428.948 852.922C427.11 852.922 425.151 866.897 423.336 866.812C421.521 866.727 419.767 861.668 417.983 861.498C416.198 861.328 414.459 858.799 412.667 858.522C410.875 858.246 409.63 852.146 407.898 851.774C406.167 851.402 404.345 851.965 402.583 851.487C400.821 851.009 397.571 859.447 395.863 858.841C394.154 858.236 393.379 851.965 391.709 851.221C389.902 850.424 389.537 845.355 387.912 844.441C386.128 843.378 382.551 848.905 381.078 847.768C379.354 846.46 378.253 844.207 376.947 842.762C375.36 841.019 378.519 835.323 377.615 833.41C376.522 831.125 370.887 833.166 370.887 830.711C371.024 828.104 371.702 825.611 372.839 823.537C373.75 821.635 377.805 824.738 379.392 822.995C380.698 821.56 379.248 814.674 380.979 813.367C382.498 812.23 382.232 804.45 384.017 803.441C385.619 802.527 388.299 803.887 390.091 803.079C391.762 802.335 393.729 801.507 395.551 800.869C397.374 800.231 399.052 798.382 400.867 797.883C402.682 797.383 405.377 804.078 407.215 803.696C409.053 803.313 410.169 795.396 412.014 795.119C413.859 794.843 416.289 804.546 418.127 804.365C419.965 804.185 421.757 808.032 423.594 807.947C425.432 807.862 427.042 801.071 428.91 801.071C430.778 801.071 432.547 801.836 434.339 801.921C436.131 802.006 438.28 796.002 440.065 796.182C441.849 796.363 443.391 802.665 445.168 802.931C446.945 803.196 449.025 801.411 450.78 801.772C452.534 802.134 453.521 809.275 455.26 809.753C456.999 810.232 458.882 809.594 460.575 810.189C462.405 810.837 464.463 809.286 466.134 810.019C467.941 810.827 468.746 814.408 470.348 815.333C472.133 816.395 475.93 810.731 477.426 811.868C479.166 813.022 480.841 814.358 482.437 815.864C484.024 817.607 486.993 818.893 487.92 820.806C489.036 823.07 491.291 828.224 491.291 830.7Z" fill="#FEE374"/>
<path d="M605.059 717.625V766.723L595.78 792.909L595.491 793.738L570.941 791.474L561.494 790.592L539.594 788.573V729.846L561.494 730.707L571.298 731.089L596.076 732.078L605.059 717.625Z" fill="#FF6F61"/>
<path opacity="0.1" d="M605.059 720.526V766.723L602.788 773.121L600.465 779.678L595.78 792.909L596.304 743.81L596.41 733.906L600.867 727.009L602.811 724.001L605.059 720.526Z" fill="black"/>
<path d="M606.319 704.585V721.737L605.059 724.543L602.811 729.559L600.814 734.001L596.41 743.821L596.303 743.81L537.666 739.591V722.673L537.81 722.449L544.811 711.843L547.347 708.007L551.934 701.067L606.319 704.585Z" fill="#FF6F61"/>
<path opacity="0.1" d="M596.41 726.902V743.821L537.666 739.591V722.673L537.81 722.449L596.41 726.902Z" fill="black"/>
<path opacity="0.15" d="M606.319 704.585V721.737L596.41 743.821V726.902L606.319 704.585Z" fill="black"/>
<path d="M602.811 712.481V724.001V729.559L602.788 773.121L600.465 779.678L600.814 734.001L600.867 727.009L600.943 716.689L544.811 711.843L547.348 708.007L602.811 712.481Z" fill="#3F3D56"/>
<path d="M575.262 713.044L571.328 725L571.298 731.089L570.941 791.474L561.494 790.592V724.203L566.537 713.044H575.262Z" fill="#3F3D56"/>
<path d="M562.307 713.852C560.036 714.912 557.594 715.034 555.275 714.203C554.823 714.073 554.399 713.796 554.037 713.395C553.653 712.795 553.39 712.06 553.278 711.269C552.866 709.639 552.638 707.929 552.602 706.2C552.592 705.335 552.724 704.478 552.987 703.695C553.25 702.912 553.638 702.224 554.121 701.684C554.327 701.509 554.521 701.306 554.698 701.078C554.907 700.709 555.057 700.281 555.138 699.824C555.822 696.954 557.158 693.926 559.3 693.447C561.266 693.022 563.097 694.956 564.615 696.763L567.949 700.738C568.321 699.347 568.985 698.147 569.853 697.293C570.721 696.439 571.753 695.972 572.814 695.953C573.875 695.933 574.915 696.362 575.799 697.184C576.683 698.005 577.369 699.181 577.767 700.557C579.79 697.367 582.34 694.919 585.194 693.426C585.492 693.209 585.821 693.086 586.157 693.068C586.494 693.05 586.828 693.136 587.138 693.32C587.489 693.688 587.754 694.195 587.897 694.776C588.802 697.559 589.293 700.571 589.34 703.628C589.574 703.517 589.827 703.517 590.061 703.629C590.294 703.74 590.495 703.957 590.631 704.245C590.884 704.839 591.03 705.51 591.056 706.2C591.148 707.258 591.191 708.323 591.185 709.388C591.26 710.517 591.048 711.646 590.585 712.577C589.902 713.639 588.725 713.809 587.685 713.841C587.788 714.023 587.862 714.232 587.902 714.457C587.943 714.681 587.949 714.915 587.921 715.143C587.892 715.371 587.829 715.588 587.736 715.779C587.643 715.971 587.522 716.133 587.381 716.254C586.784 716.704 586.103 716.889 585.429 716.785C582.832 716.785 580.076 716.647 577.912 714.66C577.061 713.863 576.347 712.81 575.489 712.013C573.401 710.079 570.766 709.984 568.344 710.143C566.134 710.334 564.395 712.874 562.307 713.852Z" fill="#3F3D56"/>
<path d="M561.813 713.044C561.813 713.044 540.156 717.295 537.134 735.596L541.69 734.66L544.88 742.652C544.88 742.652 548.236 724.798 558.138 720.568C568.04 716.339 571.571 715.637 571.571 715.637C571.571 715.637 578.451 717.986 584.662 745.936L588.186 739.124L594.397 741.005C594.397 741.005 589.841 719.155 577.616 713.044H561.813Z" fill="#3F3D56"/>
<path d="M574.798 736.828V803.154L562.269 838.522L561.874 839.638L528.705 836.577L515.956 835.397L486.371 832.655V753.333L515.956 754.491L529.191 755.022L562.671 756.34L574.798 736.828Z" fill="#027F1F"/>
<path opacity="0.1" d="M574.798 740.739V803.154L571.738 811.794L568.602 820.646V820.657L562.269 838.522L562.975 772.196L563.12 758.816L569.141 749.507V749.496L571.761 745.436L574.798 740.739Z" fill="black"/>
<path d="M576.499 719.219V742.376L574.798 746.17L571.761 752.95L569.065 758.944L563.119 772.207L562.975 772.196L483.759 766.5V743.651L483.964 743.343L493.418 729.017L496.842 723.831L503.031 714.458L576.499 719.219Z" fill="#027F1F"/>
<path opacity="0.1" d="M563.119 749.358V772.207L483.759 766.5V743.651L483.964 743.343L563.119 749.358Z" fill="black"/>
<path opacity="0.15" d="M576.499 719.219V742.376L563.119 772.207V749.358L576.499 719.219Z" fill="black"/>
<path d="M571.769 729.878L571.761 745.436V752.95L571.738 811.794L568.602 820.646L569.065 758.944L569.141 749.507V749.496L569.247 735.564L493.418 729.017L496.842 723.831L571.769 729.878Z" fill="#3F3D56"/>
<path d="M534.552 730.633L529.237 746.786L529.191 755.022L528.705 836.577L515.956 835.397V745.713L522.759 730.633H534.552Z" fill="#3F3D56"/>
<path d="M517.057 731.727C513.985 733.155 510.685 733.317 507.549 732.195C506.941 732.035 506.371 731.671 505.886 731.132C505.365 730.326 505.008 729.339 504.854 728.273C504.3 726.071 503.992 723.763 503.942 721.429C503.925 720.261 504.099 719.102 504.452 718.043C504.805 716.983 505.327 716.051 505.977 715.319C506.25 715.088 506.505 714.817 506.737 714.511C507.016 714.007 507.218 713.428 507.329 712.81C508.263 708.931 510.063 704.84 512.948 704.224C515.614 703.65 518.044 706.253 520.094 708.698L524.597 714.011C525.097 712.13 525.993 710.503 527.165 709.346C528.338 708.189 529.733 707.555 531.168 707.528C532.602 707.5 534.009 708.08 535.204 709.192C536.399 710.303 537.326 711.894 537.863 713.756C540.593 709.451 544.034 706.146 547.887 704.128C548.737 703.682 549.739 703.32 550.522 703.99C551.005 704.482 551.37 705.168 551.569 705.956C552.794 709.714 553.458 713.782 553.521 717.912C553.837 717.766 554.178 717.769 554.492 717.921C554.806 718.073 555.076 718.364 555.26 718.751C555.609 719.547 555.807 720.454 555.837 721.387C555.959 722.829 556.019 724.281 556.019 725.733C556.123 727.271 555.835 728.81 555.207 730.08C554.28 731.578 552.693 731.738 551.281 731.78C551.964 732.63 551.63 734.331 550.878 735.043C550.072 735.649 549.153 735.897 548.243 735.755C544.735 735.755 541.007 735.574 538.091 732.843C536.937 731.78 535.972 730.335 534.818 729.272C531.986 726.647 528.432 726.52 525.159 726.743C522.22 726.966 519.866 730.452 517.057 731.727Z" fill="#3F3D56"/>
<path d="M516.411 730.643C516.411 730.643 487.161 736.35 483.083 761.101L489.203 759.837L493.509 770.623C493.509 770.623 498.065 746.51 511.422 740.792C524.779 735.075 529.563 734.129 529.563 734.129C529.563 734.129 538.858 737.317 547.249 775.066L552.01 765.862L560.363 768.402C560.363 768.402 554.243 738.89 537.688 730.643H516.411Z" fill="#3F3D56"/>
<path d="M622.266 769.773V810.816L614.513 832.708L614.27 833.41L593.744 831.508L585.847 830.774L567.539 829.085V779.986L585.847 780.709L594.04 781.027L614.763 781.846L622.266 769.773Z" fill="#3F3D56"/>
<path opacity="0.1" d="M622.266 772.196V810.816L620.375 816.172L618.431 821.645V821.656L614.513 832.708L614.953 791.666L615.045 783.387L618.765 777.616L620.39 775.097L622.266 772.196Z" fill="black"/>
<path d="M623.321 758.869V773.206L622.266 775.554L620.39 779.752L618.72 783.461L615.044 791.666H614.953L565.921 788.137V773.992L566.043 773.812L571.898 764.938L574.016 761.728L577.851 755.926L623.321 758.869Z" fill="#3F3D56"/>
<path opacity="0.1" d="M615.044 777.531V791.666L565.921 788.137V773.992L566.043 773.812L615.044 777.531Z" fill="black"/>
<path opacity="0.15" d="M623.321 758.869V773.206L615.044 791.666V777.531L623.321 758.869Z" fill="black"/>
<path d="M620.398 765.469L620.39 775.097V779.752L620.375 816.172L618.431 821.645L618.72 783.461L618.765 777.616L618.834 768.987L571.898 764.938L574.016 761.728L620.398 765.469Z" fill="#027F1F"/>
<path d="M597.359 765.937L594.071 775.937L594.041 781.028L593.745 831.508L585.847 830.774V775.268L590.062 765.937H597.359Z" fill="#027F1F"/>
<path d="M586.53 766.585C584.629 767.47 582.586 767.57 580.645 766.872C580.268 766.766 579.914 766.537 579.613 766.202C579.292 765.7 579.071 765.088 578.975 764.428C578.633 763.059 578.443 761.626 578.413 760.177C578.402 759.453 578.509 758.735 578.728 758.079C578.947 757.423 579.27 756.846 579.673 756.393C579.844 756.248 580.004 756.081 580.152 755.894C580.327 755.58 580.454 755.218 580.524 754.831C581.093 752.429 582.21 749.9 584.002 749.517C585.65 749.167 587.146 750.782 588.421 752.291L591.208 755.618C591.518 754.454 592.072 753.449 592.798 752.733C593.523 752.018 594.386 751.626 595.274 751.609C596.161 751.591 597.031 751.95 597.771 752.637C598.51 753.324 599.084 754.307 599.417 755.458C601.106 752.792 603.236 750.745 605.621 749.496C605.871 749.313 606.148 749.21 606.43 749.195C606.713 749.181 606.994 749.254 607.253 749.411C607.55 749.721 607.775 750.146 607.899 750.633C608.664 752.97 609.078 755.502 609.114 758.072C609.308 757.977 609.52 757.977 609.714 758.071C609.908 758.166 610.074 758.35 610.185 758.593C610.401 759.083 610.524 759.643 610.541 760.219C610.617 761.112 610.655 762.009 610.655 762.908C610.721 763.859 610.544 764.812 610.154 765.597C609.585 766.532 608.635 766.659 607.724 766.659C607.81 766.811 607.873 766.986 607.907 767.174C607.941 767.361 607.947 767.557 607.923 767.748C607.899 767.939 607.847 768.12 607.77 768.281C607.692 768.441 607.591 768.577 607.474 768.679C606.973 769.048 606.404 769.2 605.841 769.114C603.669 769.114 601.361 769.008 599.554 767.318C598.847 766.649 598.247 765.767 597.534 765.108C595.779 763.482 593.585 763.407 591.557 763.535C589.727 763.673 588.269 765.799 586.53 766.585Z" fill="#027F1F"/>
<path d="M586.113 765.937C586.113 765.937 568.01 769.476 565.489 784.8L569.286 784.014L571.951 790.688C571.951 790.688 574.761 775.81 583.038 772.228C591.315 768.647 594.261 768.105 594.261 768.105C594.261 768.105 600.017 770.071 605.211 793.44L608.157 787.744L613.351 789.317C613.351 789.317 609.554 771.048 599.318 765.937H586.113Z" fill="#027F1F"/>
<path d="M527.482 830.7C527.482 832.772 521.597 830.456 519.486 832.22C518.15 833.282 518.894 841.306 516.874 842.241C515.28 842.975 513.206 843.198 511.255 843.793C509.554 844.314 507.458 843.304 505.545 843.697C503.79 844.059 501.808 842.571 499.902 842.815C498.118 843.038 496.235 840.69 494.336 840.764C492.438 840.838 490.798 840.892 488.915 840.892C487.031 840.892 485.163 845.143 483.364 845.036C481.564 844.93 479.954 839.191 478.177 838.968C476.264 838.724 473.993 844.452 472.247 844.101C470.318 843.708 468.564 842.433 466.863 841.922C464.911 841.327 464.212 835.886 462.618 835.153C460.598 834.228 456.383 841.062 455.024 839.946C452.913 838.182 452.511 832.772 452.511 830.7C452.511 828.628 454.546 827.055 456.664 825.28C457.993 824.217 460.461 826.608 462.466 825.684C464.061 824.94 465.465 823.803 467.425 823.208C469.118 822.687 470.189 816.629 472.11 816.236C473.864 815.885 476.013 819.116 477.919 818.872C479.703 818.648 481.594 821.316 483.485 821.21C485.376 821.103 487.008 816.661 488.892 816.661C490.775 816.661 492.605 817.373 494.412 817.49C496.22 817.607 497.845 822.241 499.629 822.474C501.535 822.708 503.722 817.83 505.469 818.223C507.397 818.617 509.197 819.286 510.89 819.817C512.85 820.413 513.768 824.791 515.371 825.524C517.383 826.449 520.109 823.463 521.446 824.579C523.579 826.3 527.482 828.628 527.482 830.7Z" fill="#FEE374"/>
<path d="M576.082 830.7C576.082 832.772 570.197 830.456 568.086 832.22C566.749 833.282 567.493 841.306 565.473 842.241C563.879 842.975 561.806 843.198 559.854 843.793C558.153 844.314 556.057 843.304 554.144 843.697C552.39 844.059 550.408 842.571 548.502 842.815C546.717 843.038 544.834 840.69 542.935 840.764C541.037 840.838 539.397 840.892 537.514 840.892C535.63 840.892 533.762 845.143 531.963 845.036C530.163 844.93 528.553 839.191 526.776 838.968C524.863 838.724 522.592 844.452 520.846 844.101C518.917 843.708 517.163 842.433 515.462 841.922C513.51 841.327 512.812 835.886 511.217 835.153C509.197 834.228 504.983 841.062 503.623 839.946C501.512 838.182 501.11 832.772 501.11 830.7C501.11 828.628 503.145 827.055 505.264 825.28C506.592 824.217 509.06 826.608 511.065 825.684C512.66 824.94 514.065 823.803 516.024 823.208C517.717 822.687 518.788 816.629 520.709 816.236C522.463 815.885 524.612 819.116 526.518 818.872C528.303 818.648 530.193 821.316 532.084 821.21C533.975 821.103 535.608 816.661 537.491 816.661C539.374 816.661 541.204 817.373 543.011 817.49C544.819 817.607 546.444 822.241 548.228 822.474C550.134 822.708 552.321 817.83 554.068 818.223C555.996 818.617 557.796 819.286 559.49 819.817C561.449 820.413 562.368 824.791 563.97 825.524C565.982 826.449 568.708 823.463 570.045 824.579C572.178 826.3 576.082 828.628 576.082 830.7Z" fill="#FEE374"/>
<path d="M633.034 823.261C633.034 825.333 627.149 823.016 625.038 824.781C623.701 825.843 624.445 833.867 622.425 834.802C620.831 835.535 618.758 835.759 616.806 836.354C615.105 836.875 613.009 835.865 611.096 836.258C609.342 836.619 607.36 835.132 605.454 835.376C603.669 835.599 601.786 833.251 599.888 833.325C597.989 833.399 596.349 833.452 594.466 833.452C592.583 833.452 590.715 837.703 588.915 837.597C587.115 837.491 585.505 831.752 583.728 831.529C581.815 831.284 579.544 837.013 577.798 836.662C575.869 836.269 574.115 834.993 572.414 834.483C570.462 833.888 569.764 828.447 568.169 827.714C566.149 826.789 561.935 833.623 560.575 832.507C558.464 830.743 558.062 825.333 558.062 823.261C558.062 821.188 560.097 819.616 562.216 817.841C563.545 816.778 566.013 819.169 568.017 818.245C569.612 817.501 571.017 816.364 572.976 815.768C574.669 815.248 575.74 809.19 577.661 808.797C579.415 808.446 581.564 811.677 583.47 811.432C585.255 811.209 587.146 813.877 589.036 813.771C590.927 813.664 592.56 809.222 594.443 809.222C596.326 809.222 598.156 809.934 599.964 810.051C601.771 810.168 603.396 814.801 605.18 815.035C607.086 815.269 609.273 810.391 611.02 810.784C612.949 811.177 614.748 811.847 616.442 812.378C618.401 812.973 619.32 817.352 620.922 818.085C622.934 819.01 625.66 816.024 626.997 817.139C629.131 818.861 633.034 821.188 633.034 823.261Z" fill="#FEE374"/>
</g>
<defs>
<clipPath id="clip0">
<rect width="870" height="870" fill="white"/>
</clipPath>
</defs>
</svg>
