<svg width="1150" height="996" viewBox="0 0 1150 996" fill="none" xmlns="http://www.w3.org/2000/svg">
<path d="M430.999 305.5C413.88 406.945 433.973 475.916 458.5 545C524 529.333 659.001 493.133 654 491.5C624.869 481.986 595.615 388.419 590.499 305.5C593.067 273.141 592.213 242.443 596 219C649.367 191.263 436.5 113 305.5 58.5001C305.5 58.5001 281 46.5001 273 52.5001C265 58.5001 222.5 106.5 227 110.5C231.499 114.5 371.687 217.093 430.999 305.5Z" fill="#9B7F67" stroke="black"/>
<path d="M719 383.666C673.051 418.834 653.774 447.69 649.5 497.5H591L529 373.166C610.158 354.651 710.436 315.3 719 383.666Z" fill="#B8A18D" stroke="black"/>
<path d="M647.5 490L499 506.5L543 242L452 118C506.39 140.839 536.797 154.701 590.5 186C606.856 205.967 607.192 212.758 595 218.5C579.773 369.922 613.82 452.74 647.5 490Z" fill="#D6BCA6" stroke="black"/>
<ellipse cx="525.839" cy="580.939" rx="287.5" ry="77.5" transform="rotate(-10.5734 525.839 580.939)" fill="#F9F2DA"/>
<path d="M769 558L744 498C832.752 450.684 884.25 430.902 979.5 409L962.5 475.5H907.5L769 558Z" fill="#4C4C4C" stroke="black"/>
<ellipse cx="989" cy="443" rx="59" ry="37" fill="#4D4D4D"/>
<path d="M1035 465.5C1031.5 465.5 1037.79 447.148 1035 434L1064 452L1085 458C1086.09 459.562 1087.55 460.438 1086 462L1085 465.5H1035Z" fill="#7F7F7F"/>
<path d="M1086 462L1085 465.5C1085 465.5 1038.5 465.5 1035 465.5C1031.5 465.5 1037.79 447.148 1035 434L1064 452L1085 458C1086.09 459.562 1087.55 460.438 1086 462ZM1086 462L1039 459.5" stroke="black"/>
<path d="M975 426C976.452 429.809 980.742 461.633 978.5 479.5H979.5C1000.26 481.758 1028.01 472.868 1027 471.5C1025.99 470.132 1002.26 443.586 987.5 426C982.619 424.71 973.549 422.191 975 426Z" fill="#DFDFDF" stroke="#DFDFDF"/>
<path d="M1017 425C1017 427.761 1014.31 430 1011 430C1007.69 430 1005 427.761 1005 425C1005 422.239 1007.69 420 1011 420C1014.31 420 1017 422.239 1017 425Z" fill="#DEDEDE"/>
<path d="M140.5 593.5L254 605.5L244.5 636L140.5 676C136.843 664.907 127.468 643.228 127 617C133.048 614.157 134.453 611.63 133.5 605.5C138.012 599.854 139.16 597.434 140.5 593.5Z" fill="#6A6A6A" stroke="black"/>
<path d="M1014.5 425.268C1014.5 427.201 1012.71 428.768 1010.5 428.768C1008.29 428.768 1006.5 427.201 1006.5 425.268C1006.5 423.335 1008.29 421.768 1010.5 421.768C1012.71 421.768 1014.5 423.335 1014.5 425.268Z" fill="black"/>
<ellipse cx="1048.75" cy="447.251" rx="3.5" ry="1.5" transform="rotate(13.0322 1048.75 447.251)" fill="black"/>
<path d="M310.82 647.284L237.611 656.041L223.712 658.291L215.293 672.838L197.465 662.486L193.626 641.325L202.045 626.778L233.314 642.383L298.524 633.104L310.82 647.284Z" fill="#515151" stroke="black"/>
<path d="M303.804 624.107L230.242 629.105L216.246 630.641L207.094 644.738L189.819 633.486L187.068 612.157L196.221 598.06L226.65 615.245L292.25 609.316L303.804 624.107Z" fill="#515151" stroke="black"/>
<path d="M809.5 516.5C825.144 594.651 607.371 651.659 475 666.5C482.476 635.549 487.902 618.136 458 589C403.082 578.307 395.055 534.907 402 534.5C399.759 515.129 602.757 489.297 646.5 489.185C676.868 488.534 693.909 487.094 723.5 490.5C738.296 491.852 746.249 493.201 759.5 497.204C777.911 500.459 795.133 505.878 807.502 514.966C808.183 515.466 811.5 516.5 809.5 516.5Z" fill="#D6BCA5" stroke="black"/>
</svg>
