<svg width="790" height="437" viewBox="0 0 790 437" fill="none" xmlns="http://www.w3.org/2000/svg">
<path d="M388.569 324.08C389.079 317.386 391.218 312.642 396.5 306C392.351 300.798 425.184 238.698 448.514 212C460.046 178.118 475.93 158.548 503.5 137.387L434.5 75C386.672 30.3972 357.606 17.0012 301.5 15H282C281.345 14.6791 280.691 14.3647 280.04 14.0567L213.816 55.9902C196.705 70.1554 187.972 78.3396 190.498 97.9851C190.946 97.883 191.393 97.7824 191.841 97.6831C192.063 97.6331 192.282 97.5847 192.5 97.5381C206.483 94.54 211.919 98.5876 217.5 113C222.585 157.913 225.737 183.082 217.5 228.5C234.849 233.702 238.855 239.398 242 251.5C254.275 233.605 264.537 228.632 283 220C308.853 209.093 323.294 207.97 349 211C397.025 227.2 389.467 267.146 388.569 324.08Z" fill="#847871"/>
<path d="M503.5 137.387C503.791 137.163 504.083 136.94 504.377 136.716C510.211 132.27 516.563 127.747 523.5 123C523.684 118.65 531.533 114.889 543.5 112.297C531.306 98.8897 522.044 91.9353 503.5 80C503.5 78.3333 502.418 74.9474 501 72.5C497.15 65.8539 482.218 54.4255 471 48.1223C467.225 46.001 463.87 44.4602 461.5 43.8775C436.921 25.8778 412.066 14.6572 373.5 5.50001C331.849 1.22745 317.349 4.05326 301.5 15C357.606 17.0012 386.672 30.3972 434.5 75L503.5 137.387Z" fill="#847871"/>
<path d="M217.5 228.5C225.737 183.082 222.585 157.913 217.5 113C211.919 98.5876 206.483 94.54 192.5 97.5381C192.28 97.5861 192.061 97.6344 191.841 97.6831C191.402 97.7821 190.955 97.8878 190.5 98H190.433C160.338 104.87 130.888 117.895 121.623 125.757C121.787 127.616 121.717 129.645 121.5 132C136.217 165.744 140.943 185.115 139 221L141 226.5L217.5 228.5Z" fill="#847871"/>
<path d="M349 211C323.294 207.97 308.853 209.093 283 220C264.537 228.632 254.275 233.605 242 251.5L240 270L260.5 259.5L296.5 272.5C311.241 284.742 319.143 292.356 330.5 311.598L301 353.5C315.63 356.502 325.516 354.693 347 343.5L388.5 330.5C388.41 328.133 388.421 326.024 388.569 324.08C389.467 267.146 397.025 227.2 349 211Z" fill="#847871"/>
<path d="M83.5 38.5C71.3009 37.4288 65.5886 59.0985 71.5 67V68C91.2779 85.3471 101.234 95.9392 141 98H190.433L190.498 97.9851C187.972 78.3396 196.705 70.1554 213.816 55.9902L280.04 14.0567C247.327 -1.41435 219.496 -0.790906 163 8.49999C124.451 17.0296 108.292 24.1283 83.5 38.5Z" fill="#847871"/>
<path fill-rule="evenodd" clip-rule="evenodd" d="M738 329L740 327.5L740.8 324.5C744.772 313.49 745.262 308.18 741.5 301L743 260.5C734.885 230.119 727.31 212.703 709.21 185.5C708.02 183.711 706.784 181.88 705.5 180C696.191 161.025 690.34 150.592 672.5 134.388C664.048 128.236 654.615 122.698 644.981 118.5C632.437 113.22 616.342 110.276 600 109.128C581.569 107.833 562.823 108.822 548.5 111.323C546.766 111.626 545.096 111.951 543.5 112.297C531.533 114.889 523.684 118.65 523.5 123C516.563 127.747 510.211 132.27 504.377 136.716C504.083 136.94 503.791 137.163 503.5 137.387C475.93 158.548 460.046 178.118 448.514 212C446.563 217.731 444.737 223.872 443 230.5C435.706 252.145 432.073 264.288 429 286C430.492 295.502 432.093 303.951 433.975 311.598C437.753 326.957 442.659 339.081 450.066 350C454.306 356.25 459.364 362.105 465.5 367.945C497.929 387.996 520.816 390.171 567 376.5L563.5 372H551.5L566 343.5C585.92 311.885 599.162 297.198 632 284.5L686.5 275.5C699.591 276.785 706.929 277.506 708 284.5L721.858 305.056L738 329ZM575.5 260.5C568.783 247.37 562.308 244.146 543.5 249.5C536.666 259.432 535.404 265.006 538 274.959C544.504 280.185 554.772 287.598 562 286C576.382 281.78 578.195 275.478 575.5 260.5ZM690 237C686.896 227.823 686.85 222.677 690 213.5H691.5C694.974 217.594 696.239 219.891 695.5 224C697.715 231.406 697.034 234.723 695.5 240.5C693.947 240.426 692.953 240.117 690 237Z" fill="#847871"/>
<path d="M429 286C432.073 264.288 435.706 252.145 443 230.5C444.737 223.872 446.563 217.731 448.514 212C425.184 238.698 392.351 300.798 396.5 306C402.056 311.83 405.394 314.928 415.02 313.189C415.804 313.038 427.983 312.066 433.975 311.598C432.093 303.951 430.492 295.502 429 286Z" fill="#847871"/>
<path d="M501 72.5C502.418 74.9474 503.5 78.3333 503.5 80C522.044 91.9353 531.306 98.8897 543.5 112.297C545.096 111.951 546.766 111.626 548.5 111.323C543 80.2421 525.941 72.5771 503.5 56C501.916 55.3971 502.418 54.8357 501 54.3134C482.451 47.4806 477.552 47.3261 471 48.1223C482.218 54.4255 497.15 65.8539 501 72.5Z" fill="#847871"/>
<path d="M566 343.5C590.288 368.796 605.078 381.161 634.5 398.5H636.5C661.068 410.76 674.369 412.077 697 401.5L740 379.5C748.942 365.441 749.299 357.559 740 343.5L721.858 305.056M566 343.5L551.5 372H563.5L567 376.5M566 343.5C585.92 311.885 599.162 297.198 632 284.5L686.5 275.5C699.591 276.785 706.929 277.506 708 284.5L721.858 305.056M719 299L721.858 305.056M738 329L740 327.5L740.8 324.5C744.772 313.49 745.262 308.18 741.5 301L743 260.5M738 329C750.398 344.334 757.803 352.894 773 368C770.612 382.637 765.666 390.552 748.5 404L695 427.5C682.275 436.501 672.636 439.923 631.5 430.5C601.338 413.062 587.128 401.302 567 376.5M738 329L721.858 305.056M743 260.5C734.885 230.119 727.31 212.703 709.21 185.5M743 260.5C769.549 273.924 779.096 274.64 786 263C793.776 239.059 788.424 227.98 771.5 210C747.985 185.41 734.057 185.411 709.21 185.5M709.21 185.5C708.02 183.711 706.784 181.88 705.5 180C696.191 161.025 690.34 150.592 672.5 134.388C664.048 128.236 654.615 122.698 644.981 118.5C632.437 113.22 616.342 110.276 600 109.128M479 379.5C478.495 379.105 477.995 378.711 477.5 378.317M477.5 378.317C513.943 403.101 539.815 407.163 590 401.5M477.5 378.317C473.092 374.813 469.11 371.382 465.5 367.945M465.5 367.945C497.929 387.996 520.816 390.171 567 376.5M465.5 367.945C459.364 362.105 454.306 356.25 450.066 350M450.066 350L388.5 330.5M450.066 350C442.659 339.081 437.753 326.957 433.975 311.598M388.5 330.5L347 343.5C325.516 354.693 315.63 356.502 301 353.5M388.5 330.5C388.512 328.337 388.536 326.197 388.569 324.08M388.5 330.5C388.41 328.133 388.421 326.024 388.569 324.08M396.5 306C402.056 311.83 405.394 314.928 415.02 313.189M396.5 306C392.351 300.798 425.184 238.698 448.514 212M396.5 306C391.218 312.642 389.079 317.386 388.569 324.08M416 313C415.666 313.068 415.34 313.131 415.02 313.189M415.02 313.189C415.804 313.038 427.983 312.066 433.975 311.598M433.975 311.598C432.093 303.951 430.492 295.502 429 286C432.073 264.288 435.706 252.145 443 230.5C444.737 223.872 446.563 217.731 448.514 212M448.514 212C460.046 178.118 475.93 158.548 503.5 137.387M448.514 212C460.168 177.76 476.266 158.136 504.377 136.716M242 251.5C254.275 233.605 264.537 228.632 283 220C308.853 209.093 323.294 207.97 349 211C397.025 227.2 389.467 267.146 388.569 324.08M242 251.5L240 270M242 251.5C238.855 239.398 234.849 233.702 217.5 228.5M240 270L260.5 259.5L296.5 272.5C311.241 284.742 319.143 292.356 330.5 311.598L301 353.5M240 270C223.122 282.83 215.639 290.195 210 304C172.186 307.668 157.437 313.165 149 332.5C145.627 364.221 159.969 374.351 213 379.5C234.743 377.052 244.297 373.87 254.5 363.5C267.531 361.964 273.91 358.999 283 348.5M301 353.5L283 348.5M283 348.5L310 319M167 328C177.847 321.111 184.292 319.808 197 326M167 328L175 347.5M167 328L156 330.5M175 347.5L163 355M175 347.5L179.5 347.781M191 348.5L208.5 334M191 348.5L179.5 347.781M191 348.5C203.798 348.723 210.461 351.717 218 359.263L206.5 367.945L245.5 338.5M179.5 347.781L193.5 330.5M245.5 338.5L223.646 355L226 335.5M245.5 338.5L270 322M217.5 228.5C225.737 183.082 222.585 157.913 217.5 113C211.919 98.5876 206.483 94.54 192.5 97.5381M217.5 228.5L141 226.5L139 221M190.5 98C190.955 97.8878 191.402 97.7821 191.841 97.6831M190.5 98C190.499 97.995 190.499 97.99 190.498 97.9851M190.5 98H190.433M139 221C140.943 185.115 136.217 165.744 121.5 132M139 221L105 223C79.4498 237.712 61.3258 238.478 24 230C6.21532 224.005 0.844047 217.148 0.999985 197.5L18 177L33.5 155C50.6798 142.841 66.6049 144.271 94 145.5L121.5 132M121.5 132C121.717 129.645 121.787 127.616 121.623 125.757M88.5 150L74 165.5C62.9482 160.325 56.7267 158.893 45.5 164L27.5 186M27.5 186H17M27.5 186C30.2629 191.505 30.7583 194.675 29.5 200.5M29.5 200.5L10.5 202M29.5 200.5L38 211M38 211L27.5 217.5M38 211L59 206.5M59 206.5L54 195L71.5 179.5M59 206.5C65.8357 205.157 68.8736 203.499 72.5 198.5M71.5 68C74.9613 84.8402 83.5574 94.6423 115 113C119.44 117.723 121.225 121.234 121.623 125.757M71.5 68V67C65.5886 59.0985 71.3009 37.4288 83.5 38.5C108.292 24.1283 124.451 17.0296 163 8.49999C219.496 -0.790906 247.327 -1.41435 280.04 14.0567M71.5 68C91.2779 85.3471 101.234 95.9392 141 98H190.433M301.5 15H282C281.345 14.6791 280.691 14.3647 280.04 14.0567M301.5 15C317.349 4.05326 331.849 1.22745 373.5 5.50001C412.066 14.6572 436.921 25.8778 461.5 43.8775C463.87 44.4602 467.225 46.001 471 48.1223M301.5 15C357.606 17.0012 386.672 30.3972 434.5 75L503.5 137.387M215 55.5C214.603 55.6651 214.209 55.8285 213.816 55.9902M192.5 97.5381C192.282 97.5847 192.063 97.6331 191.841 97.6831M192.5 97.5381C192.28 97.5861 192.061 97.6344 191.841 97.6831M213.816 55.9902C174.088 72.3645 155.798 71.9281 127.5 62L103 42.5M213.816 55.9902L280.04 14.0567M213.816 55.9902C196.705 70.1554 187.972 78.3396 190.498 97.9851M503.5 137.387C503.791 137.163 504.083 136.94 504.377 136.716M543.5 112.297C531.533 114.889 523.684 118.65 523.5 123C516.563 127.747 510.211 132.27 504.377 136.716M543.5 112.297C531.306 98.8897 522.044 91.9353 503.5 80C503.5 78.3333 502.418 74.9474 501 72.5C497.15 65.8539 482.218 54.4255 471 48.1223M543.5 112.297C545.096 111.951 546.766 111.626 548.5 111.323M471 48.1223C477.552 47.3261 482.451 47.4806 501 54.3134M548.5 111.323C543 80.2421 525.941 72.5771 503.5 56C501.916 55.3971 502.418 54.8357 501 54.3134M548.5 111.323C562.823 108.822 581.569 107.833 600 109.128M501 54.3134C523.387 50.7112 537.003 50.0299 567 56C585.66 64.8965 591.345 69.7004 594.5 78C605.226 87.431 608.435 92.9355 604.5 103.5L600 109.128M121.623 125.757C130.888 117.895 160.338 104.87 190.433 98M270 322L268.5 330.5L251.5 353.5M270 322C275.619 312.855 279.856 309.03 293.5 309.5M690 226.5C691.423 226.156 692.099 225.655 693 224M690 226.5L689.958 226.396M690 226.5C689.986 226.465 689.972 226.43 689.958 226.396M691.5 220.5H690C688.608 223.036 689.101 224.263 689.958 226.396M691.5 220.5C692.086 221.867 692.414 222.633 693 224M691.5 220.5L693 224M190.498 97.9851C190.946 97.883 191.393 97.7824 191.841 97.6831M190.498 97.9851C190.476 97.99 190.454 97.995 190.433 98M190.498 97.9851L190.433 98M543.5 249.5C562.308 244.146 568.783 247.37 575.5 260.5C578.195 275.478 576.382 281.78 562 286C554.772 287.598 544.504 280.185 538 274.959C535.404 265.006 536.666 259.432 543.5 249.5ZM690 213.5C686.85 222.677 686.896 227.823 690 237C692.953 240.117 693.947 240.426 695.5 240.5C697.034 234.723 697.715 231.406 695.5 224C696.239 219.891 694.974 217.594 691.5 213.5H690ZM562 260.5C567.14 260.059 568.996 261.196 569.5 267C566.163 267.961 563.825 269.598 562 267C560.471 264.462 560.357 263.038 562 260.5Z" stroke="black"/>
<path fill-rule="evenodd" clip-rule="evenodd" d="M543.5 248.5C562.308 243.146 568.783 246.37 575.5 259.5C578.195 274.478 576.382 280.78 562 285C554.772 286.598 544.504 279.185 538 273.959C535.404 264.006 536.666 258.432 543.5 248.5ZM569.5 266C568.996 260.196 567.14 259.059 562 259.5C560.357 262.038 560.471 263.462 562 266C563.825 268.598 566.163 266.961 569.5 266Z" fill="#111111"/>
<path fill-rule="evenodd" clip-rule="evenodd" d="M690 212.5C686.85 221.677 686.896 226.823 690 236C692.953 239.117 693.947 239.426 695.5 239.5C697.034 233.723 697.715 230.406 695.5 223C696.239 218.891 694.974 216.594 691.5 212.5H690ZM689.958 225.396C689.101 223.263 688.608 222.036 690 219.5H691.5L693 223C692.099 224.655 691.423 225.156 690 225.5L689.958 225.396Z" fill="#111111"/>
<path d="M566 342.5C590.288 367.796 605.078 380.161 634.5 397.5H636.5C661.068 409.76 674.369 411.077 697 400.5L740 378.5C748.942 364.441 749.299 356.559 740 342.5L719 298M738 328L740 326.5L740.8 323.5C744.772 312.49 745.262 307.18 741.5 300L743 259.5M743 259.5C734.885 229.119 727.31 211.703 709.21 184.5M743 259.5C769.549 272.924 779.096 273.64 786 262C793.776 238.059 788.424 226.98 771.5 209C747.985 184.41 734.057 184.411 709.21 184.5M709.21 184.5C708.02 182.711 706.784 180.88 705.5 179C696.191 160.025 690.34 149.592 672.5 133.388C664.048 127.236 654.615 121.698 644.981 117.5C632.437 112.22 616.342 109.276 600 108.128M603.5 110C602.996 109.914 602.496 109.829 602 109.747M479 378.5C478.495 378.105 477.995 377.711 477.5 377.317M477.5 377.317C513.943 402.101 538.815 406.163 589 400.5H590M477.5 377.317C473.092 373.813 469.11 370.382 465.5 366.945M465.5 366.945C497.929 386.996 519.816 389.171 566 375.5M465.5 366.945C459.364 361.105 454.306 355.25 450.066 349M450.066 349L388.5 329.5M450.066 349C442.659 338.081 437.753 325.957 433.975 310.598M388.5 329.5C388.102 318.981 389.684 313.571 396.5 305M388.5 329.5C388.828 269.149 398.81 226.802 349 210C323.294 206.97 308.853 208.093 283 219C264.537 227.632 254.275 232.605 242 250.5M388.5 329.5L347 342.5C325.516 353.693 315.63 355.502 301 352.5M396.5 305C402.056 310.83 405.394 313.928 415.02 312.189M396.5 305C392.351 299.798 425.184 237.698 448.514 211M416 312C415.666 312.068 415.34 312.131 415.02 312.189M415.02 312.189C415.804 312.038 427.983 311.066 433.975 310.598M433.975 310.598C432.093 302.951 430.492 294.502 429 285C432.073 263.288 435.706 251.145 443 229.5C444.737 222.872 446.563 216.731 448.514 211M448.514 211C462.587 169.654 483.14 149.62 523.5 122C523.684 117.65 531.533 113.889 543.5 111.297M242 250.5L240 269M242 250.5C238.855 238.398 234.849 232.702 217.5 227.5M240 269L260.5 258.5L296.5 271.5C311.241 283.742 319.143 291.356 330.5 310.598L301 352.5M240 269C223.122 281.83 215.639 289.195 210 303C172.186 306.668 157.437 312.165 149 331.5C145.627 363.221 159.969 373.351 213 378.5C234.743 376.052 244.297 372.87 254.5 362.5C267.531 360.964 273.91 357.999 283 347.5M301 352.5L283 347.5M283 347.5L310 318M167 327C177.847 320.111 184.292 318.808 197 325M167 327L175 346.5M167 327L156 329.5M175 346.5L163 354M175 346.5L179.5 346.781M191 347.5L208.5 333M191 347.5L179.5 346.781M191 347.5C203.798 347.723 210.461 350.717 218 358.263L206.5 366.945L245.5 337.5M179.5 346.781L193.5 329.5M245.5 337.5L223.646 354L226 334.5M245.5 337.5L270 321M217.5 227.5C225.737 182.082 222.585 156.913 217.5 112C211.919 97.5876 206.483 93.54 192.5 96.5381M217.5 227.5L141 225.5L139 220M190.5 97H141C101.234 94.9392 91.2779 84.3471 71.5 67M190.5 97C191.186 96.8311 191.852 96.677 192.5 96.5381M190.5 97C187.968 77.3437 196.701 69.1589 213.816 54.9902M139 220C140.943 184.115 136.217 164.744 121.5 131M139 220L105 222C79.4498 236.712 61.3258 237.478 24 229C6.21532 223.005 0.844047 216.148 0.999985 196.5L18 176L33.5 154C50.6798 141.841 66.6049 143.271 94 144.5L121.5 131M121.5 131C121.717 128.645 121.787 126.616 121.623 124.757M88.5 149L74 164.5C62.9482 159.325 56.7267 157.893 45.5 163L27.5 185M27.5 185H17M27.5 185C30.2629 190.505 30.7583 193.675 29.5 199.5M29.5 199.5L10.5 201M29.5 199.5L38 210M38 210L27.5 216.5M38 210L59 205.5M59 205.5L54 194L71.5 178.5M59 205.5C65.8357 204.157 68.8736 202.499 72.5 197.5M71.5 67C74.9613 83.8402 83.5574 93.6423 115 112C119.44 116.723 121.225 120.234 121.623 124.757M71.5 67V66C65.5886 58.0985 71.3009 36.4288 83.5 37.5C108.292 23.1283 124.451 16.0296 163 7.49999C219.496 -1.79091 247.327 -2.41435 280.04 13.0567M301.5 14H282C281.345 13.6791 280.691 13.3647 280.04 13.0567M301.5 14C317.349 3.05326 331.849 0.227441 373.5 4.5C412.066 13.6572 436.921 24.8778 461.5 42.8775C463.87 43.4602 467.225 45.001 471 47.1223M301.5 14C357.606 16.0012 386.672 29.3972 434.5 74L503.5 136.387M215 54.5C214.603 54.6651 214.209 54.8285 213.816 54.9902M192.5 96.5381C161.697 103.271 131.1 116.715 121.623 124.757M213.816 54.9902C174.088 71.3645 155.798 70.9281 127.5 61L103 41.5M213.816 54.9902L280.04 13.0567M543.5 111.297C531.306 97.8897 522.044 90.9353 503.5 79C503.5 77.3333 502.418 73.9474 501 71.5C497.15 64.8539 482.218 53.4255 471 47.1223M543.5 111.297C545.096 110.951 546.766 110.626 548.5 110.323M471 47.1223C477.552 46.3261 482.451 46.4806 501 53.3134M505.5 55C503.916 54.3971 502.418 53.8357 501 53.3134M503.5 55C525.941 71.5771 543 79.2421 548.5 110.323M548.5 110.323C562.823 107.822 581.569 106.833 600 108.128M501 53.3134C523.387 49.7112 537.003 49.0299 567 55C585.66 63.8965 591.345 68.7004 594.5 77C605.226 86.431 608.435 91.9355 604.5 102.5L600 108.128M270 321L268.5 329.5L251.5 352.5M270 321C275.619 311.855 279.856 308.03 293.5 308.5M690 225.5C691.423 225.156 692.099 224.655 693 223M690 225.5L689.958 225.396M690 225.5C689.986 225.465 689.972 225.43 689.958 225.396M691.5 219.5H690C688.608 222.036 689.101 223.263 689.958 225.396M691.5 219.5C692.086 220.867 692.414 221.633 693 223M691.5 219.5L693 223M543.5 248.5C562.308 243.146 568.783 246.37 575.5 259.5C578.195 274.478 576.382 280.78 562 285C554.772 286.598 544.504 279.185 538 273.959C535.404 264.006 536.666 258.432 543.5 248.5ZM690 212.5C686.85 221.677 686.896 226.823 690 236C692.953 239.117 693.947 239.426 695.5 239.5C697.034 233.723 697.715 230.406 695.5 223C696.239 218.891 694.974 216.594 691.5 212.5H690ZM562 259.5C567.14 259.059 568.996 260.196 569.5 266C566.163 266.961 563.825 268.598 562 266C560.471 263.462 560.357 262.038 562 259.5Z" stroke="black"/>
<path d="M528 132C514.191 148.597 513.14 157.903 528 174.5L566.5 216.5C581.999 228.531 583.874 241.923 586 267" stroke="black"/>
<path d="M566 343.5C590.288 368.796 605.078 381.161 634.5 398.5H636.5C661.068 410.76 674.369 412.077 697 401.5L740 379.5C748.942 365.441 749.299 357.559 740 343.5L721.858 305.056L708 284.5C706.929 277.506 699.591 276.785 686.5 275.5L632 284.5C599.162 297.198 585.92 311.885 566 343.5Z" fill="#6C6C6C"/>
<path d="M709.21 185.5C727.31 212.703 734.885 230.119 743 260.5C769.549 273.924 779.096 274.64 786 263C793.776 239.059 788.424 227.98 771.5 210C747.985 185.41 734.057 185.411 709.21 185.5Z" fill="#6C6C6C"/>
<path d="M260.5 259.5L240 270C223.122 282.83 215.639 290.195 210 304C172.186 307.668 157.437 313.165 149 332.5C145.627 364.221 159.969 374.351 213 379.5C234.743 377.052 244.297 373.87 254.5 363.5C267.531 361.964 273.91 358.999 283 348.5L301 353.5L330.5 311.598C319.143 292.356 311.241 284.742 296.5 272.5L260.5 259.5Z" fill="#6C6C6C"/>
<path d="M634.5 398.5C605.078 381.161 590.288 368.796 566 343.5L551.5 372H563.5L567 376.5C587.128 401.302 601.338 413.062 631.5 430.5C672.636 439.923 682.275 436.501 695 427.5L748.5 404C765.666 390.552 770.612 382.637 773 368C757.803 352.894 750.398 344.334 738 329L721.858 305.056L740 343.5C749.299 357.559 748.942 365.441 740 379.5L697 401.5C674.369 412.077 661.068 410.76 636.5 398.5H634.5Z" fill="#6C6C6C"/>
<path d="M139 221C140.943 185.115 136.217 165.744 121.5 132L94 145.5C92.6067 145.438 91.2431 145.374 89.9074 145.313C64.9817 144.161 49.8061 143.46 33.5 155L18 177L0.999985 197.5C0.844047 217.148 6.21532 224.005 24 230C61.3258 238.478 79.4498 237.712 105 223L139 221Z" fill="#6C6C6C"/>
<path d="M503.5 56C525.941 72.5771 543 80.2421 548.5 111.323C562.823 108.822 581.569 107.833 600 109.128L604.5 103.5C608.435 92.9355 605.226 87.431 594.5 78C591.345 69.7004 585.66 64.8965 567 56C537.003 50.0299 523.387 50.7112 501 54.3134C502.418 54.8357 501.916 55.3971 503.5 56Z" fill="#6C6C6C"/>
<path d="M566 343.5C590.288 368.796 605.078 381.161 634.5 398.5H636.5C661.068 410.76 674.369 412.077 697 401.5L740 379.5C748.942 365.441 749.299 357.559 740 343.5L721.858 305.056M566 343.5L551.5 372H563.5L567 376.5M566 343.5C585.92 311.885 599.162 297.198 632 284.5L686.5 275.5C699.591 276.785 706.929 277.506 708 284.5L721.858 305.056M719 299L721.858 305.056M738 329L740 327.5L740.8 324.5C744.772 313.49 745.262 308.18 741.5 301L743 260.5M738 329C750.398 344.334 757.803 352.894 773 368C770.612 382.637 765.666 390.552 748.5 404L695 427.5C682.275 436.501 672.636 439.923 631.5 430.5C601.338 413.062 587.128 401.302 567 376.5M738 329L721.858 305.056M743 260.5C734.885 230.119 727.31 212.703 709.21 185.5M743 260.5C769.549 273.924 779.096 274.64 786 263C793.776 239.059 788.424 227.98 771.5 210C747.985 185.41 734.057 185.411 709.21 185.5M709.21 185.5C708.02 183.711 706.784 181.88 705.5 180C696.191 161.025 690.34 150.592 672.5 134.388C664.048 128.236 654.615 122.698 644.981 118.5C632.437 113.22 616.342 110.276 600 109.128M479 379.5C478.495 379.105 477.995 378.711 477.5 378.317M477.5 378.317C513.943 403.101 539.815 407.163 590 401.5M477.5 378.317C473.092 374.813 469.11 371.382 465.5 367.945M465.5 367.945C497.929 387.996 520.816 390.171 567 376.5M465.5 367.945C459.364 362.105 454.306 356.25 450.066 350M450.066 350L388.5 330.5M450.066 350C442.659 339.081 437.753 326.957 433.975 311.598M388.5 330.5L347 343.5C325.516 354.693 315.63 356.502 301 353.5M388.5 330.5C388.512 328.337 388.536 326.197 388.569 324.08M388.5 330.5C388.41 328.133 388.421 326.024 388.569 324.08M396.5 306C402.056 311.83 405.394 314.928 415.02 313.189M396.5 306C392.351 300.798 425.184 238.698 448.514 212M396.5 306C391.218 312.642 389.079 317.386 388.569 324.08M416 313C415.666 313.068 415.34 313.131 415.02 313.189M415.02 313.189C415.804 313.038 427.983 312.066 433.975 311.598M433.975 311.598C432.093 303.951 430.492 295.502 429 286C432.073 264.288 435.706 252.145 443 230.5C444.737 223.872 446.563 217.731 448.514 212M448.514 212C460.046 178.118 475.93 158.548 503.5 137.387M448.514 212C460.129 177.876 476.158 158.269 504.093 136.933M242 251.5C254.275 233.605 264.537 228.632 283 220C308.853 209.093 323.294 207.97 349 211C397.025 227.2 389.467 267.146 388.569 324.08M242 251.5L240 270M242 251.5C238.855 239.398 234.849 233.702 217.5 228.5M240 270L260.5 259.5L296.5 272.5C311.241 284.742 319.143 292.356 330.5 311.598L301 353.5M240 270C223.122 282.83 215.639 290.195 210 304C172.186 307.668 157.437 313.165 149 332.5C145.627 364.221 159.969 374.351 213 379.5C234.743 377.052 244.297 373.87 254.5 363.5C267.531 361.964 273.91 358.999 283 348.5M301 353.5L283 348.5M283 348.5L310 319M167 328C177.847 321.111 184.292 319.808 197 326M167 328L175 347.5M167 328L156 330.5M175 347.5L163 355M175 347.5L179.5 347.781M191 348.5L208.5 334M191 348.5L179.5 347.781M191 348.5C203.798 348.723 210.461 351.717 218 359.263L206.5 367.945L245.5 338.5M179.5 347.781L193.5 330.5M245.5 338.5L223.646 355L226 335.5M245.5 338.5L270 322M217.5 228.5C225.737 183.082 222.585 157.913 217.5 113C211.919 98.5876 206.483 94.54 192.5 97.5381M217.5 228.5L141 226.5L139 221M190.5 98C190.955 97.8878 191.402 97.7821 191.841 97.6831M190.5 98C190.499 97.995 190.499 97.99 190.498 97.9851M190.5 98H190.433M139 221C140.943 185.115 136.217 165.744 121.5 132M139 221L105 223C79.4498 237.712 61.3258 238.478 24 230C6.21532 224.005 0.844047 217.148 0.999985 197.5L18 177L33.5 155C49.8061 143.46 64.9817 144.161 89.9074 145.313C91.2431 145.374 92.6067 145.438 94 145.5L121.5 132M121.5 132C121.717 129.645 121.787 127.616 121.623 125.757M88.5 150L74 165.5C62.9482 160.325 56.7267 158.893 45.5 164L27.5 186M27.5 186H17M27.5 186C30.2629 191.505 30.7583 194.675 29.5 200.5M29.5 200.5L10.5 202M29.5 200.5L38 211M38 211L27.5 217.5M38 211L59 206.5M59 206.5L54 195L71.5 179.5M59 206.5C65.8357 205.157 68.8736 203.499 72.5 198.5M71.5 68C74.9613 84.8402 83.5574 94.6423 115 113C119.44 117.723 121.225 121.234 121.623 125.757M71.5 68V67C65.5886 59.0985 71.3009 37.4288 83.5 38.5C108.292 24.1283 124.451 17.0296 163 8.49999C219.496 -0.790906 247.327 -1.41435 280.04 14.0567M71.5 68C91.2779 85.3471 101.234 95.9392 141 98H190.433M301.5 15H282C281.345 14.6791 280.691 14.3647 280.04 14.0567M301.5 15C317.349 4.05326 331.849 1.22745 373.5 5.50001C412.066 14.6572 436.921 25.8778 461.5 43.8775C463.87 44.4602 467.225 46.001 471 48.1223M301.5 15C357.606 17.0012 386.672 30.3972 434.5 75L503.5 137.387M215 55.5C214.603 55.6651 214.209 55.8285 213.816 55.9902M192.5 97.5381C192.282 97.5847 192.063 97.6331 191.841 97.6831M192.5 97.5381C192.28 97.5861 192.061 97.6344 191.841 97.6831M213.816 55.9902C174.088 72.3645 155.798 71.9281 127.5 62L103 42.5M213.816 55.9902L280.04 14.0567M213.816 55.9902C196.705 70.1554 187.972 78.3396 190.498 97.9851M503.5 137.387C503.697 137.235 503.894 137.084 504.093 136.933M543.5 112.297C531.533 114.889 523.684 118.65 523.5 123C516.563 127.747 510.211 132.27 504.377 136.716M543.5 112.297C531.306 98.8897 522.044 91.9353 503.5 80C503.5 78.3333 502.418 74.9474 501 72.5C497.15 65.8539 482.218 54.4255 471 48.1223M543.5 112.297C545.096 111.951 546.766 111.626 548.5 111.323M471 48.1223C477.552 47.3261 482.451 47.4806 501 54.3134M548.5 111.323C543 80.2421 525.941 72.5771 503.5 56C501.916 55.3971 502.418 54.8357 501 54.3134M548.5 111.323C562.823 108.822 581.569 107.833 600 109.128M501 54.3134C523.387 50.7112 537.003 50.0299 567 56C585.66 64.8965 591.345 69.7004 594.5 78C605.226 87.431 608.435 92.9355 604.5 103.5L600 109.128M121.623 125.757C130.888 117.895 160.338 104.87 190.433 98M270 322L268.5 330.5L251.5 353.5M270 322C275.619 312.855 279.856 309.03 293.5 309.5M690 226.5C691.423 226.156 692.099 225.655 693 224M690 226.5L689.958 226.396M690 226.5C689.986 226.465 689.972 226.43 689.958 226.396M691.5 220.5H690C688.608 223.036 689.101 224.263 689.958 226.396M691.5 220.5C692.086 221.867 692.414 222.633 693 224M691.5 220.5L693 224M190.498 97.9851C190.946 97.883 191.393 97.7824 191.841 97.6831M190.498 97.9851C190.476 97.99 190.454 97.995 190.433 98M190.498 97.9851L190.433 98M504.377 136.716C504.282 136.788 504.187 136.861 504.093 136.933M504.377 136.716L504.093 136.933M543.5 249.5C562.308 244.146 568.783 247.37 575.5 260.5C578.195 275.478 576.382 281.78 562 286C554.772 287.598 544.504 280.185 538 274.959C535.404 265.006 536.666 259.432 543.5 249.5ZM690 213.5C686.85 222.677 686.896 227.823 690 237C692.953 240.117 693.947 240.426 695.5 240.5C697.034 234.723 697.715 231.406 695.5 224C696.239 219.891 694.974 217.594 691.5 213.5H690ZM562 260.5C567.14 260.059 568.996 261.196 569.5 267C568.826 267.194 568.193 267.416 567.597 267.624C565.24 268.449 563.456 269.073 562 267C560.471 264.462 560.357 263.038 562 260.5Z" stroke="black"/>
<path fill-rule="evenodd" clip-rule="evenodd" d="M477.503 378.418C513.814 403.112 539.628 406.638 589.456 401.061C581.995 394.175 574.962 386.407 567.003 376.6C520.819 390.271 497.932 388.097 465.503 368.046C469.113 371.482 473.096 374.914 477.503 378.418ZM450.069 350.1C442.662 339.181 437.756 327.058 433.978 311.699C427.986 312.166 415.807 313.138 415.024 313.29C405.397 315.028 402.059 311.93 396.503 306.1C391.221 312.742 389.083 317.486 388.573 324.181C388.424 326.125 388.414 328.233 388.503 330.6L450.069 350.1ZM190.501 98.0855L190.436 98.1004H141.003C103.304 96.1467 92.3963 86.5253 74.5122 70.7495L74.509 70.7466L74.4995 70.7383L74.4982 70.7371L74.4862 70.7266L74.485 70.7254C73.5135 69.8685 72.5214 68.9934 71.5033 68.1005C74.9646 84.9407 83.5607 94.7427 115.003 113.1C119.443 117.824 121.228 121.334 121.627 125.858C130.891 117.995 160.342 104.97 190.436 98.1004H190.503C190.959 97.9882 191.406 97.8826 191.844 97.7836C191.397 97.8828 190.949 97.9835 190.501 98.0855Z" fill="#E0D1C4"/>
<path d="M566.003 343.6C590.292 368.896 605.081 381.261 634.503 398.6H636.503C661.071 410.861 674.373 412.178 697.003 401.6L740.003 379.6C748.945 365.542 749.302 357.659 740.003 343.6L721.861 305.156M566.003 343.6L551.503 372.1H563.503L567.003 376.6M566.003 343.6C585.924 311.985 599.165 297.299 632.003 284.6L686.503 275.6C699.594 276.885 706.932 277.606 708.003 284.6L721.861 305.156M719.003 299.1L721.861 305.156M738.003 329.1L740.003 327.6L740.803 324.6C744.776 313.591 745.266 308.28 741.503 301.1L743.003 260.6M738.003 329.1C750.401 344.434 757.806 352.995 773.003 368.1C770.615 382.738 765.669 390.652 748.503 404.1L695.003 427.6C682.279 436.602 672.64 440.024 631.503 430.6C613.267 420.058 600.863 411.59 589.456 401.061M738.003 329.1L721.861 305.156M743.003 260.6C734.889 230.219 727.314 212.803 709.214 185.6M743.003 260.6C769.552 274.024 779.099 274.74 786.003 263.1C793.779 239.16 788.427 228.081 771.503 210.1C747.989 185.511 734.06 185.512 709.214 185.6M709.214 185.6C708.023 183.812 706.788 181.98 705.503 180.1C696.195 161.126 690.343 150.693 672.503 134.488C664.051 128.337 654.619 122.799 644.984 118.6C632.441 113.321 616.346 110.376 600.003 109.228M477.503 378.418C477.998 378.811 476.998 378.023 477.503 378.418ZM477.503 378.418C473.096 374.914 469.113 371.482 465.503 368.046M477.503 378.418C513.814 403.112 539.628 406.638 589.456 401.061M590 401C589.818 401.021 589.637 401.041 589.456 401.061M465.503 368.046C497.932 388.097 520.819 390.271 567.003 376.6M465.503 368.046C459.368 362.205 454.309 356.35 450.069 350.1M567.003 376.6C574.962 386.407 581.995 394.175 589.456 401.061M450.069 350.1L388.503 330.6M450.069 350.1C442.662 339.181 437.756 327.058 433.978 311.699M388.503 330.6L347.003 343.6C325.519 354.793 315.633 356.602 301.003 353.6M388.503 330.6C388.515 328.437 388.539 326.297 388.573 324.181M388.503 330.6C388.414 328.233 388.424 326.125 388.573 324.181M396.503 306.1C402.059 311.93 405.397 315.028 415.024 313.29M396.503 306.1C392.354 300.898 425.188 238.798 448.517 212.1M396.503 306.1C391.221 312.742 389.083 317.486 388.573 324.181M416.003 313.1C415.67 313.169 415.343 313.232 415.024 313.29M415.024 313.29C415.807 313.138 427.986 312.166 433.978 311.699M433.978 311.699C432.097 304.052 430.495 295.602 429.003 286.1C432.077 264.389 435.71 252.246 443.003 230.6C444.74 223.973 446.567 217.832 448.517 212.1M448.517 212.1C460.049 178.218 475.934 158.648 503.503 137.487M448.517 212.1C460.132 177.976 476.161 158.369 504.096 137.033M242.003 251.6C254.278 233.706 264.54 228.732 283.003 220.1C308.856 209.194 323.298 208.07 349.003 211.1C391.473 225.427 390.475 258.323 389.055 305.117C388.869 311.237 388.676 317.595 388.573 324.181M242.003 251.6L240.003 270.1M242.003 251.6C238.859 239.498 234.853 233.802 217.503 228.6M240.003 270.1L260.503 259.6L296.503 272.6C311.244 284.843 319.146 292.457 330.503 311.699L301.003 353.6M240.003 270.1C223.125 282.931 215.642 290.296 210.003 304.1C172.189 307.769 157.44 313.266 149.003 332.6C145.63 364.322 159.972 374.452 213.003 379.6C234.746 377.153 244.3 373.97 254.503 363.6C267.534 362.065 273.913 359.099 283.003 348.6M301.003 353.6L283.003 348.6M283.003 348.6L310.003 319.1M167.003 328.1C177.85 321.211 184.295 319.909 197.003 326.1M167.003 328.1L175.003 347.6M167.003 328.1L156.003 330.6M175.003 347.6L163.003 355.1M175.003 347.6L179.503 347.882M191.003 348.6L208.503 334.1M191.003 348.6L179.503 347.882M191.003 348.6C203.802 348.823 210.464 351.818 218.003 359.363L206.503 368.046L245.503 338.6M179.503 347.882L193.503 330.6M245.503 338.6L223.649 355.1L226.003 335.6M245.503 338.6L270.003 322.1M217.503 228.6L141.003 226.6L139.003 221.1M217.503 228.6C225.56 184.174 222.72 159.122 217.833 116.013C217.724 115.051 217.614 114.081 217.503 113.1C211.922 98.688 206.486 94.6405 192.503 97.6385C192.404 97.6601 192.306 97.6818 192.207 97.7036C192.086 97.7301 191.965 97.7568 191.844 97.7836M190.503 98.1004C190.959 97.9882 191.406 97.8826 191.844 97.7836M190.503 98.1004C190.503 98.0955 190.502 98.0905 190.501 98.0855M190.503 98.1004H190.436M139.003 221.1C140.946 185.216 136.221 165.844 121.503 132.1M139.003 221.1L105.003 223.1C79.4531 237.812 61.3291 238.579 24.0033 230.1C6.21862 224.106 0.847343 217.248 1.00328 197.6L18.0033 177.1L33.5033 155.1C49.8094 143.56 64.985 144.261 89.9107 145.413C91.2464 145.475 92.61 145.538 94.0033 145.6L121.503 132.1M121.503 132.1C121.72 129.746 121.79 127.716 121.627 125.858M88.5033 150.1L74.0033 165.6C62.9515 160.426 56.73 158.993 45.5033 164.1L27.5033 186.1M27.5033 186.1H17.0033M27.5033 186.1C30.2662 191.605 30.7616 194.776 29.5033 200.6M29.5033 200.6L10.5033 202.1M29.5033 200.6L38.0033 211.1M38.0033 211.1L27.5033 217.6M38.0033 211.1L59.0033 206.6M59.0033 206.6L54.0033 195.1L71.5033 179.6M59.0033 206.6C65.839 205.257 68.8769 203.599 72.5033 198.6M71.5033 68.1005C74.9646 84.9407 83.5607 94.7427 115.003 113.1C119.443 117.824 121.228 121.334 121.627 125.858M71.5033 68.1005V67.1005C65.5919 59.1989 71.3042 37.5293 83.5033 38.6005C108.295 24.2287 124.454 17.1301 163.003 8.60045C219.499 -0.690442 247.33 -1.31388 280.043 14.1572M71.5033 68.1005C72.5214 68.9934 73.5135 69.8685 74.485 70.7254L74.4862 70.7266M301.503 15.1005H282.003C281.348 14.7796 280.695 14.4652 280.043 14.1572M301.503 15.1005C317.353 4.15372 331.853 1.32791 373.503 5.60047C412.07 14.7577 436.924 25.9783 461.503 43.978C463.873 44.5606 467.228 46.1015 471.003 48.2228M301.503 15.1005C357.609 17.1017 386.676 30.4977 434.503 75.1005L503.503 137.487M215.003 55.6005C214.607 55.7655 214.212 55.9289 213.82 56.0907M213.82 56.0907C174.092 72.4649 155.802 72.0286 127.503 62.1005L103.003 42.6005M213.82 56.0907L280.043 14.1572M213.82 56.0907C196.709 70.2558 187.976 78.44 190.501 98.0855M503.503 137.487C503.7 137.336 503.898 137.185 504.096 137.033M543.503 112.397C531.536 114.989 523.687 118.75 523.503 123.1C516.566 127.848 510.215 132.371 504.38 136.816M543.503 112.397C531.31 98.9902 522.047 92.0357 503.503 80.1005C503.503 78.4338 502.421 75.0478 501.003 72.6005C497.153 65.9544 482.221 54.526 471.003 48.2228M543.503 112.397C545.099 112.051 546.769 111.726 548.503 111.423M471.003 48.2228C477.555 47.4266 482.454 47.5811 501.003 54.4139M548.503 111.423C562.826 108.923 581.572 107.933 600.003 109.228M548.503 111.423C543.769 84.6683 530.469 75.2647 512.544 62.5912C509.646 60.5421 506.627 58.4076 503.503 56.1005C502.692 55.7919 502.428 55.4942 502.173 55.207C501.93 54.9331 501.695 54.6689 501.003 54.4139M501.003 54.4139C523.39 50.8116 537.007 50.1303 567.003 56.1005C585.663 64.9969 591.348 69.8009 594.503 78.1005C605.229 87.5315 608.438 93.0359 604.503 103.6L600.003 109.228M121.627 125.858C130.891 117.995 160.342 104.97 190.436 98.1004M270.003 322.1L268.503 330.6L251.503 353.6M270.003 322.1C275.622 312.956 279.859 309.131 293.503 309.6M690.003 226.6C691.426 226.257 692.102 225.755 693.003 224.1M690.003 226.6L689.961 226.496M690.003 226.6C689.989 226.565 689.975 226.531 689.961 226.496M691.503 220.6H690.003C688.611 223.136 689.104 224.364 689.961 226.496M691.503 220.6C692.089 221.967 692.417 222.734 693.003 224.1M691.503 220.6L693.003 224.1M190.501 98.0855C190.949 97.9835 191.397 97.8828 191.844 97.7836M190.501 98.0855C190.48 98.0905 190.458 98.0955 190.436 98.1004M190.501 98.0855L190.436 98.1004M190.436 98.1004H141.003C103.304 96.1467 92.3963 86.5253 74.5122 70.7495M504.38 136.816C504.285 136.889 504.191 136.961 504.096 137.033M504.38 136.816L504.096 137.033M74.5122 70.7495L74.509 70.7466M74.5122 70.7495C74.5111 70.7485 74.51 70.7476 74.509 70.7466M74.509 70.7466L74.4995 70.7383M74.509 70.7466C74.5058 70.7438 74.5026 70.7411 74.4995 70.7383M74.4995 70.7383L74.4982 70.7371M74.4982 70.7371L74.4862 70.7266M74.4982 70.7371C74.4942 70.7336 74.4902 70.7301 74.4862 70.7266M543.503 249.6C562.312 244.246 568.787 247.47 575.503 260.6C578.199 275.578 576.385 281.881 562.003 286.1C554.775 287.699 544.508 280.285 538.003 275.06C535.408 265.106 536.669 259.532 543.503 249.6ZM690.003 213.6C686.853 222.778 686.899 227.923 690.003 237.1C692.956 240.218 693.95 240.527 695.503 240.6C697.037 234.823 697.718 231.506 695.503 224.1C696.242 219.992 694.977 217.694 691.503 213.6H690.003ZM562.003 260.6C567.144 260.16 569 261.296 569.503 267.1C568.83 267.294 568.197 267.516 567.6 267.725C565.243 268.55 563.46 269.174 562.003 267.1C560.474 264.562 560.36 263.139 562.003 260.6Z" stroke="black"/>
<path d="M696.5 346.5L708.5 362.5V358.5L703 341L696.5 346.5Z" fill="#1E1E1E"/>
<path d="M677.5 346.5L682.5 372L686.5 368V346.5H677.5Z" fill="#1E1E1E"/>
<path d="M696.5 346.5L708.5 362.5V358.5L703 341L696.5 346.5Z" stroke="black"/>
<path d="M677.5 346.5L682.5 372L686.5 368V346.5H677.5Z" stroke="black"/>
<path d="M547 60.5L525.5 71.5L544.5 91M544.5 91L572.5 80.3671M544.5 91L556 101C571.701 100.374 580.701 100.129 588 95V91M584 76L572.5 80.3671M572.5 80.3671L588 91M588 91L600.5 93.5M738.5 215L748.75 209.25M759 203.5L748.75 209.25M748.75 209.25L761.5 219.763M748.75 209.25C753.5 213.167 763 220.746 763 219.73M763 221L773.5 219.5L763 219.73M763 221L761.5 219.763M763 221L769 243.5M761.5 219.763L763 219.73M769 243.5L781.5 248L770.5 243.5M769 243.5L751 239.5" stroke="black"/>
</svg>
