<svg width="1246" height="1058" viewBox="0 0 1246 1058" fill="none" xmlns="http://www.w3.org/2000/svg">
<path d="M161.269 296.537C159.024 293.218 156.782 289.874 154.544 286.505C313.496 300.501 422.305 293.093 518.084 356.575C563.026 290.281 591.646 261.922 663.691 265.352C604.859 299.621 597.051 336.101 595.915 409.942L1117.97 767.9C842.331 723.915 650.655 676.499 504.849 605.93C475.016 640.106 456.353 673.321 456.753 726.484C432.737 666.293 442.817 625.544 451.322 577.815C330.951 509.223 243.318 420.15 161.269 296.537Z" fill="#C4C4C4"/>
<path d="M518.084 356.575C422.305 293.093 313.496 300.501 154.544 286.505C156.782 289.874 159.024 293.218 161.269 296.537C346.856 576.137 561.01 679.023 1117.97 767.9L595.915 409.942M518.084 356.575C563.026 290.281 591.646 261.922 663.691 265.352C604.859 299.621 597.051 336.101 595.915 409.942M518.084 356.575L595.915 409.942M455.588 550.953C447.604 611.38 428.374 655.359 456.753 726.484C456.274 662.692 483.241 627.622 524.021 585.147C496.842 575.957 481.857 568.38 455.588 550.953Z" stroke="black"/>
<path opacity="0.7" d="M173.334 313.78L160.063 294.476C325.388 319.823 364.148 491.589 468.112 557.21L619.594 624.687L854.547 719C777.818 702.104 713.494 684.081 658.382 667.495C553.337 631.982 494.948 606.288 419.814 558.788C352.958 516.297 318.933 485.715 260.794 426.232C223.325 383.586 204.613 358.672 173.334 313.78Z" fill="white" stroke="black"/>
<path d="M456.529 725.813C435.469 682.92 435.809 639.421 457.152 544.468C481.852 561.506 498.79 573.011 528.269 582.239C477.907 635.113 456.85 668.031 456.529 725.813Z" fill="#C4C4C4" stroke="black"/>
<path d="M256.097 419.972C237.43 399.109 227.386 386.905 210.914 366.095L242.582 376.545L287.094 389.259L318.887 398.34L341.877 404.906L358.018 409.516L374.16 414.127L355.242 415.072L316.26 417.021L290.464 418.31L256.097 419.972Z" fill="#F5F5F5"/>
<path d="M256.097 419.972C237.43 399.109 227.386 386.905 210.914 366.095L242.582 376.545M256.097 419.972L242.582 376.545M256.097 419.972L290.464 418.31M242.582 376.545L290.464 418.31M242.582 376.545L287.094 389.259M290.464 418.31L287.094 389.259M290.464 418.31L316.26 417.021M287.094 389.259L316.26 417.021M287.094 389.259L318.887 398.34M316.26 417.021L318.887 398.34M316.26 417.021L355.242 415.072M318.887 398.34L337.188 414.289L341.877 404.906M318.887 398.34L341.877 404.906M341.877 404.906L358.018 409.516M341.877 404.906L355.242 415.072M355.242 415.072L374.16 414.127L358.018 409.516M355.242 415.072L358.018 409.516" stroke="black"/>
<ellipse cx="323.608" cy="351.978" rx="11" ry="10" transform="rotate(26.5499 323.608 351.978)" fill="#242424"/>
<ellipse cx="322.266" cy="350.189" rx="2" ry="3" transform="rotate(26.5499 322.266 350.189)" fill="#C4C4C4"/>
<path d="M208.054 337.134C207.981 340.723 206.579 343.606 204.922 343.572C203.266 343.539 201.982 340.602 202.055 337.013C202.128 333.424 203.529 330.541 205.186 330.575C206.842 330.608 208.126 333.545 208.054 337.134Z" fill="#595959"/>
<path d="M885.416 762.371C865.108 736.611 855.198 721.225 843.246 690.16C861.255 700.323 870.719 703.937 885.401 703.116C882.061 725.118 882.551 738.257 885.416 762.371Z" fill="#C4C4C4" stroke="black"/>
<path d="M426.482 407.852C424.876 441.66 416.501 458.821 393.409 487.465" stroke="black"/>
<path d="M443.479 418.581C444.346 446.783 437.655 460.565 417.889 482.929" stroke="black"/>
<path d="M460.476 429.309C462.308 455.579 456.212 468.17 437.568 488.29" stroke="black"/>
<path d="M1205.54 633.914C1150.62 663.938 1134.03 693.034 1092.59 748.214L1086.1 761.205L1083.86 765.684C1061.62 836.453 1048.95 865.886 1050.03 925.114C1062.12 888.108 1089.31 854.637 1108.4 828.327C1113.77 819.772 1116.97 824.703 1121.39 767.084C1125.09 773.764 1161.11 737.821 1162.68 734.347C1164.25 730.873 1176.24 663.357 1205.54 633.914Z" fill="#C4C4C4" stroke="black"/>
</svg>
