<svg width="1492" height="1333" viewBox="0 0 1492 1333" fill="none" xmlns="http://www.w3.org/2000/svg">
<path d="M1309.91 577.19C1313.39 575.197 1316.87 573.179 1320.37 571.137C1171.44 513.83 1076.97 459.341 963.035 474.253C951.813 394.952 938.574 356.898 872.357 328.307C910.133 384.95 901.109 421.148 869.668 487.97L243.402 579.979C510.312 661.648 703.318 703.324 865.302 704.038C877.072 747.85 879.233 785.888 855.504 833.462C903.535 789.958 912.395 748.927 925.738 702.318C1064.01 693.626 1181.88 652.147 1309.91 577.19Z" fill="#C4C4C4"/>
<path d="M963.035 474.253C1076.97 459.341 1171.44 513.83 1320.37 571.137C1316.87 573.179 1313.39 575.197 1309.91 577.19C1020.31 746.735 782.726 745 243.402 579.979L869.668 487.97M963.035 474.253C951.813 394.952 938.574 356.898 872.357 328.307C910.133 384.95 901.109 421.148 869.668 487.97M963.035 474.253L869.668 487.97M933.716 676.315C914.322 734.1 912.26 782.054 855.504 833.462C883.978 776.376 875.173 733.021 857.219 676.943C885.67 680.637 902.461 680.42 933.716 676.315Z" stroke="black"/>
<path opacity="0.7" d="M1291.5 587.374L1311.9 575.87C1152.27 525.956 1041.94 663.194 919.716 676.43L753.993 670.442L501.5 651.862C577.846 670.418 643.544 682.508 700.335 691.839C810.298 706.122 874.037 708.713 962.403 699.08C1041.13 690.306 1085.14 677.796 1163.51 649.927C1215.91 628.096 1243.67 613.945 1291.5 587.374Z" fill="white" stroke="black"/>
<path d="M855.999 832.958C893.771 803.691 912.588 764.471 935.162 669.803C905.487 674.248 885.216 677.135 854.681 672.464C876.671 742.095 881.112 780.918 855.999 832.958Z" fill="#C4C4C4" stroke="black"/>
<path d="M1170.48 646.37C1196.42 635.838 1210.8 629.292 1234.75 617.841L1201.71 613.306L1156.14 605.157L1123.59 599.336L1100.05 595.128L1083.53 592.173L1067 589.218L1083.58 598.383L1117.74 617.27L1140.34 629.769L1170.48 646.37Z" fill="#F5F5F5"/>
<path d="M1170.48 646.37C1196.42 635.838 1210.8 629.292 1234.75 617.841L1201.71 613.306M1170.48 646.37L1201.71 613.306M1170.48 646.37L1140.34 629.769M1201.71 613.306L1140.34 629.769M1201.71 613.306L1156.14 605.157M1140.34 629.769L1156.14 605.157M1140.34 629.769L1117.74 617.27M1156.14 605.157L1117.74 617.27M1156.14 605.157L1123.59 599.336M1117.74 617.27L1123.59 599.336M1117.74 617.27L1083.58 598.383M1123.59 599.336L1100.14 605.617L1100.05 595.128M1123.59 599.336L1100.05 595.128M1100.05 595.128L1083.53 592.173M1100.05 595.128L1083.58 598.383M1083.58 598.383L1067 589.218L1083.53 592.173M1083.58 598.383L1083.53 592.173" stroke="black"/>
<ellipse rx="11" ry="10" transform="matrix(-0.999966 0.00820998 0.00820998 0.999966 1139.73 555.619)" fill="#242424"/>
<ellipse rx="2" ry="3" transform="matrix(-0.999966 0.00820998 0.00820998 0.999966 1141.72 554.603)" fill="#C4C4C4"/>
<path d="M1250.05 593.087C1248.53 596.343 1248.53 599.548 1250.03 600.246C1251.53 600.944 1253.98 598.871 1255.49 595.615C1257 592.359 1257.01 589.154 1255.51 588.456C1254 587.758 1251.56 589.832 1250.05 593.087Z" fill="#595959"/>
<path d="M454.708 677.248C484.272 663.038 499.938 653.575 524.33 630.927C503.686 632.139 493.597 631.224 480.771 624.032C474.099 645.262 467.882 656.848 454.708 677.248Z" fill="#C4C4C4" stroke="black"/>
<path d="M1022.77 560.58C1009.35 591.652 1009.33 610.747 1017.47 646.626" stroke="black"/>
<path d="M1002.79 562.744C989.608 587.693 989.559 603.014 997.481 631.79" stroke="black"/>
<path d="M982.803 564.908C969.608 587.698 969.548 601.686 977.449 627.954" stroke="black"/>
<path d="M223.648 421.136C259.779 472.248 261.892 505.676 274.85 573.454L274.969 587.976L275.01 592.983C263.876 666.325 262.317 698.33 235.306 751.052C240.722 712.501 231.01 670.483 225.432 638.461C224.368 628.416 219.327 631.438 240.684 577.741C234.428 582.115 217.874 533.996 217.992 530.186C218.111 526.377 237.026 460.464 223.648 421.136Z" fill="#C4C4C4" stroke="black"/>
</svg>
