<?xml version="1.0" encoding="UTF-8" standalone="no"?> <!-- Created with Vectornator for iOS (http://vectornator.io/) --><!DOCTYPE svg PUBLIC "-//W3C//DTD SVG 1.1//EN" "http://www.w3.org/Graphics/SVG/1.1/DTD/svg11.dtd">
<svg height="100%" style="fill-rule:nonzero;clip-rule:evenodd;stroke-linecap:round;stroke-linejoin:round;" xmlns:xlink="http://www.w3.org/1999/xlink" xmlns="http://www.w3.org/2000/svg" xml:space="preserve" width="100%" xmlns:vectornator="http://vectornator.io" version="1.1" viewBox="0 0 320 568">
<metadata>
<vectornator:setting key="DimensionsVisible" value="1"/>
<vectornator:setting key="PencilOnly" value="0"/>
<vectornator:setting key="SnapToPoints" value="0"/>
<vectornator:setting key="OutlineMode" value="0"/>
<vectornator:setting key="GuidesVisible" value="1"/>
<vectornator:setting key="CMYKEnabledKey" value="0"/>
<vectornator:setting key="SnapToEdges" value="0"/>
<vectornator:setting key="RulersVisible" value="1"/>
<vectornator:setting key="DisplayWhiteBackground" value="0"/>
<vectornator:setting key="doHistoryDisabled" value="0"/>
<vectornator:setting key="SnapToGuides" value="1"/>
<vectornator:setting key="TimeLapseWatermarkDisabled" value="0"/>
<vectornator:setting key="DynamicGuides" value="0"/>
<vectornator:setting key="SnapToGrid" value="0"/>
<vectornator:setting key="IsolateActiveLayer" value="0"/>
<vectornator:setting key="Units" value="Points"/>
</metadata>
<defs>
<radialGradient cx="229.131" r="662.109" id="RadialGradient" gradientUnits="userSpaceOnUse" gradientTransform="matrix(-0.00564834 1.00251 -1.00806 -0.00465162 330.587 -5.25941)" cy="171.212">
<stop stop-color="#ff9a36" offset="0"/>
<stop stop-color="#1b112a" offset="1"/>
</radialGradient>
</defs>
<g id="Ebene 1" vectornator:layerName="Ebene 1">
<path d="M338.802-8.11781L335.53+572.687L-4.26268+571.119L-0.990309-9.68576L338.802-8.11781Z" opacity="1" fill="url(#RadialGradient)"/>
<path d="M166.874+458.043L165.429+540.466C165.396+546.946+160.116+552.173+153.636+552.14L153.636+552.14C147.155+552.107+130.654+546.96+130.687+540.48L130.227+456.783C130.227+456.783+147.173+455.439+153.653+455.472C153.653+455.472+166.907+451.562+166.874+458.043Z" opacity="1" fill="#46240c"/>
<path d="M96.7795+460.061L13.459+433.351C-8.342+426.362+14.3324+421.34+64.1037+422.134L254.323+425.168C304.094+425.962+321.767+431.627+293.797+437.822L186.898+461.498C158.928+467.693+118.58+467.049+96.7795+460.061Z" opacity="1" fill="#1d3710"/>
<path d="M109.332+434.015L24.0689+406.526C5.24132+399.552+38.1383+395.352+81.1319+396.111L245.448+399.013C288.441+399.772+303.704+405.425+279.538+411.639L187.179+435.39C163.013+441.604+128.16+440.988+109.332+434.015Z" opacity="1" fill="#1d3710"/>
<path d="M108.837+407.903L54.862+390.662L22.4994+363.597C5.29247+356.632+40.0605+364.577+79.36+365.318L233.274+372.841C272.573+373.581+308.839+371.238+286.746+377.463L267.206+396.464L179.995+409.243C157.903+415.468+126.044+414.868+108.837+407.903Z" opacity="1" fill="#1d3710"/>
<path d="M110.002+376.965L46.7765+352.046L29.0887+333.944C31.3131+318.576+43.0669+337.427+82.3599+338.15L221.873+333.854C261.166+334.577+268.073+321.929+267.639+336.949L244.181+367.708L227.765+370.724L181.148+378.275C159.06+384.298+127.207+383.711+110.002+376.965Z" opacity="1" fill="#1d3710"/>
<path d="M109.577+352.11L40.9972+313.26C41.061+300.742+48.2938+313.497+85.3186+314.226L226.276+312.059C245.906+312.445+265.201+297.735+269.902+300.239C274.068+302.458+262.471+319.281+252.692+322.208L176.617+353.43C155.801+359.661+125.786+359.07+109.577+352.11Z" opacity="1" fill="#1d3710"/>
<path d="M106.474+323.838L53.2361+297.943C38.7314+290.991+41.2658+284.108+74.4055+284.817L134.071+288.021L229.677+276.309C247.247+276.685+253.782+262.864+257.989+265.366C261.716+267.583+241.148+302.004+232.393+304.937L166.479+325.122C147.844+331.365+120.979+330.79+106.474+323.838Z" opacity="1" fill="#1d3710"/>
<path d="M113.817+296.403L63.3891+270.812C52.4505+265.941+63.4811+261.85+88.4691+262.356L134.616+271.337L206.701+263.164C219.949+263.432+224.873+253.759+228.045+255.511C230.857+257.064+217.009+273.401+210.409+275.452L159.062+297.318C145.012+301.683+124.756+301.273+113.817+296.403Z" opacity="1" fill="#1d3710"/>
<path d="M115.312+271.909L72.4565+246.179C73.2374+233.307+71.3098+235.405+94.6842+235.92L134.782+245.652L202.218+237.054C214.611+237.327+229.444+229.424+232.411+231.257C235.039+232.881+217.353+254.75+211.177+256.901L157.635+272.842C144.491+277.42+125.542+277.003+115.312+271.909Z" opacity="1" fill="#1d3710"/>
<path d="M121.786+251.795L82.2971+214.321C72.4742+208.758+78.1036+206.073+100.556+206.621L144.811+225.445L208.214+208.369C220.118+208.659+209.434+208.426+212.283+210.429C214.807+212.203+197.921+230.125+191.988+232.482L165.364+247.537C152.734+252.553+131.609+257.358+121.786+251.795Z" opacity="1" fill="#1d3710"/>
<path d="M129.779+227.515L90.2896+190.041C80.4667+184.478+86.0962+181.793+108.549+182.34L136.531+194.243L152.804+201.165L216.206+184.088C228.111+184.379+216.024+183.959+218.873+185.962C221.397+187.737+205.914+205.844+199.98+208.201L173.357+223.256C160.727+228.272+139.602+233.078+129.779+227.515Z" opacity="1" fill="#1d3710"/>
<path d="M138.139+199.77L106.233+166.781C98.9201+162.324+102.136+159.019+116.83+157.067L148.739+170.922L187.141+146.833C194.932+145.799+186.596+146.356+188.781+148.037C190.718+149.527+184.059+169.682+180.591+172.693L169.964+202.683C162.583+209.091+145.451+204.227+138.139+199.77Z" opacity="1" fill="#1d3710"/>
<path d="M135.393+178.543L129.823+170.722L106.38+137.81C100.616+134.297+115.438+144.311+128.138+142.143C131.548+141.562+132.544+127.81+135.654+127.397L124.373+95.1496L137.165+108.187L146.083+46.2596L151.681+103.516L166.212+96.7936L156.055+124.64C156.055+124.64+171.528+125.751+166.424+135.045C161.32+144.339+173.154+138.319+173.154+138.319C180.944+137.284+184.258+125.618+186.444+127.299C188.38+128.788+184.207+140.711+180.739+143.722L165.923+161.703C163.315+163.968+164.441+171.23+156.858+177.579C149.276+183.929+140.122+181.425+135.393+178.543Z" opacity="1" fill="#1d3710"/>
</g>
</svg>
