<svg width="186" height="183" viewBox="0 0 186 183" fill="none" xmlns="http://www.w3.org/2000/svg">
<path d="M107 151L110 150.5V165.5V170L111.5 168L114.738 150L116 145.5L115.238 142L112.738 142.263C111.257 142.406 109.777 141.266 109.5 142C108.859 141.652 108.563 142.413 108 143.25L106.5 144C104.879 144.886 104.54 146.627 105 148.5V149.5C105.175 150.597 106.282 150.198 107 150.5V151Z" fill="#DFDFDF" stroke="#DFDFDF" stroke-width="0.5"/>
<path d="M80 147.567L77.5 143.567C75.8773 142.711 74.922 142.416 73.1906 142H72L66 145.5C64.8506 147.89 64.6984 149.793 64.5 152.433C64.7613 154.679 65.6123 155.962 66.5 158L68 162.567H70.5L70 155L71.5 151H74L74.5 150V150.5C74.3471 153.281 75.9593 154.596 77 157.067H79.5L75.5 170.067C73.9107 169.48 71.4794 169.284 72 170C70.6135 170.359 70.882 171.189 70 172.067L73.5 176.567L77 176.067L79.5 158.067L81 154.067C81.1247 151.469 80.9807 150.038 80 147.567Z" fill="#DFDFDF" stroke="#DFDFDF" stroke-width="0.5"/>
<path d="M90.5 149H97L91 167L89.5 171C90.0479 173.182 90.5082 174.383 91.5 176.5L95 177.5L98.9031 176.524L101 175L101.25 173.75L100.5 171L90.5 170.5V168.5L98.5 157C100.015 156.129 100.603 155.4 101 153.5L101.5 148.5L99.5 145C98.8412 143.944 98.2637 143.404 97 142.5L92.5 142C91.0195 142.143 90.2774 142.266 90 143C89.3587 142.653 89.0626 143.413 88.5 144.25L87 145.5C85.3789 146.387 84.5395 147.127 85 149L84.5 151C84.6747 152.097 84.782 152.698 85.5 153H87L90.5 149Z" fill="#DFDFDF"/>
<path d="M99 176.5L98.9031 176.524M98.9031 176.524L95 177.5L91.5 176.5C90.5082 174.383 90.0479 173.182 89.5 171L91 167L97 149H90.5L87 153H85.5C84.782 152.698 84.6747 152.097 84.5 151L85 149C84.5395 147.127 85.3789 146.387 87 145.5L88.5 144.25C89.0626 143.413 89.3587 142.653 90 143C90.2774 142.266 91.0195 142.143 92.5 142L97 142.5C98.2637 143.404 98.8412 143.944 99.5 145L101.5 148.5L101 153.5C100.603 155.4 100.015 156.129 98.5 157L90.5 168.5V170.5L100.5 171L101.25 173.75L101 175L98.9031 176.524Z" stroke="#DFDFDF" stroke-width="0.5"/>
<path d="M116.5 83.5C118.141 83.0131 118.938 82.4305 121 83V90.5L122.5 98.5L125 99.5C125.681 93.2485 125.467 89.7474 125.5 83.5L126.5 83L130 83.5L130.5 78.5L129.5 77L116.5 76.5C116.269 79.2337 116.23 80.7662 116.5 83.5Z" fill="#DFDFDF" stroke="#DFDFDF" stroke-width="0.5"/>
<path d="M98 86L96.5 84L96.4167 83C96.3897 79.979 96.1787 77.9902 97.5 77L99.5 75.5L102 76C102.748 76.2146 103.031 76.4015 103.027 76.7819C103.027 76.8483 103.017 76.9206 103 77C104.193 77.7488 103.913 78.8998 104 80.5C104.312 82.0319 104.528 82.9381 104 83.5L105 85.5L107 87L107.5 83L106.5 80.5C106.459 78.8927 106.177 77.942 107 76.5L108 75.5L111 76H112.5L113.5 76.5L113.5 77.5L113.5 78C114.168 76.6967 113.758 78.7323 113.5 80.5C113.222 82.2624 113.045 83.2496 112.5 85L111 87.5L106.5 94L98 86Z" fill="#DFDFDF"/>
<path d="M102 76L99.5 75.5L97.5 77C96.1787 77.9902 96.3897 79.979 96.4167 83L96.5 84L98 86L106.5 94L111 87.5L112.5 85C113.045 83.2496 113.222 82.2624 113.5 80.5C113.758 78.7323 114.168 76.6967 113.5 78M102 76C102.879 76.2521 103.116 76.466 103 77C104.193 77.7488 103.913 78.8998 104 80.5C104.312 82.0319 104.528 82.9381 104 83.5L105 85.5L107 87L107.5 83L106.5 80.5C106.459 78.8927 106.177 77.942 107 76.5M102 76C102.814 76.554 103.269 76.8741 104 78M107 76.5L108 76H111M107 76.5L108 75.5L111 76M112.5 76L113.5 77.5L113.5 78M112.5 76H111M112.5 76L113.5 76.5V78" stroke="#DFDFDF" stroke-width="0.5"/>
<path d="M65 76H59V83L61.5 92L63.5 95L65 97L66.5 93.5L70.5 94.5L73.5 86L75 81L75.5 78.5L75 76.5L69.5 76L68.5 81V87.5H66.5L66 85V80.5V77L65 76Z" fill="#DFDFDF" stroke="#DFDFDF" stroke-width="0.5"/>
<path d="M40 76C43.7781 75.933 45.9435 75.9929 50 76.5C49.3092 76.056 49.2337 75.9265 52.5 77C53.9485 77.8133 54.4452 78.6387 55 80.5L55.5 85L54.5 88L53.5 93L51.5 92.5L50 87C49.3135 85.8143 49.5163 84.4656 49.5 82.5L49 82L46.5 82.5H46L45.5 95V104.5L47.5 104L49.5 105V110L47.5 111L45.5 105.5V104.5V95V92.5H43.5L42 89.5L40.5 86L39.5 85.5L40 76Z" fill="#DFDFDF"/>
<path d="M40 76C43.7781 75.933 45.9435 75.9929 50 76.5C49.3092 76.056 49.2337 75.9265 52.5 77C53.9485 77.8133 54.4452 78.6387 55 80.5L55.5 85L54.5 88L53.5 93L51.5 92.5L50 87C49.3135 85.8143 49.5163 84.4656 49.5 82.5L49 82L46.5 82.5H46L45.5 95V104.5L47.5 104L49.5 105V110L47.5 111L45.5 105.5V92.5H43.5L42 89.5L40.5 86L39.5 85.5L40 76Z" stroke="#DFDFDF" stroke-width="0.5"/>
<path d="M24 84.5L25.5 87V94.5L27 103.5L26 106L27.5 108L29 107.5L32 107L31.5 104.5L27.5 104L27 99L32.5 93.5L33 87.5L33.5 81.5L33 76.5L31.5 75H28.5L26 76L24 84.5Z" fill="#DFDFDF" stroke="#DFDFDF" stroke-width="0.5"/>
<path d="M50 149H56.5L50.5 167L49 171L51 176.5L54.5 177.5L58.5 176.5L61 175.5C61.2185 174.349 61.2653 173.697 61 172.5L60 171L50 170.5V168.5L58 157L60 156.5L61 154C61.3203 151.852 61.4917 150.648 61 148.5L59 145C58.3413 143.944 57.7638 143.404 56.5 142.5L52 142L49.5 143L46.5 145.5C45.3943 146.403 44.947 147.155 44.5 149L44.7218 151.887L45 153H46.5L50 149Z" fill="#DFDFDF" stroke="#DFDFDF" stroke-width="0.5"/>
<path d="M145 22C149.859 21.5509 152.598 21.4578 157.5 21.5C158.543 21.5011 158.937 21.6647 159 22.5C159.012 24.8897 159.343 26.4135 159 28.494V29.5C159.018 30.0691 158.839 30.2303 158.5 30.5H157.5L156 27C154.17 27.5784 153.192 27.9764 151 28C150.067 28.4474 149.524 28.493 148.5 28L148.443 27.9673L145 26L144 24L145 22Z" fill="#DFDFDF"/>
<path d="M145 22C149.859 21.5509 152.598 21.4578 157.5 21.5C158.543 21.5011 158.937 21.6647 159 22.5C159.012 24.8897 159.343 26.4135 159 28.494M145 22V22.5L144 24M145 22L144 24M158.5 30.5H157.5L156 27C154.17 27.5784 153.192 27.9764 151 28C150.067 28.4474 149.524 28.493 148.5 28L148.443 27.9673L145 26L144 24M158.5 30.5C158.839 30.2303 159.018 30.0691 159 29.5V28.494M158.5 30.5C158.741 29.7598 158.9 29.1031 159 28.494" stroke="#DFDFDF" stroke-width="0.05"/>
<path d="M134.5 7H131.5C130.087 8.08125 129.873 9.12769 129.5 11L130 15.5L131 17L135 39.5L139.5 42.5L141.5 42L142.5 40.5L142.931 39.1705C143.033 38.8149 143.019 38.4783 143.001 38.0291L143 38L141.5 36.5H139L136 36V20.5L137 18.5V16.5C137.167 15.6667 137.5 13.7 137.5 12.5V11L136.5 8L134.5 7Z" fill="#DFDFDF" stroke="#DFDFDF" stroke-width="0.5"/>
<path d="M93.5161 81.0725V82.5942C92.7605 82.7243 92.3363 82.7297 91.5806 82.5942L84.8065 82.087L84.3226 86.6522V90.2029C86.2204 90.3856 87.4799 90.0762 89.6452 89.6957L90.6129 91.2174L90.4867 92.1432L90.5 94L89.6452 96.7971V97.3044L84.8065 96.2899V104.913C85.7212 105.262 86.9738 104.986 88.9768 104.64L93.5161 104.913C93.8748 106.077 93.9976 106.741 94 107.957L93.0323 111H91.0968L84.3226 108.971L79.8264 90.5886L79.4839 89.1884L79 88.6812C78.8038 88.22 78.8067 87.9621 79 87.5H78.5V81.5L79 79V77.5L79.4692 76.0925L79.4839 76C79.4892 76.0001 79.4946 75.9999 79.5 76C84.5896 76.1311 86.1957 77.5361 93 76.5L93.5 77.5L93.5292 79.2828C93.5359 79.4847 93.5391 79.6933 93.5394 79.9083C93.5399 80.2778 93.5314 80.6663 93.5161 81.0725Z" fill="#DFDFDF"/>
<path d="M93 76.5L93.5 77.5L93.5394 79.9083M93 76.5C93.3985 77.2971 93.5376 78.4568 93.5394 79.9083M93 76.5C86.1957 77.5361 84.5896 76.1311 79.5 76M89.6452 96.7971L90.129 94.7681L90.4867 92.1432M89.6452 96.7971V97.3044L84.8065 96.2899V104.913C85.7212 105.262 86.9738 104.986 88.9768 104.64L93.5161 104.913C93.8748 106.077 93.9976 106.741 94 107.957L93.0323 111H91.0968L84.3226 108.971L79.8264 90.5886L79.4839 89.1884L79 88.6812C78.8038 88.22 78.8067 87.9621 79 87.5H78.5V81.5L79 79V77.5L79.5 76M89.6452 96.7971L90.5 94L90.4867 92.1432M79 79.0435L79.4839 76C79.4892 76.0001 79.4946 75.9999 79.5 76M93.5394 79.9083C93.5399 80.2778 93.5314 80.6663 93.5161 81.0725V82.5942C92.7605 82.7243 92.3363 82.7297 91.5806 82.5942L84.8065 82.087L84.3226 86.6522V90.2029C86.2204 90.3856 87.4799 90.0762 89.6452 89.6957L90.6129 91.2174L90.4867 92.1432" stroke="#DFDFDF" stroke-width="0.5"/>
<path d="M126.5 7.5H112.5L112 10.5V18.5V20L112.854 20.6203V21.8802L117.5 40L124.5 42H126.5L127.5 39L127 36L122.309 35.7307L118 36V27.5L123 28.5V28L123.5 26L124 22.5L123 21L117.5 21.5V18L118 13.5L125 14H127V12.5C127.078 10.5271 127.143 9.41928 126.5 7.5Z" fill="#DFDFDF"/>
<path d="M126 35.5L122.309 35.7307M122.309 35.7307L118 36V27.5L123 28.5V28L123.5 26L124 22.5L123 21L117.5 21.5V18L118 13.5L125 14H127V12.5C127.078 10.5271 127.143 9.41928 126.5 7.5H112.5L112 10.5V18.5V20M122.309 35.7307L127 36L127.5 39L126.5 42H124.5L117.5 40L112.854 21.8802V20.6203L112 20M112.5 20.5L112 20" stroke="#DFDFDF" stroke-width="0.5"/>
<path d="M107 6.5L101 7L100 14L101.5 19.5L103 23.5L104.5 24.5L107 21.5C107.906 19.6824 108.186 18.6035 108 16.5C108.298 13.1805 108.576 11.3195 108 8C108.118 7.15227 107.815 6.86721 107 6.5Z" fill="#DFDFDF" stroke="#DFDFDF" stroke-width="0.5"/>
<path d="M68.5 31.5L63.5 31L62.5 33.5L63.5 38.5L68.5 41L74.5 38.5V31L67.5 20L68 15L69.5 13.5C70.2267 13.7802 70.5732 13.9006 71 14L71.5 14.5C72.1027 16.0112 72.0873 16.9025 72 18.5L74 19L76 20.5L77 20C77.5174 19.5453 77.5623 18.7447 77.5 17L76 11C75.4732 9.38711 74.8151 8.68136 73.5 7.5L69 6.5L64.5 8.5C62.6911 10.9326 62.2184 12.4923 62 15.5L64 23L70.5 27L72.5 37L68.5 37.5L68 35.5L69 33L68.5 31.5Z" fill="#DFDFDF" stroke="#DFDFDF" stroke-width="0.5"/>
<path d="M83 24L83.5 20.5L81.0625 15L81.4711 13.2945L82 9.5C83.091 8.29545 83.6684 7.43948 85 7.5C87.7428 7.00235 89.0649 7.71991 91.5313 8.5L94 8.5L95.5 10L97 12.5L96.7925 15.8652L97 18C96.735 18.5397 96.627 19.04 96.168 18.6339C96.2313 18.9769 95.9386 19.3873 95.6875 19.5C95.4215 21.4012 95.1489 22.4245 93.9375 24H93.0625L92.625 23C92.625 23 91.8935 18.4482 91.975 16.7546C91.0129 15.9855 90.427 15.6386 89.1406 15.4609C85.217 14.5836 88.1665 15.1689 87.089 15.43L87.0924 15.4609L87.375 18L86.9375 31.5L85.625 31V25H85.1875L84.2091 25.9274C83.5309 25.4456 83.1872 25.0795 83 24Z" fill="#DFDFDF"/>
<path d="M84.3125 26C84.2772 25.9754 84.2428 25.9513 84.2091 25.9274M84.2091 25.9274C83.5309 25.4456 83.1872 25.0795 83 24L83.5 20.5L81.0625 15L81.4711 13.2945L82 9.5C83.091 8.29545 83.6684 7.43948 85 7.5C87.7428 7.00235 89.0649 7.71991 91.5313 8.5M84.2091 25.9274L85.1875 25H85.625V31L86.9375 31.5L87.375 18L87.0924 15.4609L87.089 15.43C88.1665 15.1689 85.217 14.5836 89.1406 15.4609C90.427 15.6386 91.0129 15.9855 91.975 16.7546C91.8935 18.4482 92.625 23 92.625 23L93.0625 24H93.9375C95.1489 22.4245 95.4215 21.4012 95.6875 19.5C95.9386 19.3873 96.2313 18.9769 96.168 18.6339C96.627 19.04 96.735 18.5397 97 18L96.7925 15.8652M91.5313 8.5L93.0625 10C94.7182 10.9418 95.5159 11.6613 96.5625 13.5L96.7925 15.8652M91.5313 8.5L94 8.5L95.5 10L97 12.5L96.7925 15.8652" stroke="#DFDFDF" stroke-width="0.5"/>
<path d="M42 18.5V8.5C42.932 6.59301 45.5824 6.51551 49.5 6L53 9C54.8923 9.94183 55.8039 10.6613 57 12.5L57.5 17C57.1971 17.5397 57.0737 18.04 56.5491 17.6339C56.6215 17.9769 56.287 18.3873 56 18.5C55.696 20.4012 55.3844 21.4245 54 23H53L52.5 22L51.8983 15.07C50.5619 15.9877 49.7249 16.4603 48 17V17.5L47.5 31L44.5 30V24H44L42.8818 24.9274C42.1067 24.4456 41.7139 24.0795 41.5 23L42 18.5Z" fill="#DFDFDF"/>
<path d="M43 25C42.9597 24.9754 42.9203 24.9513 42.8818 24.9274M42.8818 24.9274C42.1067 24.4456 41.7139 24.0795 41.5 23L42 18.5V8.5C42.932 6.59301 45.5824 6.51551 49.5 6L53 9C54.8923 9.94183 55.8039 10.6613 57 12.5L57.5 17C57.1971 17.5397 57.0737 18.04 56.5491 17.6339C56.6215 17.9769 56.287 18.3873 56 18.5C55.696 20.4012 55.3844 21.4245 54 23H53L52.5 22M42.8818 24.9274L44 24H44.5V30L47.5 31L48 17.5V17C49.7249 16.4603 50.5619 15.9877 51.8983 15.07M52.5 22L51.8983 15.07M52.5 22L52 15C51.9658 15.0236 51.9319 15.047 51.8983 15.07" stroke="#DFDFDF" stroke-width="0.5"/>
<path d="M28.5 3.5L26.5 3L25.5 3.5L25 5L28 6C28.22 6.35727 28.2429 6.56191 28.2831 6.92139L28.2843 6.93148L28 7.5L25.592 7.97678C25.5616 7.98424 25.5309 7.99197 25.5 8C24.6177 9.42772 24.7824 10.6552 23 11.5L21.5 15.5L22.175 20C23.864 21.8216 22.9931 23.2769 23 25.5L26 26V23L28.5 22L29.5 17.5H30.5L35 26.5L37 25.5V20L38 18V13L36.5 10C34.073 8.22837 31.0591 6.71776 32 6L34.5 5L35 4L34.9503 3.95034C34.5108 3.6662 34.2513 3.51632 33.5834 3.40218H31.7989L31.5248 3.95034L31.5 4V6C30.091 6.85091 29.4471 6.86388 28.5 6V5V3.5Z" fill="#DFDFDF"/>
<path d="M28.5 6.5L28.2843 6.93148M28.2843 6.93148L28 7.5L25.592 7.97678C25.5616 7.98424 25.5309 7.99197 25.5 8C24.6177 9.42772 24.7824 10.6552 23 11.5L21.5 15.5L22.175 20C23.864 21.8216 22.9931 23.2769 23 25.5L26 26V23L28.5 22L29.5 17.5H30.5L35 26.5L37 25.5V20L38 18V13L36.5 10C34.073 8.22837 31.0591 6.71776 32 6L34.5 5L35 4L34.9503 3.95034C34.5108 3.6662 34.2513 3.51632 33.5834 3.40218H31.7989L31.5248 3.95034L31.5 4V6C30.091 6.85091 29.4471 6.86388 28.5 6V5V3.5L26.5 3L25.5 3.5L25 5L28 6C28.222 6.3606 28.2433 6.56571 28.2843 6.93148Z" stroke="#DFDFDF" stroke-width="0.5"/>
<path d="M3.5 7L1.5 9.5V12.5L2.5 15.5V28.5H12L16.5 21.5L17.5 13.5L18 8.5L16.5 7H13.5L11 8.5L10.5 13.5L11.5 16.5V21C12.0348 21.5889 9.67754 20.5919 7.5 21V17C7.7827 16.0042 8.42256 14.4886 8.5 14.5C8.57744 14.5114 8.5 12 8.5 12L9 9L8 7H6H3.5Z" fill="#DFDFDF" stroke="#DFDFDF" stroke-width="0.5"/>
<path d="M44.104 150.936C44.136 151.096 44.168 151.256 44.2 151.416C44.232 151.544 44.28 151.672 44.344 151.8C44.312 152.056 44.28 152.312 44.248 152.568C44.248 152.792 44.296 153.032 44.392 153.288C44.488 153.736 44.712 154.008 45.064 154.104C45.448 154.2 45.784 154.072 46.072 153.72C46.072 153.72 46.104 153.688 46.168 153.624H46.552C46.712 153.624 46.872 153.576 47.032 153.48C47.224 153.352 47.352 153.224 47.416 153.096C47.48 153 47.56 152.904 47.656 152.808C47.784 152.68 47.88 152.584 47.944 152.52H51.448V150.456C51.608 149.656 52.056 149.256 52.792 149.256C53.688 149.256 54.136 149.704 54.136 150.6C54.136 151.976 53.352 153.88 51.784 156.312C50.312 158.552 48.856 160.792 47.416 163.032C45.848 165.784 45.064 168.296 45.064 170.568V178.248H60.52V176.424C61.032 176.072 61.384 175.576 61.576 174.936C61.8 174.264 61.864 173.592 61.768 172.92C61.672 172.216 61.416 171.592 61 171.048C60.616 170.472 60.056 170.12 59.32 169.992C58.712 170.28 58.072 170.424 57.4 170.424C56.728 170.392 56.04 170.344 55.336 170.28C54.664 170.184 53.992 170.104 53.32 170.04C52.68 169.976 52.056 170.024 51.448 170.184C51.576 168.872 52.36 167.112 53.8 164.904C55.24 162.632 56.696 160.36 58.168 158.088L58.504 157.464C59.24 157.304 59.864 156.968 60.376 156.456C60.888 155.944 61.224 155.304 61.384 154.536C61.832 153.032 62.04 151.464 62.008 149.832C61.976 148.2 61.528 146.712 60.664 145.368C60.472 145.048 60.248 144.744 59.992 144.456C59.736 144.168 59.432 143.912 59.08 143.688C59.016 143.624 58.952 143.576 58.888 143.544C58.856 143.512 58.808 143.48 58.744 143.448C58.584 143.224 58.456 143 58.36 142.776C58.072 142.552 57.752 142.392 57.4 142.296C57.048 142.168 56.744 141.976 56.488 141.72C56.296 141.88 56.104 141.944 55.912 141.912C55.72 141.88 55.528 141.816 55.336 141.72C55.176 141.624 55 141.544 54.808 141.48C54.648 141.384 54.456 141.352 54.232 141.384C53.656 141.224 53.064 141.144 52.456 141.144C51.88 141.144 51.304 141.224 50.728 141.384C50.152 141.544 49.608 141.784 49.096 142.104C48.616 142.424 48.2 142.84 47.848 143.352C46.856 143.864 46.056 144.6 45.448 145.56C44.776 146.264 44.296 147.096 44.008 148.056C43.752 148.984 43.784 149.944 44.104 150.936ZM57.928 152.424C57.928 152.264 57.976 152.136 58.072 152.04C57.976 151.464 57.832 150.888 57.64 150.312C57.48 149.704 57.336 149.112 57.208 148.536C56.664 148.824 56.072 148.84 55.432 148.584C54.824 148.328 54.44 147.88 54.28 147.24L54.232 147.192C53.88 147.32 53.512 147.48 53.128 147.672C52.744 147.832 52.344 147.976 51.928 148.104C51.544 148.232 51.16 148.28 50.776 148.248C50.392 148.216 50.056 148.056 49.768 147.768C49.64 148.024 49.544 148.28 49.48 148.536C49.416 148.792 49.336 149.048 49.24 149.304C49.176 149.496 49.032 149.656 48.808 149.784C48.616 149.912 48.424 149.96 48.232 149.928C47.912 149.928 47.672 150.024 47.512 150.216C47.352 150.408 47.224 150.648 47.128 150.936C47.064 151.192 47 151.48 46.936 151.8C46.872 152.088 46.776 152.344 46.648 152.568C46.552 152.824 46.408 153 46.216 153.096C46.024 153.192 45.816 153.224 45.592 153.192C45.4 153.16 45.224 153.08 45.064 152.952C44.904 152.792 44.808 152.584 44.776 152.328C44.648 151.56 44.616 150.808 44.68 150.072C44.744 149.304 44.776 148.536 44.776 147.768C44.776 147.512 44.84 147.304 44.968 147.144C45.096 146.984 45.24 146.872 45.4 146.808C45.656 146.2 46.104 145.72 46.744 145.368C47.416 144.984 48.024 144.6 48.568 144.216C48.888 143.576 49.304 143.08 49.816 142.728C50.36 142.376 50.936 142.168 51.544 142.104C52.184 142.008 52.824 142.024 53.464 142.152C54.136 142.28 54.76 142.504 55.336 142.824C55.4 142.792 55.512 142.776 55.672 142.776C55.992 142.776 56.328 142.808 56.68 142.872C57.032 142.936 57.352 143.048 57.64 143.208C57.96 143.368 58.216 143.576 58.408 143.832C58.632 144.088 58.76 144.408 58.792 144.792C58.92 144.888 58.984 145.016 58.984 145.176C59.848 145.912 60.488 146.888 60.904 148.104C61.352 149.288 61.496 150.44 61.336 151.56C61.272 151.624 61.224 151.704 61.192 151.8C61.192 151.896 61.176 151.976 61.144 152.04C61.144 152.552 61.112 153.048 61.048 153.528C61.016 154.008 60.872 154.472 60.616 154.92C60.584 155.208 60.472 155.48 60.28 155.736C60.088 155.992 59.848 156.184 59.56 156.312C59.304 156.44 59.016 156.504 58.696 156.504C58.408 156.504 58.152 156.376 57.928 156.12C57.832 156.056 57.736 155.928 57.64 155.736C57.576 155.544 57.544 155.384 57.544 155.256C57.608 154.776 57.656 154.296 57.688 153.816C57.752 153.336 57.832 152.872 57.928 152.424ZM50.584 171.432C50.712 170.984 50.952 170.728 51.304 170.664C51.656 170.6 51.944 170.696 52.168 170.952C52.712 170.856 53.272 170.824 53.848 170.856C54.424 170.856 54.984 170.888 55.528 170.952C55.848 171.208 56.216 171.368 56.632 171.432C56.696 171.4 56.744 171.368 56.776 171.336C56.84 171.304 56.904 171.272 56.968 171.24C57.352 171.08 57.768 170.968 58.216 170.904C58.664 170.84 59.112 170.856 59.56 170.952C59.816 170.952 60.072 171.048 60.328 171.24C60.488 171.336 60.584 171.464 60.616 171.624C60.68 171.752 60.712 171.896 60.712 172.056C61.096 172.504 61.304 173.064 61.336 173.736C61.4 174.376 61.224 174.92 60.808 175.368C60.744 175.464 60.616 175.56 60.424 175.656C60.264 175.72 60.136 175.752 60.04 175.752C59.688 175.752 59.352 175.672 59.032 175.512C58.744 175.352 58.536 175.112 58.408 174.792C58.248 174.792 58.104 174.808 57.976 174.84C57.88 174.84 57.752 174.856 57.592 174.888C57.144 174.952 56.76 174.856 56.44 174.6C56.12 174.344 55.784 174.088 55.432 173.832C55.4 173.832 55.384 173.848 55.384 173.88C55.384 173.88 55.368 173.88 55.336 173.88C55.08 174.104 54.952 174.472 54.952 174.984C54.984 175.496 54.904 175.944 54.712 176.328C54.616 176.648 54.424 176.872 54.136 177C53.848 177.096 53.56 177.048 53.272 176.856C53.016 176.728 52.84 176.568 52.744 176.376C52.648 176.152 52.6 175.912 52.6 175.656C52.6 175.4 52.6 175.144 52.6 174.888C52.632 174.632 52.632 174.376 52.6 174.12C52.6 174.12 52.536 174.088 52.408 174.024C52.152 174.152 51.896 174.264 51.64 174.36C51.416 174.424 51.176 174.408 50.92 174.312C50.696 174.28 50.504 174.168 50.344 173.976C50.184 173.784 50.104 173.576 50.104 173.352C50.136 173 50.2 172.68 50.296 172.392C50.424 172.072 50.52 171.752 50.584 171.432ZM84.0884 150.936C84.1204 151.096 84.1524 151.256 84.1844 151.416C84.2164 151.544 84.2644 151.672 84.3284 151.8C84.2964 152.056 84.2644 152.312 84.2324 152.568C84.2324 152.792 84.2804 153.032 84.3764 153.288C84.4724 153.736 84.6964 154.008 85.0484 154.104C85.4324 154.2 85.7684 154.072 86.0564 153.72C86.0564 153.72 86.0884 153.688 86.1524 153.624H86.5364C86.6964 153.624 86.8564 153.576 87.0164 153.48C87.2084 153.352 87.3364 153.224 87.4004 153.096C87.4644 153 87.5444 152.904 87.6404 152.808C87.7684 152.68 87.8644 152.584 87.9284 152.52H91.4324V150.456C91.5924 149.656 92.0404 149.256 92.7764 149.256C93.6724 149.256 94.1204 149.704 94.1204 150.6C94.1204 151.976 93.3364 153.88 91.7684 156.312C90.2964 158.552 88.8404 160.792 87.4004 163.032C85.8324 165.784 85.0484 168.296 85.0484 170.568V178.248H100.504V176.424C101.016 176.072 101.368 175.576 101.56 174.936C101.784 174.264 101.848 173.592 101.752 172.92C101.656 172.216 101.4 171.592 100.984 171.048C100.6 170.472 100.04 170.12 99.3044 169.992C98.6964 170.28 98.0564 170.424 97.3844 170.424C96.7124 170.392 96.0244 170.344 95.3204 170.28C94.6484 170.184 93.9764 170.104 93.3044 170.04C92.6644 169.976 92.0404 170.024 91.4324 170.184C91.5604 168.872 92.3444 167.112 93.7844 164.904C95.2244 162.632 96.6804 160.36 98.1524 158.088L98.4884 157.464C99.2244 157.304 99.8484 156.968 100.36 156.456C100.872 155.944 101.208 155.304 101.368 154.536C101.816 153.032 102.024 151.464 101.992 149.832C101.96 148.2 101.512 146.712 100.648 145.368C100.456 145.048 100.232 144.744 99.9764 144.456C99.7204 144.168 99.4164 143.912 99.0644 143.688C99.0004 143.624 98.9364 143.576 98.8724 143.544C98.8404 143.512 98.7924 143.48 98.7284 143.448C98.5684 143.224 98.4404 143 98.3444 142.776C98.0564 142.552 97.7364 142.392 97.3844 142.296C97.0324 142.168 96.7284 141.976 96.4724 141.72C96.2804 141.88 96.0884 141.944 95.8964 141.912C95.7044 141.88 95.5124 141.816 95.3204 141.72C95.1604 141.624 94.9844 141.544 94.7924 141.48C94.6324 141.384 94.4404 141.352 94.2164 141.384C93.6404 141.224 93.0484 141.144 92.4404 141.144C91.8644 141.144 91.2884 141.224 90.7124 141.384C90.1364 141.544 89.5924 141.784 89.0804 142.104C88.6004 142.424 88.1844 142.84 87.8324 143.352C86.8404 143.864 86.0404 144.6 85.4324 145.56C84.7604 146.264 84.2804 147.096 83.9924 148.056C83.7364 148.984 83.7684 149.944 84.0884 150.936ZM97.9124 152.424C97.9124 152.264 97.9604 152.136 98.0564 152.04C97.9604 151.464 97.8164 150.888 97.6244 150.312C97.4644 149.704 97.3204 149.112 97.1924 148.536C96.6484 148.824 96.0564 148.84 95.4164 148.584C94.8084 148.328 94.4244 147.88 94.2644 147.24L94.2164 147.192C93.8644 147.32 93.4964 147.48 93.1124 147.672C92.7284 147.832 92.3284 147.976 91.9124 148.104C91.5284 148.232 91.1444 148.28 90.7604 148.248C90.3764 148.216 90.0404 148.056 89.7524 147.768C89.6244 148.024 89.5284 148.28 89.4644 148.536C89.4004 148.792 89.3204 149.048 89.2244 149.304C89.1604 149.496 89.0164 149.656 88.7924 149.784C88.6004 149.912 88.4084 149.96 88.2164 149.928C87.8964 149.928 87.6564 150.024 87.4964 150.216C87.3364 150.408 87.2084 150.648 87.1124 150.936C87.0484 151.192 86.9844 151.48 86.9204 151.8C86.8564 152.088 86.7604 152.344 86.6324 152.568C86.5364 152.824 86.3924 153 86.2004 153.096C86.0084 153.192 85.8004 153.224 85.5764 153.192C85.3844 153.16 85.2084 153.08 85.0484 152.952C84.8884 152.792 84.7924 152.584 84.7604 152.328C84.6324 151.56 84.6004 150.808 84.6644 150.072C84.7284 149.304 84.7604 148.536 84.7604 147.768C84.7604 147.512 84.8244 147.304 84.9524 147.144C85.0804 146.984 85.2244 146.872 85.3844 146.808C85.6404 146.2 86.0884 145.72 86.7284 145.368C87.4004 144.984 88.0084 144.6 88.5524 144.216C88.8724 143.576 89.2884 143.08 89.8004 142.728C90.3444 142.376 90.9204 142.168 91.5284 142.104C92.1684 142.008 92.8084 142.024 93.4484 142.152C94.1204 142.28 94.7444 142.504 95.3204 142.824C95.3844 142.792 95.4964 142.776 95.6564 142.776C95.9764 142.776 96.3124 142.808 96.6644 142.872C97.0164 142.936 97.3364 143.048 97.6244 143.208C97.9444 143.368 98.2004 143.576 98.3924 143.832C98.6164 144.088 98.7444 144.408 98.7764 144.792C98.9044 144.888 98.9684 145.016 98.9684 145.176C99.8324 145.912 100.472 146.888 100.888 148.104C101.336 149.288 101.48 150.44 101.32 151.56C101.256 151.624 101.208 151.704 101.176 151.8C101.176 151.896 101.16 151.976 101.128 152.04C101.128 152.552 101.096 153.048 101.032 153.528C101 154.008 100.856 154.472 100.6 154.92C100.568 155.208 100.456 155.48 100.264 155.736C100.072 155.992 99.8324 156.184 99.5444 156.312C99.2884 156.44 99.0004 156.504 98.6804 156.504C98.3924 156.504 98.1364 156.376 97.9124 156.12C97.8164 156.056 97.7204 155.928 97.6244 155.736C97.5604 155.544 97.5284 155.384 97.5284 155.256C97.5924 154.776 97.6404 154.296 97.6724 153.816C97.7364 153.336 97.8164 152.872 97.9124 152.424ZM90.5684 171.432C90.6964 170.984 90.9364 170.728 91.2884 170.664C91.6404 170.6 91.9284 170.696 92.1524 170.952C92.6964 170.856 93.2564 170.824 93.8324 170.856C94.4084 170.856 94.9684 170.888 95.5124 170.952C95.8324 171.208 96.2004 171.368 96.6164 171.432C96.6804 171.4 96.7284 171.368 96.7604 171.336C96.8244 171.304 96.8884 171.272 96.9524 171.24C97.3364 171.08 97.7524 170.968 98.2004 170.904C98.6484 170.84 99.0964 170.856 99.5444 170.952C99.8004 170.952 100.056 171.048 100.312 171.24C100.472 171.336 100.568 171.464 100.6 171.624C100.664 171.752 100.696 171.896 100.696 172.056C101.08 172.504 101.288 173.064 101.32 173.736C101.384 174.376 101.208 174.92 100.792 175.368C100.728 175.464 100.6 175.56 100.408 175.656C100.248 175.72 100.12 175.752 100.024 175.752C99.6724 175.752 99.3364 175.672 99.0164 175.512C98.7284 175.352 98.5204 175.112 98.3924 174.792C98.2324 174.792 98.0884 174.808 97.9604 174.84C97.8644 174.84 97.7364 174.856 97.5764 174.888C97.1284 174.952 96.7444 174.856 96.4244 174.6C96.1044 174.344 95.7684 174.088 95.4164 173.832C95.3844 173.832 95.3684 173.848 95.3684 173.88C95.3684 173.88 95.3524 173.88 95.3204 173.88C95.0644 174.104 94.9364 174.472 94.9364 174.984C94.9684 175.496 94.8884 175.944 94.6964 176.328C94.6004 176.648 94.4084 176.872 94.1204 177C93.8324 177.096 93.5444 177.048 93.2564 176.856C93.0004 176.728 92.8244 176.568 92.7284 176.376C92.6324 176.152 92.5844 175.912 92.5844 175.656C92.5844 175.4 92.5844 175.144 92.5844 174.888C92.6164 174.632 92.6164 174.376 92.5844 174.12C92.5844 174.12 92.5204 174.088 92.3924 174.024C92.1364 174.152 91.8804 174.264 91.6244 174.36C91.4004 174.424 91.1604 174.408 90.9044 174.312C90.6804 174.28 90.4884 174.168 90.3284 173.976C90.1684 173.784 90.0884 173.576 90.0884 173.352C90.1204 173 90.1844 172.68 90.2804 172.392C90.4084 172.072 90.5044 171.752 90.5684 171.432ZM115.142 178.248V151.272C115.878 149.864 116.294 148.344 116.39 146.712C116.486 145.048 116.31 143.48 115.862 142.008C115.542 141.656 115.19 141.448 114.806 141.384C114.422 141.288 114.022 141.272 113.606 141.336C113.222 141.4 112.822 141.48 112.406 141.576C112.022 141.672 111.638 141.72 111.254 141.72L110.726 141.144C110.15 140.984 109.622 141.032 109.142 141.288C108.694 141.544 108.31 141.88 107.99 142.296C107.638 142.552 107.27 142.792 106.886 143.016C106.534 143.208 106.214 143.448 105.926 143.736C105.606 143.832 105.35 144.008 105.158 144.264C104.934 144.392 104.774 144.584 104.678 144.84C104.326 145.64 104.134 146.472 104.102 147.336C104.102 148.2 104.23 149.048 104.486 149.88C104.55 150.072 104.662 150.248 104.822 150.408C105.014 150.568 105.222 150.648 105.446 150.648C105.574 150.68 105.798 150.664 106.118 150.6V151.608H108.758V178.248H115.142ZM104.726 145.944C104.79 145.592 104.934 145.368 105.158 145.272C105.414 145.144 105.67 145.112 105.926 145.176C106.054 145.016 106.182 144.84 106.31 144.648C106.438 144.456 106.582 144.28 106.742 144.12C107.158 144.056 107.494 143.896 107.75 143.64C107.942 143.352 108.198 143.096 108.518 142.872C108.87 142.616 109.222 142.424 109.574 142.296C109.958 142.168 110.326 142.136 110.678 142.2C111.03 142.264 111.318 142.472 111.542 142.824C112.054 142.6 112.566 142.376 113.078 142.152C113.59 141.928 114.134 141.896 114.71 142.056C115.094 142.12 115.35 142.36 115.478 142.776C115.638 143.352 115.718 143.928 115.718 144.504C115.718 145.048 115.654 145.608 115.526 146.184C115.43 146.76 115.286 147.336 115.094 147.912C114.934 148.456 114.758 148.984 114.566 149.496C113.926 149.976 113.51 150.536 113.318 151.176C113.158 151.816 113.078 152.504 113.078 153.24C113.078 153.944 113.078 154.664 113.078 155.4C113.11 156.104 112.998 156.776 112.742 157.416C112.646 157.768 112.438 157.976 112.118 158.04C112.118 159.192 112.102 160.344 112.07 161.496C112.07 162.616 112.038 163.736 111.974 164.856C111.942 165.208 111.814 165.464 111.59 165.624C111.398 165.752 111.174 165.816 110.918 165.816C110.694 165.816 110.486 165.736 110.294 165.576C110.102 165.384 110.022 165.112 110.054 164.76C110.214 162.52 110.246 160.296 110.15 158.088C110.086 155.848 110.086 153.592 110.15 151.32C110.118 151.064 110.102 150.808 110.102 150.552C110.102 150.264 110.086 149.976 110.054 149.688C110.022 149.72 109.974 149.736 109.91 149.736C109.654 149.8 109.398 149.784 109.142 149.688C108.918 149.56 108.774 149.368 108.71 149.112C108.678 149.048 108.646 149 108.614 148.968C108.614 148.904 108.598 148.84 108.566 148.776C108.31 148.776 108.07 148.696 107.846 148.536C107.75 148.792 107.654 149.048 107.558 149.304C107.494 149.528 107.382 149.736 107.222 149.928C107.126 150.088 106.966 150.216 106.742 150.312C106.518 150.408 106.31 150.424 106.118 150.36C105.67 150.296 105.382 150.072 105.254 149.688C105.158 149.304 105.03 148.936 104.87 148.584C104.934 148.136 104.886 147.704 104.726 147.288C104.598 146.84 104.598 146.392 104.726 145.944Z" fill="#F0370E"/>
<path d="M80.6294 170.568V156.792C80.6934 156.728 80.7254 156.664 80.7254 156.6C80.7574 156.536 80.8054 156.472 80.8694 156.408C81.2534 155.576 81.4774 154.712 81.5414 153.816C81.6374 152.92 81.6214 152.024 81.4934 151.128C81.3974 150.2 81.2214 149.288 80.9654 148.392C80.7414 147.496 80.5174 146.632 80.2934 145.8C80.0374 145.576 79.7654 145.4 79.4774 145.272C79.1894 145.112 79.0134 144.856 78.9494 144.504C78.7894 144.152 78.5814 143.832 78.3254 143.544C78.0694 143.224 77.8454 142.888 77.6534 142.536C77.5894 142.408 77.4614 142.296 77.2694 142.2C77.1094 142.104 76.9654 142.056 76.8374 142.056C76.1334 141.928 75.3974 141.784 74.6294 141.624C73.8614 141.432 73.0934 141.32 72.3254 141.288C71.5894 141.256 70.8694 141.352 70.1654 141.576C69.4614 141.768 68.8054 142.168 68.1974 142.776C67.0454 143.416 66.1494 144.248 65.5094 145.272C64.8694 146.296 64.4054 147.4 64.1174 148.584C63.8614 149.768 63.7654 151 63.8294 152.28C63.8934 153.528 64.0694 154.696 64.3574 155.784L64.3094 156.504C64.2774 156.856 64.3414 157.128 64.5014 157.32C64.6934 157.48 64.9174 157.56 65.1734 157.56V170.568C65.1734 172.712 65.9254 174.536 67.4294 176.04C68.9334 177.512 70.7574 178.248 72.9014 178.248C75.0134 178.248 76.8214 177.512 78.3254 176.04C79.8614 174.536 80.6294 172.712 80.6294 170.568ZM64.9814 147.72C64.9814 147.336 65.1254 147.064 65.4134 146.904C65.5094 146.584 65.6854 146.28 65.9414 145.992C66.1974 145.704 66.4694 145.448 66.7574 145.224C67.0774 144.968 67.3974 144.728 67.7174 144.504C68.0694 144.28 68.3894 144.072 68.6774 143.88C69.2534 143.624 69.7814 143.32 70.2614 142.968C70.7734 142.584 71.3014 142.232 71.8454 141.912C72.1654 142.008 72.5014 142.072 72.8534 142.104C73.2054 142.136 73.5414 142.168 73.8614 142.2C74.2134 142.232 74.5494 142.296 74.8694 142.392C75.2214 142.456 75.5414 142.6 75.8294 142.824C76.0534 143.144 76.3254 143.432 76.6454 143.688C76.9654 143.912 77.2694 144.152 77.5574 144.408C77.8774 144.632 78.1494 144.904 78.3734 145.224C78.6294 145.512 78.7734 145.864 78.8054 146.28C79.3814 146.728 79.7814 147.32 80.0054 148.056C80.2294 148.76 80.3734 149.464 80.4374 150.168C80.5334 150.744 80.5974 151.384 80.6294 152.088C80.6614 152.76 80.5974 153.416 80.4374 154.056C80.3094 154.664 80.0534 155.224 79.6694 155.736C79.2854 156.216 78.7414 156.552 78.0374 156.744C77.8454 156.808 77.6374 156.792 77.4134 156.696C77.1894 156.6 77.0294 156.456 76.9334 156.264C76.7414 156.04 76.6454 155.768 76.6454 155.448C76.4854 155.448 76.3254 155.4 76.1654 155.304C76.0054 155.176 75.8934 155.032 75.8294 154.872C75.5734 154.488 75.4294 154.088 75.3974 153.672C75.3654 153.256 75.3174 152.824 75.2534 152.376C75.2534 152.536 75.2374 152.568 75.2054 152.472C75.2054 152.376 75.1894 152.296 75.1574 152.232C74.7094 152.072 74.4694 151.8 74.4374 151.416C74.4054 151.032 74.3574 150.648 74.2934 150.264C74.0374 150.616 73.7014 150.904 73.2854 151.128C72.8694 151.32 72.4374 151.24 71.9894 150.888C71.8614 150.824 71.7334 150.728 71.6054 150.6C71.5094 150.44 71.4454 150.296 71.4134 150.168C71.4134 150.168 71.3974 150.152 71.3654 150.12C71.3654 150.088 71.3654 150.056 71.3654 150.024C70.9494 150.056 70.6294 150.2 70.4054 150.456C70.1814 150.68 69.9574 150.936 69.7334 151.224C69.5734 152.856 69.5094 154.472 69.5414 156.072C69.5734 157.64 69.6374 159.24 69.7334 160.872C69.7334 161.224 69.6374 161.496 69.4454 161.688C69.2534 161.848 69.0294 161.928 68.7734 161.928C68.5494 161.928 68.3254 161.864 68.1014 161.736C67.9094 161.576 67.8134 161.32 67.8134 160.968C67.7494 159.944 67.6854 158.936 67.6214 157.944C67.5894 156.952 67.5894 155.944 67.6214 154.92C67.4614 155.4 67.1734 155.8 66.7574 156.12C66.5014 156.376 66.1974 156.472 65.8454 156.408C65.5254 156.312 65.3014 156.088 65.1734 155.736C64.9174 155.096 64.7574 154.44 64.6934 153.768C64.6614 153.096 64.6614 152.424 64.6934 151.752C64.7254 151.08 64.7734 150.408 64.8374 149.736C64.9334 149.064 64.9814 148.392 64.9814 147.72ZM71.5574 152.856C71.7174 152.472 71.8294 152.024 71.8934 151.512C71.9574 151.512 72.0054 151.528 72.0374 151.56C72.0694 151.56 72.1174 151.56 72.1814 151.56V151.8C72.1814 152.056 72.2614 152.264 72.4214 152.424C72.6134 152.552 72.8214 152.632 73.0454 152.664C73.3014 152.696 73.5254 152.648 73.7174 152.52C73.9094 152.392 74.0374 152.2 74.1014 151.944C74.1334 151.816 74.1494 151.656 74.1494 151.464C74.1814 151.272 74.2134 151.08 74.2454 150.888V169.464C74.1814 169.336 74.0534 169.224 73.8614 169.128C73.7014 169 73.5414 168.936 73.3814 168.936C72.9334 168.872 72.5654 168.936 72.2774 169.128C71.9894 169.288 71.7494 169.512 71.5574 169.8V152.856ZM74.2454 169.704C74.2774 169.736 74.3094 169.768 74.3414 169.8C74.3734 169.8 74.4054 169.816 74.4374 169.848C74.7894 169.848 75.0774 169.992 75.3014 170.28C75.5254 170.568 75.5414 170.904 75.3494 171.288C75.2854 171.352 75.1734 171.512 75.0134 171.768C74.8854 171.992 74.7414 172.184 74.5814 172.344L74.5334 172.392C74.5654 172.776 74.5814 173.16 74.5814 173.544C74.6134 173.896 74.6134 174.264 74.5814 174.648C74.5814 175 74.4694 175.256 74.2454 175.416C74.0534 175.576 73.8294 175.656 73.5734 175.656C73.3494 175.656 73.1414 175.576 72.9494 175.416C72.7574 175.256 72.6614 175 72.6614 174.648C72.6614 174.36 72.6614 174.072 72.6614 173.784C72.6614 173.496 72.6454 173.208 72.6134 172.92C72.5494 172.92 72.5014 172.936 72.4694 172.968C72.4374 172.968 72.3894 172.968 72.3254 172.968C72.1014 173.032 71.8774 173.016 71.6534 172.92C71.4294 172.792 71.2694 172.616 71.1734 172.392C70.9814 171.976 70.9494 171.544 71.0774 171.096C71.2374 170.648 71.4774 170.28 71.7974 169.992C72.1494 169.672 72.5494 169.48 72.9974 169.416C73.4454 169.32 73.8614 169.416 74.2454 169.704Z" fill="#1AC22B"/>
<path d="M37.136 112.296L33.584 87.288C33.808 87.128 33.936 86.936 33.968 86.712C34 86.52 34.016 86.344 34.016 86.184C34.048 85.992 34.064 85.8 34.064 85.608C34.224 83.976 34.304 82.328 34.304 80.664C34.336 79 34.208 77.336 33.92 75.672C33.568 75.16 33.12 74.76 32.576 74.472C32.032 74.152 31.456 73.96 30.848 73.896C30.272 73.8 29.68 73.816 29.072 73.944C28.496 74.072 27.968 74.328 27.488 74.712C27.232 74.488 26.928 74.392 26.576 74.424C26.256 74.424 26.016 74.632 25.856 75.048C25.536 75.976 25.2 76.92 24.848 77.88C24.496 78.808 24.192 79.768 23.936 80.76C23.712 81.752 23.552 82.744 23.456 83.736C23.392 84.696 23.472 85.656 23.696 86.616C23.856 86.776 24.016 86.952 24.176 87.144C24.336 87.304 24.544 87.368 24.8 87.336L24.848 87.384L21.248 112.296H27.584L27.92 108.264H30.56L30.848 112.296H37.136ZM24.8 85.896C24.448 85.064 24.288 84.264 24.32 83.496C24.384 82.696 24.784 80.872 25.52 78.024C25.84 77.032 26.08 76.376 26.24 76.056C26.4 75.704 26.672 75.528 27.056 75.528C27.408 75.304 27.824 75.176 28.304 75.144C28.784 75.112 29.472 75.08 30.368 75.048C31.264 75.016 31.792 75.112 31.952 75.336C32.24 75.592 32.528 75.88 32.816 76.2C33.104 76.488 33.248 76.856 33.248 77.304C33.504 78.616 33.552 81.432 33.392 85.752C33.072 87.96 32.512 88.152 31.712 86.328C31.616 87.096 31.456 89.048 31.232 92.184C31.008 95.32 30.768 94.888 30.512 90.888C30.352 91.272 30.064 91.464 29.648 91.464C29.232 94.472 28.944 94.328 28.784 91.032C28.656 91.064 28.496 91.048 28.304 90.984C28.272 91.784 28.24 92.584 28.208 93.384C28.176 94.152 27.76 95.64 26.96 97.848C26.768 97.048 26.576 96.568 26.384 96.408C26.192 96.216 26.112 95.944 26.144 95.592C26.24 93.96 26.24 92.456 26.144 91.08C26.08 89.672 26.048 88.552 26.048 87.72C26.048 86.888 25.952 86.488 25.76 86.52C25.568 86.552 25.376 86.52 25.184 86.424C25.024 86.328 24.896 86.152 24.8 85.896ZM27.152 107.064L27.008 106.92C26.88 106.824 26.8 106.696 26.768 106.536C26.512 106.088 26.736 105.56 27.44 104.952C28.144 104.344 28.672 104.152 29.024 104.376C29.6 104.28 30.144 104.616 30.656 105.384C31.2 106.152 31.248 106.616 30.8 106.776C30.608 107.064 30.32 107.208 29.936 107.208C29.904 107.24 29.856 107.256 29.792 107.256C29.344 107.48 28.88 107.64 28.4 107.736C27.92 107.8 27.504 107.576 27.152 107.064ZM28.736 97.8H29.696L30.08 103.752H29.84C29.744 103.656 29.6 103.576 29.408 103.512C29.248 103.416 29.104 103.384 28.976 103.416C28.816 103.448 28.608 103.496 28.352 103.56L28.736 97.8ZM85.4 97.752H88.472C88.504 98.008 88.616 98.216 88.808 98.376C89 98.504 89.208 98.568 89.432 98.568C89.816 98.568 90.184 97.768 90.536 96.168C90.92 94.568 91.112 93.272 91.112 92.28C91.112 91.992 91.112 91.72 91.112 91.464C91.112 91.176 91.096 90.904 91.064 90.648C91 90.168 90.792 89.816 90.44 89.592C90.12 89.336 89.752 89.208 89.336 89.208L87.416 89.544C86.744 89.544 86.072 89.672 85.4 89.928V83.256H91.88L92.024 83.64L92.648 83.832C92.68 83.832 92.696 83.848 92.696 83.88C92.728 83.88 92.776 83.88 92.84 83.88C93.16 83.88 93.416 83.784 93.608 83.592C93.864 83.4 94.04 83.176 94.136 82.92C94.232 82.664 94.296 80.936 94.328 77.736C94.328 77.384 94.264 77.048 94.136 76.728C94.04 76.376 93.816 76.072 93.464 75.816C93.144 75.752 92.888 75.72 92.696 75.72L90.344 75.96C89.992 75.96 89.672 75.896 89.384 75.768C88.968 75.736 88.152 75.704 86.936 75.672L83.576 75.72C82.936 75.72 82.312 75.704 81.704 75.672C81.096 75.64 80.504 75.576 79.928 75.48C79.064 75.544 78.52 75.88 78.296 76.488C78.072 77.064 77.96 77.72 77.96 78.456L78.008 79.944C77.912 82.28 77.864 83.832 77.864 84.6C77.992 86.776 78.136 88.232 78.296 88.968C78.392 89.416 78.632 89.672 79.016 89.736V112.248H92.504C92.664 112.376 92.872 112.44 93.128 112.44C93.64 112.44 94.024 111.656 94.28 110.088C94.536 108.52 94.664 107.464 94.664 106.92C94.664 106.536 94.616 106.152 94.52 105.768C94.424 105.384 94.248 105.016 93.992 104.664C93.448 104.44 92.904 104.296 92.36 104.232C91.816 104.136 91.272 104.088 90.728 104.088C89.832 104.088 88.936 104.168 88.04 104.328C87.144 104.456 86.264 104.584 85.4 104.712V97.752ZM78.728 88.152V86.328C78.632 85.848 78.6 84.744 78.632 83.016C78.696 81.256 78.744 79.496 78.776 77.736V77.64C78.776 77.48 78.824 77.32 78.92 77.16C79.016 77 79.128 76.888 79.256 76.824C79.672 76.568 80.088 76.392 80.504 76.296C81.592 76.36 82.664 76.472 83.72 76.632C84.808 76.792 85.896 76.872 86.984 76.872C87.848 76.872 88.744 76.776 89.672 76.584C89.96 76.648 90.264 76.68 90.584 76.68C90.904 76.68 91.208 76.696 91.496 76.728C91.816 76.728 92.12 76.76 92.408 76.824C92.728 76.888 93.016 77.032 93.272 77.256C93.4 77.32 93.496 77.432 93.56 77.592C93.656 77.752 93.704 77.912 93.704 78.072V78.168C93.544 79.448 93.48 80.488 93.512 81.288C93.544 82.056 93.448 82.52 93.224 82.68C93.032 82.84 92.808 82.92 92.552 82.92C92.392 82.92 92.232 82.872 92.072 82.776C91.912 82.68 91.8 82.536 91.736 82.344C91.64 82.056 91.56 81.768 91.496 81.48C91.432 81.16 91.32 80.856 91.16 80.568C90.968 80.76 90.728 80.856 90.44 80.856C90.056 80.856 89.784 80.68 89.624 80.328L89.576 80.136C89.416 80.584 89.128 80.808 88.712 80.808C88.296 80.808 88.04 80.872 87.944 81C87.848 81.096 87.752 81.176 87.656 81.24C87.464 81.4 87.256 81.512 87.032 81.576C86.84 81.64 86.648 81.672 86.456 81.672C86.072 81.672 85.704 81.576 85.352 81.384C85.032 81.16 84.776 80.872 84.584 80.52C84.424 80.552 84.184 80.632 83.864 80.76C83.736 82.136 83.656 83.512 83.624 84.888C83.624 86.232 83.544 87.592 83.384 88.968C83.352 89.288 83.24 89.512 83.048 89.64C82.856 89.768 82.648 89.832 82.424 89.832C82.168 89.832 81.576 89.32 80.648 88.296C80.232 88.872 79.912 89.16 79.688 89.16C79.432 89.16 79.208 89.08 79.016 88.92C78.824 88.76 78.728 88.504 78.728 88.152ZM85.592 105.96C85.624 105.768 85.704 105.608 85.832 105.48C85.992 105.32 87.016 105.16 88.904 105C90.824 104.84 92.056 104.84 92.6 105C93.24 105.16 93.656 105.48 93.848 105.96C94.072 106.408 94.184 106.92 94.184 107.496C93.64 109.896 93.24 111.096 92.984 111.096C92.792 111.096 92.6 111.048 92.408 110.952C92.248 110.824 92.136 110.648 92.072 110.424C91.944 110.072 91.848 109.72 91.784 109.368C91.72 109.016 91.64 108.664 91.544 108.312C91.384 108.312 91.208 108.264 91.016 108.168H90.344C90.088 108.008 89.864 107.912 89.672 107.88C89.64 107.88 89.608 107.896 89.576 107.928C89.512 108.248 89.336 108.568 89.048 108.888C88.792 109.208 88.392 109.352 87.848 109.32C87.336 109.288 87 109.096 86.84 108.744C86.68 108.36 86.52 107.992 86.36 107.64C86.264 107.608 86.12 107.528 85.928 107.4C85.576 107.24 85.4 106.968 85.4 106.584C85.4 106.328 85.464 106.12 85.592 105.96ZM85.4 90.408C87.384 90.312 88.52 90.152 88.808 89.928C89.032 90.024 89.256 90.056 89.48 90.024C89.736 89.992 89.944 90.072 90.104 90.264C90.2 90.328 90.296 90.456 90.392 90.648C90.488 90.808 90.536 90.952 90.536 91.08C90.6 91.656 90.648 92.248 90.68 92.856C90.744 93.432 90.424 94.856 89.72 97.128C89.496 97.128 89.288 97.08 89.096 96.984C88.936 96.856 88.824 96.664 88.76 96.408C88.632 96.088 88.552 95.752 88.52 95.4C88.52 95.048 88.504 94.696 88.472 94.344C88.312 94.44 88.152 94.488 87.992 94.488C87.64 94.488 86.808 94.008 85.496 93.048C84.76 91.672 84.472 90.888 84.632 90.696C84.792 90.504 85.048 90.408 85.4 90.408ZM85.784 93.144C85.816 93.144 85.848 93.128 85.88 93.096C85.848 93.096 85.832 93.08 85.832 93.048H85.688L85.784 93.144Z" fill="#F0DB19"/>
<path d="M55.4731 104.568V86.472C55.7611 86.312 55.9211 86.088 55.9531 85.8C56.0171 85.416 56.0651 85.032 56.0971 84.648C56.1291 84.232 56.1451 83.8 56.1451 83.352C56.1451 82.072 55.9531 80.824 55.5691 79.608C55.1851 78.36 54.5131 77.32 53.5531 76.488L50.0011 75.672C49.7131 75.672 49.4251 75.688 49.1371 75.72C48.8811 75.72 48.5131 75.688 48.0331 75.624C47.5851 75.528 47.0731 75.448 46.4971 75.384C45.9211 75.288 45.1531 75.24 44.1931 75.24C44.0331 75.24 43.7131 75.208 43.2331 75.144C42.7851 75.048 42.4331 75 42.1771 75H41.8891C41.6011 75 41.1371 75.08 40.4971 75.24C39.8571 75.368 39.4411 75.512 39.2491 75.672C39.0891 75.832 39.0091 76.072 39.0091 76.392C38.9771 76.744 38.9451 77.096 38.9131 77.448C38.9131 77.8 38.8971 78.296 38.8651 78.936C38.8331 79.576 38.8171 80.344 38.8171 81.24C38.9451 83.384 39.0571 84.728 39.1531 85.272C39.1851 85.528 39.2811 85.72 39.4411 85.848C39.6011 85.944 39.7931 85.992 40.0171 85.992V112.248H48.2251C50.3371 112.248 52.0651 111.512 53.4091 110.04C54.7851 108.536 55.4731 106.712 55.4731 104.568ZM39.3931 84.312C39.4571 83.064 39.5371 81.816 39.6331 80.568C39.7611 79.288 39.9051 78.024 40.0651 76.776C40.0971 76.584 40.3851 76.312 40.9291 75.96C41.1211 75.896 41.4891 75.848 42.0331 75.816C42.5771 75.784 43.2011 75.784 43.9051 75.816C44.6091 75.848 45.3291 75.864 46.0651 75.864L48.5611 76.248C48.9771 76.216 49.3771 76.168 49.7611 76.104C50.1771 76.008 50.9931 76.2 52.2091 76.68C53.4571 77.16 54.3051 78.04 54.7531 79.32C55.2011 80.6 55.4251 81.912 55.4251 83.256C55.4251 83.8 55.3931 84.328 55.3291 84.84C55.2651 85.32 55.1851 85.8 55.0891 86.28C54.9611 86.792 54.6411 87.048 54.1291 87.048H53.8891C53.8251 87.848 53.7771 88.648 53.7451 89.448C53.7451 90.248 53.7291 91.064 53.6971 91.896C53.6971 92.248 53.4731 92.504 53.0251 92.664C52.5771 92.792 52.2571 92.776 52.0651 92.616C51.8731 92.456 51.6171 91.32 51.2971 89.208C51.2011 88.824 51.1531 88.408 51.1531 87.96C50.8971 88.088 50.6891 88.152 50.5291 88.152C50.2731 88.152 49.9531 87.624 49.5691 86.568C49.5691 86.152 49.5851 85.736 49.6171 85.32C49.6491 84.904 49.7131 84.488 49.8091 84.072V82.008C49.5851 81.848 49.3771 81.704 49.1851 81.576C48.9931 81.416 48.8011 81.256 48.6091 81.096C48.5131 81.416 48.4011 81.656 48.2731 81.816C48.0811 82.104 47.8091 82.248 47.4571 82.248C47.2011 82.248 46.9771 82.168 46.7851 82.008C46.5931 81.816 46.4971 81.576 46.4971 81.288V81.144C46.4971 81.08 46.4971 81.032 46.4971 81C46.5291 80.936 46.5451 80.872 46.5451 80.808C46.4491 81.064 46.3371 81.272 46.2091 81.432C46.1451 83.128 46.0491 84.808 45.9211 86.472C45.8251 88.136 45.6651 89.8 45.4411 91.464C45.3771 91.784 45.2491 92.008 45.0571 92.136C44.8651 92.264 44.6571 92.328 44.4331 92.328C44.1771 92.328 43.8571 92.024 43.4731 91.416V91.272C43.4731 91.176 43.4731 91.08 43.4731 90.984C43.5051 90.888 43.5371 90.776 43.5691 90.648H43.3771C43.1531 90.648 42.9451 90.6 42.7531 90.504C42.5931 90.376 42.4971 90.184 42.4651 89.928C42.4011 89.352 42.3371 88.776 42.2731 88.2C42.2091 87.592 42.1451 86.984 42.0811 86.376C41.7931 86.376 41.5371 86.264 41.3131 86.04C41.1531 85.976 40.9931 85.896 40.8331 85.8C40.7051 85.672 40.6411 85.512 40.6411 85.32C40.5771 85.352 40.4651 85.368 40.3051 85.368C40.0491 85.368 39.8251 85.288 39.6331 85.128C39.4731 84.936 39.3931 84.696 39.3931 84.408V84.312ZM46.4011 83.256H47.7451C48.6411 83.256 49.0891 83.704 49.0891 84.6V103.896C48.7371 103.448 48.2891 103.224 47.7451 103.224C47.3291 103.224 46.9451 103.384 46.5931 103.704C46.5291 103.736 46.4651 103.784 46.4011 103.848V83.256ZM46.1611 104.76C46.5131 104.344 46.9931 104.136 47.6011 104.136C47.8571 104.136 48.0971 104.2 48.3211 104.328C48.5771 104.456 48.7691 104.648 48.8971 104.904C49.0891 105.096 49.1531 106.536 49.0891 109.224C49.0891 109.576 48.9931 109.832 48.8011 109.992C48.6091 110.152 48.3851 110.232 48.1291 110.232C47.8731 110.232 47.6491 110.152 47.4571 109.992C47.2651 109.832 47.1691 109.576 47.1691 109.224V107.304C46.9771 107.24 46.8011 107.144 46.6411 107.016C46.5131 106.856 46.4171 106.696 46.3531 106.536C45.9051 105.576 45.8411 104.984 46.1611 104.76ZM115.96 75.72C115.768 77.128 115.64 78.536 115.576 79.944C115.512 81.352 115.608 82.76 115.864 84.168C115.896 84.296 115.976 84.44 116.104 84.6C116.232 84.728 116.36 84.824 116.488 84.888C116.712 85.016 116.936 85.08 117.16 85.08C117.608 85.08 117.992 84.92 118.312 84.6C118.664 84.248 118.92 83.944 119.08 83.688C119.304 83.56 119.592 83.416 119.944 83.256H120.232V112.248H126.616V83.544C126.872 83.832 127.128 84.072 127.384 84.264C127.672 84.456 127.992 84.552 128.344 84.552H128.584L128.536 84.456C128.536 84.456 128.568 84.488 128.632 84.552C128.696 84.616 128.76 84.664 128.824 84.696C128.92 84.728 129 84.776 129.064 84.84C129.256 85.032 129.48 85.128 129.736 85.128C130.024 85.128 130.264 85.016 130.456 84.792C130.744 84.568 130.936 84.344 131.032 84.12C131.128 83.864 131.176 83.592 131.176 83.304C131.176 82.28 131.176 81.464 131.176 80.856C131.176 80.248 131.176 79.784 131.176 79.464C131.176 79.144 131.176 78.936 131.176 78.84C131.208 78.712 131.224 78.6 131.224 78.504C131.224 78.216 131.24 77.912 131.272 77.592C131.304 77.272 131.272 76.936 131.176 76.584C131.112 76.232 131.032 76.152 130.936 76.344C130.84 76.504 130.792 76.568 130.792 76.536C130.344 76.152 128.744 75.896 125.992 75.768C123.24 75.64 121.512 75.528 120.808 75.432C120.136 75.336 119.624 75.272 119.272 75.24C118.92 75.208 118.68 75.192 118.552 75.192C118.424 75.16 118.328 75.144 118.264 75.144L117.64 75.192C117.448 74.968 117.192 74.856 116.872 74.856C116.648 74.856 116.44 74.936 116.248 75.096C116.088 75.224 115.992 75.432 115.96 75.72ZM118.936 82.056L118.696 82.2C118.44 82.616 118.04 82.872 117.496 82.968C117.4 83 117.272 83.016 117.112 83.016C116.6 83.016 116.296 82.728 116.2 82.152C116.136 81.352 116.104 80.568 116.104 79.8C116.104 79.032 116.168 78.248 116.296 77.448C116.328 77.032 116.552 76.76 116.968 76.632C117.128 76.472 117.336 76.376 117.592 76.344C118.808 76.536 121 76.712 124.168 76.872C127.368 77.032 129.08 77.112 129.304 77.112C129.72 77.112 130.024 77.336 130.216 77.784C130.376 78.168 130.456 78.52 130.456 78.84C130.328 79.864 130.2 80.68 130.072 81.288C129.976 81.864 129.864 82.296 129.736 82.584C129.608 82.872 129.48 83.064 129.352 83.16C129.256 83.224 129.144 83.256 129.016 83.256C128.888 83.256 128.792 83.24 128.728 83.208C128.536 83.4 128.296 83.496 128.008 83.496C127.656 83.496 127.384 83.336 127.192 83.016C127.096 82.92 127.016 82.824 126.952 82.728C126.92 82.632 126.872 82.536 126.808 82.44L126.328 82.584C126.072 82.936 125.8 83.112 125.512 83.112L125.32 83.064C125.352 83.544 125.368 84.024 125.368 84.504C125.4 84.984 125.416 85.464 125.416 85.944C125.416 87.768 125.352 89.56 125.224 91.32C125.128 93.08 125.08 94.872 125.08 96.696V97.896C124.376 99.304 123.736 99.304 123.16 97.896V96.312C123.16 94.776 123.208 93.208 123.304 91.608C123.208 91.672 123.064 91.704 122.872 91.704C122.232 92.024 121.768 91.592 121.48 90.408L121.672 84.84C121.672 84.04 121.624 83.256 121.528 82.488C121.368 82.488 121.272 82.472 121.24 82.44C120.984 82.376 120.76 82.28 120.568 82.152C120.376 82.024 120.248 81.832 120.184 81.576C120.184 81.576 120.088 81.592 119.896 81.624C119.704 81.624 119.56 81.656 119.464 81.72C119.464 81.688 119.384 81.72 119.224 81.816C119.096 81.912 119 81.992 118.936 82.056ZM128.824 84.456L128.632 84.552C128.632 84.552 128.696 84.52 128.824 84.456Z" fill="#1AC22B"/>
<path d="M67.4281 86.52C67.3641 86.552 67.3161 86.568 67.2841 86.568C67.2521 86.568 67.2041 86.584 67.1401 86.616L66.3721 81.096C66.7241 80.584 66.9481 79.992 67.0441 79.32C67.1721 78.616 67.1401 77.96 66.9481 77.352C66.7881 76.712 66.4841 76.184 66.0361 75.768C65.6201 75.32 65.0601 75.096 64.3561 75.096C63.8761 75 63.3801 74.968 62.8681 75C62.3561 75.032 61.8921 75.08 61.4761 75.144C61.1241 75.112 60.7721 75.112 60.4201 75.144C60.1001 75.176 59.7801 75.272 59.4601 75.432C59.1401 75.304 58.8201 75.32 58.5001 75.48C58.1801 75.64 58.0521 75.944 58.1161 76.392C58.1801 77.48 58.2281 78.6 58.2601 79.752C58.2921 80.872 58.3721 81.992 58.5001 83.112C58.6281 84.232 58.8361 85.32 59.1241 86.376C59.4121 87.432 59.8441 88.424 60.4201 89.352C60.3881 89.992 60.3881 90.664 60.4201 91.368C60.4841 92.04 60.7721 92.632 61.2841 93.144C61.3801 93.336 61.5401 93.464 61.7641 93.528L64.4041 112.248H70.2121L74.0041 85.944C74.4521 85.624 74.7721 85.208 74.9641 84.696C75.1561 84.184 75.3161 83.336 75.4441 82.152C75.6041 80.968 75.7801 80.12 75.9721 79.608C76.0041 79.384 76.0681 79.176 76.1641 78.984C76.2601 78.76 76.3401 78.536 76.4041 78.312C76.4681 78.088 76.5001 77.88 76.5001 77.688C76.5321 77.464 76.4841 77.224 76.3561 76.968C76.2281 76.84 76.1321 76.696 76.0681 76.536C76.0361 76.344 75.9881 76.168 75.9241 76.008C75.0921 75.624 74.1961 75.464 73.2361 75.528C72.6921 75.304 72.1161 75.192 71.5081 75.192C70.9001 75.192 70.3241 75.304 69.7801 75.528C69.2681 75.752 68.8361 76.088 68.4841 76.536C68.1641 76.952 68.0201 77.48 68.0521 78.12C67.8921 78.92 67.8441 79.736 67.9081 80.568C67.9721 81.368 68.0361 82.168 68.1001 82.968L67.5721 86.52H67.4281ZM68.7241 79.608C68.5961 79.192 68.6601 78.872 68.9161 78.648C68.8201 77.976 68.9481 77.336 69.3001 76.728C69.5241 76.248 69.8441 76.056 70.2601 76.152C70.7081 76.248 71.3161 76.312 72.0841 76.344C72.8841 76.376 73.3801 76.376 73.5721 76.344C74.0521 76.312 74.4361 76.408 74.7241 76.632C75.0441 76.824 75.2841 77.096 75.4441 77.448C75.6361 77.8 75.7321 78.184 75.7321 78.6C75.7321 79.016 75.6681 79.4 75.5401 79.752C75.1881 80.04 74.8841 81 74.6281 82.632C74.4041 84.232 73.9561 84.968 73.2841 84.84C72.6441 84.712 72.2441 84.584 72.0841 84.456V84.648C72.1481 85 72.1001 86.024 71.9401 87.72C71.8121 89.416 71.7161 90.632 71.6521 91.368C71.6201 91.656 71.5081 91.88 71.3161 92.04C71.1241 92.168 70.9161 92.232 70.6921 92.232C69.7961 94.12 68.8521 94.12 67.8601 92.232C66.8681 90.312 66.2761 90.184 66.0841 91.848C65.8921 93.512 65.6681 94.648 65.4121 95.256C65.1881 95.832 64.9481 96.104 64.6921 96.072C64.4681 96.04 64.2761 95.576 64.1161 94.68C63.9561 93.752 63.8601 93.096 63.8281 92.712L62.9161 92.328C61.9241 92.936 61.3961 92.744 61.3321 91.752C61.2681 90.728 61.2521 90.12 61.2841 89.928C61.3161 89.704 61.3481 89.48 61.3801 89.256C61.4121 89.032 61.3801 88.824 61.2841 88.632C60.9001 87.512 60.5161 86.392 60.1321 85.272C59.7801 84.152 59.5401 82.984 59.4121 81.768C59.1881 81.672 59.0761 81.48 59.0761 81.192C58.9481 80.552 58.9161 79.896 58.9801 79.224C59.0441 78.52 59.0121 77.848 58.8841 77.208C58.8521 76.952 58.8841 76.744 58.9801 76.584C59.1081 76.424 59.2521 76.312 59.4121 76.248C59.6041 76.152 59.7961 76.136 59.9881 76.2C60.2121 76.232 60.3881 76.312 60.5161 76.44C60.9001 76.248 61.6681 76.152 62.8201 76.152C64.0041 76.152 64.7561 76.248 65.0761 76.44C65.4281 76.6 65.7001 76.856 65.8921 77.208C66.0841 77.528 66.1801 77.896 66.1801 78.312C66.2121 78.696 66.1321 79.064 65.9401 79.416C65.6841 79.736 65.5401 80.072 65.5081 80.424C65.5081 80.776 65.5241 81.144 65.5561 81.528C65.6201 81.88 65.6681 82.248 65.7001 82.632C65.7321 83.016 65.6841 83.384 65.5561 83.736C65.5881 84.344 65.6521 84.936 65.7481 85.512C65.8441 86.056 66.0521 86.584 66.3721 87.096C66.6921 87.608 66.8681 87.928 66.9001 88.056C66.9961 88.056 67.0921 88.056 67.1881 88.056C67.3161 88.056 67.4441 87.992 67.5721 87.864C67.7321 87.736 67.9081 87.512 68.1001 87.192C68.3241 86.84 68.4521 86.568 68.4841 86.376C68.5481 86.152 68.6121 85.928 68.6761 85.704C68.4521 85.48 68.3881 85.208 68.4841 84.888C68.5801 84.024 68.7241 83.144 68.9161 82.248C69.1081 81.352 69.0441 80.472 68.7241 79.608Z" fill="#6DC5E0"/>
<path d="M112.989 112.248V84.744C113.341 84.328 113.565 83.784 113.661 83.112C113.789 82.44 113.933 81.848 114.093 81.336C114.125 80.824 114.189 80.296 114.285 79.752C114.413 79.208 114.493 78.664 114.525 78.12C114.557 77.576 114.477 77.064 114.285 76.584C114.125 76.104 113.773 75.688 113.229 75.336C113.133 75.272 112.989 75.224 112.797 75.192C112.637 75.16 112.509 75.16 112.413 75.192C111.965 75.32 111.517 75.368 111.069 75.336C110.621 75.272 110.173 75.208 109.725 75.144C109.277 75.048 108.813 74.984 108.333 74.952C107.885 74.888 107.437 74.92 106.989 75.048C106.317 75.976 105.949 77 105.885 78.12C105.853 79.24 105.917 80.328 106.077 81.384C106.077 81.672 106.253 81.896 106.605 82.056V85.944C106.541 85.88 106.493 85.816 106.461 85.752C106.237 85.4 105.933 85.224 105.549 85.224L104.445 81.384C104.509 80.328 104.509 79.288 104.445 78.264C104.381 77.24 103.981 76.344 103.245 75.576C102.573 75.224 101.773 75.032 100.845 75C99.9488 74.936 99.1008 75.048 98.3008 75.336C97.5328 75.624 96.8928 76.088 96.3808 76.728C95.8688 77.336 95.6608 78.12 95.7568 79.08C95.8848 79.624 95.9328 80.232 95.9008 80.904C95.9008 81.576 95.9008 82.232 95.9008 82.872C95.9328 83.48 96.0448 84.056 96.2368 84.6C96.4608 85.144 96.8928 85.56 97.5328 85.848V112.248H103.917V101.208L107.373 112.248H112.989ZM102.237 83.64C102.205 83.64 102.189 83.608 102.189 83.544C102.093 83.416 101.997 83.288 101.901 83.16C101.837 83.032 101.773 82.888 101.709 82.728C101.677 83.112 101.645 83.512 101.613 83.928C101.613 84.312 101.533 84.696 101.373 85.08C101.309 85.336 101.165 85.512 100.941 85.608C100.717 85.704 100.493 85.736 100.269 85.704C100.077 85.64 99.8848 85.528 99.6928 85.368C99.5328 85.208 99.4688 85 99.5008 84.744V84.168H99.4528C99.4208 84.456 99.2288 84.68 98.8768 84.84C98.8448 84.84 98.7808 84.888 98.6848 84.984C98.4608 85.144 98.2048 85.224 97.9168 85.224C97.6608 85.192 97.4528 85.064 97.2928 84.84C97.2608 84.808 97.2288 84.792 97.1968 84.792C97.1648 84.76 97.1328 84.728 97.1008 84.696C96.9728 84.632 96.8608 84.52 96.7648 84.36C96.6688 84.2 96.6208 84.04 96.6208 83.88C96.4288 83.112 96.3648 82.344 96.4288 81.576C96.5248 80.776 96.5568 79.976 96.5248 79.176C96.4288 78.504 96.5408 77.928 96.8608 77.448C97.1808 76.936 97.6128 76.536 98.1568 76.248C98.7328 75.928 99.3408 75.736 99.9808 75.672C100.653 75.608 101.261 75.672 101.805 75.864C102.381 75.96 102.813 76.184 103.101 76.536C103.389 76.856 103.581 77.256 103.677 77.736C103.805 78.216 103.885 78.728 103.917 79.272C103.949 79.784 104.013 80.248 104.109 80.664C104.141 81.112 104.221 81.608 104.349 82.152C104.509 82.696 104.493 83.16 104.301 83.544C104.397 83.8 104.477 84.056 104.541 84.312C104.605 84.568 104.669 84.824 104.733 85.08C104.797 85.176 104.861 85.288 104.925 85.416C104.925 85.512 104.941 85.576 104.973 85.608C105.453 85.832 105.901 86.168 106.317 86.616C106.765 87.032 107.101 87.512 107.325 88.056C107.581 88.568 107.709 89.128 107.709 89.736C107.709 90.312 107.549 90.872 107.229 91.416C107.037 91.8 106.733 91.992 106.317 91.992C105.933 91.96 105.661 91.752 105.501 91.368C105.117 90.536 104.701 89.72 104.253 88.92C103.805 88.088 103.453 87.224 103.197 86.328C103.005 85.88 102.829 85.432 102.669 84.984C102.541 84.504 102.397 84.056 102.237 83.64ZM108.381 81.768C107.805 81.768 107.373 81.624 107.085 81.336C106.797 81.016 106.605 80.648 106.509 80.232C106.413 79.784 106.381 79.32 106.413 78.84C106.445 78.328 106.509 77.88 106.605 77.496C106.573 77.112 106.653 76.776 106.845 76.488C107.037 76.168 107.293 75.944 107.613 75.816C107.933 75.656 108.269 75.592 108.621 75.624C109.005 75.624 109.341 75.736 109.629 75.96C109.821 75.832 109.981 75.832 110.109 75.96C110.269 76.056 110.429 76.136 110.589 76.2H110.541C110.797 76.296 111.053 76.36 111.309 76.392C111.597 76.392 111.869 76.392 112.125 76.392C112.381 76.392 112.637 76.424 112.893 76.488C113.149 76.552 113.389 76.68 113.613 76.872C113.773 77.448 113.837 78.024 113.805 78.6C113.773 79.144 113.709 79.704 113.613 80.28C113.517 80.856 113.405 81.432 113.277 82.008C113.181 82.584 113.117 83.16 113.085 83.736C112.957 83.8 112.829 83.88 112.701 83.976C112.605 84.072 112.493 84.152 112.365 84.216C112.205 84.344 112.013 84.408 111.789 84.408C111.565 84.408 111.373 84.344 111.213 84.216C111.021 84.12 110.877 83.992 110.781 83.832C110.685 83.672 110.589 83.512 110.493 83.352C110.493 83.896 110.493 84.424 110.493 84.936C110.525 85.416 110.541 85.928 110.541 86.472C110.541 86.824 110.429 87.08 110.205 87.24C110.013 87.4 109.789 87.48 109.533 87.48C109.309 87.48 109.101 87.4 108.909 87.24C108.717 87.08 108.621 86.824 108.621 86.472C108.589 85.704 108.573 84.936 108.573 84.168C108.573 83.368 108.573 82.584 108.573 81.816C108.477 81.816 108.413 81.8 108.381 81.768ZM106.701 89.496L106.413 88.776L106.365 88.824C106.461 88.952 106.573 89.176 106.701 89.496ZM108.525 77.64V77.688L108.573 77.64H108.525Z" fill="#F0370E"/>
<path d="M17.52 43.248V16.128C17.648 16.064 17.76 15.952 17.856 15.792C17.952 15.632 18 15.44 18 15.216C17.968 14.512 18.032 13.744 18.192 12.912C18.384 12.08 18.512 11.264 18.576 10.464C18.64 9.664 18.544 8.928 18.288 8.256C18.064 7.552 17.536 6.992 16.704 6.576C16.096 6.448 15.456 6.384 14.784 6.384C14.112 6.352 13.472 6.416 12.864 6.576C12.256 6.736 11.712 7.024 11.232 7.44C10.752 7.824 10.416 8.368 10.224 9.072C9.968 10.256 9.856 11.472 9.888 12.72C9.952 13.968 10.112 15.152 10.368 16.272C10.56 16.4 10.704 16.512 10.8 16.608C10.864 16.704 10.976 16.784 11.136 16.848V20.832C10.272 20.384 9.376 20.288 8.448 20.544V15.168C8.8 14.592 8.976 13.952 8.976 13.248C8.976 12.512 9.104 11.824 9.36 11.184C9.424 10.448 9.488 9.68 9.552 8.88C9.648 8.08 9.456 7.36 8.976 6.72C8.88 6.56 8.72 6.432 8.496 6.336C8.304 6.24 8.128 6.208 7.968 6.24C7.68 6.336 7.376 6.368 7.056 6.336C6.768 6.272 6.48 6.208 6.192 6.144C5.904 6.048 5.616 6 5.328 6C5.04 5.968 4.752 6.032 4.464 6.192C3.536 6.448 2.8 6.912 2.256 7.584C1.744 8.256 1.376 9.024 1.152 9.888C0.96 10.72 0.928 11.584 1.056 12.48C1.184 13.376 1.44 14.192 1.824 14.928C1.856 15.088 1.936 15.216 2.064 15.312V43.248H8.448V28.752H11.136V43.248H17.52ZM1.872 13.824C1.776 13.216 1.744 12.56 1.776 11.856C1.808 11.152 1.92 10.496 2.112 9.888C2.336 9.248 2.656 8.688 3.072 8.208C3.52 7.696 4.08 7.328 4.752 7.104C4.848 7.04 4.992 7.024 5.184 7.056C5.376 7.088 5.52 7.136 5.616 7.2C6 7.2 6.368 7.264 6.72 7.392C7.104 7.488 7.472 7.616 7.824 7.776C8.304 8.096 8.592 8.48 8.688 8.928C8.816 9.344 8.848 9.792 8.784 10.272C8.72 10.72 8.608 11.184 8.448 11.664C8.32 12.144 8.224 13.12 8.16 14.592C8.16 14.752 8.112 14.896 8.016 15.024C7.984 15.28 7.936 15.536 7.872 15.792C7.808 16.016 7.632 16.16 7.344 16.224C7.12 16.384 6.88 16.448 6.624 16.416C6.368 16.352 6.16 16.224 6 16.032C5.648 15.744 5.424 15.36 5.328 14.88H4.944C4.944 16.224 4.944 17.568 4.944 18.912C4.976 20.224 4.864 21.376 4.608 22.368C4.384 23.36 4.144 23.856 3.888 23.856C3.664 23.856 3.456 23.776 3.264 23.616C3.072 23.424 2.976 23.152 2.976 22.8C3.04 21.456 3.056 20.112 3.024 18.768C3.024 17.392 3.024 16.016 3.024 14.64C2.768 14.704 2.528 14.672 2.304 14.544C2.08 14.416 1.936 14.176 1.872 13.824ZM14.208 15.744V15.648C14.016 15.808 13.808 15.888 13.584 15.888C13.36 15.888 13.168 15.824 13.008 15.696C12.048 15.44 11.488 15.248 11.328 15.12C11.104 14.32 10.96 13.504 10.896 12.672C10.864 11.808 11.12 10.784 11.664 9.6C12.24 8.384 12.704 7.712 13.056 7.584C13.408 7.424 13.776 7.344 14.16 7.344C14.576 7.344 14.992 7.392 15.408 7.488C15.824 7.552 16.224 7.568 16.608 7.536C17.088 7.952 17.424 8.4 17.616 8.88C17.808 9.36 17.904 9.856 17.904 10.368C17.904 10.848 17.84 11.36 17.712 11.904C17.616 12.416 17.504 12.928 17.376 13.44C17.344 13.792 17.28 14.16 17.184 14.544C17.12 14.896 17.072 15.248 17.04 15.6V15.84C17.04 16.192 16.848 16.448 16.464 16.608C16.4 17.184 16.336 17.776 16.272 18.384C16.208 18.96 16.192 19.552 16.224 20.16C16.224 20.416 16.112 20.608 15.888 20.736C15.696 20.864 15.36 20.128 14.88 18.528C14.432 16.928 14.208 16 14.208 15.744ZM9.216 25.344C8.576 25.312 8.112 25.056 7.824 24.576C7.536 24.096 7.392 23.584 7.392 23.04C7.424 22.496 7.6 22 7.92 21.552C8.272 21.072 8.752 20.816 9.36 20.784C9.52 20.752 9.696 20.784 9.888 20.88C10.08 20.944 10.224 21.04 10.32 21.168C10.352 21.2 10.544 21.264 10.896 21.36C11.248 21.424 11.52 21.488 11.712 21.552C12.128 22.448 12.336 22.896 12.336 22.896C12.336 23.056 12.368 23.168 12.432 23.232C12.464 23.584 12.464 24.368 12.432 25.584C12.4 26.768 12.16 27.456 11.712 27.648C11.328 27.808 10.992 27.76 10.704 27.504C10.448 27.248 10.368 26.912 10.464 26.496C10.464 26.336 10.48 26.176 10.512 26.016C10.544 25.824 10.576 25.648 10.608 25.488C10.352 25.36 10.176 25.248 10.08 25.152C9.92 25.216 9.776 25.248 9.648 25.248C9.52 25.248 9.376 25.28 9.216 25.344ZM97.3425 20.736V17.472C97.5985 17.152 97.7265 16.8 97.7265 16.416C97.7265 16.16 97.6625 15.904 97.5345 15.648C97.4705 15.168 97.4385 14.672 97.4385 14.16C97.4385 13.648 97.4225 13.152 97.3905 12.672C97.3585 12.16 97.2625 11.68 97.1025 11.232C96.9745 10.752 96.7345 10.32 96.3825 9.936C96.1265 9.648 95.8865 9.376 95.6625 9.12C95.4385 8.832 95.2145 8.544 94.9905 8.256C94.7985 8 94.5425 7.872 94.2225 7.872C93.9985 7.808 93.7745 7.744 93.5505 7.68C93.3265 7.616 93.1025 7.584 92.8785 7.584C92.5585 7.584 92.3025 7.68 92.1105 7.872C92.0465 7.872 91.9665 7.888 91.8705 7.92C91.8065 7.92 91.7585 7.92 91.7265 7.92C91.2465 7.856 90.9105 7.632 90.7185 7.248C90.6545 7.152 90.5265 7.056 90.3345 6.96C90.1745 6.864 90.0305 6.816 89.9025 6.816H89.5185C88.7825 6.816 88.0305 6.752 87.2625 6.624C86.5265 6.496 85.8225 6.304 85.1505 6.048H85.1025C84.7505 6.048 84.4305 6.128 84.1425 6.288C83.8545 6.448 83.5665 6.64 83.2785 6.864C83.0225 7.088 82.7505 7.296 82.4625 7.488C82.2065 7.68 81.9025 7.792 81.5505 7.824C81.4225 8.048 81.2945 8.256 81.1665 8.448C81.0705 8.608 81.0225 8.816 81.0225 9.072C80.9265 9.328 80.8785 9.584 80.8785 9.84C80.8785 10.192 80.9105 10.544 80.9745 10.896C81.0705 11.216 81.1185 11.552 81.1185 11.904C81.1185 12.224 81.0705 12.496 80.9745 12.72C80.8785 13.136 80.7985 13.552 80.7345 13.968C80.6705 14.384 80.6385 14.816 80.6385 15.264C80.6385 15.936 80.7345 16.592 80.9265 17.232C81.1185 17.84 81.4385 18.368 81.8865 18.816V43.248H88.2705V28.752H89.8545C91.8385 28.752 93.5825 27.92 95.0865 26.256C96.5905 24.592 97.3425 22.752 97.3425 20.736ZM83.0385 19.2C82.9105 19.008 82.8465 18.8 82.8465 18.576C82.8785 18.32 82.8625 18.08 82.7985 17.856C82.6385 17.664 82.4625 17.488 82.2705 17.328C82.1745 17.264 82.0625 17.152 81.9345 16.992C81.8385 16.832 81.7745 16.704 81.7425 16.608C81.6785 16.32 81.6305 16.032 81.5985 15.744C81.5665 15.424 81.5505 15.12 81.5505 14.832V14.304C81.6145 14.048 81.6945 13.84 81.7905 13.68C81.8865 13.488 81.9665 13.28 82.0305 13.056C82.0305 12.832 82.0145 12.656 81.9825 12.528C81.7905 12.208 81.6945 11.776 81.6945 11.232C81.6945 10.72 81.8065 10.224 82.0305 9.744C82.2865 9.232 82.6865 8.912 83.2305 8.784C83.2625 8.592 83.3425 8.384 83.4705 8.16C83.6305 7.904 83.8225 7.712 84.0465 7.584C84.2705 7.456 84.5105 7.392 84.7665 7.392C84.8945 7.392 85.0865 7.424 85.3425 7.488C85.5025 7.36 85.6625 7.28 85.8225 7.248C86.0145 7.216 86.2065 7.2 86.3985 7.2C86.9105 7.2 87.4225 7.312 87.9345 7.536C88.4785 7.76 88.9905 7.888 89.4705 7.92C90.0465 8.656 90.7985 9.024 91.7265 9.024H91.8705C92.4145 8.864 92.9105 8.784 93.3585 8.784C93.7425 8.784 94.0945 8.864 94.4145 9.024C94.7665 9.152 95.0385 9.44 95.2305 9.888C95.9345 10.24 96.3985 10.784 96.6225 11.52C96.8465 12.224 96.9585 12.976 96.9585 13.776C96.9585 14.032 96.9425 14.288 96.9105 14.544C96.9105 14.768 96.8945 15.008 96.8625 15.264C96.8625 15.712 96.6385 16.048 96.1905 16.272C96.0625 16.528 95.9025 16.752 95.7105 16.944C95.5185 17.136 95.3105 17.328 95.0865 17.52V17.664C95.0545 18.144 94.9905 18.608 94.8945 19.056C94.7985 19.504 94.5265 19.856 94.0785 20.112C93.8545 20.272 93.6465 20.352 93.4545 20.352C93.1025 20.352 92.8305 20.192 92.6385 19.872C92.3825 19.584 92.2225 19.264 92.1585 18.912C92.1265 18.56 92.1105 18.208 92.1105 17.856C92.1105 17.6 92.1105 17.36 92.1105 17.136C92.1105 16.88 92.0945 16.624 92.0625 16.368C91.8705 16.368 91.6785 16.304 91.4865 16.176C91.2945 16.048 91.1665 15.888 91.1025 15.696C90.9425 15.568 90.8305 15.472 90.7665 15.408C90.3505 15.376 89.9505 15.216 89.5665 14.928H89.4705C89.1185 14.928 88.7825 14.832 88.4625 14.64C88.1745 14.448 87.9345 14.224 87.7425 13.968C87.4865 14.384 87.3585 14.912 87.3585 15.552V15.984C86.9425 16.24 86.6705 16.576 86.5425 16.992C86.4145 17.376 86.3185 17.792 86.2545 18.24C86.2225 18.656 86.1745 19.088 86.1105 19.536C86.0465 19.984 85.8545 20.384 85.5345 20.736C85.4705 20.864 85.3585 20.976 85.1985 21.072C85.0385 21.168 84.8785 21.216 84.7185 21.216H84.2865C84.0945 21.216 83.9025 21.152 83.7105 21.024C83.5505 20.864 83.4385 20.688 83.3745 20.496C83.3105 20.336 83.2625 20.176 83.2305 20.016C83.1985 19.856 83.1665 19.68 83.1345 19.488C83.0705 19.36 83.0385 19.264 83.0385 19.2ZM90.9585 20.16C90.9585 20.672 90.7665 21.168 90.3825 21.648C90.0305 22.128 89.5985 22.368 89.0865 22.368H88.2705V16.128L89.4225 15.84C89.4865 15.84 89.5825 15.872 89.7105 15.936C89.9345 16.096 90.1425 16.288 90.3345 16.512C90.5265 16.736 90.7345 16.944 90.9585 17.136V20.16ZM83.1825 9.072L83.1345 9.12L83.1825 9.312V9.072ZM142.253 43.248V41.52C142.509 41.36 142.733 41.152 142.924 40.896C143.149 40.608 143.229 40.288 143.165 39.936C143.453 39.392 143.565 38.816 143.501 38.208C143.437 37.568 143.229 37.024 142.877 36.576C142.557 36.096 142.125 35.76 141.581 35.568C141.069 35.344 140.493 35.376 139.853 35.664C139.693 35.76 139.517 35.824 139.325 35.856C139.165 35.888 138.989 35.92 138.797 35.952C138.509 35.728 138.189 35.6 137.837 35.568C137.517 35.504 137.181 35.488 136.829 35.52V19.92C137.149 19.696 137.373 19.424 137.501 19.104C137.629 18.784 137.709 18.432 137.741 18.048C137.805 17.664 137.853 17.28 137.885 16.896C137.917 16.512 137.981 16.144 138.077 15.792C138.205 14.48 138.285 13.168 138.317 11.856C138.349 10.544 138.157 9.264 137.741 8.016C137.677 7.856 137.565 7.712 137.405 7.584C137.277 7.456 137.133 7.36 136.973 7.296C136.845 7.072 136.685 6.928 136.493 6.864C136.301 6.768 136.093 6.704 135.868 6.672C135.677 6.64 135.469 6.624 135.245 6.624C135.053 6.592 134.861 6.528 134.669 6.432C134.029 6.112 133.357 6 132.653 6.096C131.981 6.16 131.373 6.368 130.829 6.72C130.285 7.072 129.837 7.552 129.485 8.16C129.165 8.736 129.037 9.392 129.101 10.128C129.165 10.672 129.149 11.264 129.053 11.904C128.957 12.512 128.909 13.12 128.909 13.728C128.909 14.304 128.989 14.848 129.149 15.36C129.341 15.872 129.725 16.32 130.301 16.704L130.445 16.8V43.248H142.253ZM130.013 10.56C129.725 9.984 129.677 9.424 129.869 8.88C130.093 8.304 130.429 7.84 130.877 7.488C131.325 7.136 131.837 6.928 132.413 6.864C132.989 6.8 133.501 7.008 133.949 7.488C134.237 7.456 134.525 7.44 134.812 7.44C135.101 7.408 135.373 7.424 135.629 7.488C136.493 8.064 137.069 8.784 137.357 9.648C137.645 10.512 137.773 11.424 137.741 12.384C137.709 13.344 137.597 14.32 137.405 15.312C137.245 16.272 137.149 17.168 137.117 18C137.117 18.32 137.005 18.56 136.781 18.72C136.589 18.88 136.365 19.04 136.109 19.2C135.853 19.136 135.613 19.056 135.389 18.96C135.165 18.864 134.957 18.736 134.765 18.576C134.765 18.32 134.717 18.08 134.621 17.856C134.557 17.6 134.477 17.344 134.381 17.088C134.349 17.248 134.317 17.392 134.285 17.52C134.285 17.616 134.285 17.728 134.285 17.856C134.221 18.208 134.077 18.448 133.853 18.576C133.853 18.736 133.853 18.88 133.853 19.008C133.853 19.136 133.869 19.264 133.901 19.392C133.901 19.744 133.789 20 133.565 20.16C133.373 20.32 133.149 20.4 132.893 20.4C132.669 20.4 132.461 20.32 132.269 20.16C132.077 20 131.98 19.744 131.98 19.392C131.949 18.848 131.933 18.304 131.933 17.76C131.965 17.184 131.98 16.624 131.98 16.08C131.789 16.112 131.629 16.112 131.501 16.08C131.245 16.208 130.957 16.224 130.637 16.128C130.349 16 130.173 15.76 130.109 15.408C130.077 15.248 130.045 15.104 130.013 14.976C130.013 14.816 130.013 14.656 130.013 14.496C129.757 13.92 129.661 13.28 129.725 12.576C129.821 11.872 129.917 11.2 130.013 10.56ZM135.725 38.4C135.501 38.208 135.389 37.952 135.389 37.632C135.389 37.312 135.565 37.04 135.917 36.816C136.141 36.592 136.397 36.464 136.685 36.432C136.973 36.4 137.261 36.416 137.549 36.48C138.029 36.8 138.541 36.976 139.085 37.008C139.629 37.04 140.125 36.88 140.573 36.528C141.021 36.432 141.405 36.464 141.725 36.624C142.077 36.784 142.349 37.024 142.541 37.344C142.765 37.664 142.909 38.032 142.973 38.448C143.069 38.864 143.085 39.248 143.021 39.6C142.989 39.888 142.909 40.128 142.781 40.32C142.653 40.48 142.493 40.64 142.301 40.8C142.109 40.928 141.917 41.072 141.725 41.232C141.533 41.36 141.373 41.52 141.245 41.712C141.021 42.032 140.733 42.192 140.381 42.192C140.061 42.192 139.805 42.016 139.613 41.664C139.453 41.536 139.357 41.392 139.325 41.232C139.293 41.04 139.277 40.848 139.277 40.656C139.213 40.656 139.165 40.64 139.133 40.608C138.781 40.736 138.429 40.704 138.077 40.512C137.725 40.288 137.469 40 137.309 39.648C137.213 39.712 137.117 39.792 137.021 39.888C136.893 39.856 136.781 39.84 136.685 39.84C136.589 39.808 136.477 39.776 136.349 39.744C135.741 39.584 135.517 39.2 135.677 38.592C135.677 38.56 135.677 38.528 135.677 38.496C135.709 38.464 135.725 38.432 135.725 38.4Z" fill="#F0370E"/>
<path d="M37.7231 35.568V19.824C38.0751 19.76 38.3791 19.632 38.6351 19.44C38.8911 19.248 39.0191 18.992 39.0191 18.672C39.0191 18.48 38.9871 18.32 38.9231 18.192C38.9871 18.032 39.0191 17.792 39.0191 17.472L38.8271 15.504C38.8271 15.152 38.8911 14.832 39.0191 14.544V14.016C39.0191 13.6 38.9391 13.328 38.7791 13.2V12.864C38.7791 12.64 38.7631 12.432 38.7311 12.24C38.6991 12.048 38.6191 11.904 38.4911 11.808V11.472C38.4911 10.992 38.3631 10.608 38.1071 10.32C37.9151 10.128 37.6751 10 37.3871 9.936L37.3391 9.792C37.2111 9.632 37.0831 9.456 36.9551 9.264C36.8271 9.04 36.6511 8.928 36.4271 8.928H36.3311C36.2991 8.896 36.2511 8.816 36.1871 8.688C35.9311 8.432 35.6431 8.304 35.3231 8.304H35.2271L34.9871 8.352C34.9871 8.352 34.9551 8.32 34.8911 8.256C34.8911 8.224 34.8751 8.208 34.8431 8.208C34.8431 8.208 34.8431 8.192 34.8431 8.16C34.7471 7.968 34.6351 7.792 34.5071 7.632C34.3791 7.472 34.1871 7.36 33.9311 7.296C33.3871 6.88 32.7471 6.544 32.0111 6.288C31.2751 6 30.5391 5.856 29.8031 5.856C29.2591 5.856 28.7151 5.968 28.1711 6.192C27.6591 6.384 27.2271 6.704 26.8751 7.152C26.7791 7.12 26.6831 7.104 26.5871 7.104C26.5231 7.072 26.4431 7.056 26.3471 7.056C25.9951 7.056 25.6751 7.152 25.3871 7.344C25.0991 7.536 24.8271 7.792 24.5711 8.112C24.3151 8.4 24.0911 8.72 23.8991 9.072C23.7071 9.392 23.5471 9.696 23.4191 9.984C23.2591 10.144 23.1471 10.336 23.0831 10.56C23.0511 10.752 23.0351 10.96 23.0351 11.184C22.3631 11.376 21.9151 11.728 21.6911 12.24C21.4671 12.752 21.3551 13.312 21.3551 13.92V14.352C20.9711 14.896 20.7791 15.488 20.7791 16.128C20.7791 16.32 20.8111 16.576 20.8751 16.896C20.9391 17.152 21.0191 17.392 21.1151 17.616C21.2111 17.808 21.3391 17.968 21.4991 18.096L21.5471 18.48C21.5471 18.544 21.5311 18.608 21.4991 18.672C21.4991 18.736 21.4991 18.8 21.4991 18.864C21.5631 19.184 21.6271 19.504 21.6911 19.824C21.7551 20.112 21.8671 20.384 22.0271 20.64C22.0591 20.768 22.1391 20.864 22.2671 20.928V35.568C22.2671 37.712 23.0191 39.536 24.5231 41.04C26.0271 42.512 27.8511 43.248 29.9951 43.248C32.1071 43.248 33.9151 42.512 35.4191 41.04C36.9551 39.536 37.7231 37.712 37.7231 35.568ZM25.7231 24.288V24.432C25.7231 24.72 25.6271 24.944 25.4351 25.104C25.2431 25.264 25.0191 25.344 24.7631 25.344C24.5391 25.344 24.3311 25.28 24.1391 25.152C23.9471 24.992 23.8351 24.768 23.8031 24.48L23.1791 18.192C22.9231 17.936 22.7311 17.632 22.6031 17.28C22.4751 16.896 22.4111 16.512 22.4111 16.128C22.4111 15.552 22.5391 15.072 22.7951 14.688V14.448C22.5711 14.192 22.4591 13.888 22.4591 13.536C22.4591 13.184 22.5871 12.848 22.8431 12.528C23.0991 12.208 23.4191 11.968 23.8031 11.808C23.8031 11.488 23.8671 11.184 23.9951 10.896C24.1231 10.576 24.2831 10.272 24.4751 9.984C24.6351 9.888 24.7471 9.744 24.8111 9.552C24.8751 9.36 24.9871 9.232 25.1471 9.168C25.1471 9.104 25.1631 9.056 25.1951 9.024C25.2591 8.928 25.3551 8.816 25.4831 8.688C25.6111 8.56 25.7391 8.48 25.8671 8.448C26.1871 8.352 26.5391 8.304 26.9231 8.304L27.7391 8.352C27.9951 7.904 28.3631 7.568 28.8431 7.344C29.3551 7.12 29.8671 7.008 30.3791 7.008C31.2111 7.008 31.8991 7.296 32.4431 7.872H32.4911C32.9071 7.872 33.2111 8.128 33.4031 8.64C33.6271 9.12 33.8511 9.552 34.0751 9.936C34.1391 9.904 34.2191 9.888 34.3151 9.888C34.5071 9.888 34.7151 9.936 34.9391 10.032C35.1951 10.096 35.4351 10.16 35.6591 10.224C36.1711 10.32 36.6511 10.608 37.0991 11.088C37.5471 11.536 37.7711 12.016 37.7711 12.528C37.7711 12.976 37.5791 13.344 37.1951 13.632C37.3551 14.016 37.5151 14.4 37.6751 14.784C37.8671 15.136 37.9631 15.52 37.9631 15.936C37.9631 16.256 37.8991 16.544 37.7711 16.8C37.6431 16.96 37.4991 17.104 37.3391 17.232C37.2111 17.36 37.1151 17.504 37.0511 17.664C37.2751 18.016 37.3871 18.448 37.3871 18.96C37.3871 19.536 37.2431 20.064 36.9551 20.544L37.1471 23.088C37.1471 23.568 37.0831 24.032 36.9551 24.48C36.8271 24.896 36.5551 25.28 36.1391 25.632C35.9471 25.856 35.7071 25.968 35.4191 25.968C35.0991 25.968 34.8431 25.824 34.6511 25.536C34.3631 25.216 34.1551 24.864 34.0271 24.48C33.8991 24.096 33.8031 23.696 33.7391 23.28C33.7071 22.864 33.6751 22.448 33.6431 22.032C33.6111 21.616 33.5471 21.216 33.4511 20.832H33.2591H33.1631V20.784C32.8751 20.336 32.6511 19.872 32.4911 19.392C32.3631 18.88 32.1871 18.384 31.9631 17.904C31.6431 17.552 31.2751 17.264 30.8591 17.04C30.4751 16.816 30.0591 16.688 29.6111 16.656C29.2271 17.008 28.9711 17.408 28.8431 17.856C28.7151 18.304 28.6191 18.768 28.5551 19.248C28.5231 19.728 28.4591 20.208 28.3631 20.688C28.2991 21.168 28.1231 21.616 27.8351 22.032C27.6431 22.384 27.3551 22.56 26.9711 22.56H26.8751L26.4911 22.512C26.3631 22.48 26.2191 22.416 26.0591 22.32C25.8991 22.192 25.7871 22.08 25.7231 21.984C25.5311 21.696 25.4351 21.376 25.4351 21.024L25.3871 20.976C25.4511 21.52 25.4991 22.08 25.5311 22.656C25.5951 23.2 25.6591 23.744 25.7231 24.288ZM29.9951 36.912C29.0991 36.912 28.6511 36.464 28.6511 35.568V23.088C28.9391 22.8 29.1311 22.464 29.2271 22.08C29.3551 21.664 29.4511 21.248 29.5151 20.832C29.6111 20.416 29.6751 20 29.7071 19.584C29.7711 19.136 29.8671 18.72 29.9951 18.336C30.3471 18.816 30.5871 19.344 30.7151 19.92C30.8431 20.496 31.0511 21.04 31.3391 21.552V35.568C31.3391 36.464 30.8911 36.912 29.9951 36.912ZM27.1151 7.248L26.9231 7.152C26.9871 7.152 27.0511 7.184 27.1151 7.248ZM23.1311 11.136C23.0991 11.136 23.0831 11.152 23.0831 11.184C23.0831 11.152 23.0991 11.136 23.1311 11.136ZM29.2271 5.088V4.992C29.3551 4.768 29.4031 4.48 29.3711 4.128C29.3711 3.936 29.2911 3.76 29.1311 3.6C29.0031 3.408 28.8591 3.28 28.6991 3.216C28.4431 3.152 28.1871 3.072 27.9311 2.976C27.6751 2.848 27.4031 2.752 27.1151 2.688C26.8591 2.592 26.6031 2.56 26.3471 2.592C26.0911 2.592 25.8511 2.688 25.6271 2.88C25.2431 2.976 24.9551 3.2 24.7631 3.552C24.6031 3.904 24.5391 4.272 24.5711 4.656C24.6351 5.008 24.7791 5.328 25.0031 5.616C25.2591 5.904 25.5951 6.048 26.0111 6.048C26.2991 6.24 26.7631 6.336 27.4031 6.336C28.6191 6.336 29.2271 5.92 29.2271 5.088ZM30.6191 5.088C30.6191 5.92 31.2431 6.336 32.4911 6.336C33.4831 6.336 34.0591 6.064 34.2191 5.52H34.5071C34.8591 5.52 35.1151 5.408 35.2751 5.184C35.4351 4.928 35.4831 4.64 35.4191 4.32C35.3231 3.68 34.7631 3.248 33.7391 3.024C32.7151 2.768 31.9631 2.8 31.4831 3.12C31.0351 3.44 30.7951 3.888 30.7631 4.464C30.6671 4.656 30.6191 4.864 30.6191 5.088ZM26.0591 4.992C25.8671 5.024 25.7071 4.992 25.5791 4.896C25.4511 4.768 25.3551 4.624 25.2911 4.464C25.2591 4.304 25.2591 4.128 25.2911 3.936C25.3231 3.744 25.3871 3.584 25.4831 3.456C25.5151 3.392 25.9631 3.376 26.8271 3.408C27.6911 3.44 28.2351 3.6 28.4591 3.888C28.4911 3.952 28.5071 4 28.5071 4.032C28.5071 4.064 28.5231 4.112 28.5551 4.176C28.6191 4.272 28.6191 4.416 28.5551 4.608C28.4591 4.992 28.1871 5.264 27.7391 5.424C27.2911 5.552 26.9231 5.44 26.6351 5.088H26.4911C26.3311 5.088 26.2191 5.056 26.1551 4.992H26.0591ZM34.3151 3.36L34.7471 3.6C34.8111 3.632 34.8591 3.696 34.8911 3.792C34.9231 3.856 34.9391 3.92 34.9391 3.984C35.0031 4.272 34.9231 4.512 34.6991 4.704C34.4751 4.864 34.2511 5.024 34.0271 5.184C33.8671 5.12 33.7071 5.072 33.5471 5.04C33.4191 5.008 33.2911 4.944 33.1631 4.848C33.0991 4.816 33.0191 4.848 32.9231 4.944C32.8271 5.04 32.7471 5.12 32.6831 5.184C32.4911 5.376 32.3151 5.408 32.1551 5.28C31.8351 5.184 31.6271 5.008 31.5311 4.752C31.4671 4.496 31.4831 4.256 31.5791 4.032C31.6751 3.776 31.8351 3.568 32.0591 3.408C32.2831 3.216 33.0351 3.2 34.3151 3.36ZM118.744 28.752H121.816C121.848 29.008 121.96 29.216 122.152 29.376C122.344 29.504 122.552 29.568 122.776 29.568C123.16 29.568 123.528 28.768 123.88 27.168C124.264 25.568 124.456 24.272 124.456 23.28C124.456 22.992 124.456 22.72 124.456 22.464C124.456 22.176 124.44 21.904 124.408 21.648C124.344 21.168 124.136 20.816 123.784 20.592C123.464 20.336 123.096 20.208 122.68 20.208L120.76 20.544C120.088 20.544 119.416 20.672 118.744 20.928V14.256H125.224L125.368 14.64L125.992 14.832C126.024 14.832 126.04 14.848 126.04 14.88C126.072 14.88 126.12 14.88 126.184 14.88C126.504 14.88 126.76 14.784 126.952 14.592C127.208 14.4 127.384 14.176 127.48 13.92C127.576 13.664 127.64 11.936 127.672 8.736C127.672 8.384 127.608 8.048 127.48 7.728C127.384 7.376 127.16 7.072 126.808 6.816C126.488 6.752 126.232 6.72 126.04 6.72L123.688 6.96C123.336 6.96 123.016 6.896 122.728 6.768C122.312 6.736 121.496 6.704 120.28 6.672L116.92 6.72C116.28 6.72 115.656 6.704 115.048 6.672C114.44 6.64 113.848 6.576 113.272 6.48C112.408 6.544 111.864 6.88 111.64 7.488C111.416 8.064 111.304 8.72 111.304 9.456L111.352 10.944C111.256 13.28 111.208 14.832 111.208 15.6C111.336 17.776 111.48 19.232 111.64 19.968C111.736 20.416 111.976 20.672 112.36 20.736V43.248H125.848C126.008 43.376 126.216 43.44 126.472 43.44C126.984 43.44 127.368 42.656 127.624 41.088C127.88 39.52 128.008 38.464 128.008 37.92C128.008 37.536 127.96 37.152 127.864 36.768C127.768 36.384 127.592 36.016 127.336 35.664C126.792 35.44 126.248 35.296 125.704 35.232C125.16 35.136 124.616 35.088 124.072 35.088C123.176 35.088 122.28 35.168 121.384 35.328C120.488 35.456 119.608 35.584 118.744 35.712V28.752ZM112.072 19.152V17.328C111.976 16.848 111.944 15.744 111.976 14.016C112.04 12.256 112.088 10.496 112.12 8.736V8.64C112.12 8.48 112.168 8.32 112.264 8.16C112.36 8 112.472 7.888 112.6 7.824C113.016 7.568 113.432 7.392 113.848 7.296C114.936 7.36 116.008 7.472 117.064 7.632C118.152 7.792 119.24 7.872 120.328 7.872C121.192 7.872 122.088 7.776 123.016 7.584C123.304 7.648 123.608 7.68 123.928 7.68C124.248 7.68 124.552 7.696 124.84 7.728C125.16 7.728 125.464 7.76 125.752 7.824C126.072 7.888 126.36 8.032 126.616 8.256C126.744 8.32 126.84 8.432 126.904 8.592C127 8.752 127.048 8.912 127.048 9.072V9.168C126.888 10.448 126.824 11.488 126.856 12.288C126.888 13.056 126.792 13.52 126.568 13.68C126.376 13.84 126.152 13.92 125.896 13.92C125.736 13.92 125.576 13.872 125.416 13.776C125.256 13.68 125.144 13.536 125.08 13.344C124.984 13.056 124.904 12.768 124.84 12.48C124.776 12.16 124.664 11.856 124.504 11.568C124.312 11.76 124.072 11.856 123.784 11.856C123.4 11.856 123.128 11.68 122.968 11.328L122.92 11.136C122.76 11.584 122.472 11.808 122.056 11.808C121.64 11.808 121.384 11.872 121.288 12C121.192 12.096 121.096 12.176 121 12.24C120.808 12.4 120.6 12.512 120.376 12.576C120.184 12.64 119.992 12.672 119.8 12.672C119.416 12.672 119.048 12.576 118.696 12.384C118.376 12.16 118.12 11.872 117.928 11.52C117.768 11.552 117.528 11.632 117.208 11.76C117.08 13.136 117 14.512 116.968 15.888C116.968 17.232 116.888 18.592 116.728 19.968C116.696 20.288 116.584 20.512 116.392 20.64C116.2 20.768 115.992 20.832 115.768 20.832C115.512 20.832 114.92 20.32 113.992 19.296C113.576 19.872 113.256 20.16 113.032 20.16C112.776 20.16 112.552 20.08 112.36 19.92C112.168 19.76 112.072 19.504 112.072 19.152ZM118.936 36.96C118.968 36.768 119.048 36.608 119.176 36.48C119.336 36.32 120.36 36.16 122.248 36C124.168 35.84 125.4 35.84 125.944 36C126.584 36.16 127 36.48 127.192 36.96C127.416 37.408 127.528 37.92 127.528 38.496C126.984 40.896 126.584 42.096 126.328 42.096C126.136 42.096 125.944 42.048 125.752 41.952C125.592 41.824 125.48 41.648 125.416 41.424C125.288 41.072 125.192 40.72 125.128 40.368C125.064 40.016 124.984 39.664 124.888 39.312C124.728 39.312 124.552 39.264 124.36 39.168H123.688C123.432 39.008 123.208 38.912 123.016 38.88C122.984 38.88 122.952 38.896 122.92 38.928C122.856 39.248 122.68 39.568 122.392 39.888C122.136 40.208 121.736 40.352 121.192 40.32C120.68 40.288 120.344 40.096 120.184 39.744C120.024 39.36 119.864 38.992 119.704 38.64C119.608 38.608 119.464 38.528 119.272 38.4C118.92 38.24 118.744 37.968 118.744 37.584C118.744 37.328 118.808 37.12 118.936 36.96ZM118.744 21.408C120.728 21.312 121.864 21.152 122.152 20.928C122.376 21.024 122.6 21.056 122.824 21.024C123.08 20.992 123.288 21.072 123.448 21.264C123.544 21.328 123.64 21.456 123.736 21.648C123.832 21.808 123.88 21.952 123.88 22.08C123.944 22.656 123.992 23.248 124.024 23.856C124.088 24.432 123.768 25.856 123.064 28.128C122.84 28.128 122.632 28.08 122.44 27.984C122.28 27.856 122.168 27.664 122.104 27.408C121.976 27.088 121.896 26.752 121.864 26.4C121.864 26.048 121.848 25.696 121.816 25.344C121.656 25.44 121.496 25.488 121.336 25.488C120.984 25.488 120.152 25.008 118.84 24.048C118.104 22.672 117.816 21.888 117.976 21.696C118.136 21.504 118.392 21.408 118.744 21.408ZM119.128 24.144C119.16 24.144 119.192 24.128 119.224 24.096C119.192 24.096 119.176 24.08 119.176 24.048H119.032L119.128 24.144Z" fill="#6DC5E0"/>
<path d="M57.5981 30.432C57.5981 28.864 56.9101 27.264 55.5341 25.632C56.9101 24.064 57.5981 22.432 57.5981 20.736V19.152C57.6621 18.96 57.7101 18.768 57.7421 18.576C57.8061 18.384 57.8861 18.192 57.9821 18C57.7581 17.296 57.6781 16.56 57.7421 15.792C57.8381 14.992 57.9021 14.208 57.9341 13.44C57.9661 12.672 57.8861 11.936 57.6941 11.232C57.5341 10.528 57.1021 9.936 56.3981 9.456C56.1741 9.296 55.9661 9.152 55.7741 9.024C55.5821 8.864 55.3741 8.72 55.1501 8.592C55.0221 8.464 54.9421 8.352 54.9101 8.256C54.7821 8.096 54.5901 7.984 54.3341 7.92C54.3021 7.888 54.2701 7.872 54.2381 7.872C54.2061 7.84 54.1741 7.808 54.1421 7.776C53.5981 7.584 53.0861 7.328 52.6061 7.008C52.1581 6.656 51.6781 6.32 51.1661 6C50.6861 5.68 50.1741 5.44 49.6301 5.28C49.1181 5.12 48.5581 5.136 47.9501 5.328C47.2461 5.296 46.5581 5.36 45.8861 5.52C45.2461 5.648 44.6061 5.824 43.9661 6.048C43.9341 6.08 43.9021 6.096 43.8701 6.096C43.6141 5.872 43.3421 5.792 43.0541 5.856C42.7981 5.888 42.5901 6.016 42.4301 6.24C42.2381 6.24 42.1101 6.256 42.0461 6.288C41.9181 6.32 41.7741 6.4 41.6141 6.528C41.4861 6.624 41.3901 6.736 41.3261 6.864C41.0381 7.376 40.8301 7.92 40.7021 8.496C40.6061 9.04 40.5741 9.6 40.6061 10.176C40.6381 10.752 40.7181 11.328 40.8461 11.904C40.9741 12.448 41.1181 12.976 41.2781 13.488C41.2141 15.12 41.1661 16.736 41.1341 18.336C41.1021 19.936 41.0061 21.536 40.8461 23.136C40.9101 23.52 41.0541 23.872 41.2781 24.192C41.5341 24.48 41.8221 24.736 42.1421 24.96V43.248H48.5261V28.8C50.3181 28.8 51.2141 29.536 51.2141 31.008V43.248H57.5981V30.432ZM41.9981 8.352C42.3821 7.712 42.8621 7.312 43.4381 7.152C44.0141 6.96 44.6221 6.864 45.2621 6.864C45.9341 6.832 46.5901 6.8 47.2301 6.768C47.8701 6.736 48.4621 6.544 49.0061 6.192C49.5501 6.032 49.9821 6.144 50.3021 6.528C50.6221 6.912 50.9101 7.296 51.1661 7.68C51.1661 7.744 51.1821 7.808 51.2141 7.872C51.2461 7.936 51.2621 7.968 51.2621 7.968C51.3261 8.032 51.3741 8.064 51.4061 8.064C51.4381 8.096 51.5021 8.112 51.5981 8.112C52.0141 8.464 52.4621 8.768 52.9421 9.024C53.4541 9.28 53.9501 9.552 54.4301 9.84C54.9101 10.128 55.3581 10.464 55.7741 10.848C56.1901 11.2 56.5101 11.632 56.7341 12.144C57.0221 12.24 57.2141 12.464 57.3101 12.816C57.4061 13.616 57.4861 14.464 57.5501 15.36C57.6141 16.256 57.3901 17.04 56.8781 17.712C56.5901 18.032 56.2701 18.144 55.9181 18.048C55.7261 18.432 55.5981 18.848 55.5341 19.296C55.4701 19.744 55.4061 20.192 55.3421 20.64C55.2781 21.056 55.1661 21.456 55.0061 21.84C54.8781 22.224 54.6221 22.56 54.2381 22.848C53.8861 23.136 53.5021 23.168 53.0861 22.944C53.0221 22.912 52.9741 22.896 52.9421 22.896C52.9421 22.864 52.9101 22.832 52.8461 22.8C52.7181 22.736 52.5901 22.624 52.4621 22.464C52.3661 22.272 52.3181 22.096 52.3181 21.936C52.3181 20.752 52.3021 19.568 52.2701 18.384C52.2381 17.2 52.1421 16.032 51.9821 14.88C51.5341 15.136 51.1021 15.456 50.6861 15.84C50.2701 16.192 49.8221 16.464 49.3421 16.656C49.0861 16.816 48.8301 16.88 48.5741 16.848C48.3501 16.816 48.1261 16.736 47.9021 16.608C47.7101 16.96 47.5661 17.344 47.4701 17.76C47.4061 18.176 47.3581 18.592 47.3261 19.008C47.2941 19.424 47.2461 19.84 47.1821 20.256C47.1501 20.64 47.0541 21.024 46.8941 21.408C46.8301 21.568 46.7501 21.696 46.6541 21.792C46.5581 24.256 46.5101 26.704 46.5101 29.136C46.5101 29.488 46.3981 29.744 46.1741 29.904C45.9821 30.064 45.7581 30.144 45.5021 30.144C45.2781 30.144 45.0701 30.064 44.8781 29.904C44.6861 29.744 44.5901 29.488 44.5901 29.136C44.5901 28.272 44.5901 27.392 44.5901 26.496C44.5901 25.6 44.6061 24.704 44.6381 23.808C44.5101 23.776 44.3181 23.76 44.0621 23.76C43.9661 23.888 43.8701 24 43.7741 24.096C43.6781 24.192 43.5821 24.288 43.4861 24.384C43.2941 24.576 43.0701 24.672 42.8141 24.672C42.5581 24.672 42.3341 24.576 42.1421 24.384C41.9501 24.256 41.8061 24.096 41.7101 23.904C41.6461 23.712 41.5981 23.504 41.5661 23.28C41.3101 23.024 41.2301 22.72 41.3261 22.368C41.4221 21.728 41.5341 21.104 41.6621 20.496C41.7901 19.856 41.9021 19.216 41.9981 18.576C41.9341 16.848 41.8701 15.136 41.8061 13.44C41.7421 11.712 41.8061 10.016 41.9981 8.352ZM51.2141 20.16C51.2141 20.672 51.0221 21.168 50.6381 21.648C50.2861 22.128 49.8541 22.368 49.3421 22.368H48.5261V17.472L48.7181 17.28C49.1661 17.44 49.5981 17.44 50.0141 17.28C50.4621 17.088 50.8621 16.816 51.2141 16.464V20.16ZM55.6301 17.952C55.6301 17.92 55.6141 17.904 55.5821 17.904C55.5821 17.936 55.5821 17.952 55.5821 17.952C55.6141 17.952 55.6301 17.952 55.6301 17.952ZM156.882 31.872C157.138 32 157.394 32.048 157.65 32.016C157.938 31.984 158.21 31.936 158.466 31.872C158.882 31.2 159.138 30.496 159.234 29.76C159.362 28.992 159.426 28.224 159.426 27.456C159.426 26.688 159.426 25.92 159.426 25.152C159.458 24.384 159.602 23.632 159.858 22.896C159.826 22.448 159.666 22.08 159.378 21.792C159.09 21.472 158.754 21.248 158.37 21.12C157.986 20.96 157.586 20.912 157.17 20.976C156.786 21.008 156.45 21.168 156.162 21.456C155.65 21.264 155.138 21.168 154.626 21.168C154.114 21.136 153.586 21.136 153.042 21.168C152.53 21.168 152.018 21.152 151.506 21.12C150.994 21.088 150.498 20.944 150.018 20.688C149.794 20.752 149.57 20.816 149.346 20.88C149.154 20.944 148.962 21.024 148.77 21.12C148.354 21.152 147.922 21.248 147.474 21.408C147.058 21.536 146.69 21.408 146.37 21.024C145.73 21.056 145.202 21.264 144.786 21.648C144.37 22.032 144.066 22.496 143.874 23.04C143.714 23.584 143.65 24.16 143.682 24.768C143.714 25.376 143.858 25.92 144.114 26.4C144.178 26.624 144.322 26.816 144.546 26.976C144.77 27.104 144.994 27.136 145.218 27.072V28.752H156.114C156.05 29.328 156.05 29.888 156.114 30.432C156.21 30.944 156.466 31.424 156.882 31.872ZM146.994 26.352C146.386 26.512 145.81 26.384 145.266 25.968C144.754 25.552 144.45 25.04 144.354 24.432C144.226 23.984 144.242 23.568 144.402 23.184C144.562 22.8 144.802 22.496 145.122 22.272C145.474 22.048 145.842 21.936 146.226 21.936C146.642 21.936 147.026 22.08 147.378 22.368C147.73 22.112 148.13 21.984 148.578 21.984C149.026 21.984 149.474 21.984 149.922 21.984C150.274 21.696 150.658 21.6 151.074 21.696C151.49 21.76 151.874 21.92 152.226 22.176C152.578 22.112 152.914 22.112 153.234 22.176C153.554 22.24 153.89 22.336 154.242 22.464C154.786 22.304 155.346 22.208 155.922 22.176C156.53 22.112 157.106 21.968 157.65 21.744C158.002 21.584 158.306 21.6 158.562 21.792C158.85 21.984 158.994 22.256 158.994 22.608V23.184C158.994 23.472 158.946 23.68 158.85 23.808C159.01 24.736 159.058 25.68 158.994 26.64C158.93 27.6 158.946 28.544 159.042 29.472C159.042 29.728 158.962 29.936 158.802 30.096C158.642 30.256 158.45 30.352 158.226 30.384C158.002 30.416 157.794 30.384 157.602 30.288C157.41 30.192 157.266 30.016 157.17 29.76C156.978 29.248 156.834 28.72 156.738 28.176C156.674 27.632 156.626 27.088 156.594 26.544C156.082 26.608 155.586 26.576 155.106 26.448C154.626 26.288 154.162 26.112 153.714 25.92C153.458 25.728 153.218 25.584 152.994 25.488C152.994 25.872 153.042 26.224 153.138 26.544C153.266 26.864 153.266 27.136 153.138 27.36C153.01 27.584 152.818 27.744 152.562 27.84C152.338 27.904 152.098 27.904 151.842 27.84C151.618 27.744 151.442 27.536 151.314 27.216C151.25 27.056 151.202 26.912 151.17 26.784C151.138 26.624 151.106 26.464 151.074 26.304C151.042 26.336 151.01 26.352 150.978 26.352C150.978 26.352 150.962 26.368 150.93 26.4V26.448C151.058 26.608 151.122 26.816 151.122 27.072C151.122 27.296 151.01 27.52 150.786 27.744L150.45 28.08C150.29 28.24 150.098 28.336 149.874 28.368C149.682 28.368 149.49 28.32 149.298 28.224C149.138 28.128 149.01 28 148.914 27.84C148.818 27.648 148.802 27.424 148.866 27.168C148.898 27.008 148.93 26.832 148.962 26.64C148.994 26.448 148.978 26.256 148.914 26.064C148.754 26 148.578 25.92 148.386 25.824C148.194 25.728 148.018 25.648 147.858 25.584C147.794 25.776 147.698 25.952 147.57 26.112C147.442 26.24 147.25 26.32 146.994 26.352Z" fill="#1AC22B"/>
<path d="M71.0835 17.136C71.0195 17.232 70.9875 17.344 70.9875 17.472V17.76C70.9875 18.016 71.0195 18.272 71.0835 18.528C71.1795 18.784 71.2755 19.04 71.3715 19.296L71.4195 19.44C71.4835 19.632 71.5955 19.808 71.7555 19.968C71.9155 20.096 72.0915 20.16 72.2835 20.16C72.2515 20.192 72.2675 20.24 72.3315 20.304C72.4275 20.368 72.4915 20.416 72.5235 20.448C72.6835 20.576 72.9235 20.64 73.2435 20.64C73.6595 20.64 73.9635 20.704 74.1555 20.832C74.3795 20.96 74.5715 21.104 74.7315 21.264C74.8915 21.392 75.0675 21.52 75.2595 21.648C75.4515 21.744 75.7555 21.792 76.1715 21.792C76.3635 21.792 76.5075 21.776 76.6035 21.744C77.1475 21.456 77.4995 21.04 77.6595 20.496C77.8195 19.92 77.8995 19.328 77.8995 18.72C77.7715 16.032 77.6435 14.4 77.5155 13.824C77.5795 13.568 77.6115 13.376 77.6115 13.248C77.6115 12.704 77.4515 12.112 77.1315 11.472C76.8435 10.832 76.6675 10.256 76.6035 9.744C76.3475 9.2 76.0275 8.672 75.6435 8.16C75.2915 7.648 74.8595 7.232 74.3475 6.912C73.9635 6.528 73.4995 6.24 72.9555 6.048C72.4435 5.856 71.8995 5.728 71.3235 5.664L69.9795 5.568C69.8195 5.504 69.6755 5.472 69.5475 5.472H69.1155C68.3795 5.472 67.6435 5.68 66.9075 6.096C66.1715 6.512 65.5315 6.992 64.9875 7.536C64.4435 7.696 63.9475 7.952 63.4995 8.304C63.0835 8.624 62.7955 9.072 62.6355 9.648C62.3795 10.64 62.0915 11.632 61.7715 12.624C61.4515 13.616 61.2915 14.608 61.2915 15.6C61.2915 16.4 61.4355 17.152 61.7235 17.856C61.7235 17.92 61.7235 17.968 61.7235 18C61.7555 18.032 61.7715 18.064 61.7715 18.096C61.9635 18.64 62.1075 19.088 62.2035 19.44C62.3315 19.792 62.4275 20.08 62.4915 20.304C62.5555 20.496 62.6195 20.656 62.6835 20.784C62.7475 20.88 62.8115 20.96 62.8755 21.024C63.2595 22.464 63.8355 23.68 64.6035 24.672C66.0435 26.112 67.4995 27.536 68.9715 28.944C70.5395 30.576 71.3235 32.784 71.3235 35.568C71.3235 36.464 70.8755 36.912 69.9795 36.912C69.0835 36.912 68.6355 36.464 68.6355 35.568V34.56C68.9875 34.4 69.2595 34.192 69.4515 33.936C69.6755 33.648 69.7875 33.28 69.7875 32.832V32.592C69.7235 32.112 69.5155 31.6 69.1635 31.056C68.8435 30.512 68.4275 30.24 67.9155 30.24C67.6595 30.24 67.3875 30.336 67.0995 30.528C67.0675 30.56 67.0355 30.576 67.0035 30.576C66.6515 30.448 66.3315 30.48 66.0435 30.672C66.0115 30.704 65.9795 30.72 65.9475 30.72C65.8195 30.688 65.7075 30.672 65.6115 30.672C65.5155 30.672 65.4035 30.656 65.2755 30.624C64.8915 30.496 64.5075 30.416 64.1235 30.384C63.7395 30.32 63.3875 30.512 63.0675 30.96C62.7475 31.216 62.5395 31.568 62.4435 32.016H62.2515V32.736C62.1875 32.928 62.1395 33.056 62.1075 33.12C61.9155 33.504 61.9635 33.84 62.2515 34.128V35.568C62.2515 37.712 63.0035 39.536 64.5075 41.04C66.0115 42.512 67.8355 43.248 69.9795 43.248C72.0915 43.248 73.8995 42.512 75.4035 41.04C76.9395 39.536 77.7075 37.712 77.7075 35.568C77.7075 32.016 76.9235 29.152 75.3555 26.976C73.8835 25.44 72.4275 23.888 70.9875 22.32C69.4195 20.496 68.6355 18.256 68.6355 15.6C68.6355 14.704 69.0835 14.256 69.9795 14.256C70.8755 14.256 71.3235 14.704 71.3235 15.6V16.704C71.1955 16.832 71.1155 16.976 71.0835 17.136ZM66.0435 22.032C66.1715 22.352 66.1715 22.624 66.0435 22.848C65.9155 23.072 65.7235 23.232 65.4675 23.328C65.2435 23.392 65.0035 23.392 64.7475 23.328C64.5235 23.232 64.3475 23.024 64.2195 22.704C63.9315 21.904 63.6595 21.088 63.4035 20.256C63.1475 19.392 63.0195 18.528 63.0195 17.664C62.9555 17.472 62.9235 17.328 62.9235 17.232C62.5715 17.072 62.3955 16.768 62.3955 16.32C62.3315 15.2 62.4115 14.08 62.6355 12.96C62.8915 11.84 63.2595 10.768 63.7395 9.744C63.8675 9.424 64.0915 9.232 64.4115 9.168C65.2755 8.144 66.3795 7.392 67.7235 6.912C69.0995 6.432 70.4595 6.448 71.8035 6.96C72.5395 7.024 73.1795 7.248 73.7235 7.632C74.2995 8.016 74.7315 8.528 75.0195 9.168C75.2435 9.296 75.4035 9.424 75.4995 9.552C75.6275 9.776 75.7235 10.016 75.7875 10.272C75.8835 10.496 75.9475 10.736 75.9795 10.992C76.1395 11.216 76.2515 11.488 76.3155 11.808C76.3795 12.128 76.4115 12.464 76.4115 12.816C76.5395 13.936 76.6835 14.88 76.8435 15.648C77.0355 16.384 77.1955 17.008 77.3235 17.52C77.4515 18 77.5315 18.416 77.5635 18.768C77.5955 19.088 77.5315 19.392 77.3715 19.68C77.3075 19.808 77.1955 19.936 77.0355 20.064C76.9075 20.192 76.7795 20.272 76.6515 20.304C76.5875 20.304 76.5395 20.32 76.5075 20.352C76.5075 20.352 76.4755 20.352 76.4115 20.352C76.2515 20.32 76.0435 20.192 75.7875 19.968C75.5315 19.712 75.2595 19.488 74.9715 19.296C74.7155 19.072 74.4275 18.912 74.1075 18.816C73.8195 18.688 73.5475 18.736 73.2915 18.96C72.6515 18.608 72.2515 18.144 72.0915 17.568C71.9315 16.96 71.8675 16.336 71.8995 15.696C71.8675 15.504 71.8355 15.312 71.8035 15.12C71.8035 14.928 71.7715 14.736 71.7075 14.544C71.7395 14.416 71.7075 14.304 71.6115 14.208C71.5475 14.112 71.4355 14.048 71.2755 14.016C71.1475 13.952 70.9875 13.888 70.7955 13.824C70.6355 13.76 70.5075 13.68 70.4115 13.584C69.8035 13.616 69.3075 13.808 68.9235 14.16C68.5715 14.512 68.2835 14.944 68.0595 15.456C67.8675 15.936 67.7395 16.464 67.6755 17.04C67.6115 17.616 67.5795 18.144 67.5795 18.624C67.5475 19.072 67.3395 19.36 66.9555 19.488C66.5715 19.616 66.2515 19.568 65.9955 19.344C65.8355 19.376 65.6755 19.392 65.5155 19.392C65.3875 19.36 65.2755 19.312 65.1795 19.248H65.1315C65.2275 19.728 65.3555 20.208 65.5155 20.688C65.6755 21.136 65.8515 21.584 66.0435 22.032ZM63.4995 31.2C63.7875 30.976 64.0755 30.912 64.3635 31.008C64.6515 31.104 64.8595 31.28 64.9875 31.536C65.2115 31.504 65.4995 31.44 65.8515 31.344C66.2035 31.248 66.5555 31.2 66.9075 31.2C67.2595 31.168 67.5955 31.216 67.9155 31.344C68.2355 31.44 68.4915 31.68 68.6835 32.064C68.8755 32.224 68.9875 32.432 69.0195 32.688C69.0835 32.912 69.0515 33.12 68.9235 33.312C68.7635 33.728 68.4915 34.016 68.1075 34.176C67.7235 34.304 67.3395 34.384 66.9555 34.416C66.7635 34.608 66.6515 34.88 66.6195 35.232C66.5875 35.552 66.5555 35.92 66.5235 36.336C66.5235 36.72 66.4915 37.104 66.4275 37.488C66.3635 37.872 66.1875 38.192 65.8995 38.448C65.6435 38.8 65.3395 38.944 64.9875 38.88C64.6675 38.816 64.4275 38.608 64.2675 38.256C64.0755 37.968 63.9635 37.68 63.9315 37.392C63.8995 37.072 63.8835 36.752 63.8835 36.432C63.8835 36.112 63.8835 35.792 63.8835 35.472C63.8835 35.12 63.8195 34.8 63.6915 34.512C63.3075 34.416 63.0195 34.224 62.8275 33.936C62.6675 33.616 62.5875 33.296 62.5875 32.976C62.5875 32.624 62.6675 32.288 62.8275 31.968C62.9875 31.648 63.2115 31.392 63.4995 31.2ZM107.636 43.248V21.696C108.116 20.768 108.436 19.792 108.596 18.768C108.788 17.744 108.884 16.704 108.884 15.648C108.916 14.592 108.916 13.536 108.884 12.48C108.852 11.392 108.884 10.336 108.98 9.312C108.948 9.024 108.916 8.72 108.884 8.4C108.884 8.048 108.836 7.728 108.74 7.44C108.676 7.12 108.564 6.848 108.404 6.624C108.244 6.368 107.636 6.064 106.58 5.712C106.26 5.712 105.924 5.776 105.572 5.904C105.252 6 104.916 6.112 104.564 6.24C104.212 6.336 103.86 6.352 103.508 6.288C102.26 6.416 101.588 6.528 101.492 6.624C101.236 6.56 100.98 6.592 100.724 6.72C100.468 6.816 100.308 7.04 100.244 7.392C99.8595 9.312 99.6675 11.248 99.6675 13.2C99.6995 15.152 99.8595 16.736 100.148 17.952C100.436 19.136 100.66 19.76 100.82 19.824L101.252 19.968V43.248H107.636ZM100.292 15.936C100.548 12.48 100.756 9.92 100.916 8.256C100.948 8.128 101.012 7.984 101.108 7.824C101.236 7.664 101.348 7.552 101.444 7.488C101.796 7.264 102.196 7.184 102.644 7.248C103.092 7.312 103.604 7.312 104.18 7.248C104.756 7.184 105.188 7.104 105.476 7.008C105.796 6.88 106.116 6.8 106.436 6.768C106.756 6.704 107.076 6.72 107.396 6.816C107.556 6.848 107.716 6.944 107.876 7.104C108.036 7.264 108.132 7.424 108.164 7.584C108.324 8.032 108.388 8.496 108.356 8.976C108.356 9.456 108.388 9.936 108.452 10.416C108.356 11.184 108.292 11.952 108.26 12.72C108.26 13.456 108.26 14.208 108.26 14.976C108.26 15.712 108.228 16.464 108.164 17.232C108.132 17.968 108.02 18.704 107.828 19.44C107.732 19.888 107.3 20.32 106.532 20.736C105.764 21.152 105.268 21.344 105.044 21.312C105.044 22.56 104.868 23.344 104.516 23.664C104.196 23.952 103.876 23.952 103.556 23.664C103.236 23.376 102.996 22.864 102.836 22.128C102.708 21.392 102.836 20.608 103.22 19.776C103.06 19.776 102.9 19.728 102.74 19.632C102.58 19.504 102.468 19.344 102.404 19.152C102.084 19.216 101.38 18.144 100.292 15.936Z" fill="#F0DB19"/>
</svg>
