<svg width="130" height="17" viewBox="0 0 130 17" fill="none" xmlns="http://www.w3.org/2000/svg">
<path d="M1 3.93023L1.72727 3H2.63636L3.09353 3.10214C3.23108 3.72415 3.24925 4.07141 2.96658 4.68288C2.719 6.37198 2.64246 7.2589 2.96658 8.39535C3.04151 8.19208 3.51347 8.23778 4.56005 8.39535L4.63636 6.53488L4.27273 5.4186L4.45455 3.55814L5.36364 3H6L6.5 3.5C6.55038 4.71501 6.41554 5.39092 6.14183 6.59539L6.22711 8.75737L5.1906 10.4072L1.24242 10.4765L1.36364 8.35496V6.16279L1.24242 5.7907L1 5.5L0.875 5.375L0.75 4.21512L1 3.93023Z" fill="#DFDFDF"/>
<path d="M1 3.93023L1.72727 3H2.63636M1 3.93023V5.04651L1.24242 5.7907M1 3.93023L0.75 4.21512L0.875 5.375L1 5.5L1.24242 5.7907M2.63636 3L3.09353 3.10214C3.23108 3.72415 3.24925 4.07141 2.96658 4.68288M2.63636 3L2.96658 4.68288M4.63636 8.2093V6.53488M4.63636 6.53488L4.27273 5.4186L4.45455 3.55814L5.36364 3H6M4.63636 6.53488L4.56005 8.39535C3.51347 8.23778 3.04151 8.19208 2.96658 8.39535C2.64246 7.2589 2.719 6.37198 2.96658 4.68288M1.24242 5.7907L1.36364 6.16279V8.35496L1.24242 10.4765L5.1906 10.4072L6.22711 8.75737L6.14183 6.59539M6 3L6.5 3.5C6.55038 4.71501 6.41554 5.39092 6.14183 6.59539M6 3L6.14183 6.59539" stroke="#DFDFDF" stroke-width="0.5"/>
<path d="M19.5 3.00007L21.5 5C21.5642 6.29108 21.6134 7.04071 21 7C20.9282 8.15798 20.7742 8.74236 20 9.5L19.5 9V6C18.8833 6.46378 18.5424 6.68079 18 6.5L17.5 12H16.5V9.5C16.0742 9.64529 15.8587 9.50048 15.5 9C15.6067 7.71271 15.7016 6.67046 15.7892 5.77152L15.5 4L15.9966 3.00691L16 3.00007C17.4976 2.60931 18.3643 2.3099 19.5 3.00007Z" fill="#DFDFDF"/>
<path d="M16 3.00007C17.4976 2.60931 18.3643 2.3099 19.5 3.00007L21.5 5C21.5642 6.29108 21.6134 7.04071 21 7C20.9282 8.15798 20.7742 8.74236 20 9.5L19.5 9V6C18.8833 6.46378 18.5424 6.68079 18 6.5L17.5 12H16.5V9.5C16.0742 9.64529 15.8587 9.50048 15.5 9C15.6067 7.71271 15.7016 6.67046 15.7892 5.77152L15.5 4L15.9966 3.00691M16 3.00007L15.9966 3.00691M16 3.00007C15.9988 3.00235 15.9977 3.00463 15.9966 3.00691M15.963 3.09482C15.9715 3.06488 15.9825 3.03553 15.9966 3.00691" stroke="#DFDFDF" stroke-width="0.2"/>
<path d="M10.5 3L9.5 3.5L8.5 5V8L9 10H10L11 6.5H11.5L12.5 10H14V7C14.3197 6.07219 14.2009 5.52627 14.0137 4.55473L14 4.5L11.9133 2.73454L11.7299 2.72616L11.6866 2.72418L10.7608 2.68187L10.5 3Z" fill="#DFDFDF"/>
<path d="M13 2C13.1007 1.67799 12.9485 1.58686 12.5 1.5C12.0818 1.53318 11.9096 1.61562 11.7299 1.89457L11.9133 2.36003C12.364 2.30647 12.6287 2.31631 13 2Z" fill="#DFDFDF"/>
<path d="M10 1.49999C9.60278 1.49179 9.4913 1.60309 9.50001 1.99999L10.4656 2.48279L10.7608 2.68187C10.7536 1.86734 10.6677 1.5103 10 1.49999Z" fill="#DFDFDF"/>
<path d="M9.50001 1.99999C9.4913 1.60309 9.60278 1.49179 10 1.49999C10.6677 1.5103 10.7536 1.86734 10.7608 2.68187M9.50001 1.99999C9.87892 2.18944 10.0963 2.29814 10.4656 2.48279M9.50001 1.99999L10.4656 2.48279M10.5 2.49999C10.4884 2.49418 10.4769 2.48845 10.4656 2.48279M10.7608 2.68187L10.5 3L9.5 3.5L8.5 5V8L9 10H10L11 6.5H11.5L12.5 10H14V7C14.3197 6.07219 14.2009 5.52627 14.0137 4.55473L14 4.5L11.9133 2.73454L11.7299 2.72616L11.6866 2.72418M10.7608 2.68187L11.6866 2.72418M10.7608 2.68187L10.4656 2.48279M11.9133 2.36003C12.364 2.30647 12.6287 2.31631 13 2C13.1007 1.67799 12.9485 1.58686 12.5 1.5C12.0818 1.53318 11.9096 1.61562 11.7299 1.89457L11.9133 2.36003ZM11.9133 2.36003L11.6866 2.72418" stroke="#DFDFDF" stroke-width="0.2"/>
<path d="M24 12L25.7059 12.2319C25.9039 12.5831 25.838 12.7475 25.5 13L25.3193 13.9275L25.5126 14.6812L27.4454 14.3607L26.846 10.7216L24.1737 8.62906L23.6135 6.63704C23.6979 5.50369 23.3007 4.91664 24 4C24.7652 3.51986 25.3336 2.63026 25.7059 3C26.4002 2.78097 26.786 2.74159 27.4454 3.37681C27.6383 2.63726 28.3933 4.06531 28.5 5C28.6716 5.68039 28.7697 6.20181 28.7894 6.63704C28.909 7.13094 28.9577 7.39203 28.7894 7.63772L28.5882 7.80435L27.8319 7.5C27.2456 6.66996 27.1474 7.17948 27.168 6.28986L26.846 5.25H26.3361H26.236L25.6629 5.33341L25.3107 6.28631L25.126 8.08695L26.846 10.7216L27.8319 12.2319V15.058L25.5126 16L24.138 14.6812L24 13C23.4216 12.8791 23.5965 12.5786 24 12Z" fill="#DFDFDF"/>
<path d="M28.5882 7.80435L27.8319 7.5C27.2456 6.66996 27.1474 7.17948 27.168 6.28986L26.846 5.25H26.3361H26.236L25.6629 5.33341L25.3107 6.28631L25.3193 6.2029L25.126 8.08695L27.8319 12.2319V15.058L25.5126 16L24.138 14.6812L24 13C23.4216 12.8791 23.5965 12.5786 24 12L25.7059 12.2319C25.9039 12.5831 25.838 12.7475 25.5 13L25.3193 13.9275L25.5126 14.6812L27.4454 14.3607L26.846 10.7216L24.1737 8.62906L23.6135 6.63704C23.6979 5.50369 23.3007 4.91664 24 4C24.7652 3.51986 25.3336 2.63026 25.7059 3C26.4002 2.78097 26.786 2.74159 27.4454 3.37681C27.6383 2.63726 28.3933 4.06531 28.5 5C28.6716 5.68039 28.7697 6.20181 28.7894 6.63704M28.5882 7.80435L28.7894 7.63772C28.9577 7.39203 28.909 7.13094 28.7894 6.63704M28.5882 7.80435C28.745 7.45405 28.8102 7.0928 28.7894 6.63704" stroke="#DFDFDF" stroke-width="0.5"/>
<path d="M31.7176 8.11704H31.5528L30.9999 6.99997C30.9999 6.99997 30.6446 5.93384 30.8326 5L30.7841 4.78572C30.6907 3.96045 31.0159 3.64886 31.4823 3.04764C32.5149 2.90348 33.0126 3.11134 33.9411 3.33732L34.1569 3.5C34.7802 3.77283 35.0429 3.33931 35.4369 3.87195L36.1335 4.65164L36.2493 5.91197C36.1495 6.06832 35.8595 6.39054 35.6867 6.27291C35.7105 6.37228 35.7534 6.6638 35.6588 6.69644C35.5587 7.24717 35.4561 7.54362 35 8L34.5176 7.82736L34.5 7.5C34.5 7.5 34.3222 6.1311 34.3528 5.64048C33.9907 5.41769 34.229 5.96346 33.7447 5.91197L33 5.5L32.662 6.08928L32.2117 9.99997L31.7176 9.85513V8.11704Z" fill="#DFDFDF"/>
<path d="M30.9999 4.49997C30.9215 4.65691 30.8676 4.82616 30.8326 5M30.8326 5C30.6446 5.93384 30.9999 6.99997 30.9999 6.99997L31.5528 8.11704H31.7176V9.85513L32.2117 9.99997L32.662 6.08928L33 5.5L33.7447 5.91197C34.229 5.96346 33.9907 5.41769 34.3528 5.64048C34.3222 6.1311 34.5 7.5 34.5 7.5L34.5176 7.82736L35 8C35.4561 7.54362 35.5587 7.24717 35.6588 6.69644C35.7534 6.6638 35.7105 6.37228 35.6867 6.27291C35.8595 6.39054 36.1495 6.06832 36.2493 5.91197L36.1335 4.65164L35.4369 3.87195C35.0429 3.33931 34.7802 3.77283 34.1569 3.5L33.9411 3.33732C33.0126 3.11134 32.5149 2.90348 31.4823 3.04764C31.0159 3.64886 30.6907 3.96045 30.7841 4.78572L30.8326 5Z" stroke="#DFDFDF" stroke-width="0.5"/>
<path d="M39.0797 9.1613L40 7.99995C40.3262 7.39408 40.5668 6.70112 40.5 5.99995V3.49995C40.364 3.00131 40.2773 2.94729 40.1152 3.01195C38.9859 3.0317 38.0373 2.95668 38 3.49992L37.7976 6.49992L38.2024 7.33325L38.5399 8.82797L39.0797 9.1613Z" fill="#DFDFDF"/>
<path d="M40.5 5.99995V5.99995ZM40.5 5.99995C40.5668 6.70112 40.3262 7.39408 40 7.99995L39.0797 9.1613L38.5399 8.82797L38.2024 7.33325L37.7976 6.49992L38 3.49992C38.0373 2.95668 38.9859 3.0317 40.1152 3.01195C40.2773 2.94729 40.364 3.00131 40.5 3.49995V5.99995Z" stroke="#DFDFDF" stroke-width="0.5"/>
<path d="M42.3305 3.17767L47.3332 3.3097C47.7419 4.07167 47.4891 4.49888 47.3332 5.26085H46.7757H44.129V6.9565V8.27534L44.5 8.5L45.8661 8.27534H46.1742C46.333 9.06715 46.2878 10.1813 45.9907 10.7246L44.3226 10.5362C44.0684 11.9963 43.5035 13.158 44 14H44.129L47.3332 13.9317C47.7019 14.3492 47.7538 14.7303 47.3332 15.8976L46.8387 16L44.129 15.2464L42.6238 8.27534C42.3539 7.78842 42.2054 7.51461 42.1935 6.9565V4.16064L42.3305 3.17767Z" fill="#DFDFDF"/>
<path d="M47.3332 13.9317L44.129 14M47.3332 13.9317L47 14H44.129M47.3332 13.9317C47.7019 14.3492 47.7538 14.7303 47.3332 15.8976L46.8387 16L44.129 15.2464L42.6238 8.27534C42.3539 7.78842 42.2054 7.51461 42.1935 6.9565V4.16064L42.3305 3.17767L47.3332 3.3097C47.7419 4.07167 47.4891 4.49888 47.3332 5.26085H46.7757H44.129V6.9565V8.27534L44.5 8.5L45.8661 8.27534H46.1742C46.333 9.06715 46.2878 10.1813 45.9907 10.7246L44.3226 10.5362C44.0684 11.9963 43.5035 13.158 44 14H44.129" stroke="#DFDFDF" stroke-width="0.5"/>
<path d="M50.5 3L49.74 2.8569C49.0234 3.16985 48.7812 3.5624 48.815 4.32169C48.7416 5.02131 48.7515 5.41347 49 6.11267L49.555 6.66196L51.0349 14.9014C51.0349 14.9014 52.1874 16.0269 52.5 16C52.8126 15.9731 52.9278 15.8714 53 15.5C53.2783 15.4974 53.3709 15.3192 53.5 14.9014C53.5387 14.7684 53.5069 14.6699 53.5 14.5L53 14H52.5H51.0349L51 13.5V8V7.5L51.4049 6.39866C51.4049 6.39866 51.5004 5.52252 51.5 5C51.4997 4.56056 51.4049 4 51.4049 4L51 3.5L50.5 3Z" fill="#DFDFDF" stroke="#DFDFDF" stroke-width="0.5"/>
<path d="M55.5 6L56 7L55.6316 10.0909L56.2632 13.3636L55.8421 14.2727L56.2632 14.6363L57 14.5L58.3684 14.6363L58.1579 13.7272L56.4737 13.5454L56.0526 11.1419L58.3684 9.14185L58.1579 7.29623C58.5259 6.8538 58.7072 6.67735 58.5206 5.6221C58.6317 4.80771 58.7295 4.35539 58.5 3.5C58.5909 3.16596 58.4036 3.00734 58.1579 2.71379L57.3158 2.49268C56.7297 2.73609 56.5263 2.92483 56.2632 2.78235C56 2.63987 55.5 6 55.5 6Z" fill="#DFDFDF" stroke="#DFDFDF" stroke-width="0.5"/>
<path d="M61.5 3C62.9168 2.97705 63.4163 3.00527 64.9375 3.17901C64.6785 3.02686 64.6501 2.98252 65.875 3.35033C66.4182 3.62901 66.6045 3.91181 66.8125 4.54956V6.04744L66.625 7.11934L66.25 8.83252C65.9712 9.11812 65.8078 9.0954 65.5 8.66121L65.1875 7.04187C64.93 6.6356 65.0061 6.1735 65 5.5L64.5625 5.06351L63.625 5.23483L63.3464 5.06351L63.186 8.72953C63.2066 8.70777 63.2279 8.68491 63.25 8.66121V12.7729V13.4817H63.3464C63.3877 13.5443 63.4301 13.5981 63.5 13.6499L64 13.5L64.5 14C64.5 14.5 64.75 14.698 64.75 14.698C64.5571 15.9762 64.3682 15.8436 64 15.3663L63.25 13.4817V12.7729L63.1589 9.34648L63.186 8.72953C62.9462 8.98193 62.7909 9.08737 62.5 8.66121L61.9375 7.63329L61.5 6.5C61.5 6.5 61.1875 6.09143 61.1875 5.94337C61.1875 5.79531 61.5 3 61.5 3Z" fill="#DFDFDF"/>
<path d="M63.25 12.7729L63.1589 9.34648L63.3464 5.06351L63.625 5.23483L64.5625 5.06351L65 5.5C65.0061 6.1735 64.93 6.6356 65.1875 7.04187L65.5 8.66121C65.8078 9.0954 65.9712 9.11812 66.25 8.83252L66.625 7.11934L66.8125 6.04744V4.54956C66.6045 3.91181 66.4182 3.62901 65.875 3.35033C64.6501 2.98252 64.6785 3.02686 64.9375 3.17901C63.4163 3.00527 62.9168 2.97705 61.5 3C61.5 3 61.1875 5.79531 61.1875 5.94337C61.1875 6.09143 61.5 6.5 61.5 6.5L61.9375 7.63329L62.5 8.66121C62.816 9.12412 62.972 8.95979 63.25 8.66121V13.4817M64.5 14C64.5 14.5 64.75 14.698 64.75 14.698C64.5571 15.9762 64.3682 15.8436 64 15.3663L63.25 13.4817M64.5 14L64 13.5L63.5 13.6499M64.5 14C63.901 13.8533 63.643 13.7558 63.5 13.6499M63.25 13.4817H63.3464C63.3877 13.5443 63.4301 13.5981 63.5 13.6499" stroke="#DFDFDF" stroke-width="0.5"/>
<path d="M77.5 7.00001L78 8.50001C78.7346 8.56787 79.0304 8.41671 79.8686 8.27538C80.0586 8.93298 80.087 9.31049 80 10C79.8499 10.5986 79.7643 10.9218 79.5 10.5L77.8508 10.4625V13.6654L77.9434 14.0285C78.2622 14.1079 78.5879 14 79.5 14C79.9824 13.803 80.2482 13.6836 81 14C81.3847 14.2366 81.4629 14.564 81 16H80.8761L78.2538 15.2464L77.9434 14.0285C77.9126 14.0208 77.882 14.0114 77.8508 14V13.6654L76.5134 8.41865L76 7.63008L75.745 5.39097L75.9999 3.25002L80.5 3.25L80.8761 3.58888C81.2581 2.33112 81.1448 4.37755 81 5.26089H79.5H78.0604L77.8508 5.8263L77.5 7.00001Z" fill="#DFDFDF"/>
<path d="M75.9999 3.25002V3.50001M75.9999 3.25002L75.745 5.39097L76 7.63008L76.5134 8.41865L78.2538 15.2464L80.8761 16H81C81.4629 14.564 81.3847 14.2366 81 14C80.2482 13.6836 79.9824 13.803 79.5 14C78.5 14 78.2049 14.1297 77.8508 14V10.4625L79.5 10.5C79.7643 10.9218 79.8499 10.5986 80 10C80.087 9.31049 80.0586 8.93298 79.8686 8.27538C79.0304 8.41671 78.7346 8.56787 78 8.50001L77.5 7.00001L77.8508 5.8263L78.0604 5.26089H79.5H81C81.1448 4.37755 81.2581 2.33112 80.8761 3.58888L80.5 3.25L75.9999 3.25002Z" stroke="#DFDFDF" stroke-width="0.5"/>
<path d="M70.5455 3H68.5V5L69.423 8.37592V8.83333L70.5 10.5L71.1818 8.83333L72.5 9.5C73.2995 8.30724 73.4383 7.59913 73.6637 6.33333C73.9889 5.81692 74.0992 5.52579 74 5L74.5 4V3.5L74.1515 3.10756L72.2978 3.16667L72.0303 4.66667V6.83333L71 7.5L70.7238 6.33333C70.874 5.92183 71.1753 5.86929 70.5 4.5C70.8069 4.32544 70.923 4.10043 70.9697 3.33333L70.5455 3Z" fill="#DFDFDF" stroke="#DFDFDF" stroke-width="0.5"/>
<path d="M82.6456 6L83.1727 6.24321L86.0506 8.99996L87.8532 6.89186L88 6C88.2801 5.93365 88.4447 5.90788 88.5 5.5L88.6073 4.64857C88.817 3.84731 88.8026 3.09939 88.4541 3.16213H87.8532L86.724 2.83783L86.5873 3.05193C86.2574 3.5196 86.3704 3.82793 86.387 4.34923L86.9061 6.24321L86.387 6.96324L85.6793 6.8716L85.3587 6.24321L85.085 4.85066C85.1346 4.56699 85.0529 4.02521 85.0491 3.60441C84.7679 3.26189 84.4819 3.01019 84.1691 2.83783L83.2465 2.99996L83 3.16213C82.4707 3.48327 82.4892 4.02022 82.5 5L82.6456 6Z" fill="#DFDFDF"/>
<path d="M85.0491 3.60441C85.0529 4.02521 85.1346 4.56699 85.085 4.85066L85.3587 6.24321L85.6793 6.8716L86.387 6.96324L86.9061 6.24321L86.387 4.34923C86.3704 3.82793 86.2574 3.5196 86.5873 3.05193L86.724 2.83783L87.8532 3.16213H88.4541C88.8026 3.09939 88.817 3.84731 88.6073 4.64857L88.5 5.5C88.4447 5.90788 88.2801 5.93365 88 6L87.8532 6.89186L86.0506 8.99996L83.1727 6.24321L82.6456 6L82.5 5C82.4892 4.02022 82.4707 3.48327 83 3.16213L83.2465 2.99996L84.1691 2.83783C84.4953 3.01752 84.7922 3.28345 85.085 3.64861" stroke="#DFDFDF" stroke-width="0.5"/>
<path d="M102.677 3L104.22 3.3662C104.436 3.6831 104.765 3.61317 105 4L105.5 5.38028C105.676 6.16682 105.614 6.60782 105.5 7.39437L105.261 8L104.428 8.30986L101.963 12.7042L101.428 13.8169H104.819H105.261L105.283 14.0942C105.378 13.8169 105.877 14.6368 105.5 15C105.937 14.8592 105.403 15.2579 104.998 15.6338L103.57 16L102 15.5L101.428 14.5679L101.286 13.4859L102.142 12.1549L104.284 5.56338L103 5L101.5 5.38028L100 7L99.786 6.62074L99.786 5.28169C99.9399 4.63017 100.094 4.3508 100.458 4.03535C101.148 3.48606 101.545 3.18594 102.677 3Z" fill="#DFDFDF"/>
<path d="M100.5 4C100.486 4.01185 100.472 4.02362 100.458 4.03535M104.998 15.6338L103.57 16L102 15.5L101.428 14.5679M104.998 15.6338L101.428 14.5679M104.998 15.6338C105.403 15.2579 105.937 14.8592 105.5 15C105.877 14.6368 105.378 13.8169 105.283 14.0942M101.428 14.5679L101.286 13.4859L102.142 12.1549L104.284 5.56338L103 5L101.5 5.38028L100 7L99.786 6.62074L99.786 5.28169C99.9399 4.63017 100.094 4.3508 100.458 4.03535M105.261 14L105.283 14.0942M105.283 14.0942L105.261 13.8169H104.819H101.428L101.963 12.7042L104.428 8.30986L105.261 8L105.5 7.39437C105.614 6.60782 105.676 6.16682 105.5 5.38028L105 4C104.765 3.61317 104.436 3.6831 104.22 3.3662L102.677 3C101.545 3.18594 101.148 3.48606 100.458 4.03535" stroke="#DFDFDF" stroke-width="0.5"/>
<path d="M90.0664 5.43478C90.6447 5.26543 90.9256 5.06278 91.6522 5.26087V7.86957L92.1808 10.6522L92.5 11.5L93.0618 11C93.3019 8.82555 93.2262 7.60778 93.238 5.43478L93.5904 5.26087L94 5.5L94.8238 5.43478L95 3.69565L94.8238 3.28967L90.0664 3C89.985 3.95086 89.971 4.48391 90.0664 5.43478Z" fill="#DFDFDF" stroke="#DFDFDF" stroke-width="0.5"/>
<path d="M111.716 3.58934L112.623 5.09366C112.979 6.02275 113.031 6.56123 112.986 7.53818L112.442 9.04251L111.5 15.5L110.265 16L108.995 14.3076C109.315 13.9774 109.497 13.635 110 13.5C109.932 13.081 111.071 13.5964 111.5 14L112.442 8.66643L111.5 8.5L111 7.5C110.99 6.94603 110.968 6.26017 110.968 5.96794L110.5 5.5V6L110.153 6.19669L109.5 6L108.995 7.88905L109.177 10.7349H108.27L107.726 9.01729C107.404 8.25072 107.307 7.04155 107.212 6.19669C107.284 5.2038 107.309 5.30738 107.726 4.40839L109.721 3H110.153C110.781 3.15638 111.128 3.26757 111.716 3.58934Z" fill="#DFDFDF"/>
<path d="M111.716 3.58934L112.623 5.09366C112.979 6.02275 113.031 6.56123 112.986 7.53818L112.442 9.04251L111.5 15.5L110.265 16L108.995 14.3076C109.315 13.9774 109.497 13.635 110 13.5C109.932 13.081 111.071 13.5964 111.5 14L112.442 8.66643L111.5 8.5L111 7.5C110.984 6.60424 110.937 5.36364 111 6L110.5 5.5V6L110.153 6.19669L109.5 6L108.995 7.88905L109.177 10.7349H108.27L107.726 9.01729C107.404 8.25072 107.307 7.04155 107.212 6.19669C107.284 5.2038 107.309 5.30738 107.726 4.40839L109.721 3L110.153 3C110.781 3.15638 111.128 3.26757 111.716 3.58934Z" stroke="#DFDFDF" stroke-width="0.5"/>
<path d="M119.412 5.56338L117.118 5.16287L115.5 6.5L115 7C114.636 6.31474 114.593 6.10698 114.661 6.05107C114.651 5.97114 114.745 5.93224 115 6C114.478 5.52647 114.685 5.10341 115.238 4.36936L116 4C116.199 3.69354 116.538 3.13641 116.765 3.26366C116.863 2.99497 117.301 3.05234 117.824 3L119.18 3.26366C119.626 3.59463 119.851 3.98254 120.083 4.36936L120.637 5.16287V7.23119C120.496 7.92682 119.947 8.12213 119.412 8.44096L117.472 11.6019L117.294 12.1549L116.411 13.3304L116.3 13.5109C116.32 13.5944 116.34 13.674 116.36 13.7505L116.382 13.7353L120.118 13.922C120.322 13.9454 120.561 14.0066 120.637 14.5C120.741 15.124 120.55 15.3265 120.118 15.6338L120.083 15.6427L118.706 16L117 15.5C116.691 14.8146 116.528 14.3915 116.36 13.7505L116 14L116.3 13.5109C116.298 13.5026 116.296 13.4943 116.294 13.4859L116.411 13.3304L117.472 11.6019L119.412 5.56338Z" fill="#DFDFDF"/>
<path d="M115.5 6.5L117.118 5.16287L119.412 5.56338L117.294 12.1549L116.294 13.4859C116.487 14.285 116.65 14.7247 117 15.5L118.706 16L120.083 15.6427L120.118 15.6338C120.55 15.3265 120.741 15.124 120.637 14.5C120.561 14.0066 120.322 13.9454 120.118 13.922L116.382 13.7353L116 14L119.412 8.44096C119.947 8.12213 120.496 7.92682 120.637 7.23119V5.16287L120.083 4.36936C119.851 3.98254 119.626 3.59463 119.18 3.26366L117.824 3C117.301 3.05234 116.863 2.99497 116.765 3.26366C116.538 3.13641 116.199 3.69354 116 4L115.238 4.36936C114.685 5.10341 114.478 5.52647 115 6M115.5 6.5L115 7C114.253 5.59475 114.858 6.19753 115 6M115.5 6.5C114.894 6.52664 114.248 5.80035 115 6" stroke="#DFDFDF" stroke-width="0.5"/>
<path d="M127.612 5.09366L126.676 3.58934C126.069 3.26757 125.712 3.15638 125.064 3L124.806 3.02521L123.122 3.93948C122.5 4.5 122.299 5.22901 122.225 6.2219C122.322 7.06676 122.168 7.73343 122.5 8.5L123.122 10.7349H124.058V7.91426L124.5 5.5L125.128 6.2219C125.219 5.93417 126.158 5.7781 126 6C125.842 6.2219 126.1 7.73715 126.489 8.66643H127.425L125.867 13.5555C125.339 13.2785 125.147 13.278 124.806 13.5555L123.871 14.3076L125.18 16L126.5 15.5L127.425 9.04251L127.986 7.53818C128.032 6.56123 127.979 6.02275 127.612 5.09366Z" fill="#DFDFDF" stroke="#DFDFDF" stroke-width="0.5"/>
<path d="M6.57 16.468V6.298C6.618 6.274 6.66 6.232 6.696 6.172C6.732 6.112 6.75 6.04 6.75 5.956C6.738 5.692 6.762 5.404 6.822 5.092C6.894 4.78 6.942 4.474 6.966 4.174C6.99 3.874 6.954 3.598 6.858 3.346C6.774 3.082 6.576 2.872 6.264 2.716C6.036 2.668 5.796 2.644 5.544 2.644C5.292 2.632 5.052 2.656 4.824 2.716C4.596 2.776 4.392 2.884 4.212 3.04C4.032 3.184 3.906 3.388 3.834 3.652C3.738 4.096 3.696 4.552 3.708 5.02C3.732 5.488 3.792 5.932 3.888 6.352C3.96 6.4 4.014 6.442 4.05 6.478C4.074 6.514 4.116 6.544 4.176 6.568V8.062C3.852 7.894 3.516 7.858 3.168 7.954V5.938C3.3 5.722 3.366 5.482 3.366 5.218C3.366 4.942 3.414 4.684 3.51 4.444C3.534 4.168 3.558 3.88 3.582 3.58C3.618 3.28 3.546 3.01 3.366 2.77C3.33 2.71 3.27 2.662 3.186 2.626C3.114 2.59 3.048 2.578 2.988 2.59C2.88 2.626 2.766 2.638 2.646 2.626C2.538 2.602 2.43 2.578 2.322 2.554C2.214 2.518 2.106 2.5 1.998 2.5C1.89 2.488 1.782 2.512 1.674 2.572C1.326 2.668 1.05 2.842 0.846 3.094C0.654 3.346 0.516 3.634 0.432 3.958C0.36 4.27 0.348 4.594 0.396 4.93C0.444 5.266 0.54 5.572 0.684 5.848C0.696 5.908 0.726 5.956 0.774 5.992V16.468H3.168V11.032H4.176V16.468H6.57ZM0.702 5.434C0.666 5.206 0.654 4.96 0.666 4.696C0.678 4.432 0.72 4.186 0.792 3.958C0.876 3.718 0.996 3.508 1.152 3.328C1.32 3.136 1.53 2.998 1.782 2.914C1.818 2.89 1.872 2.884 1.944 2.896C2.016 2.908 2.07 2.926 2.106 2.95C2.25 2.95 2.388 2.974 2.52 3.022C2.664 3.058 2.802 3.106 2.934 3.166C3.114 3.286 3.222 3.43 3.258 3.598C3.306 3.754 3.318 3.922 3.294 4.102C3.27 4.27 3.228 4.444 3.168 4.624C3.12 4.804 3.084 5.17 3.06 5.722C3.06 5.782 3.042 5.836 3.006 5.884C2.994 5.98 2.976 6.076 2.952 6.172C2.928 6.256 2.862 6.31 2.754 6.334C2.67 6.394 2.58 6.418 2.484 6.406C2.388 6.382 2.31 6.334 2.25 6.262C2.118 6.154 2.034 6.01 1.998 5.83H1.854C1.854 6.334 1.854 6.838 1.854 7.342C1.866 7.834 1.824 8.266 1.728 8.638C1.644 9.01 1.554 9.196 1.458 9.196C1.374 9.196 1.296 9.166 1.224 9.106C1.152 9.034 1.116 8.932 1.116 8.8C1.14 8.296 1.146 7.792 1.134 7.288C1.134 6.772 1.134 6.256 1.134 5.74C1.038 5.764 0.948 5.752 0.864 5.704C0.78 5.656 0.726 5.566 0.702 5.434ZM5.328 6.154V6.118C5.256 6.178 5.178 6.208 5.094 6.208C5.01 6.208 4.938 6.184 4.878 6.136C4.518 6.04 4.308 5.968 4.248 5.92C4.164 5.62 4.11 5.314 4.086 5.002C4.074 4.678 4.17 4.294 4.374 3.85C4.59 3.394 4.764 3.142 4.896 3.094C5.028 3.034 5.166 3.004 5.31 3.004C5.466 3.004 5.622 3.022 5.778 3.058C5.934 3.082 6.084 3.088 6.228 3.076C6.408 3.232 6.534 3.4 6.606 3.58C6.678 3.76 6.714 3.946 6.714 4.138C6.714 4.318 6.69 4.51 6.642 4.714C6.606 4.906 6.564 5.098 6.516 5.29C6.504 5.422 6.48 5.56 6.444 5.704C6.42 5.836 6.402 5.968 6.39 6.1V6.19C6.39 6.322 6.318 6.418 6.174 6.478C6.15 6.694 6.126 6.916 6.102 7.144C6.078 7.36 6.072 7.582 6.084 7.81C6.084 7.906 6.042 7.978 5.958 8.026C5.886 8.074 5.76 7.798 5.58 7.198C5.412 6.598 5.328 6.25 5.328 6.154ZM3.456 9.754C3.216 9.742 3.042 9.646 2.934 9.466C2.826 9.286 2.772 9.094 2.772 8.89C2.784 8.686 2.85 8.5 2.97 8.332C3.102 8.152 3.282 8.056 3.51 8.044C3.57 8.032 3.636 8.044 3.708 8.08C3.78 8.104 3.834 8.14 3.87 8.188C3.882 8.2 3.954 8.224 4.086 8.26C4.218 8.284 4.32 8.308 4.392 8.332C4.548 8.668 4.626 8.836 4.626 8.836C4.626 8.896 4.638 8.938 4.662 8.962C4.674 9.094 4.674 9.388 4.662 9.844C4.65 10.288 4.56 10.546 4.392 10.618C4.248 10.678 4.122 10.66 4.014 10.564C3.918 10.468 3.888 10.342 3.924 10.186C3.924 10.126 3.93 10.066 3.942 10.006C3.954 9.934 3.966 9.868 3.978 9.808C3.882 9.76 3.816 9.718 3.78 9.682C3.72 9.706 3.666 9.718 3.618 9.718C3.57 9.718 3.516 9.73 3.456 9.754ZM36.5034 8.026V6.802C36.5994 6.682 36.6474 6.55 36.6474 6.406C36.6474 6.31 36.6234 6.214 36.5754 6.118C36.5514 5.938 36.5394 5.752 36.5394 5.56C36.5394 5.368 36.5334 5.182 36.5214 5.002C36.5094 4.81 36.4734 4.63 36.4134 4.462C36.3654 4.282 36.2754 4.12 36.1434 3.976C36.0474 3.868 35.9574 3.766 35.8734 3.67C35.7894 3.562 35.7054 3.454 35.6214 3.346C35.5494 3.25 35.4534 3.202 35.3334 3.202C35.2494 3.178 35.1654 3.154 35.0814 3.13C34.9974 3.106 34.9134 3.094 34.8294 3.094C34.7094 3.094 34.6134 3.13 34.5414 3.202C34.5174 3.202 34.4874 3.208 34.4514 3.22C34.4274 3.22 34.4094 3.22 34.3974 3.22C34.2174 3.196 34.0914 3.112 34.0194 2.968C33.9954 2.932 33.9474 2.896 33.8754 2.86C33.8154 2.824 33.7614 2.806 33.7134 2.806H33.5694C33.2934 2.806 33.0114 2.782 32.7234 2.734C32.4474 2.686 32.1834 2.614 31.9314 2.518H31.9134C31.7814 2.518 31.6614 2.548 31.5534 2.608C31.4454 2.668 31.3374 2.74 31.2294 2.824C31.1334 2.908 31.0314 2.986 30.9234 3.058C30.8274 3.13 30.7134 3.172 30.5814 3.184C30.5334 3.268 30.4854 3.346 30.4374 3.418C30.4014 3.478 30.3834 3.556 30.3834 3.652C30.3474 3.748 30.3294 3.844 30.3294 3.94C30.3294 4.072 30.3414 4.204 30.3654 4.336C30.4014 4.456 30.4194 4.582 30.4194 4.714C30.4194 4.834 30.4014 4.936 30.3654 5.02C30.3294 5.176 30.2994 5.332 30.2754 5.488C30.2514 5.644 30.2394 5.806 30.2394 5.974C30.2394 6.226 30.2754 6.472 30.3474 6.712C30.4194 6.94 30.5394 7.138 30.7074 7.306V16.468H33.1014V11.032H33.6954C34.4394 11.032 35.0934 10.72 35.6574 10.096C36.2214 9.472 36.5034 8.782 36.5034 8.026ZM31.1394 7.45C31.0914 7.378 31.0674 7.3 31.0674 7.216C31.0794 7.12 31.0734 7.03 31.0494 6.946C30.9894 6.874 30.9234 6.808 30.8514 6.748C30.8154 6.724 30.7734 6.682 30.7254 6.622C30.6894 6.562 30.6654 6.514 30.6534 6.478C30.6294 6.37 30.6114 6.262 30.5994 6.154C30.5874 6.034 30.5814 5.92 30.5814 5.812V5.614C30.6054 5.518 30.6354 5.44 30.6714 5.38C30.7074 5.308 30.7374 5.23 30.7614 5.146C30.7614 5.062 30.7554 4.996 30.7434 4.948C30.6714 4.828 30.6354 4.666 30.6354 4.462C30.6354 4.27 30.6774 4.084 30.7614 3.904C30.8574 3.712 31.0074 3.592 31.2114 3.544C31.2234 3.472 31.2534 3.394 31.3014 3.31C31.3614 3.214 31.4334 3.142 31.5174 3.094C31.6014 3.046 31.6914 3.022 31.7874 3.022C31.8354 3.022 31.9074 3.034 32.0034 3.058C32.0634 3.01 32.1234 2.98 32.1834 2.968C32.2554 2.956 32.3274 2.95 32.3994 2.95C32.5914 2.95 32.7834 2.992 32.9754 3.076C33.1794 3.16 33.3714 3.208 33.5514 3.22C33.7674 3.496 34.0494 3.634 34.3974 3.634H34.4514C34.6554 3.574 34.8414 3.544 35.0094 3.544C35.1534 3.544 35.2854 3.574 35.4054 3.634C35.5374 3.682 35.6394 3.79 35.7114 3.958C35.9754 4.09 36.1494 4.294 36.2334 4.57C36.3174 4.834 36.3594 5.116 36.3594 5.416C36.3594 5.512 36.3534 5.608 36.3414 5.704C36.3414 5.788 36.3354 5.878 36.3234 5.974C36.3234 6.142 36.2394 6.268 36.0714 6.352C36.0234 6.448 35.9634 6.532 35.8914 6.604C35.8194 6.676 35.7414 6.748 35.6574 6.82V6.874C35.6454 7.054 35.6214 7.228 35.5854 7.396C35.5494 7.564 35.4474 7.696 35.2794 7.792C35.1954 7.852 35.1174 7.882 35.0454 7.882C34.9134 7.882 34.8114 7.822 34.7394 7.702C34.6434 7.594 34.5834 7.474 34.5594 7.342C34.5474 7.21 34.5414 7.078 34.5414 6.946C34.5414 6.85 34.5414 6.76 34.5414 6.676C34.5414 6.58 34.5354 6.484 34.5234 6.388C34.4514 6.388 34.3794 6.364 34.3074 6.316C34.2354 6.268 34.1874 6.208 34.1634 6.136C34.1034 6.088 34.0614 6.052 34.0374 6.028C33.8814 6.016 33.7314 5.956 33.5874 5.848H33.5514C33.4194 5.848 33.2934 5.812 33.1734 5.74C33.0654 5.668 32.9754 5.584 32.9034 5.488C32.8074 5.644 32.7594 5.842 32.7594 6.082V6.244C32.6034 6.34 32.5014 6.466 32.4534 6.622C32.4054 6.766 32.3694 6.922 32.3454 7.09C32.3334 7.246 32.3154 7.408 32.2914 7.576C32.2674 7.744 32.1954 7.894 32.0754 8.026C32.0514 8.074 32.0094 8.116 31.9494 8.152C31.8894 8.188 31.8294 8.206 31.7694 8.206H31.6074C31.5354 8.206 31.4634 8.182 31.3914 8.134C31.3314 8.074 31.2894 8.008 31.2654 7.936C31.2414 7.876 31.2234 7.816 31.2114 7.756C31.1994 7.696 31.1874 7.63 31.1754 7.558C31.1514 7.51 31.1394 7.474 31.1394 7.45ZM34.1094 7.81C34.1094 8.002 34.0374 8.188 33.8934 8.368C33.7614 8.548 33.5994 8.638 33.4074 8.638H33.1014V6.298L33.5334 6.19C33.5574 6.19 33.5934 6.202 33.6414 6.226C33.7254 6.286 33.8034 6.358 33.8754 6.442C33.9474 6.526 34.0254 6.604 34.1094 6.676V7.81ZM31.1934 3.652L31.1754 3.67L31.1934 3.742V3.652ZM53.3447 16.468V15.82C53.4407 15.76 53.5247 15.682 53.5967 15.586C53.6807 15.478 53.7107 15.358 53.6867 15.226C53.7947 15.022 53.8367 14.806 53.8127 14.578C53.7887 14.338 53.7107 14.134 53.5787 13.966C53.4587 13.786 53.2967 13.66 53.0927 13.588C52.9007 13.504 52.6847 13.516 52.4447 13.624C52.3847 13.66 52.3187 13.684 52.2467 13.696C52.1867 13.708 52.1207 13.72 52.0487 13.732C51.9407 13.648 51.8207 13.6 51.6887 13.588C51.5687 13.564 51.4427 13.558 51.3107 13.57V7.72C51.4307 7.636 51.5147 7.534 51.5627 7.414C51.6107 7.294 51.6407 7.162 51.6527 7.018C51.6767 6.874 51.6947 6.73 51.7067 6.586C51.7187 6.442 51.7427 6.304 51.7787 6.172C51.8267 5.68 51.8567 5.188 51.8687 4.696C51.8807 4.204 51.8087 3.724 51.6527 3.256C51.6287 3.196 51.5867 3.142 51.5267 3.094C51.4787 3.046 51.4247 3.01 51.3647 2.986C51.3167 2.902 51.2567 2.848 51.1847 2.824C51.1127 2.788 51.0347 2.764 50.9507 2.752C50.8787 2.74 50.8007 2.734 50.7167 2.734C50.6447 2.722 50.5727 2.698 50.5007 2.662C50.2607 2.542 50.0087 2.5 49.7447 2.536C49.4927 2.56 49.2647 2.638 49.0607 2.77C48.8567 2.902 48.6887 3.082 48.5567 3.31C48.4367 3.526 48.3887 3.772 48.4127 4.048C48.4367 4.252 48.4307 4.474 48.3947 4.714C48.3587 4.942 48.3407 5.17 48.3407 5.398C48.3407 5.614 48.3707 5.818 48.4307 6.01C48.5027 6.202 48.6467 6.37 48.8627 6.514L48.9167 6.55V16.468H53.3447ZM48.7547 4.21C48.6467 3.994 48.6287 3.784 48.7007 3.58C48.7847 3.364 48.9107 3.19 49.0787 3.058C49.2467 2.926 49.4387 2.848 49.6547 2.824C49.8707 2.8 50.0627 2.878 50.2307 3.058C50.3387 3.046 50.4467 3.04 50.5547 3.04C50.6627 3.028 50.7647 3.034 50.8607 3.058C51.1847 3.274 51.4007 3.544 51.5087 3.868C51.6167 4.192 51.6647 4.534 51.6527 4.894C51.6407 5.254 51.5987 5.62 51.5267 5.992C51.4667 6.352 51.4307 6.688 51.4187 7C51.4187 7.12 51.3767 7.21 51.2927 7.27C51.2207 7.33 51.1367 7.39 51.0407 7.45C50.9447 7.426 50.8547 7.396 50.7707 7.36C50.6867 7.324 50.6087 7.276 50.5367 7.216C50.5367 7.12 50.5187 7.03 50.4827 6.946C50.4587 6.85 50.4287 6.754 50.3927 6.658C50.3807 6.718 50.3687 6.772 50.3567 6.82C50.3567 6.856 50.3567 6.898 50.3567 6.946C50.3327 7.078 50.2787 7.168 50.1947 7.216C50.1947 7.276 50.1947 7.33 50.1947 7.378C50.1947 7.426 50.2007 7.474 50.2127 7.522C50.2127 7.654 50.1707 7.75 50.0867 7.81C50.0147 7.87 49.9307 7.9 49.8347 7.9C49.7507 7.9 49.6727 7.87 49.6007 7.81C49.5287 7.75 49.4927 7.654 49.4927 7.522C49.4807 7.318 49.4747 7.114 49.4747 6.91C49.4867 6.694 49.4927 6.484 49.4927 6.28C49.4207 6.292 49.3607 6.292 49.3127 6.28C49.2167 6.328 49.1087 6.334 48.9887 6.298C48.8807 6.25 48.8147 6.16 48.7907 6.028C48.7787 5.968 48.7667 5.914 48.7547 5.866C48.7547 5.806 48.7547 5.746 48.7547 5.686C48.6587 5.47 48.6227 5.23 48.6467 4.966C48.6827 4.702 48.7187 4.45 48.7547 4.21ZM50.8967 14.65C50.8127 14.578 50.7707 14.482 50.7707 14.362C50.7707 14.242 50.8367 14.14 50.9687 14.056C51.0527 13.972 51.1487 13.924 51.2567 13.912C51.3647 13.9 51.4727 13.906 51.5807 13.93C51.7607 14.05 51.9527 14.116 52.1567 14.128C52.3607 14.14 52.5467 14.08 52.7147 13.948C52.8827 13.912 53.0267 13.924 53.1467 13.984C53.2787 14.044 53.3807 14.134 53.4527 14.254C53.5367 14.374 53.5907 14.512 53.6147 14.668C53.6507 14.824 53.6567 14.968 53.6327 15.1C53.6207 15.208 53.5907 15.298 53.5427 15.37C53.4947 15.43 53.4347 15.49 53.3627 15.55C53.2907 15.598 53.2187 15.652 53.1467 15.712C53.0747 15.76 53.0147 15.82 52.9667 15.892C52.8827 16.012 52.7747 16.072 52.6427 16.072C52.5227 16.072 52.4267 16.006 52.3547 15.874C52.2947 15.826 52.2587 15.772 52.2467 15.712C52.2347 15.64 52.2287 15.568 52.2287 15.496C52.2047 15.496 52.1867 15.49 52.1747 15.478C52.0427 15.526 51.9107 15.514 51.7787 15.442C51.6467 15.358 51.5507 15.25 51.4907 15.118C51.4547 15.142 51.4187 15.172 51.3827 15.208C51.3347 15.196 51.2927 15.19 51.2567 15.19C51.2207 15.178 51.1787 15.166 51.1307 15.154C50.9027 15.094 50.8187 14.95 50.8787 14.722C50.8787 14.71 50.8787 14.698 50.8787 14.686C50.8907 14.674 50.8967 14.662 50.8967 14.65ZM88.5895 16.468V6.154C88.7215 5.998 88.8055 5.794 88.8415 5.542C88.8895 5.29 88.9435 5.068 89.0035 4.876C89.0155 4.684 89.0395 4.486 89.0755 4.282C89.1235 4.078 89.1535 3.874 89.1655 3.67C89.1775 3.466 89.1475 3.274 89.0755 3.094C89.0155 2.914 88.8835 2.758 88.6795 2.626C88.6435 2.602 88.5895 2.584 88.5175 2.572C88.4575 2.56 88.4095 2.56 88.3735 2.572C88.2055 2.62 88.0375 2.638 87.8695 2.626C87.7015 2.602 87.5335 2.578 87.3655 2.554C87.1975 2.518 87.0235 2.494 86.8435 2.482C86.6755 2.458 86.5075 2.47 86.3395 2.518C86.0875 2.866 85.9495 3.25 85.9255 3.67C85.9135 4.09 85.9375 4.498 85.9975 4.894C85.9975 5.002 86.0635 5.086 86.1955 5.146V6.604C86.1715 6.58 86.1535 6.556 86.1415 6.532C86.0575 6.4 85.9435 6.334 85.7995 6.334L85.3855 4.894C85.4095 4.498 85.4095 4.108 85.3855 3.724C85.3615 3.34 85.2115 3.004 84.9355 2.716C84.6835 2.584 84.3835 2.512 84.0355 2.5C83.6995 2.476 83.3815 2.518 83.0815 2.626C82.7935 2.734 82.5535 2.908 82.3615 3.148C82.1695 3.376 82.0915 3.67 82.1275 4.03C82.1755 4.234 82.1935 4.462 82.1815 4.714C82.1815 4.966 82.1815 5.212 82.1815 5.452C82.1935 5.68 82.2355 5.896 82.3075 6.1C82.3915 6.304 82.5535 6.46 82.7935 6.568V16.468H85.1875V12.328L86.4835 16.468H88.5895ZM84.5575 5.74C84.5455 5.74 84.5395 5.728 84.5395 5.704C84.5035 5.656 84.4675 5.608 84.4315 5.56C84.4075 5.512 84.3835 5.458 84.3595 5.398C84.3475 5.542 84.3355 5.692 84.3235 5.848C84.3235 5.992 84.2935 6.136 84.2335 6.28C84.2095 6.376 84.1555 6.442 84.0715 6.478C83.9875 6.514 83.9035 6.526 83.8195 6.514C83.7475 6.49 83.6755 6.448 83.6035 6.388C83.5435 6.328 83.5195 6.25 83.5315 6.154V5.938H83.5135C83.5015 6.046 83.4295 6.13 83.2975 6.19C83.2855 6.19 83.2615 6.208 83.2255 6.244C83.1415 6.304 83.0455 6.334 82.9375 6.334C82.8415 6.322 82.7635 6.274 82.7035 6.19C82.6915 6.178 82.6795 6.172 82.6675 6.172C82.6555 6.16 82.6435 6.148 82.6315 6.136C82.5835 6.112 82.5415 6.07 82.5055 6.01C82.4695 5.95 82.4515 5.89 82.4515 5.83C82.3795 5.542 82.3555 5.254 82.3795 4.966C82.4155 4.666 82.4275 4.366 82.4155 4.066C82.3795 3.814 82.4215 3.598 82.5415 3.418C82.6615 3.226 82.8235 3.076 83.0275 2.968C83.2435 2.848 83.4715 2.776 83.7115 2.752C83.9635 2.728 84.1915 2.752 84.3955 2.824C84.6115 2.86 84.7735 2.944 84.8815 3.076C84.9895 3.196 85.0615 3.346 85.0975 3.526C85.1455 3.706 85.1755 3.898 85.1875 4.102C85.1995 4.294 85.2235 4.468 85.2595 4.624C85.2715 4.792 85.3015 4.978 85.3495 5.182C85.4095 5.386 85.4035 5.56 85.3315 5.704C85.3675 5.8 85.3975 5.896 85.4215 5.992C85.4455 6.088 85.4695 6.184 85.4935 6.28C85.5175 6.316 85.5415 6.358 85.5655 6.406C85.5655 6.442 85.5715 6.466 85.5835 6.478C85.7635 6.562 85.9315 6.688 86.0875 6.856C86.2555 7.012 86.3815 7.192 86.4655 7.396C86.5615 7.588 86.6095 7.798 86.6095 8.026C86.6095 8.242 86.5495 8.452 86.4295 8.656C86.3575 8.8 86.2435 8.872 86.0875 8.872C85.9435 8.86 85.8415 8.782 85.7815 8.638C85.6375 8.326 85.4815 8.02 85.3135 7.72C85.1455 7.408 85.0135 7.084 84.9175 6.748C84.8455 6.58 84.7795 6.412 84.7195 6.244C84.6715 6.064 84.6175 5.896 84.5575 5.74ZM86.8615 5.038C86.6455 5.038 86.4835 4.984 86.3755 4.876C86.2675 4.756 86.1955 4.618 86.1595 4.462C86.1235 4.294 86.1115 4.12 86.1235 3.94C86.1355 3.748 86.1595 3.58 86.1955 3.436C86.1835 3.292 86.2135 3.166 86.2855 3.058C86.3575 2.938 86.4535 2.854 86.5735 2.806C86.6935 2.746 86.8195 2.722 86.9515 2.734C87.0955 2.734 87.2215 2.776 87.3295 2.86C87.4015 2.812 87.4615 2.812 87.5095 2.86C87.5695 2.896 87.6295 2.926 87.6895 2.95H87.6715C87.7675 2.986 87.8635 3.01 87.9595 3.022C88.0675 3.022 88.1695 3.022 88.2655 3.022C88.3615 3.022 88.4575 3.034 88.5535 3.058C88.6495 3.082 88.7395 3.13 88.8235 3.202C88.8835 3.418 88.9075 3.634 88.8955 3.85C88.8835 4.054 88.8595 4.264 88.8235 4.48C88.7875 4.696 88.7455 4.912 88.6975 5.128C88.6615 5.344 88.6375 5.56 88.6255 5.776C88.5775 5.8 88.5295 5.83 88.4815 5.866C88.4455 5.902 88.4035 5.932 88.3555 5.956C88.2955 6.004 88.2235 6.028 88.1395 6.028C88.0555 6.028 87.9835 6.004 87.9235 5.956C87.8515 5.92 87.7975 5.872 87.7615 5.812C87.7255 5.752 87.6895 5.692 87.6535 5.632C87.6535 5.836 87.6535 6.034 87.6535 6.226C87.6655 6.406 87.6715 6.598 87.6715 6.802C87.6715 6.934 87.6295 7.03 87.5455 7.09C87.4735 7.15 87.3895 7.18 87.2935 7.18C87.2095 7.18 87.1315 7.15 87.0595 7.09C86.9875 7.03 86.9515 6.934 86.9515 6.802C86.9395 6.514 86.9335 6.226 86.9335 5.938C86.9335 5.638 86.9335 5.344 86.9335 5.056C86.8975 5.056 86.8735 5.05 86.8615 5.038ZM86.2315 7.936L86.1235 7.666L86.1055 7.684C86.1415 7.732 86.1835 7.816 86.2315 7.936ZM86.9155 3.49V3.508L86.9335 3.49H86.9155ZM99.3788 6.226C99.3908 6.286 99.4028 6.346 99.4148 6.406C99.4268 6.454 99.4448 6.502 99.4688 6.55C99.4568 6.646 99.4448 6.742 99.4328 6.838C99.4328 6.922 99.4508 7.012 99.4868 7.108C99.5228 7.276 99.6068 7.378 99.7388 7.414C99.8828 7.45 100.009 7.402 100.117 7.27C100.117 7.27 100.129 7.258 100.153 7.234H100.297C100.357 7.234 100.417 7.216 100.477 7.18C100.549 7.132 100.597 7.084 100.621 7.036C100.645 7 100.675 6.964 100.711 6.928C100.759 6.88 100.795 6.844 100.819 6.82H102.133V6.046C102.193 5.746 102.361 5.596 102.637 5.596C102.973 5.596 103.141 5.764 103.141 6.1C103.141 6.616 102.847 7.33 102.259 8.242C101.707 9.082 101.161 9.922 100.621 10.762C100.033 11.794 99.7388 12.736 99.7388 13.588V16.468H105.535V15.784C105.727 15.652 105.859 15.466 105.931 15.226C106.015 14.974 106.039 14.722 106.003 14.47C105.967 14.206 105.871 13.972 105.715 13.768C105.571 13.552 105.361 13.42 105.085 13.372C104.857 13.48 104.617 13.534 104.365 13.534C104.113 13.522 103.855 13.504 103.591 13.48C103.339 13.444 103.087 13.414 102.835 13.39C102.595 13.366 102.361 13.384 102.133 13.444C102.181 12.952 102.475 12.292 103.015 11.464C103.555 10.612 104.101 9.76 104.653 8.908L104.779 8.674C105.055 8.614 105.289 8.488 105.481 8.296C105.673 8.104 105.799 7.864 105.859 7.576C106.027 7.012 106.105 6.424 106.093 5.812C106.081 5.2 105.913 4.642 105.589 4.138C105.517 4.018 105.433 3.904 105.337 3.796C105.241 3.688 105.127 3.592 104.995 3.508C104.971 3.484 104.947 3.466 104.923 3.454C104.911 3.442 104.893 3.43 104.869 3.418C104.809 3.334 104.761 3.25 104.725 3.166C104.617 3.082 104.497 3.022 104.365 2.986C104.233 2.938 104.119 2.866 104.023 2.77C103.951 2.83 103.879 2.854 103.807 2.842C103.735 2.83 103.663 2.806 103.591 2.77C103.531 2.734 103.465 2.704 103.393 2.68C103.333 2.644 103.261 2.632 103.177 2.644C102.961 2.584 102.739 2.554 102.511 2.554C102.295 2.554 102.079 2.584 101.863 2.644C101.647 2.704 101.443 2.794 101.251 2.914C101.071 3.034 100.915 3.19 100.783 3.382C100.411 3.574 100.111 3.85 99.8828 4.21C99.6308 4.474 99.4508 4.786 99.3428 5.146C99.2468 5.494 99.2588 5.854 99.3788 6.226ZM104.563 6.784C104.563 6.724 104.581 6.676 104.617 6.64C104.581 6.424 104.527 6.208 104.455 5.992C104.395 5.764 104.341 5.542 104.293 5.326C104.089 5.434 103.867 5.44 103.627 5.344C103.399 5.248 103.255 5.08 103.195 4.84L103.177 4.822C103.045 4.87 102.907 4.93 102.763 5.002C102.619 5.062 102.469 5.116 102.313 5.164C102.169 5.212 102.025 5.23 101.881 5.218C101.737 5.206 101.611 5.146 101.503 5.038C101.455 5.134 101.419 5.23 101.395 5.326C101.371 5.422 101.341 5.518 101.305 5.614C101.281 5.686 101.227 5.746 101.143 5.794C101.071 5.842 100.999 5.86 100.927 5.848C100.807 5.848 100.717 5.884 100.657 5.956C100.597 6.028 100.549 6.118 100.513 6.226C100.489 6.322 100.465 6.43 100.441 6.55C100.417 6.658 100.381 6.754 100.333 6.838C100.297 6.934 100.243 7 100.171 7.036C100.099 7.072 100.021 7.084 99.9368 7.072C99.8648 7.06 99.7988 7.03 99.7388 6.982C99.6788 6.922 99.6428 6.844 99.6308 6.748C99.5828 6.46 99.5708 6.178 99.5948 5.902C99.6188 5.614 99.6308 5.326 99.6308 5.038C99.6308 4.942 99.6548 4.864 99.7028 4.804C99.7508 4.744 99.8048 4.702 99.8648 4.678C99.9608 4.45 100.129 4.27 100.369 4.138C100.621 3.994 100.849 3.85 101.053 3.706C101.173 3.466 101.329 3.28 101.521 3.148C101.725 3.016 101.941 2.938 102.169 2.914C102.409 2.878 102.649 2.884 102.889 2.932C103.141 2.98 103.375 3.064 103.591 3.184C103.615 3.172 103.657 3.166 103.717 3.166C103.837 3.166 103.963 3.178 104.095 3.202C104.227 3.226 104.347 3.268 104.455 3.328C104.575 3.388 104.671 3.466 104.743 3.562C104.827 3.658 104.875 3.778 104.887 3.922C104.935 3.958 104.959 4.006 104.959 4.066C105.283 4.342 105.523 4.708 105.679 5.164C105.847 5.608 105.901 6.04 105.841 6.46C105.817 6.484 105.799 6.514 105.787 6.55C105.787 6.586 105.781 6.616 105.769 6.64C105.769 6.832 105.757 7.018 105.733 7.198C105.721 7.378 105.667 7.552 105.571 7.72C105.559 7.828 105.517 7.93 105.445 8.026C105.373 8.122 105.283 8.194 105.175 8.242C105.079 8.29 104.971 8.314 104.851 8.314C104.743 8.314 104.647 8.266 104.563 8.17C104.527 8.146 104.491 8.098 104.455 8.026C104.431 7.954 104.419 7.894 104.419 7.846C104.443 7.666 104.461 7.486 104.473 7.306C104.497 7.126 104.527 6.952 104.563 6.784ZM101.809 13.912C101.857 13.744 101.947 13.648 102.079 13.624C102.211 13.6 102.319 13.636 102.403 13.732C102.607 13.696 102.817 13.684 103.033 13.696C103.249 13.696 103.459 13.708 103.663 13.732C103.783 13.828 103.921 13.888 104.077 13.912C104.101 13.9 104.119 13.888 104.131 13.876C104.155 13.864 104.179 13.852 104.203 13.84C104.347 13.78 104.503 13.738 104.671 13.714C104.839 13.69 105.007 13.696 105.175 13.732C105.271 13.732 105.367 13.768 105.463 13.84C105.523 13.876 105.559 13.924 105.571 13.984C105.595 14.032 105.607 14.086 105.607 14.146C105.751 14.314 105.829 14.524 105.841 14.776C105.865 15.016 105.799 15.22 105.643 15.388C105.619 15.424 105.571 15.46 105.499 15.496C105.439 15.52 105.391 15.532 105.355 15.532C105.223 15.532 105.097 15.502 104.977 15.442C104.869 15.382 104.791 15.292 104.743 15.172C104.683 15.172 104.629 15.178 104.581 15.19C104.545 15.19 104.497 15.196 104.437 15.208C104.269 15.232 104.125 15.196 104.005 15.1C103.885 15.004 103.759 14.908 103.627 14.812C103.615 14.812 103.609 14.818 103.609 14.83C103.609 14.83 103.603 14.83 103.591 14.83C103.495 14.914 103.447 15.052 103.447 15.244C103.459 15.436 103.429 15.604 103.357 15.748C103.321 15.868 103.249 15.952 103.141 16C103.033 16.036 102.925 16.018 102.817 15.946C102.721 15.898 102.655 15.838 102.619 15.766C102.583 15.682 102.565 15.592 102.565 15.496C102.565 15.4 102.565 15.304 102.565 15.208C102.577 15.112 102.577 15.016 102.565 14.92C102.565 14.92 102.541 14.908 102.493 14.884C102.397 14.932 102.301 14.974 102.205 15.01C102.121 15.034 102.031 15.028 101.935 14.992C101.851 14.98 101.779 14.938 101.719 14.866C101.659 14.794 101.629 14.716 101.629 14.632C101.641 14.5 101.665 14.38 101.701 14.272C101.749 14.152 101.785 14.032 101.809 13.912ZM114.373 6.226C114.385 6.286 114.397 6.346 114.409 6.406C114.421 6.454 114.439 6.502 114.463 6.55C114.451 6.646 114.439 6.742 114.427 6.838C114.427 6.922 114.445 7.012 114.481 7.108C114.517 7.276 114.601 7.378 114.733 7.414C114.877 7.45 115.003 7.402 115.111 7.27C115.111 7.27 115.123 7.258 115.147 7.234H115.291C115.351 7.234 115.411 7.216 115.471 7.18C115.543 7.132 115.591 7.084 115.615 7.036C115.639 7 115.669 6.964 115.705 6.928C115.753 6.88 115.789 6.844 115.813 6.82H117.127V6.046C117.187 5.746 117.355 5.596 117.631 5.596C117.967 5.596 118.135 5.764 118.135 6.1C118.135 6.616 117.841 7.33 117.253 8.242C116.701 9.082 116.155 9.922 115.615 10.762C115.027 11.794 114.733 12.736 114.733 13.588V16.468H120.529V15.784C120.721 15.652 120.853 15.466 120.925 15.226C121.009 14.974 121.033 14.722 120.997 14.47C120.961 14.206 120.865 13.972 120.709 13.768C120.565 13.552 120.355 13.42 120.079 13.372C119.851 13.48 119.611 13.534 119.359 13.534C119.107 13.522 118.849 13.504 118.585 13.48C118.333 13.444 118.081 13.414 117.829 13.39C117.589 13.366 117.355 13.384 117.127 13.444C117.175 12.952 117.469 12.292 118.009 11.464C118.549 10.612 119.095 9.76 119.647 8.908L119.773 8.674C120.049 8.614 120.283 8.488 120.475 8.296C120.667 8.104 120.793 7.864 120.853 7.576C121.021 7.012 121.099 6.424 121.087 5.812C121.075 5.2 120.907 4.642 120.583 4.138C120.511 4.018 120.427 3.904 120.331 3.796C120.235 3.688 120.121 3.592 119.989 3.508C119.965 3.484 119.941 3.466 119.917 3.454C119.905 3.442 119.887 3.43 119.863 3.418C119.803 3.334 119.755 3.25 119.719 3.166C119.611 3.082 119.491 3.022 119.359 2.986C119.227 2.938 119.113 2.866 119.017 2.77C118.945 2.83 118.873 2.854 118.801 2.842C118.729 2.83 118.657 2.806 118.585 2.77C118.525 2.734 118.459 2.704 118.387 2.68C118.327 2.644 118.255 2.632 118.171 2.644C117.955 2.584 117.733 2.554 117.505 2.554C117.289 2.554 117.073 2.584 116.857 2.644C116.641 2.704 116.437 2.794 116.245 2.914C116.065 3.034 115.909 3.19 115.777 3.382C115.405 3.574 115.105 3.85 114.877 4.21C114.625 4.474 114.445 4.786 114.337 5.146C114.241 5.494 114.253 5.854 114.373 6.226ZM119.557 6.784C119.557 6.724 119.575 6.676 119.611 6.64C119.575 6.424 119.521 6.208 119.449 5.992C119.389 5.764 119.335 5.542 119.287 5.326C119.083 5.434 118.861 5.44 118.621 5.344C118.393 5.248 118.249 5.08 118.189 4.84L118.171 4.822C118.039 4.87 117.901 4.93 117.757 5.002C117.613 5.062 117.463 5.116 117.307 5.164C117.163 5.212 117.019 5.23 116.875 5.218C116.731 5.206 116.605 5.146 116.497 5.038C116.449 5.134 116.413 5.23 116.389 5.326C116.365 5.422 116.335 5.518 116.299 5.614C116.275 5.686 116.221 5.746 116.137 5.794C116.065 5.842 115.993 5.86 115.921 5.848C115.801 5.848 115.711 5.884 115.651 5.956C115.591 6.028 115.543 6.118 115.507 6.226C115.483 6.322 115.459 6.43 115.435 6.55C115.411 6.658 115.375 6.754 115.327 6.838C115.291 6.934 115.237 7 115.165 7.036C115.093 7.072 115.015 7.084 114.931 7.072C114.859 7.06 114.793 7.03 114.733 6.982C114.673 6.922 114.637 6.844 114.625 6.748C114.577 6.46 114.565 6.178 114.589 5.902C114.613 5.614 114.625 5.326 114.625 5.038C114.625 4.942 114.649 4.864 114.697 4.804C114.745 4.744 114.799 4.702 114.859 4.678C114.955 4.45 115.123 4.27 115.363 4.138C115.615 3.994 115.843 3.85 116.047 3.706C116.167 3.466 116.323 3.28 116.515 3.148C116.719 3.016 116.935 2.938 117.163 2.914C117.403 2.878 117.643 2.884 117.883 2.932C118.135 2.98 118.369 3.064 118.585 3.184C118.609 3.172 118.651 3.166 118.711 3.166C118.831 3.166 118.957 3.178 119.089 3.202C119.221 3.226 119.341 3.268 119.449 3.328C119.569 3.388 119.665 3.466 119.737 3.562C119.821 3.658 119.869 3.778 119.881 3.922C119.929 3.958 119.953 4.006 119.953 4.066C120.277 4.342 120.517 4.708 120.673 5.164C120.841 5.608 120.895 6.04 120.835 6.46C120.811 6.484 120.793 6.514 120.781 6.55C120.781 6.586 120.775 6.616 120.763 6.64C120.763 6.832 120.751 7.018 120.727 7.198C120.715 7.378 120.661 7.552 120.565 7.72C120.553 7.828 120.511 7.93 120.439 8.026C120.367 8.122 120.277 8.194 120.169 8.242C120.073 8.29 119.965 8.314 119.845 8.314C119.737 8.314 119.641 8.266 119.557 8.17C119.521 8.146 119.485 8.098 119.449 8.026C119.425 7.954 119.413 7.894 119.413 7.846C119.437 7.666 119.455 7.486 119.467 7.306C119.491 7.126 119.521 6.952 119.557 6.784ZM116.803 13.912C116.851 13.744 116.941 13.648 117.073 13.624C117.205 13.6 117.313 13.636 117.397 13.732C117.601 13.696 117.811 13.684 118.027 13.696C118.243 13.696 118.453 13.708 118.657 13.732C118.777 13.828 118.915 13.888 119.071 13.912C119.095 13.9 119.113 13.888 119.125 13.876C119.149 13.864 119.173 13.852 119.197 13.84C119.341 13.78 119.497 13.738 119.665 13.714C119.833 13.69 120.001 13.696 120.169 13.732C120.265 13.732 120.361 13.768 120.457 13.84C120.517 13.876 120.553 13.924 120.565 13.984C120.589 14.032 120.601 14.086 120.601 14.146C120.745 14.314 120.823 14.524 120.835 14.776C120.859 15.016 120.793 15.22 120.637 15.388C120.613 15.424 120.565 15.46 120.493 15.496C120.433 15.52 120.385 15.532 120.349 15.532C120.217 15.532 120.091 15.502 119.971 15.442C119.863 15.382 119.785 15.292 119.737 15.172C119.677 15.172 119.623 15.178 119.575 15.19C119.539 15.19 119.491 15.196 119.431 15.208C119.263 15.232 119.119 15.196 118.999 15.1C118.879 15.004 118.753 14.908 118.621 14.812C118.609 14.812 118.603 14.818 118.603 14.83C118.603 14.83 118.597 14.83 118.585 14.83C118.489 14.914 118.441 15.052 118.441 15.244C118.453 15.436 118.423 15.604 118.351 15.748C118.315 15.868 118.243 15.952 118.135 16C118.027 16.036 117.919 16.018 117.811 15.946C117.715 15.898 117.649 15.838 117.613 15.766C117.577 15.682 117.559 15.592 117.559 15.496C117.559 15.4 117.559 15.304 117.559 15.208C117.571 15.112 117.571 15.016 117.559 14.92C117.559 14.92 117.535 14.908 117.487 14.884C117.391 14.932 117.295 14.974 117.199 15.01C117.115 15.034 117.025 15.028 116.929 14.992C116.845 14.98 116.773 14.938 116.713 14.866C116.653 14.794 116.623 14.716 116.623 14.632C116.635 14.5 116.659 14.38 116.695 14.272C116.743 14.152 116.779 14.032 116.803 13.912Z" fill="#F0370E"/>
<path d="M14.1462 13.588V7.684C14.2782 7.66 14.3922 7.612 14.4882 7.54C14.5842 7.468 14.6322 7.372 14.6322 7.252C14.6322 7.18 14.6202 7.12 14.5962 7.072C14.6202 7.012 14.6322 6.922 14.6322 6.802L14.5602 6.064C14.5602 5.932 14.5842 5.812 14.6322 5.704V5.506C14.6322 5.35 14.6022 5.248 14.5422 5.2V5.074C14.5422 4.99 14.5362 4.912 14.5242 4.84C14.5122 4.768 14.4822 4.714 14.4342 4.678V4.552C14.4342 4.372 14.3862 4.228 14.2902 4.12C14.2182 4.048 14.1282 4 14.0202 3.976L14.0022 3.922C13.9542 3.862 13.9062 3.796 13.8582 3.724C13.8102 3.64 13.7442 3.598 13.6602 3.598H13.6242C13.6122 3.586 13.5942 3.556 13.5702 3.508C13.4742 3.412 13.3662 3.364 13.2462 3.364H13.2102L13.1202 3.382C13.1202 3.382 13.1082 3.37 13.0842 3.346C13.0842 3.334 13.0782 3.328 13.0662 3.328C13.0662 3.328 13.0662 3.322 13.0662 3.31C13.0302 3.238 12.9882 3.172 12.9402 3.112C12.8922 3.052 12.8202 3.01 12.7242 2.986C12.5202 2.83 12.2802 2.704 12.0042 2.608C11.7282 2.5 11.4522 2.446 11.1762 2.446C10.9722 2.446 10.7682 2.488 10.5642 2.572C10.3722 2.644 10.2102 2.764 10.0782 2.932C10.0422 2.92 10.0062 2.914 9.97017 2.914C9.94617 2.902 9.91617 2.896 9.88017 2.896C9.74817 2.896 9.62817 2.932 9.52017 3.004C9.41217 3.076 9.31017 3.172 9.21417 3.292C9.11817 3.4 9.03417 3.52 8.96217 3.652C8.89017 3.772 8.83017 3.886 8.78217 3.994C8.72217 4.054 8.68017 4.126 8.65617 4.21C8.64417 4.282 8.63817 4.36 8.63817 4.444C8.38617 4.516 8.21817 4.648 8.13417 4.84C8.05017 5.032 8.00817 5.242 8.00817 5.47V5.632C7.86417 5.836 7.79217 6.058 7.79217 6.298C7.79217 6.37 7.80417 6.466 7.82817 6.586C7.85217 6.682 7.88217 6.772 7.91817 6.856C7.95417 6.928 8.00217 6.988 8.06217 7.036L8.08017 7.18C8.08017 7.204 8.07417 7.228 8.06217 7.252C8.06217 7.276 8.06217 7.3 8.06217 7.324C8.08617 7.444 8.11017 7.564 8.13417 7.684C8.15817 7.792 8.20017 7.894 8.26017 7.99C8.27217 8.038 8.30217 8.074 8.35017 8.098V13.588C8.35017 14.392 8.63217 15.076 9.19617 15.64C9.76017 16.192 10.4442 16.468 11.2482 16.468C12.0402 16.468 12.7182 16.192 13.2822 15.64C13.8582 15.076 14.1462 14.392 14.1462 13.588ZM9.64617 9.358V9.412C9.64617 9.52 9.61017 9.604 9.53817 9.664C9.46617 9.724 9.38217 9.754 9.28617 9.754C9.20217 9.754 9.12417 9.73 9.05217 9.682C8.98017 9.622 8.93817 9.538 8.92617 9.43L8.69217 7.072C8.59617 6.976 8.52417 6.862 8.47617 6.73C8.42817 6.586 8.40417 6.442 8.40417 6.298C8.40417 6.082 8.45217 5.902 8.54817 5.758V5.668C8.46417 5.572 8.42217 5.458 8.42217 5.326C8.42217 5.194 8.47017 5.068 8.56617 4.948C8.66217 4.828 8.78217 4.738 8.92617 4.678C8.92617 4.558 8.95017 4.444 8.99817 4.336C9.04617 4.216 9.10617 4.102 9.17817 3.994C9.23817 3.958 9.28017 3.904 9.30417 3.832C9.32817 3.76 9.37017 3.712 9.43017 3.688C9.43017 3.664 9.43617 3.646 9.44817 3.634C9.47217 3.598 9.50817 3.556 9.55617 3.508C9.60417 3.46 9.65217 3.43 9.70017 3.418C9.82017 3.382 9.95217 3.364 10.0962 3.364L10.4022 3.382C10.4982 3.214 10.6362 3.088 10.8162 3.004C11.0082 2.92 11.2002 2.878 11.3922 2.878C11.7042 2.878 11.9622 2.986 12.1662 3.202H12.1842C12.3402 3.202 12.4542 3.298 12.5262 3.49C12.6102 3.67 12.6942 3.832 12.7782 3.976C12.8022 3.964 12.8322 3.958 12.8682 3.958C12.9402 3.958 13.0182 3.976 13.1022 4.012C13.1982 4.036 13.2882 4.06 13.3722 4.084C13.5642 4.12 13.7442 4.228 13.9122 4.408C14.0802 4.576 14.1642 4.756 14.1642 4.948C14.1642 5.116 14.0922 5.254 13.9482 5.362C14.0082 5.506 14.0682 5.65 14.1282 5.794C14.2002 5.926 14.2362 6.07 14.2362 6.226C14.2362 6.346 14.2122 6.454 14.1642 6.55C14.1162 6.61 14.0622 6.664 14.0022 6.712C13.9542 6.76 13.9182 6.814 13.8942 6.874C13.9782 7.006 14.0202 7.168 14.0202 7.36C14.0202 7.576 13.9662 7.774 13.8582 7.954L13.9302 8.908C13.9302 9.088 13.9062 9.262 13.8582 9.43C13.8102 9.586 13.7082 9.73 13.5522 9.862C13.4802 9.946 13.3902 9.988 13.2822 9.988C13.1622 9.988 13.0662 9.934 12.9942 9.826C12.8862 9.706 12.8082 9.574 12.7602 9.43C12.7122 9.286 12.6762 9.136 12.6522 8.98C12.6402 8.824 12.6282 8.668 12.6162 8.512C12.6042 8.356 12.5802 8.206 12.5442 8.062H12.4722H12.4362V8.044C12.3282 7.876 12.2442 7.702 12.1842 7.522C12.1362 7.33 12.0702 7.144 11.9862 6.964C11.8662 6.832 11.7282 6.724 11.5722 6.64C11.4282 6.556 11.2722 6.508 11.1042 6.496C10.9602 6.628 10.8642 6.778 10.8162 6.946C10.7682 7.114 10.7322 7.288 10.7082 7.468C10.6962 7.648 10.6722 7.828 10.6362 8.008C10.6122 8.188 10.5462 8.356 10.4382 8.512C10.3662 8.644 10.2582 8.71 10.1142 8.71H10.0782L9.93417 8.692C9.88617 8.68 9.83217 8.656 9.77217 8.62C9.71217 8.572 9.67017 8.53 9.64617 8.494C9.57417 8.386 9.53817 8.266 9.53817 8.134L9.52017 8.116C9.54417 8.32 9.56217 8.53 9.57417 8.746C9.59817 8.95 9.62217 9.154 9.64617 9.358ZM11.2482 14.092C10.9122 14.092 10.7442 13.924 10.7442 13.588V8.908C10.8522 8.8 10.9242 8.674 10.9602 8.53C11.0082 8.374 11.0442 8.218 11.0682 8.062C11.1042 7.906 11.1282 7.75 11.1402 7.594C11.1642 7.426 11.2002 7.27 11.2482 7.126C11.3802 7.306 11.4702 7.504 11.5182 7.72C11.5662 7.936 11.6442 8.14 11.7522 8.332V13.588C11.7522 13.924 11.5842 14.092 11.2482 14.092ZM10.1682 2.968L10.0962 2.932C10.1202 2.932 10.1442 2.944 10.1682 2.968ZM8.67417 4.426C8.66217 4.426 8.65617 4.432 8.65617 4.444C8.65617 4.432 8.66217 4.426 8.67417 4.426ZM10.9602 2.158V2.122C11.0082 2.038 11.0262 1.93 11.0142 1.798C11.0142 1.726 10.9842 1.66 10.9242 1.6C10.8762 1.528 10.8222 1.48 10.7622 1.456C10.6662 1.432 10.5702 1.402 10.4742 1.366C10.3782 1.318 10.2762 1.282 10.1682 1.258C10.0722 1.222 9.97617 1.21 9.88017 1.222C9.78417 1.222 9.69417 1.258 9.61017 1.33C9.46617 1.366 9.35817 1.45 9.28617 1.582C9.22617 1.714 9.20217 1.852 9.21417 1.996C9.23817 2.128 9.29217 2.248 9.37617 2.356C9.47217 2.464 9.59817 2.518 9.75417 2.518C9.86217 2.59 10.0362 2.626 10.2762 2.626C10.7322 2.626 10.9602 2.47 10.9602 2.158ZM11.4822 2.158C11.4822 2.47 11.7162 2.626 12.1842 2.626C12.5562 2.626 12.7722 2.524 12.8322 2.32H12.9402C13.0722 2.32 13.1682 2.278 13.2282 2.194C13.2882 2.098 13.3062 1.99 13.2822 1.87C13.2462 1.63 13.0362 1.468 12.6522 1.384C12.2682 1.288 11.9862 1.3 11.8062 1.42C11.6382 1.54 11.5482 1.708 11.5362 1.924C11.5002 1.996 11.4822 2.074 11.4822 2.158ZM9.77217 2.122C9.70017 2.134 9.64017 2.122 9.59217 2.086C9.54417 2.038 9.50817 1.984 9.48417 1.924C9.47217 1.864 9.47217 1.798 9.48417 1.726C9.49617 1.654 9.52017 1.594 9.55617 1.546C9.56817 1.522 9.73617 1.516 10.0602 1.528C10.3842 1.54 10.5882 1.6 10.6722 1.708C10.6842 1.732 10.6902 1.75 10.6902 1.762C10.6902 1.774 10.6962 1.792 10.7082 1.816C10.7322 1.852 10.7322 1.906 10.7082 1.978C10.6722 2.122 10.5702 2.224 10.4022 2.284C10.2342 2.332 10.0962 2.29 9.98817 2.158H9.93417C9.87417 2.158 9.83217 2.146 9.80817 2.122H9.77217ZM12.8682 1.51L13.0302 1.6C13.0542 1.612 13.0722 1.636 13.0842 1.672C13.0962 1.696 13.1022 1.72 13.1022 1.744C13.1262 1.852 13.0962 1.942 13.0122 2.014C12.9282 2.074 12.8442 2.134 12.7602 2.194C12.7002 2.17 12.6402 2.152 12.5802 2.14C12.5322 2.128 12.4842 2.104 12.4362 2.068C12.4122 2.056 12.3822 2.068 12.3462 2.104C12.3102 2.14 12.2802 2.17 12.2562 2.194C12.1842 2.266 12.1182 2.278 12.0582 2.23C11.9382 2.194 11.8602 2.128 11.8242 2.032C11.8002 1.936 11.8062 1.846 11.8422 1.762C11.8782 1.666 11.9382 1.588 12.0222 1.528C12.1062 1.456 12.3882 1.45 12.8682 1.51ZM44.5289 11.032H45.6809C45.6929 11.128 45.7349 11.206 45.8069 11.266C45.8789 11.314 45.9569 11.338 46.0409 11.338C46.1849 11.338 46.3229 11.038 46.4549 10.438C46.5989 9.838 46.6709 9.352 46.6709 8.98C46.6709 8.872 46.6709 8.77 46.6709 8.674C46.6709 8.566 46.6649 8.464 46.6529 8.368C46.6289 8.188 46.5509 8.056 46.4189 7.972C46.2989 7.876 46.1609 7.828 46.0049 7.828L45.2849 7.954C45.0329 7.954 44.7809 8.002 44.5289 8.098V5.596H46.9589L47.0129 5.74L47.2469 5.812C47.2589 5.812 47.2649 5.818 47.2649 5.83C47.2769 5.83 47.2949 5.83 47.3189 5.83C47.4389 5.83 47.5349 5.794 47.6069 5.722C47.7029 5.65 47.7689 5.566 47.8049 5.47C47.8409 5.374 47.8649 4.726 47.8769 3.526C47.8769 3.394 47.8529 3.268 47.8049 3.148C47.7689 3.016 47.6849 2.902 47.5529 2.806C47.4329 2.782 47.3369 2.77 47.2649 2.77L46.3829 2.86C46.2509 2.86 46.1309 2.836 46.0229 2.788C45.8669 2.776 45.5609 2.764 45.1049 2.752L43.8449 2.77C43.6049 2.77 43.3709 2.764 43.1429 2.752C42.9149 2.74 42.6929 2.716 42.4769 2.68C42.1529 2.704 41.9489 2.83 41.8649 3.058C41.7809 3.274 41.7389 3.52 41.7389 3.796L41.7569 4.354C41.7209 5.23 41.7029 5.812 41.7029 6.1C41.7509 6.916 41.8049 7.462 41.8649 7.738C41.9009 7.906 41.9909 8.002 42.1349 8.026V16.468H47.1929C47.2529 16.516 47.3309 16.54 47.4269 16.54C47.6189 16.54 47.7629 16.246 47.8589 15.658C47.9549 15.07 48.0029 14.674 48.0029 14.47C48.0029 14.326 47.9849 14.182 47.9489 14.038C47.9129 13.894 47.8469 13.756 47.7509 13.624C47.5469 13.54 47.3429 13.486 47.1389 13.462C46.9349 13.426 46.7309 13.408 46.5269 13.408C46.1909 13.408 45.8549 13.438 45.5189 13.498C45.1829 13.546 44.8529 13.594 44.5289 13.642V11.032ZM42.0269 7.432V6.748C41.9909 6.568 41.9789 6.154 41.9909 5.506C42.0149 4.846 42.0329 4.186 42.0449 3.526V3.49C42.0449 3.43 42.0629 3.37 42.0989 3.31C42.1349 3.25 42.1769 3.208 42.2249 3.184C42.3809 3.088 42.5369 3.022 42.6929 2.986C43.1009 3.01 43.5029 3.052 43.8989 3.112C44.3069 3.172 44.7149 3.202 45.1229 3.202C45.4469 3.202 45.7829 3.166 46.1309 3.094C46.2389 3.118 46.3529 3.13 46.4729 3.13C46.5929 3.13 46.7069 3.136 46.8149 3.148C46.9349 3.148 47.0489 3.16 47.1569 3.184C47.2769 3.208 47.3849 3.262 47.4809 3.346C47.5289 3.37 47.5649 3.412 47.5889 3.472C47.6249 3.532 47.6429 3.592 47.6429 3.652V3.688C47.5829 4.168 47.5589 4.558 47.5709 4.858C47.5829 5.146 47.5469 5.32 47.4629 5.38C47.3909 5.44 47.3069 5.47 47.2109 5.47C47.1509 5.47 47.0909 5.452 47.0309 5.416C46.9709 5.38 46.9289 5.326 46.9049 5.254C46.8689 5.146 46.8389 5.038 46.8149 4.93C46.7909 4.81 46.7489 4.696 46.6889 4.588C46.6169 4.66 46.5269 4.696 46.4189 4.696C46.2749 4.696 46.1729 4.63 46.1129 4.498L46.0949 4.426C46.0349 4.594 45.9269 4.678 45.7709 4.678C45.6149 4.678 45.5189 4.702 45.4829 4.75C45.4469 4.786 45.4109 4.816 45.3749 4.84C45.3029 4.9 45.2249 4.942 45.1409 4.966C45.0689 4.99 44.9969 5.002 44.9249 5.002C44.7809 5.002 44.6429 4.966 44.5109 4.894C44.3909 4.81 44.2949 4.702 44.2229 4.57C44.1629 4.582 44.0729 4.612 43.9529 4.66C43.9049 5.176 43.8749 5.692 43.8629 6.208C43.8629 6.712 43.8329 7.222 43.7729 7.738C43.7609 7.858 43.7189 7.942 43.6469 7.99C43.5749 8.038 43.4969 8.062 43.4129 8.062C43.3169 8.062 43.0949 7.87 42.7469 7.486C42.5909 7.702 42.4709 7.81 42.3869 7.81C42.2909 7.81 42.2069 7.78 42.1349 7.72C42.0629 7.66 42.0269 7.564 42.0269 7.432ZM44.6009 14.11C44.6129 14.038 44.6429 13.978 44.6909 13.93C44.7509 13.87 45.1349 13.81 45.8429 13.75C46.5629 13.69 47.0249 13.69 47.2289 13.75C47.4689 13.81 47.6249 13.93 47.6969 14.11C47.7809 14.278 47.8229 14.47 47.8229 14.686C47.6189 15.586 47.4689 16.036 47.3729 16.036C47.3009 16.036 47.2289 16.018 47.1569 15.982C47.0969 15.934 47.0549 15.868 47.0309 15.784C46.9829 15.652 46.9469 15.52 46.9229 15.388C46.8989 15.256 46.8689 15.124 46.8329 14.992C46.7729 14.992 46.7069 14.974 46.6349 14.938H46.3829C46.2869 14.878 46.2029 14.842 46.1309 14.83C46.1189 14.83 46.1069 14.836 46.0949 14.848C46.0709 14.968 46.0049 15.088 45.8969 15.208C45.8009 15.328 45.6509 15.382 45.4469 15.37C45.2549 15.358 45.1289 15.286 45.0689 15.154C45.0089 15.01 44.9489 14.872 44.8889 14.74C44.8529 14.728 44.7989 14.698 44.7269 14.65C44.5949 14.59 44.5289 14.488 44.5289 14.344C44.5289 14.248 44.5529 14.17 44.6009 14.11ZM44.5289 8.278C45.2729 8.242 45.6989 8.182 45.8069 8.098C45.8909 8.134 45.9749 8.146 46.0589 8.134C46.1549 8.122 46.2329 8.152 46.2929 8.224C46.3289 8.248 46.3649 8.296 46.4009 8.368C46.4369 8.428 46.4549 8.482 46.4549 8.53C46.4789 8.746 46.4969 8.968 46.5089 9.196C46.5329 9.412 46.4129 9.946 46.1489 10.798C46.0649 10.798 45.9869 10.78 45.9149 10.744C45.8549 10.696 45.8129 10.624 45.7889 10.528C45.7409 10.408 45.7109 10.282 45.6989 10.15C45.6989 10.018 45.6929 9.886 45.6809 9.754C45.6209 9.79 45.5609 9.808 45.5009 9.808C45.3689 9.808 45.0569 9.628 44.5649 9.268C44.2889 8.752 44.1809 8.458 44.2409 8.386C44.3009 8.314 44.3969 8.278 44.5289 8.278ZM44.6729 9.304C44.6849 9.304 44.6969 9.298 44.7089 9.286C44.6969 9.286 44.6909 9.28 44.6909 9.268H44.6369L44.6729 9.304ZM71.5043 6.82C71.4803 6.832 71.4623 6.838 71.4503 6.838C71.4383 6.838 71.4203 6.844 71.3963 6.856L71.1083 4.786C71.2403 4.594 71.3243 4.372 71.3603 4.12C71.4083 3.856 71.3963 3.61 71.3243 3.382C71.2643 3.142 71.1503 2.944 70.9823 2.788C70.8263 2.62 70.6163 2.536 70.3523 2.536C70.1723 2.5 69.9863 2.488 69.7943 2.5C69.6023 2.512 69.4283 2.53 69.2723 2.554C69.1403 2.542 69.0083 2.542 68.8763 2.554C68.7563 2.566 68.6363 2.602 68.5163 2.662C68.3963 2.614 68.2763 2.62 68.1563 2.68C68.0363 2.74 67.9883 2.854 68.0123 3.022C68.0363 3.43 68.0543 3.85 68.0663 4.282C68.0783 4.702 68.1083 5.122 68.1563 5.542C68.2043 5.962 68.2823 6.37 68.3903 6.766C68.4983 7.162 68.6603 7.534 68.8763 7.882C68.8643 8.122 68.8643 8.374 68.8763 8.638C68.9003 8.89 69.0083 9.112 69.2003 9.304C69.2363 9.376 69.2963 9.424 69.3803 9.448L70.3703 16.468H72.5483L73.9703 6.604C74.1383 6.484 74.2583 6.328 74.3303 6.136C74.4023 5.944 74.4623 5.626 74.5103 5.182C74.5703 4.738 74.6363 4.42 74.7083 4.228C74.7203 4.144 74.7443 4.066 74.7803 3.994C74.8163 3.91 74.8463 3.826 74.8703 3.742C74.8943 3.658 74.9063 3.58 74.9063 3.508C74.9183 3.424 74.9003 3.334 74.8523 3.238C74.8043 3.19 74.7683 3.136 74.7443 3.076C74.7323 3.004 74.7143 2.938 74.6903 2.878C74.3783 2.734 74.0423 2.674 73.6823 2.698C73.4783 2.614 73.2623 2.572 73.0343 2.572C72.8063 2.572 72.5903 2.614 72.3863 2.698C72.1943 2.782 72.0323 2.908 71.9003 3.076C71.7803 3.232 71.7263 3.43 71.7383 3.67C71.6783 3.97 71.6603 4.276 71.6843 4.588C71.7083 4.888 71.7323 5.188 71.7563 5.488L71.5583 6.82H71.5043ZM71.9903 4.228C71.9423 4.072 71.9663 3.952 72.0623 3.868C72.0263 3.616 72.0743 3.376 72.2063 3.148C72.2903 2.968 72.4103 2.896 72.5663 2.932C72.7343 2.968 72.9623 2.992 73.2503 3.004C73.5503 3.016 73.7363 3.016 73.8083 3.004C73.9883 2.992 74.1323 3.028 74.2403 3.112C74.3603 3.184 74.4503 3.286 74.5103 3.418C74.5823 3.55 74.6183 3.694 74.6183 3.85C74.6183 4.006 74.5943 4.15 74.5463 4.282C74.4143 4.39 74.3003 4.75 74.2043 5.362C74.1203 5.962 73.9523 6.238 73.7003 6.19C73.4603 6.142 73.3103 6.094 73.2503 6.046V6.118C73.2743 6.25 73.2563 6.634 73.1963 7.27C73.1483 7.906 73.1123 8.362 73.0883 8.638C73.0763 8.746 73.0343 8.83 72.9623 8.89C72.8903 8.938 72.8123 8.962 72.7283 8.962C72.3923 9.67 72.0383 9.67 71.6663 8.962C71.2943 8.242 71.0723 8.194 71.0003 8.818C70.9283 9.442 70.8443 9.868 70.7483 10.096C70.6643 10.312 70.5743 10.414 70.4783 10.402C70.3943 10.39 70.3223 10.216 70.2623 9.88C70.2023 9.532 70.1663 9.286 70.1543 9.142L69.8123 8.998C69.4403 9.226 69.2423 9.154 69.2183 8.782C69.1943 8.398 69.1883 8.17 69.2003 8.098C69.2123 8.014 69.2243 7.93 69.2363 7.846C69.2483 7.762 69.2363 7.684 69.2003 7.612C69.0563 7.192 68.9123 6.772 68.7683 6.352C68.6363 5.932 68.5463 5.494 68.4983 5.038C68.4143 5.002 68.3723 4.93 68.3723 4.822C68.3243 4.582 68.3123 4.336 68.3363 4.084C68.3603 3.82 68.3483 3.568 68.3003 3.328C68.2883 3.232 68.3003 3.154 68.3363 3.094C68.3843 3.034 68.4383 2.992 68.4983 2.968C68.5703 2.932 68.6423 2.926 68.7143 2.95C68.7983 2.962 68.8643 2.992 68.9123 3.04C69.0563 2.968 69.3443 2.932 69.7763 2.932C70.2203 2.932 70.5023 2.968 70.6223 3.04C70.7543 3.1 70.8563 3.196 70.9283 3.328C71.0003 3.448 71.0363 3.586 71.0363 3.742C71.0483 3.886 71.0183 4.024 70.9463 4.156C70.8503 4.276 70.7963 4.402 70.7843 4.534C70.7843 4.666 70.7903 4.804 70.8023 4.948C70.8263 5.08 70.8443 5.218 70.8563 5.362C70.8683 5.506 70.8503 5.644 70.8023 5.776C70.8143 6.004 70.8383 6.226 70.8743 6.442C70.9103 6.646 70.9883 6.844 71.1083 7.036C71.2283 7.228 71.2943 7.348 71.3063 7.396C71.3423 7.396 71.3783 7.396 71.4143 7.396C71.4623 7.396 71.5103 7.372 71.5583 7.324C71.6183 7.276 71.6843 7.192 71.7563 7.072C71.8403 6.94 71.8883 6.838 71.9003 6.766C71.9243 6.682 71.9483 6.598 71.9723 6.514C71.8883 6.43 71.8643 6.328 71.9003 6.208C71.9363 5.884 71.9903 5.554 72.0623 5.218C72.1343 4.882 72.1103 4.552 71.9903 4.228Z" fill="#6DC5E0"/>
<path d="M21.5993 11.662C21.5993 11.074 21.3413 10.474 20.8253 9.862C21.3413 9.274 21.5993 8.662 21.5993 8.026V7.432C21.6233 7.36 21.6413 7.288 21.6533 7.216C21.6773 7.144 21.7073 7.072 21.7433 7C21.6593 6.736 21.6293 6.46 21.6533 6.172C21.6893 5.872 21.7133 5.578 21.7253 5.29C21.7373 5.002 21.7073 4.726 21.6353 4.462C21.5753 4.198 21.4133 3.976 21.1493 3.796C21.0653 3.736 20.9873 3.682 20.9153 3.634C20.8433 3.574 20.7653 3.52 20.6813 3.472C20.6333 3.424 20.6033 3.382 20.5913 3.346C20.5433 3.286 20.4713 3.244 20.3753 3.22C20.3633 3.208 20.3513 3.202 20.3393 3.202C20.3273 3.19 20.3153 3.178 20.3033 3.166C20.0993 3.094 19.9073 2.998 19.7273 2.878C19.5593 2.746 19.3793 2.62 19.1873 2.5C19.0073 2.38 18.8153 2.29 18.6113 2.23C18.4193 2.17 18.2093 2.176 17.9813 2.248C17.7173 2.236 17.4593 2.26 17.2073 2.32C16.9673 2.368 16.7273 2.434 16.4873 2.518C16.4753 2.53 16.4633 2.536 16.4513 2.536C16.3553 2.452 16.2533 2.422 16.1453 2.446C16.0493 2.458 15.9713 2.506 15.9113 2.59C15.8393 2.59 15.7913 2.596 15.7673 2.608C15.7193 2.62 15.6653 2.65 15.6053 2.698C15.5573 2.734 15.5213 2.776 15.4973 2.824C15.3893 3.016 15.3113 3.22 15.2633 3.436C15.2273 3.64 15.2153 3.85 15.2273 4.066C15.2393 4.282 15.2693 4.498 15.3173 4.714C15.3653 4.918 15.4193 5.116 15.4793 5.308C15.4553 5.92 15.4373 6.526 15.4253 7.126C15.4133 7.726 15.3773 8.326 15.3173 8.926C15.3413 9.07 15.3953 9.202 15.4793 9.322C15.5753 9.43 15.6833 9.526 15.8033 9.61V16.468H18.1973V11.05C18.8693 11.05 19.2053 11.326 19.2053 11.878V16.468H21.5993V11.662ZM15.7493 3.382C15.8933 3.142 16.0733 2.992 16.2893 2.932C16.5053 2.86 16.7333 2.824 16.9733 2.824C17.2253 2.812 17.4713 2.8 17.7113 2.788C17.9513 2.776 18.1733 2.704 18.3773 2.572C18.5813 2.512 18.7433 2.554 18.8633 2.698C18.9833 2.842 19.0913 2.986 19.1873 3.13C19.1873 3.154 19.1933 3.178 19.2053 3.202C19.2173 3.226 19.2233 3.238 19.2233 3.238C19.2473 3.262 19.2653 3.274 19.2773 3.274C19.2893 3.286 19.3133 3.292 19.3493 3.292C19.5053 3.424 19.6733 3.538 19.8533 3.634C20.0453 3.73 20.2313 3.832 20.4113 3.94C20.5913 4.048 20.7593 4.174 20.9153 4.318C21.0713 4.45 21.1913 4.612 21.2753 4.804C21.3833 4.84 21.4553 4.924 21.4913 5.056C21.5273 5.356 21.5573 5.674 21.5813 6.01C21.6053 6.346 21.5213 6.64 21.3293 6.892C21.2213 7.012 21.1013 7.054 20.9693 7.018C20.8973 7.162 20.8493 7.318 20.8253 7.486C20.8013 7.654 20.7773 7.822 20.7533 7.99C20.7293 8.146 20.6873 8.296 20.6273 8.44C20.5793 8.584 20.4833 8.71 20.3393 8.818C20.2073 8.926 20.0633 8.938 19.9073 8.854C19.8833 8.842 19.8653 8.836 19.8533 8.836C19.8533 8.824 19.8413 8.812 19.8173 8.8C19.7693 8.776 19.7213 8.734 19.6733 8.674C19.6373 8.602 19.6193 8.536 19.6193 8.476C19.6193 8.032 19.6133 7.588 19.6013 7.144C19.5893 6.7 19.5533 6.262 19.4933 5.83C19.3253 5.926 19.1633 6.046 19.0073 6.19C18.8513 6.322 18.6833 6.424 18.5033 6.496C18.4073 6.556 18.3113 6.58 18.2153 6.568C18.1313 6.556 18.0473 6.526 17.9633 6.478C17.8913 6.61 17.8373 6.754 17.8013 6.91C17.7773 7.066 17.7593 7.222 17.7473 7.378C17.7353 7.534 17.7173 7.69 17.6933 7.846C17.6813 7.99 17.6453 8.134 17.5853 8.278C17.5613 8.338 17.5313 8.386 17.4953 8.422C17.4593 9.346 17.4413 10.264 17.4413 11.176C17.4413 11.308 17.3993 11.404 17.3153 11.464C17.2433 11.524 17.1593 11.554 17.0633 11.554C16.9793 11.554 16.9013 11.524 16.8293 11.464C16.7573 11.404 16.7213 11.308 16.7213 11.176C16.7213 10.852 16.7213 10.522 16.7213 10.186C16.7213 9.85 16.7273 9.514 16.7393 9.178C16.6913 9.166 16.6193 9.16 16.5233 9.16C16.4873 9.208 16.4513 9.25 16.4153 9.286C16.3793 9.322 16.3433 9.358 16.3073 9.394C16.2353 9.466 16.1513 9.502 16.0553 9.502C15.9593 9.502 15.8753 9.466 15.8033 9.394C15.7313 9.346 15.6773 9.286 15.6413 9.214C15.6173 9.142 15.5993 9.064 15.5873 8.98C15.4913 8.884 15.4613 8.77 15.4973 8.638C15.5333 8.398 15.5753 8.164 15.6233 7.936C15.6713 7.696 15.7133 7.456 15.7493 7.216C15.7253 6.568 15.7013 5.926 15.6773 5.29C15.6533 4.642 15.6773 4.006 15.7493 3.382ZM19.2053 7.81C19.2053 8.002 19.1333 8.188 18.9893 8.368C18.8573 8.548 18.6953 8.638 18.5033 8.638H18.1973V6.802L18.2693 6.73C18.4373 6.79 18.5993 6.79 18.7553 6.73C18.9233 6.658 19.0733 6.556 19.2053 6.424V7.81ZM20.8613 6.982C20.8613 6.97 20.8553 6.964 20.8433 6.964C20.8433 6.976 20.8433 6.982 20.8433 6.982C20.8553 6.982 20.8613 6.982 20.8613 6.982ZM67.0212 13.588V6.802C67.1292 6.742 67.1892 6.658 67.2012 6.55C67.2252 6.406 67.2432 6.262 67.2552 6.118C67.2672 5.962 67.2732 5.8 67.2732 5.632C67.2732 5.152 67.2012 4.684 67.0572 4.228C66.9132 3.76 66.6612 3.37 66.3012 3.058L64.9692 2.752C64.8612 2.752 64.7532 2.758 64.6452 2.77C64.5492 2.77 64.4112 2.758 64.2312 2.734C64.0632 2.698 63.8712 2.668 63.6552 2.644C63.4392 2.608 63.1512 2.59 62.7912 2.59C62.7312 2.59 62.6112 2.578 62.4312 2.554C62.2632 2.518 62.1312 2.5 62.0352 2.5H61.9272C61.8192 2.5 61.6452 2.53 61.4052 2.59C61.1652 2.638 61.0092 2.692 60.9372 2.752C60.8772 2.812 60.8472 2.902 60.8472 3.022C60.8352 3.154 60.8232 3.286 60.8112 3.418C60.8112 3.55 60.8052 3.736 60.7932 3.976C60.7812 4.216 60.7752 4.504 60.7752 4.84C60.8232 5.644 60.8652 6.148 60.9012 6.352C60.9132 6.448 60.9492 6.52 61.0092 6.568C61.0692 6.604 61.1412 6.622 61.2252 6.622V16.468H64.3032C65.0952 16.468 65.7432 16.192 66.2472 15.64C66.7632 15.076 67.0212 14.392 67.0212 13.588ZM60.9912 5.992C61.0152 5.524 61.0452 5.056 61.0812 4.588C61.1292 4.108 61.1832 3.634 61.2432 3.166C61.2552 3.094 61.3632 2.992 61.5672 2.86C61.6392 2.836 61.7772 2.818 61.9812 2.806C62.1852 2.794 62.4192 2.794 62.6832 2.806C62.9472 2.818 63.2172 2.824 63.4932 2.824L64.4292 2.968C64.5852 2.956 64.7352 2.938 64.8792 2.914C65.0352 2.878 65.3412 2.95 65.7972 3.13C66.2652 3.31 66.5832 3.64 66.7512 4.12C66.9192 4.6 67.0032 5.092 67.0032 5.596C67.0032 5.8 66.9912 5.998 66.9672 6.19C66.9432 6.37 66.9132 6.55 66.8772 6.73C66.8292 6.922 66.7092 7.018 66.5172 7.018H66.4272C66.4032 7.318 66.3852 7.618 66.3732 7.918C66.3732 8.218 66.3672 8.524 66.3552 8.836C66.3552 8.968 66.2712 9.064 66.1032 9.124C65.9352 9.172 65.8152 9.166 65.7432 9.106C65.6712 9.046 65.5752 8.62 65.4552 7.828C65.4192 7.684 65.4012 7.528 65.4012 7.36C65.3052 7.408 65.2272 7.432 65.1672 7.432C65.0712 7.432 64.9512 7.234 64.8072 6.838C64.8072 6.682 64.8132 6.526 64.8252 6.37C64.8372 6.214 64.8612 6.058 64.8972 5.902V5.128C64.8132 5.068 64.7352 5.014 64.6632 4.966C64.5912 4.906 64.5192 4.846 64.4472 4.786C64.4112 4.906 64.3692 4.996 64.3212 5.056C64.2492 5.164 64.1472 5.218 64.0152 5.218C63.9192 5.218 63.8352 5.188 63.7632 5.128C63.6912 5.056 63.6552 4.966 63.6552 4.858V4.804C63.6552 4.78 63.6552 4.762 63.6552 4.75C63.6672 4.726 63.6732 4.702 63.6732 4.678C63.6372 4.774 63.5952 4.852 63.5472 4.912C63.5232 5.548 63.4872 6.178 63.4392 6.802C63.4032 7.426 63.3432 8.05 63.2592 8.674C63.2352 8.794 63.1872 8.878 63.1152 8.926C63.0432 8.974 62.9652 8.998 62.8812 8.998C62.7852 8.998 62.6652 8.884 62.5212 8.656V8.602C62.5212 8.566 62.5212 8.53 62.5212 8.494C62.5332 8.458 62.5452 8.416 62.5572 8.368H62.4852C62.4012 8.368 62.3232 8.35 62.2512 8.314C62.1912 8.266 62.1552 8.194 62.1432 8.098C62.1192 7.882 62.0952 7.666 62.0712 7.45C62.0472 7.222 62.0232 6.994 61.9992 6.766C61.8912 6.766 61.7952 6.724 61.7112 6.64C61.6512 6.616 61.5912 6.586 61.5312 6.55C61.4832 6.502 61.4592 6.442 61.4592 6.37C61.4352 6.382 61.3932 6.388 61.3332 6.388C61.2372 6.388 61.1532 6.358 61.0812 6.298C61.0212 6.226 60.9912 6.136 60.9912 6.028V5.992ZM63.6192 5.596H64.1232C64.4592 5.596 64.6272 5.764 64.6272 6.1V13.336C64.4952 13.168 64.3272 13.084 64.1232 13.084C63.9672 13.084 63.8232 13.144 63.6912 13.264C63.6672 13.276 63.6432 13.294 63.6192 13.318V5.596ZM63.5292 13.66C63.6612 13.504 63.8412 13.426 64.0692 13.426C64.1652 13.426 64.2552 13.45 64.3392 13.498C64.4352 13.546 64.5072 13.618 64.5552 13.714C64.6272 13.786 64.6512 14.326 64.6272 15.334C64.6272 15.466 64.5912 15.562 64.5192 15.622C64.4472 15.682 64.3632 15.712 64.2672 15.712C64.1712 15.712 64.0872 15.682 64.0152 15.622C63.9432 15.562 63.9072 15.466 63.9072 15.334V14.614C63.8352 14.59 63.7692 14.554 63.7092 14.506C63.6612 14.446 63.6252 14.386 63.6012 14.326C63.4332 13.966 63.4092 13.744 63.5292 13.66ZM89.7037 2.77C89.6317 3.298 89.5837 3.826 89.5597 4.354C89.5357 4.882 89.5717 5.41 89.6677 5.938C89.6797 5.986 89.7097 6.04 89.7577 6.1C89.8057 6.148 89.8537 6.184 89.9017 6.208C89.9857 6.256 90.0697 6.28 90.1537 6.28C90.3217 6.28 90.4657 6.22 90.5857 6.1C90.7177 5.968 90.8137 5.854 90.8737 5.758C90.9577 5.71 91.0657 5.656 91.1977 5.596H91.3057V16.468H93.6997V5.704C93.7957 5.812 93.8917 5.902 93.9877 5.974C94.0957 6.046 94.2157 6.082 94.3477 6.082H94.4377L94.4197 6.046C94.4197 6.046 94.4317 6.058 94.4557 6.082C94.4797 6.106 94.5037 6.124 94.5277 6.136C94.5637 6.148 94.5937 6.166 94.6177 6.19C94.6897 6.262 94.7737 6.298 94.8697 6.298C94.9777 6.298 95.0677 6.256 95.1397 6.172C95.2477 6.088 95.3197 6.004 95.3557 5.92C95.3917 5.824 95.4097 5.722 95.4097 5.614C95.4097 5.23 95.4097 4.924 95.4097 4.696C95.4097 4.468 95.4097 4.294 95.4097 4.174C95.4097 4.054 95.4097 3.976 95.4097 3.94C95.4217 3.892 95.4277 3.85 95.4277 3.814C95.4277 3.706 95.4337 3.592 95.4457 3.472C95.4577 3.352 95.4457 3.226 95.4097 3.094C95.3857 2.962 95.3557 2.932 95.3197 3.004C95.2837 3.064 95.2657 3.088 95.2657 3.076C95.0977 2.932 94.4977 2.836 93.4657 2.788C92.4337 2.74 91.7857 2.698 91.5217 2.662C91.2697 2.626 91.0777 2.602 90.9457 2.59C90.8137 2.578 90.7237 2.572 90.6757 2.572C90.6277 2.56 90.5917 2.554 90.5677 2.554L90.3337 2.572C90.2617 2.488 90.1657 2.446 90.0457 2.446C89.9617 2.446 89.8837 2.476 89.8117 2.536C89.7517 2.584 89.7157 2.662 89.7037 2.77ZM90.8197 5.146L90.7297 5.2C90.6337 5.356 90.4837 5.452 90.2797 5.488C90.2437 5.5 90.1957 5.506 90.1357 5.506C89.9437 5.506 89.8297 5.398 89.7937 5.182C89.7697 4.882 89.7577 4.588 89.7577 4.3C89.7577 4.012 89.7817 3.718 89.8297 3.418C89.8417 3.262 89.9257 3.16 90.0817 3.112C90.1417 3.052 90.2197 3.016 90.3157 3.004C90.7717 3.076 91.5937 3.142 92.7817 3.202C93.9817 3.262 94.6237 3.292 94.7077 3.292C94.8637 3.292 94.9777 3.376 95.0497 3.544C95.1097 3.688 95.1397 3.82 95.1397 3.94C95.0917 4.324 95.0437 4.63 94.9957 4.858C94.9597 5.074 94.9177 5.236 94.8697 5.344C94.8217 5.452 94.7737 5.524 94.7257 5.56C94.6897 5.584 94.6477 5.596 94.5997 5.596C94.5517 5.596 94.5157 5.59 94.4917 5.578C94.4197 5.65 94.3297 5.686 94.2217 5.686C94.0897 5.686 93.9877 5.626 93.9157 5.506C93.8797 5.47 93.8497 5.434 93.8257 5.398C93.8137 5.362 93.7957 5.326 93.7717 5.29L93.5917 5.344C93.4957 5.476 93.3937 5.542 93.2857 5.542L93.2137 5.524C93.2257 5.704 93.2317 5.884 93.2317 6.064C93.2437 6.244 93.2497 6.424 93.2497 6.604C93.2497 7.288 93.2257 7.96 93.1777 8.62C93.1417 9.28 93.1237 9.952 93.1237 10.636V11.086C92.8597 11.614 92.6197 11.614 92.4037 11.086V10.492C92.4037 9.916 92.4217 9.328 92.4577 8.728C92.4217 8.752 92.3677 8.764 92.2957 8.764C92.0557 8.884 91.8817 8.722 91.7737 8.278L91.8457 6.19C91.8457 5.89 91.8277 5.596 91.7917 5.308C91.7317 5.308 91.6957 5.302 91.6837 5.29C91.5877 5.266 91.5037 5.23 91.4317 5.182C91.3597 5.134 91.3117 5.062 91.2877 4.966C91.2877 4.966 91.2517 4.972 91.1797 4.984C91.1077 4.984 91.0537 4.996 91.0177 5.02C91.0177 5.008 90.9877 5.02 90.9277 5.056C90.8797 5.092 90.8437 5.122 90.8197 5.146ZM94.5277 6.046L94.4557 6.082C94.4557 6.082 94.4797 6.07 94.5277 6.046ZM113.076 13.588V8.422C113.1 8.398 113.112 8.374 113.112 8.35C113.124 8.326 113.142 8.302 113.166 8.278C113.31 7.966 113.394 7.642 113.418 7.306C113.454 6.97 113.448 6.634 113.4 6.298C113.364 5.95 113.298 5.608 113.202 5.272C113.118 4.936 113.034 4.612 112.95 4.3C112.854 4.216 112.752 4.15 112.644 4.102C112.536 4.042 112.47 3.946 112.446 3.814C112.386 3.682 112.308 3.562 112.212 3.454C112.116 3.334 112.032 3.208 111.96 3.076C111.936 3.028 111.888 2.986 111.816 2.95C111.756 2.914 111.702 2.896 111.654 2.896C111.39 2.848 111.114 2.794 110.826 2.734C110.538 2.662 110.25 2.62 109.962 2.608C109.686 2.596 109.416 2.632 109.152 2.716C108.888 2.788 108.642 2.938 108.414 3.166C107.982 3.406 107.646 3.718 107.406 4.102C107.166 4.486 106.992 4.9 106.884 5.344C106.788 5.788 106.752 6.25 106.776 6.73C106.8 7.198 106.866 7.636 106.974 8.044L106.956 8.314C106.944 8.446 106.968 8.548 107.028 8.62C107.1 8.68 107.184 8.71 107.28 8.71V13.588C107.28 14.392 107.562 15.076 108.126 15.64C108.69 16.192 109.374 16.468 110.178 16.468C110.97 16.468 111.648 16.192 112.212 15.64C112.788 15.076 113.076 14.392 113.076 13.588ZM107.208 5.02C107.208 4.876 107.262 4.774 107.37 4.714C107.406 4.594 107.472 4.48 107.568 4.372C107.664 4.264 107.766 4.168 107.874 4.084C107.994 3.988 108.114 3.898 108.234 3.814C108.366 3.73 108.486 3.652 108.594 3.58C108.81 3.484 109.008 3.37 109.188 3.238C109.38 3.094 109.578 2.962 109.782 2.842C109.902 2.878 110.028 2.902 110.16 2.914C110.292 2.926 110.418 2.938 110.538 2.95C110.67 2.962 110.796 2.986 110.916 3.022C111.048 3.046 111.168 3.1 111.276 3.184C111.36 3.304 111.462 3.412 111.582 3.508C111.702 3.592 111.816 3.682 111.924 3.778C112.044 3.862 112.146 3.964 112.23 4.084C112.326 4.192 112.38 4.324 112.392 4.48C112.608 4.648 112.758 4.87 112.842 5.146C112.926 5.41 112.98 5.674 113.004 5.938C113.04 6.154 113.064 6.394 113.076 6.658C113.088 6.91 113.064 7.156 113.004 7.396C112.956 7.624 112.86 7.834 112.716 8.026C112.572 8.206 112.368 8.332 112.104 8.404C112.032 8.428 111.954 8.422 111.87 8.386C111.786 8.35 111.726 8.296 111.69 8.224C111.618 8.14 111.582 8.038 111.582 7.918C111.522 7.918 111.462 7.9 111.402 7.864C111.342 7.816 111.3 7.762 111.276 7.702C111.18 7.558 111.126 7.408 111.114 7.252C111.102 7.096 111.084 6.934 111.06 6.766C111.06 6.826 111.054 6.838 111.042 6.802C111.042 6.766 111.036 6.736 111.024 6.712C110.856 6.652 110.766 6.55 110.754 6.406C110.742 6.262 110.724 6.118 110.7 5.974C110.604 6.106 110.478 6.214 110.322 6.298C110.166 6.37 110.004 6.34 109.836 6.208C109.788 6.184 109.74 6.148 109.692 6.1C109.656 6.04 109.632 5.986 109.62 5.938C109.62 5.938 109.614 5.932 109.602 5.92C109.602 5.908 109.602 5.896 109.602 5.884C109.446 5.896 109.326 5.95 109.242 6.046C109.158 6.13 109.074 6.226 108.99 6.334C108.93 6.946 108.906 7.552 108.918 8.152C108.93 8.74 108.954 9.34 108.99 9.952C108.99 10.084 108.954 10.186 108.882 10.258C108.81 10.318 108.726 10.348 108.63 10.348C108.546 10.348 108.462 10.324 108.378 10.276C108.306 10.216 108.27 10.12 108.27 9.988C108.246 9.604 108.222 9.226 108.198 8.854C108.186 8.482 108.186 8.104 108.198 7.72C108.138 7.9 108.03 8.05 107.874 8.17C107.778 8.266 107.664 8.302 107.532 8.278C107.412 8.242 107.328 8.158 107.28 8.026C107.184 7.786 107.124 7.54 107.1 7.288C107.088 7.036 107.088 6.784 107.1 6.532C107.112 6.28 107.13 6.028 107.154 5.776C107.19 5.524 107.208 5.272 107.208 5.02ZM109.674 6.946C109.734 6.802 109.776 6.634 109.8 6.442C109.824 6.442 109.842 6.448 109.854 6.46C109.866 6.46 109.884 6.46 109.908 6.46V6.55C109.908 6.646 109.938 6.724 109.998 6.784C110.07 6.832 110.148 6.862 110.232 6.874C110.328 6.886 110.412 6.868 110.484 6.82C110.556 6.772 110.604 6.7 110.628 6.604C110.64 6.556 110.646 6.496 110.646 6.424C110.658 6.352 110.67 6.28 110.682 6.208V13.174C110.658 13.126 110.61 13.084 110.538 13.048C110.478 13 110.418 12.976 110.358 12.976C110.19 12.952 110.052 12.976 109.944 13.048C109.836 13.108 109.746 13.192 109.674 13.3V6.946ZM110.682 13.264C110.694 13.276 110.706 13.288 110.718 13.3C110.73 13.3 110.742 13.306 110.754 13.318C110.886 13.318 110.994 13.372 111.078 13.48C111.162 13.588 111.168 13.714 111.096 13.858C111.072 13.882 111.03 13.942 110.97 14.038C110.922 14.122 110.868 14.194 110.808 14.254L110.79 14.272C110.802 14.416 110.808 14.56 110.808 14.704C110.82 14.836 110.82 14.974 110.808 15.118C110.808 15.25 110.766 15.346 110.682 15.406C110.61 15.466 110.526 15.496 110.43 15.496C110.346 15.496 110.268 15.466 110.196 15.406C110.124 15.346 110.088 15.25 110.088 15.118C110.088 15.01 110.088 14.902 110.088 14.794C110.088 14.686 110.082 14.578 110.07 14.47C110.046 14.47 110.028 14.476 110.016 14.488C110.004 14.488 109.986 14.488 109.962 14.488C109.878 14.512 109.794 14.506 109.71 14.47C109.626 14.422 109.566 14.356 109.53 14.272C109.458 14.116 109.446 13.954 109.494 13.786C109.554 13.618 109.644 13.48 109.764 13.372C109.896 13.252 110.046 13.18 110.214 13.156C110.382 13.12 110.538 13.156 110.682 13.264ZM128.07 13.588V8.422C128.094 8.398 128.106 8.374 128.106 8.35C128.118 8.326 128.136 8.302 128.16 8.278C128.304 7.966 128.388 7.642 128.412 7.306C128.448 6.97 128.442 6.634 128.394 6.298C128.358 5.95 128.292 5.608 128.196 5.272C128.112 4.936 128.028 4.612 127.944 4.3C127.848 4.216 127.746 4.15 127.638 4.102C127.53 4.042 127.464 3.946 127.44 3.814C127.38 3.682 127.302 3.562 127.206 3.454C127.11 3.334 127.026 3.208 126.954 3.076C126.93 3.028 126.882 2.986 126.81 2.95C126.75 2.914 126.696 2.896 126.648 2.896C126.384 2.848 126.108 2.794 125.82 2.734C125.532 2.662 125.244 2.62 124.956 2.608C124.68 2.596 124.41 2.632 124.146 2.716C123.882 2.788 123.636 2.938 123.408 3.166C122.976 3.406 122.64 3.718 122.4 4.102C122.16 4.486 121.986 4.9 121.878 5.344C121.782 5.788 121.746 6.25 121.77 6.73C121.794 7.198 121.86 7.636 121.968 8.044L121.95 8.314C121.938 8.446 121.962 8.548 122.022 8.62C122.094 8.68 122.178 8.71 122.274 8.71V13.588C122.274 14.392 122.556 15.076 123.12 15.64C123.684 16.192 124.368 16.468 125.172 16.468C125.964 16.468 126.642 16.192 127.206 15.64C127.782 15.076 128.07 14.392 128.07 13.588ZM122.202 5.02C122.202 4.876 122.256 4.774 122.364 4.714C122.4 4.594 122.466 4.48 122.562 4.372C122.658 4.264 122.76 4.168 122.868 4.084C122.988 3.988 123.108 3.898 123.228 3.814C123.36 3.73 123.48 3.652 123.588 3.58C123.804 3.484 124.002 3.37 124.182 3.238C124.374 3.094 124.572 2.962 124.776 2.842C124.896 2.878 125.022 2.902 125.154 2.914C125.286 2.926 125.412 2.938 125.532 2.95C125.664 2.962 125.79 2.986 125.91 3.022C126.042 3.046 126.162 3.1 126.27 3.184C126.354 3.304 126.456 3.412 126.576 3.508C126.696 3.592 126.81 3.682 126.918 3.778C127.038 3.862 127.14 3.964 127.224 4.084C127.32 4.192 127.374 4.324 127.386 4.48C127.602 4.648 127.752 4.87 127.836 5.146C127.92 5.41 127.974 5.674 127.998 5.938C128.034 6.154 128.058 6.394 128.07 6.658C128.082 6.91 128.058 7.156 127.998 7.396C127.95 7.624 127.854 7.834 127.71 8.026C127.566 8.206 127.362 8.332 127.098 8.404C127.026 8.428 126.948 8.422 126.864 8.386C126.78 8.35 126.72 8.296 126.684 8.224C126.612 8.14 126.576 8.038 126.576 7.918C126.516 7.918 126.456 7.9 126.396 7.864C126.336 7.816 126.294 7.762 126.27 7.702C126.174 7.558 126.12 7.408 126.108 7.252C126.096 7.096 126.078 6.934 126.054 6.766C126.054 6.826 126.048 6.838 126.036 6.802C126.036 6.766 126.03 6.736 126.018 6.712C125.85 6.652 125.76 6.55 125.748 6.406C125.736 6.262 125.718 6.118 125.694 5.974C125.598 6.106 125.472 6.214 125.316 6.298C125.16 6.37 124.998 6.34 124.83 6.208C124.782 6.184 124.734 6.148 124.686 6.1C124.65 6.04 124.626 5.986 124.614 5.938C124.614 5.938 124.608 5.932 124.596 5.92C124.596 5.908 124.596 5.896 124.596 5.884C124.44 5.896 124.32 5.95 124.236 6.046C124.152 6.13 124.068 6.226 123.984 6.334C123.924 6.946 123.9 7.552 123.912 8.152C123.924 8.74 123.948 9.34 123.984 9.952C123.984 10.084 123.948 10.186 123.876 10.258C123.804 10.318 123.72 10.348 123.624 10.348C123.54 10.348 123.456 10.324 123.372 10.276C123.3 10.216 123.264 10.12 123.264 9.988C123.24 9.604 123.216 9.226 123.192 8.854C123.18 8.482 123.18 8.104 123.192 7.72C123.132 7.9 123.024 8.05 122.868 8.17C122.772 8.266 122.658 8.302 122.526 8.278C122.406 8.242 122.322 8.158 122.274 8.026C122.178 7.786 122.118 7.54 122.094 7.288C122.082 7.036 122.082 6.784 122.094 6.532C122.106 6.28 122.124 6.028 122.148 5.776C122.184 5.524 122.202 5.272 122.202 5.02ZM124.668 6.946C124.728 6.802 124.77 6.634 124.794 6.442C124.818 6.442 124.836 6.448 124.848 6.46C124.86 6.46 124.878 6.46 124.902 6.46V6.55C124.902 6.646 124.932 6.724 124.992 6.784C125.064 6.832 125.142 6.862 125.226 6.874C125.322 6.886 125.406 6.868 125.478 6.82C125.55 6.772 125.598 6.7 125.622 6.604C125.634 6.556 125.64 6.496 125.64 6.424C125.652 6.352 125.664 6.28 125.676 6.208V13.174C125.652 13.126 125.604 13.084 125.532 13.048C125.472 13 125.412 12.976 125.352 12.976C125.184 12.952 125.046 12.976 124.938 13.048C124.83 13.108 124.74 13.192 124.668 13.3V6.946ZM125.676 13.264C125.688 13.276 125.7 13.288 125.712 13.3C125.724 13.3 125.736 13.306 125.748 13.318C125.88 13.318 125.988 13.372 126.072 13.48C126.156 13.588 126.162 13.714 126.09 13.858C126.066 13.882 126.024 13.942 125.964 14.038C125.916 14.122 125.862 14.194 125.802 14.254L125.784 14.272C125.796 14.416 125.802 14.56 125.802 14.704C125.814 14.836 125.814 14.974 125.802 15.118C125.802 15.25 125.76 15.346 125.676 15.406C125.604 15.466 125.52 15.496 125.424 15.496C125.34 15.496 125.262 15.466 125.19 15.406C125.118 15.346 125.082 15.25 125.082 15.118C125.082 15.01 125.082 14.902 125.082 14.794C125.082 14.686 125.076 14.578 125.064 14.47C125.04 14.47 125.022 14.476 125.01 14.488C124.998 14.488 124.98 14.488 124.956 14.488C124.872 14.512 124.788 14.506 124.704 14.47C124.62 14.422 124.56 14.356 124.524 14.272C124.452 14.116 124.44 13.954 124.488 13.786C124.548 13.618 124.638 13.48 124.758 13.372C124.89 13.252 125.04 13.18 125.208 13.156C125.376 13.12 125.532 13.156 125.676 13.264Z" fill="#1AC22B"/>
<path d="M26.6563 6.676C26.6323 6.712 26.6203 6.754 26.6203 6.802V6.91C26.6203 7.006 26.6323 7.102 26.6563 7.198C26.6923 7.294 26.7283 7.39 26.7643 7.486L26.7823 7.54C26.8063 7.612 26.8483 7.678 26.9083 7.738C26.9683 7.786 27.0343 7.81 27.1063 7.81C27.0943 7.822 27.1003 7.84 27.1243 7.864C27.1603 7.888 27.1843 7.906 27.1963 7.918C27.2563 7.966 27.3463 7.99 27.4663 7.99C27.6223 7.99 27.7363 8.014 27.8083 8.062C27.8923 8.11 27.9643 8.164 28.0243 8.224C28.0843 8.272 28.1503 8.32 28.2223 8.368C28.2943 8.404 28.4083 8.422 28.5643 8.422C28.6363 8.422 28.6903 8.416 28.7263 8.404C28.9303 8.296 29.0623 8.14 29.1223 7.936C29.1823 7.72 29.2123 7.498 29.2123 7.27C29.1643 6.262 29.1163 5.65 29.0683 5.434C29.0923 5.338 29.1043 5.266 29.1043 5.218C29.1043 5.014 29.0443 4.792 28.9243 4.552C28.8163 4.312 28.7503 4.096 28.7263 3.904C28.6303 3.7 28.5103 3.502 28.3663 3.31C28.2343 3.118 28.0723 2.962 27.8803 2.842C27.7363 2.698 27.5623 2.59 27.3583 2.518C27.1663 2.446 26.9623 2.398 26.7463 2.374L26.2423 2.338C26.1823 2.314 26.1283 2.302 26.0803 2.302H25.9183C25.6423 2.302 25.3663 2.38 25.0903 2.536C24.8143 2.692 24.5743 2.872 24.3703 3.076C24.1663 3.136 23.9803 3.232 23.8123 3.364C23.6563 3.484 23.5483 3.652 23.4883 3.868C23.3923 4.24 23.2843 4.612 23.1643 4.984C23.0443 5.356 22.9843 5.728 22.9843 6.1C22.9843 6.4 23.0383 6.682 23.1463 6.946C23.1463 6.97 23.1463 6.988 23.1463 7C23.1583 7.012 23.1643 7.024 23.1643 7.036C23.2363 7.24 23.2903 7.408 23.3263 7.54C23.3743 7.672 23.4103 7.78 23.4343 7.864C23.4583 7.936 23.4823 7.996 23.5063 8.044C23.5303 8.08 23.5543 8.11 23.5783 8.134C23.7223 8.674 23.9383 9.13 24.2263 9.502C24.7663 10.042 25.3123 10.576 25.8643 11.104C26.4523 11.716 26.7463 12.544 26.7463 13.588C26.7463 13.924 26.5783 14.092 26.2423 14.092C25.9063 14.092 25.7383 13.924 25.7383 13.588V13.21C25.8703 13.15 25.9723 13.072 26.0443 12.976C26.1283 12.868 26.1703 12.73 26.1703 12.562V12.472C26.1463 12.292 26.0683 12.1 25.9363 11.896C25.8163 11.692 25.6603 11.59 25.4683 11.59C25.3723 11.59 25.2703 11.626 25.1623 11.698C25.1503 11.71 25.1383 11.716 25.1263 11.716C24.9943 11.668 24.8743 11.68 24.7663 11.752C24.7543 11.764 24.7423 11.77 24.7303 11.77C24.6823 11.758 24.6403 11.752 24.6043 11.752C24.5683 11.752 24.5263 11.746 24.4783 11.734C24.3343 11.686 24.1903 11.656 24.0463 11.644C23.9023 11.62 23.7703 11.692 23.6503 11.86C23.5303 11.956 23.4523 12.088 23.4163 12.256H23.3443V12.526C23.3203 12.598 23.3023 12.646 23.2903 12.67C23.2183 12.814 23.2363 12.94 23.3443 13.048V13.588C23.3443 14.392 23.6263 15.076 24.1903 15.64C24.7543 16.192 25.4383 16.468 26.2423 16.468C27.0343 16.468 27.7123 16.192 28.2763 15.64C28.8523 15.076 29.1403 14.392 29.1403 13.588C29.1403 12.256 28.8463 11.182 28.2583 10.366C27.7063 9.79 27.1603 9.208 26.6203 8.62C26.0323 7.936 25.7383 7.096 25.7383 6.1C25.7383 5.764 25.9063 5.596 26.2423 5.596C26.5783 5.596 26.7463 5.764 26.7463 6.1V6.514C26.6983 6.562 26.6683 6.616 26.6563 6.676ZM24.7663 8.512C24.8143 8.632 24.8143 8.734 24.7663 8.818C24.7183 8.902 24.6463 8.962 24.5503 8.998C24.4663 9.022 24.3763 9.022 24.2803 8.998C24.1963 8.962 24.1303 8.884 24.0823 8.764C23.9743 8.464 23.8723 8.158 23.7763 7.846C23.6803 7.522 23.6323 7.198 23.6323 6.874C23.6083 6.802 23.5963 6.748 23.5963 6.712C23.4643 6.652 23.3983 6.538 23.3983 6.37C23.3743 5.95 23.4043 5.53 23.4883 5.11C23.5843 4.69 23.7223 4.288 23.9023 3.904C23.9503 3.784 24.0343 3.712 24.1543 3.688C24.4783 3.304 24.8923 3.022 25.3963 2.842C25.9123 2.662 26.4223 2.668 26.9263 2.86C27.2023 2.884 27.4423 2.968 27.6463 3.112C27.8623 3.256 28.0243 3.448 28.1323 3.688C28.2163 3.736 28.2763 3.784 28.3123 3.832C28.3603 3.916 28.3963 4.006 28.4203 4.102C28.4563 4.186 28.4803 4.276 28.4923 4.372C28.5523 4.456 28.5943 4.558 28.6183 4.678C28.6423 4.798 28.6543 4.924 28.6543 5.056C28.7023 5.476 28.7563 5.83 28.8163 6.118C28.8883 6.394 28.9483 6.628 28.9963 6.82C29.0443 7 29.0743 7.156 29.0863 7.288C29.0983 7.408 29.0743 7.522 29.0143 7.63C28.9903 7.678 28.9483 7.726 28.8883 7.774C28.8403 7.822 28.7923 7.852 28.7443 7.864C28.7203 7.864 28.7023 7.87 28.6903 7.882C28.6903 7.882 28.6783 7.882 28.6543 7.882C28.5943 7.87 28.5163 7.822 28.4203 7.738C28.3243 7.642 28.2223 7.558 28.1143 7.486C28.0183 7.402 27.9103 7.342 27.7903 7.306C27.6823 7.258 27.5803 7.276 27.4843 7.36C27.2443 7.228 27.0943 7.054 27.0343 6.838C26.9743 6.61 26.9503 6.376 26.9623 6.136C26.9503 6.064 26.9383 5.992 26.9263 5.92C26.9263 5.848 26.9143 5.776 26.8903 5.704C26.9023 5.656 26.8903 5.614 26.8543 5.578C26.8303 5.542 26.7883 5.518 26.7283 5.506C26.6803 5.482 26.6203 5.458 26.5483 5.434C26.4883 5.41 26.4403 5.38 26.4043 5.344C26.1763 5.356 25.9903 5.428 25.8463 5.56C25.7143 5.692 25.6063 5.854 25.5223 6.046C25.4503 6.226 25.4023 6.424 25.3783 6.64C25.3543 6.856 25.3423 7.054 25.3423 7.234C25.3303 7.402 25.2523 7.51 25.1083 7.558C24.9643 7.606 24.8443 7.588 24.7483 7.504C24.6883 7.516 24.6283 7.522 24.5683 7.522C24.5203 7.51 24.4783 7.492 24.4423 7.468H24.4243C24.4603 7.648 24.5083 7.828 24.5683 8.008C24.6283 8.176 24.6943 8.344 24.7663 8.512ZM23.8123 11.95C23.9203 11.866 24.0283 11.842 24.1363 11.878C24.2443 11.914 24.3223 11.98 24.3703 12.076C24.4543 12.064 24.5623 12.04 24.6943 12.004C24.8263 11.968 24.9583 11.95 25.0903 11.95C25.2223 11.938 25.3483 11.956 25.4683 12.004C25.5883 12.04 25.6843 12.13 25.7563 12.274C25.8283 12.334 25.8703 12.412 25.8823 12.508C25.9063 12.592 25.8943 12.67 25.8463 12.742C25.7863 12.898 25.6843 13.006 25.5403 13.066C25.3963 13.114 25.2523 13.144 25.1083 13.156C25.0363 13.228 24.9943 13.33 24.9823 13.462C24.9703 13.582 24.9583 13.72 24.9463 13.876C24.9463 14.02 24.9343 14.164 24.9103 14.308C24.8863 14.452 24.8203 14.572 24.7123 14.668C24.6163 14.8 24.5023 14.854 24.3703 14.83C24.2503 14.806 24.1603 14.728 24.1003 14.596C24.0283 14.488 23.9863 14.38 23.9743 14.272C23.9623 14.152 23.9563 14.032 23.9563 13.912C23.9563 13.792 23.9563 13.672 23.9563 13.552C23.9563 13.42 23.9323 13.3 23.8843 13.192C23.7403 13.156 23.6323 13.084 23.5603 12.976C23.5003 12.856 23.4703 12.736 23.4703 12.616C23.4703 12.484 23.5003 12.358 23.5603 12.238C23.6203 12.118 23.7043 12.022 23.8123 11.95ZM40.3633 16.468V8.386C40.5433 8.038 40.6633 7.672 40.7233 7.288C40.7953 6.904 40.8313 6.514 40.8313 6.118C40.8433 5.722 40.8433 5.326 40.8313 4.93C40.8193 4.522 40.8313 4.126 40.8673 3.742C40.8553 3.634 40.8433 3.52 40.8313 3.4C40.8313 3.268 40.8133 3.148 40.7773 3.04C40.7533 2.92 40.7113 2.818 40.6513 2.734C40.5913 2.638 40.3633 2.524 39.9673 2.392C39.8473 2.392 39.7213 2.416 39.5893 2.464C39.4693 2.5 39.3433 2.542 39.2113 2.59C39.0793 2.626 38.9473 2.632 38.8153 2.608C38.3473 2.656 38.0953 2.698 38.0593 2.734C37.9633 2.71 37.8673 2.722 37.7713 2.77C37.6753 2.806 37.6153 2.89 37.5913 3.022C37.4473 3.742 37.3753 4.468 37.3753 5.2C37.3873 5.932 37.4473 6.526 37.5553 6.982C37.6633 7.426 37.7473 7.66 37.8073 7.684L37.9693 7.738V16.468H40.3633ZM37.6093 6.226C37.7053 4.93 37.7833 3.97 37.8433 3.346C37.8553 3.298 37.8793 3.244 37.9153 3.184C37.9633 3.124 38.0053 3.082 38.0413 3.058C38.1733 2.974 38.3233 2.944 38.4913 2.968C38.6593 2.992 38.8513 2.992 39.0673 2.968C39.2833 2.944 39.4453 2.914 39.5533 2.878C39.6733 2.83 39.7933 2.8 39.9133 2.788C40.0333 2.764 40.1533 2.77 40.2733 2.806C40.3333 2.818 40.3933 2.854 40.4533 2.914C40.5133 2.974 40.5493 3.034 40.5613 3.094C40.6213 3.262 40.6453 3.436 40.6333 3.616C40.6333 3.796 40.6453 3.976 40.6693 4.156C40.6333 4.444 40.6093 4.732 40.5973 5.02C40.5973 5.296 40.5973 5.578 40.5973 5.866C40.5973 6.142 40.5853 6.424 40.5613 6.712C40.5493 6.988 40.5073 7.264 40.4353 7.54C40.3993 7.708 40.2373 7.87 39.9493 8.026C39.6613 8.182 39.4753 8.254 39.3913 8.242C39.3913 8.71 39.3253 9.004 39.1933 9.124C39.0733 9.232 38.9533 9.232 38.8333 9.124C38.7133 9.016 38.6233 8.824 38.5633 8.548C38.5153 8.272 38.5633 7.978 38.7073 7.666C38.6473 7.666 38.5873 7.648 38.5273 7.612C38.4673 7.564 38.4253 7.504 38.4013 7.432C38.2813 7.456 38.0173 7.054 37.6093 6.226ZM60.1448 16.486L58.8128 7.108C58.8968 7.048 58.9448 6.976 58.9568 6.892C58.9688 6.82 58.9748 6.754 58.9748 6.694C58.9868 6.622 58.9928 6.55 58.9928 6.478C59.0528 5.866 59.0828 5.248 59.0828 4.624C59.0948 4 59.0468 3.376 58.9388 2.752C58.8068 2.56 58.6388 2.41 58.4348 2.302C58.2308 2.182 58.0148 2.11 57.7868 2.086C57.5708 2.05 57.3488 2.056 57.1208 2.104C56.9048 2.152 56.7068 2.248 56.5268 2.392C56.4308 2.308 56.3168 2.272 56.1848 2.284C56.0648 2.284 55.9748 2.362 55.9148 2.518C55.7948 2.866 55.6688 3.22 55.5368 3.58C55.4048 3.928 55.2908 4.288 55.1948 4.66C55.1108 5.032 55.0508 5.404 55.0148 5.776C54.9908 6.136 55.0208 6.496 55.1048 6.856C55.1648 6.916 55.2248 6.982 55.2848 7.054C55.3448 7.114 55.4228 7.138 55.5188 7.126L55.5368 7.144L54.1868 16.486H56.5628L56.6888 14.974H57.6788L57.7868 16.486H60.1448ZM55.5188 6.586C55.3868 6.274 55.3268 5.974 55.3388 5.686C55.3628 5.386 55.5128 4.702 55.7888 3.634C55.9088 3.262 55.9988 3.016 56.0588 2.896C56.1188 2.764 56.2208 2.698 56.3647 2.698C56.4968 2.614 56.6528 2.566 56.8328 2.554C57.0128 2.542 57.2708 2.53 57.6068 2.518C57.9428 2.506 58.1408 2.542 58.2008 2.626C58.3088 2.722 58.4168 2.83 58.5248 2.95C58.6328 3.058 58.6868 3.196 58.6868 3.364C58.7828 3.856 58.8008 4.912 58.7408 6.532C58.6208 7.36 58.4108 7.432 58.1108 6.748C58.0748 7.036 58.0148 7.768 57.9308 8.944C57.8468 10.12 57.7568 9.958 57.6608 8.458C57.6008 8.602 57.4928 8.674 57.3368 8.674C57.1808 9.802 57.0728 9.748 57.0128 8.512C56.9648 8.524 56.9048 8.518 56.8328 8.494C56.8208 8.794 56.8088 9.094 56.7968 9.394C56.7848 9.682 56.6288 10.24 56.3288 11.068C56.2568 10.768 56.1848 10.588 56.1128 10.528C56.0408 10.456 56.0108 10.354 56.0228 10.222C56.0588 9.61 56.0588 9.046 56.0228 8.53C55.9988 8.002 55.9868 7.582 55.9868 7.27C55.9868 6.958 55.9508 6.808 55.8788 6.82C55.8068 6.832 55.7348 6.82 55.6628 6.784C55.6028 6.748 55.5548 6.682 55.5188 6.586ZM56.4008 14.524L56.3468 14.47C56.2988 14.434 56.2688 14.386 56.2568 14.326C56.1608 14.158 56.2448 13.96 56.5088 13.732C56.7728 13.504 56.9708 13.432 57.1028 13.516C57.3188 13.48 57.5228 13.606 57.7148 13.894C57.9188 14.182 57.9368 14.356 57.7688 14.416C57.6968 14.524 57.5888 14.578 57.4448 14.578C57.4328 14.59 57.4148 14.596 57.3908 14.596C57.2228 14.68 57.0488 14.74 56.8688 14.776C56.6888 14.8 56.5328 14.716 56.4008 14.524ZM56.9948 11.05H57.3548L57.4988 13.282H57.4088C57.3728 13.246 57.3188 13.216 57.2468 13.192C57.1868 13.156 57.1328 13.144 57.0848 13.156C57.0248 13.168 56.9468 13.186 56.8508 13.21L56.9948 11.05ZM78.2438 11.032H79.3958C79.4078 11.128 79.4498 11.206 79.5218 11.266C79.5938 11.314 79.6718 11.338 79.7558 11.338C79.8998 11.338 80.0378 11.038 80.1698 10.438C80.3138 9.838 80.3857 9.352 80.3857 8.98C80.3857 8.872 80.3857 8.77 80.3857 8.674C80.3857 8.566 80.3798 8.464 80.3678 8.368C80.3438 8.188 80.2658 8.056 80.1338 7.972C80.0138 7.876 79.8758 7.828 79.7197 7.828L78.9998 7.954C78.7478 7.954 78.4958 8.002 78.2438 8.098V5.596H80.6738L80.7278 5.74L80.9618 5.812C80.9738 5.812 80.9798 5.818 80.9798 5.83C80.9918 5.83 81.0098 5.83 81.0338 5.83C81.1538 5.83 81.2498 5.794 81.3218 5.722C81.4178 5.65 81.4838 5.566 81.5198 5.47C81.5558 5.374 81.5798 4.726 81.5918 3.526C81.5918 3.394 81.5678 3.268 81.5198 3.148C81.4838 3.016 81.3998 2.902 81.2678 2.806C81.1478 2.782 81.0518 2.77 80.9798 2.77L80.0978 2.86C79.9658 2.86 79.8458 2.836 79.7378 2.788C79.5818 2.776 79.2758 2.764 78.8198 2.752L77.5598 2.77C77.3198 2.77 77.0858 2.764 76.8578 2.752C76.6298 2.74 76.4078 2.716 76.1918 2.68C75.8678 2.704 75.6638 2.83 75.5798 3.058C75.4958 3.274 75.4538 3.52 75.4538 3.796L75.4718 4.354C75.4358 5.23 75.4178 5.812 75.4178 6.1C75.4658 6.916 75.5198 7.462 75.5798 7.738C75.6158 7.906 75.7058 8.002 75.8498 8.026V16.468H80.9078C80.9678 16.516 81.0458 16.54 81.1418 16.54C81.3338 16.54 81.4778 16.246 81.5738 15.658C81.6698 15.07 81.7178 14.674 81.7178 14.47C81.7178 14.326 81.6998 14.182 81.6638 14.038C81.6278 13.894 81.5618 13.756 81.4658 13.624C81.2618 13.54 81.0578 13.486 80.8538 13.462C80.6498 13.426 80.4458 13.408 80.2418 13.408C79.9058 13.408 79.5698 13.438 79.2338 13.498C78.8978 13.546 78.5678 13.594 78.2438 13.642V11.032ZM75.7418 7.432V6.748C75.7058 6.568 75.6938 6.154 75.7058 5.506C75.7298 4.846 75.7478 4.186 75.7598 3.526V3.49C75.7598 3.43 75.7778 3.37 75.8138 3.31C75.8498 3.25 75.8918 3.208 75.9398 3.184C76.0958 3.088 76.2518 3.022 76.4078 2.986C76.8158 3.01 77.2178 3.052 77.6138 3.112C78.0218 3.172 78.4298 3.202 78.8378 3.202C79.1618 3.202 79.4978 3.166 79.8457 3.094C79.9538 3.118 80.0678 3.13 80.1878 3.13C80.3078 3.13 80.4218 3.136 80.5298 3.148C80.6498 3.148 80.7638 3.16 80.8718 3.184C80.9918 3.208 81.0998 3.262 81.1958 3.346C81.2438 3.37 81.2798 3.412 81.3038 3.472C81.3398 3.532 81.3578 3.592 81.3578 3.652V3.688C81.2978 4.168 81.2738 4.558 81.2858 4.858C81.2978 5.146 81.2618 5.32 81.1778 5.38C81.1058 5.44 81.0218 5.47 80.9258 5.47C80.8658 5.47 80.8058 5.452 80.7458 5.416C80.6858 5.38 80.6438 5.326 80.6198 5.254C80.5838 5.146 80.5538 5.038 80.5298 4.93C80.5058 4.81 80.4638 4.696 80.4038 4.588C80.3318 4.66 80.2418 4.696 80.1338 4.696C79.9898 4.696 79.8878 4.63 79.8278 4.498L79.8098 4.426C79.7498 4.594 79.6418 4.678 79.4858 4.678C79.3298 4.678 79.2338 4.702 79.1978 4.75C79.1618 4.786 79.1258 4.816 79.0898 4.84C79.0178 4.9 78.9398 4.942 78.8558 4.966C78.7838 4.99 78.7118 5.002 78.6398 5.002C78.4958 5.002 78.3578 4.966 78.2258 4.894C78.1058 4.81 78.0098 4.702 77.9378 4.57C77.8778 4.582 77.7878 4.612 77.6678 4.66C77.6198 5.176 77.5898 5.692 77.5778 6.208C77.5778 6.712 77.5478 7.222 77.4878 7.738C77.4757 7.858 77.4338 7.942 77.3618 7.99C77.2898 8.038 77.2118 8.062 77.1278 8.062C77.0318 8.062 76.8098 7.87 76.4618 7.486C76.3058 7.702 76.1858 7.81 76.1018 7.81C76.0058 7.81 75.9218 7.78 75.8498 7.72C75.7778 7.66 75.7418 7.564 75.7418 7.432ZM78.3158 14.11C78.3278 14.038 78.3578 13.978 78.4058 13.93C78.4658 13.87 78.8498 13.81 79.5578 13.75C80.2778 13.69 80.7398 13.69 80.9438 13.75C81.1838 13.81 81.3398 13.93 81.4118 14.11C81.4958 14.278 81.5378 14.47 81.5378 14.686C81.3338 15.586 81.1838 16.036 81.0878 16.036C81.0158 16.036 80.9438 16.018 80.8718 15.982C80.8118 15.934 80.7698 15.868 80.7458 15.784C80.6978 15.652 80.6618 15.52 80.6378 15.388C80.6138 15.256 80.5838 15.124 80.5478 14.992C80.4878 14.992 80.4218 14.974 80.3498 14.938H80.0978C80.0018 14.878 79.9178 14.842 79.8457 14.83C79.8338 14.83 79.8218 14.836 79.8098 14.848C79.7858 14.968 79.7198 15.088 79.6118 15.208C79.5158 15.328 79.3658 15.382 79.1618 15.37C78.9698 15.358 78.8438 15.286 78.7838 15.154C78.7238 15.01 78.6638 14.872 78.6038 14.74C78.5678 14.728 78.5138 14.698 78.4418 14.65C78.3098 14.59 78.2438 14.488 78.2438 14.344C78.2438 14.248 78.2678 14.17 78.3158 14.11ZM78.2438 8.278C78.9878 8.242 79.4138 8.182 79.5218 8.098C79.6058 8.134 79.6898 8.146 79.7738 8.134C79.8698 8.122 79.9478 8.152 80.0078 8.224C80.0438 8.248 80.0798 8.296 80.1158 8.368C80.1518 8.428 80.1698 8.482 80.1698 8.53C80.1938 8.746 80.2118 8.968 80.2238 9.196C80.2478 9.412 80.1278 9.946 79.8638 10.798C79.7798 10.798 79.7018 10.78 79.6298 10.744C79.5698 10.696 79.5278 10.624 79.5038 10.528C79.4558 10.408 79.4258 10.282 79.4138 10.15C79.4138 10.018 79.4078 9.886 79.3958 9.754C79.3358 9.79 79.2758 9.808 79.2158 9.808C79.0838 9.808 78.7718 9.628 78.2798 9.268C78.0038 8.752 77.8958 8.458 77.9558 8.386C78.0158 8.314 78.1118 8.278 78.2438 8.278ZM78.3878 9.304C78.3998 9.304 78.4118 9.298 78.4238 9.286C78.4118 9.286 78.4058 9.28 78.4058 9.268H78.3518L78.3878 9.304Z" fill="#F0DB19"/>
</svg>
