<svg width="260" height="260" viewBox="0 0 260 260" fill="none" xmlns="http://www.w3.org/2000/svg">
<path d="M104.47 153.013C104.47 153.013 109.82 182.183 97.8199 191.693C85.8199 201.203 107.96 258.273 144.74 251.623C181.52 244.973 196.42 197.083 196.42 197.083C196.42 197.083 159.64 189.483 173.27 150.803L104.47 153.013Z" fill="#FED9DA"/>
<path opacity="0.05" d="M104.47 153.013C104.47 153.013 109.82 182.183 97.8199 191.693C85.8199 201.203 107.96 258.273 144.74 251.623C181.52 244.973 196.42 197.083 196.42 197.083C196.42 197.083 159.64 189.483 173.27 150.803L104.47 153.013Z" fill="black"/>
<path d="M136.97 174.413C170.588 174.413 197.84 147.16 197.84 113.543C197.84 79.9253 170.588 52.6729 136.97 52.6729C103.353 52.6729 76.1001 79.9253 76.1001 113.543C76.1001 147.16 103.353 174.413 136.97 174.413Z" fill="#FED9DA"/>
<path d="M236.98 230.015L233.529 252H37.4998L36 231.927C36.0019 226.86 37.4783 221.907 40.245 217.684C43.0118 213.461 46.9465 210.155 51.5584 208.179L57.3279 205.701C71.9064 199.42 89.6146 191.622 95.404 188.376C96.0382 188.056 96.6352 187.666 97.1839 187.212C100.354 184.006 99.7236 188.173 99.7236 188.173C99.7236 188.173 99.6336 188.962 99.5736 190.338C99.2337 199.754 100.573 236.791 143.469 233.707C185.325 230.672 187.165 202.11 186.785 193.706C186.761 192.927 186.694 192.15 186.585 191.379C186.585 191.157 190.185 192.391 195.064 194.171C203.833 197.438 216.722 202.697 220.192 205.175C221.271 205.933 222.581 206.743 224.001 207.542C227.954 209.773 231.243 213.034 233.529 216.986C235.815 220.938 237.013 225.436 237 230.015H236.98Z" fill="#EDF055"/>
<path opacity="0.1" d="M195.07 193.823C191.53 210.243 180.41 241.003 140.3 241.823C97.59 242.663 95.1301 200.183 95.3901 188.133C96.0295 187.817 96.6301 187.427 97.18 186.973C100.35 183.803 99.7201 187.923 99.7201 187.923C99.7201 187.923 94.3301 236.433 143.47 232.923C192.61 229.413 186.59 191.073 186.59 191.073C186.59 190.843 190.19 192.023 195.07 193.823Z" fill="black"/>
<path d="M64.92 116.553C68.92 115.253 73.69 117.453 75.92 120.553C78.15 123.653 78.46 127.403 78.73 130.993C81.38 131.553 82.87 128.553 83.11 126.303C84.11 117.093 84.16 107.713 87.25 98.8329C90.34 89.9529 97.09 81.3529 107.47 77.9329C111 76.7082 114.772 76.3481 118.47 76.8829C120.66 77.2529 122.73 78.0129 124.92 78.3729C132.49 79.6229 140.74 76.0329 147.85 78.5329C152.3 80.1029 155.17 83.7329 157.21 87.3729C158.119 89.3272 159.35 91.1153 160.85 92.6629C163.85 95.3629 168.61 96.0729 172.93 96.9229C177.25 97.7729 181.99 99.2329 183.84 102.573C185.51 105.573 184.28 109.073 183.72 112.353C182.865 117.521 183.733 122.827 186.19 127.453C186.99 128.973 188.61 130.693 190.52 130.203C191.389 129.91 192.124 129.313 192.59 128.523C197.59 121.523 197.43 112.443 203.66 106.193C205.75 104.103 208.44 102.463 210.47 100.333C212.006 98.7816 213.133 96.8729 213.749 94.7783C214.365 92.6838 214.452 90.469 214 88.3329C212.88 83.5229 209 79.5129 205.93 75.3329C201.894 69.9765 198.955 63.8767 197.28 57.3829C196.985 56.6308 196.985 55.7949 197.28 55.0429C197.868 54.2775 198.624 53.6581 199.49 53.2329C201.187 52.1076 202.415 50.4016 202.943 48.4352C203.472 46.4689 203.264 44.3772 202.36 42.5529C200.62 38.9229 196.71 36.2329 192.42 34.6129C188.13 32.9929 183.42 32.3029 178.76 31.6129C175.7 32.0629 172.11 30.3129 171.16 27.8629C170.74 26.7729 170.74 25.5929 170.31 24.5029C169.48 22.4129 167.09 20.9329 164.52 20.4229C161.906 19.9945 159.228 20.1828 156.7 20.9729C153.82 21.7829 150.48 22.9729 147.97 21.5929C146.65 20.8429 145.91 19.4829 144.49 18.8729C141.61 17.6429 138.57 20.1229 136.49 22.1729C134.472 24.3085 132.002 25.9656 129.26 27.0229C126.37 28.0229 122.81 28.0229 120.32 26.4329C118.32 25.1629 117.32 23.1229 115.73 21.5029C113.12 18.8329 108.99 17.3829 104.87 17.0529C100.738 16.8357 96.5977 17.2882 92.61 18.3929C84.9968 20.2372 77.7235 23.2748 71.06 27.3929C67.73 29.4829 64.54 31.9229 62.8 35.0729C61.5639 37.5292 60.9266 40.2431 60.94 42.9929C60.63 51.6029 63.49 60.6829 70.94 66.7129C66.4 68.6129 64.86 73.2629 63.8 77.3929C62.1 83.9729 60.39 90.6729 61.03 97.3929C61.35 100.863 62.3 104.333 61.79 107.783C61.55 109.453 60.97 111.093 61.11 112.783C61.2956 113.72 61.7577 114.58 62.4369 115.252C63.116 115.924 63.9809 116.377 64.92 116.553V116.553Z" fill="#FF351A"/>
<path d="M150.5 147.704C150.5 153.874 148.742 162.5 135 162.5C121.258 162.5 119.5 153.874 119.5 147.704C119.5 141.534 121.258 149.876 135 149.876C148.742 149.876 150.5 141.534 150.5 147.704Z" fill="#D66666"/>
<path d="M125.095 131.316C125.043 127.998 126.087 123.636 134.684 123.5C143.281 123.364 144.436 127.69 144.489 131.009C144.542 134.327 143.281 137.598 134.684 137.735C126.087 137.871 125.148 134.635 125.095 131.316Z" fill="#FB5C5C"/>
<path opacity="0.2" d="M125.013 131.117C124.96 127.799 126.921 135.723 135.086 135.593C143.25 135.464 144.339 127.799 144.392 131.117C144.445 134.436 143.25 137.706 135.086 137.836C126.921 137.965 125.066 134.436 125.013 131.117Z" fill="#030303"/>
<path d="M91.2348 134C91.1822 130.682 92.2395 127.974 100.836 127.837C109.433 127.701 110.576 130.374 110.628 133.692C110.681 137.011 109.42 140.282 100.823 140.418C92.2266 140.555 91.2875 137.319 91.2348 134Z" fill="#FFAFAF"/>
<path d="M91.2348 134C91.1822 130.682 92.2395 127.974 100.836 127.837C109.433 127.701 110.576 130.374 110.628 133.692C110.681 137.011 109.42 140.282 100.823 140.418C92.2266 140.555 91.2875 137.319 91.2348 134Z" fill="#FFAFAF"/>
<path d="M160.095 134.316C160.043 130.998 161.1 128.29 169.697 128.154C178.294 128.017 179.436 130.69 179.489 134.009C179.542 137.327 178.281 140.598 169.684 140.735C161.087 140.871 160.148 137.635 160.095 134.316Z" fill="#FFAFAF"/>
<path d="M160.095 134.316C160.043 130.998 161.1 128.29 169.697 128.154C178.294 128.017 179.436 130.69 179.489 134.009C179.542 137.327 178.281 140.598 169.684 140.735C161.087 140.871 160.148 137.635 160.095 134.316Z" fill="#FFAFAF"/>
<ellipse opacity="0.1" rx="8.06175" ry="8.26834" transform="matrix(0.486313 0.873784 -0.891427 0.453165 118.291 112.791)" fill="black"/>
<ellipse cx="118.5" cy="113" rx="7.5" ry="7" fill="#E3E3E3"/>
<path d="M121 111C121 112.657 119.657 114 118 114C116.343 114 115 112.657 115 111C115 109.343 116.343 108 118 108C119.657 108 121 109.343 121 111Z" fill="black"/>
<ellipse opacity="0.1" rx="8.06175" ry="8.26834" transform="matrix(0.486313 0.873784 -0.891427 0.453165 151.291 112.791)" fill="black"/>
<ellipse cx="151.5" cy="113" rx="7.5" ry="7" fill="#E3E3E3"/>
<path d="M154 111C154 112.657 152.657 114 151 114C149.343 114 148 112.657 148 111C148 109.343 149.343 108 151 108C152.657 108 154 109.343 154 111Z" fill="black"/>
<g opacity="0.1">
<path opacity="0.1" d="M213.12 85.7329C212.461 87.1582 211.573 88.4656 210.49 89.6029C208.49 91.7329 205.77 93.3729 203.68 95.4729C197.45 101.713 197.58 110.823 192.61 117.803C192.144 118.591 191.409 119.184 190.54 119.473C188.63 119.963 187.01 118.243 186.21 116.723C185.238 114.874 184.509 112.908 184.04 110.873C183.933 111.38 183.833 111.89 183.74 112.403C182.885 117.571 183.753 122.877 186.21 127.503C187.01 129.023 188.63 130.743 190.54 130.253C191.409 129.96 192.144 129.363 192.61 128.573C197.61 121.573 197.45 112.493 203.68 106.243C205.77 104.153 208.46 102.513 210.49 100.383C212.026 98.8316 213.153 96.9229 213.769 94.8284C214.385 92.7338 214.471 90.519 214.02 88.3829C213.807 87.4725 213.505 86.585 213.12 85.7329V85.7329Z" fill="black"/>
<path opacity="0.1" d="M70.9299 56.0328C65.7727 51.7689 62.3718 45.7505 61.3799 39.1328C61.1215 40.4515 60.9743 41.7895 60.9399 43.1328C60.6188 49.4871 62.2975 55.7821 65.7399 61.1328C66.7864 58.8542 68.6333 57.0393 70.9299 56.0328Z" fill="black"/>
<path opacity="0.1" d="M183.74 101.623C184.3 98.3429 185.53 94.8529 183.86 91.8429C182.01 88.5029 177.28 87.0329 172.95 86.1929C168.62 85.3529 163.89 84.6329 160.87 81.9329C159.37 80.3853 158.139 78.5972 157.23 76.6429C155.23 73.0029 152.32 69.3729 147.87 67.8029C140.76 65.3029 132.51 68.8929 124.94 67.6429C122.75 67.2829 120.68 66.5229 118.49 66.1529C114.796 65.6021 111.024 65.945 107.49 67.1529C97.1099 70.5729 90.3599 79.1529 87.2699 88.0529C84.1799 96.9529 84.1099 106.313 83.1299 115.523C82.8899 117.773 81.3999 120.773 78.7499 120.213C78.4799 116.623 78.1499 112.873 75.9399 109.773C73.7299 106.673 69.0099 104.463 64.9399 105.773C63.7077 105.495 62.6154 104.785 61.8599 103.773C61.9992 105.104 61.9791 106.447 61.7999 107.773C61.5599 109.443 60.9799 111.083 61.1199 112.773C61.303 113.711 61.7629 114.572 62.4402 115.246C63.1176 115.919 63.9813 116.375 64.9199 116.553C68.9199 115.253 73.6899 117.453 75.9199 120.553C78.1499 123.653 78.4599 127.403 78.7299 130.993C81.3799 131.553 82.8699 128.553 83.1099 126.303C84.1099 117.093 84.1599 107.713 87.2499 98.8329C90.3399 89.9529 97.0899 81.3529 107.47 77.9329C111 76.7082 114.772 76.3481 118.47 76.8829C120.66 77.2529 122.73 78.0129 124.92 78.3729C132.49 79.6229 140.74 76.0329 147.85 78.5329C152.3 80.1029 155.17 83.7329 157.21 87.3729C158.119 89.3272 159.35 91.1153 160.85 92.6629C163.85 95.3629 168.61 96.0729 172.93 96.9229C177.25 97.7729 181.64 99.1329 183.62 102.233C183.67 102.063 183.7 101.843 183.74 101.623Z" fill="black"/>
<path opacity="0.1" d="M199.53 42.5528C198.662 42.9711 197.905 43.5877 197.32 44.3528C197.025 45.1048 197.025 45.9408 197.32 46.6928C197.897 48.9595 198.635 51.1819 199.53 53.3428V53.3428C201.247 52.2081 202.485 50.4798 203.008 48.4888C203.53 46.4979 203.299 44.3843 202.36 42.5528C202.078 41.9572 201.744 41.3882 201.36 40.8528C200.839 41.5081 200.222 42.0812 199.53 42.5528V42.5528Z" fill="black"/>
<path opacity="0.1" d="M61.8199 97.0829C62.0542 94.3673 61.8925 91.632 61.3399 88.9629C60.9121 91.7787 60.8182 94.6351 61.0599 97.4729C61.1199 98.2029 61.2199 98.9229 61.3199 99.6529C61.4399 98.7929 61.6599 97.9429 61.8199 97.0829Z" fill="black"/>
</g>
<path d="M106.5 104C109.851 98.9291 111.848 96.2213 119 95.5M151 95.5C160.068 96.7364 159.853 95.9319 164.5 104" stroke="black" stroke-width="3"/>
<path d="M130 149.5C133.967 149.988 136.165 150.098 140 149.5V159.5H135H130V149.5Z" fill="#EFEFEF"/>
<path d="M135 153.5V156.5C135.071 157.67 135.083 158.33 135 159.5" stroke="#939393" stroke-width="0.2"/>
</svg>
