<svg width="936" height="943" viewBox="0 0 936 943" fill="none" xmlns="http://www.w3.org/2000/svg">
<path d="M858 350C860.209 350 862 348.209 862 346C862 343.791 860.209 342 858 342C855.791 342 854 343.791 854 346C854 348.209 855.791 350 858 350Z" fill="#F2F2F2"/>
<path d="M735 190C737.209 190 739 188.209 739 186C739 183.791 737.209 182 735 182C732.791 182 731 183.791 731 186C731 188.209 732.791 190 735 190Z" fill="#FF9500"/>
<path d="M443.99 799C205.904 799 12.8095 863.201 12 942.5H875.981C875.171 863.201 682.077 799 443.99 799Z" fill="#F2F2F2"/>
<g opacity="0.1">
<path opacity="0.1" d="M361.99 892.222C406.173 892.222 441.99 882.273 441.99 870C441.99 857.727 406.173 847.778 361.99 847.778C317.808 847.778 281.99 857.727 281.99 870C281.99 882.273 317.808 892.222 361.99 892.222Z" fill="black"/>
</g>
<g opacity="0.1">
<path opacity="0.1" d="M534.99 852.222C579.173 852.222 614.99 842.273 614.99 830C614.99 817.727 579.173 807.778 534.99 807.778C490.807 807.778 454.99 817.727 454.99 830C454.99 842.273 490.807 852.222 534.99 852.222Z" fill="black"/>
</g>
<g opacity="0.2">
<path opacity="0.1" d="M361.99 890C401.755 890 433.99 881.046 433.99 870C433.99 858.954 401.755 850 361.99 850C322.226 850 289.99 858.954 289.99 870C289.99 881.046 322.226 890 361.99 890Z" fill="black"/>
</g>
<g opacity="0.2">
<path opacity="0.1" d="M534.99 850C574.755 850 606.99 841.046 606.99 830C606.99 818.954 574.755 810 534.99 810C495.226 810 462.99 818.954 462.99 830C462.99 841.046 495.226 850 534.99 850Z" fill="black"/>
</g>
<path d="M147.99 475C151.856 475 154.99 471.866 154.99 468C154.99 464.134 151.856 461 147.99 461C144.124 461 140.99 464.134 140.99 468C140.99 471.866 144.124 475 147.99 475Z" fill="#F2F2F2"/>
<path d="M749.99 749C753.856 749 756.99 745.866 756.99 742C756.99 738.134 753.856 735 749.99 735C746.124 735 742.99 738.134 742.99 742C742.99 745.866 746.124 749 749.99 749Z" fill="#F2F2F2"/>
<path d="M419.99 524C423.856 524 426.99 520.866 426.99 517C426.99 513.134 423.856 510 419.99 510C416.124 510 412.99 513.134 412.99 517C412.99 520.866 416.124 524 419.99 524Z" fill="#F2F2F2"/>
<path d="M513 245C516.866 245 520 241.866 520 238C520 234.134 516.866 231 513 231C509.134 231 506 234.134 506 238C506 241.866 509.134 245 513 245Z" fill="#F2F2F2"/>
<path d="M766.99 479C769.199 479 770.99 477.209 770.99 475C770.99 472.791 769.199 471 766.99 471C764.781 471 762.99 472.791 762.99 475C762.99 477.209 764.781 479 766.99 479Z" fill="#FF9500"/>
<path d="M163.99 679C166.2 679 167.99 677.209 167.99 675C167.99 672.791 166.2 671 163.99 671C161.781 671 159.99 672.791 159.99 675C159.99 677.209 161.781 679 163.99 679Z" fill="#FF9500"/>
<path d="M103.99 759.322H102.168V757.5H101.812V759.322H99.9905V759.678H101.812V761.5H102.168V759.678H103.99V759.322Z" fill="#F2F2F2"/>
<path d="M688.99 611.322H687.168V609.5H686.812V611.322H684.99V611.678H686.812V613.5H687.168V611.678H688.99V611.322Z" fill="#F2F2F2"/>
<path d="M839.99 581.322H838.168V579.5H837.812V581.322H835.99V581.678H837.812V583.5H838.168V581.678H839.99V581.322Z" fill="#F2F2F2"/>
<path d="M514.99 661.322H513.168V659.5H512.812V661.322H510.99V661.678H512.812V663.5H513.168V661.678H514.99V661.322Z" fill="#F2F2F2"/>
<path d="M795.99 671.322H794.168V669.5H793.812V671.322H791.99V671.678H793.812V673.5H794.168V671.678H795.99V671.322Z" fill="#F2F2F2"/>
<path d="M469.99 450.322H468.168V448.5H467.812V450.322H465.99V450.678H467.812V452.5H468.168V450.678H469.99V450.322Z" fill="#F2F2F2"/>
<path d="M141 80.822H139.178V79H138.822V80.822H137V81.178H138.822V83H139.178V81.178H141V80.822Z" fill="#F2F2F2"/>
<path d="M456.99 714.322H455.168V712.5H454.812V714.322H452.99V714.678H454.812V716.5H455.168V714.678H456.99V714.322Z" fill="#F2F2F2"/>
<path d="M584.99 716.322H583.168V714.5H582.812V716.322H580.99V716.678H582.812V718.5H583.168V716.678H584.99V716.322Z" fill="#F2F2F2"/>
<path d="M172 183.822H170.178V182H169.822V183.822H168V184.178H169.822V186H170.178V184.178H172V183.822Z" fill="#F2F2F2"/>
<path d="M711 256.822H709.178V255H708.822V256.822H707V257.178H708.822V259H709.178V257.178H711V256.822Z" fill="#F2F2F2"/>
<path d="M105.99 546.322H104.168V544.5H103.812V546.322H101.99V546.678H103.812V548.5H104.168V546.678H105.99V546.322Z" fill="#F2F2F2"/>
<path d="M689.862 408.689H686.987V466.753H689.862V408.689Z" fill="#E6E6E6"/>
<path d="M621.738 563.046L595.293 623.984L600.467 632.607L598.742 635.481L610.815 641.805V638.356L615.414 637.206L634.96 601.563L621.738 563.046Z" fill="#E6E6E6"/>
<path d="M601.042 634.906C601.042 634.906 581.496 665.375 603.341 669.974C625.187 674.574 607.366 637.781 607.366 637.781L601.042 634.906Z" fill="#E6E6E6"/>
<path d="M629.212 621.109L622.313 643.53L619.439 672.274L614.265 682.622L620.013 729.188L629.212 738.386L633.236 784.377V805.073L644.159 824.044L630.093 844.008C629.429 844.946 629.032 846.047 628.944 847.192C628.856 848.338 629.079 849.486 629.591 850.515C630.103 851.543 630.884 852.414 631.851 853.035C632.818 853.655 633.935 854.002 635.083 854.039C638.189 854.121 642.282 853.243 647.608 850.489C664.28 841.865 663.705 833.817 663.705 833.817C663.705 833.817 674.053 833.817 674.628 825.768C675.203 817.72 668.304 760.232 668.304 760.232L661.98 735.511V668.25H664.28L665.429 725.738L670.603 747.009L671.178 756.207L678.652 848.189C678.652 848.189 711.995 857.387 713.72 849.914C715.444 842.44 701.072 837.841 701.072 837.841L709.696 821.169V788.976L706.821 782.077L701.647 735.511L710.271 726.313L714.87 720.564V674.574L709.121 656.752L707.396 641.805L698.198 618.81C698.198 618.81 656.231 605.013 629.212 621.109Z" fill="white"/>
<path d="M703.947 491.185C703.947 498.1 702.306 504.916 699.159 511.073C696.011 517.23 691.447 522.553 685.842 526.602C680.237 530.652 673.751 533.313 666.917 534.367C660.083 535.421 653.096 534.838 646.531 532.666C639.966 530.494 634.011 526.795 629.154 521.872C624.298 516.95 620.679 510.945 618.595 504.352C616.512 497.758 616.023 490.764 617.169 483.945C618.315 477.126 621.063 470.676 625.188 465.126L625.199 465.114C630.679 457.742 638.344 452.285 647.103 449.519C655.862 446.753 665.27 446.818 673.991 449.705C682.711 452.592 690.299 458.154 695.677 465.6C701.055 473.047 703.949 482 703.947 491.185V491.185Z" fill="#FF9500"/>
<g opacity="0.1">
<path opacity="0.1" d="M697.738 473.071L694.173 493.485C667.389 423.958 624.785 466.666 624.049 467.414C628.452 461.492 634.284 456.782 640.999 453.724C647.715 450.665 655.095 449.357 662.453 449.922C669.811 450.486 676.906 452.906 683.076 456.954C689.246 461.002 694.29 466.546 697.738 473.071V473.071Z" fill="black"/>
</g>
<path d="M698.888 470.771L695.324 491.185C668.54 421.659 625.935 464.367 625.199 465.114C629.603 459.193 635.434 454.483 642.149 451.424C648.865 448.365 656.246 447.057 663.604 447.622C670.961 448.187 678.056 450.606 684.226 454.654C690.396 458.702 695.44 464.247 698.888 470.771V470.771Z" fill="white"/>
<path d="M692.898 462.153L698.888 482.943C698.888 482.943 686.455 520.206 628.802 521.505L626.912 526.828L620.588 528.553L617.714 540.625L625.762 617.085C625.762 617.085 622.313 624.559 628.062 623.984C628.062 623.984 666.004 611.336 698.773 622.834C698.773 622.834 705.671 625.708 703.947 619.385C703.947 619.385 726.942 605.013 725.217 590.066C723.493 575.119 726.942 505.557 726.942 505.557C726.942 505.557 730.391 485.436 720.043 480.837C720.043 480.837 704.845 459.565 692.898 462.153Z" fill="white"/>
<path d="M680.295 607.417C680.295 607.417 644.276 611.035 654.247 631.009C664.217 650.983 681.972 614.158 681.972 614.158L680.295 607.417Z" fill="#E6E6E6"/>
<path d="M698.772 518.205C698.772 518.205 692.449 525.678 694.748 537.751C697.048 549.823 705.671 576.843 705.671 576.843L675.202 605.012L684.4 617.66L725.792 596.389L734.99 590.64C732.703 567.388 727.012 544.598 718.098 523L716.594 519.355C716.594 519.355 705.671 514.755 698.772 518.205Z" fill="#E6E6E6"/>
<path d="M695.898 497.796C701.772 497.796 706.533 493.035 706.533 487.161C706.533 481.287 701.772 476.526 695.898 476.526C690.024 476.526 685.263 481.287 685.263 487.161C685.263 493.035 690.024 497.796 695.898 497.796Z" fill="#E6E6E6"/>
<path d="M688.425 416.163C692.711 416.163 696.186 412.688 696.186 408.402C696.186 404.115 692.711 400.641 688.425 400.641C684.139 400.641 680.664 404.115 680.664 408.402C680.664 412.688 684.139 416.163 688.425 416.163Z" fill="#E6E6E6"/>
<path d="M490.99 530.322H489.168V528.5H488.812V530.322H486.99V530.678H488.812V532.5H489.168V530.678H490.99V530.322Z" fill="#F2F2F2"/>
<path d="M654.99 474.322H653.168V472.5H652.812V474.322H650.99V474.678H652.812V476.5H653.168V474.678H654.99V474.322Z" fill="#F2F2F2"/>
<path d="M636.99 491.322H635.168V489.5H634.812V491.322H632.99V491.678H634.812V493.5H635.168V491.678H636.99V491.322Z" fill="#F2F2F2"/>
<path d="M565.99 449C568.199 449 569.99 447.209 569.99 445C569.99 442.791 568.199 441 565.99 441C563.781 441 561.99 442.791 561.99 445C561.99 447.209 563.781 449 565.99 449Z" fill="#F2F2F2"/>
<path d="M629 87C631.209 87 633 85.2091 633 83C633 80.7909 631.209 79 629 79C626.791 79 625 80.7909 625 83C625 85.2091 626.791 87 629 87Z" fill="#F2F2F2"/>
<path d="M68 271C70.2091 271 72 269.209 72 267C72 264.791 70.2091 263 68 263C65.7909 263 64 264.791 64 267C64 269.209 65.7909 271 68 271Z" fill="#F2F2F2"/>
<path d="M368.948 473.195C368.948 752.239 333.86 752.239 290.589 752.239C268.217 752.239 248.035 752.239 233.763 713.693C229.66 702.615 226.035 688.33 222.996 669.943C216.153 628.61 212.229 566.496 212.229 473.194C212.229 437.317 216.476 402.144 222.996 369.293C226.13 353.478 229.791 338.213 233.763 323.653C238.62 305.828 243.944 289.067 249.315 273.73C252.916 263.418 256.553 253.74 260.082 244.803C276.388 203.554 290.589 178 290.589 178C290.589 178 368.948 319.083 368.948 473.195Z" fill="#F2F2F2"/>
<g opacity="0.1">
<path opacity="0.1" d="M260.082 244.803V731.303H249.315V273.73C252.916 263.418 256.553 253.74 260.082 244.803Z" fill="black"/>
</g>
<path d="M288.196 413.677C311.982 413.677 331.264 394.395 331.264 370.609C331.264 346.823 311.982 327.541 288.196 327.541C264.41 327.541 245.128 346.823 245.128 370.609C245.128 394.395 264.41 413.677 288.196 413.677Z" fill="#3F3D56"/>
<path d="M382.706 725.919C373.13 702.348 360.835 698.281 352.798 698.634V694.815H227.183V698.634C219.146 698.281 206.851 702.348 197.275 725.919C181.723 764.202 206.845 830 206.845 830C206.845 830 193.419 738.233 238.004 737.629C241.865 742.666 246.603 746.964 251.99 750.319V775H323.99V752.566C331.029 748.996 337.175 743.892 341.977 737.629C386.562 738.233 373.135 830 373.135 830C373.135 830 398.258 764.202 382.706 725.919Z" fill="#FF0004"/>
<path d="M288.196 404.106C306.696 404.106 321.693 389.109 321.693 370.609C321.693 352.109 306.696 337.112 288.196 337.112C269.696 337.112 254.699 352.109 254.699 370.609C254.699 389.109 269.696 404.106 288.196 404.106Z" fill="#FF9500"/>
<path d="M856 5H854C854.144 26.6593 862.842 47.384 878.2 62.6576C893.558 77.9311 914.33 86.5155 935.99 86.54V84.54C914.86 84.5171 894.596 76.1439 879.613 61.2451C864.629 46.3462 856.142 26.1294 856 5V5Z" fill="#FF0004"/>
<path d="M819 5H817C817.152 36.4698 829.752 66.6008 852.046 88.8114C874.341 111.022 904.52 123.507 935.99 123.54V121.54C905.051 121.505 875.382 109.23 853.463 87.3951C831.543 65.56 819.154 35.9388 819 5V5Z" fill="#FF0004"/>
<path d="M781 5H779C779.25 91.36 849.58 161.54 936 161.54V159.54C850.68 159.54 781.25 90.26 781 5Z" fill="#FF0004"/>
</svg>
