<svg width="800" height="800" viewBox="0 0 800 800" fill="none" xmlns="http://www.w3.org/2000/svg">
<path d="M391.5 751C583.971 751 740 741.598 740 730C740 718.402 583.971 709 391.5 709C199.029 709 43 718.402 43 730C43 741.598 199.029 751 391.5 751Z" fill="#D0CDE1"/>
<path d="M270.107 575.536C270.107 595.012 264.331 614.051 253.511 630.245C242.691 646.439 227.311 659.06 209.318 666.513C191.324 673.966 171.525 675.917 152.423 672.117C133.321 668.317 115.775 658.939 102.003 645.167C88.2315 631.395 78.8529 613.849 75.0533 594.747C71.2537 575.646 73.2038 555.846 80.657 537.852C88.1101 519.859 100.732 504.48 116.925 493.659C133.119 482.839 152.158 477.064 171.634 477.064C184.575 477.029 197.396 479.553 209.358 484.49C221.321 489.426 232.19 496.678 241.341 505.829C250.492 514.98 257.744 525.849 262.681 537.812C267.617 549.775 270.141 562.595 270.107 575.536V575.536Z" fill="#FF6584"/>
<path d="M227.122 402.818C227.122 421.378 203.329 436.424 173.978 436.424C144.628 436.424 120.834 421.378 120.834 402.818C120.834 384.258 144.628 323.884 173.978 323.884C203.329 323.884 227.122 384.258 227.122 402.818Z" fill="#FF6584"/>
<path d="M173.588 519.657C205.96 519.657 232.203 493.414 232.203 461.042C232.203 428.67 205.96 402.427 173.588 402.427C141.216 402.427 114.973 428.67 114.973 461.042C114.973 493.414 141.216 519.657 173.588 519.657Z" fill="#FFB8B8"/>
<path d="M173.588 589.604C210.06 589.604 239.627 562.486 239.627 529.035C239.627 495.584 210.06 468.467 173.588 468.467C137.115 468.467 107.549 495.584 107.549 529.035C107.549 562.486 137.115 589.604 173.588 589.604Z" fill="#EAE6FC"/>
<path d="M222.824 487.614H188.466C184.727 487.614 181.142 486.129 178.498 483.486C175.855 480.842 174.369 477.257 174.369 473.518V473.518C174.369 471.298 174.894 469.109 175.9 467.129C176.907 465.15 178.367 463.437 180.161 462.129C181.955 460.821 184.033 459.955 186.226 459.603C188.418 459.251 190.663 459.421 192.776 460.101C218.173 468.274 242.389 473.564 256.43 454.009C256.43 458.422 255.561 462.792 253.872 466.869C252.183 470.946 249.708 474.651 246.587 477.771C243.467 480.892 239.762 483.367 235.685 485.056C231.607 486.745 227.237 487.614 222.824 487.614Z" fill="#EAE6FC"/>
<path d="M123.57 487.614H157.929C161.667 487.614 165.253 486.129 167.896 483.486C170.54 480.842 172.025 477.257 172.025 473.518V473.518C172.025 471.298 171.5 469.109 170.494 467.129C169.487 465.15 168.027 463.437 166.233 462.129C164.439 460.821 162.361 459.955 160.168 459.603C157.976 459.251 155.732 459.421 153.618 460.101C128.221 468.274 104.005 473.564 89.9641 454.009C89.9641 458.422 90.8334 462.792 92.5222 466.869C94.2111 470.946 96.6865 474.651 99.807 477.771C102.928 480.892 106.632 483.367 110.71 485.056C114.787 486.745 119.157 487.614 123.57 487.614Z" fill="#EAE6FC"/>
<path d="M173.197 481.753C179.24 481.753 184.138 476.854 184.138 470.811C184.138 464.769 179.24 459.87 173.197 459.87C167.154 459.87 162.256 464.769 162.256 470.811C162.256 476.854 167.154 481.753 173.197 481.753Z" fill="#FFB8B8"/>
<path d="M224.003 436.424H123.765C121.386 436.424 119.079 435.609 117.228 434.115C115.376 432.621 114.093 430.537 113.591 428.212L110.661 414.643C110.333 413.124 110.349 411.552 110.708 410.04C111.067 408.529 111.76 407.117 112.736 405.908C113.711 404.699 114.945 403.724 116.347 403.054C117.748 402.385 119.282 402.037 120.836 402.037H226.624C228.158 402.037 229.674 402.376 231.061 403.03C232.449 403.684 233.675 404.637 234.652 405.82C235.629 407.004 236.331 408.388 236.71 409.875C237.089 411.362 237.135 412.914 236.844 414.42L234.223 427.99C233.764 430.364 232.493 432.504 230.628 434.043C228.763 435.582 226.421 436.424 224.003 436.424V436.424Z" fill="#EAE6FC"/>
<path d="M191.172 342.641C198.942 342.641 205.24 336.342 205.24 328.573C205.24 320.804 198.942 314.505 191.172 314.505C183.403 314.505 177.105 320.804 177.105 328.573C177.105 336.342 183.403 342.641 191.172 342.641Z" fill="#EAE6FC"/>
<path d="M173.979 495.863C186.064 495.863 195.861 493.744 195.861 491.131C195.861 488.518 186.064 486.4 173.979 486.4C161.893 486.4 152.096 488.518 152.096 491.131C152.096 493.744 161.893 495.863 173.979 495.863Z" fill="#FFB8B8"/>
<path d="M267.098 599.764C264.585 609.718 260.518 619.213 255.047 627.899H88.2214C82.7497 619.213 78.6826 609.718 76.1702 599.764H267.098Z" fill="#3F3D56"/>
<path d="M196.643 638.84H146.625V588.822H196.643L196.643 638.84ZM154.44 631.025H188.828V596.638H154.44V631.025Z" fill="#EAE6FC"/>
<path d="M148.188 665.412H136.465V713.867H148.188V665.412Z" fill="#FF6584"/>
<path d="M206.021 665.412H194.298V713.867H206.021V665.412Z" fill="#FF6584"/>
<path d="M279.038 509.471L269.1 503.254L243.403 544.334L253.341 550.551L279.038 509.471Z" fill="#FF6584"/>
<path d="M214.618 719.565V696.673H188.046L194.439 719.338H194.298V731.842H224.778C224.777 728.934 223.762 726.116 221.908 723.875C220.053 721.634 217.475 720.11 214.618 719.565V719.565Z" fill="#3F3D56"/>
<path d="M128.65 719.565V696.673H155.222L148.829 719.338H148.97V731.842H118.49C118.491 728.934 119.506 726.116 121.36 723.875C123.215 721.634 125.793 720.11 128.65 719.565V719.565Z" fill="#3F3D56"/>
<path d="M287.306 487.494C282.808 483.067 277.963 487.629 274.406 492.886C273.527 490.413 272.278 488.744 271.363 488.98C270.273 489.262 270.074 492.143 270.919 495.415C271.105 496.139 271.338 496.85 271.616 497.544C270.064 500.44 269.122 502.727 269.122 502.727L264.218 508.207L278.141 517.25L281.547 510.05C281.547 510.05 295.782 495.838 287.306 487.494Z" fill="#EFDF4C"/>
<path d="M54.2926 583.057L64.2312 589.274L89.9284 548.194L79.9899 541.977L54.2926 583.057Z" fill="#FF6584"/>
<path d="M46.0247 605.034C50.5229 609.462 55.3681 604.9 58.9253 599.643C59.804 602.115 61.0534 603.784 61.9678 603.548C63.0585 603.266 63.2573 600.385 62.4118 597.113C62.2257 596.389 61.9929 595.678 61.7149 594.985C63.2673 592.088 64.2094 589.801 64.2094 589.801L69.1134 584.321L55.19 575.278L51.7837 582.479C51.7837 582.479 37.5487 596.69 46.0247 605.034Z" fill="#EFDF4C"/>
<path d="M740 668.27L655.362 521.673H688.364L615.343 395.198H668.315L591.348 261.886H630.948L530.342 87.632L429.737 261.886H469.336L392.369 395.198H445.341L372.321 521.673H405.322L320.684 668.27H487.225V723.842H558.128V668.27H740Z" fill="#37E47C"/>
<path d="M636.199 431.801C645.915 431.801 653.792 423.925 653.792 414.209C653.792 404.493 645.915 396.616 636.199 396.616C626.483 396.616 618.606 404.493 618.606 414.209C618.606 423.925 626.483 431.801 636.199 431.801Z" fill="#FF0004"/>
<path d="M624.577 413.65L620.021 406.593L620.945 405.996L624.863 412.066L632.907 406.09L640.099 413.179L647.17 407.03L653.653 414.484L652.824 415.206L647.062 408.581L640.053 414.677L632.806 407.534L624.577 413.65Z" fill="#575A89"/>
<path d="M651.169 423.858L645.361 417.18L638.348 423.279L631.105 416.14L622.887 422.246L618.373 415.252L619.178 414.733L623.136 420.867L631.192 414.881L638.389 421.974L645.455 415.828L651.892 423.229L651.169 423.858Z" fill="#575A89"/>
<path d="M637.203 383.968L636.286 397.131L637.383 397.207L638.3 384.045L637.203 383.968Z" fill="#575A89"/>
<path d="M401.453 439.467C411.169 439.467 419.045 431.59 419.045 421.874C419.045 412.158 411.169 404.281 401.453 404.281C391.737 404.281 383.86 412.158 383.86 421.874C383.86 431.59 391.737 439.467 401.453 439.467Z" fill="#FF0004"/>
<path d="M389.83 421.315L385.275 414.258L386.199 413.661L390.117 419.732L398.161 413.755L405.353 420.844L412.424 414.695L418.907 422.149L418.078 422.871L412.316 416.246L405.307 422.342L398.06 415.199L389.83 421.315Z" fill="#575A89"/>
<path d="M416.423 431.523L410.615 424.845L403.601 430.944L396.358 423.805L388.141 429.911L383.627 422.917L384.432 422.398L388.39 428.532L396.446 422.546L403.643 429.639L410.709 423.493L417.146 430.894L416.423 431.523Z" fill="#575A89"/>
<path d="M402.456 391.635L401.539 404.798L402.636 404.874L403.553 391.712L402.456 391.635Z" fill="#575A89"/>
<path d="M512.598 248.795C522.314 248.795 530.19 240.919 530.19 231.203C530.19 221.487 522.314 213.61 512.598 213.61C502.882 213.61 495.005 221.487 495.005 231.203C495.005 240.919 502.882 248.795 512.598 248.795Z" fill="#FF0004"/>
<path d="M500.975 230.644L496.42 223.586L497.344 222.99L501.262 229.06L509.306 223.084L516.498 230.173L523.569 224.023L530.052 231.478L529.223 232.199L523.461 225.574L516.452 231.67L509.205 224.527L500.975 230.644Z" fill="#575A89"/>
<path d="M527.568 240.852L521.76 234.174L514.746 240.272L507.504 233.134L499.286 239.24L494.772 232.246L495.577 231.726L499.535 237.86L507.591 231.874L514.788 238.968L521.854 232.822L528.291 240.223L527.568 240.852Z" fill="#575A89"/>
<path d="M513.602 200.962L512.685 214.125L513.782 214.201L514.699 201.039L513.602 200.962Z" fill="#575A89"/>
<path d="M619.91 563.068C629.627 563.068 637.503 555.191 637.503 545.475C637.503 535.759 629.627 527.883 619.91 527.883C610.194 527.883 602.318 535.759 602.318 545.475C602.318 555.191 610.194 563.068 619.91 563.068Z" fill="#FF0004"/>
<path d="M608.288 544.916L603.733 537.859L604.657 537.262L608.575 543.333L616.618 537.356L623.811 544.446L630.881 538.296L637.365 545.75L636.535 546.472L630.773 539.847L623.765 545.943L616.518 538.8L608.288 544.916Z" fill="#575A89"/>
<path d="M634.881 555.124L629.072 548.446L622.059 554.545L614.816 547.406L606.598 553.513L602.084 546.518L602.889 545.999L606.848 552.133L614.904 546.147L622.1 553.24L629.166 547.094L635.604 554.495L634.881 555.124Z" fill="#575A89"/>
<path d="M620.915 515.235L619.998 528.397L621.095 528.474L622.012 515.311L620.915 515.235Z" fill="#575A89"/>
<path d="M421.574 628.222C431.29 628.222 439.166 620.345 439.166 610.629C439.166 600.913 431.29 593.037 421.574 593.037C411.858 593.037 403.981 600.913 403.981 610.629C403.981 620.345 411.858 628.222 421.574 628.222Z" fill="#FF0004"/>
<path d="M409.951 610.07L405.396 603.013L406.32 602.416L410.238 608.487L418.282 602.51L425.474 609.6L432.545 603.45L439.028 610.904L438.199 611.626L432.437 605.001L425.428 611.097L418.181 603.954L409.951 610.07Z" fill="#575A89"/>
<path d="M436.544 620.278L430.736 613.6L423.722 619.699L416.479 612.56L408.262 618.667L403.748 611.672L404.553 611.153L408.511 617.287L416.567 611.301L423.764 618.394L430.83 612.248L437.267 619.649L436.544 620.278Z" fill="#575A89"/>
<path d="M422.577 580.39L421.66 593.553L422.757 593.629L423.673 580.467L422.577 580.39Z" fill="#575A89"/>
<path d="M561.463 351.317C571.179 351.317 579.056 343.441 579.056 333.725C579.056 324.008 571.179 316.132 561.463 316.132C551.747 316.132 543.871 324.008 543.871 333.725C543.871 343.441 551.747 351.317 561.463 351.317Z" fill="#FF0004"/>
<path d="M549.841 333.166L545.285 326.108L546.21 325.512L550.128 331.582L558.171 325.605L565.364 332.695L572.434 326.545L578.918 334L578.088 334.721L572.326 328.096L565.318 334.192L558.071 327.049L549.841 333.166Z" fill="#575A89"/>
<path d="M576.434 343.374L570.625 336.695L563.612 342.794L556.369 335.655L548.151 341.762L543.637 334.768L544.442 334.248L548.401 340.382L556.457 334.396L563.653 341.49L570.719 335.343L577.157 342.745L576.434 343.374Z" fill="#575A89"/>
<path d="M562.468 303.484L561.551 316.646L562.648 316.723L563.565 303.56L562.468 303.484Z" fill="#575A89"/>
<path d="M511.64 524.742C521.356 524.742 529.232 516.865 529.232 507.149C529.232 497.433 521.356 489.557 511.64 489.557C501.924 489.557 494.047 497.433 494.047 507.149C494.047 516.865 501.924 524.742 511.64 524.742Z" fill="#FF0004"/>
<path d="M500.017 506.59L495.462 499.533L496.386 498.936L500.304 505.007L508.348 499.03L515.54 506.12L522.611 499.97L529.094 507.424L528.265 508.146L522.503 501.521L515.494 507.617L508.247 500.474L500.017 506.59Z" fill="#575A89"/>
<path d="M526.61 516.798L520.802 510.12L513.788 516.219L506.545 509.08L498.328 515.187L493.814 508.192L494.619 507.673L498.577 513.807L506.633 507.821L513.83 514.914L520.896 508.768L527.333 516.169L526.61 516.798Z" fill="#575A89"/>
<path d="M512.644 476.909L511.727 490.071L512.824 490.148L513.741 476.985L512.644 476.909Z" fill="#575A89"/>
<path d="M544.184 104.87L529.201 93.627L513.878 104.402L519.941 86.678L504.958 75.435L523.688 75.724L529.751 58L535.264 75.903L553.994 76.192L538.671 86.967L544.184 104.87Z" fill="#FF0004"/>
<path d="M530.393 192.321C499.992 192.321 477.321 180.283 476.984 180.099L477.899 178.416C478.395 178.685 528.093 205.037 578.767 178.764L579.648 180.465C564.43 188.34 547.528 192.409 530.393 192.321V192.321Z" fill="#3F3D56"/>
<path d="M536.484 292.177C510.064 292.042 483.776 288.429 458.3 281.432L458.861 279.599C459.651 279.841 538.484 303.472 601.747 279.619L602.422 281.412C581.013 289.485 557.843 292.177 536.484 292.177Z" fill="#3F3D56"/>
<path d="M523.375 396.298C506.875 396.325 490.395 395.152 474.065 392.787C430.775 386.436 405.215 373.617 404.962 373.488L405.83 371.78C406.081 371.907 431.427 384.607 474.436 390.905C514.128 396.717 577.406 398.106 653.479 371.729L654.106 373.539C603.998 390.913 559.398 396.298 523.375 396.298Z" fill="#3F3D56"/>
<path d="M534.157 490.37C516.892 490.368 499.645 489.284 482.515 487.127C436.028 481.261 405.352 469.431 405.047 469.312L405.744 467.527C406.047 467.644 436.548 479.401 482.816 485.234C525.496 490.611 590.705 491.904 659 467.517L659.643 469.321C614.644 485.392 570.983 490.37 534.157 490.37Z" fill="#3F3D56"/>
<path d="M541.639 598.15C520.379 598.114 499.145 596.689 478.071 593.885C419.628 586.175 377.743 570.634 377.326 570.478L377.999 568.683C378.413 568.838 420.132 584.314 478.369 591.992C532.073 599.073 611.214 600.778 683.257 568.706L684.035 570.455C636.546 591.598 586.013 598.15 541.639 598.15Z" fill="#3F3D56"/>
<path d="M522.471 647.829H435V729.614H522.471V647.829Z" fill="#FF0004"/>
<path d="M487.92 645.642H469.551V732.238H487.92V645.642Z" fill="#EFDF4C"/>
<path d="M476.102 629.262C481.967 634.296 480.171 646.01 480.171 646.01C480.171 646.01 468.865 649.563 463 644.529C457.134 639.495 458.931 627.781 458.931 627.781C458.931 627.781 470.237 624.228 476.102 629.262Z" fill="#EFDF4C"/>
<path d="M495.574 643.423C490.558 649.304 478.838 647.544 478.838 647.544C478.838 647.544 475.251 636.249 480.266 630.368C485.282 624.487 497.001 626.247 497.001 626.247C497.001 626.247 500.589 637.542 495.574 643.423Z" fill="#EFDF4C"/>
<path d="M681.705 654.148H617V714.647H681.705V654.148Z" fill="#FF0004"/>
<path d="M656.147 652.53H642.559V716.589H656.147V652.53Z" fill="#EFDF4C"/>
<path d="M647.405 640.413C651.744 644.137 650.415 652.802 650.415 652.802C650.415 652.802 642.051 655.43 637.713 651.706C633.374 647.983 634.702 639.317 634.702 639.317C634.702 639.317 643.066 636.689 647.405 640.413Z" fill="#EFDF4C"/>
<path d="M661.808 650.888C658.098 655.239 649.429 653.937 649.429 653.937C649.429 653.937 646.775 645.582 650.485 641.231C654.195 636.881 662.865 638.182 662.865 638.182C662.865 638.182 665.519 646.538 661.808 650.888Z" fill="#EFDF4C"/>
<path d="M383.627 662.092H318.921V722.591H383.627V662.092Z" fill="#FF0004"/>
<path d="M358.068 660.474H344.48V724.532H358.068V660.474Z" fill="#EFDF4C"/>
<path d="M349.326 648.357C353.665 652.08 352.336 660.746 352.336 660.746C352.336 660.746 343.973 663.374 339.634 659.65C335.295 655.926 336.624 647.261 336.624 647.261C336.624 647.261 344.987 644.633 349.326 648.357Z" fill="#EFDF4C"/>
<path d="M363.73 658.832C360.02 663.182 351.35 661.881 351.35 661.881C351.35 661.881 348.696 653.525 352.406 649.175C356.116 644.824 364.786 646.126 364.786 646.126C364.786 646.126 367.44 654.481 363.73 658.832Z" fill="#EFDF4C"/>
<ellipse cx="153" cy="447.5" rx="5" ry="6.5" fill="#C4C4C4"/>
<ellipse cx="191" cy="447.5" rx="5" ry="6.5" fill="#C4C4C4"/>
</svg>
