<?xml version="1.0" encoding="UTF-8" standalone="no"?> <!-- Created with Vectornator for iOS (http://vectornator.io/) --><!DOCTYPE svg PUBLIC "-//W3C//DTD SVG 1.1//EN" "http://www.w3.org/Graphics/SVG/1.1/DTD/svg11.dtd">
<svg height="100%" style="fill-rule:nonzero;clip-rule:evenodd;stroke-linecap:round;stroke-linejoin:round;" xmlns:xlink="http://www.w3.org/1999/xlink" xmlns="http://www.w3.org/2000/svg" xml:space="preserve" width="100%" xmlns:vectornator="http://vectornator.io" version="1.1" viewBox="0 0 453 453">
<metadata>
<vectornator:setting key="DimensionsVisible" value="1"/>
<vectornator:setting key="PencilOnly" value="0"/>
<vectornator:setting key="SnapToPoints" value="0"/>
<vectornator:setting key="OutlineMode" value="0"/>
<vectornator:setting key="RulersVisible" value="1"/>
<vectornator:setting key="CMYKEnabledKey" value="0"/>
<vectornator:setting key="SnapToEdges" value="0"/>
<vectornator:setting key="GuidesVisible" value="1"/>
<vectornator:setting key="DisplayWhiteBackground" value="0"/>
<vectornator:setting key="doHistoryDisabled" value="0"/>
<vectornator:setting key="TimeLapseWatermarkDisabled" value="0"/>
<vectornator:setting key="SnapToGuides" value="1"/>
<vectornator:setting key="Units" value="Points"/>
<vectornator:setting key="IsolateActiveLayer" value="0"/>
<vectornator:setting key="DynamicGuides" value="0"/>
<vectornator:setting key="SnapToGrid" value="0"/>
</metadata>
<defs/>
<g id="Untitled" vectornator:layerName="Untitled">
<path d="M226.157+277.037C226.157+296.513+220.381+315.552+209.561+331.745C198.741+347.939+183.361+360.561+165.368+368.014C147.374+375.467+127.575+377.417+108.473+373.617C89.3708+369.818+71.8248+360.439+58.0528+346.668C44.2818+332.896+34.9028+315.35+31.1028+296.248C27.3038+277.146+29.2538+257.347+36.7068+239.353C44.1598+221.359+56.7818+205.98+72.9748+195.16C89.1688+184.339+108.208+178.564+127.684+178.564C140.625+178.53+153.446+181.054+165.408+185.99C177.371+190.927+188.24+198.179+197.391+207.33C206.542+216.481+213.794+227.35+218.731+239.312C223.667+251.275+226.191+264.096+226.157+277.037L226.157+277.037Z" opacity="1" fill="#ff466b"/>
<path d="M411.548+283.031C411.548+302.507+405.772+321.546+394.952+337.739C384.132+353.933+368.752+366.555+350.759+374.008C332.765+381.461+312.966+383.411+293.864+379.611C274.762+375.812+257.216+366.433+243.444+352.662C229.673+338.89+220.294+321.344+216.494+302.242C212.695+283.14+214.645+263.341+222.098+245.347C229.551+227.353+242.173+211.974+258.366+201.154C274.56+190.333+293.599+184.558+313.075+184.558C326.016+184.524+338.837+187.048+350.799+191.984C362.762+196.921+373.631+204.173+382.782+213.324C391.933+222.475+399.185+233.344+404.122+245.306C409.058+257.269+411.582+270.09+411.548+283.031L411.548+283.031Z" opacity="1" fill="#ff466b"/>
<path d="M183.173+104.319C183.173+122.879+159.379+137.925+130.029+137.925C100.678+137.925+76.8848+122.879+76.8848+104.319C76.8848+85.7586+100.678+25.3841+130.029+25.3841C159.379+25.3841+183.173+85.7586+183.173+104.319Z" opacity="1" fill="#ff466b"/>
<path d="M368.564+110.313C368.564+128.873+344.77+143.919+315.42+143.919C286.069+143.919+262.276+128.873+262.276+110.313C262.276+91.7528+286.069+31.3783+315.42+31.3783C344.77+31.3783+368.564+91.7528+368.564+110.313Z" opacity="1" fill="#ff466b"/>
<path d="M129.638+221.157C162.01+221.157+188.253+194.915+188.253+162.543C188.253+130.171+162.01+103.928+129.638+103.928C97.2658+103.928+71.0228+130.171+71.0228+162.543C71.0228+194.915+97.2658+221.157+129.638+221.157Z" opacity="1" fill="#ffb8b8"/>
<path d="M315.029+227.151C347.401+227.151+373.644+200.909+373.644+168.537C373.644+136.165+347.401+109.922+315.029+109.922C282.657+109.922+256.414+136.165+256.414+168.537C256.414+200.909+282.657+227.151+315.029+227.151Z" opacity="1" fill="#ffb8b8"/>
<path d="M129.638+291.104C154.265+291.104+149.647+281.307+161.001+262.977C166.461+254.162+195.677+241.399+195.677+230.536C195.677+197.085+166.11+169.967+129.638+169.967C93.1648+169.967+63.5988+197.085+63.5988+230.536C63.5988+244.848+88.6907+250.299+97.7401+260.664C109.842+274.526+108.769+291.104+129.638+291.104Z" opacity="1" fill="#eae6fc"/>
<path d="M315.029+297.098C339.656+297.098+335.038+287.301+346.392+268.971C351.852+260.156+381.068+247.393+381.068+236.53C381.068+203.079+351.501+175.961+315.029+175.961C278.556+175.961+248.99+203.079+248.99+236.53C248.99+250.842+274.081+256.293+283.131+266.658C295.233+280.52+294.16+297.098+315.029+297.098Z" opacity="1" fill="#eae6fc"/>
<path d="M178.874+189.115L144.516+189.115C140.777+189.115+137.192+187.63+134.548+184.986C131.905+182.343+130.419+178.757+130.419+175.019L130.419+175.019C130.419+172.798+130.944+170.609+131.95+168.63C132.957+166.651+134.417+164.937+136.211+163.629C138.005+162.321+140.083+161.456+142.276+161.104C144.468+160.751+146.713+160.922+148.826+161.601C174.223+169.774+198.439+175.065+212.48+155.509C212.48+159.922+211.611+164.292+209.922+168.369C208.233+172.447+205.758+176.151+202.637+179.272C199.517+182.393+195.812+184.868+191.735+186.557C187.657+188.246+183.287+189.115+178.874+189.115Z" opacity="1" fill="#eae6fc"/>
<path d="M364.265+195.109L329.907+195.109C326.168+195.109+322.583+193.624+319.939+190.98C317.296+188.337+315.81+184.751+315.81+181.013L315.81+181.013C315.81+178.792+316.335+176.603+317.341+174.624C318.348+172.645+319.808+170.931+321.602+169.623C323.396+168.315+325.474+167.45+327.667+167.098C329.859+166.745+332.104+166.916+334.217+167.595C359.614+175.768+383.83+181.059+397.871+161.503C397.871+165.916+397.002+170.286+395.313+174.363C393.624+178.441+391.149+182.145+388.028+185.266C384.908+188.387+381.203+190.862+377.126+192.551C373.048+194.24+368.678+195.109+364.265+195.109Z" opacity="1" fill="#eae6fc"/>
<path d="M79.6198+189.115L113.979+189.115C117.717+189.115+121.303+187.63+123.946+184.986C126.59+182.343+128.075+178.757+128.075+175.019L128.075+175.019C128.075+172.798+127.55+170.609+126.544+168.63C125.537+166.651+124.078+164.937+122.283+163.629C120.489+162.321+118.411+161.456+116.219+161.104C114.026+160.751+111.782+160.922+109.668+161.601C84.2708+169.774+60.0548+175.065+46.0138+155.509C46.0138+159.922+46.8828+164.292+48.5718+168.369C50.2608+172.447+52.7368+176.151+55.8568+179.272C58.9778+182.393+62.6818+184.868+66.7598+186.557C70.8368+188.246+75.2068+189.115+79.6198+189.115Z" opacity="1" fill="#eae6fc"/>
<path d="M265.011+195.109L299.37+195.109C303.108+195.109+306.694+193.624+309.337+190.98C311.981+188.337+313.466+184.751+313.466+181.013L313.466+181.013C313.466+178.792+312.941+176.603+311.935+174.624C310.928+172.645+309.469+170.931+307.674+169.623C305.88+168.315+303.802+167.45+301.61+167.098C299.417+166.745+297.173+166.916+295.059+167.595C269.662+175.768+245.446+181.059+231.405+161.503C231.405+165.916+232.274+170.286+233.963+174.363C235.652+178.441+238.128+182.145+241.248+185.266C244.369+188.387+248.073+190.862+252.151+192.551C256.228+194.24+260.598+195.109+265.011+195.109Z" opacity="1" fill="#eae6fc"/>
<path d="M129.247+183.253C135.29+183.253+140.189+178.355+140.189+172.312C140.189+166.269+135.29+161.371+129.247+161.371C123.204+161.371+118.306+166.269+118.306+172.312C118.306+178.355+123.204+183.253+129.247+183.253Z" opacity="1" fill="#ffb8b8"/>
<path d="M314.638+189.247C320.681+189.247+325.58+184.349+325.58+178.306C325.58+172.263+320.681+167.365+314.638+167.365C308.595+167.365+303.697+172.263+303.697+178.306C303.697+184.349+308.595+189.247+314.638+189.247Z" opacity="1" fill="#ffb8b8"/>
<path d="M180.053+137.925L79.8148+137.925C77.4358+137.925+75.1288+137.11+73.2778+135.615C71.4258+134.121+70.1428+132.038+69.6408+129.712L66.7108+116.143C66.3828+114.625+66.3988+113.052+66.7578+111.541C67.1168+110.029+67.8098+108.618+68.7858+107.409C69.7608+106.2+70.9948+105.225+72.3968+104.555C73.7978+103.885+75.3318+103.537+76.8858+103.537L182.674+103.537C184.208+103.537+185.724+103.877+187.111+104.531C188.499+105.185+189.725+106.138+190.702+107.321C191.679+108.504+192.382+109.889+192.761+111.375C193.139+112.862+193.185+114.414+192.894+115.921L190.273+129.49C189.814+131.864+188.543+134.005+186.678+135.544C184.813+137.083+182.471+137.925+180.053+137.925L180.053+137.925Z" opacity="1" fill="#eae6fc"/>
<path d="M365.444+143.919L265.206+143.919C262.827+143.919+260.52+143.104+258.669+141.609C256.817+140.115+255.534+138.032+255.032+135.706L252.102+122.137C251.774+120.619+251.79+119.046+252.149+117.535C252.508+116.023+253.201+114.612+254.177+113.403C255.152+112.194+256.386+111.219+257.788+110.549C259.189+109.879+260.723+109.531+262.277+109.531L368.065+109.531C369.599+109.531+371.115+109.871+372.502+110.525C373.89+111.179+375.116+112.132+376.093+113.315C377.07+114.498+377.773+115.883+378.152+117.369C378.53+118.856+378.576+120.408+378.285+121.915L375.664+135.484C375.205+137.858+373.934+139.999+372.069+141.538C370.204+143.077+367.862+143.919+365.444+143.919L365.444+143.919Z" opacity="1" fill="#eae6fc"/>
<path d="M147.222+44.1409C154.992+44.1409+161.29+37.8426+161.29+30.0733C161.29+22.3041+154.992+16.0058+147.222+16.0058C139.453+16.0058+133.155+22.3041+133.155+30.0733C133.155+37.8426+139.453+44.1409+147.222+44.1409Z" opacity="1" fill="#eae6fc"/>
<path d="M332.613+50.1351C340.383+50.1351+346.681+43.8368+346.681+36.0675C346.681+28.2983+340.383+22+332.613+22C324.844+22+318.546+28.2983+318.546+36.0675C318.546+43.8368+324.844+50.1351+332.613+50.1351Z" opacity="1" fill="#eae6fc"/>
<path d="M130.029+197.363C142.114+197.363+151.911+195.245+151.911+192.632C151.911+190.019+142.114+187.9+130.029+187.9C117.943+187.9+108.146+190.019+108.146+192.632C108.146+195.245+117.943+197.363+130.029+197.363Z" opacity="1" fill="#ffb8b8"/>
<path d="M315.42+203.357C327.505+203.357+337.302+201.239+337.302+198.626C337.302+196.013+327.505+193.894+315.42+193.894C303.334+193.894+293.537+196.013+293.537+198.626C293.537+201.239+303.334+203.357+315.42+203.357Z" opacity="1" fill="#ffb8b8"/>
<path d="M223.148+301.264C220.636+311.218+216.568+320.713+211.097+329.399L44.2708+329.399C38.7998+320.713+34.7328+311.218+32.2198+301.264L223.148+301.264Z" opacity="1" fill="#3f3d56"/>
<path d="M408.539+307.258C406.027+317.212+401.959+326.707+396.488+335.393L229.662+335.393C224.191+326.707+220.124+317.212+217.611+307.258L408.539+307.258Z" opacity="1" fill="#3f3d56"/>
<path d="M152.693+340.341L103.569+340.341L103.569+291.25L152.693+291.25L152.693+340.341ZM111.245+332.67L145.018+332.67L145.018+298.92L111.245+298.92L111.245+332.67Z" opacity="1" fill="#eae6fc"/>
<path d="M338.084+346.335L288.96+346.335L288.96+297.245L338.084+297.245L338.084+346.335ZM296.635+338.664L330.408+338.664L330.408+304.915L296.635+304.915L296.635+338.664Z" opacity="1" fill="#eae6fc"/>
<path d="M104.238+366.913L92.5148+366.913L92.5148+415.368L104.238+415.368L104.238+366.913Z" opacity="1" fill="#ff6584"/>
<path d="M289.629+372.907L277.906+372.907L277.906+421.362L289.629+421.362L289.629+372.907Z" opacity="1" fill="#ff6584"/>
<path d="M162.071+366.913L150.348+366.913L150.348+415.368L162.071+415.368L162.071+366.913Z" opacity="1" fill="#ff6584"/>
<path d="M347.462+372.907L335.739+372.907L335.739+421.362L347.462+421.362L347.462+372.907Z" opacity="1" fill="#ff6584"/>
<path d="M235.088+210.972L225.15+204.755L199.453+245.834L209.391+252.051L235.088+210.972Z" opacity="1" fill="#ff466b"/>
<path d="M420.479+216.966L410.541+210.749L384.844+251.828L394.782+258.045L420.479+216.966Z" opacity="1" fill="#ff466b"/>
<path d="M170.668+421.066L170.668+398.174L144.096+398.174L150.489+420.838L150.348+420.838L150.348+433.343L180.828+433.343C180.827+430.434+179.812+427.617+177.958+425.376C176.103+423.135+173.525+421.611+170.668+421.066L170.668+421.066Z" opacity="1" fill="#3f3d56"/>
<path d="M356.059+427.06L356.059+404.168L329.487+404.168L335.88+426.832L335.739+426.832L335.739+439.337L366.219+439.337C366.218+436.428+365.203+433.611+363.349+431.37C361.494+429.129+358.916+427.605+356.059+427.06L356.059+427.06Z" opacity="1" fill="#3f3d56"/>
<path d="M84.6998+421.066L84.6998+398.174L111.272+398.174L104.879+420.838L105.02+420.838L105.02+433.343L74.5398+433.343C74.5408+430.434+75.5558+427.617+77.4108+425.376C79.2648+423.135+81.8428+421.611+84.6998+421.066L84.6998+421.066Z" opacity="1" fill="#3f3d56"/>
<path d="M270.091+427.06L270.091+404.168L296.663+404.168L290.27+426.832L290.411+426.832L290.411+439.337L259.931+439.337C259.932+436.428+260.947+433.611+262.802+431.37C264.656+429.129+267.234+427.605+270.091+427.06L270.091+427.06Z" opacity="1" fill="#3f3d56"/>
<path d="M243.356+188.995C238.858+184.567+234.013+189.129+230.456+194.386C229.577+191.914+228.328+190.245+227.413+190.481C226.323+190.763+226.124+193.644+226.969+196.916C227.155+197.64+227.388+198.35+227.666+199.044C226.114+201.94+225.172+204.227+225.172+204.227L220.268+209.708L234.191+218.75L237.597+211.55C237.597+211.55+251.832+197.339+243.356+188.995Z" opacity="1" fill="#efdf4c"/>
<path d="M428.747+194.989C424.249+190.561+419.404+195.123+415.847+200.38C414.968+197.908+413.719+196.239+412.804+196.475C411.714+196.757+411.515+199.638+412.36+202.91C412.546+203.634+412.779+204.344+413.057+205.038C411.505+207.934+410.563+210.221+410.563+210.221L405.659+215.702L419.582+224.744L422.988+217.544C422.988+217.544+437.223+203.333+428.747+194.989Z" opacity="1" fill="#efdf4c"/>
<path d="M10.3428+284.557L20.2808+290.774L45.9788+249.695L36.0398+243.478L10.3428+284.557Z" opacity="1" fill="#ff466b"/>
<path d="M195.734+290.551L205.672+296.768L231.37+255.689L221.431+249.472L195.734+290.551Z" opacity="1" fill="#ff466b"/>
<path d="M2.07454+306.534C6.57284+310.962+11.4178+306.4+14.9748+301.143C15.8538+303.616+17.1028+305.284+18.0178+305.048C19.1088+304.766+19.3068+301.885+18.4618+298.613C18.2758+297.89+18.0428+297.179+17.7648+296.485C19.3168+293.589+20.2588+291.302+20.2588+291.302L25.1638+285.821L11.2398+276.779L7.83384+283.979C7.83384+283.979-6.40146+298.191+2.07454+306.534Z" opacity="1" fill="#efdf4c"/>
<path d="M187.465+312.528C191.964+316.956+196.809+312.394+200.366+307.137C201.245+309.61+202.494+311.278+203.409+311.042C204.5+310.76+204.698+307.879+203.853+304.607C203.667+303.884+203.434+303.173+203.156+302.479C204.708+299.583+205.65+297.296+205.65+297.296L210.555+291.815L196.631+282.773L193.225+289.973C193.225+289.973+178.989+304.185+187.465+312.528Z" opacity="1" fill="#efdf4c"/>
<path d="M104.05+149.001C104.05+145.411+106.288+142.501+109.05+142.501C111.811+142.501+114.05+145.411+114.05+149.001C114.05+152.591+111.811+155.501+109.05+155.501C106.288+155.501+104.05+152.591+104.05+149.001Z" opacity="1" fill="#9e9b9b"/>
<path d="M289.441+154.995C289.441+151.405+291.679+148.495+294.441+148.495C297.202+148.495+299.441+151.405+299.441+154.995C299.441+158.585+297.202+161.495+294.441+161.495C291.679+161.495+289.441+158.585+289.441+154.995Z" opacity="1" fill="#9e9b9b"/>
<path d="M142.05+149.001C142.05+145.411+144.288+142.501+147.05+142.501C149.811+142.501+152.05+145.411+152.05+149.001C152.05+152.591+149.811+155.501+147.05+155.501C144.288+155.501+142.05+152.591+142.05+149.001Z" opacity="1" fill="#9e9b9b"/>
<path d="M327.441+154.995C327.441+151.405+329.679+148.495+332.441+148.495C335.202+148.495+337.441+151.405+337.441+154.995C337.441+158.585+335.202+161.495+332.441+161.495C329.679+161.495+327.441+158.585+327.441+154.995Z" opacity="1" fill="#9e9b9b"/>
</g>
</svg>
