<?xml version="1.0" encoding="UTF-8" standalone="no"?> <!-- Created with Vectornator for iOS (http://vectornator.io/) --><!DOCTYPE svg PUBLIC "-//W3C//DTD SVG 1.1//EN" "http://www.w3.org/Graphics/SVG/1.1/DTD/svg11.dtd">
<svg height="100%" style="fill-rule:nonzero;clip-rule:evenodd;stroke-linecap:round;stroke-linejoin:round;" xmlns:xlink="http://www.w3.org/1999/xlink" xmlns="http://www.w3.org/2000/svg" xml:space="preserve" width="100%" xmlns:vectornator="http://vectornator.io" version="1.1" viewBox="0 0 453 453">
<metadata>
<vectornator:setting key="DimensionsVisible" value="1"/>
<vectornator:setting key="PencilOnly" value="0"/>
<vectornator:setting key="SnapToPoints" value="0"/>
<vectornator:setting key="OutlineMode" value="0"/>
<vectornator:setting key="RulersVisible" value="1"/>
<vectornator:setting key="CMYKEnabledKey" value="0"/>
<vectornator:setting key="SnapToEdges" value="0"/>
<vectornator:setting key="GuidesVisible" value="1"/>
<vectornator:setting key="DisplayWhiteBackground" value="0"/>
<vectornator:setting key="doHistoryDisabled" value="0"/>
<vectornator:setting key="TimeLapseWatermarkDisabled" value="0"/>
<vectornator:setting key="SnapToGuides" value="1"/>
<vectornator:setting key="Units" value="Points"/>
<vectornator:setting key="IsolateActiveLayer" value="0"/>
<vectornator:setting key="DynamicGuides" value="0"/>
<vectornator:setting key="SnapToGrid" value="0"/>
</metadata>
<defs/>
<g id="Ebene 1" vectornator:layerName="Ebene 1">
<path d="M209.459+270.615C209.459+290.091+203.683+309.13+192.863+325.323C182.043+341.517+166.663+354.139+148.67+361.592C130.676+369.045+110.877+370.995+91.7748+367.195C72.6728+363.396+55.1268+354.017+41.3548+340.246C27.5838+326.474+18.2048+308.928+14.4048+289.826C10.6058+270.724+12.5558+250.925+20.0088+232.931C27.4618+214.937+40.0838+199.558+56.2768+188.738C72.4708+177.917+91.5098+172.142+110.986+172.142C123.927+172.108+136.748+174.632+148.71+179.568C160.673+184.505+171.542+191.757+180.693+200.908C189.844+210.059+197.096+220.928+202.033+232.89C206.969+244.853+209.493+257.674+209.459+270.615L209.459+270.615Z" opacity="1" fill="#ff466b"/>
<path d="M166.475+97.8965C166.475+116.457+142.681+131.503+113.331+131.503C83.9798+131.503+60.1868+116.457+60.1868+97.8965C60.1868+79.3363+83.9798+18.9618+113.331+18.9618C142.681+18.9618+166.475+79.3363+166.475+97.8965Z" opacity="1" fill="#ff466b"/>
<path d="M112.94+214.735C145.312+214.735+171.555+188.493+171.555+156.121C171.555+123.749+145.312+97.5055+112.94+97.5055C80.5678+97.5055+54.3248+123.749+54.3248+156.121C54.3248+188.493+80.5678+214.735+112.94+214.735Z" opacity="1" fill="#ffb8b8"/>
<path d="M112.94+284.682C137.567+284.682+132.949+274.884+144.303+256.555C149.763+247.739+178.979+234.977+178.979+224.114C178.979+190.663+149.412+163.545+112.94+163.545C76.4668+163.545+46.9008+190.663+46.9008+224.114C46.9008+238.425+71.9927+243.877+81.0421+254.242C93.1441+268.103+92.0714+284.682+112.94+284.682Z" opacity="1" fill="#eae6fc"/>
<path d="M162.176+182.693L127.818+182.693C124.079+182.693+120.494+181.208+117.85+178.564C115.207+175.921+113.721+172.335+113.721+168.597L113.721+168.597C113.721+166.376+114.246+164.187+115.252+162.208C116.259+160.229+117.719+158.515+119.513+157.207C121.307+155.899+123.385+155.034+125.578+154.682C127.77+154.329+130.015+154.5+132.128+155.179C157.525+163.352+181.741+168.643+195.782+149.087C195.782+153.5+194.913+157.87+193.224+161.947C191.535+166.025+189.06+169.729+185.939+172.85C182.819+175.971+179.114+178.446+175.037+180.135C170.959+181.824+166.589+182.693+162.176+182.693Z" opacity="1" fill="#eae6fc"/>
<path d="M62.9218+182.693L97.2808+182.693C101.019+182.693+104.605+181.208+107.248+178.564C109.892+175.921+111.377+172.335+111.377+168.597L111.377+168.597C111.377+166.376+110.852+164.187+109.846+162.208C108.839+160.229+107.38+158.515+105.585+157.207C103.791+155.899+101.713+155.034+99.5208+154.682C97.3278+154.329+95.0838+154.5+92.9698+155.179C67.5728+163.352+43.3568+168.643+29.3158+149.087C29.3158+153.5+30.1848+157.87+31.8738+161.947C33.5628+166.025+36.0388+169.729+39.1588+172.85C42.2798+175.971+45.9838+178.446+50.0618+180.135C54.1388+181.824+58.5088+182.693+62.9218+182.693Z" opacity="1" fill="#eae6fc"/>
<path d="M112.549+176.831C118.592+176.831+123.491+171.933+123.491+165.89C123.491+159.847+118.592+154.949+112.549+154.949C106.506+154.949+101.608+159.847+101.608+165.89C101.608+171.933+106.506+176.831+112.549+176.831Z" opacity="1" fill="#ffb8b8"/>
<path d="M163.355+131.503L63.1168+131.503C60.7378+131.503+58.4308+130.688+56.5798+129.193C54.7278+127.699+53.4448+125.616+52.9428+123.29L50.0128+109.721C49.6848+108.203+49.7008+106.63+50.0598+105.119C50.4188+103.607+51.1118+102.196+52.0878+100.987C53.0628+99.7775+54.2968+98.8025+55.6988+98.1325C57.0998+97.4625+58.6338+97.1145+60.1878+97.1145L165.976+97.1145C167.51+97.1145+169.026+97.4545+170.413+98.1085C171.801+98.7625+173.027+99.7155+174.004+100.899C174.981+102.082+175.684+103.467+176.063+104.953C176.441+106.44+176.487+107.992+176.196+109.499L173.575+123.068C173.116+125.442+171.845+127.583+169.98+129.122C168.115+130.661+165.773+131.503+163.355+131.503L163.355+131.503Z" opacity="1" fill="#eae6fc"/>
<path d="M130.524+37.7186C138.294+37.7186+144.592+31.4203+144.592+23.651C144.592+15.8818+138.294+9.58353+130.524+9.58353C122.755+9.58353+116.457+15.8818+116.457+23.651C116.457+31.4203+122.755+37.7186+130.524+37.7186Z" opacity="1" fill="#eae6fc"/>
<path d="M113.331+190.941C125.416+190.941+135.213+188.823+135.213+186.21C135.213+183.597+125.416+181.478+113.331+181.478C101.245+181.478+91.4478+183.597+91.4478+186.21C91.4478+188.823+101.245+190.941+113.331+190.941Z" opacity="1" fill="#ffb8b8"/>
<path d="M206.45+294.842C203.938+304.796+199.87+314.291+194.399+322.977L27.5728+322.977C22.1018+314.291+18.0348+304.796+15.5218+294.842L206.45+294.842Z" opacity="1" fill="#3f3d56"/>
<path d="M135.995+333.919L86.8715+333.919L86.8715+284.828L135.995+284.828L135.995+333.919ZM94.5467+326.247L128.32+326.247L128.32+292.498L94.5467+292.498L94.5467+326.247Z" opacity="1" fill="#eae6fc"/>
<path d="M87.5398+360.491L75.8168+360.491L75.8168+408.946L87.5398+408.946L87.5398+360.491Z" opacity="1" fill="#ff6584"/>
<path d="M145.373+360.491L133.65+360.491L133.65+408.946L145.373+408.946L145.373+360.491Z" opacity="1" fill="#ff6584"/>
<path d="M218.39+204.55L208.452+198.333L182.755+239.412L192.693+245.629L218.39+204.55Z" opacity="1" fill="#ff466b"/>
<path d="M153.97+414.644L153.97+391.752L127.398+391.752L133.791+414.416L133.65+414.416L133.65+426.921L164.13+426.921C164.129+424.012+163.114+421.195+161.26+418.954C159.405+416.713+156.827+415.189+153.97+414.644L153.97+414.644Z" opacity="1" fill="#3f3d56"/>
<path d="M68.0018+414.644L68.0018+391.752L94.5738+391.752L88.1808+414.416L88.3218+414.416L88.3218+426.921L57.8418+426.921C57.8428+424.012+58.8578+421.195+60.7128+418.954C62.5668+416.713+65.1448+415.189+68.0018+414.644L68.0018+414.644Z" opacity="1" fill="#3f3d56"/>
<path d="M226.658+182.573C222.16+178.145+217.315+182.707+213.758+187.964C212.879+185.492+211.63+183.823+210.715+184.059C209.625+184.341+209.426+187.222+210.271+190.494C210.457+191.218+210.69+191.928+210.968+192.622C209.416+195.518+208.474+197.805+208.474+197.805L203.57+203.286L217.493+212.328L220.899+205.128C220.899+205.128+235.134+190.917+226.658+182.573Z" opacity="1" fill="#efdf4c"/>
<path d="M-6.35518+278.135L3.58283+284.352L29.2808+243.273L19.3418+237.056L-6.35518+278.135Z" opacity="1" fill="#ff466b"/>
<path d="M-14.6235+300.112C-10.1252+304.54-5.28017+299.978-1.72317+294.721C-0.844175+297.194+0.404825+298.862+1.31983+298.626C2.41082+298.344+2.60883+295.463+1.76383+292.191C1.57782+291.468+1.34483+290.757+1.06683+290.063C2.61882+287.167+3.56082+284.88+3.56082+284.88L8.46582+279.399L-5.45817+270.357L-8.86417+277.557C-8.86417+277.557-23.0995+291.769-14.6235+300.112Z" opacity="1" fill="#efdf4c"/>
<path d="M87.3518+142.579C87.3518+138.989+89.5904+136.079+92.3518+136.079C95.1133+136.079+97.3518+138.989+97.3518+142.579C97.3518+146.168+95.1133+149.079+92.3518+149.079C89.5904+149.079+87.3518+146.168+87.3518+142.579Z" opacity="1" fill="#9e9b9b"/>
<path d="M125.352+142.579C125.352+138.989+127.59+136.079+130.352+136.079C133.113+136.079+135.352+138.989+135.352+142.579C135.352+146.168+133.113+149.079+130.352+149.079C127.59+149.079+125.352+146.168+125.352+142.579Z" opacity="1" fill="#9e9b9b"/>
</g>
<g id="Ebene 2" vectornator:layerName="Ebene 2">
<path d="M323.776+283.031C323.776+302.507+318+321.546+307.18+337.739C296.36+353.933+280.98+366.555+262.987+374.008C244.993+381.461+225.194+383.411+206.092+379.611C186.99+375.812+169.444+366.433+155.672+352.662C141.901+338.89+132.522+321.344+128.722+302.242C124.923+283.14+126.873+263.341+134.326+245.347C141.779+227.353+154.401+211.974+170.594+201.154C186.788+190.333+205.827+184.558+225.303+184.558C238.244+184.524+251.065+187.048+263.027+191.984C274.99+196.921+285.859+204.173+295.01+213.324C304.161+222.475+311.413+233.344+316.35+245.306C321.286+257.269+323.81+270.09+323.776+283.031L323.776+283.031Z" opacity="1" fill="#ff466b"/>
<path d="M429.53+261.031C429.53+280.507+423.754+299.546+412.934+315.739C402.114+331.933+386.734+344.555+368.741+352.008C350.747+359.461+330.948+361.411+311.846+357.611C292.744+353.812+275.198+344.433+261.426+330.662C247.655+316.89+238.276+299.344+234.476+280.242C230.677+261.14+232.627+241.341+240.08+223.347C247.533+205.353+260.155+189.974+276.348+179.154C292.542+168.333+311.581+162.558+331.057+162.558C343.998+162.524+356.819+165.048+368.781+169.984C380.744+174.921+391.613+182.173+400.764+191.324C409.915+200.475+417.167+211.344+422.104+223.306C427.04+235.269+429.564+248.09+429.53+261.031L429.53+261.031Z" opacity="1" fill="#ff466b"/>
<path d="M280.792+110.313C280.792+128.873+256.998+143.919+227.648+143.919C198.297+143.919+174.504+128.873+174.504+110.313C174.504+91.7528+198.297+31.3783+227.648+31.3783C256.998+31.3783+280.792+91.7528+280.792+110.313Z" opacity="1" fill="#ff466b"/>
<path d="M386.546+88.313C386.546+106.873+362.752+121.919+333.402+121.919C304.051+121.919+280.258+106.873+280.258+88.313C280.258+69.7528+304.051+9.3783+333.402+9.3783C362.752+9.3783+386.546+69.7528+386.546+88.313Z" opacity="1" fill="#ff466b"/>
<path d="M227.257+227.151C259.629+227.151+285.872+200.909+285.872+168.537C285.872+136.165+259.629+109.922+227.257+109.922C194.885+109.922+168.642+136.165+168.642+168.537C168.642+200.909+194.885+227.151+227.257+227.151Z" opacity="1" fill="#ffb8b8"/>
<path d="M333.011+205.151C365.383+205.151+391.626+178.909+391.626+146.537C391.626+114.165+365.383+87.922+333.011+87.922C300.639+87.922+274.396+114.165+274.396+146.537C274.396+178.909+300.639+205.151+333.011+205.151Z" opacity="1" fill="#ffb8b8"/>
<path d="M227.257+297.098C251.884+297.098+247.266+287.301+258.62+268.971C264.08+260.156+293.296+247.393+293.296+236.53C293.296+203.079+263.729+175.961+227.257+175.961C190.784+175.961+161.218+203.079+161.218+236.53C161.218+250.842+186.31+256.293+195.359+266.658C207.461+280.52+206.389+297.098+227.257+297.098Z" opacity="1" fill="#eae6fc"/>
<path d="M333.011+275.098C357.639+275.098+353.02+265.301+364.374+246.971C369.835+238.156+399.05+225.393+399.05+214.53C399.05+181.079+369.483+153.961+333.011+153.961C296.538+153.961+266.972+181.079+266.972+214.53C266.972+228.842+292.064+234.293+301.113+244.658C313.215+258.52+312.143+275.098+333.011+275.098Z" opacity="1" fill="#eae6fc"/>
<path d="M276.493+195.109L242.135+195.109C238.396+195.109+234.811+193.624+232.167+190.98C229.524+188.337+228.038+184.751+228.038+181.013L228.038+181.013C228.038+178.792+228.563+176.603+229.569+174.624C230.576+172.645+232.036+170.931+233.83+169.623C235.624+168.315+237.702+167.45+239.895+167.098C242.087+166.745+244.332+166.916+246.445+167.595C271.842+175.768+296.058+181.059+310.099+161.503C310.099+165.916+309.23+170.286+307.541+174.363C305.852+178.441+303.377+182.145+300.256+185.266C297.136+188.387+293.431+190.862+289.354+192.551C285.276+194.24+280.906+195.109+276.493+195.109Z" opacity="1" fill="#eae6fc"/>
<path d="M382.247+173.109L347.889+173.109C344.15+173.109+340.565+171.624+337.921+168.98C335.278+166.337+333.792+162.751+333.792+159.013L333.792+159.013C333.792+156.792+334.317+154.603+335.323+152.624C336.33+150.645+337.79+148.931+339.584+147.623C341.378+146.315+343.456+145.45+345.649+145.098C347.841+144.745+350.086+144.916+352.199+145.595C377.596+153.768+401.812+159.059+415.853+139.503C415.853+143.916+414.984+148.286+413.295+152.363C411.606+156.441+409.131+160.145+406.01+163.266C402.89+166.387+399.185+168.862+395.108+170.551C391.03+172.24+386.66+173.109+382.247+173.109Z" opacity="1" fill="#eae6fc"/>
<path d="M177.239+195.109L211.598+195.109C215.336+195.109+218.922+193.624+221.565+190.98C224.209+188.337+225.694+184.751+225.694+181.013L225.694+181.013C225.694+178.792+225.169+176.603+224.163+174.624C223.156+172.645+221.697+170.931+219.902+169.623C218.108+168.315+216.03+167.45+213.838+167.098C211.645+166.745+209.401+166.916+207.287+167.595C181.89+175.768+157.674+181.059+143.633+161.503C143.633+165.916+144.502+170.286+146.191+174.363C147.88+178.441+150.356+182.145+153.476+185.266C156.597+188.387+160.301+190.862+164.379+192.551C168.456+194.24+172.826+195.109+177.239+195.109Z" opacity="1" fill="#eae6fc"/>
<path d="M282.993+173.109L317.352+173.109C321.09+173.109+324.676+171.624+327.319+168.98C329.963+166.337+331.448+162.751+331.448+159.013L331.448+159.013C331.448+156.792+330.923+154.603+329.917+152.624C328.91+150.645+327.451+148.931+325.656+147.623C323.862+146.315+321.784+145.45+319.592+145.098C317.399+144.745+315.155+144.916+313.041+145.595C287.644+153.768+263.428+159.059+249.387+139.503C249.387+143.916+250.256+148.286+251.945+152.363C253.634+156.441+256.11+160.145+259.23+163.266C262.351+166.387+266.055+168.862+270.133+170.551C274.21+172.24+278.58+173.109+282.993+173.109Z" opacity="1" fill="#eae6fc"/>
<path d="M226.866+189.247C232.909+189.247+237.808+184.349+237.808+178.306C237.808+172.263+232.909+167.365+226.866+167.365C220.823+167.365+215.925+172.263+215.925+178.306C215.925+184.349+220.823+189.247+226.866+189.247Z" opacity="1" fill="#ffb8b8"/>
<path d="M332.62+167.247C338.663+167.247+343.562+162.349+343.562+156.306C343.562+150.263+338.663+145.365+332.62+145.365C326.577+145.365+321.679+150.263+321.679+156.306C321.679+162.349+326.577+167.247+332.62+167.247Z" opacity="1" fill="#ffb8b8"/>
<path d="M277.672+143.919L177.434+143.919C175.055+143.919+172.748+143.104+170.897+141.609C169.045+140.115+167.762+138.032+167.26+135.706L164.33+122.137C164.002+120.619+164.018+119.046+164.377+117.535C164.736+116.023+165.429+114.612+166.405+113.403C167.38+112.194+168.614+111.219+170.016+110.549C171.417+109.879+172.951+109.531+174.505+109.531L280.293+109.531C281.827+109.531+283.343+109.871+284.73+110.525C286.118+111.179+287.344+112.132+288.321+113.315C289.298+114.498+290.001+115.883+290.38+117.369C290.758+118.856+290.804+120.408+290.513+121.915L287.892+135.484C287.433+137.858+286.162+139.999+284.297+141.538C282.432+143.077+280.09+143.919+277.672+143.919L277.672+143.919Z" opacity="1" fill="#eae6fc"/>
<path d="M383.426+121.919L283.188+121.919C280.809+121.919+278.502+121.104+276.651+119.609C274.799+118.115+273.516+116.032+273.014+113.706L270.084+100.137C269.756+98.619+269.772+97.046+270.131+95.535C270.49+94.023+271.183+92.612+272.159+91.403C273.134+90.194+274.368+89.219+275.77+88.549C277.171+87.879+278.705+87.531+280.259+87.531L386.047+87.531C387.581+87.531+389.097+87.871+390.484+88.525C391.872+89.179+393.098+90.132+394.075+91.315C395.052+92.498+395.755+93.883+396.134+95.369C396.512+96.856+396.558+98.408+396.267+99.915L393.646+113.484C393.187+115.858+391.916+117.999+390.051+119.538C388.186+121.077+385.844+121.919+383.426+121.919L383.426+121.919Z" opacity="1" fill="#eae6fc"/>
<path d="M244.841+50.1351C252.611+50.1351+258.909+43.8368+258.909+36.0675C258.909+28.2983+252.611+22+244.841+22C237.072+22+230.774+28.2983+230.774+36.0675C230.774+43.8368+237.072+50.1351+244.841+50.1351Z" opacity="1" fill="#eae6fc"/>
<path d="M350.595+28.1351C358.365+28.1351+364.663+21.8368+364.663+14.0675C364.663+6.2983+358.365+0+350.595+0C342.826+0+336.528+6.2983+336.528+14.0675C336.528+21.8368+342.826+28.1351+350.595+28.1351Z" opacity="1" fill="#eae6fc"/>
<path d="M227.648+203.357C239.733+203.357+249.53+201.239+249.53+198.626C249.53+196.013+239.733+193.894+227.648+193.894C215.562+193.894+205.765+196.013+205.765+198.626C205.765+201.239+215.562+203.357+227.648+203.357Z" opacity="1" fill="#ffb8b8"/>
<path d="M333.402+181.357C345.487+181.357+355.284+179.239+355.284+176.626C355.284+174.013+345.487+171.894+333.402+171.894C321.316+171.894+311.519+174.013+311.519+176.626C311.519+179.239+321.316+181.357+333.402+181.357Z" opacity="1" fill="#ffb8b8"/>
<path d="M320.767+307.258C318.255+317.212+314.187+326.707+308.716+335.393L141.89+335.393C136.419+326.707+132.352+317.212+129.839+307.258L320.767+307.258Z" opacity="1" fill="#3f3d56"/>
<path d="M426.521+285.258C424.009+295.212+419.941+304.707+414.47+313.393L247.644+313.393C242.173+304.707+238.106+295.212+235.593+285.258L426.521+285.258Z" opacity="1" fill="#3f3d56"/>
<path d="M250.312+346.335L201.189+346.335L201.189+297.245L250.312+297.245L250.312+346.335ZM208.864+338.664L242.637+338.664L242.637+304.915L208.864+304.915L208.864+338.664Z" opacity="1" fill="#eae6fc"/>
<path d="M356.066+324.335L306.943+324.335L306.943+275.245L356.066+275.245L356.066+324.335ZM314.618+316.664L348.391+316.664L348.391+282.915L314.618+282.915L314.618+316.664Z" opacity="1" fill="#eae6fc"/>
<path d="M201.857+372.907L190.134+372.907L190.134+421.362L201.857+421.362L201.857+372.907Z" opacity="1" fill="#ff6584"/>
<path d="M307.611+350.907L295.888+350.907L295.888+399.362L307.611+399.362L307.611+350.907Z" opacity="1" fill="#ff6584"/>
<path d="M259.69+372.907L247.967+372.907L247.967+421.362L259.69+421.362L259.69+372.907Z" opacity="1" fill="#ff6584"/>
<path d="M365.444+350.907L353.721+350.907L353.721+399.362L365.444+399.362L365.444+350.907Z" opacity="1" fill="#ff6584"/>
<path d="M332.707+216.966L322.769+210.749L297.072+251.828L307.01+258.045L332.707+216.966Z" opacity="1" fill="#ff466b"/>
<path d="M438.461+194.966L428.523+188.749L402.826+229.828L412.764+236.045L438.461+194.966Z" opacity="1" fill="#ff466b"/>
<path d="M268.287+427.06L268.287+404.168L241.715+404.168L248.108+426.832L247.967+426.832L247.967+439.337L278.447+439.337C278.446+436.428+277.431+433.611+275.577+431.37C273.722+429.129+271.144+427.605+268.287+427.06L268.287+427.06Z" opacity="1" fill="#3f3d56"/>
<path d="M374.041+405.06L374.041+382.168L347.469+382.168L353.862+404.832L353.721+404.832L353.721+417.337L384.201+417.337C384.2+414.428+383.185+411.611+381.331+409.37C379.476+407.129+376.898+405.605+374.041+405.06L374.041+405.06Z" opacity="1" fill="#3f3d56"/>
<path d="M182.319+427.06L182.319+404.168L208.891+404.168L202.498+426.832L202.639+426.832L202.639+439.337L172.159+439.337C172.16+436.428+173.175+433.611+175.03+431.37C176.884+429.129+179.462+427.605+182.319+427.06L182.319+427.06Z" opacity="1" fill="#3f3d56"/>
<path d="M288.073+405.06L288.073+382.168L314.645+382.168L308.252+404.832L308.393+404.832L308.393+417.337L277.913+417.337C277.914+414.428+278.929+411.611+280.784+409.37C282.638+407.129+285.216+405.605+288.073+405.06L288.073+405.06Z" opacity="1" fill="#3f3d56"/>
<path d="M340.975+194.989C336.477+190.561+331.632+195.123+328.075+200.38C327.196+197.908+325.947+196.239+325.032+196.475C323.942+196.757+323.743+199.638+324.588+202.91C324.774+203.634+325.007+204.344+325.285+205.038C323.733+207.934+322.791+210.221+322.791+210.221L317.887+215.702L331.81+224.744L335.216+217.544C335.216+217.544+349.451+203.333+340.975+194.989Z" opacity="1" fill="#efdf4c"/>
<path d="M446.729+172.989C442.231+168.561+437.386+173.123+433.829+178.38C432.95+175.908+431.701+174.239+430.786+174.475C429.696+174.757+429.497+177.638+430.342+180.91C430.528+181.634+430.761+182.344+431.039+183.038C429.487+185.934+428.545+188.221+428.545+188.221L423.641+193.702L437.564+202.744L440.97+195.544C440.97+195.544+455.205+181.333+446.729+172.989Z" opacity="1" fill="#efdf4c"/>
<path d="M107.962+290.551L117.9+296.768L143.598+255.689L133.659+249.472L107.962+290.551Z" opacity="1" fill="#ff466b"/>
<path d="M213.716+268.551L223.654+274.768L249.352+233.689L239.413+227.472L213.716+268.551Z" opacity="1" fill="#ff466b"/>
<path d="M99.6937+312.528C104.192+316.956+109.037+312.394+112.594+307.137C113.473+309.61+114.722+311.278+115.637+311.042C116.728+310.76+116.926+307.879+116.081+304.607C115.895+303.884+115.662+303.173+115.384+302.479C116.936+299.583+117.878+297.296+117.878+297.296L122.783+291.815L108.859+282.773L105.453+289.973C105.453+289.973+91.2177+304.185+99.6937+312.528Z" opacity="1" fill="#efdf4c"/>
<path d="M205.448+290.528C209.946+294.956+214.791+290.394+218.348+285.137C219.227+287.61+220.476+289.278+221.391+289.042C222.482+288.76+222.68+285.879+221.835+282.607C221.649+281.884+221.416+281.173+221.138+280.479C222.69+277.583+223.632+275.296+223.632+275.296L228.537+269.815L214.613+260.773L211.207+267.973C211.207+267.973+196.972+282.185+205.448+290.528Z" opacity="1" fill="#efdf4c"/>
<path d="M201.669+154.995C201.669+151.405+203.908+148.495+206.669+148.495C209.43+148.495+211.669+151.405+211.669+154.995C211.669+158.585+209.43+161.495+206.669+161.495C203.908+161.495+201.669+158.585+201.669+154.995Z" opacity="1" fill="#9e9b9b"/>
<path d="M307.423+132.995C307.423+129.405+309.662+126.495+312.423+126.495C315.185+126.495+317.423+129.405+317.423+132.995C317.423+136.585+315.185+139.495+312.423+139.495C309.662+139.495+307.423+136.585+307.423+132.995Z" opacity="1" fill="#9e9b9b"/>
<path d="M239.669+154.995C239.669+151.405+241.908+148.495+244.669+148.495C247.43+148.495+249.669+151.405+249.669+154.995C249.669+158.585+247.43+161.495+244.669+161.495C241.908+161.495+239.669+158.585+239.669+154.995Z" opacity="1" fill="#9e9b9b"/>
<path d="M345.423+132.995C345.423+129.405+347.662+126.495+350.423+126.495C353.185+126.495+355.423+129.405+355.423+132.995C355.423+136.585+353.185+139.495+350.423+139.495C347.662+139.495+345.423+136.585+345.423+132.995Z" opacity="1" fill="#9e9b9b"/>
</g>
<g id="Untitled" vectornator:layerName="Untitled">
<path d="M323.776+283.031C323.776+302.507+318+321.546+307.18+337.739C296.36+353.933+280.98+366.555+262.987+374.008C244.993+381.461+225.194+383.411+206.092+379.611C186.99+375.812+169.444+366.433+155.672+352.662C141.901+338.89+132.522+321.344+128.722+302.242C124.923+283.14+126.873+263.341+134.326+245.347C141.779+227.353+154.401+211.974+170.594+201.154C186.788+190.333+205.827+184.558+225.303+184.558C238.244+184.524+251.065+187.048+263.027+191.984C274.99+196.921+285.859+204.173+295.01+213.324C304.161+222.475+311.413+233.344+316.35+245.306C321.286+257.269+323.81+270.09+323.776+283.031L323.776+283.031Z" opacity="1" fill="#ff466b"/>
<path d="M280.792+110.313C280.792+128.873+256.998+143.919+227.648+143.919C198.297+143.919+174.504+128.873+174.504+110.313C174.504+91.7528+198.297+31.3783+227.648+31.3783C256.998+31.3783+280.792+91.7528+280.792+110.313Z" opacity="1" fill="#ff466b"/>
<path d="M227.257+227.151C259.629+227.151+285.872+200.909+285.872+168.537C285.872+136.165+259.629+109.922+227.257+109.922C194.885+109.922+168.642+136.165+168.642+168.537C168.642+200.909+194.885+227.151+227.257+227.151Z" opacity="1" fill="#ffb8b8"/>
<path d="M227.257+297.098C251.884+297.098+247.266+287.301+258.62+268.971C264.08+260.156+293.296+247.393+293.296+236.53C293.296+203.079+263.729+175.961+227.257+175.961C190.784+175.961+161.218+203.079+161.218+236.53C161.218+250.842+186.31+256.293+195.359+266.658C207.461+280.52+206.389+297.098+227.257+297.098Z" opacity="1" fill="#eae6fc"/>
<path d="M276.493+195.109L242.135+195.109C238.396+195.109+234.811+193.624+232.167+190.98C229.524+188.337+228.038+184.751+228.038+181.013L228.038+181.013C228.038+178.792+228.563+176.603+229.569+174.624C230.576+172.645+232.036+170.931+233.83+169.623C235.624+168.315+237.702+167.45+239.895+167.098C242.087+166.745+244.332+166.916+246.445+167.595C271.842+175.768+296.058+181.059+310.099+161.503C310.099+165.916+309.23+170.286+307.541+174.363C305.852+178.441+303.377+182.145+300.256+185.266C297.136+188.387+293.431+190.862+289.354+192.551C285.276+194.24+280.906+195.109+276.493+195.109Z" opacity="1" fill="#eae6fc"/>
<path d="M177.239+195.109L211.598+195.109C215.336+195.109+218.922+193.624+221.565+190.98C224.209+188.337+225.694+184.751+225.694+181.013L225.694+181.013C225.694+178.792+225.169+176.603+224.163+174.624C223.156+172.645+221.697+170.931+219.902+169.623C218.108+168.315+216.03+167.45+213.838+167.098C211.645+166.745+209.401+166.916+207.287+167.595C181.89+175.768+157.674+181.059+143.633+161.503C143.633+165.916+144.502+170.286+146.191+174.363C147.88+178.441+150.356+182.145+153.476+185.266C156.597+188.387+160.301+190.862+164.379+192.551C168.456+194.24+172.826+195.109+177.239+195.109Z" opacity="1" fill="#eae6fc"/>
<path d="M226.866+189.247C232.909+189.247+237.808+184.349+237.808+178.306C237.808+172.263+232.909+167.365+226.866+167.365C220.823+167.365+215.925+172.263+215.925+178.306C215.925+184.349+220.823+189.247+226.866+189.247Z" opacity="1" fill="#ffb8b8"/>
<path d="M277.672+143.919L177.434+143.919C175.055+143.919+172.748+143.104+170.897+141.609C169.045+140.115+167.762+138.032+167.26+135.706L164.33+122.137C164.002+120.619+164.018+119.046+164.377+117.535C164.736+116.023+165.429+114.612+166.405+113.403C167.38+112.194+168.614+111.219+170.016+110.549C171.417+109.879+172.951+109.531+174.505+109.531L280.293+109.531C281.827+109.531+283.343+109.871+284.73+110.525C286.118+111.179+287.344+112.132+288.321+113.315C289.298+114.498+290.001+115.883+290.38+117.369C290.758+118.856+290.804+120.408+290.513+121.915L287.892+135.484C287.433+137.858+286.162+139.999+284.297+141.538C282.432+143.077+280.09+143.919+277.672+143.919L277.672+143.919Z" opacity="1" fill="#eae6fc"/>
<path d="M244.841+50.1351C252.611+50.1351+258.909+43.8368+258.909+36.0675C258.909+28.2983+252.611+22+244.841+22C237.072+22+230.774+28.2983+230.774+36.0675C230.774+43.8368+237.072+50.1351+244.841+50.1351Z" opacity="1" fill="#eae6fc"/>
<path d="M227.648+203.357C239.733+203.357+249.53+201.239+249.53+198.626C249.53+196.013+239.733+193.894+227.648+193.894C215.562+193.894+205.765+196.013+205.765+198.626C205.765+201.239+215.562+203.357+227.648+203.357Z" opacity="1" fill="#ffb8b8"/>
<path d="M320.767+307.258C318.255+317.212+314.187+326.707+308.716+335.393L141.89+335.393C136.419+326.707+132.352+317.212+129.839+307.258L320.767+307.258Z" opacity="1" fill="#3f3d56"/>
<path d="M250.312+346.335L201.189+346.335L201.189+297.245L250.312+297.245L250.312+346.335ZM208.864+338.664L242.637+338.664L242.637+304.915L208.864+304.915L208.864+338.664Z" opacity="1" fill="#eae6fc"/>
<path d="M201.857+372.907L190.134+372.907L190.134+421.362L201.857+421.362L201.857+372.907Z" opacity="1" fill="#ff6584"/>
<path d="M259.69+372.907L247.967+372.907L247.967+421.362L259.69+421.362L259.69+372.907Z" opacity="1" fill="#ff6584"/>
<path d="M332.707+216.966L322.769+210.749L297.072+251.828L307.01+258.045L332.707+216.966Z" opacity="1" fill="#ff466b"/>
<path d="M268.287+427.06L268.287+404.168L241.715+404.168L248.108+426.832L247.967+426.832L247.967+439.337L278.447+439.337C278.446+436.428+277.431+433.611+275.577+431.37C273.722+429.129+271.144+427.605+268.287+427.06L268.287+427.06Z" opacity="1" fill="#3f3d56"/>
<path d="M182.319+427.06L182.319+404.168L208.891+404.168L202.498+426.832L202.639+426.832L202.639+439.337L172.159+439.337C172.16+436.428+173.175+433.611+175.03+431.37C176.884+429.129+179.462+427.605+182.319+427.06L182.319+427.06Z" opacity="1" fill="#3f3d56"/>
<path d="M340.975+194.989C336.477+190.561+331.632+195.123+328.075+200.38C327.196+197.908+325.947+196.239+325.032+196.475C323.942+196.757+323.743+199.638+324.588+202.91C324.774+203.634+325.007+204.344+325.285+205.038C323.733+207.934+322.791+210.221+322.791+210.221L317.887+215.702L331.81+224.744L335.216+217.544C335.216+217.544+349.451+203.333+340.975+194.989Z" opacity="1" fill="#efdf4c"/>
<path d="M107.962+290.551L117.9+296.768L143.598+255.689L133.659+249.472L107.962+290.551Z" opacity="1" fill="#ff466b"/>
<path d="M99.6937+312.528C104.192+316.956+109.037+312.394+112.594+307.137C113.473+309.61+114.722+311.278+115.637+311.042C116.728+310.76+116.926+307.879+116.081+304.607C115.895+303.884+115.662+303.173+115.384+302.479C116.936+299.583+117.878+297.296+117.878+297.296L122.783+291.815L108.859+282.773L105.453+289.973C105.453+289.973+91.2177+304.185+99.6937+312.528Z" opacity="1" fill="#efdf4c"/>
<path d="M201.669+154.995C201.669+151.405+203.908+148.495+206.669+148.495C209.43+148.495+211.669+151.405+211.669+154.995C211.669+158.585+209.43+161.495+206.669+161.495C203.908+161.495+201.669+158.585+201.669+154.995Z" opacity="1" fill="#9e9b9b"/>
<path d="M239.669+154.995C239.669+151.405+241.908+148.495+244.669+148.495C247.43+148.495+249.669+151.405+249.669+154.995C249.669+158.585+247.43+161.495+244.669+161.495C241.908+161.495+239.669+158.585+239.669+154.995Z" opacity="1" fill="#9e9b9b"/>
</g>
</svg>
