<svg width="453" height="453" viewBox="0 0 453 453" fill="none" xmlns="http://www.w3.org/2000/svg">
<path d="M323.776 283.031C323.776 302.507 318 321.546 307.18 337.739C296.36 353.933 280.98 366.555 262.987 374.008C244.993 381.461 225.194 383.411 206.092 379.611C186.99 375.812 169.444 366.433 155.672 352.662C141.901 338.89 132.522 321.344 128.722 302.242C124.923 283.14 126.873 263.341 134.326 245.347C141.779 227.353 154.401 211.974 170.594 201.154C186.788 190.333 205.827 184.558 225.303 184.558C238.244 184.524 251.065 187.048 263.027 191.984C274.99 196.921 285.859 204.173 295.01 213.324C304.161 222.475 311.413 233.344 316.35 245.306C321.286 257.269 323.81 270.09 323.776 283.031V283.031Z" fill="#FF6584"/>
<path d="M280.792 110.313C280.792 128.873 256.998 143.919 227.648 143.919C198.297 143.919 174.504 128.873 174.504 110.313C174.504 91.7528 198.297 31.3783 227.648 31.3783C256.998 31.3783 280.792 91.7528 280.792 110.313Z" fill="#FF6584"/>
<path d="M227.257 227.151C259.629 227.151 285.872 200.909 285.872 168.537C285.872 136.165 259.629 109.922 227.257 109.922C194.885 109.922 168.642 136.165 168.642 168.537C168.642 200.909 194.885 227.151 227.257 227.151Z" fill="#FFB8B8"/>
<path d="M227.257 297.098C263.729 297.098 293.296 269.981 293.296 236.53C293.296 203.079 263.729 175.961 227.257 175.961C190.784 175.961 161.218 203.079 161.218 236.53C161.218 269.981 190.784 297.098 227.257 297.098Z" fill="#EAE6FC"/>
<path d="M276.493 195.109H242.135C238.396 195.109 234.811 193.624 232.167 190.98C229.524 188.337 228.038 184.751 228.038 181.013V181.013C228.038 178.792 228.563 176.603 229.569 174.624C230.576 172.645 232.036 170.931 233.83 169.623C235.624 168.315 237.702 167.45 239.895 167.098C242.087 166.745 244.332 166.916 246.445 167.595C271.842 175.768 296.058 181.059 310.099 161.503C310.099 165.916 309.23 170.286 307.541 174.363C305.852 178.441 303.377 182.145 300.256 185.266C297.136 188.387 293.431 190.862 289.354 192.551C285.276 194.24 280.906 195.109 276.493 195.109Z" fill="#EAE6FC"/>
<path d="M177.239 195.109H211.598C215.336 195.109 218.922 193.624 221.565 190.98C224.209 188.337 225.694 184.751 225.694 181.013V181.013C225.694 178.792 225.169 176.603 224.163 174.624C223.156 172.645 221.697 170.931 219.902 169.623C218.108 168.315 216.03 167.45 213.838 167.098C211.645 166.745 209.401 166.916 207.287 167.595C181.89 175.768 157.674 181.059 143.633 161.503C143.633 165.916 144.502 170.286 146.191 174.363C147.88 178.441 150.356 182.145 153.476 185.266C156.597 188.387 160.301 190.862 164.379 192.551C168.456 194.24 172.826 195.109 177.239 195.109Z" fill="#EAE6FC"/>
<path d="M226.866 189.247C232.909 189.247 237.808 184.349 237.808 178.306C237.808 172.263 232.909 167.365 226.866 167.365C220.823 167.365 215.925 172.263 215.925 178.306C215.925 184.349 220.823 189.247 226.866 189.247Z" fill="#FFB8B8"/>
<path d="M277.672 143.919H177.434C175.055 143.919 172.748 143.104 170.897 141.609C169.045 140.115 167.762 138.032 167.26 135.706L164.33 122.137C164.002 120.619 164.018 119.046 164.377 117.535C164.736 116.023 165.429 114.612 166.405 113.403C167.38 112.194 168.614 111.219 170.016 110.549C171.417 109.879 172.951 109.531 174.505 109.531H280.293C281.827 109.531 283.343 109.871 284.73 110.525C286.118 111.179 287.344 112.132 288.321 113.315C289.298 114.498 290.001 115.883 290.38 117.369C290.758 118.856 290.804 120.408 290.513 121.915L287.892 135.484C287.433 137.858 286.162 139.999 284.297 141.538C282.432 143.077 280.09 143.919 277.672 143.919V143.919Z" fill="#EAE6FC"/>
<path d="M244.841 50.1351C252.611 50.1351 258.909 43.8368 258.909 36.0675C258.909 28.2983 252.611 22 244.841 22C237.072 22 230.774 28.2983 230.774 36.0675C230.774 43.8368 237.072 50.1351 244.841 50.1351Z" fill="#EAE6FC"/>
<path d="M227.648 203.357C239.733 203.357 249.53 201.239 249.53 198.626C249.53 196.013 239.733 193.894 227.648 193.894C215.562 193.894 205.765 196.013 205.765 198.626C205.765 201.239 215.562 203.357 227.648 203.357Z" fill="#FFB8B8"/>
<path d="M320.767 307.258C318.255 317.212 314.187 326.707 308.716 335.393H141.89C136.419 326.707 132.352 317.212 129.839 307.258H320.767Z" fill="#3F3D56"/>
<path d="M250.312 346.335H200.294V296.317H250.312L250.312 346.335ZM208.109 338.519H242.497V304.132H208.109V338.519Z" fill="#EAE6FC"/>
<path d="M201.857 372.907H190.134V421.362H201.857V372.907Z" fill="#FF6584"/>
<path d="M259.69 372.907H247.967V421.362H259.69V372.907Z" fill="#FF6584"/>
<path d="M332.707 216.966L322.769 210.749L297.072 251.828L307.01 258.045L332.707 216.966Z" fill="#FF6584"/>
<path d="M268.287 427.06V404.168H241.715L248.108 426.832H247.967V439.337H278.447C278.446 436.428 277.431 433.611 275.577 431.37C273.722 429.129 271.144 427.605 268.287 427.06V427.06Z" fill="#3F3D56"/>
<path d="M182.319 427.06V404.168H208.891L202.498 426.832H202.639V439.337H172.159C172.16 436.428 173.175 433.611 175.03 431.37C176.884 429.129 179.462 427.605 182.319 427.06V427.06Z" fill="#3F3D56"/>
<path d="M340.975 194.989C336.477 190.561 331.632 195.123 328.075 200.38C327.196 197.908 325.947 196.239 325.032 196.475C323.942 196.757 323.743 199.638 324.588 202.91C324.774 203.634 325.007 204.344 325.285 205.038C323.733 207.934 322.791 210.221 322.791 210.221L317.887 215.702L331.81 224.744L335.216 217.544C335.216 217.544 349.451 203.333 340.975 194.989Z" fill="#EFDF4C"/>
<path d="M107.962 290.551L117.9 296.768L143.598 255.689L133.659 249.472L107.962 290.551Z" fill="#FF6584"/>
<path d="M99.6937 312.528C104.192 316.956 109.037 312.394 112.594 307.137C113.473 309.61 114.722 311.278 115.637 311.042C116.728 310.76 116.926 307.879 116.081 304.607C115.895 303.884 115.662 303.173 115.384 302.479C116.936 299.583 117.878 297.296 117.878 297.296L122.783 291.815L108.859 282.773L105.453 289.973C105.453 289.973 91.2177 304.185 99.6937 312.528Z" fill="#EFDF4C"/>
<ellipse cx="206.669" cy="154.995" rx="5" ry="6.5" fill="#C4C4C4"/>
<ellipse cx="244.669" cy="154.995" rx="5" ry="6.5" fill="#C4C4C4"/>
</svg>
