<svg width="480" height="480" viewBox="0 0 480 480" fill="none" xmlns="http://www.w3.org/2000/svg">
<path d="M276.252 333.139H259.752C258.521 333.137 257.304 332.884 256.174 332.394C255.045 331.905 254.027 331.19 253.184 330.293C252.337 329.395 251.686 328.332 251.27 327.17C250.855 326.008 250.685 324.772 250.771 323.541C250.966 321.227 252.031 319.073 253.752 317.513C255.473 315.954 257.721 315.106 260.043 315.139H263.752V295.139H285.752V323.639C285.749 326.158 284.747 328.573 282.966 330.354C281.185 332.135 278.771 333.136 276.252 333.139V333.139Z" fill="#CCCCCC"/>
<path d="M258.169 245.243L238.268 243.249C235.368 242.956 232.702 241.523 230.857 239.265C229.012 237.008 228.139 234.11 228.43 231.209C228.72 228.307 230.151 225.64 232.407 223.793C234.663 221.946 237.56 221.071 240.461 221.358L260.362 223.352C262.526 223.569 264.578 224.423 266.258 225.806C267.937 227.189 269.169 229.039 269.797 231.122C270.425 233.205 270.421 235.427 269.786 237.508C269.151 239.589 267.913 241.435 266.229 242.812C265.734 243.218 265.204 243.581 264.645 243.895C262.678 245.003 260.415 245.474 258.169 245.243V245.243Z" fill="#CCCCCC"/>
<path d="M208.022 229.164C208.16 227.792 208.566 226.46 209.218 225.245C209.87 224.03 210.755 222.956 211.822 222.083C212.89 221.21 214.119 220.555 215.439 220.157C216.759 219.759 218.145 219.625 219.517 219.763L220.66 219.689L218.895 217.979C218.659 217.75 218.471 217.478 218.34 217.177C218.21 216.875 218.14 216.551 218.135 216.223C218.13 215.895 218.189 215.569 218.31 215.264C218.431 214.958 218.611 214.68 218.839 214.444C219.068 214.208 219.34 214.02 219.642 213.89C219.943 213.759 220.267 213.689 220.595 213.684C220.923 213.679 221.249 213.738 221.555 213.859C221.86 213.98 222.138 214.16 222.374 214.388L227.396 219.254L234.995 218.764C235.535 218.729 236.077 218.804 236.587 218.985C237.098 219.166 237.566 219.448 237.964 219.815C238.362 220.182 238.681 220.626 238.903 221.12C239.124 221.614 239.243 222.148 239.252 222.689L239.551 240.671C239.561 241.278 239.433 241.879 239.176 242.43C238.919 242.98 238.54 243.464 238.068 243.847C237.596 244.229 237.043 244.498 236.451 244.635C235.859 244.771 235.244 244.771 234.652 244.635L217.423 240.658C214.652 240.381 212.105 239.014 210.342 236.858C208.579 234.702 207.745 231.935 208.022 229.164V229.164Z" fill="#3F3D56"/>
<path d="M287.752 309.639C310.672 309.639 329.252 287.254 329.252 259.639C329.252 232.025 310.672 209.639 287.752 209.639C264.832 209.639 246.252 232.025 246.252 259.639C246.252 287.254 264.832 309.639 287.752 309.639Z" fill="#E6E6E6"/>
<path d="M264.252 259.639C265.909 259.639 267.252 257.356 267.252 254.539C267.252 251.723 265.909 249.439 264.252 249.439C262.595 249.439 261.252 251.723 261.252 254.539C261.252 257.356 262.595 259.639 264.252 259.639Z" fill="#3F3D56"/>
<path d="M263.252 273.839C264.909 273.839 266.252 271.556 266.252 268.739C266.252 265.923 264.909 263.639 263.252 263.639C261.595 263.639 260.252 265.923 260.252 268.739C260.252 271.556 261.595 273.839 263.252 273.839Z" fill="#3F3D56"/>
<path d="M287.252 220.639C304.925 220.639 319.252 206.312 319.252 188.639C319.252 170.966 304.925 156.639 287.252 156.639C269.579 156.639 255.252 170.966 255.252 188.639C255.252 206.312 269.579 220.639 287.252 220.639Z" fill="#E6E6E6"/>
<path d="M314.252 179.139H261.252C259.529 179.137 257.876 178.452 256.658 177.233C255.439 176.015 254.754 174.363 254.752 172.639V167.639C254.752 150.797 271.802 135.139 290.252 135.139C308.701 135.139 319.752 150.797 319.752 167.639V173.639C319.75 175.097 319.17 176.495 318.139 177.527C317.108 178.558 315.71 179.138 314.252 179.139Z" fill="#FFD732"/>
<path d="M309.154 236.997L307.75 256.948C307.545 259.858 306.193 262.568 303.99 264.481C301.787 266.394 298.915 267.354 296.005 267.149C294.564 267.048 293.157 266.663 291.864 266.018C290.572 265.373 289.419 264.48 288.472 263.389C286.559 261.186 285.599 258.314 285.804 255.404L287.208 235.453C287.36 233.283 288.153 231.207 289.486 229.487C290.819 227.767 292.631 226.482 294.695 225.792C296.758 225.103 298.98 225.041 301.079 225.614C303.178 226.187 305.059 227.37 306.486 229.012C306.906 229.496 307.284 230.015 307.615 230.563C308.781 232.497 309.318 234.745 309.154 236.997V236.997Z" fill="#CCCCCC"/>
<path d="M294.565 287.598C293.19 287.501 291.847 287.134 290.613 286.518C289.379 285.902 288.279 285.05 287.375 284.009C286.471 282.968 285.781 281.759 285.344 280.451C284.907 279.143 284.732 277.762 284.828 276.386L284.721 275.246L283.064 277.061C282.843 277.304 282.576 277.501 282.278 277.641C281.981 277.781 281.659 277.861 281.33 277.877C281.002 277.892 280.673 277.842 280.364 277.731C280.055 277.619 279.771 277.447 279.528 277.225C279.285 277.004 279.089 276.736 278.949 276.439C278.81 276.141 278.731 275.818 278.716 275.49C278.702 275.161 278.752 274.833 278.865 274.524C278.977 274.215 279.149 273.932 279.372 273.689L284.087 268.525L283.372 260.944C283.321 260.405 283.38 259.862 283.546 259.346C283.711 258.831 283.98 258.354 284.335 257.946C284.69 257.537 285.124 257.205 285.612 256.969C286.099 256.733 286.629 256.598 287.17 256.573L305.134 255.742C305.741 255.714 306.346 255.825 306.904 256.065C307.461 256.306 307.957 256.67 308.353 257.131C308.749 257.591 309.034 258.136 309.188 258.724C309.342 259.311 309.361 259.926 309.241 260.522L305.777 277.861C305.581 280.639 304.29 283.225 302.188 285.051C300.085 286.877 297.343 287.793 294.565 287.598V287.598Z" fill="#3F3D56"/>
<path d="M291.252 143.639C295.67 143.639 299.252 140.058 299.252 135.639C299.252 131.221 295.67 127.639 291.252 127.639C286.834 127.639 283.252 131.221 283.252 135.639C283.252 140.058 286.834 143.639 291.252 143.639Z" fill="#FF0016"/>
<path d="M279.752 189.139C281.409 189.139 282.752 187.796 282.752 186.139C282.752 184.482 281.409 183.139 279.752 183.139C278.095 183.139 276.752 184.482 276.752 186.139C276.752 187.796 278.095 189.139 279.752 189.139Z" fill="#3F3D56"/>
<path d="M262.752 189.139C264.409 189.139 265.752 187.796 265.752 186.139C265.752 184.482 264.409 183.139 262.752 183.139C261.095 183.139 259.752 184.482 259.752 186.139C259.752 187.796 261.095 189.139 262.752 189.139Z" fill="#3F3D56"/>
<path d="M312.752 333.139H296.252C293.733 333.136 291.319 332.135 289.538 330.354C287.757 328.573 286.755 326.158 286.752 323.639V295.139H308.752V315.139H312.461C314.783 315.106 317.031 315.954 318.752 317.513C320.473 319.073 321.538 321.227 321.733 323.541C321.819 324.772 321.649 326.008 321.233 327.17C320.818 328.332 320.166 329.395 319.32 330.293C318.476 331.19 317.459 331.905 316.33 332.394C315.2 332.884 313.983 333.137 312.752 333.139V333.139Z" fill="#CCCCCC"/>
<path d="M167.132 254.276L153.903 239.276C151.974 237.088 150.992 234.223 151.175 231.311C151.358 228.399 152.69 225.679 154.878 223.749C157.066 221.82 159.931 220.838 162.842 221.021C165.754 221.204 168.474 222.536 170.404 224.724L183.632 239.724C185.071 241.355 185.994 243.377 186.284 245.533C186.574 247.69 186.218 249.883 185.261 251.837C184.304 253.791 182.79 255.418 180.909 256.511C179.027 257.604 176.864 258.114 174.693 257.978C174.054 257.938 173.419 257.843 172.796 257.694C170.6 257.168 168.621 255.973 167.132 254.276V254.276Z" fill="#CCCCCC"/>
<path d="M141.319 208.375V208.375C142.353 207.463 143.557 206.763 144.861 206.316C146.166 205.869 147.546 205.684 148.922 205.77C150.298 205.857 151.644 206.213 152.882 206.82C154.12 207.426 155.227 208.271 156.139 209.305L157.027 210.029L156.897 207.574C156.88 207.247 156.927 206.919 157.036 206.609C157.146 206.3 157.315 206.015 157.535 205.771C157.754 205.526 158.02 205.328 158.316 205.187C158.612 205.045 158.933 204.963 159.261 204.946C159.589 204.928 159.917 204.976 160.226 205.085C160.536 205.195 160.821 205.364 161.065 205.583C161.309 205.803 161.507 206.068 161.649 206.365C161.791 206.661 161.872 206.982 161.89 207.31L162.26 214.293L168.163 219.103C168.582 219.445 168.928 219.869 169.179 220.349C169.43 220.828 169.581 221.354 169.624 221.894C169.666 222.433 169.598 222.976 169.424 223.489C169.25 224.001 168.974 224.473 168.612 224.876L156.598 238.258C156.192 238.71 155.689 239.064 155.126 239.292C154.563 239.521 153.956 239.618 153.35 239.577C152.744 239.536 152.155 239.357 151.629 239.054C151.102 238.752 150.651 238.333 150.311 237.831L140.389 223.195C138.547 221.106 137.61 218.371 137.785 215.592C137.959 212.813 139.23 210.217 141.319 208.375V208.375Z" fill="#FF0016"/>
<path d="M176.092 319.957C182.203 316.745 183.199 306.612 178.316 297.323C173.434 288.035 164.522 283.109 158.411 286.321C152.301 289.533 151.305 299.667 156.187 308.955C161.07 318.244 169.981 323.17 176.092 319.957Z" fill="#CCCCCC"/>
<path d="M201.252 323.139C224.172 323.139 242.752 300.754 242.752 273.139C242.752 245.525 224.172 223.139 201.252 223.139C178.332 223.139 159.752 245.525 159.752 273.139C159.752 300.754 178.332 323.139 201.252 323.139Z" fill="#E6E6E6"/>
<path d="M190.382 323.312C196.622 320.358 198.04 310.275 193.55 300.791C189.06 291.306 180.362 286.013 174.122 288.966C167.882 291.92 166.464 302.004 170.954 311.488C175.444 320.972 184.142 326.266 190.382 323.312Z" fill="#CCCCCC"/>
<path d="M164.752 271.139C166.409 271.139 167.752 268.856 167.752 266.039C167.752 263.223 166.409 260.939 164.752 260.939C163.095 260.939 161.752 263.223 161.752 266.039C161.752 268.856 163.095 271.139 164.752 271.139Z" fill="#3F3D56"/>
<path d="M170.645 253.831C171.389 251.115 170.697 248.558 169.099 248.12C167.5 247.683 165.602 249.531 164.858 252.247C164.115 254.964 164.807 257.521 166.405 257.958C168.003 258.396 169.902 256.548 170.645 253.831Z" fill="#3F3D56"/>
<path d="M164.752 284.339C166.409 284.339 167.752 282.056 167.752 279.239C167.752 276.423 166.409 274.139 164.752 274.139C163.095 274.139 161.752 276.423 161.752 279.239C161.752 282.056 163.095 284.339 164.752 284.339Z" fill="#3F3D56"/>
<path d="M200.752 234.139C218.425 234.139 232.752 219.812 232.752 202.139C232.752 184.466 218.425 170.139 200.752 170.139C183.079 170.139 168.752 184.466 168.752 202.139C168.752 219.812 183.079 234.139 200.752 234.139Z" fill="#E6E6E6"/>
<path d="M227.752 192.639H174.752C173.029 192.637 171.376 191.952 170.158 190.733C168.939 189.515 168.254 187.863 168.252 186.139V181.139C168.252 164.297 182.302 130.639 200.752 130.639C219.201 130.639 233.252 164.297 233.252 181.139V187.139C233.25 188.597 232.67 189.995 231.639 191.027C230.608 192.058 229.21 192.638 227.752 192.639V192.639Z" fill="#FF0016"/>
<path d="M220.035 263.769C219.395 263.769 218.755 263.713 218.124 263.603C215.981 263.229 213.996 262.229 212.421 260.727C210.847 259.226 209.753 257.292 209.277 255.168C208.802 253.045 208.967 250.829 209.751 248.8C210.536 246.77 211.904 245.019 213.684 243.768L230.044 232.263C232.43 230.585 235.385 229.923 238.26 230.424C241.134 230.925 243.691 232.547 245.369 234.933C247.048 237.32 247.709 240.275 247.208 243.149C246.708 246.023 245.086 248.581 242.699 250.259L226.34 261.764C224.496 263.068 222.294 263.768 220.035 263.769Z" fill="#CCCCCC"/>
<path d="M262.137 223.141V223.141C261.344 222.013 260.336 221.052 259.172 220.314C258.007 219.575 256.709 219.073 255.351 218.837C253.992 218.6 252.6 218.633 251.255 218.934C249.909 219.236 248.636 219.799 247.508 220.592L246.476 221.089L247.174 218.733C247.268 218.418 247.299 218.087 247.265 217.761C247.232 217.434 247.134 217.117 246.977 216.827C246.821 216.538 246.609 216.283 246.353 216.076C246.098 215.869 245.804 215.714 245.489 215.621C245.174 215.528 244.844 215.497 244.517 215.532C244.19 215.566 243.873 215.665 243.584 215.822C243.296 215.979 243.041 216.191 242.834 216.447C242.628 216.703 242.474 216.997 242.381 217.312L240.393 224.017L233.533 227.319C233.045 227.554 232.61 227.886 232.254 228.294C231.898 228.701 231.628 229.177 231.462 229.692C231.295 230.208 231.235 230.751 231.284 231.29C231.334 231.829 231.493 232.353 231.75 232.829L240.316 248.642C240.605 249.176 241.012 249.637 241.506 249.99C242 250.344 242.568 250.58 243.167 250.681C243.766 250.782 244.38 250.745 244.963 250.574C245.545 250.402 246.081 250.1 246.53 249.691L259.589 237.77C261.867 236.168 263.415 233.726 263.893 230.983C264.371 228.239 263.739 225.419 262.137 223.141V223.141Z" fill="#FF0016"/>
<path d="M198.752 138.139C203.17 138.139 206.752 134.558 206.752 130.139C206.752 125.721 203.17 122.139 198.752 122.139C194.334 122.139 190.752 125.721 190.752 130.139C190.752 134.558 194.334 138.139 198.752 138.139Z" fill="#FF0016"/>
<path d="M183.752 202.139C185.409 202.139 186.752 200.796 186.752 199.139C186.752 197.482 185.409 196.139 183.752 196.139C182.095 196.139 180.752 197.482 180.752 199.139C180.752 200.796 182.095 202.139 183.752 202.139Z" fill="#3F3D56"/>
<path d="M172.752 202.139C174.409 202.139 175.752 200.796 175.752 199.139C175.752 197.482 174.409 196.139 172.752 196.139C171.095 196.139 169.752 197.482 169.752 199.139C169.752 200.796 171.095 202.139 172.752 202.139Z" fill="#3F3D56"/>
<path d="M273.094 198.071C273.065 198.071 273.037 198.071 273.008 198.07L245.414 196.863C245.096 196.883 244.782 196.791 244.525 196.603C244.268 196.416 244.085 196.144 244.007 195.835C243.93 195.262 244.383 194.758 245.11 194.608L271.493 189.178C271.905 189.093 272.333 189.146 272.71 189.33C272.874 189.403 273.019 189.513 273.133 189.652C273.247 189.79 273.328 189.954 273.368 190.128L274.579 196.765C274.606 196.941 274.585 197.121 274.517 197.286C274.45 197.451 274.339 197.594 274.197 197.701C273.883 197.948 273.493 198.079 273.094 198.071V198.071Z" fill="#FF6584"/>
<path d="M273.89 201.257C269.755 201.257 265.878 198.625 265.878 200.829C265.878 203.034 269.755 209.24 273.89 209.24C278.025 209.24 281.752 204.887 281.752 202.682C281.752 200.478 278.025 201.257 273.89 201.257Z" fill="white"/>
<path d="M181.89 215.257C177.755 215.257 173.878 212.625 173.878 214.829C173.878 217.034 177.755 223.24 181.89 223.24C186.025 223.24 189.752 218.887 189.752 216.682C189.752 214.478 186.025 215.257 181.89 215.257Z" fill="white"/>
<path d="M179.802 211.571C179.778 211.571 179.753 211.571 179.728 211.57L155.97 210.43C155.686 210.439 155.408 210.346 155.186 210.169C154.964 209.991 154.813 209.74 154.759 209.46C154.74 209.183 154.828 208.908 155.004 208.693C155.181 208.478 155.433 208.338 155.708 208.302L178.424 203.176C178.779 203.096 179.152 203.146 179.472 203.319C179.617 203.394 179.744 203.5 179.842 203.631C179.94 203.762 180.007 203.913 180.039 204.073L181.081 210.338C181.105 210.501 181.088 210.668 181.031 210.823C180.973 210.977 180.877 211.115 180.752 211.222C180.489 211.452 180.151 211.576 179.802 211.571Z" fill="#FF6584"/>
<path d="M459.752 368.139H62.252C50.9842 368.127 40.1815 363.645 32.214 355.677C24.2465 347.71 19.7647 336.907 19.752 325.639C19.752 324.313 20.2787 323.041 21.2164 322.104C22.1541 321.166 23.4259 320.639 24.752 320.639C26.078 320.639 27.3498 321.166 28.2875 322.104C29.2252 323.041 29.752 324.313 29.752 325.639C29.7617 334.256 33.189 342.517 39.2818 348.609C45.3746 354.702 53.6354 358.13 62.252 358.139H459.752C461.078 358.139 462.35 358.666 463.287 359.604C464.225 360.541 464.752 361.813 464.752 363.139C464.752 364.465 464.225 365.737 463.287 366.675C462.35 367.613 461.078 368.139 459.752 368.139Z" fill="#A0616A"/>
<path d="M420.252 322.139H88.252C86.2628 322.139 84.3552 322.929 82.9486 324.336C81.5421 325.743 80.752 327.65 80.752 329.639C80.752 331.628 81.5421 333.536 82.9486 334.943C84.3552 336.349 86.2628 337.139 88.252 337.139H120.752V355.139C120.752 357.526 121.7 359.815 123.388 361.503C125.076 363.191 127.365 364.139 129.752 364.139C132.139 364.139 134.428 363.191 136.116 361.503C137.804 359.815 138.752 357.526 138.752 355.139V337.139H243.752V355.139C243.752 357.526 244.7 359.815 246.388 361.503C248.076 363.191 250.365 364.139 252.752 364.139C255.139 364.139 257.428 363.191 259.116 361.503C260.804 359.815 261.752 357.526 261.752 355.139V337.139H366.752V355.139C366.752 357.526 367.7 359.815 369.388 361.503C371.076 363.191 373.365 364.139 375.752 364.139C378.139 364.139 380.428 363.191 382.116 361.503C383.804 359.815 384.752 357.526 384.752 355.139V337.139H420.252C422.241 337.139 424.149 336.349 425.555 334.943C426.962 333.536 427.752 331.628 427.752 329.639C427.752 327.65 426.962 325.743 425.555 324.336C424.149 322.929 422.241 322.139 420.252 322.139Z" fill="#A0616A"/>
</svg>
