<svg width="908" height="908" viewBox="0 0 908 908" fill="none" xmlns="http://www.w3.org/2000/svg">
<path d="M810.23 438.796C790.158 448.763 778.363 451.357 754.91 442.878L732.314 444.545L815.071 610.582L810.23 438.796Z" fill="#F69119" stroke="#F69119"/>
<path opacity="0.2" d="M813.891 550.674L809.629 440.246C790.681 449.618 777.624 452.45 755.696 443.596L748.198 443.783" stroke="black" stroke-width="3"/>
<circle cx="649.333" cy="578.397" r="13" transform="rotate(-54.5627 649.333 578.397)" fill="#F69119"/>
<path d="M627.188 558.353C622.82 563.234 620.173 569.407 619.653 575.931C619.133 582.454 620.767 588.967 624.306 594.475C627.846 599.982 633.095 604.18 639.252 606.427C645.408 608.674 652.133 608.845 658.398 606.916C664.662 604.987 670.122 601.062 673.941 595.743C677.76 590.423 679.729 584.002 679.546 577.461C679.364 570.92 677.039 564.619 672.929 559.522C668.819 554.425 663.149 550.813 656.786 549.237C651.489 547.927 645.934 548.084 640.719 549.69C635.504 551.296 630.826 554.291 627.188 558.353V558.353ZM661.147 581.018C660.689 583.108 659.697 585.045 658.268 586.639C657.979 586.961 657.672 587.262 657.358 587.551C655.161 589.544 652.322 590.687 649.354 590.774C646.386 590.861 643.486 589.886 641.175 588.025C638.865 586.164 637.298 583.54 636.756 580.626C636.214 577.713 636.734 574.701 638.222 572.136C639.709 569.571 642.066 567.621 644.867 566.639C647.669 565.656 650.729 565.705 653.497 566.777C656.264 567.85 658.556 569.874 659.959 572.486C661.362 575.097 661.783 578.124 661.147 581.018Z" fill="#F69119"/>
<path opacity="0.2" d="M670.446 597.091C665.246 602.893 657.989 606.448 650.21 607.003C642.431 607.557 634.742 605.068 628.771 600.063C629.006 600.286 629.246 600.507 629.489 600.725C632.427 603.35 635.853 605.371 639.574 606.673C643.294 607.976 647.235 608.534 651.172 608.315C655.109 608.097 658.964 607.106 662.517 605.4C666.071 603.694 669.253 601.306 671.882 598.373C674.51 595.439 676.535 592.017 677.839 588.303C679.142 584.588 679.701 580.654 679.481 576.725C679.261 572.795 678.268 568.948 676.558 565.402C674.848 561.856 672.455 558.681 669.516 556.059C669.272 555.841 669.025 555.628 668.776 555.419C674.423 560.786 677.755 568.137 678.067 575.916C678.379 583.694 675.645 591.288 670.446 597.091V597.091Z" fill="black"/>
<path opacity="0.2" d="M637.117 567.218C634.913 569.676 633.489 572.73 633.025 575.995C632.56 579.26 633.076 582.589 634.507 585.56C635.938 588.532 638.221 591.013 641.065 592.69C643.909 594.367 647.188 595.163 650.487 594.98C653.785 594.796 656.955 593.64 659.596 591.658C662.236 589.676 664.229 586.956 665.321 583.844C666.413 580.732 666.556 577.366 665.732 574.173C664.908 570.98 663.153 568.103 660.691 565.905C657.388 562.966 653.052 561.453 648.633 561.699C644.214 561.945 640.073 563.93 637.117 567.218V567.218ZM657.29 569.1C659.749 571.296 661.233 574.378 661.416 577.667C661.599 580.956 660.467 584.183 658.267 586.639C657.978 586.961 657.671 587.262 657.358 587.552C655.577 589.166 653.365 590.23 650.99 590.616C648.616 591.001 646.18 590.691 643.979 589.724C641.777 588.756 639.904 587.172 638.587 585.163C637.269 583.154 636.563 580.807 636.554 578.406C636.545 576.005 637.234 573.652 638.537 571.633C639.84 569.615 641.701 568.016 643.895 567.031C646.09 566.046 648.523 565.718 650.9 566.085C653.277 566.452 655.497 567.499 657.29 569.1V569.1Z" fill="black"/>
<path d="M672.963 413.771C632.564 408.4 591.597 417.998 557.787 440.753C523.977 463.509 499.662 497.85 489.429 537.298C479.195 576.747 483.75 618.577 502.235 654.898C520.719 691.219 551.855 719.522 589.77 734.467C627.685 749.412 669.759 749.967 708.055 736.027C746.351 722.087 778.223 694.616 797.659 658.795C817.095 622.973 822.751 581.278 813.562 541.574C804.372 501.869 780.972 466.899 747.774 443.259C725.615 427.476 699.932 417.353 672.963 413.771ZM719.822 586.434C718.235 601.548 711.715 615.718 701.269 626.756C690.823 637.793 677.032 645.083 662.029 647.498C647.025 649.914 631.643 647.321 618.261 640.121C604.878 632.92 594.24 621.512 587.989 607.66C581.738 593.809 580.223 578.284 583.679 563.485C587.134 548.686 595.367 535.437 607.105 525.785C618.844 516.134 633.434 510.617 648.622 510.087C663.809 509.557 678.749 514.043 691.131 522.853C701.144 529.934 709.084 539.562 714.128 550.74C719.172 561.918 721.138 574.241 719.822 586.434Z" fill="#F79119"/>
<path opacity="0.2" d="M778.018 670.163C752.884 705.481 714.99 729.63 672.362 737.496C629.733 745.362 585.716 736.328 549.632 712.307C551.069 713.401 552.528 714.475 554.009 715.531C571.86 728.241 592.041 737.311 613.398 742.221C634.754 747.131 656.869 747.786 678.479 744.148C700.089 740.51 720.771 732.651 739.343 721.019C757.915 709.387 774.014 694.21 786.72 676.356C799.426 658.502 808.491 638.319 813.396 616.961C818.3 595.603 818.95 573.488 815.307 551.878C811.664 530.269 803.799 509.59 792.163 491.02C780.526 472.451 765.346 456.356 747.488 443.654C746.005 442.598 744.51 441.571 743.003 440.571C777.523 466.793 800.481 505.421 807.017 548.275C813.553 591.129 803.152 634.844 778.018 670.163V670.163Z" fill="black"/>
<path opacity="0.2" d="M583.199 530.928C573.653 544.344 568.299 560.289 567.815 576.747C567.331 593.205 571.738 609.437 580.479 623.391C589.22 637.344 601.902 648.392 616.922 655.138C631.942 661.884 648.624 664.025 664.861 661.289C681.097 658.554 696.158 651.066 708.138 639.771C720.119 628.476 728.481 613.883 732.168 597.836C735.855 581.789 734.7 565.009 728.851 549.618C723.001 534.227 712.719 520.916 699.304 511.368C681.306 498.59 658.973 493.473 637.207 497.14C615.44 500.807 596.017 512.958 583.199 530.928V530.928ZM719.822 586.434C718.235 601.548 711.714 615.719 701.268 626.756C690.822 637.793 677.032 645.083 662.028 647.499C647.025 649.915 631.643 647.322 618.26 640.121C604.878 632.92 594.239 621.513 587.988 607.661C581.738 593.809 580.223 578.284 583.678 563.485C587.134 548.686 595.367 535.437 607.105 525.786C618.843 516.134 633.434 510.617 648.621 510.087C663.809 509.557 678.748 514.044 691.131 522.854C701.144 529.935 709.083 539.562 714.127 550.74C719.172 561.919 721.138 574.242 719.822 586.434V586.434Z" fill="black"/>
<path opacity="0.2" d="M540.675 499.974C524.45 522.775 515.16 549.741 513.979 577.459C512.798 605.177 519.779 632.404 534.04 655.697C548.301 678.989 569.202 697.301 594.098 708.317C618.995 719.333 646.77 722.558 673.91 717.585C701.051 712.611 726.339 699.663 746.576 680.376C766.813 661.089 781.091 636.331 787.604 609.232C794.117 582.133 792.572 553.909 783.166 528.131C773.759 502.353 756.913 480.177 734.757 464.408C705.03 443.304 667.901 435.197 631.515 441.864C595.13 448.531 562.461 469.43 540.675 499.974V499.974ZM767.272 590.318C764.282 615.798 753.086 639.802 735.414 658.621C717.741 677.44 694.577 690.025 669.499 694.432C644.422 698.84 618.827 694.824 596.672 683.005C574.516 671.187 557.032 652.223 546.922 629.045C536.811 605.867 534.637 579.765 540.736 554.773C546.834 529.78 560.866 507.288 580.662 490.773C600.458 474.258 624.917 464.639 650.258 463.402C675.6 462.165 700.414 469.379 720.865 483.93C737.404 495.623 750.426 511.651 758.585 530.355C766.744 549.06 769.743 569.761 767.272 590.318V590.318Z" fill="black"/>
<path d="M595.577 535.045C586.067 547.088 580.769 561.909 580.492 577.241C580.215 592.572 584.974 607.571 594.043 619.943C603.111 632.315 615.989 641.378 630.707 645.747C645.425 650.116 661.172 649.551 675.541 644.136C689.91 638.722 702.109 628.758 710.272 615.767C718.435 602.776 722.113 587.474 720.743 572.201C719.374 556.928 713.032 542.526 702.688 531.196C692.344 519.866 678.567 512.233 663.464 509.464C650.891 507.162 637.926 508.328 625.964 512.835C614.002 517.342 603.497 525.021 595.577 535.045V535.045ZM678.238 583.169C677.468 588.123 675.428 592.795 672.315 596.729C671.687 597.525 671.012 598.272 670.321 598.994C665.47 603.972 658.997 607.054 652.071 607.684C645.145 608.314 638.223 606.451 632.553 602.431C626.884 598.411 622.841 592.499 621.155 585.762C619.469 579.025 620.251 571.907 623.359 565.694C626.467 559.48 631.697 554.581 638.105 551.879C644.512 549.177 651.675 548.852 658.3 550.962C664.925 553.071 670.576 557.477 674.232 563.383C677.888 569.289 679.309 576.307 678.238 583.169Z" fill="#F69119"/>
<path opacity="0.2" d="M620.067 554.35C615.269 560.414 612.38 567.763 611.764 575.466C611.149 583.169 612.835 590.881 616.609 597.626C620.383 604.37 626.076 609.845 632.968 613.357C639.86 616.869 647.64 618.261 655.326 617.357C663.011 616.453 670.256 613.292 676.144 608.276C682.032 603.26 686.299 596.614 688.404 589.177C690.51 581.74 690.36 573.848 687.973 566.498C685.586 559.149 681.069 552.671 674.995 547.886C666.849 541.486 656.493 538.573 646.197 539.784C635.901 540.996 626.505 546.234 620.067 554.35V554.35ZM667.504 555.847C673.569 560.631 677.483 567.625 678.385 575.291C679.287 582.957 677.104 590.669 672.315 596.73C671.686 597.525 671.012 598.272 670.321 598.995C666.389 603.027 661.371 605.835 655.875 607.078C650.379 608.321 644.64 607.947 639.354 606C634.067 604.053 629.46 600.618 626.089 596.109C622.719 591.601 620.73 586.213 620.364 580.598C619.997 574.983 621.269 569.381 624.024 564.472C626.78 559.563 630.901 555.556 635.89 552.937C640.878 550.318 646.519 549.199 652.13 549.716C657.741 550.232 663.081 552.362 667.504 555.847V555.847Z" fill="black"/>
<path opacity="0.9" d="M728.705 464.277C791.926 509.268 806.705 596.991 761.714 660.212C716.723 723.434 628.999 738.212 565.778 693.221C502.556 648.23 487.778 560.507 532.769 497.285C577.76 434.064 665.483 419.286 728.705 464.277ZM573.51 682.355C630.731 723.076 710.127 709.7 750.848 652.48C791.568 595.26 778.192 515.863 720.972 475.143C663.752 434.422 584.355 447.798 543.635 505.018C502.914 562.238 516.29 641.635 573.51 682.355Z" fill="#E6E6E6"/>
<path opacity="0.9" d="M721.292 479.867C771.914 515.892 781.411 589.416 742.504 644.088C703.597 698.76 631.02 713.876 580.398 677.852C529.776 641.827 520.279 568.302 559.185 513.631C598.092 458.959 670.67 443.842 721.292 479.867ZM587.994 667.177C633.157 699.318 697.909 685.831 732.621 637.055C767.332 588.278 758.859 522.682 713.696 490.541C668.532 458.401 603.78 471.887 569.069 520.664C534.357 569.441 542.83 635.037 587.994 667.177Z" fill="#E6E6E6"/>
<path opacity="0.9" d="M688.353 522.704C718.726 544.319 725.566 586.828 703.631 617.652C681.696 648.475 639.292 655.94 608.919 634.325C578.545 612.71 571.705 570.2 593.64 539.377C615.575 508.554 657.979 501.089 688.353 522.704ZM614.122 627.013C640.516 645.796 677.365 639.309 696.426 612.524C715.487 585.739 709.543 548.799 683.149 530.016C656.755 511.233 619.906 517.72 600.845 544.505C581.784 571.29 587.728 608.23 614.122 627.013Z" fill="#E6E6E6"/>
<path opacity="0.9" d="M562.1 650.101C540.802 605.889 582.747 491.736 588.717 482.483C594.688 473.231 608.982 636.825 612.829 642.631C616.675 648.437 634.096 473.046 638.005 481.351C641.913 489.656 660.998 684.237 666.507 693.105C672.017 701.972 693.175 487.474 693.175 487.474C693.245 485.682 719.569 643.754 728.795 647.833C738.021 651.912 755.928 522.246 748.445 517.601" stroke="#E6E6E6" stroke-width="10"/>
<path d="M642.898 221.266C620.56 219.477 609.112 215.629 593.37 196.286L573.141 186.083L558.613 371.031L642.898 221.266Z" fill="#F69119" stroke="#F69119"/>
<path opacity="0.2" d="M588.442 319.065L641.637 222.2C620.568 220.48 607.916 216.186 593.675 197.306L587.151 193.607" stroke="black" stroke-width="3"/>
<circle cx="433.093" cy="258.117" r="13" transform="rotate(-23.5785 433.093 258.117)" fill="#F69119"/>
<path d="M424.427 229.533C418.17 231.469 412.723 235.399 408.918 240.723C405.114 246.048 403.162 252.473 403.361 259.017C403.561 265.56 405.9 271.862 410.021 276.958C414.143 282.053 419.819 285.662 426.183 287.233C432.547 288.804 439.248 288.25 445.261 285.656C451.273 283.062 456.267 278.57 459.478 272.869C462.688 267.167 463.939 260.568 463.04 254.083C462.14 247.597 459.139 241.581 454.495 236.955C450.628 233.105 445.785 230.38 440.487 229.072C435.189 227.764 429.637 227.924 424.427 229.533V229.533ZM441.872 266.446C440.404 268.002 438.557 269.152 436.51 269.783C436.097 269.91 435.679 270.01 435.261 270.097C432.351 270.674 429.329 270.192 426.74 268.739C424.151 267.286 422.166 264.957 421.143 262.172C420.121 259.387 420.128 256.33 421.164 253.554C422.199 250.777 424.195 248.463 426.791 247.03C429.387 245.596 432.411 245.138 435.319 245.738C438.226 246.337 440.824 247.955 442.645 250.299C444.466 252.643 445.389 255.559 445.247 258.52C445.105 261.481 443.908 264.292 441.872 266.446Z" fill="#F69119"/>
<path opacity="0.2" d="M441.57 285.012C434.125 287.31 426.073 286.621 419.119 283.092C412.165 279.563 406.854 273.471 404.312 266.106C404.398 266.419 404.49 266.731 404.587 267.044C405.754 270.806 407.651 274.303 410.17 277.335C412.689 280.366 415.78 282.874 419.268 284.713C422.755 286.552 426.57 287.688 430.495 288.054C434.42 288.421 438.377 288.012 442.141 286.85C445.905 285.689 449.402 283.797 452.432 281.284C455.462 278.771 457.966 275.685 459.8 272.204C461.635 268.722 462.764 264.912 463.124 260.992C463.483 257.072 463.066 253.118 461.896 249.356C461.799 249.044 461.697 248.734 461.591 248.427C463.669 255.936 462.742 263.953 459.005 270.782C455.268 277.611 449.015 282.714 441.57 285.012V285.012Z" fill="black"/>
<path opacity="0.2" d="M428.375 242.245C425.221 243.217 422.427 245.102 420.348 247.662C418.269 250.222 416.998 253.342 416.695 256.626C416.392 259.911 417.072 263.213 418.647 266.114C420.222 269.016 422.623 271.387 425.545 272.928C428.468 274.468 431.781 275.109 435.065 274.769C438.349 274.429 441.457 273.123 443.996 271.018C446.534 268.912 448.39 266.1 449.327 262.938C450.264 259.776 450.241 256.406 449.261 253.255C447.943 249.034 445.004 245.505 441.089 243.442C437.174 241.378 432.602 240.947 428.375 242.245V242.245ZM444.701 254.243C445.678 257.392 445.364 260.798 443.828 263.712C442.292 266.626 439.659 268.809 436.509 269.783C436.096 269.91 435.678 270.01 435.26 270.097C432.902 270.564 430.458 270.338 428.224 269.446C425.99 268.554 424.061 267.034 422.672 265.071C421.283 263.108 420.493 260.786 420.397 258.386C420.301 255.985 420.904 253.609 422.133 251.546C423.362 249.483 425.163 247.821 427.319 246.761C429.476 245.701 431.894 245.289 434.283 245.574C436.671 245.859 438.926 246.83 440.775 248.369C442.624 249.907 443.988 251.948 444.701 254.243V254.243Z" fill="black"/>
<path d="M538.101 129.147C506.232 103.745 466.169 90.8825 425.469 92.9857C384.769 95.0889 346.245 112.012 317.163 140.564C288.082 169.115 270.453 207.321 267.601 247.975C264.75 288.63 276.873 328.923 301.684 361.254C326.495 393.586 362.279 415.721 402.287 423.485C442.295 431.249 483.762 424.105 518.865 403.401C553.969 382.697 580.283 349.863 592.845 311.093C605.407 272.323 603.348 230.296 587.056 192.94C576.184 168.001 559.378 146.101 538.101 129.147ZM489.387 301.295C480.246 313.435 467.361 322.227 452.723 326.312C438.085 330.397 422.51 329.547 408.404 323.894C394.297 318.241 382.445 308.1 374.679 295.037C366.913 281.975 363.665 266.718 365.437 251.625C367.209 236.531 373.903 222.442 384.484 211.534C395.065 200.625 408.943 193.505 423.975 191.274C439.008 189.042 454.356 191.823 467.65 199.188C480.943 206.552 491.441 218.089 497.521 232.017C502.46 243.242 504.31 255.583 502.88 267.763C501.45 279.943 496.792 291.519 489.387 301.295Z" fill="#F79119"/>
<path opacity="0.2" d="M496.175 403.037C456.445 420.376 411.527 421.571 370.931 406.369C330.336 391.168 297.25 360.763 278.681 321.593C279.35 323.271 280.048 324.943 280.774 326.61C289.535 346.697 302.167 364.861 317.948 380.065C333.73 395.269 352.352 407.215 372.752 415.221C393.151 423.228 414.927 427.137 436.838 426.726C458.748 426.314 480.362 421.591 500.447 412.825C520.531 404.06 538.692 391.423 553.893 375.638C569.093 359.852 581.034 341.227 589.036 320.826C597.037 300.425 600.94 278.647 600.524 256.737C600.108 234.827 595.379 213.214 586.608 193.131C585.88 191.462 585.127 189.812 584.351 188.179C600.446 228.43 600.242 273.365 583.784 313.469C567.326 353.573 535.905 385.696 496.175 403.037V403.037Z" fill="black"/>
<path opacity="0.2" d="M400.833 183.376C385.743 189.963 372.945 200.876 364.057 214.737C355.169 228.597 350.591 244.782 350.902 261.244C351.212 277.706 356.397 293.707 365.801 307.223C375.204 320.738 388.405 331.162 403.733 337.175C419.06 343.189 435.827 344.522 451.913 341.007C467.998 337.491 482.68 329.285 494.102 317.426C505.524 305.566 513.172 290.586 516.081 274.38C518.989 258.174 517.026 241.469 510.441 226.378C501.589 206.157 485.078 190.274 464.529 182.212C443.981 174.15 421.073 174.569 400.833 183.376V183.376ZM489.387 301.295C480.245 313.436 467.361 322.227 452.723 326.312C438.085 330.397 422.51 329.547 408.404 323.894C394.297 318.241 382.445 308.1 374.679 295.037C366.913 281.975 363.665 266.718 365.437 251.625C367.209 236.532 373.903 222.442 384.484 211.534C395.064 200.625 408.943 193.505 423.975 191.274C439.008 189.042 454.356 191.824 467.649 199.188C480.943 206.552 491.441 218.09 497.521 232.017C502.46 243.242 504.31 255.583 502.88 267.763C501.45 279.943 496.792 291.52 489.387 301.295V301.295Z" fill="black"/>
<path opacity="0.2" d="M380.312 134.946C354.664 146.142 332.817 164.477 317.535 187.632C302.253 210.787 294.222 237.723 294.458 265.034C294.693 292.344 303.184 318.803 318.857 341.064C334.53 363.325 356.681 380.388 382.509 390.096C408.338 399.805 436.683 401.722 463.961 395.605C491.24 389.489 516.226 375.614 535.76 355.734C555.295 335.855 568.5 310.863 573.706 283.921C578.912 256.978 575.886 229.295 565.01 204.37C550.389 170.974 522.731 144.908 488.105 131.893C453.48 118.878 414.713 119.976 380.312 134.946V134.946ZM528.066 329.052C512.386 349.357 490.43 364.172 465.591 371.208C440.753 378.244 414.414 377.108 390.646 367.977C366.878 358.845 347.003 342.226 334.093 320.688C321.183 299.15 315.957 273.892 319.221 248.816C322.485 223.741 334.059 200.244 352.154 181.957C370.248 163.671 393.856 151.612 419.33 147.644C444.803 143.677 470.724 148.021 493.086 160.007C515.448 171.992 533.008 190.951 543.05 213.954C551.209 232.493 554.122 252.938 551.488 273.174C548.854 293.409 540.768 312.7 528.066 329.052V329.052Z" fill="black"/>
<path d="M409.326 193.277C394.973 198.706 382.801 208.684 374.67 221.686C366.54 234.687 362.899 249.996 364.305 265.271C365.71 280.546 372.085 294.946 382.453 306.268C392.822 317.591 406.613 325.213 421.719 327.968C436.825 330.723 452.413 328.461 466.099 321.526C479.785 314.591 490.815 303.366 497.504 289.567C504.192 275.769 506.17 260.157 503.134 245.118C500.099 230.08 492.217 216.444 480.695 206.295C471.101 197.849 459.386 192.174 446.811 189.88C434.235 187.586 421.275 188.761 409.326 193.277V193.277ZM455.417 277.088C452.207 280.94 448.053 283.894 443.359 285.665C442.411 286.023 441.448 286.316 440.483 286.58C433.762 288.35 426.626 287.66 420.364 284.635C414.102 281.609 409.126 276.448 406.335 270.083C403.544 263.718 403.122 256.569 405.145 249.925C407.168 243.281 411.502 237.582 417.365 233.855C423.229 230.128 430.235 228.62 437.119 229.602C444.003 230.585 450.311 233.993 454.905 239.213C459.498 244.432 462.075 251.118 462.169 258.063C462.263 265.009 459.868 271.757 455.417 277.088Z" fill="#F69119"/>
<path opacity="0.2" d="M420.383 222.435C413.148 225.165 406.888 229.977 402.395 236.264C397.901 242.551 395.377 250.03 395.14 257.756C394.904 265.481 396.966 273.105 401.066 279.664C405.166 286.223 411.12 291.422 418.175 294.603C425.229 297.784 433.067 298.805 440.697 297.535C448.327 296.266 455.407 292.764 461.04 287.473C466.674 282.181 470.608 275.338 472.345 267.808C474.083 260.278 473.545 252.4 470.801 245.171C467.112 235.49 459.734 227.662 450.283 223.4C440.833 219.138 430.081 218.791 420.383 222.435V222.435ZM460.28 248.14C463.017 255.363 462.772 263.374 459.599 270.411C456.426 277.447 450.584 282.934 443.358 285.665C442.41 286.023 441.447 286.317 440.483 286.58C435.036 288.013 429.289 287.837 423.937 286.073C418.585 284.31 413.858 281.034 410.328 276.644C406.798 272.254 404.617 266.936 404.048 261.336C403.48 255.736 404.549 250.093 407.125 245.09C409.701 240.088 413.675 235.94 418.565 233.15C423.454 230.36 429.05 229.047 434.675 229.369C440.3 229.692 445.712 231.637 450.257 234.968C454.801 238.3 458.283 242.875 460.28 248.14V248.14Z" fill="black"/>
<path opacity="0.9" d="M559.888 201.141C590.927 272.259 558.437 355.073 487.319 386.112C416.202 417.151 333.387 384.66 302.349 313.543C271.31 242.425 303.8 159.611 374.918 128.572C446.036 97.533 528.85 130.024 559.888 201.141ZM314.572 308.208C342.664 372.575 417.618 401.981 481.985 373.889C546.352 345.796 575.758 270.843 547.665 206.476C519.573 142.109 444.62 112.702 380.253 140.795C315.886 168.887 286.479 243.841 314.572 308.208Z" fill="#E6E6E6"/>
<path opacity="0.9" d="M545.508 210.691C570.361 267.636 540.652 335.558 479.152 362.399C417.651 389.241 347.648 364.837 322.795 307.892C297.942 250.947 327.65 183.025 389.151 156.184C450.651 129.343 520.655 153.746 545.508 210.691ZM334.802 302.652C356.976 353.456 419.431 375.229 474.3 351.281C529.168 327.334 555.674 266.736 533.5 215.932C511.327 165.127 448.872 143.355 394.003 167.302C339.134 191.249 312.629 251.847 334.802 302.652Z" fill="#E6E6E6"/>
<path opacity="0.9" d="M495.216 230.458C510.128 264.625 494.108 304.59 459.435 319.723C424.762 334.856 384.565 319.426 369.654 285.259C354.742 251.092 370.761 211.127 405.434 195.994C440.108 180.861 480.304 196.291 495.216 230.458ZM377.879 281.669C390.837 311.36 425.767 324.768 455.898 311.618C486.028 298.468 499.949 263.739 486.991 234.048C474.033 204.358 439.102 190.949 408.972 204.099C378.841 217.249 364.921 251.979 377.879 281.669Z" fill="#E6E6E6"/>
<path opacity="0.9" d="M321.393 274.682C325.895 225.815 420.621 149.543 430.503 144.684C440.385 139.826 368.421 287.435 368.73 294.393C369.039 301.35 474.265 159.955 473.34 169.087C472.416 178.219 388.607 354.86 388.765 365.298C388.924 375.737 517.487 202.737 517.487 202.737C518.469 201.238 459.661 350.305 465.471 358.552C471.28 366.799 553.385 264.854 549.361 257.019" stroke="#E6E6E6" stroke-width="10"/>
<path d="M416.614 616.751C396.191 607.524 386.715 600.036 378.43 576.514L362.834 560.079L286.706 729.258L416.614 616.751Z" fill="#F69119" stroke="#F69119"/>
<path opacity="0.2" d="M332.331 690.416L415.11 617.204C395.86 608.471 385.401 600.157 378.372 577.577L373.48 571.892" stroke="black" stroke-width="3"/>
<circle cx="206.688" cy="580.59" r="13" transform="rotate(-3.84273 206.688 580.59)" fill="#F69119"/>
<path d="M208.183 550.759C201.64 550.468 195.186 552.328 189.807 556.055C184.428 559.782 180.421 565.171 178.399 571.397C176.377 577.624 176.451 584.345 178.609 590.533C180.768 596.721 184.892 602.035 190.352 605.663C195.812 609.291 202.306 611.032 208.842 610.62C215.377 610.209 221.594 607.668 226.541 603.385C231.489 599.102 234.895 593.314 236.238 586.905C237.581 580.497 236.787 573.821 233.979 567.898C231.639 562.969 228.001 558.768 223.456 555.748C218.911 552.728 213.631 551.003 208.183 550.759V550.759ZM212.139 591.395C210.231 592.364 208.104 592.822 205.965 592.724C205.533 592.705 205.106 592.658 204.683 592.598C201.749 592.159 199.067 590.685 197.121 588.443C195.175 586.201 194.093 583.338 194.071 580.372C194.049 577.405 195.088 574.53 197 572.267C198.913 570.003 201.573 568.499 204.5 568.026C207.427 567.553 210.429 568.143 212.963 569.689C215.497 571.236 217.397 573.636 218.319 576.457C219.241 579.278 219.125 582.334 217.992 585.073C216.859 587.813 214.783 590.055 212.139 591.395Z" fill="#F69119"/>
<path opacity="0.2" d="M205.585 608.768C197.802 608.417 190.456 605.05 185.101 599.38C179.747 593.71 176.806 586.182 176.9 578.391C176.876 578.715 176.857 579.04 176.842 579.366C176.67 583.302 177.275 587.234 178.622 590.938C179.97 594.642 182.033 598.046 184.695 600.955C187.356 603.864 190.563 606.221 194.134 607.892C197.704 609.562 201.567 610.513 205.502 610.691C209.437 610.869 213.368 610.269 217.068 608.927C220.769 607.585 224.168 605.526 227.07 602.868C229.973 600.21 232.322 597.005 233.984 593.437C235.647 589.868 236.589 586.006 236.758 582.07C236.772 581.743 236.781 581.417 236.784 581.093C236.205 588.862 232.625 596.095 226.801 601.261C220.978 606.427 213.369 609.119 205.585 608.768V608.768Z" fill="black"/>
<path opacity="0.2" d="M207.607 564.057C204.31 563.907 201.044 564.738 198.223 566.446C195.402 568.153 193.151 570.66 191.757 573.65C190.363 576.639 189.887 579.976 190.39 583.24C190.893 586.503 192.352 589.545 194.583 591.982C196.813 594.419 199.715 596.141 202.921 596.93C206.127 597.719 209.494 597.54 212.594 596.415C215.695 595.29 218.391 593.27 220.341 590.61C222.291 587.951 223.407 584.771 223.549 581.473C223.733 577.055 222.158 572.742 219.17 569.477C216.182 566.212 212.024 564.263 207.607 564.057V564.057ZM218.923 580.863C218.779 584.157 217.334 587.257 214.904 589.481C212.474 591.705 209.259 592.872 205.965 592.724C205.532 592.705 205.105 592.657 204.683 592.598C202.305 592.241 200.081 591.203 198.28 589.609C196.478 588.015 195.176 585.934 194.531 583.617C193.887 581.3 193.927 578.848 194.648 576.556C195.368 574.264 196.738 572.232 198.591 570.704C200.444 569.177 202.701 568.221 205.089 567.952C207.476 567.682 209.892 568.111 212.044 569.186C214.195 570.261 215.99 571.936 217.211 574.009C218.432 576.081 219.026 578.462 218.923 580.863V580.863Z" fill="black"/>
<path d="M349.08 494.655C327.66 459.983 294.293 434.348 255.274 422.584C216.254 410.82 174.279 413.74 137.264 430.794C100.249 447.848 70.7545 477.857 54.3421 515.161C37.9298 552.464 35.7346 594.484 48.1707 633.295C60.6067 672.105 86.8143 705.024 121.85 725.842C156.887 746.66 198.329 753.938 238.362 746.304C278.395 738.67 314.251 716.651 339.167 684.4C364.083 652.149 376.337 611.896 373.617 571.232C371.805 544.087 363.381 517.798 349.08 494.655ZM245.095 640.241C232.391 648.582 217.294 652.506 202.137 651.408C186.98 650.31 172.606 644.25 161.237 634.166C149.869 624.082 142.137 610.534 139.238 595.616C136.339 580.698 138.434 565.241 145.199 551.633C151.964 538.025 163.022 527.023 176.665 520.329C190.308 513.634 205.775 511.619 220.678 514.594C235.581 517.57 249.089 525.371 259.114 536.792C269.14 548.212 275.125 562.617 276.145 577.779C277.004 590.013 274.578 602.254 269.119 613.235C263.66 624.217 255.366 633.54 245.095 640.241Z" fill="#F79119"/>
<path opacity="0.2" d="M217.128 738.299C173.877 741.203 131.193 727.16 98.1157 699.143C65.038 671.126 44.1633 631.335 39.9116 588.196C39.9749 590 40.0669 591.81 40.1875 593.625C41.6507 615.49 47.407 636.853 57.1276 656.493C66.8481 676.133 80.3424 693.666 96.8399 708.09C113.337 722.514 132.515 733.547 153.277 740.559C174.039 747.571 195.979 750.424 217.844 748.955C239.708 747.487 261.07 741.725 280.707 732C300.345 722.274 317.875 708.776 332.295 692.275C346.715 675.774 357.744 656.594 364.75 635.83C371.757 615.066 374.605 593.126 373.131 571.261C373.009 569.444 372.858 567.636 372.678 565.838C374.235 609.159 358.87 651.386 329.836 683.576C300.803 715.767 260.38 735.393 217.128 738.299V738.299Z" fill="black"/>
<path opacity="0.2" d="M201.562 499.345C185.133 500.45 169.402 506.401 156.356 516.446C143.31 526.491 133.535 540.179 128.268 555.779C123.001 571.379 122.479 588.191 126.766 604.088C131.054 619.985 139.959 634.254 152.356 645.09C164.752 655.926 180.084 662.843 196.412 664.966C212.739 667.089 229.33 664.322 244.085 657.017C258.841 649.711 271.099 638.194 279.309 623.921C287.519 609.649 291.313 593.263 290.21 576.835C288.706 554.813 278.528 534.286 261.909 519.759C245.29 505.232 223.587 497.891 201.562 499.345V499.345ZM245.094 640.241C232.391 648.582 217.294 652.506 202.137 651.408C186.979 650.31 172.606 644.251 161.237 634.166C149.868 624.082 142.137 610.534 139.238 595.616C136.339 580.699 138.434 565.241 145.198 551.633C151.963 538.025 163.021 527.023 176.664 520.329C190.307 513.634 205.775 511.619 220.678 514.594C235.58 517.57 249.088 525.371 259.114 536.792C269.14 548.212 275.125 562.617 276.145 577.779C277.003 590.013 274.578 602.254 269.118 613.235C263.659 624.217 255.365 633.541 245.094 640.241V640.241Z" fill="black"/>
<path opacity="0.2" d="M198.6 446.831C170.678 448.708 143.923 458.589 121.72 475.224C99.5165 491.858 82.8613 514.5 73.8604 540.286C64.8595 566.072 63.9171 593.843 71.1524 620.089C78.3876 646.335 93.4757 669.876 114.509 687.736C135.541 705.596 161.574 716.972 189.316 720.426C217.057 723.88 245.261 719.258 270.361 707.142C295.461 695.027 316.33 675.963 330.328 652.361C344.327 628.759 350.826 601.68 349.006 574.546C346.521 538.174 329.289 504.301 301.093 480.358C272.896 456.415 236.036 444.357 198.6 446.831V446.831ZM272.129 679.429C250.513 693.247 224.844 699.778 199.089 698.012C173.333 696.247 148.926 686.284 129.637 669.663C110.349 653.042 97.2532 630.688 92.3745 606.056C87.4959 581.423 91.1055 555.883 102.646 533.383C114.186 510.883 133.014 492.675 156.221 481.572C179.428 470.47 205.721 467.092 231.038 471.959C256.355 476.826 279.286 489.669 296.287 508.502C313.289 527.334 323.414 551.109 325.099 576.152C326.519 596.357 322.357 616.585 313.044 634.742C303.731 652.899 289.606 668.327 272.129 679.429V679.429Z" fill="black"/>
<path d="M206.213 511.533C190.87 511.797 176.043 517.078 164 526.571C151.956 536.063 143.36 549.243 139.525 564.095C135.69 578.947 136.827 594.654 142.763 608.813C148.699 622.971 159.107 634.803 172.395 642.497C185.683 650.192 201.119 653.326 216.343 651.42C231.567 649.514 245.74 642.673 256.695 631.943C267.65 621.214 274.784 607.187 277.005 592.007C279.226 576.827 276.412 561.33 268.994 547.887C262.815 536.697 253.705 527.399 242.643 520.993C231.58 514.588 218.985 511.317 206.213 511.533V511.533ZM221.295 605.985C216.973 608.527 212.065 609.905 207.049 609.986C206.035 610.003 205.03 609.954 204.033 609.877C197.109 609.273 190.625 606.214 185.752 601.252C180.88 596.289 177.939 589.751 177.461 582.818C176.984 575.884 179.001 569.012 183.148 563.442C187.295 557.871 193.3 553.97 200.077 552.442C206.855 550.914 213.959 551.861 220.106 555.11C226.254 558.359 231.041 563.698 233.602 570.162C236.164 576.625 236.331 583.789 234.074 590.358C231.817 596.927 227.285 602.47 221.295 605.985Z" fill="#F69119"/>
<path opacity="0.2" d="M206.774 542.713C199.042 542.838 191.525 545.254 185.172 549.655C178.82 554.055 173.918 560.242 171.087 567.434C168.256 574.626 167.622 582.498 169.267 590.057C170.911 597.615 174.76 604.519 180.325 609.895C185.891 615.272 192.924 618.879 200.535 620.261C208.145 621.643 215.992 620.737 223.081 617.659C230.17 614.581 236.184 609.468 240.362 602.967C244.54 596.466 246.695 588.869 246.553 581.138C246.349 570.78 242.048 560.92 234.592 553.717C227.136 546.515 217.132 542.557 206.774 542.713V542.713ZM235.648 580.38C235.785 588.103 232.849 595.56 227.486 601.112C222.123 606.664 214.772 609.856 207.048 609.987C206.035 610.003 205.029 609.954 204.032 609.877C198.422 609.386 193.072 607.28 188.63 603.812C184.188 600.345 180.844 595.666 179.004 590.341C177.164 585.017 176.907 579.276 178.263 573.812C179.619 568.349 182.53 563.398 186.644 559.56C190.759 555.721 195.9 553.159 201.444 552.184C206.989 551.209 212.7 551.862 217.885 554.065C223.071 556.269 227.508 559.927 230.661 564.597C233.813 569.267 235.546 574.749 235.648 580.38V580.38Z" fill="black"/>
<path opacity="0.9" d="M345.276 569.778C350.476 647.199 291.93 714.178 214.508 719.378C137.086 724.578 70.1081 666.031 64.9077 588.61C59.7074 511.188 118.254 444.21 195.676 439.01C273.097 433.809 340.075 492.356 345.276 569.778ZM78.2142 587.716C82.9209 657.789 143.542 710.778 213.614 706.072C283.687 701.365 336.676 640.744 331.969 570.672C327.262 500.599 266.642 447.609 196.57 452.316C126.497 457.023 73.5075 517.644 78.2142 587.716Z" fill="#E6E6E6"/>
<path opacity="0.9" d="M328.515 573.91C332.679 635.903 281.779 689.803 214.827 694.3C147.876 698.797 90.225 652.188 86.061 590.196C81.897 528.203 132.797 474.303 199.748 469.806C266.7 465.309 324.351 511.918 328.515 573.91ZM99.1326 589.318C102.848 644.626 154.282 686.209 214.014 682.197C273.747 678.185 319.158 630.096 315.443 574.788C311.728 519.481 260.294 477.897 200.561 481.909C140.829 485.922 95.4176 534.01 99.1326 589.318Z" fill="#E6E6E6"/>
<path opacity="0.9" d="M274.502 575.534C277 612.729 248.426 644.938 210.68 647.473C172.933 650.008 140.308 621.911 137.81 584.715C135.311 547.52 163.886 515.312 201.632 512.776C239.379 510.241 272.003 538.339 274.502 575.534ZM146.764 584.114C148.935 616.436 177.286 640.853 210.087 638.649C242.888 636.446 267.719 608.458 265.548 576.135C263.377 543.813 235.026 519.397 202.225 521.6C169.424 523.803 144.593 551.792 146.764 584.114Z" fill="#E6E6E6"/>
<path opacity="0.9" d="M95.9565 558.463C116.695 513.986 231.613 474.182 242.555 472.946C253.497 471.71 135.915 586.348 133.856 593.001C131.798 599.654 278.59 502.097 274.636 510.38C270.682 518.664 132.147 656.628 128.771 666.507C125.395 676.386 304.825 556.962 304.825 556.962C306.256 555.882 200.566 676.335 203.249 686.059C205.932 695.783 317.639 627.552 316.497 618.818" stroke="#E6E6E6" stroke-width="10"/>
</svg>
