<svg width="84" height="84" viewBox="0 0 84 84" fill="none" xmlns="http://www.w3.org/2000/svg">
<ellipse cx="42" cy="65" rx="39" ry="10" fill="#C4C4C4" fill-opacity="0.39"/>
<path d="M39.9208 56.968C31.8282 64.9207 19.5068 66.7714 8.63387 63.4845L11.8667 63.4483L11.8961 63.2531C11.2425 63.043 10.6384 62.7024 10.1203 62.252C9.60219 61.8015 9.18089 61.2506 8.88195 60.6326C8.58302 60.0146 8.41269 59.3422 8.38121 58.6564C8.34973 57.9706 8.4578 57.2855 8.69886 56.6427C8.98734 55.8735 9.45835 55.1858 10.0714 54.6388C10.6844 54.0919 11.4212 53.702 12.2182 53.5027L21.0184 51.3027L21.0599 51.2923L21.0811 51.2551L34.8739 26.9987L49.8188 25.1073L50.1654 25.6741L50.1658 25.6747C53.0694 30.3544 54.9416 35.5997 55.6573 41.0604C56.3729 46.5209 55.9156 52.0714 54.316 57.3412C53.6912 59.343 52.9548 61.1321 52.1199 62.5361C51.2837 63.9423 50.3555 64.9509 49.3524 65.4087C48.944 65.5951 48.5453 65.5708 48.1464 65.3857C47.7433 65.1986 47.3403 64.8469 46.9369 64.3789C46.1467 63.4622 45.3794 62.1296 44.6222 60.8146L44.5733 60.7296C43.8043 59.3943 43.0437 58.0835 42.2873 57.2909C41.9093 56.8947 41.5204 56.615 41.1199 56.5358C40.7104 56.4548 40.3088 56.5868 39.9208 56.968Z" fill="#AE1A1A" stroke="black" stroke-width="0.2"/>
<path d="M49.3939 65.4995C45.8868 67.1002 42.9492 54.1321 39.9909 57.0393C31.7162 65.171 19.045 66.9418 8 63.3914L11.8655 63.3482C11.1991 63.134 10.583 62.7867 10.0547 62.3274C9.52637 61.868 9.09676 61.3063 8.79193 60.676C8.4871 60.0458 8.31341 59.3602 8.28131 58.6609L44.5 53.4057L55.7306 52.7563C55.4131 54.0954 54.9663 55.5433 54.4116 57.3706C53.1592 61.3832 51.4546 64.5591 49.3939 65.4995Z" fill="#2F2E41"/>
<path opacity="0.5" d="M35 27L21.5 50.5C31.8859 44.3982 36.7155 38.8254 44 26L35 27Z" fill="#E9E8E8" stroke="black" stroke-opacity="0.37" stroke-width="0.5"/>
<path d="M55.9208 59.968C47.8282 67.9207 35.5068 69.7714 24.6339 66.4845L27.8667 66.4483L27.8961 66.2531C27.2425 66.043 26.6384 65.7024 26.1203 65.252C25.6022 64.8015 25.1809 64.2506 24.882 63.6326C24.583 63.0146 24.4127 62.3422 24.3812 61.6564C24.3497 60.9706 24.4578 60.2855 24.6989 59.6427C24.9873 58.8735 25.4584 58.1858 26.0714 57.6388C26.6844 57.0919 27.4212 56.702 28.2182 56.5027L37.0184 54.3027L37.0599 54.2923L37.0811 54.2551L50.8739 29.9987L65.8188 28.1073L66.1654 28.6741L66.1658 28.6747C69.0694 33.3544 70.9416 38.5997 71.6573 44.0604C72.3729 49.5209 71.9156 55.0714 70.316 60.3412C69.6912 62.343 68.9548 64.1321 68.1199 65.5361C67.2837 66.9423 66.3555 67.9509 65.3524 68.4087C64.944 68.5951 64.5453 68.5708 64.1464 68.3857C63.7433 68.1986 63.3403 67.8469 62.9369 67.3789C62.1467 66.4622 61.3794 65.1296 60.6222 63.8146L60.5733 63.7296C59.8043 62.3943 59.0437 61.0835 58.2873 60.2909C57.9093 59.8947 57.5204 59.615 57.1199 59.5358C56.7104 59.4548 56.3088 59.5868 55.9208 59.968Z" fill="#AE1A1A" stroke="black" stroke-width="0.2"/>
<path d="M65.3939 68.4995C61.8868 70.1002 58.9492 57.1321 55.9909 60.0393C47.7162 68.171 35.045 69.9418 24 66.3914L27.8655 66.3482C27.1991 66.134 26.583 65.7867 26.0547 65.3274C25.5264 64.868 25.0968 64.3063 24.7919 63.676C24.4871 63.0458 24.3134 62.3602 24.2813 61.6609L60.5 56.4057L71.7306 55.7563C71.4131 57.0954 70.9663 58.5433 70.4116 60.3706C69.1592 64.3832 67.4546 67.5591 65.3939 68.4995Z" fill="#2F2E41"/>
<path opacity="0.5" d="M51 30L37.5 53.5C47.8859 47.3982 52.7155 41.8254 60 29L51 30Z" fill="#E9E8E8" stroke="black" stroke-opacity="0.37" stroke-width="0.5"/>
</svg>
