<svg width="500" height="500" viewBox="0 0 500 500" fill="none" xmlns="http://www.w3.org/2000/svg">
<path d="M139 440.279C151.703 440.279 162 429.982 162 417.279C162 404.577 151.703 394.279 139 394.279C126.297 394.279 116 404.577 116 417.279C116 429.982 126.297 440.279 139 440.279Z" fill="#D0CDE1"/>
<path d="M162 445.279C174.703 445.279 185 434.982 185 422.279C185 409.577 174.703 399.279 162 399.279C149.297 399.279 139 409.577 139 422.279C139 434.982 149.297 445.279 162 445.279Z" fill="#D0CDE1"/>
<path d="M358 440.279C370.703 440.279 381 429.982 381 417.279C381 404.577 370.703 394.279 358 394.279C345.297 394.279 335 404.577 335 417.279C335 429.982 345.297 440.279 358 440.279Z" fill="#D0CDE1"/>
<path d="M312 445.279C324.703 445.279 335 434.982 335 422.279C335 409.577 324.703 399.279 312 399.279C299.297 399.279 289 409.577 289 422.279C289 434.982 299.297 445.279 312 445.279Z" fill="#D0CDE1"/>
<path d="M249 451.279C267.778 451.279 283 436.057 283 417.279C283 398.502 267.778 383.279 249 383.279C230.222 383.279 215 398.502 215 417.279C215 436.057 230.222 451.279 249 451.279Z" fill="#D0CDE1"/>
<path d="M215 462.279C233.778 462.279 249 447.057 249 428.279C249 409.502 233.778 394.279 215 394.279C196.222 394.279 181 409.502 181 428.279C181 447.057 196.222 462.279 215 462.279Z" fill="#D0CDE1"/>
<path d="M406 426.679C451.5 470.5 300.731 481.901 246.207 481.263C191.682 480.624 16 481.263 96.9402 426.679C135.62 415.839 185.97 409.279 241 409.279C301.74 409.279 366.06 413.759 406 426.679Z" fill="#D0CDE1"/>
<path d="M249 242.279C290.421 242.279 324 208.701 324 167.279C324 125.858 290.421 92.2792 249 92.2792C207.579 92.2792 174 125.858 174 167.279C174 208.701 207.579 242.279 249 242.279Z" fill="#D0CDE1"/>
<path d="M249 427.279C305.885 427.279 352 381.165 352 324.279C352 267.394 305.885 221.279 249 221.279C192.115 221.279 146 267.394 146 324.279C146 381.165 192.115 427.279 249 427.279Z" fill="#D0CDE1"/>
<path d="M363.079 126.158C365.884 126.158 368.158 123.884 368.158 121.079C368.158 118.274 365.884 116 363.079 116C360.274 116 358 118.274 358 121.079C358 123.884 360.274 126.158 363.079 126.158Z" fill="#D0CDE1"/>
<path d="M80.9212 187.551C83.7262 187.551 86.0002 185.277 86.0002 182.472C86.0002 179.667 83.7262 177.393 80.9212 177.393C78.1162 177.393 75.8423 179.667 75.8423 182.472C75.8423 185.277 78.1162 187.551 80.9212 187.551Z" fill="#D0CDE1"/>
<path d="M111.079 252.158C113.884 252.158 116.158 249.884 116.158 247.079C116.158 244.274 113.884 242 111.079 242C108.274 242 106 244.274 106 247.079C106 249.884 108.274 252.158 111.079 252.158Z" fill="#D0CDE1"/>
<path d="M368.079 67.1578C370.884 67.1578 373.158 64.8839 373.158 62.0789C373.158 59.2739 370.884 57 368.079 57C365.274 57 363 59.2739 363 62.0789C363 64.8839 365.274 67.1578 368.079 67.1578Z" fill="#D0CDE1"/>
<path d="M111.079 252.158C113.884 252.158 116.158 249.884 116.158 247.079C116.158 244.274 113.884 242 111.079 242C108.274 242 106 244.274 106 247.079C106 249.884 108.274 252.158 111.079 252.158Z" fill="#D0CDE1"/>
<path d="M111.079 252.158C113.884 252.158 116.158 249.884 116.158 247.079C116.158 244.274 113.884 242 111.079 242C108.274 242 106 244.274 106 247.079C106 249.884 108.274 252.158 111.079 252.158Z" fill="#D0CDE1"/>
<path d="M101.079 54.1578C103.884 54.1578 106.158 51.8839 106.158 49.0789C106.158 46.2739 103.884 44 101.079 44C98.2739 44 96 46.2739 96 49.0789C96 51.8839 98.2739 54.1578 101.079 54.1578Z" fill="#D0CDE1"/>
<path d="M432.921 199.551C435.726 199.551 438 197.277 438 194.472C438 191.667 435.726 189.393 432.921 189.393C430.116 189.393 427.842 191.667 427.842 194.472C427.842 197.277 430.116 199.551 432.921 199.551Z" fill="#D0CDE1"/>
<path d="M145.921 87.3571C149.724 87.3571 152.806 84.2744 152.806 80.4717C152.806 76.6691 149.724 73.5864 145.921 73.5864C142.118 73.5864 139.036 76.6691 139.036 80.4717C139.036 84.2744 142.118 87.3571 145.921 87.3571Z" fill="#D0CDE1"/>
<path d="M276.921 57.3571C280.724 57.3571 283.806 54.2744 283.806 50.4717C283.806 46.6691 280.724 43.5864 276.921 43.5864C273.118 43.5864 270.036 46.6691 270.036 50.4717C270.036 54.2744 273.118 57.3571 276.921 57.3571Z" fill="#D0CDE1"/>
<path d="M68.921 294.357C72.7237 294.357 75.8064 291.274 75.8064 287.472C75.8064 283.669 72.7237 280.586 68.921 280.586C65.1183 280.586 62.0356 283.669 62.0356 287.472C62.0356 291.274 65.1183 294.357 68.921 294.357Z" fill="#D0CDE1"/>
<path d="M387.921 294.357C391.724 294.357 394.806 291.274 394.806 287.472C394.806 283.669 391.724 280.586 387.921 280.586C384.118 280.586 381.036 283.669 381.036 287.472C381.036 291.274 384.118 294.357 387.921 294.357Z" fill="#D0CDE1"/>
<path d="M312.543 223.279H188.457C187.54 223.279 186.661 223.643 186.012 224.292C185.364 224.94 185 225.819 185 226.736V233.822C185 234.276 185.089 234.726 185.263 235.145C185.437 235.565 185.691 235.946 186.012 236.267C186.333 236.588 186.714 236.842 187.134 237.016C187.553 237.19 188.003 237.279 188.457 237.279H209.546L211.728 239.362L192.636 335.1L205 351.279L224.477 251.535L286 310.279L304 307.279L230.957 237.279H312.543C312.997 237.279 313.447 237.19 313.866 237.016C314.286 236.842 314.667 236.588 314.988 236.267C315.309 235.946 315.563 235.565 315.737 235.145C315.911 234.726 316 234.276 316 233.822V226.736C316 225.819 315.636 224.94 314.988 224.292C314.339 223.643 313.46 223.279 312.543 223.279Z" fill="#DC143C" fill-opacity="0.75"/>
<path d="M208.321 130.279C208.321 130.279 240.453 114.213 240.453 108.476C240.453 102.738 227.83 85.5243 204.878 85.5243C204.878 85.5243 199.141 75.1962 192.255 83.2292C185.37 91.2621 195.698 96.9999 195.698 96.9999C195.698 96.9999 183.075 117.656 201.436 130.279H208.321Z" fill="#D94265"/>
<path d="M221 158.279C224.314 158.279 227 155.593 227 152.279C227 148.965 224.314 146.279 221 146.279C217.686 146.279 215 148.965 215 152.279C215 155.593 217.686 158.279 221 158.279Z" fill="#3F3D56"/>
<path d="M277 158.279C280.314 158.279 283 155.593 283 152.279C283 148.965 280.314 146.279 277 146.279C273.686 146.279 271 148.965 271 152.279C271 155.593 273.686 158.279 277 158.279Z" fill="#3F3D56"/>
<path d="M254.5 165.279H243.5V199.279H254.5V165.279Z" fill="#D586A2"/>
<path d="M251 293.279C254.314 293.279 257 290.593 257 287.279C257 283.965 254.314 281.279 251 281.279C247.686 281.279 245 283.965 245 287.279C245 290.593 247.686 293.279 251 293.279Z" fill="#3F3D56"/>
<path d="M251 315.279C254.314 315.279 257 312.593 257 309.279C257 305.965 254.314 303.279 251 303.279C247.686 303.279 245 305.965 245 309.279C245 312.593 247.686 315.279 251 315.279Z" fill="#3F3D56"/>
<path d="M251 337.279C254.314 337.279 257 334.593 257 331.279C257 327.965 254.314 325.279 251 325.279C247.686 325.279 245 327.965 245 331.279C245 334.593 247.686 337.279 251 337.279Z" fill="#3F3D56"/>
<path d="M249 211.771C239.487 211.771 229.974 209.234 220.527 204.16L221.473 202.398C239.737 212.208 258.26 212.208 276.526 202.398L277.474 204.16C268.026 209.234 258.513 211.771 249 211.771Z" fill="#3F3D56"/>
<path d="M293 175.279C295.761 175.279 298 173.041 298 170.279C298 167.518 295.761 165.279 293 165.279C290.239 165.279 288 167.518 288 170.279C288 173.041 290.239 175.279 293 175.279Z" fill="#D586A2"/>
<path d="M205 175.279C207.761 175.279 210 173.041 210 170.279C210 167.518 207.761 165.279 205 165.279C202.239 165.279 200 167.518 200 170.279C200 173.041 202.239 175.279 205 175.279Z" fill="#D94265" fill-opacity="0.51"/>
<path d="M122.885 151.771C126.688 151.771 129.771 148.688 129.771 144.885C129.771 141.083 126.688 138 122.885 138C119.083 138 116 141.083 116 144.885C116 148.688 119.083 151.771 122.885 151.771Z" fill="#D0CDE1"/>
<path d="M390.079 185.158C392.884 185.158 395.158 182.884 395.158 180.079C395.158 177.274 392.884 175 390.079 175C387.274 175 385 177.274 385 180.079C385 182.884 387.274 185.158 390.079 185.158Z" fill="#D0CDE1"/>
<path d="M423.079 97.1578C425.884 97.1578 428.158 94.8839 428.158 92.0789C428.158 89.2739 425.884 87 423.079 87C420.274 87 418 89.2739 418 92.0789C418 94.8839 420.274 97.1578 423.079 97.1578Z" fill="#D0CDE1"/>
</svg>
