<svg width="650" height="650" viewBox="0 0 650 650" fill="none" xmlns="http://www.w3.org/2000/svg">
<path d="M388.86 316.45C388.86 397.32 329.58 462.87 256.45 462.87C183.32 462.87 124 397.32 124 316.45C124 312.337 124.153 308.267 124.46 304.24C127.88 258.37 150.46 218.48 183.28 194.38C183.298 194.357 183.322 194.34 183.35 194.33C204.488 178.618 230.113 170.11 256.45 170.06C276.326 170.057 295.899 174.933 313.45 184.26C313.604 184.329 313.754 184.405 313.9 184.49C353.14 205.41 381.63 247.1 387.68 296.65C388.488 303.219 388.882 309.832 388.86 316.45V316.45Z" fill="#975656"/>
<path opacity="0.1" d="M388.86 316.45C388.86 397.32 329.58 462.87 256.45 462.87C183.32 462.87 124 397.32 124 316.45C124 312.337 124.153 308.267 124.46 304.24C127.88 258.37 150.46 218.48 183.28 194.38C183.298 194.357 183.322 194.34 183.35 194.33C204.488 178.618 230.113 170.11 256.45 170.06C276.326 170.057 295.899 174.933 313.45 184.26C313.604 184.329 313.754 184.405 313.9 184.49C353.14 205.41 381.63 247.1 387.68 296.65C388.488 303.219 388.882 309.832 388.86 316.45V316.45Z" fill="black"/>
<path opacity="0.1" d="M387.64 296.63C370.2 237.27 318.34 194.23 257.09 194.23C193.24 194.23 139.61 240.99 124.5 304.23C127.92 258.36 150.5 218.47 183.32 194.37C183.338 194.347 183.362 194.33 183.39 194.32C202.223 181.274 224.184 173.466 247.025 171.693C269.867 169.92 292.769 174.247 313.39 184.23C313.544 184.299 313.694 184.375 313.84 184.46C353.1 205.39 381.59 247.06 387.64 296.63Z" fill="black"/>
<path d="M375 53.0538C374.986 63.1885 371.126 72.9403 364.199 80.3385C357.273 87.7367 347.796 92.2298 337.684 92.9098C327.572 93.5898 317.579 90.4061 309.724 84.0019C301.869 77.5977 296.738 68.4506 295.368 58.4089C293.997 48.3673 296.489 38.1797 302.341 29.9049C308.193 21.6302 316.967 15.8851 326.891 13.8306C336.816 11.7761 347.15 13.5655 355.806 18.837C364.462 24.1086 370.794 32.4693 373.523 42.2298C374.507 45.7534 375.004 49.3953 375 53.0538V53.0538Z" fill="#975656"/>
<path d="M231 51.0538C230.986 61.1885 227.126 70.9403 220.199 78.3385C213.273 85.7367 203.796 90.2298 193.684 90.9098C183.572 91.5898 173.579 88.4061 165.724 82.0019C157.869 75.5977 152.738 66.4506 151.368 56.4089C149.997 46.3673 152.489 36.1797 158.341 27.9049C164.193 19.6302 172.967 13.8851 182.891 11.8306C192.816 9.77613 203.15 11.5655 211.806 16.837C220.462 22.1086 226.794 30.4693 229.523 40.2298C230.507 43.7534 231.004 47.3953 231 51.0538V51.0538Z" fill="#975656"/>
<g opacity="0.1" filter="url(#filter0_d)">
<path d="M216 51.0336C215.991 57.3678 213.579 63.4627 209.25 68.0866C204.92 72.7104 198.997 75.5186 192.677 75.9436C186.358 76.3686 180.112 74.3788 175.203 70.3762C170.293 66.3736 167.086 60.6566 166.23 54.3806C165.373 48.1045 166.931 41.7373 170.588 36.5656C174.245 31.3938 179.729 27.8032 185.932 26.5191C192.135 25.2351 198.594 26.3534 204.004 29.6481C209.414 32.9429 213.371 38.1683 215.077 44.2686C215.692 46.4709 216.003 48.747 216 51.0336Z" fill="black"/>
<path d="M215.5 51.0329C215.492 57.2405 213.127 63.2134 208.885 67.7448C204.642 72.2762 198.837 75.0282 192.644 75.4448C186.45 75.8613 180.33 73.9112 175.518 69.9887C170.707 66.0661 167.565 60.4635 166.725 54.313C165.886 48.1624 167.412 41.9226 170.996 36.8543C174.58 31.786 179.955 28.2671 186.034 27.0087C192.112 25.7504 198.442 26.8464 203.744 30.0752C209.045 33.304 212.924 38.4249 214.595 44.4032C215.198 46.5614 215.503 48.7921 215.5 51.0329Z" stroke="black"/>
</g>
<path opacity="0.1" d="M155.91 122.72C162.567 98.8033 177.531 78.0427 198.116 64.1652C218.701 50.2877 243.558 44.2023 268.225 47.0013C292.893 49.8003 315.755 61.3006 332.707 79.4374C349.659 97.5743 359.591 121.16 360.72 145.96C360.81 144.23 360.85 142.5 360.85 140.75C360.85 113.061 349.851 86.5068 330.272 66.928C310.693 47.3492 284.139 36.35 256.45 36.35C228.761 36.35 202.207 47.3492 182.628 66.928C163.049 86.5068 152.05 113.061 152.05 140.75C152.05 142.5 152.05 144.23 152.18 145.96C152.546 138.098 153.797 130.302 155.91 122.72Z" fill="black"/>
<path d="M506 562.18C506.009 575.789 502.495 589.169 495.801 601.019C489.107 612.868 479.461 622.783 467.8 629.8C457.739 635.918 446.422 639.679 434.7 640.8C432.19 641.05 429.63 641.17 427.06 641.17H280.64C276.8 641.17 272.98 641.05 269.18 640.79C265.76 640.56 262.37 640.24 259 639.79C251.265 638.811 243.607 637.301 236.08 635.27C232.64 634.343 229.243 633.313 225.89 632.18C218.032 629.507 210.381 626.258 203 622.46C199.527 620.68 196.13 618.79 192.81 616.79C184.727 611.926 177.06 606.401 169.89 600.27C166.37 597.27 162.977 594.123 159.71 590.83C127.841 558.902 109.96 515.622 110 470.51V293.51H404.14V460.33C404.137 465.968 406.214 471.41 409.972 475.612C413.73 479.815 418.907 482.485 424.51 483.11C425.35 483.19 426.2 483.25 427.06 483.25C429.63 483.25 432.19 483.37 434.7 483.61C446.419 484.746 457.732 488.506 467.8 494.61C479.444 501.633 489.079 511.542 495.771 523.38C502.463 535.217 505.986 548.582 506 562.18V562.18Z" fill="#FF0016"/>
<g opacity="0.1">
<path opacity="0.1" d="M136.77 290.99V562.25C133 556.348 129.597 550.22 126.58 543.9V290.99H136.77Z" fill="black"/>
<path opacity="0.1" d="M169.87 290.99V600.27C166.35 597.27 162.957 594.123 159.69 590.83V290.99H169.87Z" fill="black"/>
<path opacity="0.1" d="M203 290.99V622.46C199.527 620.68 196.13 618.79 192.81 616.79V290.99H203Z" fill="black"/>
<path opacity="0.1" d="M236.08 290.99V635.24C232.64 634.313 229.243 633.283 225.89 632.15V290.99H236.08Z" fill="black"/>
<path opacity="0.1" d="M269.19 290.99H259V641.12H269.19V290.99Z" fill="black"/>
<path opacity="0.1" d="M302.29 290.99H292.1V641.12H302.29V290.99Z" fill="black"/>
<path opacity="0.1" d="M335.39 290.99H325.2V641.12H335.39V290.99Z" fill="black"/>
<path opacity="0.1" d="M368.5 290.99H358.31V641.12H368.5V290.99Z" fill="black"/>
<path opacity="0.1" d="M401.6 290.99H391.41V641.12H401.6V290.99Z" fill="black"/>
<path opacity="0.1" d="M434.7 483.61V641.12H424.51V483.12C425.35 483.2 426.2 483.26 427.06 483.26C429.63 483.25 432.19 483.37 434.7 483.61Z" fill="black"/>
<path opacity="0.1" d="M467.8 494.56V629.8L457.62 634.99V489.38C461.137 490.853 464.539 492.584 467.8 494.56V494.56Z" fill="black"/>
</g>
<path d="M403.77 245.16H110.41C103.17 245.16 97.3 251.03 97.3 258.27V298.26C97.3 305.5 103.17 311.37 110.41 311.37H403.77C411.01 311.37 416.88 305.5 416.88 298.26V258.27C416.88 251.03 411.01 245.16 403.77 245.16Z" fill="#EEEFF0"/>
<g opacity="0.03">
<path opacity="0.03" d="M403.77 245.16H110.41C103.17 245.16 97.3 251.03 97.3 258.27V298.26C97.3 305.5 103.17 311.37 110.41 311.37H403.77C411.01 311.37 416.88 305.5 416.88 298.26V258.27C416.88 251.03 411.01 245.16 403.77 245.16Z" fill="black"/>
</g>
<path opacity="0.1" d="M404.14 325.37H110.03V343.19H404.14V325.37Z" fill="black"/>
<path opacity="0.1" d="M404.14 380.12H110.03V397.94H404.14V380.12Z" fill="black"/>
<g opacity="0.1" filter="url(#filter1_d)">
<path d="M360 53.0336C359.991 59.3678 357.579 65.4627 353.25 70.0866C348.92 74.7104 342.997 77.5186 336.677 77.9436C330.358 78.3686 324.112 76.3788 319.203 72.3762C314.293 68.3736 311.086 62.6566 310.23 56.3806C309.373 50.1045 310.931 43.7373 314.588 38.5656C318.245 33.3938 323.729 29.8032 329.932 28.5191C336.135 27.2351 342.594 28.3534 348.004 31.6481C353.414 34.9429 357.371 40.1683 359.077 46.2686C359.692 48.4709 360.003 50.747 360 53.0336Z" fill="black"/>
<path d="M359.5 53.0329C359.492 59.2405 357.127 65.2134 352.885 69.7448C348.642 74.2762 342.837 77.0282 336.644 77.4448C330.45 77.8613 324.33 75.9112 319.518 71.9887C314.707 68.0661 311.565 62.4635 310.725 56.313C309.886 50.1624 311.412 43.9226 314.996 38.8543C318.58 33.786 323.955 30.2671 330.034 29.0087C336.112 27.7504 342.442 28.8464 347.744 32.0752C353.045 35.304 356.924 40.4249 358.595 46.4032C359.198 48.5614 359.503 50.7921 359.5 53.0329Z" stroke="black"/>
</g>
<path opacity="0.1" d="M216.98 142.03C224.717 142.03 230.99 135.758 230.99 128.02C230.99 120.283 224.717 114.01 216.98 114.01C209.242 114.01 202.97 120.283 202.97 128.02C202.97 135.758 209.242 142.03 216.98 142.03Z" fill="black"/>
<path d="M360.85 140.75C360.814 167.164 350.754 192.579 332.701 211.861C314.648 231.143 289.949 242.853 263.595 244.625C237.241 246.397 211.196 238.1 190.724 221.409C170.252 204.718 156.879 180.878 153.308 154.707C149.736 128.536 156.232 101.984 171.482 80.4182C186.733 58.852 209.602 43.8788 235.467 38.5244C261.332 33.1699 288.266 37.8334 310.825 51.5724C333.385 65.3115 349.888 87.1017 357 112.54C359.566 121.723 360.861 131.215 360.85 140.75V140.75Z" fill="#975656"/>
<path d="M216.98 133.12C220.498 133.12 223.35 130.268 223.35 126.75C223.35 123.232 220.498 120.38 216.98 120.38C213.462 120.38 210.61 123.232 210.61 126.75C210.61 130.268 213.462 133.12 216.98 133.12Z" fill="#373E46"/>
<path d="M218.25 125.47C218.951 125.47 219.52 124.901 219.52 124.2C219.52 123.499 218.951 122.93 218.25 122.93C217.549 122.93 216.98 123.499 216.98 124.2C216.98 124.901 217.549 125.47 218.25 125.47Z" fill="white"/>
<path d="M300.5 141C308.508 141 315 132.046 315 121C315 109.954 308.508 101 300.5 101C292.492 101 286 109.954 286 121C286 132.046 292.492 141 300.5 141Z" fill="#EEEFF0"/>
<path d="M301.01 133.12C304.528 133.12 307.38 130.268 307.38 126.75C307.38 123.232 304.528 120.38 301.01 120.38C297.492 120.38 294.64 123.232 294.64 126.75C294.64 130.268 297.492 133.12 301.01 133.12Z" fill="#373E46"/>
<path d="M298.47 125.47C299.171 125.47 299.74 124.901 299.74 124.2C299.74 123.499 299.171 122.93 298.47 122.93C297.769 122.93 297.2 123.499 297.2 124.2C297.2 124.901 297.769 125.47 298.47 125.47Z" fill="white"/>
<path opacity="0.1" d="M259 188.44C269.549 188.44 278.1 179.889 278.1 169.34C278.1 158.791 269.549 150.24 259 150.24C248.451 150.24 239.9 158.791 239.9 169.34C239.9 179.889 248.451 188.44 259 188.44Z" fill="black"/>
<path d="M259 187.29C269.549 187.29 278.1 178.739 278.1 168.19C278.1 157.641 269.549 149.09 259 149.09C248.451 149.09 239.9 157.641 239.9 168.19C239.9 178.739 248.451 187.29 259 187.29Z" fill="#FF0016"/>
<path opacity="0.1" d="M433.36 584.72L420.53 577.85C420.006 577.57 419.406 577.462 418.817 577.543C418.228 577.624 417.68 577.889 417.25 578.3L406.75 588.38C406.322 588.791 405.774 589.056 405.185 589.136C404.597 589.217 403.998 589.109 403.475 588.828C402.952 588.547 402.531 588.107 402.273 587.572C402.016 587.037 401.934 586.434 402.04 585.85L404.6 571.53C404.711 570.942 404.631 570.334 404.372 569.794C404.113 569.254 403.688 568.811 403.16 568.53L390.33 561.67C389.809 561.387 389.39 560.947 389.134 560.412C388.877 559.877 388.796 559.275 388.901 558.692C389.006 558.108 389.293 557.572 389.72 557.161C390.147 556.75 390.693 556.483 391.28 556.4L405.69 554.4C406.28 554.32 406.828 554.056 407.258 553.644C407.687 553.233 407.975 552.695 408.08 552.11L410.64 537.79C410.732 537.188 411.016 536.632 411.45 536.206C411.884 535.779 412.444 535.504 413.047 535.421C413.65 535.339 414.264 535.455 414.796 535.75C415.328 536.045 415.751 536.505 416 537.06L422.34 550.15C422.598 550.685 423.018 551.124 423.541 551.406C424.063 551.688 424.661 551.798 425.25 551.72L439.67 549.72C440.26 549.636 440.861 549.742 441.387 550.022C441.913 550.302 442.336 550.743 442.595 551.279C442.855 551.815 442.937 552.42 442.83 553.007C442.723 553.593 442.432 554.13 442 554.54L431.46 564.66C431.031 565.07 430.743 565.605 430.637 566.189C430.531 566.773 430.613 567.375 430.87 567.91L437.22 581.01C437.476 581.545 437.556 582.147 437.45 582.73C437.344 583.313 437.057 583.848 436.63 584.259C436.202 584.67 435.656 584.935 435.069 585.018C434.483 585.101 433.884 584.996 433.36 584.72V584.72Z" fill="black"/>
<path d="M431.46 582.06L420.08 575.97C419.615 575.721 419.083 575.626 418.56 575.697C418.037 575.769 417.551 576.005 417.17 576.37L407.87 585.31C407.489 585.674 407.003 585.909 406.481 585.98C405.959 586.051 405.428 585.956 404.964 585.708C404.499 585.459 404.125 585.071 403.894 584.597C403.664 584.123 403.589 583.589 403.68 583.07L406 570.37C406.092 569.851 406.018 569.316 405.788 568.842C405.558 568.368 405.184 567.979 404.72 567.73L393.34 561.64C392.873 561.393 392.497 561.004 392.265 560.529C392.034 560.054 391.96 559.518 392.053 558.998C392.147 558.478 392.403 558.001 392.786 557.637C393.168 557.272 393.656 557.039 394.18 556.97L406.96 555.21C407.478 555.139 407.96 554.908 408.34 554.549C408.72 554.191 408.979 553.722 409.08 553.21L411.35 540.51C411.443 539.99 411.698 539.514 412.079 539.148C412.46 538.783 412.946 538.547 413.469 538.475C413.992 538.402 414.524 538.498 414.989 538.746C415.455 538.995 415.83 539.385 416.06 539.86L421.68 551.47C421.908 551.946 422.282 552.338 422.748 552.588C423.214 552.838 423.747 552.933 424.27 552.86L437 551.06C437.523 550.985 438.056 551.077 438.523 551.325C438.99 551.573 439.365 551.963 439.596 552.438C439.826 552.914 439.9 553.45 439.805 553.97C439.711 554.49 439.453 554.966 439.07 555.33L429.76 564.27C429.381 564.636 429.128 565.113 429.036 565.632C428.945 566.151 429.02 566.686 429.25 567.16L434.87 578.77C435.101 579.243 435.177 579.777 435.085 580.295C434.994 580.814 434.741 581.29 434.362 581.655C433.983 582.021 433.498 582.257 432.977 582.33C432.455 582.402 431.924 582.308 431.46 582.06V582.06Z" fill="#EEEFF0"/>
<path opacity="0.1" d="M148.12 291.85L140.19 287.61C139.869 287.443 139.504 287.38 139.145 287.43C138.787 287.48 138.453 287.641 138.19 287.89L131.7 294.12C131.437 294.378 131.098 294.545 130.733 294.597C130.369 294.649 129.997 294.583 129.672 294.409C129.347 294.235 129.087 293.962 128.928 293.629C128.769 293.296 128.721 292.922 128.79 292.56L130.37 283.7C130.438 283.338 130.388 282.965 130.228 282.633C130.068 282.302 129.806 282.031 129.48 281.86L121.55 277.62C121.225 277.447 120.964 277.176 120.803 276.845C120.642 276.514 120.59 276.141 120.654 275.779C120.718 275.417 120.896 275.084 121.161 274.829C121.426 274.574 121.766 274.41 122.13 274.36L131.05 273.13C131.413 273.081 131.75 272.918 132.015 272.664C132.279 272.411 132.456 272.08 132.52 271.72L134.11 262.86C134.171 262.497 134.347 262.163 134.612 261.907C134.876 261.65 135.215 261.485 135.58 261.435C135.945 261.385 136.316 261.452 136.64 261.628C136.963 261.803 137.223 262.077 137.38 262.41L141.31 270.51C141.462 270.849 141.719 271.129 142.044 271.309C142.368 271.489 142.742 271.56 143.11 271.51L152.02 270.28C152.388 270.224 152.765 270.288 153.094 270.462C153.424 270.636 153.688 270.911 153.85 271.247C154.011 271.583 154.06 271.962 153.99 272.328C153.92 272.694 153.734 273.028 153.46 273.28L146.97 279.51C146.711 279.765 146.537 280.095 146.472 280.453C146.408 280.811 146.456 281.18 146.61 281.51L150.53 289.6C150.687 289.932 150.735 290.305 150.666 290.665C150.598 291.026 150.416 291.355 150.148 291.606C149.879 291.857 149.538 292.015 149.174 292.059C148.809 292.103 148.44 292.03 148.12 291.85V291.85Z" fill="black"/>
<path d="M146.94 290.22L139.94 286.45C139.651 286.298 139.323 286.241 139 286.286C138.677 286.331 138.376 286.475 138.14 286.7L132.39 292.23C132.153 292.453 131.853 292.595 131.531 292.638C131.208 292.68 130.881 292.62 130.595 292.467C130.309 292.313 130.078 292.073 129.935 291.782C129.793 291.49 129.745 291.16 129.8 290.84L131.21 282.99C131.269 282.67 131.224 282.339 131.082 282.045C130.94 281.752 130.708 281.512 130.42 281.36L123.42 277.59C123.131 277.438 122.897 277.198 122.753 276.905C122.609 276.612 122.562 276.28 122.619 275.959C122.676 275.637 122.833 275.341 123.069 275.115C123.305 274.889 123.606 274.744 123.93 274.7L131.84 273.61C132.162 273.568 132.461 273.424 132.695 273.199C132.929 272.974 133.085 272.68 133.14 272.36L134.55 264.51C134.609 264.191 134.768 263.898 135.002 263.674C135.237 263.449 135.536 263.304 135.858 263.259C136.179 263.213 136.507 263.27 136.794 263.421C137.082 263.572 137.315 263.81 137.46 264.1L140.94 271.29C141.083 271.583 141.314 271.822 141.602 271.975C141.889 272.128 142.218 272.186 142.54 272.14L150.44 271.05C150.763 271.004 151.093 271.061 151.381 271.215C151.669 271.368 151.902 271.609 152.044 271.903C152.186 272.196 152.232 272.528 152.174 272.849C152.115 273.17 151.956 273.465 151.72 273.69L145.96 279.22C145.726 279.445 145.569 279.738 145.511 280.058C145.454 280.378 145.499 280.707 145.64 281L149.12 288.18C149.276 288.48 149.33 288.823 149.273 289.157C149.216 289.49 149.051 289.796 148.804 290.027C148.557 290.258 148.241 290.402 147.904 290.437C147.568 290.472 147.229 290.396 146.94 290.22V290.22Z" fill="#FF0016"/>
<path opacity="0.1" d="M192.68 291.85L184.75 287.61C184.429 287.443 184.064 287.38 183.705 287.43C183.347 287.48 183.013 287.641 182.75 287.89L176.27 294.12C176.005 294.375 175.666 294.54 175.302 294.59C174.938 294.641 174.567 294.575 174.243 294.402C173.918 294.228 173.657 293.957 173.497 293.626C173.337 293.295 173.285 292.922 173.35 292.56L174.93 283.7C174.998 283.338 174.948 282.965 174.788 282.633C174.628 282.302 174.366 282.031 174.04 281.86L166.11 277.62C165.785 277.447 165.523 277.174 165.363 276.843C165.202 276.511 165.151 276.137 165.217 275.775C165.283 275.412 165.461 275.08 165.728 274.826C165.994 274.572 166.335 274.408 166.7 274.36L175.61 273.13C175.973 273.081 176.31 272.918 176.575 272.664C176.839 272.411 177.016 272.08 177.08 271.72L178.67 262.86C178.735 262.498 178.912 262.166 179.178 261.911C179.443 261.656 179.782 261.492 180.146 261.442C180.511 261.392 180.881 261.459 181.205 261.633C181.53 261.807 181.79 262.079 181.95 262.41L185.87 270.51C186.023 270.847 186.281 271.127 186.605 271.307C186.929 271.487 187.302 271.558 187.67 271.51L196.58 270.28C196.948 270.224 197.325 270.288 197.654 270.462C197.984 270.636 198.248 270.911 198.41 271.247C198.571 271.583 198.62 271.962 198.55 272.328C198.48 272.694 198.294 273.027 198.02 273.28L191.54 279.51C191.278 279.764 191.102 280.093 191.038 280.452C190.973 280.811 191.023 281.181 191.18 281.51L195.1 289.6C195.253 289.933 195.296 290.305 195.225 290.664C195.154 291.023 194.971 291.35 194.703 291.6C194.435 291.849 194.095 292.007 193.732 292.052C193.369 292.097 193.001 292.026 192.68 291.85V291.85Z" fill="black"/>
<path d="M191.51 290.22L184.51 286.45C184.223 286.299 183.896 286.242 183.575 286.287C183.254 286.332 182.955 286.476 182.72 286.7L176.96 292.23C176.725 292.455 176.424 292.6 176.102 292.644C175.779 292.688 175.451 292.628 175.164 292.474C174.878 292.319 174.647 292.078 174.506 291.784C174.365 291.491 174.321 291.16 174.38 290.84L175.78 282.99C175.839 282.67 175.794 282.339 175.652 282.046C175.51 281.752 175.278 281.512 174.99 281.36L167.99 277.59C167.7 277.438 167.467 277.197 167.323 276.903C167.18 276.609 167.134 276.277 167.192 275.955C167.25 275.633 167.409 275.337 167.646 275.112C167.883 274.886 168.185 274.742 168.51 274.7L176.41 273.61C176.732 273.567 177.033 273.422 177.268 273.198C177.503 272.973 177.662 272.68 177.72 272.36L179.12 264.51C179.181 264.197 179.337 263.911 179.566 263.69C179.795 263.469 180.087 263.324 180.402 263.275C180.717 263.226 181.039 263.275 181.325 263.415C181.611 263.556 181.847 263.781 182 264.06L185.48 271.25C185.623 271.543 185.854 271.782 186.142 271.935C186.429 272.088 186.758 272.146 187.08 272.1L194.98 271.01C195.303 270.964 195.633 271.021 195.921 271.175C196.209 271.328 196.442 271.569 196.584 271.863C196.726 272.156 196.772 272.488 196.714 272.809C196.655 273.13 196.497 273.425 196.26 273.65L190.51 279.18C190.272 279.402 190.112 279.696 190.054 280.017C189.996 280.338 190.044 280.669 190.19 280.96L193.66 288.14C193.834 288.438 193.903 288.785 193.856 289.126C193.809 289.468 193.649 289.784 193.401 290.023C193.153 290.263 192.832 290.413 192.489 290.448C192.147 290.484 191.802 290.404 191.51 290.22Z" fill="#FF0016"/>
<path opacity="0.1" d="M237.24 291.85L229.31 287.61C228.989 287.441 228.624 287.378 228.265 287.428C227.906 287.478 227.572 287.64 227.31 287.89L220.82 294.12C220.555 294.375 220.216 294.54 219.852 294.59C219.488 294.641 219.117 294.575 218.793 294.402C218.468 294.228 218.207 293.957 218.047 293.626C217.887 293.295 217.835 292.922 217.9 292.56L219.49 283.7C219.553 283.339 219.501 282.967 219.341 282.637C219.182 282.306 218.922 282.035 218.6 281.86L210.66 277.62C210.335 277.447 210.073 277.174 209.913 276.843C209.752 276.511 209.701 276.137 209.767 275.775C209.832 275.412 210.011 275.08 210.278 274.826C210.544 274.572 210.885 274.408 211.25 274.36L220.16 273.13C220.523 273.082 220.862 272.92 221.126 272.666C221.391 272.412 221.567 272.081 221.63 271.72L223.22 262.86C223.285 262.498 223.462 262.166 223.728 261.911C223.993 261.656 224.332 261.492 224.696 261.442C225.061 261.392 225.431 261.459 225.755 261.633C226.08 261.807 226.34 262.079 226.5 262.41L230.42 270.51C230.574 270.846 230.832 271.125 231.156 271.305C231.48 271.485 231.853 271.557 232.22 271.51L241.13 270.28C241.499 270.221 241.877 270.283 242.209 270.456C242.54 270.629 242.807 270.905 242.97 271.241C243.132 271.578 243.182 271.958 243.112 272.325C243.042 272.692 242.855 273.027 242.58 273.28L236.09 279.51C235.831 279.765 235.657 280.095 235.592 280.453C235.528 280.811 235.576 281.18 235.73 281.51L239.65 289.6C239.8 289.932 239.843 290.302 239.771 290.659C239.7 291.016 239.519 291.341 239.252 291.59C238.986 291.838 238.649 291.997 238.288 292.044C237.927 292.09 237.56 292.023 237.24 291.85V291.85Z" fill="black"/>
<path d="M236.07 290.22L229.07 286.45C228.781 286.298 228.453 286.241 228.13 286.286C227.807 286.331 227.506 286.476 227.27 286.7L221.51 292.23C221.275 292.455 220.974 292.6 220.652 292.644C220.329 292.688 220.001 292.628 219.714 292.474C219.428 292.319 219.197 292.078 219.056 291.784C218.915 291.491 218.871 291.16 218.93 290.84L220.33 282.99C220.389 282.67 220.344 282.339 220.202 282.046C220.06 281.752 219.828 281.512 219.54 281.36L212.54 277.59C212.25 277.438 212.017 277.197 211.873 276.903C211.73 276.609 211.684 276.277 211.742 275.955C211.8 275.633 211.959 275.337 212.196 275.112C212.433 274.886 212.735 274.742 213.06 274.7L220.96 273.61C221.282 273.567 221.583 273.422 221.818 273.198C222.053 272.973 222.212 272.68 222.27 272.36L223.68 264.51C223.736 264.19 223.892 263.896 224.126 263.67C224.36 263.444 224.659 263.297 224.981 263.252C225.303 263.206 225.631 263.264 225.918 263.416C226.205 263.569 226.437 263.808 226.58 264.1L230.06 271.29C230.203 271.583 230.434 271.822 230.722 271.975C231.009 272.128 231.338 272.186 231.66 272.14L239.56 271.05C239.883 271.004 240.213 271.061 240.501 271.215C240.789 271.368 241.022 271.609 241.164 271.903C241.306 272.196 241.352 272.528 241.294 272.849C241.235 273.17 241.076 273.465 240.84 273.69L235 279.22C234.766 279.445 234.609 279.738 234.551 280.058C234.494 280.378 234.539 280.707 234.68 281L238.16 288.18C238.294 288.471 238.334 288.796 238.276 289.11C238.218 289.425 238.064 289.714 237.835 289.937C237.606 290.161 237.313 290.308 236.997 290.359C236.681 290.409 236.357 290.361 236.07 290.22V290.22Z" fill="#FF0016"/>
<path opacity="0.1" d="M281.8 291.85L273.87 287.61C273.549 287.441 273.184 287.378 272.825 287.428C272.466 287.478 272.132 287.64 271.87 287.89L265.38 294.12C265.115 294.375 264.776 294.54 264.412 294.59C264.048 294.641 263.677 294.575 263.353 294.402C263.029 294.228 262.767 293.957 262.607 293.626C262.447 293.295 262.395 292.922 262.46 292.56L264.05 283.7C264.113 283.339 264.061 282.967 263.902 282.637C263.742 282.306 263.482 282.035 263.16 281.86L255.23 277.62C254.905 277.447 254.644 277.176 254.483 276.845C254.322 276.514 254.27 276.141 254.334 275.779C254.398 275.417 254.576 275.084 254.841 274.829C255.106 274.574 255.446 274.41 255.81 274.36L264.72 273.13C265.084 273.081 265.423 272.918 265.689 272.665C265.955 272.412 266.134 272.081 266.2 271.72L267.78 262.86C267.845 262.498 268.022 262.166 268.288 261.911C268.553 261.656 268.892 261.492 269.256 261.442C269.621 261.392 269.992 261.459 270.316 261.633C270.64 261.807 270.9 262.079 271.06 262.41L274.98 270.51C275.136 270.847 275.396 271.126 275.722 271.306C276.047 271.486 276.421 271.557 276.79 271.51L285.7 270.28C286.068 270.224 286.445 270.288 286.774 270.462C287.104 270.636 287.368 270.911 287.53 271.247C287.691 271.583 287.74 271.962 287.67 272.328C287.6 272.694 287.414 273.027 287.14 273.28L280.65 279.51C280.391 279.765 280.217 280.095 280.152 280.453C280.088 280.811 280.136 281.18 280.29 281.51L284.21 289.6C284.36 289.932 284.403 290.302 284.331 290.659C284.26 291.016 284.079 291.341 283.813 291.59C283.546 291.838 283.209 291.997 282.848 292.044C282.487 292.09 282.121 292.023 281.8 291.85V291.85Z" fill="black"/>
<path d="M280.63 290.22L273.63 286.45C273.342 286.298 273.013 286.241 272.69 286.286C272.367 286.331 272.066 286.475 271.83 286.7L266.08 292.23C265.843 292.453 265.543 292.595 265.221 292.638C264.899 292.68 264.571 292.62 264.285 292.467C263.999 292.313 263.768 292.073 263.625 291.782C263.483 291.49 263.435 291.16 263.49 290.84L264.9 282.99C264.958 282.67 264.912 282.339 264.77 282.046C264.628 281.754 264.397 281.513 264.11 281.36L257.11 277.59C256.826 277.433 256.599 277.192 256.459 276.899C256.32 276.606 256.276 276.277 256.334 275.958C256.391 275.639 256.547 275.346 256.78 275.121C257.012 274.895 257.31 274.748 257.63 274.7L265.53 273.61C265.853 273.568 266.154 273.424 266.39 273.2C266.625 272.975 266.783 272.681 266.84 272.36L268.25 264.51C268.304 264.186 268.459 263.889 268.694 263.659C268.928 263.43 269.23 263.282 269.555 263.236C269.879 263.191 270.21 263.25 270.499 263.405C270.788 263.56 271.019 263.804 271.16 264.1L274.63 271.29C274.773 271.583 275.004 271.822 275.292 271.975C275.579 272.128 275.908 272.186 276.23 272.14L284.14 271.05C284.462 271.006 284.79 271.066 285.077 271.22C285.363 271.374 285.593 271.615 285.734 271.908C285.875 272.202 285.92 272.532 285.862 272.852C285.804 273.172 285.645 273.465 285.41 273.69L279.66 279.22C279.426 279.445 279.269 279.738 279.211 280.058C279.154 280.378 279.199 280.707 279.34 281L282.82 288.18C282.979 288.481 283.035 288.826 282.978 289.162C282.922 289.498 282.756 289.806 282.506 290.039C282.257 290.271 281.938 290.414 281.599 290.447C281.26 290.48 280.919 290.4 280.63 290.22V290.22Z" fill="#FF0016"/>
<path opacity="0.1" d="M326.37 291.85L318.44 287.61C318.119 287.443 317.754 287.38 317.395 287.43C317.037 287.48 316.703 287.641 316.44 287.89L309.95 294.12C309.688 294.388 309.345 294.565 308.975 294.623C308.604 294.681 308.224 294.617 307.892 294.442C307.561 294.266 307.294 293.988 307.133 293.649C306.973 293.31 306.926 292.928 307 292.56L308.59 283.7C308.653 283.339 308.601 282.967 308.442 282.637C308.282 282.306 308.022 282.035 307.7 281.86L299.77 277.62C299.445 277.447 299.183 277.176 299.023 276.845C298.862 276.514 298.81 276.141 298.874 275.779C298.938 275.417 299.116 275.084 299.381 274.829C299.646 274.574 299.986 274.41 300.35 274.36L309.26 273.13C309.624 273.083 309.964 272.92 310.231 272.667C310.497 272.413 310.675 272.082 310.74 271.72L312.33 262.86C312.391 262.497 312.567 262.163 312.832 261.907C313.096 261.65 313.435 261.485 313.8 261.435C314.165 261.385 314.536 261.452 314.86 261.628C315.183 261.803 315.443 262.077 315.6 262.41L319.53 270.51C319.682 270.849 319.939 271.129 320.264 271.309C320.588 271.489 320.962 271.56 321.33 271.51L330.24 270.28C330.608 270.224 330.985 270.288 331.314 270.462C331.644 270.636 331.908 270.911 332.07 271.247C332.231 271.583 332.28 271.962 332.21 272.328C332.14 272.694 331.954 273.028 331.68 273.28L325.19 279.51C324.931 279.765 324.757 280.095 324.692 280.453C324.628 280.811 324.676 281.18 324.83 281.51L328.75 289.6C328.9 289.928 328.944 290.296 328.875 290.65C328.806 291.005 328.628 291.329 328.365 291.577C328.103 291.825 327.769 291.985 327.411 292.034C327.054 292.083 326.689 292.018 326.37 291.85V291.85Z" fill="black"/>
<path d="M325.19 290.22L318.19 286.45C317.902 286.298 317.573 286.241 317.25 286.286C316.927 286.331 316.626 286.475 316.39 286.7L310.64 292.23C310.403 292.453 310.103 292.595 309.781 292.638C309.459 292.68 309.131 292.62 308.845 292.467C308.559 292.313 308.328 292.073 308.185 291.782C308.043 291.49 307.995 291.16 308.05 290.84L309.46 282.99C309.519 282.67 309.474 282.339 309.332 282.045C309.19 281.752 308.958 281.512 308.67 281.36L301.67 277.59C301.381 277.438 301.147 277.198 301.003 276.905C300.859 276.612 300.812 276.28 300.869 275.959C300.926 275.637 301.083 275.341 301.319 275.115C301.555 274.889 301.856 274.744 302.18 274.7L310.09 273.61C310.412 273.568 310.712 273.424 310.946 273.199C311.179 272.974 311.335 272.68 311.39 272.36L312.8 264.51C312.859 264.191 313.018 263.898 313.252 263.674C313.487 263.449 313.786 263.304 314.108 263.259C314.429 263.213 314.757 263.27 315.044 263.421C315.332 263.572 315.565 263.81 315.71 264.1L319.19 271.29C319.331 271.582 319.561 271.821 319.847 271.974C320.132 272.127 320.459 272.185 320.78 272.14L328.69 271.05C329.013 271.004 329.343 271.061 329.631 271.215C329.919 271.368 330.152 271.609 330.294 271.903C330.437 272.196 330.482 272.528 330.424 272.849C330.365 273.17 330.207 273.465 329.97 273.69L324.21 279.22C323.976 279.445 323.819 279.738 323.761 280.058C323.704 280.378 323.749 280.707 323.89 281L327.37 288.18C327.526 288.48 327.58 288.823 327.523 289.157C327.466 289.49 327.301 289.796 327.054 290.027C326.807 290.258 326.491 290.402 326.155 290.437C325.818 290.472 325.479 290.396 325.19 290.22V290.22Z" fill="#FF0016"/>
<path opacity="0.1" d="M370.93 291.85L363 287.61C362.679 287.443 362.314 287.38 361.955 287.43C361.597 287.48 361.263 287.641 361 287.89L354.51 294.12C354.247 294.378 353.908 294.545 353.543 294.597C353.179 294.649 352.807 294.583 352.482 294.409C352.157 294.235 351.897 293.962 351.738 293.629C351.579 293.296 351.531 292.922 351.6 292.56L353.18 283.7C353.248 283.338 353.198 282.965 353.038 282.633C352.878 282.302 352.616 282.031 352.29 281.86L344.36 277.62C344.035 277.447 343.773 277.174 343.613 276.843C343.452 276.511 343.401 276.137 343.467 275.775C343.533 275.412 343.711 275.08 343.978 274.826C344.244 274.572 344.585 274.408 344.95 274.36L353.86 273.13C354.223 273.081 354.56 272.918 354.825 272.664C355.089 272.411 355.266 272.08 355.33 271.72L356.92 262.86C356.985 262.498 357.162 262.166 357.428 261.911C357.693 261.656 358.032 261.492 358.396 261.442C358.761 261.392 359.131 261.459 359.455 261.633C359.78 261.807 360.04 262.079 360.2 262.41L364.12 270.51C364.273 270.847 364.531 271.127 364.855 271.307C365.179 271.487 365.552 271.558 365.92 271.51L374.83 270.28C375.198 270.224 375.575 270.288 375.904 270.462C376.234 270.636 376.498 270.911 376.66 271.247C376.821 271.583 376.87 271.962 376.8 272.328C376.73 272.694 376.544 273.027 376.27 273.28L369.79 279.51C369.528 279.764 369.352 280.093 369.288 280.452C369.223 280.811 369.273 281.181 369.43 281.51L373.35 289.6C373.503 289.933 373.546 290.305 373.475 290.664C373.404 291.023 373.221 291.35 372.953 291.6C372.685 291.849 372.345 292.007 371.982 292.052C371.619 292.097 371.251 292.026 370.93 291.85V291.85Z" fill="black"/>
<path d="M369.76 290.22L362.76 286.45C362.473 286.299 362.146 286.242 361.825 286.287C361.504 286.332 361.205 286.476 360.97 286.7L355.21 292.23C354.973 292.453 354.673 292.595 354.351 292.638C354.029 292.68 353.701 292.62 353.415 292.467C353.129 292.313 352.898 292.073 352.755 291.782C352.613 291.49 352.565 291.16 352.62 290.84L354.03 282.99C354.089 282.67 354.044 282.339 353.902 282.045C353.76 281.752 353.528 281.512 353.24 281.36L346.24 277.59C345.95 277.438 345.717 277.197 345.573 276.903C345.43 276.609 345.384 276.277 345.442 275.955C345.5 275.633 345.659 275.337 345.896 275.112C346.133 274.886 346.435 274.742 346.76 274.7L354.66 273.61C354.982 273.567 355.283 273.422 355.518 273.198C355.753 272.973 355.912 272.68 355.97 272.36L357.37 264.51C357.429 264.191 357.588 263.898 357.822 263.674C358.057 263.449 358.356 263.304 358.678 263.259C358.999 263.213 359.327 263.27 359.614 263.421C359.902 263.572 360.135 263.81 360.28 264.1L363.76 271.29C363.903 271.583 364.134 271.822 364.422 271.975C364.709 272.128 365.038 272.186 365.36 272.14L373.26 271.05C373.583 271.004 373.913 271.061 374.201 271.215C374.489 271.368 374.722 271.609 374.864 271.903C375.007 272.196 375.052 272.528 374.994 272.849C374.935 273.17 374.776 273.465 374.54 273.69L368.79 279.22C368.552 279.442 368.392 279.736 368.334 280.057C368.276 280.378 368.324 280.708 368.47 281L371.94 288.18C372.105 288.48 372.166 288.827 372.113 289.165C372.059 289.503 371.894 289.814 371.644 290.048C371.394 290.282 371.073 290.426 370.731 290.457C370.39 290.488 370.048 290.405 369.76 290.22V290.22Z" fill="#FF0016"/>
<path opacity="0.1" d="M259 151.98C263.807 151.991 268.433 153.815 271.955 157.086C275.476 160.358 277.635 164.837 278 169.63C278 169.15 278.06 168.63 278.06 168.18C278.06 163.114 276.048 158.256 272.466 154.674C268.884 151.092 264.026 149.08 258.96 149.08C253.894 149.08 249.036 151.092 245.454 154.674C241.872 158.256 239.86 163.114 239.86 168.18C239.86 168.67 239.86 169.18 239.92 169.63C240.286 164.823 242.456 160.333 245.995 157.059C249.534 153.785 254.179 151.971 259 151.98Z" fill="black"/>
<defs>
<filter id="filter0_d" x="162" y="26" width="58" height="58" filterUnits="userSpaceOnUse" color-interpolation-filters="sRGB">
<feFlood flood-opacity="0" result="BackgroundImageFix"/>
<feColorMatrix in="SourceAlpha" type="matrix" values="0 0 0 0 0 0 0 0 0 0 0 0 0 0 0 0 0 0 127 0"/>
<feOffset dy="4"/>
<feGaussianBlur stdDeviation="2"/>
<feColorMatrix type="matrix" values="0 0 0 0 0 0 0 0 0 0 0 0 0 0 0 0 0 0 0.25 0"/>
<feBlend mode="normal" in2="BackgroundImageFix" result="effect1_dropShadow"/>
<feBlend mode="normal" in="SourceGraphic" in2="effect1_dropShadow" result="shape"/>
</filter>
<filter id="filter1_d" x="306" y="28" width="58" height="58" filterUnits="userSpaceOnUse" color-interpolation-filters="sRGB">
<feFlood flood-opacity="0" result="BackgroundImageFix"/>
<feColorMatrix in="SourceAlpha" type="matrix" values="0 0 0 0 0 0 0 0 0 0 0 0 0 0 0 0 0 0 127 0"/>
<feOffset dy="4"/>
<feGaussianBlur stdDeviation="2"/>
<feColorMatrix type="matrix" values="0 0 0 0 0 0 0 0 0 0 0 0 0 0 0 0 0 0 0.25 0"/>
<feBlend mode="normal" in2="BackgroundImageFix" result="effect1_dropShadow"/>
<feBlend mode="normal" in="SourceGraphic" in2="effect1_dropShadow" result="shape"/>
</filter>
</defs>
</svg>
