<?xml version="1.0" encoding="UTF-8" standalone="no"?> <!-- Created with Vectornator for iOS (http://vectornator.io/) --><!DOCTYPE svg PUBLIC "-//W3C//DTD SVG 1.1//EN" "http://www.w3.org/Graphics/SVG/1.1/DTD/svg11.dtd">
<svg height="100%" style="fill-rule:nonzero;clip-rule:evenodd;stroke-linecap:round;stroke-linejoin:round;" xmlns:xlink="http://www.w3.org/1999/xlink" xmlns="http://www.w3.org/2000/svg" xml:space="preserve" width="100%" xmlns:vectornator="http://vectornator.io" version="1.1" viewBox="0 0 512 512">
<metadata>
<vectornator:setting key="DimensionsVisible" value="1"/>
<vectornator:setting key="GuidesVisible" value="1"/>
<vectornator:setting key="SnapToEdges" value="0"/>
<vectornator:setting key="CMYKEnabledKey" value="0"/>
<vectornator:setting key="RulersVisible" value="1"/>
<vectornator:setting key="DisplayWhiteBackground" value="0"/>
<vectornator:setting key="Units" value="Pixels"/>
<vectornator:setting key="SnapToGrid" value="0"/>
<vectornator:setting key="SnapToGuides" value="1"/>
<vectornator:setting key="IsolateActiveLayer" value="0"/>
<vectornator:setting key="OutlineMode" value="0"/>
<vectornator:setting key="TimeLapseWatermarkDisabled" value="0"/>
<vectornator:setting key="SnapToPoints" value="0"/>
<vectornator:setting key="doHistoryDisabled" value="0"/>
<vectornator:setting key="PencilOnly" value="0"/>
<vectornator:setting key="DynamicGuides" value="0"/>
</metadata>
<defs/>
<g id="Ebene 1" vectornator:layerName="Ebene 1">
<path d="M346.738+555.28L349.418+555.28L349.418+558.482L346.738+558.482L346.738+555.28Z" opacity="1" fill="#e1b5b3"/>
<path stroke="#6a6864" stroke-width="4.85305" d="M0+378.486L512.92+374.687L512.92+552.877L0+553.355L0+378.486Z" fill="#6b6965" stroke-linecap="round" opacity="1" stroke-linejoin="round"/>
<path d="M288.927+43.5921L422.345+43.5921L422.345+413.49L288.927+413.49L288.927+43.5921Z" opacity="1" fill="#f7daae"/>
<path d="M288.927+43.5921L422.345+43.5921L422.345+413.49L288.927+413.49L288.927+43.5921Z" opacity="1" fill="#c1b4a2"/>
<g opacity="1">
<path d="M304.505+235.635L360.308+235.635L360.308+312.956L304.505+312.956L304.505+235.635Z" opacity="1" fill="#ece7e1"/>
<path d="M308.86+241.668L355.954+241.668L355.954+306.922L308.86+306.922L308.86+241.668Z" opacity="1" fill="#656058"/>
<path d="M329.154+238.593L335.66+238.593L335.66+309.998L329.154+309.998L329.154+238.593Z" opacity="1" fill="#ece7e1"/>
<path d="M308.094+276.465L308.094+272.126L356.719+272.126L356.719+276.465L308.094+276.465Z" opacity="1" fill="#ece7e1"/>
</g>
<path stroke="#c9d2d3" stroke-width="4.85305" d="M0+387.95L512+392.112C512+392.112+512+397.932+512+410.281C512+422.629+512+441.507+512+441.507L0+444.346L0+387.95Z" fill="#a39d94" stroke-linecap="round" opacity="1" stroke-linejoin="round"/>
<g opacity="1">
<path d="M309.865+70.6262L365.668+70.6262L365.668+147.948L309.865+147.948L309.865+70.6262Z" opacity="1" fill="#ece7e1"/>
<path d="M314.22+76.6599L361.313+76.6599L361.313+141.914L314.22+141.914L314.22+76.6599Z" opacity="1" fill="#656058"/>
<path d="M334.514+73.5841L341.02+73.5841L341.02+144.99L334.514+144.99L334.514+73.5841Z" opacity="1" fill="#ece7e1"/>
<path d="M313.454+111.457L313.454+107.117L362.079+107.117L362.079+111.457L313.454+111.457Z" opacity="1" fill="#ece7e1"/>
</g>
<path d="M0.177959+149.232L328.82+149.232L328.82+414.94L0.177959+414.94L0.177959+149.232Z" opacity="1" fill="#baaeb1"/>
<path d="M153.46+149.783L-0.389356+149.783L164.064+59.546L328.517+149.783L166.911+149.783" opacity="1" fill="#bb1032"/>
<path d="M348.443+44.5472L269.405+44.5472L353.89-19.7039L438.375+44.5472L355.352+44.5472" opacity="1" fill="#bb1032"/>
<path d="M166.911+149.783L153.46+149.783" opacity="1" fill="#bb1032"/>
<path d="M23.1179+197.016L78.7785+197.016L78.7785+284.343L23.1179+284.343L23.1179+197.016Z" opacity="1" fill="#ece7e1"/>
<path d="M26.8209+203.061L74.6695+203.061L74.6695+278.298L26.8209+278.298L26.8209+203.061Z" opacity="1" fill="#f7daae"/>
<path d="M47.4276+199.072L54.2892+199.072L54.2892+280.198L47.4276+280.198L47.4276+199.072Z" opacity="1" fill="#ece7e1"/>
<g opacity="1">
<path d="M23.3274+197.076C23.2851+179.986+35.7114+166.097+51.0824+166.054C66.4534+166.011+78.9484+179.829+78.9907+196.919" opacity="1" fill="#ece7e1"/>
<path d="M27.438+194.951C27.4645+180.298+38.1706+168.441+51.3506+168.468C64.5307+168.495+75.1938+180.396+75.1672+195.05" opacity="1" fill="#f7daae"/>
<path d="M33.2601+175.356L36.3641+172.885L53.9798+198.035L50.8757+200.506L33.2601+175.356Z" opacity="1" fill="#ece7e1"/>
<path d="M65.786+173.33L68.8424+175.868L50.7517+200.632L47.6953+198.094L65.786+173.33Z" opacity="1" fill="#ece7e1"/>
</g>
<path d="M21.1745+324.21L76.8351+324.21L76.8351+411.537L21.1745+411.537L21.1745+324.21Z" opacity="1" fill="#473110"/>
<path d="M24.8775+330.255L72.7261+330.255L72.7261+405.492L24.8775+405.492L24.8775+330.255Z" opacity="1" fill="#473110"/>
<path d="M21.3838+324.278C21.3415+307.189+33.7678+293.3+49.1388+293.256C64.5098+293.213+77.0048+307.032+77.0471+324.121" opacity="1" fill="#473110"/>
<path d="M25.3747+321.898C25.5509+307.245+36.3775+295.513+49.5565+295.693C62.7355+295.874+73.2763+307.898+73.1001+322.55" opacity="1" fill="#f7daae"/>
<path d="M31.3967+302.371L34.5258+299.936L51.8834+325.29L48.7543+327.725L31.3967+302.371Z" opacity="1" fill="#473110"/>
<path d="M63.9414+300.723L66.9716+303.296L48.629+327.849L45.5987+325.275L63.9414+300.723Z" opacity="1" fill="#473110"/>
<path d="M102.42+203.061L150.374+203.061L150.374+278.298L102.42+278.298L102.42+203.061Z" opacity="1" fill="#f7daae"/>
<path d="M98.5667+197.016L154.227+197.016L154.227+284.343L98.5667+284.343L98.5667+197.016Z" opacity="1" fill="#ece7e1"/>
<path d="M103.459+204.756L151.414+204.756L151.414+279.993L103.459+279.993L103.459+204.756Z" opacity="1" fill="#f7daae"/>
<path d="M135.95+204.315L149.89+204.743L151.24+204.516L150.956+218.312L150.954+250.076L150.452+280.184L106.294+279.788C106.294+279.788+130.12+241.947+117.936+248.796C105.751+255.646+112.108+242.29+112.108+242.29L125.475+226.992L128.266+223.797C128.266+223.797+112.633+228.036+113.891+224.697C115.15+221.358+129.64+214.186+129.64+214.186C129.64+214.186+120.813+211.336+120.956+208.927C121.099+206.518+134.105+204.496+134.105+204.496" opacity="1" fill="#546641"/>
<path d="M122.982+199.425L129.843+199.425L129.843+280.551L122.982+280.551L122.982+199.425Z" opacity="1" fill="#ece7e1"/>
<path d="M126.147+168.502C139.324+168.801+149.769+180.92+149.476+195.571" opacity="1" fill="#f7daae"/>
<path d="M101.758+194.487C102.05+179.836+112.97+168.203+126.147+168.502" opacity="1" fill="#f7daae"/>
<path d="M97.7874+196.784C97.881+179.694+110.417+165.918+125.788+166.014C141.159+166.109+153.544+180.041+153.45+197.13" opacity="1" fill="#ece7e1"/>
<path d="M99.1445+197.466C98.8966+180.378+111.155+166.321+126.524+166.067C141.893+165.814+154.553+179.461+154.801+196.548" opacity="1" fill="#ece7e1"/>
<path d="M101.672+195.414C101.672+180.76+112.356+168.881+125.536+168.881C131.993+168.881+137.85+171.731+142.147+176.362C143.441+177.758+144.594+179.315+145.579+181.005C147.997+185.154+136.602+190.924+136.602+196.236" opacity="1" fill="#f7daae"/>
<path d="M108.893+175.424L111.993+172.946L129.654+198.06L126.554+200.538L108.893+175.424Z" opacity="1" fill="#ece7e1"/>
<path d="M141.415+173.331L144.476+175.862L126.43+200.664L123.369+198.132L141.415+173.331Z" opacity="1" fill="#ece7e1"/>
<g opacity="1">
<path d="M173.787+197.016L229.448+197.016L229.448+284.343L173.787+284.343L173.787+197.016Z" opacity="1" fill="#ece7e1"/>
<path d="M177.64+203.061L225.595+203.061L225.595+278.298L177.64+278.298L177.64+203.061Z" opacity="1" fill="#f7daae"/>
<path d="M198.202+199.425L205.064+199.425L205.064+280.551L198.202+280.551L198.202+199.425Z" opacity="1" fill="#ece7e1"/>
<g opacity="1">
<path d="M174.365+197.466C174.117+180.378+186.375+166.321+201.745+166.067C217.114+165.814+229.774+179.461+230.022+196.548" opacity="1" fill="#ece7e1"/>
<path d="M178.327+195.031C178.327+180.378+189.011+168.498+202.192+168.498C215.372+168.498+226.056+180.378+226.056+195.031" opacity="1" fill="#f7daae"/>
<path d="M184.114+175.424L187.213+172.946L204.874+198.06L201.775+200.538L184.114+175.424Z" opacity="1" fill="#ece7e1"/>
<path d="M216.636+173.331L219.697+175.862L201.651+200.664L198.59+198.132L216.636+173.331Z" opacity="1" fill="#ece7e1"/>
</g>
<path d="M172.973+196.818C173.067+179.728+185.603+165.952+200.974+166.048C216.345+166.144+228.729+180.075+228.636+197.164" opacity="1" fill="#ece7e1"/>
<path d="M176.978+194.487C177.271+179.836+188.19+168.203+201.368+168.502C214.545+168.801+224.989+180.92+224.697+195.571" opacity="1" fill="#f7daae"/>
<path d="M183.155+175.015L186.304+172.609L203.459+198.118L200.311+200.524L183.155+175.015Z" opacity="1" fill="#ece7e1"/>
<path d="M215.712+173.661L218.722+176.262L200.184+200.647L197.175+198.047L215.712+173.661Z" opacity="1" fill="#ece7e1"/>
</g>
<g opacity="1">
<path d="M249.008+197.016L304.668+197.016L304.668+284.343L249.008+284.343L249.008+197.016Z" opacity="1" fill="#ece7e1"/>
<path d="M252.861+203.061L300.815+203.061L300.815+278.298L252.861+278.298L252.861+203.061Z" opacity="1" fill="#656058"/>
<path d="M273.422+199.425L280.284+199.425L280.284+280.551L273.422+280.551L273.422+199.425Z" opacity="1" fill="#ece7e1"/>
<g opacity="1">
<path d="M249.585+197.466C249.338+180.378+261.596+166.321+276.965+166.067C292.334+165.814+304.994+179.461+305.242+196.548" opacity="1" fill="#ece7e1"/>
<path d="M253.547+195.031C253.547+180.378+264.232+168.498+277.412+168.498C290.592+168.498+301.277+180.378+301.277+195.031" opacity="1" fill="#f7daae"/>
<path d="M259.334+175.424L262.434+172.946L280.095+198.06L276.995+200.538L259.334+175.424Z" opacity="1" fill="#ece7e1"/>
<path d="M291.856+173.331L294.917+175.862L276.871+200.664L273.81+198.132L291.856+173.331Z" opacity="1" fill="#ece7e1"/>
</g>
<path d="M248.321+196.7C248.415+179.61+260.951+165.834+276.322+165.93C291.693+166.026+304.078+179.957+303.984+197.046" opacity="1" fill="#ece7e1"/>
<path d="M252.199+194.487C252.491+179.836+263.411+168.203+276.588+168.502C289.765+168.801+300.21+180.92+299.917+195.571" opacity="1" fill="#656058"/>
<path d="M258.376+175.015L261.524+172.609L278.679+198.118L275.531+200.524L258.376+175.015Z" opacity="1" fill="#ece7e1"/>
<path d="M290.932+173.661L293.942+176.262L275.405+200.647L272.395+198.047L290.932+173.661Z" opacity="1" fill="#ece7e1"/>
</g>
<path d="M273.422+199.425L280.284+199.425L280.284+280.551L273.422+280.551L273.422+199.425Z" opacity="1" fill="#ece7e1"/>
<g opacity="1">
<path d="M248.205+293.256L307.056+293.256L307.056+381.103L248.205+381.103L248.205+293.256Z" opacity="1" fill="#ece7e1"/>
<path d="M252.797+300.111L302.464+300.111L302.464+374.248L252.797+374.248L252.797+300.111Z" opacity="1" fill="#f7daae"/>
<path d="M274.2+296.617L281.061+296.617L281.061+377.743L274.2+377.743L274.2+296.617Z" opacity="1" fill="#ece7e1"/>
<path d="M251.99+339.645L251.99+334.715L303.271+334.715L303.271+339.645L251.99+339.645Z" opacity="1" fill="#ece7e1"/>
</g>
<g opacity="1">
<path d="M173.968+293.256L232.819+293.256L232.819+381.103L173.968+381.103L173.968+293.256Z" opacity="1" fill="#ece7e1"/>
<path d="M178.56+300.111L228.227+300.111L228.227+374.248L178.56+374.248L178.56+300.111Z" opacity="1" fill="#656058"/>
<path d="M199.963+296.617L206.824+296.617L206.824+377.743L199.963+377.743L199.963+296.617Z" opacity="1" fill="#ece7e1"/>
<path d="M177.753+339.645L177.753+334.715L229.034+334.715L229.034+339.645L177.753+339.645Z" opacity="1" fill="#ece7e1"/>
</g>
<g opacity="1">
<path d="M359.253+152.173L415.056+152.173L415.056+229.495L359.253+229.495L359.253+152.173Z" opacity="1" fill="#ece7e1"/>
<path d="M363.607+158.207L410.701+158.207L410.701+223.461L363.607+223.461L363.607+158.207Z" opacity="1" fill="#656058"/>
<path d="M383.901+155.131L390.407+155.131L390.407+226.537L383.901+226.537L383.901+155.131Z" opacity="1" fill="#ece7e1"/>
<path d="M362.842+193.004L362.842+188.664L411.467+188.664L411.467+193.004L362.842+193.004Z" opacity="1" fill="#ece7e1"/>
</g>
<g opacity="1">
<path d="M97.0101+293.256L155.861+293.256L155.861+381.103L97.0101+381.103L97.0101+293.256Z" opacity="1" fill="#ece7e1"/>
<path d="M101.602+300.111L151.269+300.111L151.269+374.248L101.602+374.248L101.602+300.111Z" opacity="1" fill="#f7daae"/>
<path d="M123.005+296.617L129.866+296.617L129.866+377.743L123.005+377.743L123.005+296.617Z" opacity="1" fill="#ece7e1"/>
<path d="M100.795+339.645L100.795+334.715L152.077+334.715L152.077+339.645L100.795+339.645Z" opacity="1" fill="#ece7e1"/>
</g>
<path d="M135.402+191.074L142.371+187.851C145.24+185.974+145.595+180.147+145.904+182.33L149.662+192.45C149.971+194.633+147.645+196.154+144.467+195.847L136.742+196.217C133.564+195.91+132.533+192.95+135.402+191.074Z" opacity="1" fill="#546641"/>
<path d="M273.422+199.425L280.284+199.425L280.284+280.551L273.422+280.551L273.422+199.425Z" opacity="1" fill="#ece7e1"/>
<path d="M135.687+218.312C135.687+215.918+137.247+213.978+139.171+213.978C141.095+213.978+142.655+215.918+142.655+218.312C142.655+220.705+141.095+222.646+139.171+222.646C137.247+222.646+135.687+220.705+135.687+218.312Z" opacity="1" fill="#cf1910"/>
<path d="M142.362+243.924C142.362+241.531+143.922+239.59+145.846+239.59C147.77+239.59+149.33+241.531+149.33+243.924C149.33+246.318+147.77+248.258+145.846+248.258C143.922+248.258+142.362+246.318+142.362+243.924Z" opacity="1" fill="#cf1910"/>
<path d="M130.965+260.332C130.965+257.938+132.525+255.997+134.449+255.997C136.373+255.997+137.933+257.938+137.933+260.332C137.933+262.725+136.373+264.666+134.449+264.666C132.525+264.666+130.965+262.725+130.965+260.332Z" opacity="1" fill="#cf1910"/>
<path d="M113.854+271.91C113.854+269.516+115.413+267.576+117.337+267.576C119.262+267.576+120.821+269.516+120.821+271.91C120.821+274.304+119.262+276.244+117.337+276.244C115.413+276.244+113.854+274.304+113.854+271.91Z" opacity="1" fill="#cf1910"/>
<path d="M131.097+233.225C131.097+230.831+132.657+228.891+134.581+228.891C136.505+228.891+138.065+230.831+138.065+233.225C138.065+235.618+136.505+237.559+134.581+237.559C132.657+237.559+131.097+235.618+131.097+233.225Z" opacity="1" fill="#cf1910"/>
<path d="M140.605+267.171C140.605+264.777+142.164+262.837+144.089+262.837C146.013+262.837+147.572+264.777+147.572+267.171C147.572+269.564+146.013+271.505+144.089+271.505C142.164+271.505+140.605+269.564+140.605+267.171Z" opacity="1" fill="#cf1910"/>
<path d="M139.385+217.345C139.385+216.86+139.776+216.466+140.259+216.466C140.742+216.466+141.133+216.86+141.133+217.345C141.133+217.83+140.742+218.224+140.259+218.224C139.776+218.224+139.385+217.83+139.385+217.345Z" opacity="1" fill="#e1b5b3"/>
<path d="M146.06+242.957C146.06+242.472+146.451+242.079+146.934+242.079C147.417+242.079+147.808+242.472+147.808+242.957C147.808+243.443+147.417+243.836+146.934+243.836C146.451+243.836+146.06+243.443+146.06+242.957Z" opacity="1" fill="#e1b5b3"/>
<path d="M134.663+259.365C134.663+258.88+135.054+258.486+135.537+258.486C136.02+258.486+136.411+258.88+136.411+259.365C136.411+259.85+136.02+260.243+135.537+260.243C135.054+260.243+134.663+259.85+134.663+259.365Z" opacity="1" fill="#e1b5b3"/>
<path d="M117.551+270.943C117.551+270.458+117.943+270.065+118.426+270.065C118.908+270.065+119.3+270.458+119.3+270.943C119.3+271.428+118.908+271.822+118.426+271.822C117.943+271.822+117.551+271.428+117.551+270.943Z" opacity="1" fill="#e1b5b3"/>
<path d="M134.795+232.258C134.795+231.773+135.186+231.379+135.669+231.379C136.152+231.379+136.543+231.773+136.543+232.258C136.543+232.743+136.152+233.137+135.669+233.137C135.186+233.137+134.795+232.743+134.795+232.258Z" opacity="1" fill="#e1b5b3"/>
<path d="M144.302+266.204C144.302+265.719+144.694+265.325+145.177+265.325C145.659+265.325+146.051+265.719+146.051+266.204C146.051+266.689+145.659+267.083+145.177+267.083C144.694+267.083+144.302+266.689+144.302+266.204Z" opacity="1" fill="#e1b5b3"/>
</g>
</svg>
