<svg width="628" height="650" viewBox="0 0 628 650" fill="none" xmlns="http://www.w3.org/2000/svg">
<path d="M617.437 364.248C616.674 360.306 615.888 356.417 615.079 352.581L615.075 352.58L615.071 352.578L615.068 352.574L615.068 352.57C604.836 304.022 591.05 264.214 574.724 231.742L531.463 216.863L564.071 212.203C550.889 189.837 536.362 171.517 520.924 156.648L441.466 165.729L501.441 140.025C391.221 57.1155 246.718 123.71 207.343 144.64C201.942 147.499 198.524 149.516 197.43 150.166C197.419 150.166 197.419 150.166 197.408 150.177C197.168 150.325 197.054 150.393 197.054 150.393L219.408 162.003H219.42L616.412 368.213L617.437 364.248Z" fill="white"/>
<path d="M618.383 364.747C617.62 360.805 616.834 356.916 616.025 353.08L616.021 353.079L616.017 353.077L616.014 353.073V353.069C605.782 304.521 591.996 264.713 575.67 232.241L532.409 217.362L565.017 212.702C551.835 190.336 537.308 172.016 521.87 157.147L442.412 166.228L502.387 140.524C392.167 57.6143 247.664 124.209 208.288 145.138C202.888 147.998 199.47 150.015 198.376 150.664C198.365 150.664 198.365 150.664 198.353 150.676C198.114 150.824 198 150.892 198 150.892L220.354 162.502H220.365L617.358 368.712L618.383 364.747Z" fill="#5EC5FF"/>
<path d="M328.186 217.36L504.172 140.524C393.952 57.6143 249.449 124.209 210.074 145.138C204.673 147.998 201.255 150.015 200.161 150.664C200.15 150.664 200.15 150.664 200.139 150.676C199.899 150.824 199.785 150.892 199.785 150.892L222.139 162.502H222.151L328.186 217.36Z" fill="#FC70FF"/>
<path d="M620.902 366.052C620.139 362.11 619.353 358.222 618.544 354.386L618.54 354.385L618.536 354.383L618.533 354.379V354.375C608.301 305.827 594.515 266.019 578.189 233.547L534.019 218.246L406.019 259.376L619.877 370.017L620.902 366.052Z" fill="#FC70FF"/>
<path d="M163.512 191.263L153.187 106.085L197.067 168.032L163.512 191.263Z" fill="#FFD1A6"/>
<path d="M620.5 371C621.013 368.961 620.069 359.816 618.907 358.118C617.745 356.421 616.469 354.564 615.079 352.581L615.075 352.58L615.071 352.578L615.069 352.574L615.068 352.57C569.289 287.115 401.487 73.2373 208.197 145.836H208.186C204.608 147.181 201.023 148.624 197.431 150.166C197.419 150.166 197.419 150.166 197.408 150.177C194.138 151.578 190.864 153.067 187.587 154.643C185.923 155.429 184.271 156.25 182.608 157.081C181.161 157.811 179.725 158.551 178.278 159.315C178.278 159.315 170.052 161.377 160.835 169.147C142.731 184.437 120.787 221.796 149.863 309.024C149.863 309.024 175.68 381.293 162.772 414.858C149.863 448.4 229.902 487.115 253.11 414.858C276.341 342.578 284.1 272.884 284.1 272.884C284.1 272.884 310.806 329.156 308.175 385.588C307.092 408.716 309.154 431.868 315.387 454.142C316.025 456.478 316.72 458.813 317.415 461.183C325.812 489.382 338.914 525.659 358.214 560.739C367.307 577.455 377.804 593.368 389.592 608.306C405.034 603.289 420.097 597.17 434.664 589.997C479.052 568.17 518.244 537.079 549.596 498.82C580.949 460.561 607.821 418.812 620.5 371Z" fill="#FBEBDC"/>
<path d="M168.315 434.017C170.146 434.443 172.609 430.582 173.815 425.394C175.022 420.206 174.516 415.655 172.685 415.229C170.854 414.803 168.391 418.664 167.185 423.852C165.978 429.04 166.484 433.591 168.315 434.017Z" fill="#847871"/>
<path d="M186.011 185.127L175.686 99.949L219.566 161.896L186.011 185.127Z" fill="#FFD9B6"/>
<path d="M156.627 202.284L63.1619 59L177.779 171.692C167.572 180.446 162.867 187.155 156.627 202.284Z" fill="#5EC5FF"/>
<path d="M193.305 262.945C197.34 263.883 202.081 258.321 203.895 250.521C205.709 242.721 203.908 235.637 199.874 234.699C195.839 233.761 191.098 239.323 189.284 247.123C187.471 254.923 189.271 262.007 193.305 262.945Z" fill="#6F4623"/>
</svg>
