<svg width="1070" height="838" viewBox="0 0 1070 838" fill="none" xmlns="http://www.w3.org/2000/svg">
<g clip-path="url(#clip0)">
<path d="M158.4 526.59C158.397 527.711 157.951 528.786 157.158 529.578C156.365 530.371 155.291 530.817 154.17 530.82H148.17C149.292 530.82 150.368 531.266 151.161 532.059C151.954 532.852 152.4 533.928 152.4 535.05C152.4 536.172 151.954 537.248 151.161 538.041C150.368 538.834 149.292 539.28 148.17 539.28H156.62C157.742 539.28 158.818 539.726 159.611 540.519C160.404 541.312 160.85 542.388 160.85 543.51C160.85 544.632 160.404 545.708 159.611 546.501C158.818 547.294 157.742 547.74 156.62 547.74H116.91C144.04 623.74 194.91 690.18 261.79 740.25C262.488 739.771 263.314 739.513 264.16 739.51H313.09C314.212 739.51 315.288 739.956 316.081 740.749C316.874 741.542 317.32 742.618 317.32 743.74C317.32 744.862 316.874 745.938 316.081 746.731C315.288 747.524 314.212 747.97 313.09 747.97H307.09C308.212 747.97 309.288 748.416 310.081 749.209C310.874 750.002 311.32 751.078 311.32 752.2C311.32 753.322 310.874 754.398 310.081 755.191C309.288 755.984 308.212 756.43 307.09 756.43H315.55C316.672 756.43 317.748 756.876 318.541 757.669C319.334 758.462 319.78 759.538 319.78 760.66C319.78 761.782 319.334 762.858 318.541 763.651C317.748 764.444 316.672 764.89 315.55 764.89H298.16C373.09 810.69 463.76 837.5 561.44 837.5C619.348 837.614 676.861 827.962 731.56 808.95C738.827 806.397 746.01 803.697 753.11 800.85C765.47 795.857 777.54 790.413 789.32 784.52C794.4 781.98 799.423 779.353 804.39 776.64L804.62 776.52L805.74 775.9L808.65 774.29C814.523 771.01 820.307 767.617 826 764.11L829.5 761.94C832.46 760.08 835.39 758.19 838.29 756.27C844.077 752.463 849.763 748.53 855.35 744.47L857.35 742.99L858.96 741.8C866.48 736.24 873.793 730.477 880.9 724.51L881.2 724.26C884.68 721.333 888.11 718.357 891.49 715.33L891.79 715.06C902.814 705.199 913.33 694.786 923.3 683.86C938.247 667.503 951.877 649.988 964.06 631.48H944.56C943.438 631.48 942.362 631.034 941.569 630.241C940.776 629.448 940.33 628.372 940.33 627.25C940.33 626.128 940.776 625.052 941.569 624.259C942.362 623.466 943.438 623.02 944.56 623.02H936.11C934.988 623.02 933.912 622.574 933.119 621.781C932.326 620.988 931.88 619.912 931.88 618.79C931.88 617.668 932.326 616.592 933.119 615.799C933.912 615.006 934.988 614.56 936.11 614.56H942.11C941.538 614.588 940.966 614.499 940.429 614.3C939.892 614.1 939.402 613.793 938.987 613.398C938.572 613.003 938.242 612.528 938.016 612.001C937.791 611.475 937.674 610.908 937.674 610.335C937.674 609.762 937.791 609.196 938.016 608.669C938.242 608.143 938.572 607.667 938.987 607.272C939.402 606.877 939.892 606.57 940.429 606.371C940.966 606.171 941.538 606.082 942.11 606.11H979.4C1010.4 550.39 1027.83 487.61 1027.83 421.18C1027.84 379.276 1020.83 337.666 1007.09 298.08H924.1C921.782 298.003 919.585 297.027 917.973 295.36C916.36 293.693 915.459 291.464 915.459 289.145C915.459 286.826 916.36 284.597 917.973 282.93C919.585 281.263 921.782 280.288 924.1 280.21H906.24C903.872 280.21 901.6 279.269 899.926 277.595C898.251 275.92 897.31 273.649 897.31 271.28C897.31 268.912 898.251 266.64 899.926 264.966C901.6 263.291 903.872 262.35 906.24 262.35H919C916.682 262.273 914.485 261.297 912.873 259.63C911.26 257.963 910.359 255.734 910.359 253.415C910.359 251.096 911.26 248.867 912.873 247.2C914.485 245.533 916.682 244.558 919 244.48H983.91C909.46 102.91 748.28 4.87012 561.44 4.87012C452.3 4.87012 351.93 38.3201 272.44 94.3501H293.24C295.558 94.4277 297.755 95.403 299.367 97.0702C300.98 98.7374 301.881 100.966 301.881 103.285C301.881 105.604 300.98 107.833 299.367 109.5C297.755 111.167 295.558 112.143 293.24 112.22H280.51C282.878 112.22 285.15 113.161 286.824 114.836C288.499 116.51 289.44 118.782 289.44 121.15C289.44 123.518 288.499 125.79 286.824 127.465C285.15 129.139 282.878 130.08 280.51 130.08H298.37C299.568 130.04 300.763 130.241 301.882 130.672C303.001 131.103 304.022 131.755 304.884 132.589C305.746 133.422 306.431 134.421 306.9 135.525C307.368 136.629 307.609 137.816 307.609 139.015C307.609 140.214 307.368 141.401 306.9 142.505C306.431 143.609 305.746 144.608 304.884 145.441C304.022 146.275 303.001 146.927 301.882 147.358C300.763 147.789 299.568 147.99 298.37 147.95H209.49C138.16 221.07 94.96 316.62 94.96 421.18C94.9526 455.383 99.6259 489.425 108.85 522.36H154.17C155.29 522.365 156.363 522.813 157.155 523.605C157.947 524.397 158.395 525.47 158.4 526.59V526.59Z" fill="#F9ECE2"/>
<path d="M957.597 352.999C951.862 352.422 931.878 333.65 920.297 328.12C914.961 325.571 911.619 330.957 909.556 337.498C902.459 332.095 894.674 326.116 888.925 323.391C888.18 322.985 887.371 322.766 886.549 322.747C885.727 322.727 884.911 322.909 884.153 323.278C876.698 327.046 875.103 349.761 875.103 349.761L875.364 351.188C871.706 354.538 860.73 356.638 855.971 357.007C850.374 357.424 842.974 358.386 840.361 359.893C837.748 361.4 807.352 369.928 789.872 376.148C772.391 382.368 727.238 413.355 727.238 413.355L684.436 424.577L678.426 423.23C676.514 415.215 667.767 415.295 657.521 418.533C640.879 414.975 624.278 412.201 618.914 415.039C634.25 405.933 653.106 391.489 652.886 375.555C652.583 353.817 615.668 384.308 601.695 396.635L600.498 397.693L600.182 396.315C600.182 396.315 589.99 400.948 568.26 400.338C546.529 399.729 536.86 411.64 534.907 412.826C532.954 414.013 513.066 421.82 511.526 422.124C510.329 422.349 476.028 425.972 458.712 427.783C434.767 425.266 400.191 429.659 398.293 433.827C396.12 438.636 369.795 456.142 369.795 456.142L360.773 458.899C360.773 458.899 359.7 462.105 358.462 466.209C357.582 464.647 356.836 462.988 356.234 461.256C354.871 457.002 353.804 452.627 353.043 448.174V448.174C352.933 447.581 352.809 446.988 352.686 446.395C352.686 446.251 352.617 446.106 352.589 445.962L352.259 444.471L352.177 444.103C351.729 442.182 351.187 440.292 350.554 438.444V438.444C349.927 436.589 349.144 434.812 348.216 433.138V433.138C346.903 430.689 345.124 428.626 343.017 427.11C339.565 424.657 335.397 424.08 331.381 423.551C327.998 422.981 324.575 422.809 321.162 423.038C318.233 423.359 315.358 424.289 312.429 424.497C307.711 424.818 303.076 423.263 298.4 422.429C293.724 421.595 288.635 421.611 284.647 424.657C281.291 427.254 279.351 431.631 277.192 435.59C273.141 443.027 267.935 449.518 261.843 454.731C257.717 458.21 253.027 461.56 251.528 467.171C250.029 472.782 252.105 478.216 253.027 483.747C255.062 495.93 251.775 509.3 255.434 520.618C255.516 520.874 255.599 521.115 255.695 521.371C255.901 521.98 256.122 522.606 256.383 523.199C256.614 523.749 256.871 524.284 257.153 524.802C257.424 525.314 257.728 525.801 258.061 526.261C258.384 526.721 258.749 527.14 259.147 527.511C259.54 527.893 259.969 528.222 260.426 528.489C262.112 529.331 263.971 529.582 265.777 529.21L266.767 529.05L267.675 528.858C268.743 528.636 269.799 528.341 270.838 527.976C271.872 527.621 272.862 527.109 273.781 526.453C274.613 525.847 275.319 525.034 275.85 524.072C276.38 523.111 276.721 522.024 276.848 520.89C276.983 519.888 277.047 518.875 277.041 517.86V517.155L277.247 517.892C279.904 526.563 284.658 534.151 290.936 539.74C297.214 545.328 304.746 548.678 312.622 549.383C320.498 550.088 328.381 548.12 335.317 543.715C342.254 539.31 347.947 532.657 351.709 524.561L353.263 523.952C358.256 522.09 363.371 520.707 368.557 519.816V519.816C369.122 521.153 369.756 522.448 370.455 523.696C387.386 554.459 440.296 555.517 440.296 555.517C440.296 555.517 498.763 552.872 503.288 551.493C507.813 550.114 521.305 552.519 525.197 556.735C529.089 560.951 546.24 562.699 551.81 551.798C557.381 540.897 563.776 542.997 563.776 542.997C564.93 541.172 565.917 539.211 566.719 537.145L570.447 537.354C580.28 537.963 596.069 539.149 599.48 540.752C604.514 543.109 626.135 542.933 637.825 537.194C649.516 531.454 685.963 507.12 685.963 507.12C685.963 507.12 708.629 499.104 712.659 497.501C716.689 495.898 727.238 484.164 727.238 484.164L748.968 474.353C748.968 474.353 771.923 459.925 781.606 458.418C791.288 456.911 800.063 447.036 800.063 447.036L861.611 413.628C865.737 412.925 869.943 413.17 873.989 414.349C879.49 416.353 915.318 410.229 926.17 396.716C926.17 396.716 926.569 394.968 927.105 392.115C927.6 392.115 928.109 392.002 928.646 391.986C930.956 392.58 932.373 392.98 932.373 392.98C936.945 396.97 941.815 400.474 946.924 403.448C954.227 407.536 962.053 409.781 964.804 402.775C965.215 401.693 965.493 400.549 965.629 399.377C972.698 405.228 996.492 423.263 997.166 401.781C997.991 376.549 963.318 353.577 957.597 352.999Z" fill="url(#paint0_linear)"/>
<path d="M383.521 518.052C383.521 518.052 372.408 517.235 356.922 523.006C351.788 524.891 346.797 527.266 341.999 530.108C319.223 543.477 338.134 471.339 338.134 471.339C338.134 471.339 344.475 471.339 352.094 470.585C361.199 469.736 372.119 467.972 376.163 464.285C383.59 457.44 383.521 518.052 383.521 518.052Z" fill="#EFB7B9"/>
<path d="M652.487 376.645C652.762 396.812 622.064 414.558 607.485 421.852C602.946 424.112 599.948 425.363 599.948 425.363L596.771 402.15C596.771 402.15 598.765 400.274 601.984 397.437C615.833 385.27 652.184 355.196 652.487 376.645Z" fill="#EFB7B9"/>
<path opacity="0.1" d="M607.485 421.851C602.946 424.112 599.948 425.362 599.948 425.362L596.771 402.15C596.771 402.15 598.765 400.274 601.984 397.437L607.485 421.851Z" fill="black"/>
<path d="M451.216 429.178C451.216 429.178 511.402 422.878 512.984 422.573C514.566 422.268 534.178 414.558 536.104 413.419C538.029 412.281 547.56 400.483 569.002 401.092C590.444 401.701 600.498 397.132 600.498 397.132L607.581 428.552L464.626 447.453L451.216 429.178Z" fill="#E1E7EF"/>
<path opacity="0.05" d="M451.216 429.178C451.216 429.178 511.402 422.878 512.984 422.573C514.566 422.268 534.178 414.558 536.104 413.419C538.029 412.281 547.56 400.483 569.002 401.092C590.444 401.701 600.498 397.132 600.498 397.132L607.581 428.552L464.626 447.453L451.216 429.178Z" fill="black"/>
<path d="M871.719 351.107C871.719 351.107 873.92 319.639 885.335 325.089C896.751 330.54 916.474 349.136 922.126 349.649C927.779 350.162 962.012 372.877 961.2 397.741C960.389 422.605 928.192 393.717 928.192 393.717C928.192 393.717 898.236 385.141 888.554 389.004C878.871 392.868 871.719 351.107 871.719 351.107Z" fill="#B07473"/>
<path opacity="0.1" d="M961.2 397.789C960.416 422.653 928.192 393.766 928.192 393.766C928.192 393.766 898.25 385.189 888.554 389.053C885.803 390.175 883.052 387.449 880.852 382.945C876.519 374.416 873.384 359.636 872.242 353.705C871.926 352.102 871.774 351.156 871.774 351.156C871.774 351.156 873.975 319.687 885.39 325.154C896.806 330.62 916.515 349.12 922.168 349.697C927.82 350.274 961.971 372.926 961.2 397.789Z" fill="black"/>
<path opacity="0.1" d="M899.433 369.736C898.456 372.653 891.538 377.286 880.797 382.945C876.464 374.417 873.329 359.636 872.187 353.705C874.209 352.695 875.639 351.525 875.873 350.21C876.671 345.818 905.031 353 899.433 369.736Z" fill="black"/>
<path d="M660.051 431.262L725.862 413.884C725.862 413.884 770.424 383.314 787.754 377.19C805.083 371.066 834.97 362.65 837.555 361.159C840.141 359.668 847.431 358.706 852.946 358.306C858.461 357.905 872.476 355.099 873.274 350.723C874.071 346.347 902.431 353.496 896.834 370.232C891.236 386.969 691.231 459.797 691.231 459.797L660.051 431.262Z" fill="#444053"/>
<path opacity="0.1" d="M660.051 431.262L725.862 413.884C725.862 413.884 770.424 383.314 787.754 377.19C805.083 371.066 834.97 362.65 837.555 361.159C840.141 359.668 847.431 358.706 852.946 358.306C858.461 357.905 872.476 355.099 873.274 350.723C874.071 346.347 902.431 353.496 896.834 370.232C891.236 386.969 691.231 459.797 691.231 459.797L660.051 431.262Z" fill="black"/>
<path d="M992.118 402.406C991.335 427.286 959.11 398.383 959.11 398.383C959.11 398.383 938.163 392.387 925.647 392.676C923.557 392.641 921.475 392.976 919.472 393.67C909.844 397.533 902.679 355.773 902.679 355.773C902.679 355.773 902.816 353.753 903.215 350.835C904.384 342.179 907.768 325.683 916.309 329.755C927.724 335.221 947.433 353.801 953.086 354.298C958.738 354.795 992.889 377.591 992.118 402.406Z" fill="#B07473"/>
<path opacity="0.1" d="M925.606 392.788C923.516 392.753 921.434 393.088 919.431 393.782C909.803 397.645 902.637 355.885 902.637 355.885C902.637 355.885 902.775 353.865 903.174 350.947C911.206 348.944 917.931 347.148 917.931 347.148C932.675 347.902 927.834 380.845 925.606 392.788Z" fill="black"/>
<path d="M922.03 397.453C911.316 410.807 875.942 416.834 870.55 414.878C866.573 413.711 862.438 413.46 858.378 414.141L797.67 447.084C797.67 447.084 789.005 456.799 779.46 458.306C769.915 459.813 747.263 474.016 747.263 474.016L725.835 483.635C725.835 483.635 715.368 495.385 711.407 496.988C707.446 498.591 685.069 506.462 685.069 506.462C685.069 506.462 649.131 530.509 637.592 536.135C626.052 541.762 604.748 541.955 599.769 539.63C596.413 538.027 580.83 536.889 571.148 536.28C566.554 536.007 563.281 535.863 563.281 535.863L551.948 435.975C551.948 435.975 561.314 433.554 573.142 430.3C590.32 425.587 612.698 419.078 618.9 415.68C629.394 409.925 685.33 426.901 695.591 427.142C705.851 427.382 758.183 407.905 758.183 407.905C758.183 407.905 823.568 364.91 836.799 364.894C850.03 364.878 867.208 358.161 877.881 356.446C888.554 354.731 915.208 347.613 915.208 347.613C933.212 348.575 922.03 397.453 922.03 397.453Z" fill="#444053"/>
<path opacity="0.1" d="M361.13 493.526C362.525 503.624 361.047 513.978 356.922 523.006C351.788 524.891 346.797 527.267 341.999 530.108C319.223 543.478 338.134 471.339 338.134 471.339C338.134 471.339 344.475 471.339 352.094 470.585C356.853 477.122 359.979 485.058 361.13 493.526V493.526Z" fill="black"/>
<path d="M359.769 493.782C361.353 505.353 359.173 517.196 353.657 526.991C348.141 536.787 339.686 543.829 329.948 546.737C320.21 549.646 309.891 548.212 301.013 542.716C292.134 537.221 285.337 528.059 281.951 517.027V517.027C281.703 516.225 281.483 515.424 281.263 514.606C280.754 512.641 280.359 510.638 280.08 508.611C278.466 496.702 280.838 484.525 286.705 474.595C292.572 464.665 301.486 457.741 311.607 455.251C321.729 452.762 332.283 454.898 341.092 461.218C349.901 467.538 356.292 477.56 358.944 489.213C359.291 490.717 359.566 492.243 359.769 493.782V493.782Z" fill="#EFB7B9"/>
<path d="M424.113 174.127C455.855 144.358 487.158 126.876 497.497 113.22C499.892 106.1 501.312 102.86 501.001 105.624C500.726 108.053 499.508 110.564 497.497 113.22C486.969 144.531 457.615 250.878 474 251.668L457.795 378.516L364.584 482.274L362.992 451.204C355.959 339.316 386.198 209.687 424.113 174.127Z" fill="#49475B"/>
<path d="M368.433 452.148L362.992 451.204M362.992 451.204C355.959 339.316 386.198 209.687 424.113 174.127C462.029 138.568 499.318 120.54 501.001 105.624C502.683 90.707 453.89 250.699 474 251.668L457.795 378.516L364.584 482.274L362.992 451.204Z" stroke="black"/>
<path opacity="0.1" d="M570.061 493.686C578.63 513.147 574.366 528.761 571.148 536.216C566.554 535.943 563.281 535.799 563.281 535.799L551.948 435.911C551.948 435.911 561.314 433.49 573.142 430.236L574.366 430.124C574.366 430.124 557.944 466.177 570.061 493.686Z" fill="black"/>
<path d="M565.99 494.439C578.107 521.964 564.615 541.778 564.615 541.778C564.615 541.778 558.302 539.71 552.814 550.467C547.327 561.224 530.369 559.508 526.559 555.276C522.749 551.044 509.408 548.72 504.952 550.098C500.496 551.477 442.827 554.058 442.827 554.058C442.827 554.058 390.646 553.032 373.935 522.685C373.248 521.458 372.623 520.184 372.065 518.87C372.065 518.87 358.875 490.111 358.462 483.698C358.283 481.198 359.15 476.869 360.25 472.477C361.997 465.664 364.376 458.755 364.376 458.755L373.275 456.029C373.275 456.029 399.242 438.764 401.373 434.035C403.505 429.306 447.861 424.32 470.403 429.594C492.945 434.869 535.554 434.195 535.554 434.195L570.378 430.781C570.378 430.781 553.942 466.93 565.99 494.439Z" fill="#E1E7EF"/>
<path opacity="0.1" d="M514.896 541.875C520.127 539.515 525.186 536.668 530.025 533.362C538.043 527.767 514.896 541.875 514.896 541.875Z" fill="black"/>
<path opacity="0.1" d="M387.523 475.924C387.523 475.924 404.66 513.051 441.3 500.836C477.94 488.62 505.378 497.629 505.378 497.629C505.378 497.629 539.652 495.337 545.965 492.275C555.433 488.106 565.105 484.595 574.93 481.759C580.335 480.476 587.872 477.944 593.841 475.779C599.81 473.615 631.705 465.792 631.705 465.792C631.705 465.792 621.624 439.534 626.506 436.183C626.506 436.183 595.024 443.654 594.667 440.993C594.309 438.331 559.031 436.712 556.156 439.39C553.282 442.067 521.772 444.712 519.022 445.914C516.271 447.116 467.583 452.102 467.583 452.102C467.583 452.102 394.538 417.491 387.523 475.924Z" fill="black"/>
<path d="M448.248 268.4C404.146 337.616 381.451 387.94 364.266 463.993L580.39 489.335L687.722 491.96C656.821 477.077 676.689 438.939 679.3 379.233C691.54 376.344 701.336 369.956 724.696 348.854C728.974 363.883 709.537 273.862 679.516 269.829C686.249 231.683 710.074 221.533 745.075 199.231C780.076 176.928 586.695 170.607 448.248 268.4Z" fill="#67647E"/>
<path d="M687.722 491.96C656.821 477.077 676.689 438.939 679.3 379.234C691.54 376.344 701.336 369.956 724.696 348.854C728.974 363.883 709.537 273.862 679.516 269.829C686.249 231.683 710.074 221.533 745.075 199.231C780.076 176.928 586.695 170.607 448.248 268.4C404.146 337.616 381.451 387.94 364.266 463.993L580.39 489.335L687.722 491.96ZM687.722 491.96L651.547 475.184" stroke="black"/>
<g opacity="0.2">
<path d="M367.017 466.93C384.325 389.662 399.982 341.744 444.037 271.311C581.992 171.498 781.319 176.613 746.45 199.389C711.581 222.166 687.86 232.562 681.055 271.311C710.895 275.287 729.963 366.59 725.752 351.351C702.462 372.863 692.921 378.092 680.742 381.073C677.972 441.69 657.887 481.776 688.572 496.762L581.849 494.519L652.648 479.875L652.989 360.029L699.744 329.74L663.005 263.981L707.637 199.543L600.921 213.781L533.815 245.778L460.5 297.326L367.017 466.93Z" fill="black"/>
<path d="M688.572 496.762C657.887 481.776 677.973 441.69 680.742 381.073C692.921 378.092 702.462 372.863 725.752 351.351C729.963 366.59 710.895 275.287 681.055 271.311C687.86 232.562 711.58 222.166 746.45 199.389C781.319 176.613 581.992 171.498 444.037 271.311C399.982 341.744 384.325 389.662 367.017 466.93L460.5 297.326L533.815 245.778L600.921 213.781L707.637 199.543L663.005 263.981L699.744 329.74L652.989 360.029L652.648 479.875M688.572 496.762L652.648 479.875M688.572 496.762L581.849 494.519L652.648 479.875" stroke="black"/>
</g>
<path d="M341.573 532.657H331.258V538.268L341.573 532.657Z" fill="white" stroke="white"/>
<path d="M615.957 392.645C615.957 392.645 673.323 353.898 675.428 379.483C677.532 405.068 621.459 414.398 621.459 414.398L615.957 392.645Z" fill="#EFB7B9"/>
<path opacity="0.1" d="M394.419 491.778C394.419 491.778 418.725 523.041 451.745 500.989C484.766 478.938 513.323 480.025 513.323 480.025C513.323 480.025 546.134 468.252 551.623 463.525C559.966 456.836 568.642 450.731 577.606 445.242C582.579 442.495 589.391 437.932 594.744 434.168C600.096 430.404 629.463 413.924 629.463 413.924C629.463 413.924 614.277 391.238 618.331 386.625C618.331 386.625 589.306 402.644 588.4 400.163C587.494 397.683 552.919 405.932 550.677 409.333C548.434 412.733 518.38 424.078 515.955 426.011C513.531 427.945 467.313 446.32 467.313 446.32C467.313 446.32 389.264 433.081 394.419 491.778Z" fill="black"/>
<path d="M390.641 485.072C390.641 485.072 414.064 517.207 447.695 496.347C481.325 475.487 509.799 477.613 509.799 477.613C509.799 477.613 542.907 467.03 548.519 462.502C557.034 456.113 565.867 450.318 574.972 445.149C580.018 442.599 586.946 438.268 592.395 434.699C597.845 431.13 627.638 415.732 627.638 415.732C627.638 415.732 613.059 392.494 617.236 388.045C617.236 388.045 587.8 403.009 586.96 400.497C586.12 397.985 551.343 404.984 549.011 408.302C546.68 411.62 516.406 421.858 513.867 423.736C511.328 425.614 464.676 442.256 464.676 442.256C464.676 442.256 387.046 426.218 390.641 485.072Z" fill="#E1E7EF"/>
<path opacity="0.1" d="M506.643 464.51C506.107 462.794 515.349 463.612 533.587 459.508C551.824 455.404 582.522 445.593 582.522 445.593C582.522 445.593 510.742 477.463 506.643 464.51Z" fill="black"/>
<path opacity="0.1" d="M436.321 452.711C436.321 452.711 437.188 455.596 428.289 461.848Z" fill="black"/>
<path opacity="0.1" d="M454.999 456.911C455.579 459.713 455.233 462.667 454.03 465.186C452.828 467.704 450.856 469.603 448.507 470.505" fill="black"/>
<path opacity="0.1" d="M392.461 515.584L376.809 523.84C376.121 522.61 375.501 521.33 374.953 520.008C374.953 520.008 361.749 491.265 361.337 484.837C361.158 482.336 362.024 478.008 363.138 473.615L392.461 515.584Z" fill="black"/>
<path d="M389.532 514.51L373.88 522.75C373.193 521.522 372.568 520.248 372.009 518.934C372.009 518.934 358.82 490.175 358.407 483.763C358.228 481.262 359.095 476.934 360.195 472.541L389.532 514.51Z" fill="#E1E7EF"/>
<path d="M358.944 489.197C358.295 490.185 357.469 490.995 356.523 491.57C354.088 492.868 351.255 491.57 348.587 491.714C345.919 491.858 343.223 493.558 340.459 493.814C338.509 493.848 336.566 493.567 334.682 492.981C331.037 492.099 327.076 491.602 323.679 493.526C320.282 495.449 318.178 500.643 320.158 504.314C317.999 507.857 313.804 508.995 310.104 508.402C301.44 506.976 294.178 498.287 285.348 505.02C281.511 507.986 281.758 512.57 281.841 517.011C281.593 516.209 281.373 515.408 281.153 514.59C280.644 512.625 280.249 510.622 279.97 508.595C278.356 496.686 280.728 484.509 286.595 474.579C292.462 464.649 301.376 457.725 311.497 455.235C321.618 452.746 332.173 454.882 340.982 461.202C349.791 467.522 356.181 477.544 358.834 489.197H358.944Z" fill="url(#paint1_linear)"/>
<path d="M278.526 525.443C276.666 526.673 274.621 527.478 272.502 527.815C270.147 528.596 267.637 528.467 265.35 527.447C263.583 526.27 262.189 524.459 261.375 522.285C256.287 510.518 260.22 496.219 258.061 483.282C257.153 477.831 255.159 472.22 256.575 466.93C257.992 461.64 262.737 458.097 266.739 454.667C272.74 449.516 277.87 443.113 281.868 435.782C284 431.871 285.912 427.559 289.213 425.01C293.091 421.996 298.125 421.996 302.733 422.813C307.34 423.631 311.906 425.154 316.569 424.833C319.457 424.641 322.29 423.727 325.178 423.407C328.545 423.169 331.924 423.341 335.26 423.92C339.221 424.433 343.319 425.01 346.73 427.414C352.741 431.646 355.079 440.239 356.647 448.254C358.215 456.27 359.796 464.894 365.105 470.233C365.978 470.888 366.644 471.855 367.003 472.99C367.031 473.658 366.938 474.325 366.732 474.948C366.526 475.572 366.211 476.139 365.807 476.613L359.535 486.328C358.72 487.829 357.601 489.074 356.275 489.95C353.855 491.265 351.008 489.951 348.34 490.079C345.671 490.207 342.989 491.954 340.211 492.195C338.262 492.237 336.317 491.956 334.435 491.361C330.79 490.48 326.829 489.983 323.501 491.906C320.172 493.83 317.999 499.024 319.98 502.695C317.807 506.238 313.612 507.392 309.926 506.783C301.247 505.372 293.985 496.667 285.169 503.4C278.017 508.979 285.32 520.425 278.526 525.443Z" fill="#585268"/>
<g opacity="0.1">
<path opacity="0.1" d="M354.515 443.429C355.725 449.537 356.936 456.062 359.824 461.176C358.486 457.005 357.437 452.717 356.688 448.351C355.839 443.093 354.22 438.044 351.902 433.426C353.009 436.671 353.883 440.017 354.515 443.429V443.429Z" fill="black"/>
<path opacity="0.1" d="M365.133 470.265L364.706 469.8C364.443 470.52 364.096 471.194 363.675 471.804L357.403 481.519C356.585 483.017 355.466 484.26 354.143 485.142C351.723 486.456 348.876 485.142 346.208 485.27C343.539 485.398 340.857 487.145 338.079 487.386C336.13 487.428 334.185 487.147 332.303 486.552C328.658 485.671 324.697 485.174 321.3 487.097C317.903 489.021 315.798 494.215 317.779 497.886C315.606 501.429 311.425 502.583 307.725 501.974C299.06 500.563 291.798 491.858 282.968 498.591C275.748 504.138 283.051 515.584 276.243 520.602C274.388 521.834 272.348 522.64 270.233 522.974C267.84 523.503 265.254 523.872 263.081 522.606C261.977 521.925 261.033 520.94 260.33 519.736C260.603 520.607 260.92 521.458 261.279 522.285C262.092 524.46 263.486 526.27 265.254 527.447C267.541 528.467 270.05 528.597 272.406 527.816C274.525 527.479 276.57 526.673 278.43 525.443C285.224 520.425 277.921 508.979 285.155 503.433C293.916 496.7 301.178 505.404 309.912 506.815C313.598 507.424 317.793 506.27 319.966 502.727C317.985 499.056 320.144 493.862 323.487 491.939C326.829 490.015 330.776 490.512 334.421 491.394C336.303 491.988 338.248 492.269 340.197 492.227C342.948 491.987 345.547 490.255 348.326 490.111C351.104 489.967 353.827 491.297 356.261 489.983C357.587 489.106 358.707 487.861 359.521 486.36L365.793 476.645C366.197 476.171 366.513 475.605 366.719 474.981C366.925 474.357 367.017 473.69 366.989 473.022C366.641 471.894 365.99 470.928 365.133 470.265V470.265Z" fill="black"/>
</g>
<path opacity="0.1" d="M686.513 449.056C686.513 449.056 697.255 471.499 694.972 475.218C692.689 478.938 686.513 449.056 686.513 449.056Z" fill="black"/>
<path opacity="0.1" d="M721.833 442.483C721.833 442.483 728.599 456.286 727.224 459.027Z" fill="black"/>
<path opacity="0.1" d="M762.378 410.566C762.378 410.566 770.204 416.978 767.302 421.147Z" fill="black"/>
<path opacity="0.1" d="M770.259 407.055C770.259 407.055 780.203 421.226 776.902 425.09Z" fill="black"/>
<path opacity="0.1" d="M906.997 368.212C906.997 368.212 908.51 391.922 914.493 389.902C920.476 387.882 906.997 368.212 906.997 368.212Z" fill="black"/>
<path opacity="0.1" d="M515.33 74.7499H528.09C525.772 74.6723 523.575 73.697 521.963 72.0298C520.35 70.3627 519.449 68.1342 519.449 65.8149C519.449 63.4956 520.35 61.2671 521.963 59.5999C523.575 57.9328 525.772 56.9574 528.09 56.8799H631.45C633.768 56.9574 635.965 57.9328 637.577 59.5999C639.19 61.2671 640.091 63.4956 640.091 65.8149C640.091 68.1342 639.19 70.3627 637.577 72.0298C635.965 73.697 633.768 74.6723 631.45 74.7499H618.69C621.058 74.7499 623.33 75.6907 625.005 77.3654C626.679 79.0401 627.62 81.3115 627.62 83.6799C627.62 86.0483 626.679 88.3196 625.005 89.9943C623.33 91.669 621.058 92.6099 618.69 92.6099H636.55C638.868 92.6874 641.065 93.6628 642.677 95.3299C644.29 96.9971 645.191 99.2256 645.191 101.545C645.191 103.864 644.29 106.093 642.677 107.76C641.065 109.427 638.868 110.402 636.55 110.48H533.19C530.872 110.402 528.675 109.427 527.063 107.76C525.45 106.093 524.549 103.864 524.549 101.545C524.549 99.2256 525.45 96.9971 527.063 95.3299C528.675 93.6628 530.872 92.6874 533.19 92.6099H515.33C512.962 92.6099 510.69 91.669 509.016 89.9943C507.341 88.3196 506.4 86.0483 506.4 83.6799C506.4 81.3115 507.341 79.0401 509.016 77.3654C510.69 75.6907 512.962 74.7499 515.33 74.7499V74.7499Z" fill="#98673D"/>
<path opacity="0.1" d="M662.66 211.62H675.42C673.052 211.62 670.78 210.679 669.106 209.004C667.431 207.33 666.49 205.058 666.49 202.69C666.49 200.322 667.431 198.05 669.106 196.376C670.78 194.701 673.052 193.76 675.42 193.76H778.78C781.148 193.76 783.42 194.701 785.094 196.376C786.769 198.05 787.71 200.322 787.71 202.69C787.71 205.058 786.769 207.33 785.094 209.004C783.42 210.679 781.148 211.62 778.78 211.62H766.02C768.388 211.62 770.66 212.561 772.334 214.236C774.009 215.91 774.95 218.182 774.95 220.55C774.95 222.918 774.009 225.19 772.334 226.864C770.66 228.539 768.388 229.48 766.02 229.48H783.91C786.228 229.558 788.425 230.533 790.037 232.2C791.65 233.867 792.551 236.096 792.551 238.415C792.551 240.734 791.65 242.963 790.037 244.63C788.425 246.297 786.228 247.272 783.91 247.35H680.52C678.202 247.272 676.005 246.297 674.393 244.63C672.78 242.963 671.879 240.734 671.879 238.415C671.879 236.096 672.78 233.867 674.393 232.2C676.005 230.533 678.202 229.558 680.52 229.48H662.66C660.292 229.48 658.02 228.539 656.346 226.864C654.671 225.19 653.73 222.918 653.73 220.55C653.73 218.182 654.671 215.91 656.346 214.236C658.02 212.561 660.292 211.62 662.66 211.62V211.62Z" fill="#98673D"/>
<path opacity="0.1" d="M512.91 639.03H518.91C517.788 639.03 516.712 638.584 515.919 637.791C515.126 636.998 514.68 635.922 514.68 634.8C514.68 633.678 515.126 632.602 515.919 631.809C516.712 631.016 517.788 630.57 518.91 630.57H567.91C569.032 630.57 570.108 631.016 570.901 631.809C571.694 632.602 572.14 633.678 572.14 634.8C572.14 635.922 571.694 636.998 570.901 637.791C570.108 638.584 569.032 639.03 567.91 639.03H561.91C563.032 639.03 564.108 639.476 564.901 640.269C565.694 641.062 566.14 642.138 566.14 643.26C566.14 644.382 565.694 645.458 564.901 646.251C564.108 647.044 563.032 647.49 561.91 647.49H570.36C571.482 647.49 572.558 647.936 573.351 648.729C574.144 649.522 574.59 650.598 574.59 651.72C574.59 652.842 574.144 653.918 573.351 654.711C572.558 655.504 571.482 655.95 570.36 655.95H521.37C520.248 655.95 519.172 655.504 518.379 654.711C517.586 653.918 517.14 652.842 517.14 651.72C517.14 650.598 517.586 649.522 518.379 648.729C519.172 647.936 520.248 647.49 521.37 647.49H512.91C511.788 647.49 510.712 647.044 509.919 646.251C509.126 645.458 508.68 644.382 508.68 643.26C508.68 642.138 509.126 641.062 509.919 640.269C510.712 639.476 511.788 639.03 512.91 639.03Z" fill="#98673D"/>
<path opacity="0.1" d="M378.2 710.92H383.02C382.157 710.873 381.344 710.497 380.75 709.869C380.155 709.241 379.824 708.41 379.824 707.545C379.824 706.68 380.155 705.849 380.75 705.221C381.344 704.593 382.157 704.217 383.02 704.17H422.08C422.943 704.217 423.756 704.593 424.35 705.221C424.945 705.849 425.276 706.68 425.276 707.545C425.276 708.41 424.945 709.241 424.35 709.869C423.756 710.497 422.943 710.873 422.08 710.92H417.26C418.123 710.967 418.936 711.343 419.53 711.971C420.125 712.599 420.456 713.43 420.456 714.295C420.456 715.16 420.125 715.991 419.53 716.619C418.936 717.247 418.123 717.623 417.26 717.67H424.01C424.873 717.717 425.686 718.093 426.28 718.721C426.875 719.349 427.206 720.18 427.206 721.045C427.206 721.91 426.875 722.741 426.28 723.369C425.686 723.997 424.873 724.373 424.01 724.42H384.91C384.451 724.445 383.992 724.376 383.561 724.218C383.13 724.06 382.736 723.815 382.402 723.499C382.069 723.183 381.803 722.803 381.621 722.381C381.44 721.959 381.346 721.504 381.346 721.045C381.346 720.586 381.44 720.131 381.621 719.709C381.803 719.287 382.069 718.907 382.402 718.591C382.736 718.275 383.13 718.03 383.561 717.872C383.992 717.714 384.451 717.645 384.91 717.67H378.16C377.701 717.695 377.242 717.626 376.811 717.468C376.38 717.31 375.986 717.065 375.652 716.749C375.319 716.433 375.053 716.053 374.871 715.631C374.69 715.209 374.596 714.754 374.596 714.295C374.596 713.836 374.69 713.381 374.871 712.959C375.053 712.537 375.319 712.157 375.652 711.841C375.986 711.525 376.38 711.28 376.811 711.122C377.242 710.964 377.701 710.895 378.16 710.92H378.2Z" fill="#98673D"/>
<path opacity="0.1" d="M213.09 585.12H219.14C218.018 585.12 216.942 584.674 216.149 583.881C215.356 583.088 214.91 582.012 214.91 580.89C214.91 579.768 215.356 578.692 216.149 577.899C216.942 577.106 218.018 576.66 219.14 576.66H268.07C269.192 576.66 270.268 577.106 271.061 577.899C271.854 578.692 272.3 579.768 272.3 580.89C272.3 582.012 271.854 583.088 271.061 583.881C270.268 584.674 269.192 585.12 268.07 585.12H262.07C263.192 585.12 264.268 585.566 265.061 586.359C265.854 587.152 266.3 588.228 266.3 589.35C266.3 590.472 265.854 591.548 265.061 592.341C264.268 593.134 263.192 593.58 262.07 593.58H270.53C271.652 593.58 272.728 594.026 273.521 594.819C274.314 595.612 274.76 596.688 274.76 597.81C274.76 598.932 274.314 600.008 273.521 600.801C272.728 601.594 271.652 602.04 270.53 602.04H221.55C220.428 602.04 219.352 601.594 218.559 600.801C217.766 600.008 217.32 598.932 217.32 597.81C217.32 596.688 217.766 595.612 218.559 594.819C219.352 594.026 220.428 593.58 221.55 593.58H213.09C211.968 593.58 210.892 593.134 210.099 592.341C209.306 591.548 208.86 590.472 208.86 589.35C208.86 588.228 209.306 587.152 210.099 586.359C210.892 585.566 211.968 585.12 213.09 585.12Z" fill="#98673D"/>
<path opacity="0.1" d="M639.91 717.35H645.91C644.788 717.35 643.712 716.904 642.919 716.111C642.126 715.318 641.68 714.242 641.68 713.12C641.68 711.998 642.126 710.922 642.919 710.129C643.712 709.336 644.788 708.89 645.91 708.89H694.91C696.032 708.89 697.108 709.336 697.901 710.129C698.694 710.922 699.14 711.998 699.14 713.12C699.14 714.242 698.694 715.318 697.901 716.111C697.108 716.904 696.032 717.35 694.91 717.35H688.91C690.032 717.35 691.108 717.796 691.901 718.589C692.694 719.382 693.14 720.458 693.14 721.58C693.14 722.702 692.694 723.778 691.901 724.571C691.108 725.364 690.032 725.81 688.91 725.81H697.37C698.455 725.863 699.478 726.331 700.227 727.118C700.976 727.904 701.394 728.949 701.394 730.035C701.394 731.121 700.976 732.166 700.227 732.953C699.478 733.739 698.455 734.207 697.37 734.26H648.35C647.778 734.288 647.206 734.199 646.669 734C646.132 733.8 645.642 733.493 645.227 733.098C644.812 732.703 644.482 732.228 644.256 731.701C644.031 731.175 643.914 730.608 643.914 730.035C643.914 729.462 644.031 728.895 644.256 728.369C644.482 727.842 644.812 727.367 645.227 726.972C645.642 726.577 646.132 726.27 646.669 726.071C647.206 725.871 647.778 725.782 648.35 725.81H639.91C638.788 725.81 637.712 725.364 636.919 724.571C636.126 723.778 635.68 722.702 635.68 721.58C635.68 720.458 636.126 719.382 636.919 718.589C637.712 717.796 638.788 717.35 639.91 717.35Z" fill="#98673D"/>
<path opacity="0.3" d="M707.91 307.75C708.234 307.132 708.32 306.416 708.15 305.74C707.98 305.063 707.568 304.472 706.99 304.08C706.901 304.021 706.82 303.95 706.75 303.87V303.87C706.544 303.643 706.416 303.356 706.386 303.051C706.355 302.747 706.423 302.44 706.58 302.177C706.737 301.914 706.974 301.708 707.257 301.59C707.539 301.471 707.853 301.447 708.15 301.52C708.255 301.548 708.355 301.588 708.45 301.64C709.068 301.966 709.785 302.053 710.463 301.886C711.142 301.718 711.735 301.307 712.13 300.73C712.189 300.638 712.26 300.554 712.34 300.48V300.48C712.568 300.277 712.855 300.152 713.159 300.124C713.463 300.095 713.768 300.165 714.03 300.323C714.291 300.48 714.496 300.717 714.613 300.999C714.73 301.281 714.753 301.594 714.68 301.89C714.649 301.993 714.609 302.094 714.56 302.19C714.236 302.808 714.15 303.524 714.32 304.201C714.49 304.877 714.903 305.468 715.48 305.86C715.57 305.922 715.654 305.992 715.73 306.07C715.933 306.298 716.058 306.585 716.086 306.889C716.115 307.193 716.045 307.498 715.888 307.76C715.73 308.021 715.493 308.226 715.211 308.343C714.929 308.46 714.616 308.483 714.32 308.41V308.41C714.214 308.387 714.113 308.346 714.02 308.29C713.4 307.967 712.684 307.883 712.006 308.052C711.328 308.222 710.735 308.634 710.34 309.21C710.285 309.302 710.217 309.386 710.14 309.46C709.913 309.668 709.625 309.797 709.318 309.827C709.012 309.858 708.704 309.789 708.44 309.631C708.176 309.472 707.97 309.233 707.853 308.948C707.736 308.663 707.714 308.348 707.79 308.05V308.05C707.821 307.947 707.862 307.846 707.91 307.75V307.75Z" fill="#98673D"/>
<path opacity="0.3" d="M1024.59 139.07C1024.92 138.452 1025 137.736 1024.83 137.059C1024.66 136.381 1024.25 135.79 1023.67 135.4C1023.58 135.338 1023.5 135.268 1023.43 135.19C1023.22 134.963 1023.09 134.674 1023.06 134.368C1023.03 134.062 1023.1 133.754 1023.26 133.49C1023.42 133.226 1023.66 133.02 1023.94 132.903C1024.23 132.786 1024.54 132.764 1024.84 132.84V132.84C1024.94 132.87 1025.04 132.91 1025.13 132.96C1025.75 133.287 1026.47 133.374 1027.15 133.204C1027.83 133.035 1028.42 132.62 1028.81 132.04C1028.87 131.953 1028.94 131.873 1029.02 131.8V131.8C1029.25 131.597 1029.53 131.472 1029.84 131.443C1030.14 131.415 1030.45 131.485 1030.71 131.642C1030.97 131.8 1031.18 132.037 1031.29 132.319C1031.41 132.601 1031.43 132.913 1031.36 133.21V133.21C1031.34 133.312 1031.29 133.41 1031.24 133.5C1030.92 134.12 1030.83 134.836 1031 135.514C1031.17 136.192 1031.58 136.785 1032.16 137.18C1032.25 137.241 1032.33 137.312 1032.41 137.39V137.39C1032.61 137.618 1032.74 137.905 1032.77 138.209C1032.79 138.513 1032.73 138.818 1032.57 139.08C1032.41 139.341 1032.17 139.545 1031.89 139.662C1031.61 139.779 1031.3 139.803 1031 139.73V139.73C1030.9 139.703 1030.79 139.663 1030.7 139.61C1030.08 139.288 1029.37 139.204 1028.69 139.373C1028.01 139.543 1027.42 139.954 1027.03 140.53C1026.97 140.618 1026.9 140.701 1026.82 140.78V140.78C1026.59 140.988 1026.3 141.116 1026 141.147C1025.69 141.178 1025.38 141.109 1025.12 140.95C1024.86 140.792 1024.65 140.553 1024.53 140.268C1024.42 139.983 1024.39 139.668 1024.47 139.37C1024.5 139.267 1024.54 139.166 1024.59 139.07V139.07Z" fill="#98673D"/>
<path opacity="0.3" d="M1029.46 592.13C1029.78 591.512 1029.87 590.796 1029.7 590.119C1029.53 589.443 1029.12 588.852 1028.54 588.46C1028.45 588.401 1028.37 588.33 1028.3 588.25V588.25C1028.09 588.025 1027.96 587.738 1027.93 587.432C1027.9 587.126 1027.96 586.818 1028.12 586.555C1028.28 586.291 1028.52 586.085 1028.8 585.969C1029.09 585.853 1029.4 585.832 1029.7 585.91V585.91C1029.81 585.933 1029.91 585.974 1030 586.03C1030.62 586.353 1031.34 586.437 1032.01 586.268C1032.69 586.098 1033.28 585.686 1033.68 585.11C1033.74 585.018 1033.8 584.934 1033.88 584.86V584.86C1034.11 584.652 1034.4 584.523 1034.7 584.493C1035.01 584.462 1035.32 584.531 1035.58 584.689C1035.84 584.848 1036.05 585.087 1036.17 585.372C1036.28 585.657 1036.31 585.972 1036.23 586.27C1036.2 586.373 1036.16 586.474 1036.11 586.57C1035.79 587.188 1035.7 587.904 1035.87 588.58C1036.04 589.257 1036.45 589.848 1037.03 590.24C1037.12 590.299 1037.2 590.37 1037.27 590.45V590.45C1037.46 590.675 1037.57 590.952 1037.59 591.244C1037.61 591.535 1037.55 591.826 1037.4 592.078C1037.25 592.329 1037.03 592.529 1036.76 592.649C1036.49 592.769 1036.2 592.805 1035.91 592.75V592.75C1035.8 592.73 1035.7 592.692 1035.61 592.64C1034.99 592.314 1034.28 592.227 1033.6 592.394C1032.92 592.562 1032.33 592.973 1031.93 593.55C1031.87 593.642 1031.8 593.726 1031.72 593.8V593.8C1031.49 594.003 1031.21 594.128 1030.9 594.156C1030.6 594.185 1030.29 594.115 1030.03 593.957C1029.77 593.8 1029.56 593.563 1029.45 593.281C1029.33 592.999 1029.31 592.686 1029.38 592.39C1029.4 592.301 1029.43 592.215 1029.46 592.13V592.13Z" fill="#98673D"/>
<path opacity="0.3" d="M49.29 38.0201C49.6149 37.4007 49.7008 36.6834 49.5311 36.0048C49.3615 35.3262 48.9482 34.7337 48.37 34.3401C48.2811 34.281 48.2004 34.2104 48.13 34.1301V34.1301C47.9208 33.9048 47.7904 33.6178 47.7583 33.3121C47.7262 33.0064 47.7942 32.6986 47.952 32.4348C48.1098 32.171 48.3489 31.9656 48.6335 31.8493C48.918 31.7331 49.2326 31.7123 49.53 31.7901V31.7901C49.6345 31.8178 49.7352 31.8581 49.83 31.9101C50.4494 32.2351 51.1667 32.3209 51.8453 32.1512C52.5239 31.9816 53.1164 31.5683 53.51 30.9901C53.5715 30.9 53.6418 30.8162 53.72 30.7401V30.7401C53.9479 30.5369 54.2349 30.4119 54.5389 30.3836C54.843 30.3553 55.1481 30.425 55.4097 30.5826C55.6712 30.7402 55.8755 30.9774 55.9925 31.2595C56.1095 31.5415 56.1332 31.8536 56.06 32.1501V32.1501C56.0322 32.2546 55.9919 32.3553 55.94 32.4501C55.615 33.0695 55.5292 33.7868 55.6988 34.4654C55.8685 35.144 56.2818 35.7365 56.86 36.1301C56.9499 36.1881 57.0337 36.2551 57.11 36.3301V36.3301C57.3177 36.5574 57.4464 36.8456 57.4772 37.152C57.5079 37.4583 57.4389 37.7664 57.2805 38.0304C57.1221 38.2944 56.8827 38.5002 56.598 38.6173C56.3132 38.7343 55.9983 38.7564 55.7 38.6801C55.5955 38.6523 55.4948 38.612 55.4 38.5601C54.7806 38.2351 54.0633 38.1493 53.3847 38.3189C52.7061 38.4886 52.1136 38.9019 51.72 39.4801C51.6644 39.5687 51.5972 39.6495 51.52 39.7201V39.7201C51.2932 39.926 51.0062 40.0537 50.7014 40.0843C50.3966 40.1149 50.09 40.0468 49.8268 39.89C49.5636 39.7332 49.3577 39.496 49.2394 39.2134C49.1212 38.9307 49.0969 38.6176 49.17 38.3201V38.3201C49.1977 38.2156 49.238 38.1149 49.29 38.0201V38.0201Z" fill="#98673D"/>
<path opacity="0.3" d="M1.54002 7.65006C1.86436 7.03216 1.94984 6.31646 1.78015 5.63955C1.61047 4.96264 1.19749 4.3719 0.620022 3.98006C0.531107 3.92096 0.450408 3.85034 0.380024 3.77006V3.77006C0.174065 3.54326 0.0463941 3.2563 0.0158116 2.95147C-0.0147709 2.64664 0.0533487 2.34004 0.210148 2.07684C0.366946 1.81364 0.604133 1.60776 0.88676 1.48952C1.16939 1.37128 1.48252 1.34693 1.78003 1.42006V1.42006C1.8845 1.44781 1.98523 1.48811 2.08002 1.54006C2.69829 1.866 3.41477 1.95339 4.09326 1.78561C4.77174 1.61783 5.36492 1.20659 5.76002 0.630061C5.81863 0.540586 5.8856 0.456877 5.96003 0.380061V0.380061C6.18529 0.178868 6.46847 0.0541662 6.76898 0.023833C7.06948 -0.00650027 7.37187 0.0590933 7.6328 0.211209C7.89373 0.363325 8.0998 0.594153 8.22145 0.870598C8.34311 1.14704 8.37412 1.45491 8.31002 1.75006V1.75006C8.28042 1.85071 8.24019 1.94792 8.19002 2.04006C7.85645 2.66254 7.76588 3.3867 7.93586 4.07216C8.10584 4.75762 8.52426 5.35556 9.11002 5.75006C9.19893 5.80917 9.27964 5.87978 9.35003 5.96006C9.57237 6.18601 9.71271 6.47985 9.74871 6.7948C9.78471 7.10975 9.7143 7.42769 9.54867 7.69798C9.38305 7.96827 9.13174 8.17537 8.83478 8.28629C8.53782 8.39721 8.21229 8.40558 7.91002 8.31006V8.31006C7.80418 8.28659 7.70285 8.24606 7.61002 8.19006C6.99015 7.86731 6.27355 7.7827 5.59555 7.95219C4.91756 8.12169 4.32508 8.53358 3.93002 9.11006C3.87107 9.20208 3.80048 9.28611 3.72002 9.36006C3.4921 9.56328 3.2051 9.6882 2.90106 9.71654C2.59701 9.74487 2.29188 9.67513 2.03033 9.51753C1.76878 9.35993 1.56455 9.12275 1.44753 8.84069C1.33051 8.55864 1.30685 8.24653 1.38002 7.95006V7.95006C1.42419 7.84543 1.47773 7.74503 1.54002 7.65006V7.65006Z" fill="#98673D"/>
<path opacity="0.3" d="M205.54 345.69C205.864 345.072 205.95 344.356 205.78 343.679C205.611 343.003 205.198 342.412 204.62 342.02C204.531 341.961 204.45 341.89 204.38 341.81V341.81C204.171 341.585 204.04 341.298 204.008 340.992C203.976 340.686 204.044 340.378 204.202 340.115C204.36 339.851 204.599 339.645 204.884 339.529C205.168 339.413 205.483 339.392 205.78 339.47V339.47C205.886 339.493 205.987 339.534 206.08 339.59C206.7 339.913 207.417 339.997 208.095 339.828C208.773 339.658 209.365 339.246 209.76 338.67C209.819 338.581 209.886 338.497 209.96 338.42V338.42C210.187 338.212 210.476 338.084 210.782 338.053C211.088 338.022 211.396 338.091 211.66 338.249C211.924 338.408 212.13 338.647 212.247 338.932C212.364 339.217 212.386 339.532 212.31 339.83V339.83C212.279 339.933 212.239 340.034 212.19 340.13C211.866 340.748 211.78 341.464 211.95 342.14C212.12 342.817 212.533 343.408 213.11 343.8C213.199 343.859 213.28 343.93 213.35 344.01C213.559 344.235 213.69 344.522 213.722 344.828C213.754 345.134 213.686 345.441 213.528 345.705C213.37 345.969 213.131 346.174 212.847 346.291C212.562 346.407 212.247 346.428 211.95 346.35V346.35C211.844 346.327 211.743 346.286 211.65 346.23C211.03 345.907 210.314 345.823 209.636 345.992C208.958 346.162 208.365 346.573 207.97 347.15C207.911 347.239 207.844 347.323 207.77 347.4V347.4C207.543 347.608 207.255 347.736 206.948 347.767C206.642 347.798 206.334 347.729 206.07 347.57C205.806 347.412 205.6 347.173 205.483 346.888C205.366 346.603 205.344 346.288 205.42 345.99V345.99C205.451 345.887 205.492 345.786 205.54 345.69V345.69Z" fill="#98673D"/>
<path opacity="0.3" d="M481.54 192.04C481.791 191.388 481.793 190.667 481.546 190.014C481.298 189.361 480.819 188.822 480.2 188.5C480.103 188.452 480.012 188.391 479.93 188.32V188.32C479.694 188.121 479.53 187.851 479.462 187.55C479.393 187.249 479.425 186.934 479.551 186.653C479.678 186.372 479.893 186.139 480.163 185.991C480.433 185.842 480.745 185.786 481.05 185.83V185.83C481.157 185.841 481.261 185.868 481.36 185.91C482.013 186.159 482.735 186.16 483.389 185.914C484.043 185.667 484.584 185.189 484.91 184.57C484.961 184.474 485.021 184.384 485.09 184.3C485.293 184.071 485.563 183.912 485.863 183.848C486.162 183.784 486.474 183.818 486.753 183.944C487.031 184.071 487.262 184.284 487.411 184.551C487.56 184.818 487.619 185.126 487.58 185.43V185.43C487.559 185.536 487.529 185.64 487.49 185.74C487.242 186.393 487.243 187.114 487.492 187.767C487.74 188.419 488.22 188.958 488.84 189.28C488.933 189.331 489.02 189.391 489.1 189.46V189.46C489.328 189.662 489.486 189.932 489.55 190.23C489.614 190.528 489.581 190.839 489.456 191.117C489.331 191.395 489.12 191.626 488.855 191.776C488.589 191.926 488.283 191.987 487.98 191.95V191.95C487.874 191.934 487.77 191.907 487.67 191.87C487.018 191.619 486.297 191.617 485.644 191.864C484.991 192.111 484.452 192.591 484.13 193.21C484.077 193.305 484.017 193.395 483.95 193.48V193.48C483.747 193.709 483.476 193.868 483.177 193.932C482.878 193.996 482.566 193.962 482.287 193.836C482.008 193.709 481.778 193.496 481.629 193.229C481.48 192.962 481.421 192.654 481.46 192.35V192.35C481.472 192.244 481.499 192.139 481.54 192.04V192.04Z" fill="#98673D"/>
<path opacity="0.3" d="M931.44 500.98C932.329 500.594 933.045 499.895 933.451 499.015C933.857 498.135 933.924 497.136 933.64 496.21C933.598 496.066 933.571 495.919 933.56 495.77C933.55 495.353 933.671 494.944 933.905 494.599C934.14 494.254 934.476 493.991 934.867 493.847C935.258 493.702 935.685 493.684 936.087 493.794C936.489 493.904 936.847 494.137 937.11 494.46C937.199 494.581 937.273 494.712 937.33 494.85C937.715 495.739 938.415 496.455 939.295 496.861C940.175 497.267 941.174 497.334 942.1 497.05C942.243 497.005 942.391 496.974 942.54 496.96V496.96C942.959 496.947 943.372 497.067 943.719 497.302C944.067 497.537 944.332 497.875 944.477 498.268C944.621 498.662 944.639 499.091 944.526 499.495C944.414 499.899 944.177 500.258 943.85 500.52C943.729 500.609 943.598 500.682 943.46 500.74C942.579 501.136 941.872 501.836 941.467 502.713C941.063 503.59 940.989 504.583 941.26 505.51C941.31 505.652 941.34 505.8 941.35 505.95V505.95C941.362 506.369 941.243 506.782 941.008 507.129C940.773 507.477 940.435 507.742 940.042 507.886C939.648 508.031 939.219 508.049 938.815 507.936C938.411 507.824 938.052 507.587 937.79 507.26C937.701 507.141 937.63 507.01 937.58 506.87C937.195 505.981 936.495 505.265 935.615 504.859C934.735 504.453 933.736 504.386 932.81 504.67C932.667 504.714 932.519 504.744 932.37 504.76V504.76C931.951 504.772 931.538 504.653 931.191 504.418C930.843 504.183 930.578 503.845 930.433 503.451C930.289 503.058 930.271 502.629 930.384 502.225C930.496 501.821 930.733 501.462 931.06 501.2C931.179 501.113 931.306 501.04 931.44 500.98V500.98Z" fill="#98673D"/>
<path opacity="0.1" d="M121.87 119.79C130.983 119.79 138.37 112.403 138.37 103.29C138.37 94.1773 130.983 86.79 121.87 86.79C112.757 86.79 105.37 94.1773 105.37 103.29C105.37 112.403 112.757 119.79 121.87 119.79Z" fill="#98673D"/>
<path opacity="0.1" d="M944.65 136.29C953.763 136.29 961.15 128.903 961.15 119.79C961.15 110.677 953.763 103.29 944.65 103.29C935.537 103.29 928.15 110.677 928.15 119.79C928.15 128.903 935.537 136.29 944.65 136.29Z" fill="#98673D"/>
<path opacity="0.1" d="M199.87 30.3701C204.841 30.3701 208.87 26.3407 208.87 21.3701C208.87 16.3996 204.841 12.3701 199.87 12.3701C194.899 12.3701 190.87 16.3996 190.87 21.3701C190.87 26.3407 194.899 30.3701 199.87 30.3701Z" fill="#98673D"/>
<path opacity="0.1" d="M1060.82 292.28C1065.79 292.28 1069.82 288.251 1069.82 283.28C1069.82 278.309 1065.79 274.28 1060.82 274.28C1055.85 274.28 1051.82 278.309 1051.82 283.28C1051.82 288.251 1055.85 292.28 1060.82 292.28Z" fill="#98673D"/>
<path opacity="0.1" d="M138.37 752.99C143.341 752.99 147.37 748.961 147.37 743.99C147.37 739.019 143.341 734.99 138.37 734.99C133.399 734.99 129.37 739.019 129.37 743.99C129.37 748.961 133.399 752.99 138.37 752.99Z" fill="#98673D"/>
<path opacity="0.1" d="M172.87 793.52C177.841 793.52 181.87 789.491 181.87 784.52C181.87 779.549 177.841 775.52 172.87 775.52C167.899 775.52 163.87 779.549 163.87 784.52C163.87 789.491 167.899 793.52 172.87 793.52Z" fill="#98673D"/>
<path opacity="0.1" d="M105.37 817.95C110.341 817.95 114.37 813.921 114.37 808.95C114.37 803.979 110.341 799.95 105.37 799.95C100.399 799.95 96.37 803.979 96.37 808.95C96.37 813.921 100.399 817.95 105.37 817.95Z" fill="#98673D"/>
</g>
<defs>
<linearGradient id="paint0_linear" x1="637.274" y1="541.567" x2="604.232" y2="363.785" gradientUnits="userSpaceOnUse">
<stop stop-color="#808080" stop-opacity="0.25"/>
<stop offset="0.54" stop-color="#808080" stop-opacity="0.12"/>
<stop offset="1" stop-color="#808080" stop-opacity="0.1"/>
</linearGradient>
<linearGradient id="paint1_linear" x1="30939.7" y1="27601.7" x2="35590.1" y2="27601.7" gradientUnits="userSpaceOnUse">
<stop stop-color="#808080" stop-opacity="0.25"/>
<stop offset="0.54" stop-color="#808080" stop-opacity="0.12"/>
<stop offset="1" stop-color="#808080" stop-opacity="0.1"/>
</linearGradient>
<clipPath id="clip0">
<rect width="1069.82" height="837.5" fill="white"/>
</clipPath>
</defs>
</svg>
