<svg width="260" height="260" viewBox="0 0 260 260" fill="none" xmlns="http://www.w3.org/2000/svg">
<path d="M104.47 153.013C104.47 153.013 109.82 182.183 97.8199 191.693C85.8199 201.203 107.96 258.273 144.74 251.623C181.52 244.973 196.42 197.083 196.42 197.083C196.42 197.083 159.64 189.483 173.27 150.803L104.47 153.013Z" fill="#FED9DA"/>
<path opacity="0.05" d="M104.47 153.013C104.47 153.013 109.82 182.183 97.8199 191.693C85.8199 201.203 107.96 258.273 144.74 251.623C181.52 244.973 196.42 197.083 196.42 197.083C196.42 197.083 159.64 189.483 173.27 150.803L104.47 153.013Z" fill="black"/>
<path d="M136.97 174.413C170.588 174.413 197.84 147.16 197.84 113.543C197.84 79.9253 170.588 52.6729 136.97 52.6729C103.353 52.6729 76.1001 79.9253 76.1001 113.543C76.1001 147.16 103.353 174.413 136.97 174.413Z" fill="#FED9DA"/>
<path d="M237 229.263L233.549 251H37.5L36 231.153C36.0019 226.144 37.4784 221.246 40.2455 217.071C43.0125 212.895 46.9476 209.627 51.56 207.673L57.33 205.223C71.91 199.013 89.62 191.303 95.41 188.093C96.0442 187.777 96.6413 187.391 97.19 186.943C100.36 183.773 99.73 187.893 99.73 187.893C99.73 187.893 99.64 188.673 99.58 190.033C99.24 199.343 100.58 235.963 143.48 232.913C185.34 229.913 187.18 201.673 186.8 193.363C186.776 192.593 186.71 191.825 186.6 191.063C186.6 190.843 190.2 192.063 195.08 193.823C203.85 197.053 216.74 202.253 220.21 204.703C221.29 205.453 222.6 206.253 224.02 207.043C227.973 209.249 231.263 212.473 233.549 216.381C235.835 220.288 237.034 224.736 237.02 229.263H237Z" fill="#98673D"/>
<path opacity="0.1" d="M195.07 193.823C191.53 210.243 180.41 241.003 140.3 241.823C97.59 242.663 95.1301 200.183 95.3901 188.133C96.0295 187.817 96.6301 187.427 97.18 186.973C100.35 183.803 99.7201 187.923 99.7201 187.923C99.7201 187.923 94.3301 236.433 143.47 232.923C192.61 229.413 186.59 191.073 186.59 191.073C186.59 190.843 190.19 192.023 195.07 193.823Z" fill="black"/>
<path d="M64.92 116.553C68.92 115.253 73.69 117.453 75.92 120.553C78.15 123.653 78.46 127.403 78.73 130.993C81.38 131.553 82.87 128.553 83.11 126.303C84.11 117.093 84.16 107.713 87.25 98.8329C90.34 89.9529 97.09 81.3529 107.47 77.9329C111 76.7082 114.772 76.3481 118.47 76.8829C120.66 77.2529 122.73 78.0129 124.92 78.3729C132.49 79.6229 140.74 76.0329 147.85 78.5329C152.3 80.1029 155.17 83.7329 157.21 87.3729C158.119 89.3272 159.35 91.1153 160.85 92.6629C163.85 95.3629 168.61 96.0729 172.93 96.9229C177.25 97.7729 181.99 99.2329 183.84 102.573C185.51 105.573 184.28 109.073 183.72 112.353C182.865 117.521 183.733 122.827 186.19 127.453C186.99 128.973 188.61 130.693 190.52 130.203C191.389 129.91 192.124 129.313 192.59 128.523C197.59 121.523 197.43 112.443 203.66 106.193C205.75 104.103 208.44 102.463 210.47 100.333C212.006 98.7816 213.133 96.8729 213.749 94.7783C214.365 92.6838 214.452 90.469 214 88.3329C212.88 83.5229 209 79.5129 205.93 75.3329C201.894 69.9765 198.955 63.8767 197.28 57.3829C196.985 56.6308 196.985 55.7949 197.28 55.0429C197.868 54.2775 198.624 53.6581 199.49 53.2329C201.187 52.1076 202.415 50.4016 202.943 48.4352C203.472 46.4689 203.264 44.3772 202.36 42.5529C200.62 38.9229 196.71 36.2329 192.42 34.6129C188.13 32.9929 183.42 32.3029 178.76 31.6129C175.7 32.0629 172.11 30.3129 171.16 27.8629C170.74 26.7729 170.74 25.5929 170.31 24.5029C169.48 22.4129 167.09 20.9329 164.52 20.4229C161.906 19.9945 159.228 20.1828 156.7 20.9729C153.82 21.7829 150.48 22.9729 147.97 21.5929C146.65 20.8429 145.91 19.4829 144.49 18.8729C141.61 17.6429 138.57 20.1229 136.49 22.1729C134.472 24.3085 132.002 25.9656 129.26 27.0229C126.37 28.0229 122.81 28.0229 120.32 26.4329C118.32 25.1629 117.32 23.1229 115.73 21.5029C113.12 18.8329 108.99 17.3829 104.87 17.0529C100.738 16.8357 96.5977 17.2882 92.61 18.3929C84.9968 20.2372 77.7235 23.2748 71.06 27.3929C67.73 29.4829 64.54 31.9229 62.8 35.0729C61.5639 37.5292 60.9266 40.2431 60.94 42.9929C60.63 51.6029 63.49 60.6829 70.94 66.7129C66.4 68.6129 64.86 73.2629 63.8 77.3929C62.1 83.9729 60.39 90.6729 61.03 97.3929C61.35 100.863 62.3 104.333 61.79 107.783C61.55 109.453 60.97 111.093 61.11 112.783C61.2956 113.72 61.7577 114.58 62.4369 115.252C63.116 115.924 63.9809 116.377 64.92 116.553V116.553Z" fill="#454B69"/>
<g opacity="0.1">
<path opacity="0.1" d="M213.12 85.7329C212.461 87.1582 211.572 88.4656 210.49 89.6029C208.49 91.7329 205.77 93.3729 203.68 95.4729C197.45 101.713 197.58 110.823 192.61 117.803C192.143 118.591 191.408 119.184 190.54 119.473C188.63 119.963 187.01 118.243 186.21 116.723C185.238 114.874 184.509 112.908 184.04 110.873C183.933 111.38 183.833 111.89 183.74 112.403C182.885 117.571 183.753 122.877 186.21 127.503C187.01 129.023 188.63 130.743 190.54 130.253C191.409 129.96 192.144 129.363 192.61 128.573C197.61 121.573 197.45 112.493 203.68 106.243C205.77 104.153 208.46 102.513 210.49 100.383C212.026 98.8316 213.153 96.9229 213.769 94.8284C214.385 92.7338 214.471 90.519 214.02 88.3829C213.806 87.4725 213.505 86.585 213.12 85.7329V85.7329Z" fill="black"/>
<path opacity="0.1" d="M199.53 42.5528C198.662 42.9711 197.905 43.5877 197.32 44.3528C197.025 45.1048 197.025 45.9408 197.32 46.6928C197.897 48.9595 198.635 51.1819 199.53 53.3428V53.3428C201.247 52.2081 202.486 50.4798 203.008 48.4888C203.53 46.4979 203.299 44.3843 202.36 42.5528C202.078 41.9572 201.744 41.3882 201.36 40.8528C200.839 41.5081 200.222 42.0812 199.53 42.5528V42.5528Z" fill="black"/>
<path opacity="0.1" d="M70.9299 56.0328C65.7727 51.7689 62.3718 45.7505 61.3799 39.1328C61.1215 40.4515 60.9743 41.7895 60.9399 43.1328C60.6188 49.4871 62.2975 55.7821 65.7399 61.1328C66.7864 58.8542 68.6333 57.0393 70.9299 56.0328Z" fill="black"/>
<path opacity="0.1" d="M183.74 101.623C184.3 98.3429 185.53 94.8529 183.86 91.8429C182.01 88.5029 177.28 87.0329 172.95 86.1929C168.62 85.3529 163.89 84.6329 160.87 81.9329C159.37 80.3853 158.139 78.5972 157.23 76.6429C155.23 73.0029 152.32 69.3729 147.87 67.8029C140.76 65.3029 132.51 68.8929 124.94 67.6429C122.75 67.2829 120.68 66.5229 118.49 66.1529C114.796 65.6021 111.024 65.945 107.49 67.1529C97.1099 70.5729 90.3599 79.1529 87.2699 88.0529C84.1799 96.9529 84.1099 106.313 83.1299 115.523C82.8899 117.773 81.3999 120.773 78.7499 120.213C78.4799 116.623 78.1499 112.873 75.9399 109.773C73.7299 106.673 69.0099 104.463 64.9399 105.773C63.7077 105.495 62.6154 104.785 61.8599 103.773C61.9992 105.104 61.9791 106.447 61.7999 107.773C61.5599 109.443 60.9799 111.083 61.1199 112.773C61.303 113.711 61.7629 114.572 62.4402 115.246C63.1176 115.919 63.9813 116.375 64.9199 116.553C68.9199 115.253 73.6899 117.453 75.9199 120.553C78.1499 123.653 78.4599 127.403 78.7299 130.993C81.3799 131.553 82.8699 128.553 83.1099 126.303C84.1099 117.093 84.1599 107.713 87.2499 98.8329C90.3399 89.9529 97.0899 81.3529 107.47 77.9329C111 76.7082 114.772 76.3481 118.47 76.8829C120.66 77.2529 122.73 78.0129 124.92 78.3729C132.49 79.6229 140.74 76.0329 147.85 78.5329C152.3 80.1029 155.17 83.7329 157.21 87.3729C158.119 89.3272 159.35 91.1153 160.85 92.6629C163.85 95.3629 168.61 96.0729 172.93 96.9229C177.25 97.7729 181.64 99.1329 183.62 102.233C183.67 102.063 183.7 101.843 183.74 101.623Z" fill="black"/>
<path opacity="0.1" d="M61.8199 97.0829C62.0541 94.3673 61.8924 91.632 61.3399 88.9629C60.9121 91.7787 60.8181 94.6351 61.0599 97.4729C61.1199 98.2029 61.2199 98.9229 61.3199 99.6529C61.4399 98.7929 61.6599 97.9429 61.8199 97.0829Z" fill="black"/>
</g>
<ellipse cx="114" cy="115" rx="4" ry="6" fill="#C4C4C4"/>
<ellipse cx="114" cy="115" rx="4" ry="6" fill="#040404"/>
<ellipse cx="152" cy="115" rx="4" ry="6" fill="black"/>
<path d="M152 147.125C152 150.922 149.958 154 134 154C118.042 154 116 150.922 116 147.125C116 143.328 118.042 150.36 134 150.36C149.958 150.36 152 143.328 152 147.125Z" fill="#FA8989"/>
<path d="M116.5 158V146.5L119 147.5L116.5 158Z" fill="white"/>
<path d="M116.5 158V146.5L119 147.5L116.5 158Z" stroke="#F54848"/>
<path d="M116.5 158V146.5L119 147.5L116.5 158Z" stroke="url(#paint0_linear)"/>
<path d="M152 158V146L150 147.043L152 158Z" fill="white"/>
<path d="M152 158V146L150 147.043L152 158Z" stroke="#F43636"/>
<path d="M152 158V146L150 147.043L152 158Z" stroke="url(#paint1_linear)"/>
<defs>
<linearGradient id="paint0_linear" x1="117.75" y1="146.5" x2="117.75" y2="158" gradientUnits="userSpaceOnUse">
<stop offset="0.234375" stop-color="white"/>
<stop offset="1" stop-color="white" stop-opacity="0"/>
</linearGradient>
<linearGradient id="paint1_linear" x1="151" y1="146" x2="151" y2="158" gradientUnits="userSpaceOnUse">
<stop offset="0.34375" stop-color="white"/>
<stop offset="1" stop-color="white" stop-opacity="0"/>
</linearGradient>
</defs>
</svg>
