<?xml version="1.0" encoding="UTF-8" standalone="no"?> <!-- Created with Vectornator for iOS (http://vectornator.io/) --><!DOCTYPE svg PUBLIC "-//W3C//DTD SVG 1.1//EN" "http://www.w3.org/Graphics/SVG/1.1/DTD/svg11.dtd">
<svg height="100%" style="fill-rule:nonzero;clip-rule:evenodd;stroke-linecap:round;stroke-linejoin:round;" xmlns:xlink="http://www.w3.org/1999/xlink" xmlns="http://www.w3.org/2000/svg" xml:space="preserve" width="100%" xmlns:vectornator="http://vectornator.io" version="1.1" viewBox="0 0 453 453">
<metadata>
<vectornator:setting key="DimensionsVisible" value="1"/>
<vectornator:setting key="PencilOnly" value="0"/>
<vectornator:setting key="SnapToPoints" value="0"/>
<vectornator:setting key="GuidesVisible" value="1"/>
<vectornator:setting key="OutlineMode" value="0"/>
<vectornator:setting key="CMYKEnabledKey" value="0"/>
<vectornator:setting key="RulersVisible" value="1"/>
<vectornator:setting key="SnapToEdges" value="0"/>
<vectornator:setting key="DisplayWhiteBackground" value="0"/>
<vectornator:setting key="doHistoryDisabled" value="0"/>
<vectornator:setting key="TimeLapseWatermarkDisabled" value="0"/>
<vectornator:setting key="SnapToGuides" value="1"/>
<vectornator:setting key="Units" value="Points"/>
<vectornator:setting key="IsolateActiveLayer" value="0"/>
<vectornator:setting key="SnapToGrid" value="0"/>
<vectornator:setting key="DynamicGuides" value="0"/>
</metadata>
<defs/>
<g id="Ebene 2" vectornator:layerName="Ebene 2">
<path d="M506.445+186.652C501.947+182.224+497.102+186.786+493.545+192.043C492.666+189.571+491.417+187.902+490.502+188.138C489.412+188.42+489.213+191.301+490.058+194.573C490.244+195.297+490.477+196.007+490.755+196.701C489.203+199.597+488.261+201.884+488.261+201.884L483.357+207.365L497.28+216.407L500.686+209.207C500.686+209.207+514.921+194.996+506.445+186.652Z" opacity="1" fill="#efdf4c"/>
<g opacity="1">
<path d="M265.163+304.191C269.662+308.619+274.507+304.057+278.064+298.8C278.943+301.273+280.192+302.941+281.107+302.705C282.198+302.423+282.396+299.542+281.551+296.27C281.365+295.547+281.132+294.836+280.854+294.142C282.406+291.246+283.348+288.959+283.348+288.959L288.253+283.478L274.329+274.436L270.923+281.636C270.923+281.636+256.687+295.848+265.163+304.191Z" opacity="1" fill="#efdf4c"/>
<path d="M273.432+282.214L283.37+288.431L309.068+247.352L299.129+241.135L273.432+282.214Z" opacity="1" fill="#ff466b"/>
<path d="M489.246+274.694C489.246+294.17+483.47+313.209+472.65+329.402C461.83+345.596+446.45+358.218+428.457+365.671C410.463+373.124+390.664+375.074+371.562+371.274C352.46+367.475+334.914+358.096+321.142+344.325C307.371+330.553+297.992+313.007+294.192+293.905C290.393+274.803+292.343+255.004+299.796+237.01C307.249+219.016+319.871+203.637+336.064+192.817C352.258+181.996+371.297+176.221+390.773+176.221C403.714+176.187+416.535+178.711+428.497+183.647C440.46+188.584+451.329+195.836+460.48+204.987C469.631+214.138+476.883+225.007+481.82+236.969C486.756+248.932+489.28+261.753+489.246+274.694L489.246+274.694Z" opacity="1" fill="#ff466b"/>
<path d="M446.262+101.976C446.262+120.536+422.468+135.582+393.118+135.582C363.767+135.582+339.974+120.536+339.974+101.976C339.974+83.4158+363.767+23.0413+393.118+23.0413C422.468+23.0413+446.262+83.4158+446.262+101.976Z" opacity="1" fill="#ff466b"/>
<path d="M392.727+218.814C425.099+218.814+451.342+192.572+451.342+160.2C451.342+127.828+425.099+101.585+392.727+101.585C360.355+101.585+334.112+127.828+334.112+160.2C334.112+192.572+360.355+218.814+392.727+218.814Z" opacity="1" fill="#ffb8b8"/>
<path d="M392.727+288.761C417.354+288.761+412.736+278.964+424.09+260.634C429.55+251.819+458.766+239.056+458.766+228.193C458.766+194.742+429.199+167.624+392.727+167.624C356.254+167.624+326.688+194.742+326.688+228.193C326.688+242.505+351.779+247.956+360.829+258.321C372.931+272.183+371.858+288.761+392.727+288.761Z" opacity="1" fill="#eae6fc"/>
<path d="M336.208+208.772L301.85+208.772C298.111+208.772+294.526+207.287+291.882+204.643C289.239+202+287.753+198.414+287.753+194.676L287.753+194.676C287.753+192.455+288.278+190.266+289.284+188.287C290.291+186.308+291.751+184.594+293.545+183.286C295.339+181.978+297.417+181.113+299.61+180.761C301.802+180.408+304.047+180.579+306.16+181.258C331.557+189.431+355.773+194.722+369.814+175.166C369.814+179.579+368.945+183.949+367.256+188.026C365.567+192.104+363.092+195.808+359.971+198.929C356.851+202.05+353.146+204.525+349.069+206.214C344.991+207.903+340.621+208.772+336.208+208.772Z" opacity="1" fill="#eae6fc"/>
<path d="M441.963+186.772L407.605+186.772C403.866+186.772+400.281+185.287+397.637+182.643C394.994+180+393.508+176.414+393.508+172.676L393.508+172.676C393.508+170.455+394.033+168.266+395.039+166.287C396.046+164.308+397.506+162.594+399.3+161.286C401.094+159.978+403.172+159.113+405.365+158.761C407.557+158.408+409.802+158.579+411.915+159.258C437.312+167.431+461.528+172.722+475.569+153.166C475.569+157.579+474.7+161.949+473.011+166.026C471.322+170.104+468.847+173.808+465.726+176.929C462.606+180.05+458.901+182.525+454.824+184.214C450.746+185.903+446.376+186.772+441.963+186.772Z" opacity="1" fill="#eae6fc"/>
<path d="M342.709+186.772L377.068+186.772C380.806+186.772+384.392+185.287+387.035+182.643C389.679+180+391.164+176.414+391.164+172.676L391.164+172.676C391.164+170.455+390.639+168.266+389.633+166.287C388.626+164.308+387.167+162.594+385.372+161.286C383.578+159.978+381.5+159.113+379.308+158.761C377.115+158.408+374.871+158.579+372.757+159.258C347.36+167.431+323.144+172.722+309.103+153.166C309.103+157.579+309.972+161.949+311.661+166.026C313.35+170.104+315.826+173.808+318.946+176.929C322.067+180.05+325.771+182.525+329.849+184.214C333.926+185.903+338.296+186.772+342.709+186.772Z" opacity="1" fill="#eae6fc"/>
<path d="M392.336+180.91C398.379+180.91+403.278+176.012+403.278+169.969C403.278+163.926+398.379+159.028+392.336+159.028C386.293+159.028+381.395+163.926+381.395+169.969C381.395+176.012+386.293+180.91+392.336+180.91Z" opacity="1" fill="#ffb8b8"/>
<path d="M443.142+135.582L342.904+135.582C340.525+135.582+338.218+134.767+336.367+133.272C334.515+131.778+333.232+129.695+332.73+127.369L329.8+113.8C329.472+112.282+329.488+110.709+329.847+109.198C330.206+107.686+330.899+106.275+331.875+105.066C332.85+103.857+334.084+102.882+335.486+102.212C336.887+101.542+338.421+101.194+339.975+101.194L445.763+101.194C447.297+101.194+448.813+101.534+450.2+102.188C451.588+102.842+452.814+103.795+453.791+104.978C454.768+106.161+455.471+107.546+455.85+109.032C456.228+110.519+456.274+112.071+455.983+113.578L453.362+127.147C452.903+129.521+451.632+131.662+449.767+133.201C447.902+134.74+445.56+135.582+443.142+135.582L443.142+135.582Z" opacity="1" fill="#eae6fc"/>
<path d="M410.311+41.7981C418.081+41.7981+424.379+35.4998+424.379+27.7305C424.379+19.9613+418.081+13.663+410.311+13.663C402.542+13.663+396.244+19.9613+396.244+27.7305C396.244+35.4998+402.542+41.7981+410.311+41.7981Z" opacity="1" fill="#eae6fc"/>
<path d="M393.118+195.02C405.203+195.02+415+192.902+415+190.289C415+187.676+405.203+185.557+393.118+185.557C381.032+185.557+371.235+187.676+371.235+190.289C371.235+192.902+381.032+195.02+393.118+195.02Z" opacity="1" fill="#ffb8b8"/>
<path d="M486.237+298.921C483.725+308.875+479.657+318.37+474.186+327.056L307.36+327.056C301.889+318.37+297.822+308.875+295.309+298.921L486.237+298.921Z" opacity="1" fill="#3f3d56"/>
<path d="M383.491+296.694C383.491+316.17+377.715+335.209+366.895+351.402C356.075+367.596+340.695+380.218+322.702+387.671C304.708+395.124+284.909+397.074+265.807+393.274C246.705+389.475+229.159+380.096+215.387+366.325C201.616+352.553+192.237+335.007+188.437+315.905C184.638+296.803+186.588+277.004+194.041+259.01C201.494+241.016+214.116+225.637+230.309+214.817C246.503+203.996+265.542+198.221+285.018+198.221C297.959+198.187+310.78+200.711+322.742+205.647C334.705+210.584+345.574+217.836+354.725+226.987C363.876+236.138+371.128+247.007+376.065+258.969C381.001+270.932+383.525+283.753+383.491+296.694L383.491+296.694Z" opacity="1" fill="#ff466b"/>
<path d="M340.507+123.976C340.507+142.536+316.713+157.582+287.363+157.582C258.012+157.582+234.219+142.536+234.219+123.976C234.219+105.416+258.012+45.0413+287.363+45.0413C316.713+45.0413+340.507+105.416+340.507+123.976Z" opacity="1" fill="#ff466b"/>
<path d="M415.782+337.998L366.658+337.998L366.658+288.908L415.782+288.908L415.782+337.998ZM374.333+330.327L408.106+330.327L408.106+296.578L374.333+296.578L374.333+330.327Z" opacity="1" fill="#eae6fc"/>
<path d="M304.556+63.7981C312.326+63.7981+318.624+57.4998+318.624+49.7305C318.624+41.9613+312.326+35.663+304.556+35.663C296.787+35.663+290.489+41.9613+290.489+49.7305C290.489+57.4998+296.787+63.7981+304.556+63.7981Z" opacity="1" fill="#eae6fc"/>
<path d="M286.972+240.814C319.344+240.814+345.587+214.572+345.587+182.2C345.587+149.828+319.344+123.585+286.972+123.585C254.6+123.585+228.357+149.828+228.357+182.2C228.357+214.572+254.6+240.814+286.972+240.814Z" opacity="1" fill="#ffb8b8"/>
<path d="M367.327+364.57L355.604+364.57L355.604+413.025L367.327+413.025L367.327+364.57Z" opacity="1" fill="#ff6584"/>
<path d="M286.972+310.761C311.6+310.761+306.982+300.964+318.335+282.634C323.796+273.819+353.011+261.056+353.011+250.193C353.011+216.742+323.444+189.624+286.972+189.624C250.499+189.624+220.933+216.742+220.933+250.193C220.933+264.505+246.025+269.956+255.075+280.321C267.177+294.183+266.104+310.761+286.972+310.761Z" opacity="1" fill="#eae6fc"/>
<path d="M319.405+386.57L307.682+386.57L307.682+435.025L319.405+435.025L319.405+386.57Z" opacity="1" fill="#ff6584"/>
<path d="M425.16+364.57L413.437+364.57L413.437+413.025L425.16+413.025L425.16+364.57Z" opacity="1" fill="#ff6584"/>
<path d="M392.422+230.629L382.484+224.412L356.787+265.491L366.725+271.708L392.422+230.629Z" opacity="1" fill="#ff466b"/>
<path d="M236.954+208.772L271.313+208.772C275.051+208.772+278.637+207.287+281.28+204.643C283.924+202+285.409+198.414+285.409+194.676L285.409+194.676C285.409+192.455+284.884+190.266+283.878+188.287C282.871+186.308+281.412+184.594+279.617+183.286C277.823+181.978+275.745+181.113+273.553+180.761C271.36+180.408+269.116+180.579+267.002+181.258C241.605+189.431+217.389+194.722+203.348+175.166C203.348+179.579+204.217+183.949+205.906+188.026C207.595+192.104+210.071+195.808+213.191+198.929C216.312+202.05+220.016+204.525+224.094+206.214C228.171+207.903+232.541+208.772+236.954+208.772Z" opacity="1" fill="#eae6fc"/>
<path d="M498.177+208.629L488.239+202.412L462.542+243.491L472.48+249.708L498.177+208.629Z" opacity="1" fill="#ff466b"/>
<path d="M286.581+202.91C292.624+202.91+297.523+198.012+297.523+191.969C297.523+185.926+292.624+181.028+286.581+181.028C280.538+181.028+275.64+185.926+275.64+191.969C275.64+198.012+280.538+202.91+286.581+202.91Z" opacity="1" fill="#ffb8b8"/>
<path d="M328.002+440.723L328.002+417.831L301.43+417.831L307.823+440.495L307.682+440.495L307.682+453L338.162+453C338.161+450.091+337.146+447.274+335.292+445.033C333.437+442.792+330.859+441.268+328.002+440.723L328.002+440.723Z" opacity="1" fill="#3f3d56"/>
<path d="M337.387+157.582L237.149+157.582C234.77+157.582+232.463+156.767+230.612+155.272C228.76+153.778+227.477+151.695+226.975+149.369L224.045+135.8C223.717+134.282+223.733+132.709+224.092+131.198C224.451+129.686+225.144+128.275+226.12+127.066C227.095+125.857+228.329+124.882+229.731+124.212C231.132+123.542+232.666+123.194+234.22+123.194L340.008+123.194C341.542+123.194+343.058+123.534+344.445+124.188C345.833+124.842+347.059+125.795+348.036+126.978C349.013+128.161+349.716+129.546+350.095+131.032C350.473+132.519+350.519+134.071+350.228+135.578L347.607+149.147C347.148+151.521+345.877+153.662+344.012+155.201C342.147+156.74+339.805+157.582+337.387+157.582L337.387+157.582Z" opacity="1" fill="#eae6fc"/>
<path d="M433.757+418.723L433.757+395.831L407.185+395.831L413.578+418.495L413.437+418.495L413.437+431L443.917+431C443.916+428.091+442.901+425.274+441.047+423.033C439.192+420.792+436.614+419.268+433.757+418.723L433.757+418.723Z" opacity="1" fill="#3f3d56"/>
<path d="M347.789+418.723L347.789+395.831L374.361+395.831L367.968+418.495L368.109+418.495L368.109+431L337.629+431C337.63+428.091+338.645+425.274+340.5+423.033C342.354+420.792+344.932+419.268+347.789+418.723L347.789+418.723Z" opacity="1" fill="#3f3d56"/>
<path d="M400.69+208.652C396.192+204.224+391.347+208.786+387.79+214.043C386.911+211.571+385.662+209.902+384.747+210.138C383.657+210.42+383.458+213.301+384.303+216.573C384.489+217.297+384.722+218.007+385+218.701C383.448+221.597+382.506+223.884+382.506+223.884L377.602+229.365L391.525+238.407L394.931+231.207C394.931+231.207+409.166+216.996+400.69+208.652Z" opacity="1" fill="#efdf4c"/>
<path d="M287.363+217.02C299.448+217.02+309.245+214.902+309.245+212.289C309.245+209.676+299.448+207.557+287.363+207.557C275.277+207.557+265.48+209.676+265.48+212.289C265.48+214.902+275.277+217.02+287.363+217.02Z" opacity="1" fill="#ffb8b8"/>
<path d="M380.482+320.921C377.97+330.875+373.902+340.37+368.431+349.056L201.605+349.056C196.134+340.37+192.067+330.875+189.554+320.921L380.482+320.921Z" opacity="1" fill="#3f3d56"/>
<path d="M367.139+146.658C367.139+143.068+369.377+140.158+372.139+140.158C374.9+140.158+377.139+143.068+377.139+146.658C377.139+150.248+374.9+153.158+372.139+153.158C369.377+153.158+367.139+150.248+367.139+146.658Z" opacity="1" fill="#9e9b9b"/>
<path d="M310.027+359.998L260.904+359.998L260.904+310.908L310.027+310.908L310.027+359.998ZM268.579+352.327L302.352+352.327L302.352+318.578L268.579+318.578L268.579+352.327Z" opacity="1" fill="#eae6fc"/>
<path d="M299.384+168.658C299.384+165.068+301.623+162.158+304.384+162.158C307.146+162.158+309.384+165.068+309.384+168.658C309.384+172.248+307.146+175.158+304.384+175.158C301.623+175.158+299.384+172.248+299.384+168.658Z" opacity="1" fill="#9e9b9b"/>
<path d="M261.572+386.57L249.849+386.57L249.849+435.025L261.572+435.025L261.572+386.57Z" opacity="1" fill="#ff6584"/>
<path d="M405.139+146.658C405.139+143.068+407.377+140.158+410.139+140.158C412.9+140.158+415.139+143.068+415.139+146.658C415.139+150.248+412.9+153.158+410.139+153.158C407.377+153.158+405.139+150.248+405.139+146.658Z" opacity="1" fill="#9e9b9b"/>
<path d="M242.034+440.723L242.034+417.831L268.606+417.831L262.213+440.495L262.354+440.495L262.354+453L231.874+453C231.875+450.091+232.89+447.274+234.745+445.033C236.599+442.792+239.177+441.268+242.034+440.723L242.034+440.723Z" opacity="1" fill="#3f3d56"/>
<path d="M167.677+304.214L177.615+310.431L203.313+269.352L193.374+263.135L167.677+304.214Z" opacity="1" fill="#ff466b"/>
<path d="M159.409+326.191C163.907+330.619+168.752+326.057+172.309+320.8C173.188+323.273+174.437+324.941+175.352+324.705C176.443+324.423+176.641+321.542+175.796+318.27C175.61+317.547+175.377+316.836+175.099+316.142C176.651+313.246+177.593+310.959+177.593+310.959L182.498+305.478L168.574+296.436L165.168+303.636C165.168+303.636+150.933+317.848+159.409+326.191Z" opacity="1" fill="#efdf4c"/>
<path d="M261.384+168.658C261.384+165.068+263.623+162.158+266.384+162.158C269.146+162.158+271.384+165.068+271.384+168.658C271.384+172.248+269.146+175.158+266.384+175.158C263.623+175.158+261.384+172.248+261.384+168.658Z" opacity="1" fill="#9e9b9b"/>
</g>
</g>
<g id="Untitled" vectornator:layerName="Untitled">
<g vectornator:shadowOffset="10" vectornator:shadowOpacity="0.333" vectornator:shadowAngle="1.5708" vectornator:shadowColor="#000000" opacity="1" vectornator:shadowRadius="10">
<path d="M313.197+270.613C313.197+293.338+305.661+315.554+291.543+334.449C277.425+353.345+257.358+368.074+233.881+376.77C210.402+385.467+184.569+387.742+159.645+383.308C134.721+378.875+111.828+367.931+93.8581+351.862C75.89+335.792+63.6524+315.319+58.6943+293.029C53.7374+270.74+56.2817+247.637+66.0063+226.641C75.7308+205.644+92.1997+187.699+113.328+175.074C134.458+162.447+159.299+155.708+184.711+155.708C201.596+155.669+218.325+158.614+233.933+164.374C249.542+170.134+263.724+178.596+275.664+189.274C287.604+199.952+297.066+212.635+303.508+226.593C309.948+240.552+313.241+255.512+313.197+270.613L313.197+270.613Z" opacity="1" fill="#ff466b"/>
<path d="M257.112+69.075C257.112+90.7319+226.066+108.288+187.771+108.288C149.474+108.288+118.43+90.7319+118.43+69.075C118.43+47.4178+149.474-23.0308+187.771-23.0308C226.066-23.0308+257.112+47.4178+257.112+69.075Z" opacity="1" fill="#ff466b"/>
<path d="M187.261+205.409C229.499+205.409+263.741+174.788+263.741+137.014C263.741+99.2406+229.499+68.6187+187.261+68.6187C145.022+68.6187+110.781+99.2406+110.781+137.014C110.781+174.788+145.022+205.409+187.261+205.409Z" opacity="1" fill="#ffb8b8"/>
<path d="M187.261+287.027C219.394+287.027+213.369+275.595+228.183+254.207C235.307+243.921+273.427+229.029+273.427+216.353C273.427+177.32+234.849+145.677+187.261+145.677C139.672+145.677+101.094+177.32+101.094+216.353C101.094+233.052+133.834+239.413+145.641+251.508C161.432+267.683+160.032+287.027+187.261+287.027Z" opacity="1" fill="#eae6fc"/>
<path d="M251.503+168.02L206.673+168.02C201.795+168.02+197.117+166.287+193.667+163.202C190.219+160.118+188.28+155.934+188.28+151.572L188.28+151.572C188.28+148.98+188.965+146.426+190.277+144.117C191.591+141.808+193.496+139.808+195.837+138.281C198.178+136.755+200.889+135.746+203.751+135.335C206.611+134.923+209.54+135.123+212.297+135.915C245.435+145.452+277.031+151.626+295.351+128.807C295.351+133.956+294.218+139.055+292.014+143.812C289.81+148.571+286.581+152.893+282.509+156.535C278.438+160.176+273.603+163.064+268.284+165.035C262.963+167.006+257.261+168.02+251.503+168.02Z" opacity="1" fill="#eae6fc"/>
<path d="M121.998+168.02L166.829+168.02C171.707+168.02+176.385+166.287+179.834+163.202C183.284+160.118+185.221+155.934+185.221+151.572L185.221+151.572C185.221+148.98+184.536+146.426+183.224+144.117C181.91+141.808+180.006+139.808+177.664+138.281C175.323+136.755+172.612+135.746+169.752+135.335C166.891+134.923+163.963+135.123+161.204+135.915C128.067+145.452+96.4703+151.626+78.1498+128.807C78.1498+133.956+79.2837+139.055+81.4875+143.812C83.6913+148.571+86.9219+152.893+90.9928+156.535C95.065+160.176+99.8979+163.064+105.219+165.035C110.538+167.006+116.24+168.02+121.998+168.02Z" opacity="1" fill="#eae6fc"/>
<path d="M186.751+161.18C194.635+161.18+201.028+155.465+201.028+148.413C201.028+141.362+194.635+135.647+186.751+135.647C178.866+135.647+172.475+141.362+172.475+148.413C172.475+155.465+178.866+161.18+186.751+161.18Z" opacity="1" fill="#ffb8b8"/>
<path d="M253.041+108.288L122.253+108.288C119.149+108.288+116.139+107.337+113.723+105.593C111.307+103.85+109.633+101.419+108.978+98.705L105.155+82.8719C104.727+81.1006+104.748+79.2651+105.216+77.502C105.685+75.7377+106.589+74.0913+107.862+72.6806C109.134+71.2698+110.745+70.1321+112.574+69.3503C114.402+68.5685+116.403+68.1625+118.431+68.1625L256.461+68.1625C258.463+68.1625+260.441+68.5592+262.251+69.3223C264.062+70.0855+265.661+71.1975+266.936+72.5779C268.211+73.9583+269.128+75.5744+269.623+77.3083C270.116+79.0434+270.176+80.8544+269.796+82.6129L266.376+98.446C265.777+101.216+264.119+103.714+261.686+105.51C259.252+107.306+256.196+108.288+253.041+108.288L253.041+108.288Z" opacity="1" fill="#eae6fc"/>
<path d="M210.204-1.14424C220.342-1.14424+228.56-8.49348+228.56-17.5592C228.56-26.6247+220.342-33.974+210.204-33.974C200.067-33.974+191.85-26.6247+191.85-17.5592C191.85-8.49348+200.067-1.14424+210.204-1.14424Z" opacity="1" fill="#eae6fc"/>
<path d="M187.771+177.644C203.539+177.644+216.322+175.173+216.322+172.124C216.322+169.075+203.539+166.602+187.771+166.602C172.001+166.602+159.218+169.075+159.218+172.124C159.218+175.173+172.001+177.644+187.771+177.644Z" opacity="1" fill="#ffb8b8"/>
<path d="M309.271+298.882C305.993+310.497+300.685+321.577+293.547+331.712L75.8756+331.712C68.7372+321.577+63.4306+310.497+60.1517+298.882L309.271+298.882Z" opacity="1" fill="#3f3d56"/>
<path d="M217.343+344.48L153.247+344.48L153.247+287.198L217.343+287.198L217.343+344.48ZM163.262+335.529L207.328+335.529L207.328+296.148L163.262+296.148L163.262+335.529Z" opacity="1" fill="#eae6fc"/>
<path d="M154.119+375.485L138.823+375.485L138.823+432.026L154.119+432.026L154.119+375.485Z" opacity="1" fill="#ff6584"/>
<path d="M229.579+375.485L214.283+375.485L214.283+432.026L229.579+432.026L229.579+375.485Z" opacity="1" fill="#ff6584"/>
<path d="M324.85+193.524L311.883+186.27L278.354+234.203L291.321+241.458L324.85+193.524Z" opacity="1" fill="#ff466b"/>
<path d="M240.796+438.674L240.796+411.963L206.125+411.963L214.467+438.408L214.283+438.408L214.283+453L254.053+453C254.051+449.606+252.727+446.319+250.308+443.704C247.887+441.089+244.524+439.31+240.796+438.674L240.796+438.674Z" opacity="1" fill="#3f3d56"/>
<path d="M128.627+438.674L128.627+411.963L163.297+411.963L154.956+438.408L155.14+438.408L155.14+453L115.37+453C115.371+449.606+116.696+446.319+119.116+443.704C121.535+441.089+124.899+439.31+128.627+438.674L128.627+438.674Z" opacity="1" fill="#3f3d56"/>
<path d="M335.638+167.88C329.769+162.713+323.447+168.036+318.806+174.171C317.659+171.286+316.03+169.339+314.836+169.614C313.414+169.943+313.154+173.305+314.256+177.123C314.499+177.968+314.803+178.796+315.166+179.606C313.141+182.985+311.912+185.654+311.912+185.654L305.513+192.049L323.68+202.6L328.124+194.199C328.124+194.199+346.697+177.616+335.638+167.88Z" opacity="1" fill="#efdf4c"/>
<path d="M31.607+279.388L44.5739+286.642L78.1042+238.708L65.136+231.454L31.607+279.388Z" opacity="1" fill="#ff466b"/>
<path d="M20.8187+305.032C26.688+310.198+33.0097+304.875+37.6508+298.741C38.7977+301.627+40.4273+303.573+41.6212+303.298C43.0447+302.969+43.3031+299.607+42.2005+295.789C41.9578+294.945+41.6538+294.116+41.2911+293.306C43.3161+289.927+44.5452+287.258+44.5452+287.258L50.9452+280.862L32.7774+270.312L28.3333+278.713C28.3333+278.713+9.75937+295.296+20.8187+305.032Z" opacity="1" fill="#efdf4c"/>
<path d="M153.874+121.213C153.874+117.024+156.795+113.628+160.398+113.628C164.001+113.628+166.922+117.024+166.922+121.213C166.922+125.401+164.001+128.797+160.398+128.797C156.795+128.797+153.874+125.401+153.874+121.213Z" opacity="1" fill="#9e9b9b"/>
<path d="M203.456+121.213C203.456+117.024+206.377+113.628+209.98+113.628C213.583+113.628+216.504+117.024+216.504+121.213C216.504+125.401+213.583+128.797+209.98+128.797C206.377+128.797+203.456+125.401+203.456+121.213Z" opacity="1" fill="#9e9b9b"/>
</g>
</g>
<g id="Ebene 1" vectornator:layerName="Ebene 1">
<g vectornator:shadowOffset="10" vectornator:shadowOpacity="0.333" vectornator:shadowAngle="1.5708" vectornator:shadowColor="#000000" opacity="1" vectornator:shadowRadius="10">
<path d="M128.805+332.87C128.805+347.838+124.807+362.471+117.317+374.916C109.828+387.362+99.1812+397.063+86.7261+402.791C74.2704+408.519+60.5651+410.018+47.3423+407.097C34.1196+404.177+21.9739+396.969+12.4407+386.385C2.90811+375.801-3.58421+362.316-6.21464+347.635C-8.84438+332.954-7.49455+317.737-2.33544+303.908C2.82367+290.078+11.5609+278.259+22.7699+269.943C33.9797+261.626+47.1589+257.188+60.6406+257.188C69.5986+257.162+78.4735+259.102+86.7538+262.895C95.0348+266.69+102.559+272.263+108.893+279.296C115.228+286.329+120.248+294.683+123.665+303.876C127.082+313.071+128.829+322.924+128.805+332.87L128.805+332.87Z" opacity="1" fill="#ff466b"/>
<path d="M99.0511+200.127C99.0511+214.391+82.5804+225.955+62.2638+225.955C41.9465+225.955+25.4765+214.391+25.4765+200.127C25.4765+185.862+41.9465+139.461+62.2638+139.461C82.5804+139.461+99.0511+185.862+99.0511+200.127Z" opacity="1" fill="#ff466b"/>
<path d="M61.9932+289.923C84.4017+289.923+102.568+269.755+102.568+244.875C102.568+219.995+84.4017+199.826+61.9932+199.826C39.5846+199.826+21.4187+219.995+21.4187+244.875C21.4187+269.755+39.5846+289.923+61.9932+289.923Z" opacity="1" fill="#ffb8b8"/>
<path d="M61.9932+343.681C79.0408+343.681+75.844+336.152+83.7032+322.064C87.483+315.289+107.707+305.481+107.707+297.131C107.707+271.423+87.2398+250.581+61.9932+250.581C36.7459+250.581+16.2797+271.423+16.2797+297.131C16.2797+308.131+33.6488+312.321+39.9129+320.287C48.2902+330.94+47.5477+343.681+61.9932+343.681Z" opacity="1" fill="#eae6fc"/>
<path d="M96.0753+265.297L72.292+265.297C69.7038+265.297+67.2222+264.156+65.392+262.124C63.5624+260.092+62.5338+257.336+62.5338+254.464L62.5338+254.464C62.5338+252.757+62.8972+251.074+63.5936+249.553C64.2906+248.032+65.3013+246.715+66.5431+245.71C67.785+244.704+69.2234+244.04+70.7414+243.769C72.2588+243.498+73.8128+243.629+75.2755+244.151C92.8558+250.432+109.619+254.499+119.338+239.469C119.338+242.861+118.736+246.219+117.567+249.353C116.398+252.487+114.685+255.334+112.524+257.732C110.365+260.131+107.8+262.033+104.978+263.331C102.155+264.629+99.13+265.297+96.0753+265.297Z" opacity="1" fill="#eae6fc"/>
<path d="M27.3697+265.297L51.1537+265.297C53.7412+265.297+56.2235+264.156+58.0531+262.124C59.8833+260.092+60.9112+257.336+60.9112+254.464L60.9112+254.464C60.9112+252.757+60.5478+251.074+59.8514+249.553C59.1544+248.032+58.1444+246.715+56.9019+245.71C55.66+244.704+54.2216+244.04+52.7043+243.769C51.1862+243.498+49.6329+243.629+48.1695+244.151C30.5893+250.432+13.8265+254.499+4.10703+239.469C4.10703+242.861+4.70857+246.219+5.87773+249.353C7.04689+252.487+8.76083+255.334+10.9205+257.732C13.081+260.131+15.6449+262.033+18.4678+263.331C21.29+264.629+24.315+265.297+27.3697+265.297Z" opacity="1" fill="#eae6fc"/>
<path d="M61.7225+260.792C65.9056+260.792+69.2968+257.027+69.2968+252.383C69.2968+247.739+65.9056+243.974+61.7225+243.974C57.5394+243.974+54.1489+247.739+54.1489+252.383C54.1489+257.027+57.5394+260.792+61.7225+260.792Z" opacity="1" fill="#ffb8b8"/>
<path d="M96.8914+225.955L27.5047+225.955C25.8579+225.955+24.261+225.328+22.9797+224.179C21.6977+223.031+20.8096+221.43+20.4621+219.643L18.4339+209.214C18.2068+208.047+18.2179+206.838+18.4664+205.677C18.7149+204.515+19.1946+203.431+19.8702+202.501C20.5452+201.572+21.3994+200.823+22.3699+200.308C23.3397+199.793+24.4015+199.526+25.4772+199.526L98.7057+199.526C99.7675+199.526+100.817+199.787+101.777+200.29C102.738+200.792+103.587+201.525+104.263+202.434C104.939+203.343+105.426+204.408+105.688+205.55C105.95+206.692+105.982+207.885+105.78+209.043L103.966+219.472C103.648+221.297+102.768+222.942+101.477+224.125C100.186+225.308+98.5652+225.955+96.8914+225.955L96.8914+225.955Z" opacity="1" fill="#eae6fc"/>
<path d="M74.1651+153.877C79.5437+153.877+83.9033+149.036+83.9033+143.065C83.9033+137.094+79.5437+132.253+74.1651+132.253C68.7873+132.253+64.4277+137.094+64.4277+143.065C64.4277+149.036+68.7873+153.877+74.1651+153.877Z" opacity="1" fill="#eae6fc"/>
<path d="M62.2638+271.636C70.6293+271.636+77.411+270.008+77.411+268C77.411+265.992+70.6293+264.363+62.2638+264.363C53.8977+264.363+47.116+265.992+47.116+268C47.116+270.008+53.8977+271.636+62.2638+271.636Z" opacity="1" fill="#ffb8b8"/>
<path d="M126.723+351.49C124.984+359.14+122.168+366.438+118.381+373.113L2.9005+373.113C-0.886628+366.438-3.70188+359.14-5.44143+351.49L126.723+351.49Z" opacity="1" fill="#3f3d56"/>
<path d="M77.9523+381.523L43.9481+381.523L43.9481+343.794L77.9523+343.794L77.9523+381.523ZM49.2611+375.627L72.6393+375.627L72.6393+349.689L49.2611+349.689L49.2611+375.627Z" opacity="1" fill="#eae6fc"/>
<path d="M44.4108+401.945L36.2959+401.945L36.2959+439.185L44.4108+439.185L44.4108+401.945Z" opacity="1" fill="#ff6584"/>
<path d="M84.4439+401.945L76.329+401.945L76.329+439.185L84.4439+439.185L84.4439+401.945Z" opacity="1" fill="#ff6584"/>
<path d="M134.988+282.095L128.108+277.317L110.32+308.889L117.2+313.667L134.988+282.095Z" opacity="1" fill="#ff466b"/>
<path d="M90.3949+443.564L90.3949+425.971L72.0013+425.971L76.4266+443.389L76.329+443.389L76.329+453L97.4278+453C97.4272+450.764+96.7246+448.599+95.4412+446.877C94.1571+445.155+92.3726+443.983+90.3949+443.564L90.3949+443.564Z" opacity="1" fill="#3f3d56"/>
<path d="M30.8862+443.564L30.8862+425.971L49.2799+425.971L44.8545+443.389L44.9521+443.389L44.9521+453L23.8533+453C23.854+450.764+24.5566+448.599+25.8406+446.877C27.124+445.155+28.9086+443.983+30.8862+443.564L30.8862+443.564Z" opacity="1" fill="#3f3d56"/>
<path d="M140.711+265.205C137.597+261.802+134.244+265.308+131.781+269.348C131.173+267.448+130.308+266.166+129.675+266.347C128.92+266.564+128.783+268.778+129.368+271.293C129.496+271.849+129.658+272.395+129.85+272.928C128.776+275.154+128.124+276.912+128.124+276.912L124.729+281.124L134.367+288.073L136.724+282.54C136.724+282.54+146.578+271.618+140.711+265.205Z" opacity="1" fill="#efdf4c"/>
<path d="M-20.5851+338.65L-13.7058+343.428L4.08281+311.856L-2.79716+307.078L-20.5851+338.65Z" opacity="1" fill="#ff466b"/>
<path d="M-26.3086+355.54C-23.1948+358.943-19.841+355.437-17.3787+351.397C-16.7703+353.298-15.9057+354.58-15.2723+354.398C-14.5171+354.181-14.3801+351.967-14.965+349.452C-15.0937+348.897-15.255+348.35-15.4475+347.817C-14.3731+345.591-13.7211+343.834-13.7211+343.834L-10.3257+339.621L-19.9642+332.672L-22.3219+338.205C-22.3219+338.205-32.1758+349.128-26.3086+355.54Z" opacity="1" fill="#efdf4c"/>
<path d="M44.2807+234.467C44.2807+231.708+45.8302+229.472+47.7418+229.472C49.6533+229.472+51.2029+231.708+51.2029+234.467C51.2029+237.226+49.6533+239.463+47.7418+239.463C45.8302+239.463+44.2807+237.226+44.2807+234.467Z" opacity="1" fill="#9e9b9b"/>
<path d="M70.585+234.467C70.585+231.708+72.1346+229.472+74.0461+229.472C75.9576+229.472+77.5072+231.708+77.5072+234.467C77.5072+237.226+75.9576+239.463+74.0461+239.463C72.1346+239.463+70.585+237.226+70.585+234.467Z" opacity="1" fill="#9e9b9b"/>
</g>
</g>
</svg>
